<?xml version="1.0" encoding="utf-8"?>
<!-- Generator: Adobe Illustrator 23.0.0, SVG Export Plug-In . SVG Version: 6.00 Build 0)  -->
<svg version="1.1" id="Layer_1" xmlns="http://www.w3.org/2000/svg" xmlns:xlink="http://www.w3.org/1999/xlink" x="0px" y="0px"
	 viewBox="0 0 481.89 228.66" style="enable-background:new 0 0 481.89 228.66;" xml:space="preserve">
<style type="text/css">
	.st0{fill:#64BDE1;}
	.st1{fill:#FFFFFF;}
	.st2{fill:#003767;}
	.st3{fill:none;stroke:#B0DAEE;stroke-width:0.561;}
	.st4{fill:#231F20;}
	.st5{fill:none;stroke:#003767;}
	.st6{fill:none;stroke:#B0DAEE;stroke-width:2;}
	.st7{fill:none;stroke:#64BDE1;stroke-width:0.5;}
	.st8{fill:#E3F1F8;}
</style>
<rect x="122.32" y="39.74" class="st0" width="112.65" height="27.31"/>
<g>
	<path class="st1" d="M150,53.78c0.42,0.26,1.03,0.47,1.67,0.47c0.95,0,1.51-0.5,1.51-1.23c0-0.67-0.39-1.06-1.36-1.44
		c-1.18-0.42-1.91-1.03-1.91-2.05c0-1.12,0.93-1.96,2.33-1.96c0.74,0,1.28,0.17,1.6,0.35l-0.26,0.76c-0.24-0.13-0.72-0.34-1.37-0.34
		c-0.99,0-1.36,0.59-1.36,1.08c0,0.67,0.44,1.01,1.44,1.39c1.22,0.47,1.84,1.06,1.84,2.12c0,1.11-0.83,2.08-2.53,2.08
		c-0.7,0-1.46-0.2-1.84-0.46L150,53.78z"/>
	<path class="st1" d="M155.38,47.31h0.94v3.24h0.02c0.15-0.27,0.39-0.5,0.67-0.66c0.28-0.16,0.61-0.27,0.96-0.27
		c0.7,0,1.81,0.43,1.81,2.22v3.08h-0.94v-2.98c0-0.84-0.31-1.54-1.2-1.54c-0.61,0-1.09,0.43-1.26,0.94
		c-0.05,0.13-0.06,0.27-0.06,0.45v3.13h-0.94V47.31z"/>
	<path class="st1" d="M164.19,54.91l-0.07-0.65h-0.03c-0.29,0.41-0.85,0.77-1.59,0.77c-1.05,0-1.58-0.74-1.58-1.49
		c0-1.25,1.11-1.94,3.12-1.93v-0.11c0-0.43-0.12-1.2-1.18-1.2c-0.48,0-0.99,0.15-1.35,0.39l-0.21-0.62c0.43-0.28,1.05-0.46,1.7-0.46
		c1.58,0,1.97,1.08,1.97,2.12v1.94c0,0.45,0.02,0.89,0.09,1.24H164.19z M164.06,52.27c-1.03-0.02-2.2,0.16-2.2,1.17
		c0,0.61,0.41,0.9,0.89,0.9c0.67,0,1.1-0.43,1.25-0.87c0.03-0.1,0.05-0.2,0.05-0.3V52.27z"/>
	<path class="st1" d="M166.49,51.35c0-0.61-0.01-1.14-0.04-1.62h0.82l0.03,1.02h0.04c0.24-0.7,0.8-1.14,1.44-1.14
		c0.11,0,0.18,0.01,0.27,0.03v0.89c-0.1-0.02-0.19-0.03-0.32-0.03c-0.66,0-1.14,0.5-1.26,1.21c-0.02,0.13-0.04,0.28-0.04,0.44v2.76
		h-0.93V51.35z"/>
	<path class="st1" d="M170.41,52.49c0.02,1.27,0.84,1.8,1.78,1.8c0.67,0,1.08-0.12,1.44-0.27l0.16,0.67
		c-0.33,0.15-0.9,0.32-1.72,0.32c-1.6,0-2.55-1.05-2.55-2.61s0.92-2.8,2.43-2.8c1.69,0,2.14,1.49,2.14,2.44
		c0,0.19-0.02,0.34-0.03,0.44H170.41z M173.17,51.82c0.01-0.6-0.25-1.53-1.31-1.53c-0.95,0-1.37,0.88-1.45,1.53H173.17z"/>
	<path class="st1" d="M175.25,47.31h0.94v3.24h0.02c0.15-0.27,0.39-0.5,0.67-0.66c0.28-0.16,0.61-0.27,0.96-0.27
		c0.7,0,1.81,0.43,1.81,2.22v3.08h-0.94v-2.98c0-0.84-0.31-1.54-1.2-1.54c-0.61,0-1.09,0.43-1.26,0.94
		c-0.05,0.13-0.06,0.27-0.06,0.45v3.13h-0.94V47.31z"/>
	<path class="st1" d="M185.88,52.28c0,1.92-1.33,2.75-2.58,2.75c-1.4,0-2.49-1.03-2.49-2.67c0-1.74,1.14-2.75,2.57-2.75
		C184.88,49.61,185.88,50.69,185.88,52.28z M181.77,52.33c0,1.14,0.65,1.99,1.57,1.99c0.9,0,1.58-0.85,1.58-2.01
		c0-0.88-0.44-1.99-1.55-1.99C182.25,50.32,181.77,51.35,181.77,52.33z"/>
	<path class="st1" d="M187.07,47.31h0.94v7.61h-0.94V47.31z"/>
	<path class="st1" d="M194.08,47.31v6.27c0,0.46,0.01,0.99,0.04,1.34h-0.85l-0.04-0.9h-0.02c-0.29,0.58-0.92,1.02-1.77,1.02
		c-1.25,0-2.22-1.06-2.22-2.63c-0.01-1.72,1.06-2.79,2.32-2.79c0.79,0,1.33,0.38,1.56,0.79h0.02v-3.1H194.08z M193.13,51.84
		c0-0.12-0.01-0.28-0.04-0.4c-0.14-0.6-0.65-1.09-1.36-1.09c-0.97,0-1.55,0.86-1.55,2c0,1.05,0.51,1.92,1.53,1.92
		c0.63,0,1.21-0.42,1.38-1.12c0.03-0.13,0.04-0.26,0.04-0.41V51.84z"/>
	<path class="st1" d="M196.16,52.49c0.02,1.27,0.84,1.8,1.78,1.8c0.67,0,1.08-0.12,1.44-0.27l0.16,0.67
		c-0.33,0.15-0.9,0.32-1.72,0.32c-1.6,0-2.55-1.05-2.55-2.61s0.92-2.8,2.43-2.8c1.69,0,2.14,1.49,2.14,2.44
		c0,0.19-0.02,0.34-0.03,0.44H196.16z M198.93,51.82c0.01-0.6-0.25-1.53-1.31-1.53c-0.95,0-1.37,0.88-1.45,1.53H198.93z"/>
	<path class="st1" d="M201,51.35c0-0.61-0.01-1.14-0.04-1.62h0.82l0.03,1.02h0.04c0.24-0.7,0.8-1.14,1.44-1.14
		c0.11,0,0.18,0.01,0.27,0.03v0.89c-0.1-0.02-0.19-0.03-0.32-0.03c-0.66,0-1.13,0.5-1.26,1.21c-0.02,0.13-0.04,0.28-0.04,0.44v2.76
		H201V51.35z"/>
	<path class="st1" d="M204.38,53.95c0.28,0.18,0.77,0.37,1.24,0.37c0.69,0,1.01-0.34,1.01-0.77c0-0.45-0.27-0.7-0.96-0.95
		c-0.93-0.33-1.37-0.85-1.37-1.47c0-0.84,0.67-1.52,1.79-1.52c0.53,0,0.99,0.15,1.27,0.32l-0.24,0.69c-0.2-0.13-0.58-0.3-1.06-0.3
		c-0.56,0-0.87,0.32-0.87,0.71c0,0.43,0.31,0.62,0.99,0.88c0.9,0.34,1.36,0.79,1.36,1.56c0,0.91-0.71,1.55-1.94,1.55
		c-0.57,0-1.09-0.14-1.46-0.35L204.38,53.95z"/>
</g>
<rect x="246.92" y="39.74" class="st0" width="112.65" height="27.31"/>
<g>
	<path class="st1" d="M280.16,47.79c0.47-0.1,1.15-0.15,1.79-0.15c1,0,1.64,0.18,2.09,0.59c0.36,0.32,0.57,0.81,0.57,1.37
		c0,0.95-0.6,1.59-1.36,1.84v0.03c0.56,0.19,0.89,0.71,1.06,1.46c0.24,1.01,0.41,1.7,0.56,1.98h-0.96c-0.12-0.2-0.28-0.82-0.48-1.72
		c-0.21-1-0.6-1.37-1.45-1.4h-0.88v3.13h-0.93V47.79z M281.09,51.08h0.95c1,0,1.63-0.55,1.63-1.37c0-0.93-0.67-1.34-1.66-1.35
		c-0.45,0-0.77,0.04-0.92,0.09V51.08z"/>
	<path class="st1" d="M286.45,52.49c0.02,1.27,0.84,1.8,1.78,1.8c0.67,0,1.08-0.12,1.44-0.27l0.16,0.67
		c-0.33,0.15-0.9,0.32-1.72,0.32c-1.6,0-2.55-1.05-2.55-2.61s0.92-2.8,2.43-2.8c1.69,0,2.14,1.49,2.14,2.44
		c0,0.19-0.02,0.34-0.03,0.44H286.45z M289.21,51.82c0.01-0.6-0.25-1.53-1.31-1.53c-0.95,0-1.37,0.88-1.45,1.53H289.21z"/>
	<path class="st1" d="M295.75,49.73c-0.02,0.38-0.04,0.79-0.04,1.42v3.01c0,1.19-0.24,1.92-0.74,2.37c-0.5,0.47-1.23,0.62-1.89,0.62
		c-0.62,0-1.31-0.15-1.72-0.43l0.24-0.72c0.34,0.21,0.88,0.41,1.52,0.41c0.96,0,1.67-0.5,1.67-1.81v-0.58h-0.02
		c-0.29,0.48-0.85,0.87-1.65,0.87c-1.29,0-2.21-1.09-2.21-2.53c0-1.76,1.15-2.75,2.33-2.75c0.9,0,1.39,0.47,1.62,0.9h0.02l0.04-0.78
		H295.75z M294.78,51.78c0-0.16-0.01-0.3-0.05-0.43c-0.17-0.55-0.63-1-1.32-1c-0.9,0-1.54,0.76-1.54,1.96
		c0,1.02,0.51,1.86,1.53,1.86c0.58,0,1.1-0.36,1.31-0.96c0.05-0.16,0.08-0.34,0.08-0.5V51.78z"/>
	<path class="st1" d="M301.61,53.5c0,0.54,0.01,1.01,0.04,1.41h-0.84l-0.05-0.85h-0.02c-0.25,0.42-0.79,0.96-1.71,0.96
		c-0.81,0-1.79-0.45-1.79-2.27v-3.03h0.94v2.87c0,0.99,0.3,1.65,1.16,1.65c0.63,0,1.07-0.44,1.24-0.86
		c0.05-0.14,0.09-0.31,0.09-0.48v-3.18h0.94V53.5z"/>
	<path class="st1" d="M303.18,47.31h0.94v7.61h-0.94V47.31z"/>
	<path class="st1" d="M308.57,54.91l-0.07-0.65h-0.03c-0.29,0.41-0.85,0.77-1.59,0.77c-1.05,0-1.58-0.74-1.58-1.49
		c0-1.25,1.11-1.94,3.12-1.93v-0.11c0-0.43-0.12-1.2-1.18-1.2c-0.48,0-0.99,0.15-1.35,0.39l-0.21-0.62c0.43-0.28,1.05-0.46,1.7-0.46
		c1.58,0,1.97,1.08,1.97,2.12v1.94c0,0.45,0.02,0.89,0.09,1.24H308.57z M308.43,52.27c-1.03-0.02-2.2,0.16-2.2,1.17
		c0,0.61,0.41,0.9,0.89,0.9c0.67,0,1.1-0.43,1.25-0.87c0.03-0.1,0.05-0.2,0.05-0.3V52.27z"/>
	<path class="st1" d="M311.97,48.24v1.49h1.35v0.72h-1.35v2.8c0,0.64,0.18,1.01,0.71,1.01c0.25,0,0.43-0.03,0.55-0.06l0.04,0.71
		c-0.18,0.08-0.47,0.13-0.84,0.13c-0.44,0-0.79-0.14-1.02-0.4c-0.27-0.28-0.36-0.74-0.36-1.35v-2.83h-0.8v-0.72h0.8v-1.24
		L311.97,48.24z"/>
	<path class="st1" d="M319,52.28c0,1.92-1.33,2.75-2.58,2.75c-1.4,0-2.49-1.03-2.49-2.67c0-1.74,1.13-2.75,2.57-2.75
		C318,49.61,319,50.69,319,52.28z M314.89,52.33c0,1.14,0.65,1.99,1.57,1.99c0.9,0,1.58-0.85,1.58-2.01c0-0.88-0.44-1.99-1.55-1.99
		C315.37,50.32,314.89,51.35,314.89,52.33z"/>
	<path class="st1" d="M320.19,51.35c0-0.61-0.01-1.14-0.04-1.62h0.82l0.03,1.02h0.04c0.24-0.7,0.8-1.14,1.44-1.14
		c0.11,0,0.18,0.01,0.27,0.03v0.89c-0.1-0.02-0.19-0.03-0.32-0.03c-0.66,0-1.14,0.5-1.26,1.21c-0.02,0.13-0.04,0.28-0.04,0.44v2.76
		h-0.93V51.35z"/>
	<path class="st1" d="M323.57,53.95c0.28,0.18,0.77,0.37,1.24,0.37c0.69,0,1.01-0.34,1.01-0.77c0-0.45-0.27-0.7-0.96-0.95
		c-0.93-0.33-1.37-0.85-1.37-1.47c0-0.84,0.67-1.52,1.79-1.52c0.53,0,0.99,0.15,1.27,0.32l-0.24,0.69c-0.2-0.13-0.58-0.3-1.06-0.3
		c-0.56,0-0.87,0.32-0.87,0.71c0,0.43,0.31,0.62,0.99,0.88c0.9,0.34,1.36,0.79,1.36,1.56c0,0.91-0.71,1.55-1.94,1.55
		c-0.57,0-1.09-0.14-1.46-0.35L323.57,53.95z"/>
</g>
<g>
	<path class="st2" d="M178.64,75.14c4.47,0,8.09-3.62,8.09-8.08c0-4.47-3.62-8.09-8.09-8.09c-4.47,0-8.09,3.62-8.09,8.09
		C170.56,71.52,174.18,75.14,178.64,75.14"/>
</g>
<polygon class="st1" points="174.22,65.63 178.64,72.87 183.06,65.63 180.29,65.63 180.29,61.75 176.99,61.75 176.99,65.63 "/>
<g>
	<path class="st2" d="M303.25,75.14c4.47,0,8.09-3.62,8.09-8.08c0-4.47-3.62-8.09-8.09-8.09c-4.47,0-8.09,3.62-8.09,8.09
		C295.16,71.52,298.78,75.14,303.25,75.14"/>
</g>
<polygon class="st1" points="298.83,65.63 303.25,72.87 307.67,65.63 304.9,65.63 304.9,61.75 301.6,61.75 301.6,65.63 "/>
<path class="st3" d="M242.44,134.88h-3 M242.44,133.35h-3 M242.44,131.83h-3 M242.44,130.32h-3 M242.44,128.8h-3 M242.44,127.28h-3
	 M242.44,125.76h-3 M242.44,124.24h-3 M242.44,122.72h-3 M242.44,121.2h-3 M242.44,119.68h-3 M242.44,118.16h-3 M242.44,116.64h-3
	 M242.44,115.12h-3 M242.44,113.6h-3 M242.44,112.08h-3 M242.44,110.56h-3 M242.44,109.04h-3 M242.44,107.52h-3 M242.44,106h-3
	 M242.44,104.48h-3 M242.44,102.96h-3 M242.44,101.44h-3 M242.44,99.92h-3 M242.44,98.41h-3 M242.44,96.89h-3"/>
<path class="st3" d="M323.25,129.77h-3 M323.25,128.26h-3 M323.25,126.75h-3 M323.25,125.25h-3 M323.25,123.74h-3 M323.25,122.23h-3
	 M323.25,120.72h-3 M323.25,119.21h-3 M323.25,117.7h-3 M323.25,116.2h-3 M323.25,114.69h-3 M323.25,113.18h-3 M323.25,111.67h-3
	 M323.25,110.16h-3 M321.25,107.65v3 M319.74,107.65v3 M318.23,107.65v3 M316.72,107.65v3 M315.22,107.65v3 M313.71,107.65v3
	 M312.2,107.65v3 M310.69,107.65v3 M309.18,107.65v3 M307.67,107.65v3 M306.16,107.65v3 M304.66,107.65v3 M303.15,107.65v3
	 M301.64,107.65v3 M300.13,107.65v3 M298.62,107.65v3 M297.11,107.65v3 M295.6,107.65v3 M294.1,107.65v3 M292.59,107.65v3
	 M291.08,107.65v3 M289.57,107.65v3 M288.06,107.65v3 M286.55,107.65v3 M285.04,107.65v3 M283.54,107.65v3 M282.03,107.65v3
	 M280.52,107.65v3 M279.01,107.65v3 M277.5,107.65v3 M275.99,107.65v3 M274.48,107.65v3 M272.98,107.65v3 M271.47,107.65v3
	 M269.96,107.65v3 M268.45,107.65v3 M266.94,107.65v3 M265.43,107.65v3 M263.92,107.65v3 M262.42,107.65v3 M260.91,107.65v3
	 M259.4,107.65v3 M257.89,107.65v3 M256.38,107.65v3 M254.87,107.65v3 M253.36,107.65v3 M251.86,107.65v3 M250.35,107.65v3
	 M248.84,107.65v3 M247.33,107.65v3 M245.82,107.65v3 M244.31,107.65v3 M242.8,107.65v3 M241.3,107.65v3 M239.79,107.65v3
	 M238.28,107.65v3 M236.77,107.65v3 M235.26,107.65v3 M233.75,107.65v3 M232.24,107.65v3 M230.74,107.65v3 M229.23,107.65v3
	 M227.72,107.65v3 M226.21,107.65v3 M224.7,107.65v3 M223.19,107.65v3 M221.68,107.65v3 M220.18,107.65v3 M218.67,107.65v3
	 M217.16,107.65v3 M215.65,107.65v3 M214.14,107.65v3 M212.63,107.65v3 M211.12,107.65v3 M209.62,107.65v3 M208.11,107.65v3
	 M206.6,107.65v3 M205.09,107.65v3 M203.58,107.65v3 M202.07,107.65v3 M200.56,107.65v3 M199.06,107.65v3 M197.55,107.65v3
	 M196.04,107.65v3 M194.53,107.65v3 M193.02,107.65v3 M191.51,107.65v3 M190,107.65v3 M188.5,107.65v3 M186.99,107.65v3
	 M185.48,107.65v3 M183.97,107.65v3 M182.46,107.65v3 M180.95,107.65v3 M179.44,107.65v3 M177.93,107.65v3 M176.43,107.65v3
	 M174.92,107.65v3 M173.41,107.65v3 M171.9,107.65v3 M170.39,107.65v3 M168.88,107.65v3 M167.37,107.65v3 M165.87,107.65v3
	 M164.36,107.65v3 M162.85,107.65v3 M161.34,107.65v3 M159.83,107.65v3 M158.02,110.34h3 M158.02,111.85h3 M158.02,113.36h3
	 M158.02,114.87h3 M158.02,116.38h3 M158.02,117.89h3 M158.02,119.4h3 M158.02,120.9h3 M158.02,122.41h3 M158.02,123.92h3
	 M158.02,125.43h3 M158.02,126.94h3"/>
<rect x="122.32" y="79.97" class="st2" width="237.26" height="22.68"/>
<g>
	<path class="st1" d="M201.6,88.2c0.41-0.09,1.05-0.15,1.7-0.15c0.93,0,1.53,0.16,1.98,0.53c0.38,0.28,0.6,0.71,0.6,1.27
		c0,0.7-0.46,1.31-1.22,1.58v0.02c0.69,0.17,1.49,0.74,1.49,1.81c0,0.62-0.25,1.09-0.61,1.45c-0.5,0.46-1.32,0.67-2.5,0.67
		c-0.64,0-1.13-0.04-1.45-0.09V88.2z M202.53,91.16h0.85c0.99,0,1.56-0.51,1.56-1.21c0-0.85-0.64-1.18-1.58-1.18
		c-0.43,0-0.68,0.03-0.83,0.06V91.16z M202.53,94.62c0.18,0.03,0.45,0.04,0.78,0.04c0.96,0,1.85-0.35,1.85-1.4
		c0-0.99-0.85-1.39-1.86-1.39h-0.77V94.62z"/>
	<path class="st1" d="M212.11,92.69c0,1.92-1.33,2.75-2.58,2.75c-1.4,0-2.49-1.03-2.49-2.67c0-1.73,1.13-2.75,2.57-2.75
		C211.1,90.02,212.11,91.1,212.11,92.69z M208,92.74c0,1.13,0.65,1.99,1.57,1.99c0.9,0,1.58-0.85,1.58-2.01
		c0-0.88-0.44-1.99-1.55-1.99C208.48,90.73,208,91.76,208,92.74z"/>
	<path class="st1" d="M216.17,95.32l-0.07-0.65h-0.03c-0.29,0.41-0.85,0.77-1.59,0.77c-1.05,0-1.58-0.74-1.58-1.49
		c0-1.25,1.11-1.94,3.12-1.93v-0.11c0-0.43-0.12-1.2-1.18-1.2c-0.48,0-0.99,0.15-1.35,0.39l-0.21-0.62c0.43-0.28,1.05-0.46,1.7-0.46
		c1.58,0,1.97,1.08,1.97,2.12v1.94c0,0.45,0.02,0.89,0.09,1.24H216.17z M216.03,92.68c-1.03-0.02-2.2,0.16-2.2,1.17
		c0,0.61,0.41,0.9,0.89,0.9c0.67,0,1.1-0.43,1.25-0.87c0.03-0.1,0.05-0.2,0.05-0.3V92.68z"/>
	<path class="st1" d="M218.46,91.76c0-0.61-0.01-1.13-0.04-1.62h0.82l0.03,1.02h0.04c0.24-0.7,0.8-1.14,1.44-1.14
		c0.11,0,0.18,0.01,0.27,0.03v0.89c-0.1-0.02-0.19-0.03-0.32-0.03c-0.66,0-1.14,0.5-1.26,1.21c-0.02,0.13-0.04,0.28-0.04,0.44v2.76
		h-0.93V91.76z"/>
	<path class="st1" d="M226.33,87.72v6.27c0,0.46,0.01,0.99,0.04,1.34h-0.85l-0.04-0.9h-0.02c-0.29,0.58-0.92,1.02-1.77,1.02
		c-1.25,0-2.22-1.06-2.22-2.64c-0.01-1.72,1.06-2.79,2.32-2.79c0.79,0,1.33,0.38,1.56,0.79h0.02v-3.1H226.33z M225.39,92.25
		c0-0.12-0.01-0.28-0.04-0.4c-0.14-0.6-0.65-1.09-1.36-1.09c-0.98,0-1.55,0.86-1.55,2c0,1.05,0.51,1.92,1.53,1.92
		c0.63,0,1.21-0.42,1.38-1.12c0.03-0.13,0.04-0.26,0.04-0.41V92.25z"/>
	<path class="st1" d="M234.86,92.69c0,1.92-1.33,2.75-2.58,2.75c-1.4,0-2.49-1.03-2.49-2.67c0-1.73,1.13-2.75,2.57-2.75
		C233.85,90.02,234.86,91.1,234.86,92.69z M230.74,92.74c0,1.13,0.65,1.99,1.57,1.99c0.9,0,1.58-0.85,1.58-2.01
		c0-0.88-0.44-1.99-1.55-1.99C231.23,90.73,230.74,91.76,230.74,92.74z"/>
	<path class="st1" d="M236.14,95.32v-4.47h-0.73v-0.72h0.73v-0.25c0-0.73,0.16-1.39,0.6-1.81c0.35-0.34,0.82-0.48,1.26-0.48
		c0.33,0,0.62,0.07,0.8,0.15l-0.13,0.73c-0.14-0.06-0.33-0.12-0.6-0.12c-0.8,0-1.01,0.71-1.01,1.5v0.28h1.25v0.72h-1.25v4.47H236.14
		z"/>
	<path class="st1" d="M241.48,88.2c0.57-0.09,1.24-0.15,1.98-0.15c1.34,0,2.29,0.31,2.92,0.9c0.64,0.59,1.02,1.42,1.02,2.59
		c0,1.18-0.36,2.14-1.04,2.81c-0.67,0.67-1.79,1.04-3.19,1.04c-0.66,0-1.22-0.03-1.69-0.09V88.2z M242.41,94.58
		c0.24,0.04,0.58,0.05,0.94,0.05c1.99,0,3.07-1.11,3.07-3.06c0.01-1.7-0.95-2.79-2.92-2.79c-0.48,0-0.85,0.04-1.09,0.1V94.58z"/>
	<path class="st1" d="M249.63,88.68c0.01,0.32-0.23,0.58-0.6,0.58c-0.33,0-0.57-0.26-0.57-0.58c0-0.33,0.25-0.59,0.59-0.59
		C249.4,88.09,249.63,88.35,249.63,88.68z M248.58,95.32v-5.18h0.94v5.18H248.58z"/>
	<path class="st1" d="M251.08,91.76c0-0.61-0.01-1.13-0.04-1.62h0.82l0.03,1.02h0.04c0.24-0.7,0.8-1.14,1.44-1.14
		c0.11,0,0.18,0.01,0.27,0.03v0.89c-0.1-0.02-0.19-0.03-0.32-0.03c-0.66,0-1.13,0.5-1.26,1.21c-0.02,0.13-0.04,0.28-0.04,0.44v2.76
		h-0.93V91.76z"/>
	<path class="st1" d="M255,92.9c0.02,1.27,0.84,1.8,1.78,1.8c0.67,0,1.08-0.12,1.44-0.27l0.16,0.67c-0.33,0.15-0.9,0.32-1.72,0.32
		c-1.6,0-2.55-1.05-2.55-2.61c0-1.56,0.92-2.8,2.43-2.8c1.69,0,2.14,1.49,2.14,2.44c0,0.19-0.02,0.34-0.03,0.44H255z M257.77,92.23
		c0.01-0.6-0.25-1.53-1.31-1.53c-0.95,0-1.37,0.88-1.45,1.53H257.77z"/>
	<path class="st1" d="M263.54,95.13c-0.25,0.13-0.79,0.3-1.49,0.3c-1.56,0-2.58-1.06-2.58-2.65c0-1.6,1.09-2.75,2.79-2.75
		c0.56,0,1.05,0.14,1.31,0.27l-0.21,0.73c-0.23-0.13-0.58-0.25-1.09-0.25c-1.19,0-1.83,0.88-1.83,1.96c0,1.2,0.77,1.94,1.8,1.94
		c0.54,0,0.89-0.14,1.16-0.26L263.54,95.13z"/>
	<path class="st1" d="M265.9,88.65v1.49h1.35v0.72h-1.35v2.8c0,0.64,0.18,1.01,0.71,1.01c0.25,0,0.43-0.03,0.55-0.06l0.04,0.71
		c-0.18,0.08-0.47,0.13-0.84,0.13c-0.44,0-0.79-0.14-1.02-0.4c-0.27-0.28-0.36-0.74-0.36-1.35v-2.83h-0.8v-0.72h0.8V88.9
		L265.9,88.65z"/>
	<path class="st1" d="M272.95,92.69c0,1.92-1.33,2.75-2.58,2.75c-1.4,0-2.49-1.03-2.49-2.67c0-1.73,1.14-2.75,2.57-2.75
		C271.95,90.02,272.95,91.1,272.95,92.69z M268.84,92.74c0,1.13,0.65,1.99,1.57,1.99c0.9,0,1.58-0.85,1.58-2.01
		c0-0.88-0.44-1.99-1.55-1.99C269.32,90.73,268.84,91.76,268.84,92.74z"/>
	<path class="st1" d="M274.14,91.76c0-0.61-0.01-1.13-0.04-1.62h0.82l0.03,1.02H275c0.24-0.7,0.8-1.14,1.44-1.14
		c0.11,0,0.18,0.01,0.27,0.03v0.89c-0.1-0.02-0.19-0.03-0.32-0.03c-0.66,0-1.14,0.5-1.26,1.21c-0.02,0.13-0.04,0.28-0.04,0.44v2.76
		h-0.93V91.76z"/>
	<path class="st1" d="M277.51,94.36c0.28,0.18,0.77,0.38,1.24,0.38c0.69,0,1.01-0.34,1.01-0.77c0-0.45-0.27-0.7-0.96-0.95
		c-0.93-0.33-1.37-0.85-1.37-1.47c0-0.84,0.67-1.52,1.79-1.52c0.53,0,0.99,0.15,1.27,0.32l-0.24,0.69c-0.2-0.13-0.58-0.3-1.06-0.3
		c-0.56,0-0.87,0.32-0.87,0.71c0,0.43,0.31,0.62,0.99,0.88c0.9,0.34,1.36,0.79,1.36,1.56c0,0.91-0.71,1.55-1.94,1.55
		c-0.57,0-1.09-0.14-1.46-0.35L277.51,94.36z"/>
</g>
<rect x="122.82" y="177.63" class="st1" width="236.26" height="21.68"/>
<g>
	<path class="st4" d="M210.71,188.97h-2.23v2.07h2.48v0.62h-3.22v-5.73h3.09v0.62h-2.35v1.81h2.23V188.97z"/>
	<path class="st4" d="M212.24,187.54l0.59,0.88c0.15,0.23,0.28,0.44,0.42,0.67h0.03c0.14-0.25,0.27-0.46,0.41-0.68l0.58-0.88h0.81
		l-1.4,1.99l1.44,2.12h-0.85l-0.6-0.93c-0.16-0.24-0.3-0.47-0.44-0.71h-0.02c-0.14,0.25-0.28,0.47-0.43,0.71l-0.59,0.93h-0.82
		l1.46-2.1l-1.39-2.01H212.24z"/>
	<path class="st4" d="M216.13,189.73c0.02,1.01,0.66,1.43,1.41,1.43c0.54,0,0.86-0.09,1.14-0.21l0.13,0.54
		c-0.26,0.12-0.71,0.25-1.37,0.25c-1.27,0-2.02-0.83-2.02-2.07c0-1.24,0.73-2.22,1.93-2.22c1.34,0,1.7,1.18,1.7,1.94
		c0,0.15-0.02,0.27-0.03,0.35H216.13z M218.32,189.2c0.01-0.48-0.2-1.22-1.04-1.22c-0.76,0-1.09,0.7-1.15,1.22H218.32z"/>
	<path class="st4" d="M222.9,191.5c-0.2,0.1-0.63,0.24-1.18,0.24c-1.24,0-2.05-0.84-2.05-2.1c0-1.27,0.87-2.18,2.21-2.18
		c0.44,0,0.83,0.11,1.04,0.21l-0.17,0.58c-0.18-0.1-0.46-0.2-0.87-0.2c-0.94,0-1.45,0.7-1.45,1.56c0,0.95,0.61,1.54,1.43,1.54
		c0.43,0,0.71-0.11,0.92-0.2L222.9,191.5z"/>
	<path class="st4" d="M227.22,190.53c0,0.42,0.01,0.8,0.03,1.12h-0.66l-0.04-0.67h-0.02c-0.2,0.33-0.63,0.77-1.36,0.77
		c-0.65,0-1.42-0.36-1.42-1.8v-2.41h0.75v2.28c0,0.78,0.24,1.31,0.92,1.31c0.5,0,0.85-0.35,0.99-0.68c0.04-0.11,0.07-0.25,0.07-0.38
		v-2.52h0.75V190.53z"/>
	<path class="st4" d="M229.36,186.36v1.18h1.07v0.57h-1.07v2.22c0,0.51,0.14,0.8,0.56,0.8c0.2,0,0.34-0.03,0.43-0.05l0.03,0.56
		c-0.14,0.06-0.37,0.1-0.66,0.1c-0.35,0-0.63-0.11-0.81-0.31c-0.21-0.22-0.29-0.59-0.29-1.07v-2.24H228v-0.57h0.64v-0.99
		L229.36,186.36z"/>
	<path class="st4" d="M232.11,186.39c0.01,0.25-0.18,0.46-0.48,0.46c-0.26,0-0.45-0.2-0.45-0.46c0-0.26,0.2-0.47,0.47-0.47
		C231.93,185.92,232.11,186.12,232.11,186.39z M231.28,191.66v-4.11h0.75v4.11H231.28z"/>
	<path class="st4" d="M233.55,187.54l0.81,2.31c0.14,0.37,0.25,0.71,0.33,1.05h0.03c0.09-0.34,0.21-0.68,0.35-1.05l0.8-2.31h0.78
		l-1.61,4.11h-0.71l-1.56-4.11H233.55z"/>
	<path class="st4" d="M237.68,189.73c0.02,1.01,0.66,1.43,1.41,1.43c0.54,0,0.86-0.09,1.14-0.21l0.13,0.54
		c-0.26,0.12-0.71,0.25-1.37,0.25c-1.27,0-2.02-0.83-2.02-2.07c0-1.24,0.73-2.22,1.93-2.22c1.34,0,1.7,1.18,1.7,1.94
		c0,0.15-0.02,0.27-0.03,0.35H237.68z M239.88,189.2c0.01-0.48-0.2-1.22-1.04-1.22c-0.76,0-1.09,0.7-1.15,1.22H239.88z"/>
	<path class="st4" d="M243.35,186c0.45-0.07,0.99-0.12,1.57-0.12c1.06,0,1.82,0.25,2.32,0.71c0.51,0.47,0.81,1.13,0.81,2.06
		c0,0.93-0.29,1.7-0.82,2.23c-0.54,0.54-1.42,0.82-2.53,0.82c-0.53,0-0.97-0.03-1.34-0.07V186z M244.09,191.07
		c0.19,0.03,0.46,0.04,0.75,0.04c1.58,0,2.44-0.88,2.44-2.43c0.01-1.35-0.76-2.21-2.32-2.21c-0.38,0-0.67,0.03-0.87,0.08V191.07z"/>
	<path class="st4" d="M249.82,186.39c0.01,0.25-0.18,0.46-0.48,0.46c-0.26,0-0.45-0.2-0.45-0.46c0-0.26,0.2-0.47,0.47-0.47
		C249.64,185.92,249.82,186.12,249.82,186.39z M248.99,191.66v-4.11h0.75v4.11H248.99z"/>
	<path class="st4" d="M250.98,188.83c0-0.48-0.01-0.9-0.03-1.28h0.65l0.03,0.81h0.03c0.19-0.55,0.64-0.9,1.14-0.9
		c0.08,0,0.14,0.01,0.21,0.03v0.71c-0.08-0.02-0.15-0.03-0.25-0.03c-0.53,0-0.9,0.4-1,0.96c-0.02,0.1-0.03,0.22-0.03,0.35v2.19
		h-0.74V188.83z"/>
	<path class="st4" d="M254.1,189.73c0.02,1.01,0.66,1.43,1.41,1.43c0.54,0,0.86-0.09,1.14-0.21l0.13,0.54
		c-0.26,0.12-0.71,0.25-1.37,0.25c-1.27,0-2.02-0.83-2.02-2.07c0-1.24,0.73-2.22,1.93-2.22c1.34,0,1.7,1.18,1.7,1.94
		c0,0.15-0.02,0.27-0.03,0.35H254.1z M256.29,189.2c0.01-0.48-0.2-1.22-1.04-1.22c-0.76,0-1.09,0.7-1.15,1.22H256.29z"/>
	<path class="st4" d="M260.87,191.5c-0.2,0.1-0.63,0.24-1.18,0.24c-1.24,0-2.05-0.84-2.05-2.1c0-1.27,0.87-2.18,2.21-2.18
		c0.44,0,0.83,0.11,1.04,0.21l-0.17,0.58c-0.18-0.1-0.46-0.2-0.87-0.2c-0.94,0-1.45,0.7-1.45,1.56c0,0.95,0.61,1.54,1.43,1.54
		c0.43,0,0.71-0.11,0.92-0.2L260.87,191.5z"/>
	<path class="st4" d="M262.76,186.36v1.18h1.07v0.57h-1.07v2.22c0,0.51,0.14,0.8,0.56,0.8c0.2,0,0.34-0.03,0.43-0.05l0.03,0.56
		c-0.14,0.06-0.37,0.1-0.66,0.1c-0.35,0-0.63-0.11-0.81-0.31c-0.21-0.22-0.29-0.59-0.29-1.07v-2.24h-0.64v-0.57h0.64v-0.99
		L262.76,186.36z"/>
	<path class="st4" d="M268.35,189.56c0,1.52-1.05,2.18-2.05,2.18c-1.11,0-1.97-0.82-1.97-2.12c0-1.38,0.9-2.18,2.04-2.18
		C267.55,187.45,268.35,188.31,268.35,189.56z M265.09,189.61c0,0.9,0.52,1.58,1.25,1.58c0.71,0,1.25-0.67,1.25-1.6
		c0-0.7-0.35-1.58-1.23-1.58S265.09,188.83,265.09,189.61z"/>
	<path class="st4" d="M269.3,188.83c0-0.48-0.01-0.9-0.03-1.28h0.65l0.03,0.81h0.03c0.19-0.55,0.64-0.9,1.14-0.9
		c0.08,0,0.14,0.01,0.21,0.03v0.71c-0.08-0.02-0.15-0.03-0.25-0.03c-0.53,0-0.9,0.4-1,0.96c-0.02,0.1-0.03,0.22-0.03,0.35v2.19
		h-0.74V188.83z"/>
	<path class="st4" d="M271.97,190.89c0.22,0.14,0.61,0.3,0.99,0.3c0.54,0,0.8-0.27,0.8-0.61c0-0.36-0.21-0.55-0.77-0.76
		c-0.74-0.26-1.09-0.67-1.09-1.16c0-0.66,0.54-1.21,1.42-1.21c0.42,0,0.78,0.12,1.01,0.25l-0.19,0.54c-0.16-0.1-0.46-0.24-0.84-0.24
		c-0.44,0-0.69,0.25-0.69,0.56c0,0.34,0.25,0.49,0.78,0.7c0.71,0.27,1.08,0.63,1.08,1.24c0,0.72-0.56,1.23-1.54,1.23
		c-0.45,0-0.87-0.11-1.16-0.28L271.97,190.89z"/>
</g>
<rect x="122.82" y="177.63" class="st5" width="236.26" height="21.68"/>
<rect x="204.48" y="117.88" class="st1" width="72.93" height="42.37"/>
<g>
	<path class="st4" d="M216.29,126.6c0.37-0.08,0.91-0.12,1.42-0.12c0.79,0,1.3,0.14,1.66,0.47c0.29,0.25,0.45,0.65,0.45,1.09
		c0,0.76-0.48,1.26-1.08,1.46v0.03c0.44,0.15,0.71,0.56,0.84,1.16c0.19,0.8,0.32,1.35,0.44,1.57h-0.76
		c-0.09-0.16-0.22-0.65-0.38-1.37c-0.17-0.79-0.48-1.09-1.15-1.11h-0.7v2.48h-0.74V126.6z M217.03,129.21h0.76
		c0.79,0,1.29-0.43,1.29-1.09c0-0.74-0.54-1.06-1.32-1.07c-0.36,0-0.61,0.03-0.73,0.07V129.21z"/>
	<path class="st4" d="M221.28,130.33c0.02,1.01,0.66,1.43,1.41,1.43c0.54,0,0.86-0.09,1.14-0.21l0.13,0.54
		c-0.26,0.12-0.71,0.25-1.37,0.25c-1.27,0-2.02-0.83-2.02-2.07c0-1.24,0.73-2.22,1.93-2.22c1.34,0,1.7,1.18,1.7,1.94
		c0,0.15-0.02,0.27-0.03,0.35H221.28z M223.47,129.8c0.01-0.48-0.2-1.22-1.04-1.22c-0.76,0-1.09,0.7-1.15,1.22H223.47z"/>
	<path class="st4" d="M225.12,129.25c0-0.42-0.01-0.77-0.03-1.11h0.65l0.03,0.66h0.03c0.23-0.39,0.61-0.76,1.29-0.76
		c0.56,0,0.99,0.34,1.17,0.82h0.02c0.13-0.23,0.29-0.41,0.46-0.54c0.25-0.19,0.52-0.29,0.91-0.29c0.54,0,1.35,0.36,1.35,1.79v2.42
		h-0.73v-2.33c0-0.79-0.29-1.27-0.89-1.27c-0.42,0-0.76,0.31-0.88,0.68c-0.03,0.1-0.06,0.24-0.06,0.37v2.54h-0.73v-2.46
		c0-0.65-0.29-1.13-0.86-1.13c-0.47,0-0.81,0.37-0.93,0.75c-0.04,0.11-0.06,0.24-0.06,0.37v2.48h-0.73V129.25z"/>
	<path class="st4" d="M235.65,131.13c0,0.42,0.01,0.8,0.03,1.12h-0.66l-0.04-0.67h-0.02c-0.2,0.33-0.63,0.77-1.36,0.77
		c-0.65,0-1.42-0.36-1.42-1.8v-2.41h0.75v2.28c0,0.78,0.24,1.31,0.92,1.31c0.5,0,0.85-0.35,0.99-0.68c0.04-0.11,0.07-0.25,0.07-0.38
		v-2.52h0.75V131.13z"/>
	<path class="st4" d="M236.89,129.25c0-0.42-0.01-0.77-0.03-1.11h0.66l0.04,0.68h0.02c0.2-0.39,0.68-0.77,1.36-0.77
		c0.57,0,1.45,0.34,1.45,1.75v2.46h-0.75v-2.37c0-0.66-0.25-1.22-0.95-1.22c-0.49,0-0.88,0.35-1,0.77
		c-0.03,0.09-0.05,0.22-0.05,0.35v2.47h-0.75V129.25z"/>
	<path class="st4" d="M242.03,130.33c0.02,1.01,0.66,1.43,1.41,1.43c0.54,0,0.86-0.09,1.14-0.21l0.13,0.54
		c-0.26,0.12-0.71,0.25-1.37,0.25c-1.27,0-2.02-0.83-2.02-2.07c0-1.24,0.73-2.22,1.93-2.22c1.34,0,1.7,1.18,1.7,1.94
		c0,0.15-0.02,0.27-0.03,0.35H242.03z M244.22,129.8c0.01-0.48-0.2-1.22-1.04-1.22c-0.76,0-1.09,0.7-1.15,1.22H244.22z"/>
	<path class="st4" d="M245.87,129.42c0-0.48-0.01-0.9-0.03-1.28h0.65l0.03,0.81h0.03c0.19-0.55,0.64-0.9,1.14-0.9
		c0.08,0,0.14,0.01,0.21,0.03v0.71c-0.08-0.02-0.15-0.03-0.25-0.03c-0.53,0-0.9,0.4-1,0.96c-0.02,0.1-0.03,0.22-0.03,0.35v2.19
		h-0.74V129.42z"/>
	<path class="st4" d="M250.89,132.25l-0.06-0.52h-0.03c-0.23,0.32-0.67,0.61-1.26,0.61c-0.83,0-1.26-0.59-1.26-1.18
		c0-0.99,0.88-1.54,2.47-1.53v-0.08c0-0.34-0.09-0.95-0.93-0.95c-0.38,0-0.78,0.12-1.07,0.31l-0.17-0.49
		c0.34-0.22,0.83-0.37,1.35-0.37c1.26,0,1.56,0.86,1.56,1.68v1.54c0,0.36,0.02,0.71,0.07,0.99H250.89z M250.77,130.15
		c-0.82-0.02-1.74,0.13-1.74,0.93c0,0.48,0.32,0.71,0.71,0.71c0.54,0,0.88-0.34,0.99-0.69c0.03-0.08,0.04-0.16,0.04-0.24V130.15z"/>
	<path class="st4" d="M253.58,126.96v1.18h1.07v0.57h-1.07v2.22c0,0.51,0.14,0.8,0.56,0.8c0.2,0,0.34-0.03,0.43-0.05l0.03,0.56
		c-0.14,0.06-0.37,0.1-0.66,0.1c-0.35,0-0.63-0.11-0.81-0.31c-0.21-0.22-0.29-0.59-0.29-1.07v-2.24h-0.64v-0.57h0.64v-0.99
		L253.58,126.96z"/>
	<path class="st4" d="M256.32,126.98c0.01,0.25-0.18,0.46-0.48,0.46c-0.26,0-0.45-0.2-0.45-0.46c0-0.26,0.2-0.47,0.47-0.47
		C256.15,126.51,256.32,126.72,256.32,126.98z M255.49,132.25v-4.11h0.75v4.11H255.49z"/>
	<path class="st4" d="M261.2,130.16c0,1.52-1.05,2.18-2.05,2.18c-1.11,0-1.97-0.82-1.97-2.12c0-1.38,0.9-2.18,2.04-2.18
		C260.4,128.04,261.2,128.9,261.2,130.16z M257.94,130.2c0,0.9,0.52,1.58,1.25,1.58c0.71,0,1.25-0.67,1.25-1.6
		c0-0.7-0.35-1.58-1.23-1.58S257.94,129.42,257.94,130.2z"/>
	<path class="st4" d="M262.15,129.25c0-0.42-0.01-0.77-0.03-1.11h0.66l0.04,0.68h0.02c0.2-0.39,0.68-0.77,1.36-0.77
		c0.57,0,1.45,0.34,1.45,1.75v2.46h-0.75v-2.37c0-0.66-0.25-1.22-0.95-1.22c-0.49,0-0.88,0.35-1,0.77
		c-0.03,0.09-0.05,0.22-0.05,0.35v2.47h-0.75V129.25z"/>
</g>
<g>
	<path class="st4" d="M213.31,142.25l-0.06-0.52h-0.03c-0.23,0.32-0.67,0.61-1.26,0.61c-0.83,0-1.26-0.59-1.26-1.18
		c0-0.99,0.88-1.54,2.47-1.53v-0.08c0-0.34-0.09-0.95-0.93-0.95c-0.38,0-0.78,0.12-1.07,0.31L211,138.4
		c0.34-0.22,0.83-0.37,1.35-0.37c1.26,0,1.56,0.86,1.56,1.68v1.54c0,0.36,0.02,0.71,0.07,0.99H213.31z M213.2,140.15
		c-0.82-0.02-1.74,0.13-1.74,0.93c0,0.48,0.32,0.71,0.71,0.71c0.54,0,0.88-0.34,0.99-0.69c0.03-0.08,0.04-0.16,0.04-0.24V140.15z"/>
	<path class="st4" d="M215.13,139.25c0-0.42-0.01-0.77-0.03-1.11h0.66l0.04,0.68h0.02c0.2-0.39,0.68-0.77,1.36-0.77
		c0.57,0,1.45,0.34,1.45,1.75v2.46h-0.75v-2.37c0-0.66-0.25-1.22-0.95-1.22c-0.49,0-0.88,0.35-1,0.77
		c-0.03,0.09-0.05,0.22-0.05,0.35v2.47h-0.75V139.25z"/>
	<path class="st4" d="M223.4,136.21v4.97c0,0.37,0.01,0.78,0.03,1.06h-0.67l-0.03-0.71h-0.02c-0.23,0.46-0.73,0.81-1.4,0.81
		c-0.99,0-1.76-0.84-1.76-2.09c-0.01-1.37,0.84-2.21,1.84-2.21c0.63,0,1.05,0.3,1.24,0.63h0.02v-2.46H223.4z M222.65,139.81
		c0-0.09-0.01-0.22-0.03-0.31c-0.11-0.48-0.52-0.87-1.08-0.87c-0.77,0-1.23,0.68-1.23,1.59c0,0.83,0.41,1.52,1.22,1.52
		c0.5,0,0.96-0.33,1.1-0.89c0.03-0.1,0.03-0.2,0.03-0.32V139.81z"/>
	<path class="st4" d="M226.47,142.25v-5.73h0.81l1.84,2.9c0.42,0.67,0.76,1.27,1.03,1.86l0.02-0.01c-0.07-0.76-0.08-1.46-0.08-2.35
		v-2.4h0.7v5.73h-0.75l-1.82-2.91c-0.4-0.64-0.78-1.29-1.07-1.91l-0.03,0.01c0.04,0.72,0.06,1.41,0.06,2.36v2.45H226.47z"/>
	<path class="st4" d="M235.76,140.16c0,1.52-1.05,2.18-2.05,2.18c-1.11,0-1.97-0.82-1.97-2.12c0-1.38,0.9-2.18,2.04-2.18
		C234.96,138.04,235.76,138.9,235.76,140.16z M232.49,140.2c0,0.9,0.52,1.58,1.25,1.58c0.71,0,1.25-0.67,1.25-1.6
		c0-0.7-0.35-1.58-1.23-1.58S232.49,139.42,232.49,140.2z"/>
	<path class="st4" d="M236.7,139.25c0-0.42-0.01-0.77-0.03-1.11h0.65l0.03,0.66h0.03c0.23-0.39,0.61-0.76,1.29-0.76
		c0.56,0,0.99,0.34,1.17,0.82h0.02c0.13-0.23,0.29-0.41,0.46-0.54c0.25-0.19,0.52-0.29,0.91-0.29c0.54,0,1.35,0.36,1.35,1.79v2.42
		h-0.73v-2.33c0-0.79-0.29-1.27-0.89-1.27c-0.42,0-0.76,0.31-0.88,0.68c-0.03,0.1-0.06,0.24-0.06,0.37v2.54h-0.73v-2.46
		c0-0.65-0.29-1.13-0.86-1.13c-0.47,0-0.81,0.37-0.93,0.75c-0.04,0.11-0.06,0.24-0.06,0.37v2.48h-0.73V139.25z"/>
	<path class="st4" d="M244.62,136.98c0.01,0.25-0.18,0.46-0.48,0.46c-0.26,0-0.45-0.2-0.45-0.46c0-0.26,0.2-0.47,0.47-0.47
		C244.44,136.51,244.62,136.71,244.62,136.98z M243.79,142.25v-4.11h0.75v4.11H243.79z"/>
	<path class="st4" d="M245.78,139.25c0-0.42-0.01-0.77-0.03-1.11h0.66l0.04,0.68h0.02c0.2-0.39,0.68-0.77,1.36-0.77
		c0.57,0,1.45,0.34,1.45,1.75v2.46h-0.75v-2.37c0-0.66-0.25-1.22-0.95-1.22c-0.49,0-0.88,0.35-1,0.77
		c-0.03,0.09-0.05,0.22-0.05,0.35v2.47h-0.75V139.25z"/>
	<path class="st4" d="M252.77,142.25l-0.06-0.52h-0.03c-0.23,0.32-0.67,0.61-1.26,0.61c-0.83,0-1.26-0.59-1.26-1.18
		c0-0.99,0.88-1.54,2.47-1.53v-0.08c0-0.34-0.09-0.95-0.93-0.95c-0.38,0-0.78,0.12-1.07,0.31l-0.17-0.49
		c0.34-0.22,0.83-0.37,1.35-0.37c1.26,0,1.56,0.86,1.56,1.68v1.54c0,0.36,0.02,0.71,0.07,0.99H252.77z M252.66,140.15
		c-0.82-0.02-1.74,0.13-1.74,0.93c0,0.48,0.32,0.71,0.71,0.71c0.54,0,0.88-0.34,0.99-0.69c0.03-0.08,0.04-0.16,0.04-0.24V140.15z"/>
	<path class="st4" d="M255.46,136.95v1.18h1.07v0.57h-1.07v2.22c0,0.51,0.14,0.8,0.56,0.8c0.2,0,0.34-0.03,0.43-0.05l0.03,0.56
		c-0.14,0.06-0.37,0.1-0.66,0.1c-0.35,0-0.63-0.11-0.81-0.31c-0.21-0.22-0.29-0.59-0.29-1.07v-2.24h-0.64v-0.57h0.64v-0.99
		L255.46,136.95z"/>
	<path class="st4" d="M258.2,136.98c0.01,0.25-0.18,0.46-0.48,0.46c-0.26,0-0.45-0.2-0.45-0.46c0-0.26,0.2-0.47,0.47-0.47
		C258.03,136.51,258.2,136.71,258.2,136.98z M257.37,142.25v-4.11h0.75v4.11H257.37z"/>
	<path class="st4" d="M263.08,140.16c0,1.52-1.05,2.18-2.05,2.18c-1.11,0-1.97-0.82-1.97-2.12c0-1.38,0.9-2.18,2.04-2.18
		C262.28,138.04,263.08,138.9,263.08,140.16z M259.82,140.2c0,0.9,0.52,1.58,1.25,1.58c0.71,0,1.25-0.67,1.25-1.6
		c0-0.7-0.35-1.58-1.23-1.58S259.82,139.42,259.82,140.2z"/>
	<path class="st4" d="M264.03,139.25c0-0.42-0.01-0.77-0.03-1.11h0.66l0.04,0.68h0.02c0.2-0.39,0.68-0.77,1.36-0.77
		c0.57,0,1.45,0.34,1.45,1.75v2.46h-0.75v-2.37c0-0.66-0.25-1.22-0.95-1.22c-0.49,0-0.88,0.35-1,0.77
		c-0.03,0.09-0.05,0.22-0.05,0.35v2.47h-0.75V139.25z"/>
	<path class="st4" d="M268.64,141.48c0.22,0.14,0.61,0.3,0.99,0.3c0.54,0,0.8-0.27,0.8-0.61c0-0.36-0.21-0.55-0.77-0.76
		c-0.74-0.26-1.09-0.67-1.09-1.16c0-0.66,0.54-1.21,1.42-1.21c0.42,0,0.78,0.12,1.01,0.25l-0.19,0.54c-0.16-0.1-0.46-0.24-0.84-0.24
		c-0.44,0-0.69,0.25-0.69,0.56c0,0.34,0.25,0.49,0.78,0.7c0.71,0.27,1.08,0.63,1.08,1.24c0,0.72-0.56,1.23-1.54,1.23
		c-0.45,0-0.87-0.11-1.16-0.28L268.64,141.48z"/>
</g>
<g>
	<path class="st4" d="M225.72,152.06c-0.27,0.14-0.82,0.27-1.51,0.27c-1.61,0-2.83-1.02-2.83-2.9c0-1.79,1.22-3.01,2.99-3.01
		c0.71,0,1.16,0.15,1.36,0.25l-0.18,0.6c-0.28-0.14-0.68-0.24-1.16-0.24c-1.34,0-2.24,0.86-2.24,2.36c0,1.4,0.81,2.3,2.2,2.3
		c0.45,0,0.91-0.09,1.21-0.24L225.72,152.06z"/>
	<path class="st4" d="M230.26,150.15c0,1.52-1.05,2.18-2.05,2.18c-1.11,0-1.97-0.82-1.97-2.12c0-1.38,0.9-2.18,2.04-2.18
		C229.46,148.04,230.26,148.89,230.26,150.15z M226.99,150.19c0,0.9,0.52,1.58,1.25,1.58c0.71,0,1.25-0.67,1.25-1.6
		c0-0.7-0.35-1.58-1.23-1.58S226.99,149.41,226.99,150.19z"/>
	<path class="st4" d="M231.2,149.24c0-0.42-0.01-0.77-0.03-1.11h0.65l0.03,0.66h0.03c0.23-0.39,0.61-0.76,1.29-0.76
		c0.56,0,0.99,0.34,1.17,0.82h0.02c0.13-0.23,0.29-0.41,0.46-0.54c0.25-0.19,0.52-0.29,0.91-0.29c0.54,0,1.35,0.36,1.35,1.79v2.42
		h-0.73v-2.33c0-0.79-0.29-1.27-0.89-1.27c-0.42,0-0.76,0.31-0.88,0.68c-0.03,0.1-0.06,0.24-0.06,0.37v2.54h-0.73v-2.46
		c0-0.65-0.29-1.13-0.86-1.13c-0.47,0-0.81,0.37-0.93,0.75c-0.04,0.11-0.06,0.24-0.06,0.37v2.48h-0.73V149.24z"/>
	<path class="st4" d="M238.29,149.24c0-0.42-0.01-0.77-0.03-1.11h0.65l0.03,0.66h0.03c0.23-0.39,0.61-0.76,1.29-0.76
		c0.56,0,0.99,0.34,1.17,0.82h0.02c0.13-0.23,0.29-0.41,0.46-0.54c0.25-0.19,0.52-0.29,0.91-0.29c0.54,0,1.35,0.36,1.35,1.79v2.42
		h-0.73v-2.33c0-0.79-0.29-1.27-0.89-1.27c-0.42,0-0.76,0.31-0.88,0.68c-0.03,0.1-0.06,0.24-0.06,0.37v2.54h-0.73v-2.46
		c0-0.65-0.29-1.13-0.86-1.13c-0.47,0-0.81,0.37-0.93,0.75c-0.04,0.11-0.06,0.24-0.06,0.37v2.48h-0.73V149.24z"/>
	<path class="st4" d="M246.21,146.97c0.01,0.25-0.18,0.46-0.48,0.46c-0.26,0-0.45-0.2-0.45-0.46c0-0.26,0.2-0.47,0.47-0.47
		C246.03,146.51,246.21,146.71,246.21,146.97z M245.38,152.24v-4.11h0.75v4.11H245.38z"/>
	<path class="st4" d="M248.27,146.95v1.18h1.07v0.57h-1.07v2.22c0,0.51,0.14,0.8,0.56,0.8c0.2,0,0.34-0.03,0.43-0.05l0.03,0.56
		c-0.14,0.06-0.37,0.1-0.66,0.1c-0.35,0-0.63-0.11-0.81-0.31c-0.21-0.22-0.29-0.59-0.29-1.07v-2.24h-0.64v-0.57h0.64v-0.99
		L248.27,146.95z"/>
	<path class="st4" d="M251.08,146.95v1.18h1.07v0.57h-1.07v2.22c0,0.51,0.14,0.8,0.56,0.8c0.2,0,0.34-0.03,0.43-0.05l0.03,0.56
		c-0.14,0.06-0.37,0.1-0.66,0.1c-0.35,0-0.63-0.11-0.81-0.31c-0.21-0.22-0.29-0.59-0.29-1.07v-2.24h-0.64v-0.57h0.64v-0.99
		L251.08,146.95z"/>
	<path class="st4" d="M253.37,150.32c0.02,1.01,0.66,1.43,1.41,1.43c0.54,0,0.86-0.09,1.14-0.21l0.13,0.54
		c-0.26,0.12-0.71,0.25-1.37,0.25c-1.27,0-2.02-0.83-2.02-2.07c0-1.24,0.73-2.22,1.93-2.22c1.34,0,1.7,1.18,1.7,1.94
		c0,0.15-0.02,0.27-0.03,0.35H253.37z M255.56,149.79c0.01-0.48-0.2-1.22-1.04-1.22c-0.76,0-1.09,0.7-1.15,1.22H255.56z"/>
	<path class="st4" d="M257.63,150.32c0.02,1.01,0.66,1.43,1.41,1.43c0.54,0,0.86-0.09,1.14-0.21l0.13,0.54
		c-0.26,0.12-0.71,0.25-1.37,0.25c-1.27,0-2.02-0.83-2.02-2.07c0-1.24,0.73-2.22,1.93-2.22c1.34,0,1.7,1.18,1.7,1.94
		c0,0.15-0.02,0.27-0.03,0.35H257.63z M259.82,149.79c0.01-0.48-0.2-1.22-1.04-1.22c-0.76,0-1.09,0.7-1.15,1.22H259.82z"/>
</g>
<rect x="204.48" y="117.88" class="st6" width="72.93" height="42.37"/>
<rect x="285.65" y="117.88" class="st1" width="72.93" height="42.37"/>
<g>
	<path class="st4" d="M293.22,136.35c0.33,0.2,0.82,0.37,1.33,0.37c0.76,0,1.2-0.4,1.2-0.98c0-0.54-0.31-0.84-1.08-1.14
		c-0.94-0.33-1.51-0.82-1.51-1.62c0-0.89,0.74-1.56,1.85-1.56c0.59,0,1.01,0.14,1.27,0.28l-0.2,0.6c-0.19-0.1-0.57-0.27-1.09-0.27
		c-0.78,0-1.08,0.47-1.08,0.86c0,0.54,0.35,0.8,1.14,1.1c0.97,0.37,1.46,0.84,1.46,1.68c0,0.88-0.65,1.65-2.01,1.65
		c-0.55,0-1.16-0.16-1.46-0.37L293.22,136.35z"/>
	<path class="st4" d="M301.25,135.16c0,1.52-1.05,2.18-2.05,2.18c-1.11,0-1.97-0.82-1.97-2.12c0-1.38,0.9-2.18,2.04-2.18
		C300.45,133.04,301.25,133.9,301.25,135.16z M297.99,135.2c0,0.9,0.52,1.58,1.25,1.58c0.71,0,1.25-0.67,1.25-1.6
		c0-0.7-0.35-1.58-1.23-1.58S297.99,134.42,297.99,135.2z"/>
	<path class="st4" d="M305.13,137.1c-0.2,0.1-0.63,0.24-1.18,0.24c-1.24,0-2.05-0.84-2.05-2.1c0-1.27,0.87-2.18,2.21-2.18
		c0.44,0,0.83,0.11,1.04,0.21l-0.17,0.58c-0.18-0.1-0.46-0.2-0.87-0.2c-0.94,0-1.45,0.7-1.45,1.56c0,0.95,0.61,1.54,1.43,1.54
		c0.43,0,0.71-0.11,0.92-0.2L305.13,137.1z"/>
	<path class="st4" d="M306.84,131.98c0.01,0.25-0.18,0.46-0.48,0.46c-0.26,0-0.45-0.2-0.45-0.46c0-0.26,0.2-0.47,0.47-0.47
		C306.66,131.51,306.84,131.72,306.84,131.98z M306,137.25v-4.11h0.75v4.11H306z"/>
	<path class="st4" d="M310.27,137.25l-0.06-0.52h-0.03c-0.23,0.32-0.67,0.61-1.26,0.61c-0.83,0-1.26-0.59-1.26-1.18
		c0-0.99,0.88-1.54,2.47-1.53v-0.08c0-0.34-0.09-0.95-0.93-0.95c-0.38,0-0.78,0.12-1.07,0.31l-0.17-0.49
		c0.34-0.22,0.83-0.37,1.35-0.37c1.26,0,1.56,0.86,1.56,1.68v1.54c0,0.36,0.02,0.71,0.07,0.99H310.27z M310.16,135.15
		c-0.82-0.02-1.74,0.13-1.74,0.93c0,0.48,0.32,0.71,0.71,0.71c0.54,0,0.88-0.34,0.99-0.69c0.03-0.08,0.04-0.16,0.04-0.24V135.15z"/>
	<path class="st4" d="M312.09,131.22h0.75v6.03h-0.75V131.22z"/>
	<path class="st4" d="M318.18,137.25l-0.06-0.52h-0.03c-0.23,0.32-0.67,0.61-1.26,0.61c-0.83,0-1.26-0.59-1.26-1.18
		c0-0.99,0.88-1.54,2.47-1.53v-0.08c0-0.34-0.09-0.95-0.93-0.95c-0.38,0-0.78,0.12-1.07,0.31l-0.17-0.49
		c0.34-0.22,0.83-0.37,1.35-0.37c1.26,0,1.56,0.86,1.56,1.68v1.54c0,0.36,0.02,0.71,0.07,0.99H318.18z M318.07,135.15
		c-0.82-0.02-1.74,0.13-1.74,0.93c0,0.48,0.32,0.71,0.71,0.71c0.54,0,0.88-0.34,0.99-0.69c0.03-0.08,0.04-0.16,0.04-0.24V135.15z"/>
	<path class="st4" d="M320,134.25c0-0.42-0.01-0.77-0.03-1.11h0.66l0.04,0.68h0.02c0.2-0.39,0.68-0.77,1.36-0.77
		c0.57,0,1.45,0.34,1.45,1.75v2.46h-0.75v-2.37c0-0.66-0.25-1.22-0.95-1.22c-0.49,0-0.88,0.35-1,0.77
		c-0.03,0.09-0.05,0.22-0.05,0.35v2.47H320V134.25z"/>
	<path class="st4" d="M328.27,131.22v4.97c0,0.37,0.01,0.78,0.03,1.06h-0.67l-0.03-0.71h-0.02c-0.23,0.46-0.73,0.81-1.4,0.81
		c-0.99,0-1.76-0.84-1.76-2.09c-0.01-1.37,0.84-2.21,1.84-2.21c0.63,0,1.05,0.3,1.24,0.63h0.02v-2.46H328.27z M327.52,134.81
		c0-0.09-0.01-0.22-0.03-0.31c-0.11-0.48-0.52-0.87-1.08-0.87c-0.77,0-1.23,0.68-1.23,1.59c0,0.83,0.41,1.52,1.22,1.52
		c0.5,0,0.96-0.33,1.1-0.89c0.03-0.1,0.03-0.2,0.03-0.32V134.81z"/>
	<path class="st4" d="M334.3,134.57h-2.23v2.07h2.48v0.62h-3.22v-5.73h3.09v0.62h-2.35v1.81h2.23V134.57z"/>
	<path class="st4" d="M336.38,131.96v1.18h1.07v0.57h-1.07v2.22c0,0.51,0.14,0.8,0.56,0.8c0.2,0,0.34-0.03,0.43-0.05l0.03,0.56
		c-0.14,0.06-0.37,0.1-0.66,0.1c-0.35,0-0.63-0.11-0.81-0.31c-0.21-0.22-0.29-0.59-0.29-1.07v-2.24h-0.64v-0.57h0.64v-0.99
		L336.38,131.96z"/>
	<path class="st4" d="M338.29,131.22h0.75v2.57h0.02c0.12-0.21,0.31-0.4,0.54-0.53c0.22-0.13,0.48-0.21,0.76-0.21
		c0.55,0,1.44,0.34,1.44,1.76v2.45h-0.75v-2.36c0-0.66-0.25-1.22-0.95-1.22c-0.48,0-0.87,0.34-1,0.75c-0.04,0.1-0.05,0.21-0.05,0.36
		v2.48h-0.75V131.22z"/>
	<path class="st4" d="M343.84,131.98c0.01,0.25-0.18,0.46-0.48,0.46c-0.26,0-0.45-0.2-0.45-0.46c0-0.26,0.2-0.47,0.47-0.47
		C343.66,131.51,343.84,131.72,343.84,131.98z M343,137.25v-4.11h0.75v4.11H343z"/>
	<path class="st4" d="M347.93,137.1c-0.2,0.1-0.63,0.24-1.18,0.24c-1.24,0-2.05-0.84-2.05-2.1c0-1.27,0.87-2.18,2.21-2.18
		c0.44,0,0.83,0.11,1.04,0.21l-0.17,0.58c-0.18-0.1-0.46-0.2-0.87-0.2c-0.94,0-1.45,0.7-1.45,1.56c0,0.95,0.61,1.54,1.43,1.54
		c0.43,0,0.71-0.11,0.92-0.2L347.93,137.1z"/>
	<path class="st4" d="M348.7,136.49c0.22,0.14,0.61,0.3,0.99,0.3c0.54,0,0.8-0.27,0.8-0.61c0-0.36-0.21-0.55-0.77-0.76
		c-0.74-0.26-1.09-0.67-1.09-1.16c0-0.66,0.54-1.21,1.42-1.21c0.42,0,0.78,0.12,1.01,0.25l-0.19,0.54c-0.16-0.1-0.46-0.24-0.84-0.24
		c-0.44,0-0.69,0.25-0.69,0.56c0,0.34,0.25,0.49,0.78,0.7c0.71,0.27,1.08,0.63,1.08,1.24c0,0.72-0.56,1.23-1.54,1.23
		c-0.45,0-0.87-0.11-1.16-0.28L348.7,136.49z"/>
</g>
<g>
	<path class="st4" d="M306.88,147.06c-0.27,0.14-0.82,0.27-1.51,0.27c-1.61,0-2.83-1.02-2.83-2.9c0-1.79,1.22-3.01,2.99-3.01
		c0.71,0,1.16,0.15,1.36,0.25l-0.18,0.6c-0.28-0.14-0.68-0.24-1.16-0.24c-1.34,0-2.24,0.86-2.24,2.36c0,1.4,0.81,2.3,2.2,2.3
		c0.45,0,0.91-0.09,1.21-0.24L306.88,147.06z"/>
	<path class="st4" d="M311.42,145.16c0,1.52-1.05,2.18-2.05,2.18c-1.11,0-1.97-0.82-1.97-2.12c0-1.38,0.9-2.18,2.04-2.18
		C310.62,143.04,311.42,143.9,311.42,145.16z M308.15,145.2c0,0.9,0.52,1.58,1.25,1.58c0.71,0,1.25-0.67,1.25-1.6
		c0-0.7-0.35-1.58-1.23-1.58S308.15,144.42,308.15,145.2z"/>
	<path class="st4" d="M312.36,144.25c0-0.42-0.01-0.77-0.03-1.11h0.65l0.03,0.66h0.03c0.23-0.39,0.61-0.76,1.29-0.76
		c0.56,0,0.99,0.34,1.17,0.82h0.02c0.13-0.23,0.29-0.41,0.46-0.54c0.25-0.19,0.52-0.29,0.91-0.29c0.54,0,1.35,0.36,1.35,1.79v2.42
		h-0.73v-2.33c0-0.79-0.29-1.27-0.89-1.27c-0.42,0-0.76,0.31-0.88,0.68c-0.03,0.1-0.06,0.24-0.06,0.37v2.54h-0.73v-2.46
		c0-0.65-0.29-1.13-0.86-1.13c-0.47,0-0.81,0.37-0.93,0.75c-0.04,0.11-0.06,0.24-0.06,0.37v2.48h-0.73V144.25z"/>
	<path class="st4" d="M319.45,144.25c0-0.42-0.01-0.77-0.03-1.11h0.65l0.03,0.66h0.03c0.23-0.39,0.61-0.76,1.29-0.76
		c0.56,0,0.99,0.34,1.17,0.82h0.02c0.13-0.23,0.29-0.41,0.46-0.54c0.25-0.19,0.52-0.29,0.91-0.29c0.54,0,1.35,0.36,1.35,1.79v2.42
		h-0.73v-2.33c0-0.79-0.29-1.27-0.89-1.27c-0.42,0-0.76,0.31-0.88,0.68c-0.03,0.1-0.06,0.24-0.06,0.37v2.54h-0.73v-2.46
		c0-0.65-0.29-1.13-0.86-1.13c-0.47,0-0.81,0.37-0.93,0.75c-0.04,0.11-0.06,0.24-0.06,0.37v2.48h-0.73V144.25z"/>
	<path class="st4" d="M327.37,141.98c0.01,0.25-0.18,0.46-0.48,0.46c-0.26,0-0.45-0.2-0.45-0.46c0-0.26,0.2-0.47,0.47-0.47
		C327.19,141.51,327.37,141.71,327.37,141.98z M326.54,147.25v-4.11h0.75v4.11H326.54z"/>
	<path class="st4" d="M329.43,141.95v1.18h1.07v0.57h-1.07v2.22c0,0.51,0.14,0.8,0.56,0.8c0.2,0,0.34-0.03,0.43-0.05l0.03,0.56
		c-0.14,0.06-0.37,0.1-0.66,0.1c-0.35,0-0.63-0.11-0.81-0.31c-0.21-0.22-0.29-0.59-0.29-1.07v-2.24h-0.64v-0.57h0.64v-0.99
		L329.43,141.95z"/>
	<path class="st4" d="M332.24,141.95v1.18h1.07v0.57h-1.07v2.22c0,0.51,0.14,0.8,0.56,0.8c0.2,0,0.34-0.03,0.43-0.05l0.03,0.56
		c-0.14,0.06-0.37,0.1-0.66,0.1c-0.35,0-0.63-0.11-0.81-0.31c-0.21-0.22-0.29-0.59-0.29-1.07v-2.24h-0.64v-0.57h0.64v-0.99
		L332.24,141.95z"/>
	<path class="st4" d="M334.53,145.33c0.02,1.01,0.66,1.43,1.41,1.43c0.54,0,0.86-0.09,1.14-0.21l0.13,0.54
		c-0.26,0.12-0.71,0.25-1.37,0.25c-1.27,0-2.02-0.83-2.02-2.07c0-1.24,0.73-2.22,1.93-2.22c1.34,0,1.7,1.18,1.7,1.94
		c0,0.15-0.02,0.27-0.03,0.35H334.53z M336.72,144.79c0.01-0.48-0.2-1.22-1.04-1.22c-0.76,0-1.09,0.7-1.15,1.22H336.72z"/>
	<path class="st4" d="M338.79,145.33c0.02,1.01,0.66,1.43,1.41,1.43c0.54,0,0.86-0.09,1.14-0.21l0.13,0.54
		c-0.26,0.12-0.71,0.25-1.37,0.25c-1.27,0-2.02-0.83-2.02-2.07c0-1.24,0.73-2.22,1.93-2.22c1.34,0,1.7,1.18,1.7,1.94
		c0,0.15-0.02,0.27-0.03,0.35H338.79z M340.98,144.79c0.01-0.48-0.2-1.22-1.04-1.22c-0.76,0-1.09,0.7-1.15,1.22H340.98z"/>
</g>
<rect x="285.65" y="117.88" class="st6" width="72.93" height="42.37"/>
<line class="st7" x1="96.38" y1="127.57" x2="128.98" y2="127.57"/>
<line class="st7" x1="96.38" y1="150.56" x2="128.98" y2="150.56"/>
<rect x="57.75" y="106.46" class="st8" width="41.47" height="29.76"/>
<g>
	<path class="st4" d="M67.65,116.85h-2.23v2.07h2.48v0.62h-3.22v-5.73h3.09v0.62h-2.35v1.81h2.23V116.85z"/>
	<path class="st4" d="M69.19,115.42l0.59,0.88c0.15,0.23,0.28,0.44,0.42,0.67h0.03c0.14-0.25,0.27-0.46,0.41-0.68l0.58-0.88h0.81
		l-1.4,1.99l1.45,2.12H71.2l-0.6-0.93c-0.16-0.24-0.3-0.47-0.44-0.71h-0.02c-0.14,0.25-0.28,0.47-0.43,0.71l-0.59,0.93h-0.83
		l1.46-2.1l-1.39-2.01H69.19z"/>
	<path class="st4" d="M73.79,114.24v1.18h1.07v0.57h-1.07v2.22c0,0.51,0.14,0.8,0.56,0.8c0.2,0,0.34-0.03,0.43-0.05l0.03,0.56
		c-0.14,0.06-0.37,0.1-0.66,0.1c-0.35,0-0.63-0.11-0.81-0.31c-0.21-0.22-0.29-0.59-0.29-1.07v-2.24h-0.64v-0.57h0.64v-0.99
		L73.79,114.24z"/>
	<path class="st4" d="M76.07,117.61c0.02,1.01,0.66,1.43,1.41,1.43c0.54,0,0.86-0.09,1.14-0.21l0.13,0.54
		c-0.26,0.12-0.71,0.25-1.37,0.25c-1.27,0-2.02-0.83-2.02-2.07c0-1.24,0.73-2.22,1.93-2.22c1.34,0,1.7,1.18,1.7,1.94
		c0,0.15-0.02,0.27-0.03,0.35H76.07z M78.26,117.08c0.01-0.48-0.2-1.22-1.04-1.22c-0.76,0-1.09,0.7-1.15,1.22H78.26z"/>
	<path class="st4" d="M79.91,116.7c0-0.48-0.01-0.9-0.03-1.28h0.65l0.03,0.81h0.03c0.19-0.55,0.64-0.9,1.14-0.9
		c0.08,0,0.14,0.01,0.21,0.03v0.71c-0.08-0.02-0.15-0.03-0.25-0.03c-0.53,0-0.9,0.4-1,0.96c-0.02,0.1-0.03,0.22-0.03,0.35v2.19
		h-0.74V116.7z"/>
	<path class="st4" d="M82.71,116.54c0-0.42-0.01-0.77-0.03-1.11h0.66l0.04,0.68h0.02c0.2-0.39,0.68-0.77,1.36-0.77
		c0.57,0,1.45,0.34,1.45,1.75v2.46h-0.75v-2.37c0-0.66-0.25-1.22-0.95-1.22c-0.49,0-0.88,0.35-1,0.77
		c-0.03,0.09-0.05,0.22-0.05,0.35v2.47h-0.75V116.54z"/>
	<path class="st4" d="M89.71,119.54l-0.06-0.52h-0.03c-0.23,0.32-0.67,0.61-1.26,0.61c-0.83,0-1.26-0.59-1.26-1.18
		c0-0.99,0.88-1.54,2.47-1.53v-0.08c0-0.34-0.09-0.95-0.93-0.95c-0.38,0-0.78,0.12-1.07,0.31l-0.17-0.49
		c0.34-0.22,0.83-0.37,1.35-0.37c1.26,0,1.56,0.86,1.56,1.68v1.54c0,0.36,0.02,0.71,0.07,0.99H89.71z M89.6,117.44
		c-0.82-0.02-1.74,0.13-1.74,0.93c0,0.48,0.32,0.71,0.71,0.71c0.54,0,0.88-0.34,0.99-0.69c0.03-0.08,0.04-0.16,0.04-0.24V117.44z"/>
	<path class="st4" d="M91.53,113.5h0.75v6.03h-0.75V113.5z"/>
</g>
<g>
	<path class="st4" d="M70.36,127.73l-0.59,1.8H69l1.95-5.73h0.89l1.96,5.73h-0.79l-0.61-1.8H70.36z M72.24,127.15l-0.56-1.65
		c-0.13-0.37-0.21-0.71-0.3-1.05h-0.02c-0.08,0.34-0.18,0.69-0.29,1.04l-0.56,1.66H72.24z"/>
	<path class="st4" d="M77.96,128.41c0,0.42,0.01,0.8,0.03,1.12h-0.66l-0.04-0.67h-0.02c-0.2,0.33-0.63,0.77-1.36,0.77
		c-0.65,0-1.42-0.36-1.42-1.8v-2.41h0.75v2.28c0,0.78,0.24,1.31,0.92,1.31c0.5,0,0.85-0.35,0.99-0.68c0.04-0.11,0.07-0.25,0.07-0.38
		v-2.52h0.75V128.41z"/>
	<path class="st4" d="M82.76,123.5v4.97c0,0.37,0.01,0.78,0.03,1.06h-0.67l-0.03-0.71h-0.02c-0.23,0.46-0.73,0.81-1.4,0.81
		c-0.99,0-1.76-0.84-1.76-2.09c-0.01-1.37,0.84-2.21,1.84-2.21c0.63,0,1.05,0.3,1.24,0.63h0.02v-2.46H82.76z M82.01,127.09
		c0-0.09-0.01-0.22-0.03-0.31c-0.11-0.48-0.52-0.87-1.08-0.87c-0.77,0-1.23,0.68-1.23,1.59c0,0.83,0.41,1.52,1.22,1.52
		c0.5,0,0.96-0.33,1.1-0.89c0.03-0.1,0.03-0.2,0.03-0.32V127.09z"/>
	<path class="st4" d="M84.83,124.26c0.01,0.25-0.18,0.46-0.48,0.46c-0.26,0-0.45-0.2-0.45-0.46c0-0.26,0.2-0.47,0.47-0.47
		C84.65,123.79,84.83,124,84.83,124.26z M84,129.53v-4.11h0.75v4.11H84z"/>
	<path class="st4" d="M86.89,124.24v1.18h1.07v0.57h-1.07v2.22c0,0.51,0.14,0.8,0.56,0.8c0.2,0,0.34-0.03,0.43-0.05l0.03,0.56
		c-0.14,0.06-0.37,0.1-0.66,0.1c-0.35,0-0.63-0.11-0.81-0.31c-0.21-0.22-0.29-0.59-0.29-1.07v-2.24h-0.64v-0.57h0.64v-0.99
		L86.89,124.24z"/>
</g>
<rect x="57.75" y="141.9" class="st8" width="41.47" height="29.76"/>
<g>
	<path class="st4" d="M66.14,149.24v5.73H65.4v-5.73H66.14z"/>
	<path class="st4" d="M67.48,151.97c0-0.42-0.01-0.77-0.03-1.11h0.66l0.04,0.68h0.02c0.2-0.39,0.68-0.77,1.36-0.77
		c0.57,0,1.45,0.34,1.45,1.75v2.46h-0.75v-2.37c0-0.66-0.25-1.22-0.95-1.22c-0.49,0-0.88,0.35-1,0.77
		c-0.03,0.09-0.05,0.22-0.05,0.35v2.47h-0.75V151.97z"/>
	<path class="st4" d="M73.07,149.67v1.18h1.07v0.57h-1.07v2.22c0,0.51,0.14,0.8,0.56,0.8c0.2,0,0.34-0.03,0.43-0.05l0.03,0.56
		c-0.14,0.06-0.37,0.1-0.66,0.1c-0.35,0-0.63-0.11-0.81-0.31c-0.21-0.22-0.29-0.59-0.29-1.07v-2.24h-0.64v-0.57h0.64v-0.99
		L73.07,149.67z"/>
	<path class="st4" d="M75.35,153.05c0.02,1.01,0.66,1.43,1.41,1.43c0.54,0,0.86-0.09,1.14-0.21l0.13,0.54
		c-0.26,0.12-0.71,0.25-1.37,0.25c-1.27,0-2.02-0.83-2.02-2.07c0-1.24,0.73-2.22,1.93-2.22c1.34,0,1.7,1.18,1.7,1.94
		c0,0.15-0.02,0.27-0.03,0.35H75.35z M77.54,152.51c0.01-0.48-0.2-1.22-1.04-1.22c-0.76,0-1.09,0.7-1.15,1.22H77.54z"/>
	<path class="st4" d="M79.19,152.14c0-0.48-0.01-0.9-0.03-1.28h0.65l0.03,0.81h0.03c0.19-0.55,0.64-0.9,1.14-0.9
		c0.08,0,0.14,0.01,0.21,0.03v0.71c-0.08-0.02-0.15-0.03-0.25-0.03c-0.53,0-0.9,0.4-1,0.96c-0.02,0.1-0.03,0.22-0.03,0.35v2.19
		h-0.74V152.14z"/>
	<path class="st4" d="M82,151.97c0-0.42-0.01-0.77-0.03-1.11h0.66l0.04,0.68h0.02c0.2-0.39,0.68-0.77,1.36-0.77
		c0.57,0,1.45,0.34,1.45,1.75v2.46h-0.75v-2.37c0-0.66-0.25-1.22-0.95-1.22c-0.49,0-0.88,0.35-1,0.77
		c-0.03,0.09-0.05,0.22-0.05,0.35v2.47H82V151.97z"/>
	<path class="st4" d="M88.99,154.97l-0.06-0.52h-0.03c-0.23,0.32-0.67,0.61-1.26,0.61c-0.83,0-1.26-0.59-1.26-1.18
		c0-0.99,0.88-1.54,2.47-1.53v-0.08c0-0.34-0.09-0.95-0.93-0.95c-0.38,0-0.78,0.12-1.07,0.31l-0.17-0.49
		c0.34-0.22,0.83-0.37,1.35-0.37c1.26,0,1.56,0.86,1.56,1.68v1.54c0,0.36,0.02,0.71,0.07,0.99H88.99z M88.88,152.87
		c-0.82-0.02-1.74,0.13-1.74,0.93c0,0.48,0.32,0.71,0.71,0.71c0.54,0,0.88-0.34,0.99-0.69c0.03-0.08,0.04-0.16,0.04-0.24V152.87z"/>
	<path class="st4" d="M90.81,148.93h0.75v6.03h-0.75V148.93z"/>
</g>
<g>
	<path class="st4" d="M70.36,163.16l-0.59,1.8H69l1.95-5.73h0.89l1.96,5.73h-0.79l-0.61-1.8H70.36z M72.24,162.58l-0.56-1.65
		c-0.13-0.37-0.21-0.71-0.3-1.05h-0.02c-0.08,0.34-0.18,0.69-0.29,1.04l-0.56,1.66H72.24z"/>
	<path class="st4" d="M77.96,163.84c0,0.42,0.01,0.8,0.03,1.12h-0.66l-0.04-0.67h-0.02c-0.2,0.33-0.63,0.77-1.36,0.77
		c-0.65,0-1.42-0.36-1.42-1.8v-2.41h0.75v2.28c0,0.78,0.24,1.31,0.92,1.31c0.5,0,0.85-0.35,0.99-0.68c0.04-0.11,0.07-0.25,0.07-0.38
		v-2.52h0.75V163.84z"/>
	<path class="st4" d="M82.76,158.93v4.97c0,0.37,0.01,0.78,0.03,1.06h-0.67l-0.03-0.71h-0.02c-0.23,0.46-0.73,0.81-1.4,0.81
		c-0.99,0-1.76-0.84-1.76-2.09c-0.01-1.37,0.84-2.21,1.84-2.21c0.63,0,1.05,0.3,1.24,0.63h0.02v-2.46H82.76z M82.01,162.52
		c0-0.09-0.01-0.22-0.03-0.31c-0.11-0.48-0.52-0.87-1.08-0.87c-0.77,0-1.23,0.68-1.23,1.59c0,0.83,0.41,1.52,1.22,1.52
		c0.5,0,0.96-0.33,1.1-0.89c0.03-0.1,0.03-0.2,0.03-0.32V162.52z"/>
	<path class="st4" d="M84.83,159.69c0.01,0.25-0.18,0.46-0.48,0.46c-0.26,0-0.45-0.2-0.45-0.46c0-0.26,0.2-0.47,0.47-0.47
		C84.65,159.23,84.83,159.43,84.83,159.69z M84,164.96v-4.11h0.75v4.11H84z"/>
	<path class="st4" d="M86.89,159.67v1.18h1.07v0.57h-1.07v2.22c0,0.51,0.14,0.8,0.56,0.8c0.2,0,0.34-0.03,0.43-0.05l0.03,0.56
		c-0.14,0.06-0.37,0.1-0.66,0.1c-0.35,0-0.63-0.11-0.81-0.31c-0.21-0.22-0.29-0.59-0.29-1.07v-2.24h-0.64v-0.57h0.64v-0.99
		L86.89,159.67z"/>
</g>
<rect x="123.32" y="117.88" class="st1" width="72.93" height="42.37"/>
<g>
	<path class="st4" d="M136.06,135.45l-0.59,1.8h-0.76l1.95-5.73h0.89l1.96,5.73h-0.79l-0.61-1.8H136.06z M137.93,134.87l-0.56-1.65
		c-0.13-0.37-0.21-0.71-0.3-1.05h-0.02c-0.08,0.34-0.18,0.69-0.29,1.04l-0.56,1.66H137.93z"/>
	<path class="st4" d="M143.64,136.13c0,0.42,0.01,0.8,0.03,1.12h-0.66l-0.04-0.67h-0.02c-0.2,0.33-0.63,0.77-1.36,0.77
		c-0.65,0-1.42-0.36-1.42-1.8v-2.41h0.75v2.28c0,0.78,0.24,1.31,0.92,1.31c0.5,0,0.85-0.35,0.99-0.68c0.04-0.11,0.07-0.25,0.07-0.38
		v-2.52h0.75V136.13z"/>
	<path class="st4" d="M148.44,131.22v4.97c0,0.37,0.01,0.78,0.03,1.06h-0.67l-0.03-0.71h-0.02c-0.23,0.46-0.73,0.81-1.4,0.81
		c-0.99,0-1.76-0.84-1.76-2.09c-0.01-1.37,0.84-2.21,1.84-2.21c0.63,0,1.05,0.3,1.24,0.63h0.02v-2.46H148.44z M147.69,134.81
		c0-0.09-0.01-0.22-0.03-0.31c-0.11-0.48-0.52-0.87-1.08-0.87c-0.77,0-1.23,0.68-1.23,1.59c0,0.83,0.41,1.52,1.22,1.52
		c0.5,0,0.96-0.33,1.1-0.89c0.03-0.1,0.03-0.2,0.03-0.32V134.81z"/>
	<path class="st4" d="M150.51,131.98c0.01,0.25-0.18,0.46-0.48,0.46c-0.26,0-0.45-0.2-0.45-0.46c0-0.26,0.2-0.47,0.47-0.47
		C150.33,131.51,150.51,131.72,150.51,131.98z M149.68,137.25v-4.11h0.75v4.11H149.68z"/>
	<path class="st4" d="M152.57,131.96v1.18h1.07v0.57h-1.07v2.22c0,0.51,0.14,0.8,0.56,0.8c0.2,0,0.34-0.03,0.43-0.05l0.03,0.56
		c-0.14,0.06-0.37,0.1-0.66,0.1c-0.35,0-0.63-0.11-0.81-0.31c-0.21-0.22-0.29-0.59-0.29-1.07v-2.24h-0.64v-0.57h0.64v-0.99
		L152.57,131.96z"/>
	<path class="st4" d="M158.56,137.25l-0.06-0.52h-0.03c-0.23,0.32-0.67,0.61-1.26,0.61c-0.83,0-1.26-0.59-1.26-1.18
		c0-0.99,0.88-1.54,2.47-1.53v-0.08c0-0.34-0.09-0.95-0.93-0.95c-0.38,0-0.78,0.12-1.07,0.31l-0.17-0.49
		c0.34-0.22,0.83-0.37,1.35-0.37c1.26,0,1.56,0.86,1.56,1.68v1.54c0,0.36,0.02,0.71,0.07,0.99H158.56z M158.45,135.15
		c-0.82-0.02-1.74,0.13-1.74,0.93c0,0.48,0.32,0.71,0.71,0.71c0.54,0,0.88-0.34,0.99-0.69c0.03-0.08,0.04-0.16,0.04-0.24V135.15z"/>
	<path class="st4" d="M160.38,134.25c0-0.42-0.01-0.77-0.03-1.11h0.66l0.04,0.68h0.02c0.2-0.39,0.68-0.77,1.36-0.77
		c0.57,0,1.45,0.34,1.45,1.75v2.46h-0.75v-2.37c0-0.66-0.25-1.22-0.95-1.22c-0.49,0-0.88,0.35-1,0.77
		c-0.03,0.09-0.05,0.22-0.05,0.35v2.47h-0.75V134.25z"/>
	<path class="st4" d="M168.65,131.22v4.97c0,0.37,0.01,0.78,0.03,1.06h-0.67l-0.03-0.71h-0.02c-0.23,0.46-0.73,0.81-1.4,0.81
		c-0.99,0-1.76-0.84-1.76-2.09c-0.01-1.37,0.84-2.21,1.84-2.21c0.63,0,1.05,0.3,1.24,0.63h0.02v-2.46H168.65z M167.9,134.81
		c0-0.09-0.01-0.22-0.03-0.31c-0.11-0.48-0.52-0.87-1.08-0.87c-0.77,0-1.23,0.68-1.23,1.59c0,0.83,0.41,1.52,1.22,1.52
		c0.5,0,0.96-0.33,1.1-0.89c0.03-0.1,0.03-0.2,0.03-0.32V134.81z"/>
	<path class="st4" d="M171.72,131.6c0.37-0.08,0.91-0.12,1.42-0.12c0.79,0,1.3,0.14,1.66,0.47c0.29,0.25,0.45,0.65,0.45,1.09
		c0,0.76-0.48,1.26-1.08,1.46v0.03c0.44,0.15,0.71,0.56,0.84,1.16c0.19,0.8,0.32,1.35,0.44,1.57h-0.76
		c-0.09-0.16-0.22-0.65-0.38-1.37c-0.17-0.79-0.48-1.09-1.15-1.11h-0.7v2.48h-0.74V131.6z M172.46,134.21h0.76
		c0.79,0,1.29-0.43,1.29-1.09c0-0.74-0.54-1.06-1.32-1.07c-0.36,0-0.61,0.03-0.73,0.07V134.21z"/>
	<path class="st4" d="M177.18,131.98c0.01,0.25-0.18,0.46-0.48,0.46c-0.26,0-0.45-0.2-0.45-0.46c0-0.26,0.2-0.47,0.47-0.47
		C177,131.51,177.18,131.72,177.18,131.98z M176.34,137.25v-4.11h0.75v4.11H176.34z"/>
	<path class="st4" d="M178.23,136.49c0.22,0.14,0.61,0.3,0.99,0.3c0.54,0,0.8-0.27,0.8-0.61c0-0.36-0.21-0.55-0.77-0.76
		c-0.74-0.26-1.09-0.67-1.09-1.16c0-0.66,0.54-1.21,1.42-1.21c0.42,0,0.78,0.12,1.01,0.25l-0.19,0.54c-0.16-0.1-0.46-0.24-0.84-0.24
		c-0.44,0-0.69,0.25-0.69,0.56c0,0.34,0.25,0.49,0.78,0.7c0.71,0.27,1.08,0.63,1.08,1.24c0,0.72-0.56,1.23-1.54,1.23
		c-0.45,0-0.87-0.11-1.16-0.28L178.23,136.49z"/>
	<path class="st4" d="M182.44,135.02h0.02c0.1-0.14,0.25-0.32,0.37-0.47l1.21-1.42h0.9l-1.59,1.69l1.81,2.42h-0.91l-1.42-1.97
		l-0.38,0.42v1.55h-0.74v-6.03h0.74V135.02z"/>
</g>
<g>
	<path class="st4" d="M144.55,147.06c-0.27,0.14-0.82,0.27-1.51,0.27c-1.61,0-2.83-1.02-2.83-2.9c0-1.79,1.22-3.01,2.99-3.01
		c0.71,0,1.16,0.15,1.36,0.25l-0.18,0.6c-0.28-0.14-0.68-0.24-1.16-0.24c-1.34,0-2.24,0.86-2.24,2.36c0,1.4,0.81,2.3,2.2,2.3
		c0.45,0,0.91-0.09,1.21-0.24L144.55,147.06z"/>
	<path class="st4" d="M149.09,145.16c0,1.52-1.05,2.18-2.05,2.18c-1.11,0-1.97-0.82-1.97-2.12c0-1.38,0.9-2.18,2.04-2.18
		C148.29,143.04,149.09,143.9,149.09,145.16z M145.82,145.2c0,0.9,0.52,1.58,1.25,1.58c0.71,0,1.25-0.67,1.25-1.6
		c0-0.7-0.35-1.58-1.23-1.58S145.82,144.42,145.82,145.2z"/>
	<path class="st4" d="M150.03,144.25c0-0.42-0.01-0.77-0.03-1.11h0.65l0.03,0.66h0.03c0.23-0.39,0.61-0.76,1.29-0.76
		c0.56,0,0.99,0.34,1.17,0.82h0.02c0.13-0.23,0.29-0.41,0.46-0.54c0.25-0.19,0.52-0.29,0.91-0.29c0.54,0,1.35,0.36,1.35,1.79v2.42
		h-0.73v-2.33c0-0.79-0.29-1.27-0.89-1.27c-0.42,0-0.76,0.31-0.88,0.68c-0.03,0.1-0.06,0.24-0.06,0.37v2.54h-0.73v-2.46
		c0-0.65-0.29-1.13-0.86-1.13c-0.47,0-0.81,0.37-0.93,0.75c-0.04,0.11-0.06,0.24-0.06,0.37v2.48h-0.73V144.25z"/>
	<path class="st4" d="M157.12,144.25c0-0.42-0.01-0.77-0.03-1.11h0.65l0.03,0.66h0.03c0.23-0.39,0.61-0.76,1.29-0.76
		c0.56,0,0.99,0.34,1.17,0.82h0.02c0.13-0.23,0.29-0.41,0.46-0.54c0.25-0.19,0.52-0.29,0.91-0.29c0.54,0,1.35,0.36,1.35,1.79v2.42
		h-0.73v-2.33c0-0.79-0.29-1.27-0.89-1.27c-0.42,0-0.76,0.31-0.88,0.68c-0.03,0.1-0.06,0.24-0.06,0.37v2.54h-0.73v-2.46
		c0-0.65-0.29-1.13-0.86-1.13c-0.47,0-0.81,0.37-0.93,0.75c-0.04,0.11-0.06,0.24-0.06,0.37v2.48h-0.73V144.25z"/>
	<path class="st4" d="M165.04,141.98c0.01,0.25-0.18,0.46-0.48,0.46c-0.26,0-0.45-0.2-0.45-0.46c0-0.26,0.2-0.47,0.47-0.47
		C164.86,141.51,165.04,141.71,165.04,141.98z M164.21,147.25v-4.11h0.75v4.11H164.21z"/>
	<path class="st4" d="M167.1,141.95v1.18h1.07v0.57h-1.07v2.22c0,0.51,0.14,0.8,0.56,0.8c0.2,0,0.34-0.03,0.43-0.05l0.03,0.56
		c-0.14,0.06-0.37,0.1-0.66,0.1c-0.35,0-0.63-0.11-0.81-0.31c-0.21-0.22-0.29-0.59-0.29-1.07v-2.24h-0.64v-0.57h0.64v-0.99
		L167.1,141.95z"/>
	<path class="st4" d="M169.91,141.95v1.18h1.07v0.57h-1.07v2.22c0,0.51,0.14,0.8,0.56,0.8c0.2,0,0.34-0.03,0.43-0.05l0.03,0.56
		c-0.14,0.06-0.37,0.1-0.66,0.1c-0.35,0-0.63-0.11-0.81-0.31c-0.21-0.22-0.29-0.59-0.29-1.07v-2.24h-0.64v-0.57h0.64v-0.99
		L169.91,141.95z"/>
	<path class="st4" d="M172.2,145.33c0.02,1.01,0.66,1.43,1.41,1.43c0.54,0,0.86-0.09,1.14-0.21l0.13,0.54
		c-0.26,0.12-0.71,0.25-1.37,0.25c-1.27,0-2.02-0.83-2.02-2.07c0-1.24,0.73-2.22,1.93-2.22c1.34,0,1.7,1.18,1.7,1.94
		c0,0.15-0.02,0.27-0.03,0.35H172.2z M174.39,144.79c0.01-0.48-0.2-1.22-1.04-1.22c-0.76,0-1.09,0.7-1.15,1.22H174.39z"/>
	<path class="st4" d="M176.46,145.33c0.02,1.01,0.66,1.43,1.41,1.43c0.54,0,0.86-0.09,1.14-0.21l0.13,0.54
		c-0.26,0.12-0.71,0.25-1.37,0.25c-1.27,0-2.02-0.83-2.02-2.07c0-1.24,0.73-2.22,1.93-2.22c1.34,0,1.7,1.18,1.7,1.94
		c0,0.15-0.02,0.27-0.03,0.35H176.46z M178.65,144.79c0.01-0.48-0.2-1.22-1.04-1.22c-0.76,0-1.09,0.7-1.15,1.22H178.65z"/>
</g>
<rect x="123.32" y="117.88" class="st6" width="72.93" height="42.37"/>
</svg>
