<?xml version="1.0" encoding="utf-8"?>
<!-- Generator: Adobe Illustrator 23.0.0, SVG Export Plug-In . SVG Version: 6.00 Build 0)  -->
<svg version="1.1" id="Layer_1" xmlns="http://www.w3.org/2000/svg" xmlns:xlink="http://www.w3.org/1999/xlink" x="0px" y="0px"
	 viewBox="0 0 481.89 76.54" style="enable-background:new 0 0 481.89 76.54;" xml:space="preserve">
<style type="text/css">
	.st0{clip-path:url(#SVGID_2_);fill:#E3F1F8;}
	.st1{clip-path:url(#SVGID_2_);}
	.st2{fill:#231F20;}
	.st3{opacity:0.25;clip-path:url(#SVGID_4_);}
	.st4{clip-path:url(#SVGID_6_);fill:#7DC242;}
	.st5{clip-path:url(#SVGID_6_);fill:#FFFFFF;}
	.st6{clip-path:url(#SVGID_4_);fill:#7DC242;}
	.st7{clip-path:url(#SVGID_4_);fill:#FFFFFF;}
	.st8{opacity:0.5;clip-path:url(#SVGID_4_);}
	.st9{clip-path:url(#SVGID_8_);fill:#FFFFFF;}
	.st10{fill:#003767;}
	.st11{opacity:0.25;clip-path:url(#SVGID_10_);}
	.st12{clip-path:url(#SVGID_12_);fill:#E3F1F8;}
	.st13{clip-path:url(#SVGID_12_);fill:#FFFFFF;}
	.st14{clip-path:url(#SVGID_12_);fill:#64BDE1;}
	.st15{clip-path:url(#SVGID_10_);fill:#64BDE1;}
	.st16{clip-path:url(#SVGID_10_);fill:#FFFFFF;}
	.st17{clip-path:url(#SVGID_10_);fill:#7DC242;}
	.st18{opacity:0.5;clip-path:url(#SVGID_10_);}
	.st19{clip-path:url(#SVGID_14_);fill:#FFFFFF;}
	.st20{opacity:0.25;clip-path:url(#SVGID_16_);}
	.st21{clip-path:url(#SVGID_18_);fill:#E3F1F8;}
	.st22{clip-path:url(#SVGID_18_);fill:#FFFFFF;}
	.st23{clip-path:url(#SVGID_18_);fill:#64BDE1;}
	.st24{clip-path:url(#SVGID_16_);fill:#64BDE1;}
	.st25{clip-path:url(#SVGID_16_);fill:#FFFFFF;}
	.st26{clip-path:url(#SVGID_16_);fill:#7DC242;}
	.st27{opacity:0.5;clip-path:url(#SVGID_16_);}
	.st28{clip-path:url(#SVGID_20_);fill:#FFFFFF;}
</style>
<g>
	<g>
		<defs>
			<rect id="SVGID_1_" width="481.89" height="76.54"/>
		</defs>
		<clipPath id="SVGID_2_">
			<use xlink:href="#SVGID_1_"  style="overflow:visible;"/>
		</clipPath>
		<rect x="47.62" y="13.48" class="st0" width="108.85" height="49.57"/>
		<g class="st1">
			<path class="st2" d="M82.03,25.27c0-1.5,1.12-2.83,2.85-2.83c1.74,0,2.86,1.33,2.86,2.84s-1.12,2.83-2.86,2.83
				C83.15,28.11,82.03,26.79,82.03,25.27L82.03,25.27z M82.76,25.29c0,1.22,0.93,2.14,2.12,2.14c1.2,0,2.12-0.92,2.12-2.15
				s-0.92-2.15-2.12-2.15C83.69,23.13,82.76,24.05,82.76,25.29L82.76,25.29z"/>
			<path class="st2" d="M88.98,23.18h-0.79v-0.59h0.79v-0.44c0-1.66,1.31-1.71,1.89-1.71v0.59c-0.37,0.02-1.16,0.02-1.16,1.19v0.37
				h1.16v0.59h-1.16v4.79h-0.73V23.18z"/>
			<path class="st2" d="M94.53,22.59h0.7v1.12c0.44-0.78,1.22-1.27,2.25-1.27c1.81,0,2.76,1.47,2.76,2.86c0,1.5-1.09,2.82-2.76,2.82
				c-1.19,0-1.96-0.69-2.21-1.25v1.1v2.04h-0.74V22.59z M99.49,25.27c0-1.01-0.71-2.15-2.16-2.15c-0.6,0-1.13,0.24-1.52,0.63
				c-0.37,0.39-0.6,0.93-0.6,1.54c0,0.6,0.23,1.14,0.62,1.53c0.38,0.38,0.92,0.61,1.52,0.61C98.56,27.43,99.49,26.51,99.49,25.27
				L99.49,25.27z"/>
			<path class="st2" d="M101.7,25.49c0.04,1.35,1.19,2,2.1,1.99c0.83,0,1.5-0.41,1.85-1.11h0.77c-0.25,0.58-0.63,1.02-1.09,1.31
				c-0.45,0.29-0.98,0.44-1.53,0.44c-1.87,0-2.84-1.49-2.84-2.83c0-1.58,1.22-2.85,2.83-2.85c0.76,0,1.46,0.27,1.97,0.76
				c0.62,0.6,0.92,1.43,0.84,2.29H101.7z M105.86,24.9c-0.05-0.94-0.96-1.86-2.07-1.83c-1.16,0-2.02,0.85-2.09,1.83H105.86z"/>
			<path class="st2" d="M107.65,22.59h0.7v0.88c0.39-0.8,1.09-1.01,1.72-1.03v0.73H110c-1.04,0-1.62,0.65-1.62,1.87v2.93h-0.73
				V22.59z"/>
			<path class="st2" d="M110.87,22.59h0.7v0.85c0.34-0.68,1.09-1,1.7-1c0.56,0,1.09,0.18,1.47,0.61c0.14,0.14,0.32,0.5,0.35,0.56
				c0.08-0.15,0.19-0.36,0.39-0.57c0.35-0.37,0.88-0.6,1.48-0.6c0.55,0,1.08,0.16,1.45,0.54c0.47,0.47,0.61,1.05,0.61,2v2.99h-0.74
				v-2.96c0-0.57-0.09-1.08-0.4-1.43c-0.22-0.28-0.56-0.45-1.07-0.45c-0.47,0-0.93,0.19-1.18,0.56c-0.27,0.38-0.32,0.68-0.32,1.29
				v2.99h-0.74v-2.99c0.02-0.6-0.07-0.95-0.28-1.28c-0.25-0.35-0.63-0.56-1.18-0.57c-0.5-0.02-0.92,0.23-1.14,0.55
				c-0.23,0.31-0.36,0.72-0.36,1.29v3h-0.74V22.59z"/>
			<path class="st2" d="M125.82,27.97h-0.74v-1.11c-0.42,0.81-1.24,1.26-2.2,1.26c-1.75,0-2.79-1.36-2.79-2.84
				c0-1.58,1.15-2.84,2.79-2.84c1.15,0,1.94,0.67,2.2,1.28v-1.13h0.74V27.97z M120.83,25.29c0.01,0.97,0.68,2.14,2.16,2.14
				c0.95,0,1.65-0.55,1.94-1.31c0.12-0.26,0.18-0.56,0.18-0.85c0.01-0.3-0.05-0.6-0.17-0.86c-0.3-0.74-1.02-1.29-1.97-1.29
				C121.73,23.12,120.83,24.08,120.83,25.29L120.83,25.29z"/>
			<path class="st2" d="M127.27,22.59h0.7c0,0.3,0,0.6-0.01,0.96c0.31-0.7,1.04-1.13,2-1.11c1.67,0.02,2.26,1.16,2.26,2.47v3.06
				h-0.73v-2.91c0-1.16-0.52-1.95-1.73-1.93c-1.11,0.01-1.75,0.68-1.75,1.8v3.04h-0.74V22.59z"/>
			<path class="st2" d="M133.98,25.49c0.04,1.35,1.19,2,2.1,1.99c0.83,0,1.5-0.41,1.85-1.11h0.77c-0.25,0.58-0.63,1.02-1.09,1.31
				c-0.45,0.29-0.98,0.44-1.53,0.44c-1.87,0-2.84-1.49-2.84-2.83c0-1.58,1.22-2.85,2.83-2.85c0.76,0,1.46,0.27,1.97,0.76
				c0.62,0.6,0.92,1.43,0.84,2.29H133.98z M138.14,24.9c-0.05-0.94-0.96-1.86-2.07-1.83c-1.16,0-2.02,0.85-2.09,1.83H138.14z"/>
			<path class="st2" d="M139.93,22.59h0.7c0,0.3,0,0.6-0.01,0.96c0.31-0.7,1.04-1.13,2-1.11c1.67,0.02,2.26,1.16,2.26,2.47v3.06
				h-0.73v-2.91c0-1.16-0.52-1.95-1.73-1.93c-1.11,0.01-1.75,0.68-1.75,1.8v3.04h-0.74V22.59z"/>
			<path class="st2" d="M146.73,23.18h-1.06v-0.59h1.06v-2.02h0.73v2.02h1.18v0.59h-1.18v4.79h-0.73V23.18z"/>
		</g>
		<g class="st1">
			<path class="st2" d="M82.69,39.49c0.04,1.35,1.19,2,2.1,1.99c0.83,0,1.5-0.41,1.85-1.11h0.77c-0.25,0.58-0.63,1.02-1.09,1.31
				c-0.45,0.29-0.98,0.44-1.53,0.44c-1.87,0-2.84-1.49-2.84-2.83c0-1.58,1.22-2.85,2.83-2.85c0.76,0,1.46,0.27,1.97,0.76
				c0.62,0.6,0.92,1.43,0.84,2.29H82.69z M86.85,38.9c-0.05-0.94-0.96-1.86-2.07-1.83c-1.16,0-2.02,0.85-2.09,1.83H86.85z"/>
			<path class="st2" d="M88.64,36.59h0.7v0.85c0.34-0.68,1.09-1,1.7-1c0.56,0,1.09,0.18,1.47,0.61c0.14,0.14,0.32,0.5,0.35,0.56
				c0.08-0.15,0.19-0.36,0.39-0.57c0.35-0.37,0.88-0.6,1.48-0.6c0.55,0,1.08,0.16,1.45,0.54c0.47,0.47,0.61,1.05,0.61,2v2.99h-0.74
				v-2.96c0-0.57-0.09-1.08-0.4-1.43c-0.22-0.28-0.56-0.45-1.07-0.45c-0.47,0-0.93,0.19-1.18,0.56c-0.27,0.38-0.32,0.68-0.32,1.29
				v2.99h-0.74v-2.99c0.02-0.6-0.07-0.95-0.28-1.28c-0.25-0.35-0.63-0.56-1.18-0.57c-0.5-0.02-0.92,0.23-1.14,0.55
				c-0.23,0.31-0.36,0.72-0.36,1.29v3h-0.74V36.59z"/>
			<path class="st2" d="M98.2,36.59h0.7v1.12c0.44-0.78,1.22-1.27,2.25-1.27c1.81,0,2.76,1.47,2.76,2.86c0,1.5-1.09,2.82-2.76,2.82
				c-1.19,0-1.96-0.69-2.21-1.25v1.1v2.04H98.2V36.59z M103.16,39.27c0-1.01-0.71-2.15-2.16-2.15c-0.6,0-1.13,0.24-1.52,0.63
				c-0.37,0.39-0.6,0.93-0.6,1.54c0,0.6,0.23,1.14,0.62,1.53c0.38,0.38,0.92,0.61,1.52,0.61C102.23,41.43,103.16,40.51,103.16,39.27
				L103.16,39.27z"/>
			<path class="st2" d="M105.04,34.57h0.74v7.4h-0.74V34.57z"/>
			<path class="st2" d="M106.88,39.27c0-1.5,1.12-2.83,2.85-2.83c1.74,0,2.86,1.33,2.86,2.84c0,1.51-1.12,2.83-2.86,2.83
				C108,42.11,106.88,40.79,106.88,39.27L106.88,39.27z M107.61,39.29c0,1.22,0.93,2.14,2.12,2.14c1.2,0,2.12-0.92,2.12-2.15
				c0-1.23-0.92-2.15-2.12-2.15C108.54,37.13,107.61,38.05,107.61,39.29L107.61,39.29z"/>
			<path class="st2" d="M114.92,41.87l-2.08-5.28h0.79l1.69,4.35l1.74-4.35h0.81l-3.07,7.42H114L114.92,41.87z"/>
			<path class="st2" d="M118.7,39.49c0.04,1.35,1.19,2,2.1,1.99c0.83,0,1.5-0.41,1.85-1.11h0.77c-0.25,0.58-0.63,1.02-1.09,1.31
				c-0.45,0.29-0.98,0.44-1.53,0.44c-1.87,0-2.84-1.49-2.84-2.83c0-1.58,1.22-2.85,2.83-2.85c0.76,0,1.46,0.27,1.97,0.76
				c0.62,0.6,0.92,1.43,0.84,2.29H118.7z M122.86,38.9c-0.05-0.94-0.96-1.86-2.07-1.83c-1.16,0-2.02,0.85-2.09,1.83H122.86z"/>
			<path class="st2" d="M124.98,39.49c0.04,1.35,1.19,2,2.1,1.99c0.83,0,1.5-0.41,1.85-1.11h0.77c-0.25,0.58-0.63,1.02-1.09,1.31
				c-0.45,0.29-0.98,0.44-1.53,0.44c-1.87,0-2.84-1.49-2.84-2.83c0-1.58,1.22-2.85,2.83-2.85c0.76,0,1.46,0.27,1.97,0.76
				c0.62,0.6,0.92,1.43,0.84,2.29H124.98z M129.14,38.9c-0.05-0.94-0.96-1.86-2.07-1.83c-1.16,0-2.02,0.85-2.09,1.83H129.14z"/>
			<path class="st2" d="M133.35,37.94c0-0.57-0.38-0.89-0.92-0.89c-0.59,0-0.95,0.4-0.93,0.87c0.02,0.51,0.41,0.72,1.06,0.91
				c0.77,0.21,1.63,0.43,1.67,1.58c0.04,0.99-0.76,1.71-1.78,1.71c-0.87,0-1.83-0.55-1.84-1.68h0.73c0.03,0.74,0.58,1.07,1.12,1.07
				c0.62,0,1.05-0.46,1.04-1.01c-0.02-0.61-0.42-0.86-1.35-1.13c-0.77-0.23-1.37-0.54-1.39-1.39c0-0.97,0.77-1.54,1.68-1.54
				c0.75,0,1.59,0.41,1.64,1.5H133.35z"/>
		</g>
		<g class="st1">
			<path class="st2" d="M87.75,55.97h-0.74v-1.11c-0.42,0.81-1.24,1.26-2.2,1.26c-1.75,0-2.79-1.36-2.79-2.84
				c0-1.58,1.15-2.84,2.79-2.84c1.15,0,1.94,0.67,2.2,1.28v-1.13h0.74V55.97z M82.76,53.29c0.01,0.97,0.68,2.14,2.16,2.14
				c0.95,0,1.65-0.55,1.94-1.31c0.12-0.26,0.18-0.56,0.18-0.85c0.01-0.3-0.05-0.6-0.17-0.86c-0.3-0.74-1.02-1.29-1.97-1.29
				C83.66,51.12,82.76,52.08,82.76,53.29L82.76,53.29z"/>
			<path class="st2" d="M89.2,50.59h0.7v0.88c0.39-0.8,1.09-1.01,1.72-1.03v0.73h-0.07c-1.04,0-1.62,0.65-1.62,1.87v2.93H89.2V50.59
				z"/>
			<path class="st2" d="M92.38,53.49c0.04,1.35,1.19,2,2.1,1.99c0.83,0,1.5-0.41,1.85-1.11h0.77c-0.25,0.58-0.63,1.02-1.09,1.31
				c-0.45,0.29-0.98,0.44-1.53,0.44c-1.87,0-2.84-1.49-2.84-2.83c0-1.58,1.22-2.85,2.83-2.85c0.76,0,1.46,0.27,1.97,0.76
				c0.62,0.6,0.92,1.43,0.84,2.29H92.38z M96.54,52.9c-0.05-0.94-0.96-1.86-2.07-1.83c-1.16,0-2.02,0.85-2.09,1.83H96.54z"/>
			<path class="st2" d="M101.21,48.57h0.74v2.02v1.08c0.45-0.76,1.26-1.22,2.19-1.23c1.53,0,2.77,1.15,2.77,2.83
				c0,1.62-1.16,2.85-2.79,2.85c-1.01,0-1.8-0.49-2.2-1.26v1.11h-0.71V48.57z M106.16,53.27c0-1.23-0.93-2.15-2.13-2.15
				c-1.24,0-2.13,0.96-2.13,2.15c0,1.17,0.85,2.16,2.1,2.16C105.43,55.43,106.16,54.32,106.16,53.27L106.16,53.27z"/>
			<path class="st2" d="M108.01,48.57h0.74v7.4h-0.74V48.57z"/>
			<path class="st2" d="M115.57,55.97h-0.74v-1.11c-0.42,0.81-1.24,1.26-2.2,1.26c-1.75,0-2.79-1.36-2.79-2.84
				c0-1.58,1.15-2.84,2.79-2.84c1.15,0,1.94,0.67,2.2,1.28v-1.13h0.74V55.97z M110.58,53.29c0.01,0.97,0.68,2.14,2.16,2.14
				c0.95,0,1.65-0.55,1.94-1.31c0.12-0.26,0.18-0.56,0.18-0.85c0.01-0.3-0.05-0.6-0.17-0.86c-0.3-0.74-1.02-1.29-1.97-1.29
				C111.48,51.12,110.58,52.08,110.58,53.29L110.58,53.29z"/>
			<path class="st2" d="M122.25,54.15c-0.35,1.14-1.4,1.97-2.69,1.97c-1.82,0-2.89-1.4-2.89-2.84c0-1.59,1.21-2.84,2.84-2.84
				c1.21,0,2.37,0.72,2.74,2.01h-0.76c-0.34-0.91-1.19-1.33-1.95-1.33c-0.63,0-1.07,0.19-1.52,0.61c-0.36,0.35-0.61,0.93-0.61,1.55
				c0,1.27,0.96,2.15,2.12,2.15c1.03-0.01,1.72-0.63,1.95-1.28H122.25z"/>
			<path class="st2" d="M123.3,48.57h0.74v4.23l2.42-2.21h0.91l-2.59,2.36l2.71,3.02h-0.87l-2.58-2.86v2.86h-0.74V48.57z"/>
		</g>
		<rect x="210.33" y="13.48" class="st0" width="108.85" height="49.57"/>
		<g class="st1">
			<path class="st2" d="M244.74,25.27c0-1.5,1.12-2.83,2.85-2.83c1.74,0,2.86,1.33,2.86,2.84s-1.12,2.83-2.86,2.83
				C245.86,28.11,244.74,26.79,244.74,25.27L244.74,25.27z M245.47,25.29c0,1.22,0.93,2.14,2.12,2.14c1.2,0,2.12-0.92,2.12-2.15
				s-0.92-2.15-2.12-2.15C246.4,23.13,245.47,24.05,245.47,25.29L245.47,25.29z"/>
			<path class="st2" d="M251.69,23.18h-0.79v-0.59h0.79v-0.44c0-1.66,1.31-1.71,1.89-1.71v0.59c-0.37,0.02-1.16,0.02-1.16,1.19v0.37
				h1.16v0.59h-1.16v4.79h-0.73V23.18z"/>
			<path class="st2" d="M257.24,22.59h0.7v1.12c0.44-0.78,1.22-1.27,2.25-1.27c1.81,0,2.76,1.47,2.76,2.86
				c0,1.5-1.09,2.82-2.76,2.82c-1.19,0-1.96-0.69-2.21-1.25v1.1v2.04h-0.74V22.59z M262.2,25.27c0-1.01-0.71-2.15-2.16-2.15
				c-0.6,0-1.13,0.24-1.52,0.63c-0.37,0.39-0.6,0.93-0.6,1.54c0,0.6,0.23,1.14,0.62,1.53c0.38,0.38,0.92,0.61,1.52,0.61
				C261.27,27.43,262.2,26.51,262.2,25.27L262.2,25.27z"/>
			<path class="st2" d="M264.41,25.49c0.04,1.35,1.19,2,2.1,1.99c0.83,0,1.5-0.41,1.85-1.11h0.77c-0.25,0.58-0.63,1.02-1.09,1.31
				c-0.45,0.29-0.98,0.44-1.53,0.44c-1.87,0-2.84-1.49-2.84-2.83c0-1.58,1.22-2.85,2.83-2.85c0.76,0,1.46,0.27,1.97,0.76
				c0.62,0.6,0.92,1.43,0.84,2.29H264.41z M268.57,24.9c-0.05-0.94-0.96-1.86-2.07-1.83c-1.16,0-2.02,0.85-2.09,1.83H268.57z"/>
			<path class="st2" d="M270.36,22.59h0.7v0.88c0.39-0.8,1.09-1.01,1.72-1.03v0.73h-0.07c-1.04,0-1.62,0.65-1.62,1.87v2.93h-0.73
				V22.59z"/>
			<path class="st2" d="M273.58,22.59h0.7v0.85c0.34-0.68,1.09-1,1.7-1c0.56,0,1.09,0.18,1.47,0.61c0.14,0.14,0.32,0.5,0.35,0.56
				c0.08-0.15,0.19-0.36,0.39-0.57c0.35-0.37,0.88-0.6,1.48-0.6c0.55,0,1.08,0.16,1.45,0.54c0.47,0.47,0.61,1.05,0.61,2v2.99h-0.74
				v-2.96c0-0.57-0.09-1.08-0.4-1.43c-0.22-0.28-0.56-0.45-1.07-0.45c-0.47,0-0.93,0.19-1.18,0.56c-0.27,0.38-0.32,0.68-0.32,1.29
				v2.99h-0.74v-2.99c0.02-0.6-0.07-0.95-0.28-1.28c-0.25-0.35-0.63-0.56-1.18-0.57c-0.5-0.02-0.92,0.23-1.14,0.55
				c-0.23,0.31-0.36,0.72-0.36,1.29v3h-0.74V22.59z"/>
			<path class="st2" d="M288.53,27.97h-0.74v-1.11c-0.42,0.81-1.24,1.26-2.2,1.26c-1.75,0-2.79-1.36-2.79-2.84
				c0-1.58,1.15-2.84,2.79-2.84c1.15,0,1.94,0.67,2.2,1.28v-1.13h0.74V27.97z M283.54,25.29c0.01,0.97,0.68,2.14,2.16,2.14
				c0.95,0,1.65-0.55,1.94-1.31c0.12-0.26,0.18-0.56,0.18-0.85c0.01-0.3-0.05-0.6-0.17-0.86c-0.3-0.74-1.02-1.29-1.97-1.29
				C284.43,23.12,283.54,24.08,283.54,25.29L283.54,25.29z"/>
			<path class="st2" d="M289.98,22.59h0.7c0,0.3,0,0.6-0.01,0.96c0.31-0.7,1.04-1.13,2-1.11c1.67,0.02,2.26,1.16,2.26,2.47v3.06
				h-0.73v-2.91c0-1.16-0.52-1.95-1.73-1.93c-1.11,0.01-1.75,0.68-1.75,1.8v3.04h-0.74V22.59z"/>
			<path class="st2" d="M296.69,25.49c0.04,1.35,1.19,2,2.1,1.99c0.83,0,1.5-0.41,1.85-1.11h0.77c-0.25,0.58-0.63,1.02-1.09,1.31
				c-0.45,0.29-0.98,0.44-1.53,0.44c-1.87,0-2.84-1.49-2.84-2.83c0-1.58,1.22-2.85,2.83-2.85c0.76,0,1.46,0.27,1.97,0.76
				c0.62,0.6,0.92,1.43,0.84,2.29H296.69z M300.85,24.9c-0.05-0.94-0.96-1.86-2.07-1.83c-1.16,0-2.02,0.85-2.09,1.83H300.85z"/>
			<path class="st2" d="M302.64,22.59h0.7c0,0.3,0,0.6-0.01,0.96c0.31-0.7,1.04-1.13,2-1.11c1.67,0.02,2.26,1.16,2.26,2.47v3.06
				h-0.73v-2.91c0-1.16-0.52-1.95-1.73-1.93c-1.11,0.01-1.75,0.68-1.75,1.8v3.04h-0.74V22.59z"/>
			<path class="st2" d="M309.44,23.18h-1.06v-0.59h1.06v-2.02h0.73v2.02h1.18v0.59h-1.18v4.79h-0.73V23.18z"/>
		</g>
		<g class="st1">
			<path class="st2" d="M245.4,39.49c0.04,1.35,1.19,2,2.1,1.99c0.83,0,1.5-0.41,1.85-1.11h0.77c-0.25,0.58-0.63,1.02-1.09,1.31
				c-0.45,0.29-0.98,0.44-1.53,0.44c-1.87,0-2.84-1.49-2.84-2.83c0-1.58,1.22-2.85,2.83-2.85c0.76,0,1.46,0.27,1.97,0.76
				c0.62,0.6,0.92,1.43,0.84,2.29H245.4z M249.56,38.9c-0.05-0.94-0.96-1.86-2.07-1.83c-1.16,0-2.02,0.85-2.09,1.83H249.56z"/>
			<path class="st2" d="M251.35,36.59h0.7v0.85c0.34-0.68,1.09-1,1.7-1c0.56,0,1.09,0.18,1.47,0.61c0.14,0.14,0.32,0.5,0.35,0.56
				c0.08-0.15,0.19-0.36,0.39-0.57c0.35-0.37,0.88-0.6,1.48-0.6c0.55,0,1.08,0.16,1.45,0.54c0.47,0.47,0.61,1.05,0.61,2v2.99h-0.74
				v-2.96c0-0.57-0.09-1.08-0.4-1.43c-0.22-0.28-0.56-0.45-1.07-0.45c-0.47,0-0.93,0.19-1.18,0.56c-0.27,0.38-0.32,0.68-0.32,1.29
				v2.99h-0.74v-2.99c0.02-0.6-0.07-0.95-0.28-1.28c-0.25-0.35-0.63-0.56-1.18-0.57c-0.5-0.02-0.92,0.23-1.14,0.55
				c-0.23,0.31-0.36,0.72-0.36,1.29v3h-0.74V36.59z"/>
			<path class="st2" d="M260.91,36.59h0.7v1.12c0.44-0.78,1.22-1.27,2.25-1.27c1.81,0,2.76,1.47,2.76,2.86
				c0,1.5-1.09,2.82-2.76,2.82c-1.19,0-1.96-0.69-2.21-1.25v1.1v2.04h-0.74V36.59z M265.87,39.27c0-1.01-0.71-2.15-2.16-2.15
				c-0.6,0-1.13,0.24-1.52,0.63c-0.37,0.39-0.6,0.93-0.6,1.54c0,0.6,0.23,1.14,0.62,1.53c0.38,0.38,0.92,0.61,1.52,0.61
				C264.94,41.43,265.87,40.51,265.87,39.27L265.87,39.27z"/>
			<path class="st2" d="M267.75,34.57h0.74v7.4h-0.74V34.57z"/>
			<path class="st2" d="M269.59,39.27c0-1.5,1.12-2.83,2.85-2.83c1.74,0,2.86,1.33,2.86,2.84c0,1.51-1.12,2.83-2.86,2.83
				C270.71,42.11,269.59,40.79,269.59,39.27L269.59,39.27z M270.32,39.29c0,1.22,0.93,2.14,2.12,2.14c1.2,0,2.12-0.92,2.12-2.15
				c0-1.23-0.92-2.15-2.12-2.15C271.25,37.13,270.32,38.05,270.32,39.29L270.32,39.29z"/>
			<path class="st2" d="M277.62,41.87l-2.08-5.28h0.79l1.69,4.35l1.74-4.35h0.81l-3.07,7.42h-0.8L277.62,41.87z"/>
			<path class="st2" d="M281.42,39.49c0.04,1.35,1.19,2,2.1,1.99c0.83,0,1.5-0.41,1.85-1.11h0.77c-0.25,0.58-0.63,1.02-1.09,1.31
				c-0.45,0.29-0.98,0.44-1.53,0.44c-1.87,0-2.84-1.49-2.84-2.83c0-1.58,1.22-2.85,2.83-2.85c0.76,0,1.46,0.27,1.97,0.76
				c0.62,0.6,0.92,1.43,0.84,2.29H281.42z M285.58,38.9c-0.05-0.94-0.96-1.86-2.07-1.83c-1.16,0-2.02,0.85-2.09,1.83H285.58z"/>
			<path class="st2" d="M287.7,39.49c0.04,1.35,1.19,2,2.1,1.99c0.83,0,1.5-0.41,1.85-1.11h0.77c-0.25,0.58-0.63,1.02-1.09,1.31
				c-0.45,0.29-0.98,0.44-1.53,0.44c-1.87,0-2.84-1.49-2.84-2.83c0-1.58,1.22-2.85,2.83-2.85c0.76,0,1.46,0.27,1.97,0.76
				c0.62,0.6,0.92,1.43,0.84,2.29H287.7z M291.86,38.9c-0.05-0.94-0.96-1.86-2.07-1.83c-1.16,0-2.02,0.85-2.09,1.83H291.86z"/>
			<path class="st2" d="M296.06,37.94c0-0.57-0.38-0.89-0.92-0.89c-0.59,0-0.95,0.4-0.93,0.87c0.02,0.51,0.41,0.72,1.06,0.91
				c0.77,0.21,1.63,0.43,1.67,1.58c0.04,0.99-0.76,1.71-1.78,1.71c-0.87,0-1.83-0.55-1.84-1.68h0.73c0.03,0.74,0.58,1.07,1.12,1.07
				c0.62,0,1.05-0.46,1.04-1.01c-0.02-0.61-0.42-0.86-1.35-1.13c-0.77-0.23-1.37-0.54-1.39-1.39c0-0.97,0.77-1.54,1.68-1.54
				c0.75,0,1.59,0.41,1.64,1.5H296.06z"/>
		</g>
		<g class="st1">
			<path class="st2" d="M250.46,55.97h-0.74v-1.11c-0.42,0.81-1.24,1.26-2.2,1.26c-1.75,0-2.79-1.36-2.79-2.84
				c0-1.58,1.15-2.84,2.79-2.84c1.15,0,1.94,0.67,2.2,1.28v-1.13h0.74V55.97z M245.47,53.29c0.01,0.97,0.68,2.14,2.16,2.14
				c0.95,0,1.65-0.55,1.94-1.31c0.12-0.26,0.18-0.56,0.18-0.85c0.01-0.3-0.05-0.6-0.17-0.86c-0.3-0.74-1.02-1.29-1.97-1.29
				C246.37,51.12,245.47,52.08,245.47,53.29L245.47,53.29z"/>
			<path class="st2" d="M251.91,50.59h0.7v0.88c0.39-0.8,1.09-1.01,1.72-1.03v0.73h-0.07c-1.04,0-1.62,0.65-1.62,1.87v2.93h-0.73
				V50.59z"/>
			<path class="st2" d="M255.09,53.49c0.04,1.35,1.19,2,2.1,1.99c0.83,0,1.5-0.41,1.85-1.11h0.77c-0.25,0.58-0.63,1.02-1.09,1.31
				c-0.45,0.29-0.98,0.44-1.53,0.44c-1.87,0-2.84-1.49-2.84-2.83c0-1.58,1.22-2.85,2.83-2.85c0.76,0,1.46,0.27,1.97,0.76
				c0.62,0.6,0.92,1.43,0.84,2.29H255.09z M259.25,52.9c-0.05-0.94-0.96-1.86-2.07-1.83c-1.16,0-2.02,0.85-2.09,1.83H259.25z"/>
			<path class="st2" d="M264.05,51.18h-0.79v-0.59h0.79v-0.44c0-1.66,1.31-1.71,1.89-1.71v0.59c-0.37,0.02-1.16,0.02-1.16,1.19v0.37
				h1.16v0.59h-1.16v4.79h-0.73V51.18z"/>
			<path class="st2" d="M266.79,53.49c0.04,1.35,1.19,2,2.1,1.99c0.83,0,1.5-0.41,1.85-1.11h0.77c-0.25,0.58-0.63,1.02-1.09,1.31
				c-0.45,0.29-0.98,0.44-1.53,0.44c-1.87,0-2.84-1.49-2.84-2.83c0-1.58,1.22-2.85,2.83-2.85c0.76,0,1.46,0.27,1.97,0.76
				c0.62,0.6,0.92,1.43,0.84,2.29H266.79z M270.95,52.9c-0.05-0.94-0.96-1.86-2.07-1.83c-1.16,0-2.02,0.85-2.09,1.83H270.95z"/>
			<path class="st2" d="M272.74,50.59h0.7v0.85c0.34-0.68,1.09-1,1.7-1c0.56,0,1.09,0.18,1.47,0.61c0.14,0.14,0.32,0.5,0.35,0.56
				c0.08-0.15,0.19-0.36,0.39-0.57c0.35-0.37,0.88-0.6,1.48-0.6c0.55,0,1.08,0.16,1.45,0.54c0.47,0.47,0.61,1.05,0.61,2v2.99h-0.74
				v-2.96c0-0.57-0.09-1.08-0.4-1.43c-0.22-0.28-0.56-0.45-1.07-0.45c-0.47,0-0.93,0.19-1.18,0.56c-0.27,0.38-0.32,0.68-0.32,1.29
				v2.99h-0.74v-2.99c0.02-0.6-0.07-0.95-0.28-1.28c-0.25-0.35-0.63-0.56-1.18-0.57c-0.5-0.02-0.92,0.23-1.14,0.55
				c-0.23,0.31-0.36,0.72-0.36,1.29v3h-0.74V50.59z"/>
			<path class="st2" d="M287.69,55.97h-0.74v-1.11c-0.42,0.81-1.24,1.26-2.2,1.26c-1.75,0-2.79-1.36-2.79-2.84
				c0-1.58,1.15-2.84,2.79-2.84c1.15,0,1.94,0.67,2.2,1.28v-1.13h0.74V55.97z M282.7,53.29c0.01,0.97,0.68,2.14,2.16,2.14
				c0.95,0,1.65-0.55,1.94-1.31c0.12-0.26,0.18-0.56,0.18-0.85c0.01-0.3-0.05-0.6-0.17-0.86c-0.3-0.74-1.02-1.29-1.97-1.29
				C283.59,51.12,282.7,52.08,282.7,53.29L282.7,53.29z"/>
			<path class="st2" d="M289.14,48.57h0.74v7.4h-0.74V48.57z"/>
			<path class="st2" d="M291.64,53.49c0.04,1.35,1.19,2,2.1,1.99c0.83,0,1.5-0.41,1.85-1.11h0.77c-0.25,0.58-0.63,1.02-1.09,1.31
				c-0.45,0.29-0.98,0.44-1.53,0.44c-1.87,0-2.84-1.49-2.84-2.83c0-1.58,1.22-2.85,2.83-2.85c0.76,0,1.46,0.27,1.97,0.76
				c0.62,0.6,0.92,1.43,0.84,2.29H291.64z M295.8,52.9c-0.05-0.94-0.96-1.86-2.07-1.83c-1.16,0-2.02,0.85-2.09,1.83H295.8z"/>
		</g>
		<rect x="373.04" y="13.48" class="st0" width="108.85" height="49.58"/>
		<g class="st1">
			<defs>
				<rect id="SVGID_3_" y="0" width="481.89" height="76.54"/>
			</defs>
			<clipPath id="SVGID_4_">
				<use xlink:href="#SVGID_3_"  style="overflow:visible;"/>
			</clipPath>
			<g class="st3">
				<g>
					<defs>
						<rect id="SVGID_5_" x="316.42" y="-7" width="94.54" height="84.54"/>
					</defs>
					<clipPath id="SVGID_6_">
						<use xlink:href="#SVGID_5_"  style="overflow:visible;"/>
					</clipPath>
					<path class="st4" d="M363.69,76.2c20.95,0,37.94-16.98,37.94-37.94c0-20.95-16.99-37.94-37.94-37.94
						c-20.95,0-37.94,16.98-37.94,37.94C325.75,59.22,342.73,76.2,363.69,76.2"/>
					<path class="st5" d="M363.69,76.53c-21.1,0-38.27-17.17-38.27-38.27c0-21.1,17.17-38.27,38.27-38.27
						c21.1,0,38.27,17.17,38.27,38.27C401.95,59.37,384.79,76.53,363.69,76.53z M363.69,0.66c-20.74,0-37.61,16.87-37.61,37.61
						c0,20.74,16.87,37.61,37.61,37.61S401.29,59,401.29,38.27C401.29,17.53,384.42,0.66,363.69,0.66z"/>
				</g>
			</g>
			<path class="st6" d="M363.69,73.37c19.39,0,35.1-15.72,35.1-35.1c0-19.39-15.72-35.1-35.1-35.1c-19.39,0-35.1,15.71-35.1,35.1
				C328.58,57.65,344.3,73.37,363.69,73.37"/>
			<path class="st7" d="M363.69,73.7c-19.54,0-35.43-15.9-35.43-35.43c0-19.54,15.9-35.43,35.43-35.43
				c19.54,0,35.43,15.9,35.43,35.43C399.12,57.81,383.22,73.7,363.69,73.7z M363.69,3.49c-19.17,0-34.77,15.6-34.77,34.77
				c0,19.17,15.6,34.77,34.77,34.77s34.77-15.6,34.77-34.77C398.46,19.09,382.86,3.49,363.69,3.49z"/>
			<g class="st8">
				<g>
					<defs>
						<rect id="SVGID_7_" x="328.5" y="5.08" width="70.38" height="60.38"/>
					</defs>
					<clipPath id="SVGID_8_">
						<use xlink:href="#SVGID_7_"  style="overflow:visible;"/>
					</clipPath>
					<path class="st9" d="M363.69,64.13c14.28,0,25.86-11.58,25.86-25.86s-11.58-25.86-25.86-25.86
						c-14.28,0-25.86,11.58-25.86,25.86S349.4,64.13,363.69,64.13"/>
				</g>
			</g>
			<path class="st7" d="M363.69,64.46c-14.44,0-26.19-11.75-26.19-26.19c0-14.44,11.75-26.19,26.19-26.19s26.19,11.75,26.19,26.19
				C389.87,52.71,378.13,64.46,363.69,64.46z M363.69,12.74c-14.08,0-25.53,11.45-25.53,25.53s11.45,25.53,25.53,25.53
				c14.08,0,25.53-11.45,25.53-25.53S377.76,12.74,363.69,12.74z"/>
			<path class="st7" d="M363.69,61.65c12.92,0,23.39-10.47,23.39-23.39s-10.47-23.39-23.39-23.39c-12.92,0-23.39,10.47-23.39,23.39
				S350.77,61.65,363.69,61.65"/>
		</g>
		<g class="st1">
			<path class="st10" d="M350.61,35.37c0.08-2.38,2.02-3.25,3.49-3.25c1.91,0,3.28,1.3,3.28,3.03c0,1.34-0.85,2.1-1.6,2.5
				c2.13,0.74,2.32,2.45,2.32,3.06c0,2.13-1.78,3.71-4.05,3.71c-1.23,0-2.58-0.51-3.31-1.52c-0.5-0.7-0.69-1.54-0.7-2.19h1.91
				c0.06,1.15,0.93,2.03,2.16,2.05c1.34,0,2.11-0.96,2.11-2.15c0-1.22-1.06-2.1-2.38-2.1h-0.88v-1.42h0.56c1.23,0,2-0.82,2-1.68
				c0-0.9-0.56-1.62-1.47-1.62c-1.12,0-1.52,0.88-1.57,1.58H350.61z"/>
			<path class="st10" d="M359.8,35.18c0-1.54,1.28-3.06,3.5-3.06c2.21,0,3.49,1.49,3.49,3.07c0,1.23-0.75,2.03-1.41,2.4
				c1.25,0.5,1.91,1.68,1.91,3.02c-0.02,2.16-1.7,3.79-3.99,3.79c-2.3,0-3.99-1.63-4-3.79c0.02-1.33,0.66-2.51,1.92-3.02
				c-0.66-0.37-1.42-1.17-1.42-2.4V35.18z M361.19,40.62c0,1.1,0.88,2.13,2.11,2.13s2.11-1.02,2.11-2.15c0-1.14-0.88-2.14-2.11-2.14
				c-1.25,0-2.11,1.01-2.11,2.14V40.62z M361.64,35.35c0,0.93,0.75,1.63,1.66,1.63s1.67-0.7,1.67-1.65s-0.75-1.67-1.67-1.67
				s-1.66,0.72-1.66,1.67V35.35z"/>
			<path class="st10" d="M368.85,35.37c0.08-2.38,2.02-3.25,3.49-3.25c1.91,0,3.28,1.3,3.28,3.03c0,1.34-0.85,2.1-1.6,2.5
				c2.13,0.74,2.32,2.45,2.32,3.06c0,2.13-1.78,3.71-4.05,3.71c-1.23,0-2.58-0.51-3.31-1.52c-0.5-0.7-0.69-1.54-0.7-2.19h1.91
				c0.06,1.15,0.93,2.03,2.16,2.05c1.34,0,2.11-0.96,2.11-2.15c0-1.22-1.06-2.1-2.38-2.1h-0.88v-1.42h0.56c1.23,0,2-0.82,2-1.68
				c0-0.9-0.56-1.62-1.47-1.62c-1.12,0-1.52,0.88-1.57,1.58H368.85z"/>
		</g>
		<g class="st1">
			<path class="st2" d="M408.1,25.49c0.04,1.35,1.19,2,2.1,1.99c0.83,0,1.5-0.41,1.85-1.11h0.77c-0.25,0.58-0.63,1.02-1.09,1.31
				c-0.45,0.29-0.98,0.44-1.53,0.44c-1.87,0-2.84-1.49-2.84-2.83c0-1.58,1.22-2.85,2.83-2.85c0.76,0,1.46,0.27,1.97,0.76
				c0.62,0.6,0.92,1.43,0.84,2.29H408.1z M412.27,24.9c-0.05-0.94-0.96-1.86-2.07-1.83c-1.16,0-2.02,0.85-2.09,1.83H412.27z"/>
			<path class="st2" d="M414.05,22.59h0.7v0.85c0.34-0.68,1.09-1,1.7-1c0.56,0,1.09,0.18,1.47,0.61c0.14,0.14,0.32,0.5,0.35,0.56
				c0.08-0.15,0.19-0.36,0.39-0.57c0.35-0.37,0.88-0.6,1.48-0.6c0.55,0,1.08,0.16,1.45,0.54c0.47,0.47,0.61,1.05,0.61,2v2.99h-0.74
				v-2.96c0-0.57-0.09-1.08-0.4-1.43c-0.22-0.28-0.56-0.45-1.07-0.45c-0.47,0-0.93,0.19-1.18,0.56c-0.27,0.38-0.32,0.68-0.32,1.29
				v2.99h-0.74v-2.99c0.02-0.6-0.07-0.95-0.28-1.28c-0.25-0.35-0.63-0.56-1.18-0.57c-0.5-0.02-0.92,0.23-1.14,0.55
				c-0.23,0.31-0.36,0.72-0.36,1.29v3h-0.74V22.59z"/>
			<path class="st2" d="M423.61,22.59h0.7v1.12c0.44-0.78,1.22-1.27,2.25-1.27c1.81,0,2.76,1.47,2.76,2.86
				c0,1.5-1.09,2.82-2.76,2.82c-1.19,0-1.96-0.69-2.21-1.25v1.1v2.04h-0.74V22.59z M428.58,25.27c0-1.01-0.71-2.15-2.16-2.15
				c-0.6,0-1.13,0.24-1.52,0.63c-0.37,0.39-0.6,0.93-0.6,1.54c0,0.6,0.23,1.14,0.62,1.53c0.38,0.38,0.92,0.61,1.52,0.61
				C427.65,27.43,428.58,26.51,428.58,25.27L428.58,25.27z"/>
			<path class="st2" d="M430.45,20.57h0.74v7.4h-0.74V20.57z"/>
			<path class="st2" d="M432.29,25.27c0-1.5,1.12-2.83,2.85-2.83c1.74,0,2.86,1.33,2.86,2.84s-1.12,2.83-2.86,2.83
				C433.41,28.11,432.29,26.79,432.29,25.27L432.29,25.27z M433.02,25.29c0,1.22,0.93,2.14,2.12,2.14c1.2,0,2.12-0.92,2.12-2.15
				s-0.92-2.15-2.12-2.15C433.95,23.13,433.02,24.05,433.02,25.29L433.02,25.29z"/>
			<path class="st2" d="M440.33,27.87l-2.08-5.28h0.79l1.69,4.35l1.74-4.35h0.81l-3.07,7.42h-0.8L440.33,27.87z"/>
			<path class="st2" d="M444.12,25.49c0.04,1.35,1.19,2,2.1,1.99c0.83,0,1.5-0.41,1.85-1.11h0.77c-0.25,0.58-0.63,1.02-1.09,1.31
				c-0.45,0.29-0.98,0.44-1.53,0.44c-1.87,0-2.84-1.49-2.84-2.83c0-1.58,1.22-2.85,2.83-2.85c0.76,0,1.46,0.27,1.97,0.76
				c0.62,0.6,0.92,1.43,0.84,2.29H444.12z M448.29,24.9c-0.05-0.94-0.96-1.86-2.07-1.83c-1.16,0-2.02,0.85-2.09,1.83H448.29z"/>
			<path class="st2" d="M450.4,25.49c0.04,1.35,1.19,2,2.1,1.99c0.83,0,1.5-0.41,1.85-1.11h0.77c-0.25,0.58-0.63,1.02-1.09,1.31
				c-0.45,0.29-0.98,0.44-1.53,0.44c-1.87,0-2.84-1.49-2.84-2.83c0-1.58,1.22-2.85,2.83-2.85c0.76,0,1.46,0.27,1.97,0.76
				c0.62,0.6,0.92,1.43,0.84,2.29H450.4z M454.57,24.9c-0.05-0.94-0.96-1.86-2.07-1.83c-1.16,0-2.02,0.85-2.09,1.83H454.57z"/>
			<path class="st2" d="M458.77,23.94c0-0.57-0.38-0.89-0.92-0.89c-0.59,0-0.95,0.4-0.93,0.87c0.02,0.51,0.41,0.72,1.06,0.91
				c0.77,0.21,1.63,0.43,1.67,1.58c0.04,0.99-0.76,1.71-1.78,1.71c-0.87,0-1.83-0.55-1.84-1.68h0.73c0.03,0.74,0.58,1.07,1.12,1.07
				c0.62,0,1.05-0.46,1.04-1.01c-0.02-0.61-0.42-0.86-1.35-1.13c-0.77-0.23-1.37-0.54-1.39-1.39c0-0.97,0.77-1.54,1.68-1.54
				c0.75,0,1.59,0.41,1.64,1.5H458.77z"/>
		</g>
		<g class="st1">
			<path class="st2" d="M407.14,36.59h0.78l1.48,4.43l1.29-3.95h0.61l1.3,3.95l1.47-4.43h0.77l-1.86,5.38h-0.73l-1.27-3.92
				l-1.25,3.92h-0.72L407.14,36.59z"/>
			<path class="st2" d="M415.65,34.57h0.74v1.03h-0.74V34.57z M415.65,36.59h0.74v5.38h-0.74V36.59z"/>
			<path class="st2" d="M418.25,37.18h-1.06v-0.59h1.06v-2.02h0.73v2.02h1.18v0.59h-1.18v4.79h-0.73V37.18z"/>
			<path class="st2" d="M420.97,34.57h0.74v1.97v0.93c0.33-0.71,1.16-1.05,1.92-1.03c0.85,0,1.41,0.27,1.78,0.74
				s0.51,1.12,0.51,1.89v2.9h-0.73V39.1c0-0.58-0.12-1.07-0.39-1.42c-0.29-0.35-0.71-0.55-1.35-0.55c-0.59,0-1.03,0.21-1.31,0.53
				c-0.29,0.32-0.43,0.76-0.43,1.25v3.06h-0.74V34.57z"/>
		</g>
		<g class="st1">
			<path class="st2" d="M413.15,55.97h-0.71v-1.11c-0.38,0.71-1.1,1.26-2.22,1.26c-1.72,0-2.78-1.34-2.78-2.85
				c0-1.6,1.16-2.83,2.77-2.83c1.18,0,1.96,0.68,2.2,1.24v-1.14v-1.97h0.74V55.97z M408.17,53.28c0.01,1.08,0.76,2.15,2.16,2.15
				c0.6,0,1.15-0.24,1.53-0.63c0.39-0.4,0.62-0.95,0.6-1.55c0-0.61-0.23-1.13-0.62-1.51c-0.38-0.39-0.92-0.62-1.52-0.62
				C409.08,51.12,408.17,52.06,408.17,53.28L408.17,53.28z"/>
			<path class="st2" d="M414.61,48.57h0.74v1.03h-0.74V48.57z M414.61,50.59h0.74v5.38h-0.74V50.59z"/>
			<path class="st2" d="M419.21,51.94c0-0.57-0.38-0.89-0.92-0.89c-0.59,0-0.95,0.4-0.93,0.87c0.02,0.51,0.41,0.72,1.06,0.91
				c0.77,0.21,1.63,0.43,1.67,1.58c0.04,0.99-0.76,1.71-1.78,1.71c-0.87,0-1.83-0.55-1.84-1.68h0.73c0.03,0.74,0.58,1.07,1.12,1.07
				c0.62,0,1.05-0.46,1.04-1.01c-0.02-0.61-0.42-0.86-1.35-1.13c-0.77-0.23-1.37-0.54-1.39-1.39c0-0.97,0.77-1.54,1.68-1.54
				c0.75,0,1.59,0.41,1.64,1.5H419.21z"/>
			<path class="st2" d="M426.69,55.97h-0.74v-1.11c-0.42,0.81-1.24,1.26-2.2,1.26c-1.75,0-2.79-1.36-2.79-2.84
				c0-1.58,1.15-2.84,2.79-2.84c1.15,0,1.94,0.67,2.2,1.28v-1.13h0.74V55.97z M421.69,53.29c0.01,0.97,0.68,2.14,2.16,2.14
				c0.95,0,1.65-0.55,1.94-1.31c0.12-0.26,0.18-0.56,0.18-0.85c0.01-0.3-0.05-0.6-0.17-0.86c-0.3-0.74-1.02-1.29-1.97-1.29
				C422.59,51.12,421.69,52.08,421.69,53.29L421.69,53.29z"/>
			<path class="st2" d="M428.13,48.57h0.74v2.02v1.08c0.45-0.76,1.26-1.22,2.19-1.23c1.53,0,2.77,1.15,2.77,2.83
				c0,1.62-1.16,2.85-2.79,2.85c-1.01,0-1.8-0.49-2.2-1.26v1.11h-0.71V48.57z M433.09,53.27c0-1.23-0.93-2.15-2.13-2.15
				c-1.24,0-2.13,0.96-2.13,2.15c0,1.17,0.85,2.16,2.1,2.16C432.36,55.43,433.09,54.32,433.09,53.27L433.09,53.27z"/>
			<path class="st2" d="M434.93,48.57h0.74v1.03h-0.74V48.57z M434.93,50.59h0.74v5.38h-0.74V50.59z"/>
			<path class="st2" d="M437.11,48.57h0.74v7.4h-0.74V48.57z"/>
			<path class="st2" d="M439.28,48.57h0.74v1.03h-0.74V48.57z M439.28,50.59h0.74v5.38h-0.74V50.59z"/>
			<path class="st2" d="M441.88,51.18h-1.06v-0.59h1.06v-2.02h0.73v2.02h1.18v0.59h-1.18v4.79h-0.73V51.18z"/>
			<path class="st2" d="M444.6,48.57h0.74v1.03h-0.74V48.57z M444.6,50.59h0.74v5.38h-0.74V50.59z"/>
			<path class="st2" d="M447.11,53.49c0.04,1.35,1.19,2,2.1,1.99c0.83,0,1.5-0.41,1.85-1.11h0.77c-0.25,0.58-0.63,1.02-1.09,1.31
				c-0.45,0.29-0.98,0.44-1.53,0.44c-1.87,0-2.84-1.49-2.84-2.83c0-1.58,1.22-2.85,2.83-2.85c0.76,0,1.46,0.27,1.97,0.76
				c0.62,0.6,0.92,1.43,0.84,2.29H447.11z M451.28,52.9c-0.05-0.94-0.96-1.86-2.07-1.83c-1.16,0-2.02,0.85-2.09,1.83H451.28z"/>
			<path class="st2" d="M455.48,51.94c0-0.57-0.38-0.89-0.92-0.89c-0.59,0-0.95,0.4-0.93,0.87c0.02,0.51,0.41,0.72,1.06,0.91
				c0.77,0.21,1.63,0.43,1.67,1.58c0.04,0.99-0.76,1.71-1.78,1.71c-0.87,0-1.83-0.55-1.84-1.68h0.73c0.03,0.74,0.58,1.07,1.12,1.07
				c0.62,0,1.05-0.46,1.04-1.01c-0.02-0.61-0.42-0.86-1.35-1.13c-0.77-0.23-1.37-0.54-1.39-1.39c0-0.97,0.77-1.54,1.68-1.54
				c0.75,0,1.59,0.41,1.64,1.5H455.48z"/>
		</g>
		<g class="st1">
			<defs>
				<rect id="SVGID_9_" y="0" width="481.89" height="76.54"/>
			</defs>
			<clipPath id="SVGID_10_">
				<use xlink:href="#SVGID_9_"  style="overflow:visible;"/>
			</clipPath>
			<g class="st11">
				<g>
					<defs>
						<rect id="SVGID_11_" x="-17" y="-13" width="110.54" height="90.54"/>
					</defs>
					<clipPath id="SVGID_12_">
						<use xlink:href="#SVGID_11_"  style="overflow:visible;"/>
					</clipPath>
					<path class="st12" d="M38.07,37.5l-18-32.47c5.74-3.18,11.44-4.65,18-4.65V37.5z"/>
					<path class="st13" d="M38.44,38.95L19.56,4.88l0.33-0.18C25.68,1.49,31.45,0,38.07,0h0.38V38.95z M20.58,5.18l17.11,30.87V0.75
						C31.49,0.81,26.03,2.22,20.58,5.18z"/>
					<path class="st14" d="M38.27,38.27V0.37c20.93,0,37.89,16.97,37.89,37.89c0,20.93-16.97,37.89-37.89,37.89
						c-20.93,0-37.89-16.97-37.89-37.89c0-14.23,7.08-26.24,19.52-33.14L38.27,38.27z"/>
					<path class="st13" d="M38.27,76.54C17.17,76.54,0,59.37,0,38.27C0,23.94,7.19,11.74,19.71,4.8l0.33-0.18l17.85,32.2V0h0.38
						c21.1,0,38.27,17.17,38.27,38.27S59.37,76.54,38.27,76.54z M19.75,5.64c-12.08,6.84-19,18.71-19,32.63
						c0,20.69,16.83,37.52,37.52,37.52s37.52-16.83,37.52-37.52c0-20.56-16.63-37.31-37.14-37.52v38.97L19.75,5.64z"/>
				</g>
			</g>
			<path class="st15" d="M38.06,37.45L21.46,7.5c5.29-2.93,10.55-4.29,16.6-4.29V37.45z"/>
			<path class="st16" d="M38.43,38.9L20.95,7.36l0.33-0.18c5.34-2.96,10.67-4.34,16.78-4.34h0.38V38.9z M21.97,7.65L37.68,36V3.59
				C31.99,3.64,26.97,4.94,21.97,7.65z"/>
			<path class="st17" d="M38.27,38.27V3.21c19.36,0,35.06,15.7,35.06,35.06s-15.7,35.06-35.06,35.06S3.21,57.63,3.21,38.27
				c0-13.17,6.55-24.28,18.06-30.66L38.27,38.27z"/>
			<path class="st16" d="M38.27,73.7c-19.54,0-35.43-15.9-35.43-35.43C2.83,25,9.49,13.71,21.09,7.28l0.33-0.18l16.48,29.72V2.83
				h0.38c19.54,0,35.43,15.9,35.43,35.43C73.7,57.81,57.81,73.7,38.27,73.7z M21.13,8.12C9.97,14.44,3.58,25.41,3.58,38.27
				c0,19.12,15.56,34.68,34.68,34.68s34.68-15.56,34.68-34.68c0-19-15.36-34.48-34.31-34.68v36.13L21.13,8.12z"/>
			<g class="st18">
				<g>
					<defs>
						<rect id="SVGID_13_" x="3.08" y="5.08" width="70.38" height="60.38"/>
					</defs>
					<clipPath id="SVGID_14_">
						<use xlink:href="#SVGID_13_"  style="overflow:visible;"/>
					</clipPath>
					<path class="st19" d="M38.27,64.13c14.28,0,25.86-11.58,25.86-25.86S52.55,12.41,38.27,12.41S12.41,23.99,12.41,38.27
						S23.99,64.13,38.27,64.13"/>
				</g>
			</g>
			<path class="st16" d="M38.27,64.46c-14.44,0-26.19-11.75-26.19-26.19c0-14.44,11.75-26.19,26.19-26.19s26.19,11.75,26.19,26.19
				C64.46,52.71,52.71,64.46,38.27,64.46z M38.27,12.74c-14.08,0-25.53,11.45-25.53,25.53S24.19,63.8,38.27,63.8
				S63.8,52.34,63.8,38.27S52.34,12.74,38.27,12.74z"/>
			<path class="st16" d="M38.27,61.65c12.92,0,23.39-10.47,23.39-23.39S51.18,14.88,38.27,14.88S14.88,25.35,14.88,38.27
				S25.35,61.65,38.27,61.65"/>
		</g>
		<g class="st1">
			<path class="st10" d="M24.99,44.19l2.29-3.28c0.18-0.26,0.37-0.51,0.54-0.77c-0.21,0.13-0.72,0.3-1.22,0.3
				c-1.89,0-3.79-1.47-3.79-4.02c0-2.45,1.89-4.31,4.29-4.31c1.42,0,2.62,0.56,3.36,1.47c0.7,0.82,0.96,1.92,0.96,2.8
				c0,1.28-0.5,2.26-1.04,3.07l-3.23,4.72H24.99z M29.56,36.23c0-1.41-1.04-2.45-2.42-2.45c-1.39,0-2.45,1.09-2.45,2.48
				c0,1.5,1.14,2.5,2.4,2.5c1.17,0,2.46-0.85,2.46-2.51V36.23z"/>
			<path class="st10" d="M32.39,42.7c1.23-1.15,2.45-2.31,3.67-3.44c1.14-1.04,2.18-1.94,2.23-3.35c0-1.34-0.88-2.13-2.05-2.13
				c-1.26,0-1.98,1.06-2.02,2.56h-1.81c0.03-1.04,0.27-2,0.93-2.82c0.85-1.15,2.23-1.41,3.06-1.41c2.35,0,3.78,1.67,3.76,3.67
				c-0.03,1.31-0.56,2.27-1.86,3.54c-1.1,1.09-2.21,2.18-3.33,3.27h5.23v1.6h-7.81V42.7z"/>
			<path class="st10" d="M41.13,34.87c0-1.54,1.2-2.75,2.75-2.75s2.75,1.22,2.75,2.77s-1.2,2.75-2.75,2.75
				c-1.54,0-2.75-1.2-2.75-2.75V34.87z M42.31,34.9c0,0.88,0.66,1.58,1.57,1.58c0.9,0,1.58-0.69,1.58-1.62c0-0.91-0.67-1.6-1.58-1.6
				c-0.91,0-1.57,0.69-1.57,1.62V34.9z M44.62,44.19h-1.25l5.99-11.84h1.25L44.62,44.19z M47.39,41.63c0-1.54,1.2-2.75,2.77-2.75
				c1.54,0,2.75,1.22,2.75,2.77c0,1.57-1.23,2.77-2.75,2.77c-1.55,0-2.77-1.18-2.77-2.77V41.63z M48.56,41.66
				c0,0.9,0.67,1.6,1.6,1.6c0.9,0,1.57-0.69,1.57-1.62s-0.67-1.6-1.57-1.6c-0.93,0-1.6,0.69-1.6,1.6V41.66z"/>
		</g>
		<g class="st1">
			<defs>
				<rect id="SVGID_15_" y="0" width="481.89" height="76.54"/>
			</defs>
			<clipPath id="SVGID_16_">
				<use xlink:href="#SVGID_15_"  style="overflow:visible;"/>
			</clipPath>
			<g class="st20">
				<g>
					<defs>
						<rect id="SVGID_17_" x="145.71" y="-13" width="110.53" height="90.54"/>
					</defs>
					<clipPath id="SVGID_18_">
						<use xlink:href="#SVGID_17_"  style="overflow:visible;"/>
					</clipPath>
					<path class="st21" d="M200.8,38.19l-27.13,26.27c-14.47-15.02-14.05-38.97,0.93-53.47c7.19-6.96,16.2-10.61,26.2-10.61V38.19z"
						/>
					<path class="st22" d="M173.66,65l-0.26-0.27c-14.59-15.15-14.17-39.38,0.94-54C181.58,3.71,190.73,0,200.8,0h0.38v38.35
						L173.66,65z M200.43,0.75c-9.72,0.09-18.56,3.72-25.57,10.51c-14.72,14.25-15.22,37.8-1.18,52.67l26.75-25.9V0.75z"/>
					<path class="st23" d="M201.05,38.27V0.37c20.89,0,37.82,16.97,37.82,37.89s-16.93,37.89-37.82,37.89
						c-10.86,0-19.66-3.74-27.21-11.57L201.05,38.27z"/>
					<path class="st22" d="M201.05,76.54c-10.91,0-19.9-3.82-27.48-11.69l-0.26-0.27l27.36-26.47V0h0.38
						c21.06,0,38.2,17.17,38.2,38.27S222.11,76.54,201.05,76.54z M174.37,64.6c7.37,7.53,16.1,11.19,26.68,11.19
						c20.65,0,37.45-16.83,37.45-37.52c0-20.56-16.6-37.31-37.07-37.52v37.68L174.37,64.6z"/>
				</g>
			</g>
			<path class="st24" d="M200.79,38.19l-25.08,24.3c-13.38-13.9-12.99-36.04,0.86-49.46c6.65-6.44,14.98-9.82,24.22-9.82V38.19z"/>
			<path class="st25" d="M175.7,63.02l-0.26-0.27c-13.5-14.02-13.11-36.45,0.87-49.99c6.7-6.49,15.17-9.92,24.48-9.92h0.38v35.51
				L175.7,63.02z M200.41,3.59c-8.97,0.09-17.12,3.44-23.59,9.71c-13.59,13.17-14.06,34.91-1.11,48.66l24.7-23.92V3.59z"/>
			<path class="st26" d="M201.05,38.27V3.21c19.32,0,34.98,15.7,34.98,35.06s-15.66,35.06-34.98,35.06
				c-10.05,0-18.19-3.46-25.16-10.7L201.05,38.27z"/>
			<path class="st25" d="M201.05,73.7c-10.1,0-18.42-3.54-25.43-10.82l-0.26-0.27l25.32-24.5V2.83h0.38
				c19.5,0,35.36,15.9,35.36,35.43C236.41,57.81,220.55,73.7,201.05,73.7z M176.42,62.63c6.81,6.95,14.87,10.32,24.63,10.32
				c19.08,0,34.61-15.56,34.61-34.68c0-19-15.32-34.48-34.23-34.68v34.84L176.42,62.63z"/>
			<g class="st27">
				<g>
					<defs>
						<rect id="SVGID_19_" x="165.79" y="5.08" width="70.38" height="60.38"/>
					</defs>
					<clipPath id="SVGID_20_">
						<use xlink:href="#SVGID_19_"  style="overflow:visible;"/>
					</clipPath>
					<path class="st28" d="M200.98,64.13c14.28,0,25.86-11.58,25.86-25.86s-11.58-25.86-25.86-25.86
						c-14.28,0-25.86,11.58-25.86,25.86S186.7,64.13,200.98,64.13"/>
				</g>
			</g>
			<path class="st25" d="M200.98,64.46c-14.44,0-26.19-11.75-26.19-26.19c0-14.44,11.75-26.19,26.19-26.19
				c14.44,0,26.19,11.75,26.19,26.19C227.17,52.71,215.42,64.46,200.98,64.46z M200.98,12.74c-14.08,0-25.53,11.45-25.53,25.53
				S186.9,63.8,200.98,63.8c14.08,0,25.53-11.45,25.53-25.53S215.05,12.74,200.98,12.74z"/>
			<path class="st25" d="M200.98,61.65c12.92,0,23.39-10.47,23.39-23.39s-10.47-23.39-23.39-23.39s-23.39,10.47-23.39,23.39
				S188.06,61.65,200.98,61.65"/>
		</g>
		<g class="st1">
			<path class="st10" d="M191.97,32.34l-2.29,3.28c-0.18,0.24-0.35,0.5-0.54,0.77c0.21-0.13,0.72-0.3,1.22-0.3
				c1.87,0,3.79,1.47,3.79,4.02c0,2.45-1.89,4.31-4.29,4.31c-1.44,0-2.62-0.56-3.36-1.47c-0.7-0.82-0.98-1.92-0.98-2.8
				c0-1.28,0.51-2.26,1.06-3.07l3.23-4.72H191.97z M187.38,40.3c0,1.41,1.06,2.45,2.42,2.45c1.41,0,2.47-1.1,2.47-2.48
				c0-1.52-1.15-2.51-2.43-2.51c-1.14,0-2.45,0.85-2.45,2.53V40.3z"/>
			<path class="st10" d="M195.39,35.37c0.08-2.38,2.02-3.25,3.49-3.25c1.91,0,3.28,1.3,3.28,3.03c0,1.34-0.85,2.1-1.6,2.5
				c2.13,0.74,2.32,2.45,2.32,3.06c0,2.13-1.78,3.71-4.05,3.71c-1.23,0-2.58-0.51-3.31-1.52c-0.5-0.7-0.69-1.54-0.7-2.19h1.91
				c0.06,1.15,0.93,2.03,2.16,2.05c1.34,0,2.11-0.96,2.11-2.15c0-1.22-1.06-2.1-2.38-2.1h-0.88v-1.42h0.56c1.23,0,2-0.82,2-1.68
				c0-0.9-0.56-1.62-1.47-1.62c-1.12,0-1.52,0.88-1.57,1.58H195.39z"/>
			<path class="st10" d="M203.84,34.87c0-1.54,1.2-2.75,2.75-2.75s2.75,1.22,2.75,2.77s-1.2,2.75-2.75,2.75
				c-1.54,0-2.75-1.2-2.75-2.75V34.87z M205.02,34.9c0,0.88,0.66,1.58,1.57,1.58c0.9,0,1.58-0.69,1.58-1.62
				c0-0.91-0.67-1.6-1.58-1.6s-1.57,0.69-1.57,1.62V34.9z M207.33,44.19h-1.25l5.99-11.84h1.25L207.33,44.19z M210.1,41.63
				c0-1.54,1.2-2.75,2.77-2.75c1.54,0,2.75,1.22,2.75,2.77c0,1.57-1.23,2.77-2.75,2.77c-1.55,0-2.77-1.18-2.77-2.77V41.63z
				 M211.27,41.66c0,0.9,0.67,1.6,1.6,1.6c0.9,0,1.57-0.69,1.57-1.62s-0.67-1.6-1.57-1.6c-0.93,0-1.6,0.69-1.6,1.6V41.66z"/>
		</g>
	</g>
</g>
</svg>
