<?xml version="1.0" encoding="utf-8"?>
<!-- Generator: Adobe Illustrator 23.0.0, SVG Export Plug-In . SVG Version: 6.00 Build 0)  -->
<svg version="1.1" id="Layer_1" xmlns="http://www.w3.org/2000/svg" xmlns:xlink="http://www.w3.org/1999/xlink" x="0px" y="0px"
	 viewBox="0 0 356.62 101.2" style="enable-background:new 0 0 356.62 101.2;" xml:space="preserve">
<style type="text/css">
	.st0{fill:#FFFFFF;}
	.st1{opacity:0.25;clip-path:url(#SVGID_2_);}
	.st2{clip-path:url(#SVGID_4_);fill:#64BDE1;}
	.st3{clip-path:url(#SVGID_4_);fill:none;stroke:#FFFFFF;stroke-width:0.693;}
	.st4{clip-path:url(#SVGID_2_);fill:#64BDE1;}
	.st5{clip-path:url(#SVGID_2_);fill:none;stroke:#FFFFFF;stroke-width:0.693;}
	.st6{opacity:0.5;clip-path:url(#SVGID_2_);}
	.st7{clip-path:url(#SVGID_6_);fill:#FFFFFF;}
	.st8{clip-path:url(#SVGID_2_);fill:#FFFFFF;}
	.st9{fill:#003767;}
	.st10{fill:#231F20;}
	.st11{fill:#3AA7CC;}
</style>
<g>
	<g>
		<rect y="25.81" class="st0" width="356.62" height="49.57"/>
		<g>
			<defs>
				<rect id="SVGID_1_" width="356.62" height="101.2"/>
			</defs>
			<clipPath id="SVGID_2_">
				<use xlink:href="#SVGID_1_"  style="overflow:visible;"/>
			</clipPath>
			<g class="st1">
				<g>
					<defs>
						<rect id="SVGID_3_" x="116.63" y="-7" width="119.2" height="109.19"/>
					</defs>
					<clipPath id="SVGID_4_">
						<use xlink:href="#SVGID_3_"  style="overflow:visible;"/>
					</clipPath>
					<path class="st2" d="M176.22,100.85c27.75,0,50.25-22.5,50.25-50.25s-22.5-50.25-50.25-50.25s-50.25,22.5-50.25,50.25
						S148.47,100.85,176.22,100.85"/>
					<path class="st3" d="M176.22,100.85c27.75,0,50.25-22.5,50.25-50.25s-22.5-50.25-50.25-50.25s-50.25,22.5-50.25,50.25
						S148.47,100.85,176.22,100.85z"/>
				</g>
			</g>
			<path class="st4" d="M176.22,97.88c26.11,0,47.28-21.17,47.28-47.28c0-26.11-21.17-47.27-47.28-47.27s-47.28,21.16-47.28,47.27
				C128.95,76.71,150.11,97.88,176.22,97.88"/>
			<path class="st5" d="M176.22,97.88c26.11,0,47.28-21.17,47.28-47.28c0-26.11-21.17-47.27-47.28-47.27s-47.28,21.16-47.28,47.27
				C128.95,76.71,150.11,97.88,176.22,97.88z"/>
			<g class="st6">
				<g>
					<defs>
						<rect id="SVGID_5_" x="128.53" y="4.91" width="95.39" height="85.39"/>
					</defs>
					<clipPath id="SVGID_6_">
						<use xlink:href="#SVGID_5_"  style="overflow:visible;"/>
					</clipPath>
					<path class="st7" d="M176.22,88.94c21.18,0,38.35-17.17,38.35-38.35s-17.17-38.35-38.35-38.35s-38.35,17.17-38.35,38.35
						S155.05,88.94,176.22,88.94"/>
				</g>
			</g>
			<path class="st5" d="M176.22,88.94c21.18,0,38.35-17.17,38.35-38.35s-17.17-38.35-38.35-38.35s-38.35,17.17-38.35,38.35
				S155.05,88.94,176.22,88.94z"/>
			<path class="st8" d="M176.22,86.32c19.73,0,35.72-15.99,35.72-35.72c0-19.73-15.99-35.72-35.72-35.72s-35.72,15.99-35.72,35.72
				C140.51,70.32,156.5,86.32,176.22,86.32"/>
		</g>
		<g>
			<path class="st9" d="M164.33,26.89l-1.92,2.79c-0.14,0.22-0.3,0.44-0.46,0.68c0.23-0.16,0.7-0.34,1.22-0.34
				c1.59,0,3.09,1.24,3.09,3.25c0,1.88-1.44,3.41-3.35,3.41c-1.14,0-2.04-0.44-2.6-1.14c-0.56-0.64-0.78-1.5-0.78-2.18
				c0-1.08,0.42-1.83,0.84-2.47l2.73-3.99H164.33z M160.6,33.41c0,1.27,0.91,2.31,2.27,2.31c1.35,0,2.31-1.07,2.31-2.37
				c0-1.53-1.14-2.39-2.26-2.39c-1.01,0-2.33,0.74-2.33,2.43V33.41z"/>
			<path class="st9" d="M170.87,30.05c0-2.78,2.31-3.33,3.25-3.33c1.55,0,3.26,1.07,3.26,3.25v3.46c0,2.54-2.16,3.25-3.22,3.25
				c-1.22,0-3.29-0.78-3.29-3.25V30.05z M171.95,33.45c0,1.35,0.95,2.27,2.18,2.27c1,0,2.18-0.78,2.18-2.27v-3.51
				c0-0.95-0.57-2.28-2.21-2.28c-1.26,0-2.16,0.94-2.16,2.33V33.45z"/>
			<path class="st9" d="M184.41,26.89v0.86l-3.99,8.76h-1.16l4.03-8.7h-4.37v-0.92H184.41z"/>
			<path class="st9" d="M186.47,29.1c0-1.22,1.04-2.38,2.64-2.38c1.59,0,2.63,1.12,2.63,2.39c0,0.96-0.61,1.69-1.25,2
				c1.07,0.39,1.72,1.39,1.74,2.56c-0.03,1.7-1.37,3-3.12,3c-1.77,0-3.09-1.3-3.12-3c0.01-1.16,0.65-2.16,1.73-2.56
				c-0.64-0.31-1.25-1.04-1.25-2V29.1z M187.06,33.69c0,1.11,0.88,2.04,2.05,2.04c1.16,0,2.04-0.94,2.04-2.05s-0.87-2.07-2.04-2.07
				c-1.18,0-2.05,0.95-2.05,2.07V33.69z M187.53,29.2c0,0.87,0.7,1.56,1.59,1.56c0.87,0,1.57-0.69,1.57-1.57
				c0-0.9-0.7-1.59-1.57-1.59c-0.88,0-1.59,0.69-1.59,1.59V29.2z"/>
		</g>
		<g>
			<path class="st10" d="M148.75,46.5c0.04,1.42,1.25,2.1,2.2,2.09c0.87,0,1.58-0.43,1.94-1.17h0.81c-0.26,0.61-0.66,1.07-1.14,1.38
				c-0.47,0.3-1.03,0.46-1.61,0.46c-1.96,0-2.98-1.56-2.98-2.97c0-1.66,1.28-2.99,2.97-2.99c0.8,0,1.53,0.28,2.07,0.8
				c0.65,0.63,0.97,1.5,0.88,2.4H148.75z M153.13,45.89c-0.05-0.99-1.01-1.95-2.17-1.92c-1.22,0-2.12,0.89-2.19,1.92H153.13z"/>
			<path class="st10" d="M155,43.46h0.74v0.89c0.36-0.71,1.14-1.05,1.78-1.05c0.59,0,1.14,0.19,1.54,0.64
				c0.15,0.15,0.34,0.53,0.37,0.59c0.08-0.16,0.2-0.38,0.41-0.6c0.37-0.39,0.92-0.63,1.55-0.63c0.58,0,1.13,0.17,1.52,0.57
				c0.49,0.49,0.64,1.1,0.64,2.1v3.14h-0.78V46c0-0.6-0.09-1.13-0.42-1.5c-0.23-0.29-0.59-0.47-1.12-0.47
				c-0.49,0-0.98,0.2-1.24,0.59c-0.28,0.4-0.34,0.71-0.34,1.35v3.14h-0.78v-3.14c0.02-0.63-0.07-1-0.29-1.34
				c-0.26-0.37-0.66-0.59-1.24-0.6c-0.52-0.02-0.97,0.24-1.2,0.58c-0.24,0.33-0.38,0.76-0.38,1.35v3.15H155V43.46z"/>
			<path class="st10" d="M165.04,43.46h0.73v1.18c0.46-0.82,1.28-1.33,2.36-1.33c1.9,0,2.9,1.54,2.9,3c0,1.57-1.14,2.96-2.9,2.96
				c-1.25,0-2.06-0.72-2.32-1.31v1.16v2.14h-0.78V43.46z M170.26,46.27c0-1.06-0.75-2.26-2.27-2.26c-0.63,0-1.19,0.25-1.6,0.66
				c-0.39,0.41-0.63,0.98-0.63,1.62c0,0.63,0.24,1.2,0.65,1.61c0.4,0.4,0.97,0.64,1.6,0.64c1.27,0,2.25-0.96,2.25-2.26V46.27z"/>
			<path class="st10" d="M172.22,41.34H173v7.77h-0.78V41.34z"/>
			<path class="st10" d="M174.15,46.27c0-1.57,1.18-2.97,2.99-2.97c1.83,0,3,1.4,3,2.98s-1.18,2.97-3,2.97
				c-1.82,0-2.99-1.39-2.99-2.97V46.27z M174.92,46.29c0,1.28,0.98,2.25,2.23,2.25c1.26,0,2.23-0.96,2.23-2.26
				c0-1.29-0.97-2.26-2.23-2.26c-1.25,0-2.23,0.97-2.23,2.26V46.29z"/>
			<path class="st10" d="M182.59,49l-2.18-5.54h0.83l1.77,4.57l1.83-4.57h0.85l-3.22,7.79h-0.84L182.59,49z"/>
			<path class="st10" d="M186.56,46.5c0.04,1.42,1.25,2.1,2.2,2.09c0.87,0,1.58-0.43,1.94-1.17h0.81c-0.26,0.61-0.66,1.07-1.14,1.38
				c-0.47,0.3-1.03,0.46-1.61,0.46c-1.96,0-2.98-1.56-2.98-2.97c0-1.66,1.28-2.99,2.97-2.99c0.8,0,1.53,0.28,2.07,0.8
				c0.65,0.63,0.97,1.5,0.88,2.4H186.56z M190.94,45.89c-0.05-0.99-1.01-1.95-2.17-1.92c-1.22,0-2.12,0.89-2.19,1.92H190.94z"/>
			<path class="st10" d="M193.16,46.5c0.04,1.42,1.25,2.1,2.2,2.09c0.87,0,1.58-0.43,1.94-1.17h0.81c-0.26,0.61-0.66,1.07-1.14,1.38
				c-0.47,0.3-1.03,0.46-1.61,0.46c-1.96,0-2.98-1.56-2.98-2.97c0-1.66,1.28-2.99,2.97-2.99c0.8,0,1.53,0.28,2.07,0.8
				c0.65,0.63,0.97,1.5,0.88,2.4H193.16z M197.53,45.89c-0.05-0.99-1.01-1.95-2.17-1.92c-1.22,0-2.12,0.89-2.19,1.92H197.53z"/>
			<path class="st10" d="M201.95,44.88c0-0.6-0.4-0.93-0.96-0.93c-0.62,0-1,0.42-0.98,0.91c0.02,0.54,0.43,0.76,1.11,0.96
				c0.81,0.22,1.71,0.45,1.75,1.66c0.04,1.04-0.8,1.79-1.87,1.79c-0.91,0-1.92-0.58-1.93-1.76h0.77c0.03,0.78,0.61,1.12,1.18,1.12
				c0.65,0,1.1-0.48,1.09-1.06c-0.02-0.64-0.44-0.9-1.42-1.19c-0.81-0.24-1.44-0.57-1.46-1.46c0-1.02,0.81-1.62,1.76-1.62
				c0.79,0,1.67,0.43,1.72,1.58H201.95z"/>
		</g>
		<g>
			<path class="st10" d="M152.61,56.68h-1.11v-0.62h1.11v-2.12h0.77v2.12h1.24v0.62h-1.24v5.03h-0.77V56.68z"/>
			<path class="st10" d="M155.46,56.06h0.74v0.92c0.41-0.84,1.14-1.06,1.8-1.08v0.77h-0.07c-1.09,0-1.7,0.68-1.7,1.96v3.08h-0.77
				V56.06z"/>
			<path class="st10" d="M164.08,61.71h-0.78v-1.17c-0.44,0.85-1.3,1.32-2.31,1.32c-1.84,0-2.93-1.43-2.93-2.98
				c0-1.66,1.21-2.98,2.93-2.98c1.21,0,2.04,0.7,2.31,1.34v-1.19h0.78V61.71z M158.83,58.9c0.01,1.02,0.71,2.25,2.27,2.25
				c1,0,1.73-0.58,2.04-1.38c0.12-0.27,0.19-0.59,0.19-0.89c0.01-0.32-0.05-0.63-0.18-0.9c-0.31-0.78-1.07-1.35-2.07-1.35
				c-1.3,0-2.25,1.01-2.25,2.27V58.9z"/>
			<path class="st10" d="M165.6,53.94h0.78v1.08h-0.78V53.94z M165.6,56.06h0.78v5.65h-0.78V56.06z"/>
			<path class="st10" d="M167.88,56.06h0.73c0,0.32,0,0.63-0.01,1.01c0.33-0.73,1.09-1.19,2.1-1.17c1.75,0.02,2.37,1.22,2.37,2.59
				v3.21h-0.77v-3.05c0-1.22-0.54-2.05-1.82-2.03c-1.17,0.01-1.84,0.71-1.84,1.89v3.19h-0.78V56.06z"/>
			<path class="st10" d="M174.93,59.11c0.04,1.42,1.25,2.1,2.2,2.09c0.87,0,1.58-0.43,1.94-1.17h0.81
				c-0.26,0.61-0.66,1.07-1.14,1.38c-0.47,0.3-1.03,0.46-1.61,0.46c-1.96,0-2.98-1.56-2.98-2.97c0-1.66,1.28-2.99,2.97-2.99
				c0.8,0,1.53,0.28,2.07,0.8c0.65,0.63,0.97,1.5,0.88,2.4H174.93z M179.31,58.49c-0.05-0.99-1.01-1.95-2.17-1.92
				c-1.22,0-2.12,0.89-2.19,1.92H179.31z"/>
			<path class="st10" d="M186.83,61.71h-0.75v-1.17c-0.4,0.75-1.15,1.32-2.33,1.32c-1.81,0-2.92-1.41-2.92-2.99
				c0-1.68,1.22-2.97,2.91-2.97c1.24,0,2.06,0.71,2.31,1.3v-1.2v-2.07h0.78V61.71z M181.6,58.88c0.01,1.13,0.8,2.26,2.27,2.26
				c0.63,0,1.21-0.25,1.61-0.66c0.41-0.42,0.65-1,0.63-1.63c0-0.64-0.24-1.19-0.65-1.58c-0.4-0.41-0.97-0.65-1.6-0.65
				C182.55,56.62,181.6,57.6,181.6,58.88L181.6,58.88z"/>
			<path class="st10" d="M191.38,53.94h0.78v1.08h-0.78V53.94z M191.38,56.06h0.78v5.65h-0.78V56.06z"/>
			<path class="st10" d="M193.67,56.06h0.74c0,0.32,0,0.63-0.01,1.01c0.33-0.73,1.09-1.19,2.1-1.17c1.75,0.02,2.37,1.22,2.37,2.59
				v3.21h-0.77v-3.05c0-1.22-0.55-2.05-1.82-2.03c-1.17,0.01-1.84,0.71-1.84,1.89v3.19h-0.78V56.06z"/>
		</g>
		<g>
			<path class="st10" d="M164.49,73.61c0.86-0.83,1.71-1.67,2.56-2.5c0.71-0.67,1.47-1.32,1.51-2.28c0-1.02-0.69-1.66-1.6-1.66
				c-0.9,0-1.55,0.7-1.58,1.89h-0.83c0.02-0.76,0.23-1.4,0.67-1.87c0.51-0.62,1.28-0.79,1.83-0.79c1.44,0,2.39,1.05,2.37,2.38
				c-0.03,0.84-0.42,1.43-1.19,2.22c-0.85,0.85-1.7,1.7-2.56,2.55h3.77v0.75h-4.96V73.61z"/>
			<path class="st10" d="M170.35,69.09c0-2.25,1.87-2.69,2.62-2.69c1.25,0,2.63,0.86,2.63,2.62v2.79c0,2.05-1.74,2.62-2.6,2.62
				c-0.99,0-2.66-0.63-2.66-2.62V69.09z M171.22,71.84c0,1.09,0.77,1.84,1.76,1.84c0.81,0,1.76-0.63,1.76-1.84v-2.83
				c0-0.77-0.46-1.84-1.78-1.84c-1.02,0-1.74,0.76-1.74,1.88V71.84z"/>
			<path class="st10" d="M178.72,67.28h-1.56v-0.75h2.44v7.77h-0.87V67.28z"/>
			<path class="st10" d="M182.95,68.32c0-0.99,0.84-1.92,2.13-1.92c1.28,0,2.12,0.9,2.12,1.93c0,0.78-0.49,1.37-1.01,1.62
				c0.86,0.31,1.39,1.12,1.41,2.07c-0.02,1.38-1.1,2.43-2.52,2.43c-1.43,0-2.5-1.05-2.52-2.43c0.01-0.93,0.52-1.74,1.4-2.07
				c-0.51-0.25-1.01-0.84-1.01-1.62V68.32z M183.42,72.03c0,0.89,0.71,1.65,1.66,1.65c0.93,0,1.65-0.76,1.65-1.66
				c0-0.9-0.7-1.67-1.65-1.67c-0.96,0-1.66,0.77-1.66,1.67V72.03z M183.8,68.41c0,0.7,0.57,1.26,1.28,1.26
				c0.7,0,1.27-0.56,1.27-1.27c0-0.72-0.57-1.28-1.27-1.28C184.37,67.12,183.8,67.67,183.8,68.41L183.8,68.41z"/>
		</g>
		<g>
			<path class="st9" d="M50.65,41.57c0-1.54,1.28-3.06,3.51-3.06c2.21,0,3.49,1.49,3.49,3.07c0,1.23-0.75,2.03-1.41,2.4
				c1.25,0.5,1.9,1.68,1.9,3.03c-0.02,2.16-1.7,3.79-3.99,3.79c-2.3,0-3.99-1.63-4-3.79c0.02-1.33,0.66-2.51,1.92-3.03
				c-0.66-0.37-1.42-1.17-1.42-2.4V41.57z M52.05,47.01c0,1.1,0.88,2.13,2.11,2.13c1.23,0,2.11-1.02,2.11-2.15
				c0-1.14-0.88-2.14-2.11-2.14c-1.25,0-2.11,1.01-2.11,2.14V47.01z M52.49,41.75c0,0.93,0.75,1.63,1.66,1.63
				c0.91,0,1.67-0.7,1.67-1.65s-0.75-1.67-1.67-1.67c-0.91,0-1.66,0.72-1.66,1.67V41.75z"/>
			<path class="st9" d="M61.17,50.58l2.29-3.28c0.18-0.26,0.37-0.51,0.54-0.77c-0.21,0.13-0.72,0.3-1.22,0.3
				c-1.89,0-3.79-1.47-3.79-4.02c0-2.45,1.89-4.31,4.29-4.31c1.42,0,2.62,0.56,3.36,1.47c0.7,0.82,0.96,1.92,0.96,2.8
				c0,1.28-0.5,2.26-1.04,3.07l-3.23,4.72H61.17z M65.74,42.63c0-1.41-1.04-2.45-2.42-2.45c-1.39,0-2.45,1.09-2.45,2.48
				c0,1.5,1.14,2.5,2.4,2.5c1.17,0,2.46-0.85,2.46-2.51V42.63z"/>
			<path class="st9" d="M68.19,41.27c0-1.54,1.2-2.75,2.75-2.75s2.75,1.22,2.75,2.77s-1.2,2.75-2.75,2.75
				c-1.54,0-2.75-1.2-2.75-2.75V41.27z M69.37,41.3c0,0.88,0.66,1.58,1.57,1.58c0.9,0,1.58-0.69,1.58-1.62c0-0.91-0.67-1.6-1.58-1.6
				c-0.91,0-1.57,0.69-1.57,1.62V41.3z M71.68,50.58h-1.25l5.99-11.84h1.25L71.68,50.58z M74.45,48.02c0-1.54,1.2-2.75,2.77-2.75
				c1.54,0,2.75,1.22,2.75,2.77c0,1.57-1.23,2.77-2.75,2.77c-1.55,0-2.77-1.18-2.77-2.77V48.02z M75.62,48.05
				c0,0.9,0.67,1.6,1.6,1.6c0.9,0,1.57-0.69,1.57-1.62s-0.67-1.6-1.57-1.6c-0.93,0-1.6,0.69-1.6,1.6V48.05z"/>
		</g>
		<g>
			<path class="st9" d="M24.1,57.19h0.74v2.02v1.08c0.45-0.76,1.26-1.22,2.19-1.23c1.53,0,2.77,1.15,2.77,2.83
				c0,1.62-1.16,2.85-2.79,2.85c-1.01,0-1.8-0.49-2.2-1.26v1.11H24.1V57.19z M29.06,61.88c0-1.23-0.93-2.15-2.13-2.15
				c-1.24,0-2.13,0.96-2.13,2.15c0,1.17,0.85,2.16,2.1,2.16C28.33,64.04,29.06,62.93,29.06,61.88L29.06,61.88z"/>
			<path class="st9" d="M30.9,57.19h0.74v7.4H30.9V57.19z"/>
			<path class="st9" d="M38.47,64.58h-0.74v-1.11c-0.42,0.81-1.24,1.26-2.2,1.26c-1.75,0-2.79-1.36-2.79-2.84
				c0-1.58,1.15-2.84,2.79-2.84c1.15,0,1.94,0.67,2.2,1.28V59.2h0.74V64.58z M33.47,61.9c0.01,0.97,0.68,2.14,2.16,2.14
				c0.95,0,1.65-0.55,1.94-1.31c0.12-0.26,0.18-0.56,0.18-0.85c0.01-0.3-0.05-0.6-0.17-0.86c-0.3-0.74-1.02-1.29-1.97-1.29
				C34.37,59.73,33.47,60.69,33.47,61.9L33.47,61.9z"/>
			<path class="st9" d="M45.15,62.76c-0.35,1.14-1.4,1.97-2.69,1.97c-1.82,0-2.89-1.4-2.89-2.84c0-1.59,1.21-2.84,2.84-2.84
				c1.21,0,2.37,0.72,2.74,2.01h-0.76c-0.34-0.91-1.19-1.33-1.95-1.33c-0.63,0-1.07,0.19-1.52,0.61c-0.36,0.35-0.61,0.93-0.61,1.55
				c0,1.27,0.96,2.15,2.12,2.15c1.03-0.01,1.72-0.63,1.95-1.28H45.15z"/>
			<path class="st9" d="M46.19,57.19h0.74v4.23l2.42-2.21h0.91l-2.59,2.36l2.71,3.02h-0.87l-2.58-2.86v2.86h-0.74V57.19z"/>
			<path class="st9" d="M54.46,62.1c0.04,1.35,1.19,2,2.1,1.99c0.83,0,1.5-0.41,1.85-1.11h0.77c-0.25,0.58-0.63,1.02-1.09,1.31
				c-0.45,0.29-0.98,0.44-1.53,0.44c-1.87,0-2.84-1.49-2.84-2.83c0-1.58,1.22-2.85,2.83-2.85c0.76,0,1.46,0.27,1.97,0.76
				c0.62,0.6,0.92,1.43,0.84,2.29H54.46z M58.63,61.51c-0.05-0.94-0.96-1.86-2.07-1.83c-1.16,0-2.02,0.85-2.09,1.83H58.63z"/>
			<path class="st9" d="M60.41,59.2h0.7v0.85c0.34-0.68,1.09-1,1.7-1c0.56,0,1.09,0.18,1.47,0.61c0.14,0.14,0.32,0.5,0.35,0.56
				c0.08-0.15,0.19-0.36,0.39-0.57c0.35-0.37,0.88-0.6,1.48-0.6c0.55,0,1.08,0.16,1.45,0.54c0.47,0.47,0.61,1.05,0.61,2v2.99h-0.74
				v-2.96c0-0.57-0.09-1.08-0.4-1.43c-0.22-0.28-0.56-0.45-1.07-0.45c-0.47,0-0.93,0.19-1.18,0.56c-0.27,0.38-0.32,0.68-0.32,1.29
				v2.99h-0.74v-2.99c0.02-0.6-0.07-0.95-0.28-1.28c-0.25-0.35-0.63-0.56-1.18-0.57c-0.5-0.02-0.92,0.23-1.14,0.55
				c-0.23,0.31-0.36,0.72-0.36,1.29v3h-0.74V59.2z"/>
			<path class="st9" d="M69.97,59.2h0.7v1.12c0.44-0.78,1.22-1.27,2.25-1.27c1.81,0,2.76,1.47,2.76,2.86c0,1.5-1.09,2.82-2.76,2.82
				c-1.19,0-1.96-0.69-2.21-1.25v1.1v2.04h-0.74V59.2z M74.94,61.88c0-1.01-0.71-2.15-2.16-2.15c-0.6,0-1.13,0.24-1.52,0.63
				c-0.37,0.39-0.6,0.93-0.6,1.54c0,0.6,0.23,1.14,0.62,1.53c0.38,0.38,0.92,0.61,1.52,0.61C74.01,64.04,74.94,63.12,74.94,61.88
				L74.94,61.88z"/>
			<path class="st9" d="M76.81,57.19h0.74v7.4h-0.74V57.19z"/>
			<path class="st9" d="M78.65,61.88c0-1.5,1.12-2.83,2.85-2.83c1.74,0,2.86,1.33,2.86,2.84s-1.12,2.83-2.86,2.83
				C79.77,64.72,78.65,63.4,78.65,61.88L78.65,61.88z M79.38,61.9c0,1.22,0.93,2.14,2.12,2.14c1.2,0,2.12-0.92,2.12-2.15
				s-0.92-2.15-2.12-2.15C80.31,59.74,79.38,60.66,79.38,61.9L79.38,61.9z"/>
			<path class="st9" d="M86.68,64.48L84.6,59.2h0.79l1.69,4.35l1.74-4.35h0.81l-3.07,7.42h-0.8L86.68,64.48z"/>
			<path class="st9" d="M90.46,62.1c0.04,1.35,1.19,2,2.1,1.99c0.83,0,1.5-0.41,1.85-1.11h0.77c-0.25,0.58-0.63,1.02-1.09,1.31
				c-0.45,0.29-0.98,0.44-1.53,0.44c-1.87,0-2.84-1.49-2.84-2.83c0-1.58,1.22-2.85,2.83-2.85c0.76,0,1.46,0.27,1.97,0.76
				c0.62,0.6,0.92,1.43,0.84,2.29H90.46z M94.63,61.51c-0.05-0.94-0.96-1.86-2.07-1.83c-1.16,0-2.02,0.85-2.09,1.83H94.63z"/>
			<path class="st9" d="M96.74,62.1c0.04,1.35,1.19,2,2.1,1.99c0.83,0,1.5-0.41,1.85-1.11h0.77c-0.25,0.58-0.63,1.02-1.09,1.31
				c-0.45,0.29-0.98,0.44-1.53,0.44c-1.87,0-2.84-1.49-2.84-2.83c0-1.58,1.22-2.85,2.83-2.85c0.76,0,1.46,0.27,1.97,0.76
				c0.62,0.6,0.92,1.43,0.84,2.29H96.74z M100.91,61.51c-0.05-0.94-0.96-1.86-2.07-1.83c-1.16,0-2.02,0.85-2.09,1.83H100.91z"/>
			<path class="st9" d="M105.11,60.55c0-0.57-0.38-0.89-0.92-0.89c-0.59,0-0.95,0.4-0.93,0.87c0.02,0.51,0.41,0.72,1.06,0.91
				c0.77,0.21,1.63,0.43,1.67,1.58c0.04,0.99-0.76,1.71-1.78,1.71c-0.87,0-1.83-0.55-1.84-1.68h0.73c0.03,0.74,0.58,1.07,1.12,1.07
				c0.62,0,1.05-0.46,1.04-1.01c-0.02-0.61-0.42-0.86-1.35-1.13c-0.77-0.23-1.37-0.54-1.39-1.39c0-0.97,0.77-1.54,1.68-1.54
				c0.75,0,1.59,0.41,1.64,1.5H105.11z"/>
		</g>
		<g>
			<path class="st11" d="M281.19,38.74l-2.29,3.28c-0.18,0.24-0.35,0.5-0.54,0.77c0.21-0.13,0.72-0.3,1.22-0.3
				c1.87,0,3.79,1.47,3.79,4.02c0,2.45-1.89,4.31-4.29,4.31c-1.44,0-2.62-0.56-3.36-1.47c-0.7-0.82-0.98-1.92-0.98-2.8
				c0-1.28,0.51-2.26,1.06-3.07l3.23-4.72H281.19z M276.59,46.69c0,1.41,1.06,2.45,2.42,2.45c1.41,0,2.47-1.1,2.47-2.48
				c0-1.52-1.15-2.51-2.43-2.51c-1.14,0-2.45,0.85-2.45,2.53V46.69z"/>
			<path class="st11" d="M284.3,49.09c1.23-1.15,2.45-2.31,3.67-3.44c1.14-1.04,2.18-1.94,2.22-3.35c0-1.34-0.88-2.13-2.05-2.13
				c-1.26,0-1.99,1.06-2.02,2.56h-1.81c0.03-1.04,0.27-2,0.93-2.82c0.85-1.15,2.22-1.41,3.06-1.41c2.35,0,3.78,1.67,3.76,3.67
				c-0.03,1.31-0.56,2.27-1.86,3.54c-1.1,1.09-2.21,2.18-3.33,3.27h5.23v1.6h-7.81V49.09z"/>
			<path class="st11" d="M293.04,41.27c0-1.54,1.2-2.75,2.75-2.75s2.75,1.22,2.75,2.77s-1.2,2.75-2.75,2.75
				c-1.54,0-2.75-1.2-2.75-2.75V41.27z M294.23,41.3c0,0.88,0.66,1.58,1.57,1.58c0.9,0,1.58-0.69,1.58-1.62
				c0-0.91-0.67-1.6-1.58-1.6s-1.57,0.69-1.57,1.62V41.3z M296.53,50.58h-1.25l5.99-11.84h1.25L296.53,50.58z M299.3,48.02
				c0-1.54,1.2-2.75,2.77-2.75c1.54,0,2.75,1.22,2.75,2.77c0,1.57-1.23,2.77-2.75,2.77c-1.55,0-2.77-1.18-2.77-2.77V48.02z
				 M300.47,48.05c0,0.9,0.67,1.6,1.6,1.6c0.9,0,1.57-0.69,1.57-1.62s-0.67-1.6-1.57-1.6c-0.93,0-1.6,0.69-1.6,1.6V48.05z"/>
		</g>
		<g>
			<path class="st11" d="M245.86,59.79h-0.79V59.2h0.79v-0.44c0-1.66,1.31-1.71,1.89-1.71v0.59c-0.37,0.02-1.16,0.02-1.16,1.19v0.37
				h1.16v0.59h-1.16v4.79h-0.73V59.79z"/>
			<path class="st11" d="M248.59,62.1c0.04,1.35,1.19,2,2.1,1.99c0.83,0,1.5-0.41,1.85-1.11h0.77c-0.25,0.58-0.63,1.02-1.09,1.31
				c-0.45,0.29-0.98,0.44-1.53,0.44c-1.87,0-2.84-1.49-2.84-2.83c0-1.58,1.22-2.85,2.83-2.85c0.76,0,1.46,0.27,1.97,0.76
				c0.62,0.6,0.92,1.43,0.84,2.29H248.59z M252.75,61.51c-0.05-0.94-0.96-1.86-2.07-1.83c-1.16,0-2.02,0.85-2.09,1.83H252.75z"/>
			<path class="st11" d="M254.53,59.2h0.7v0.85c0.34-0.68,1.09-1,1.7-1c0.56,0,1.09,0.18,1.47,0.61c0.14,0.14,0.32,0.5,0.35,0.56
				c0.08-0.15,0.19-0.36,0.39-0.57c0.35-0.37,0.88-0.6,1.48-0.6c0.55,0,1.08,0.16,1.45,0.54c0.47,0.47,0.61,1.05,0.61,2v2.99h-0.74
				v-2.96c0-0.57-0.09-1.08-0.4-1.43c-0.22-0.28-0.56-0.45-1.07-0.45c-0.47,0-0.93,0.19-1.18,0.56c-0.27,0.38-0.32,0.68-0.32,1.29
				v2.99h-0.74v-2.99c0.02-0.6-0.07-0.95-0.28-1.28c-0.25-0.35-0.63-0.56-1.18-0.57c-0.5-0.02-0.92,0.23-1.14,0.55
				c-0.23,0.31-0.36,0.72-0.36,1.29v3h-0.74V59.2z"/>
			<path class="st11" d="M269.49,64.58h-0.74v-1.11c-0.42,0.81-1.24,1.26-2.2,1.26c-1.75,0-2.79-1.36-2.79-2.84
				c0-1.58,1.15-2.84,2.79-2.84c1.15,0,1.94,0.67,2.2,1.28V59.2h0.74V64.58z M264.49,61.9c0.01,0.97,0.68,2.14,2.16,2.14
				c0.95,0,1.65-0.55,1.94-1.31c0.12-0.26,0.18-0.56,0.18-0.85c0.01-0.3-0.05-0.6-0.17-0.86c-0.3-0.74-1.02-1.29-1.97-1.29
				C265.39,59.73,264.49,60.69,264.49,61.9L264.49,61.9z"/>
			<path class="st11" d="M270.94,57.19h0.74v7.4h-0.74V57.19z"/>
			<path class="st11" d="M273.44,62.1c0.04,1.35,1.19,2,2.1,1.99c0.83,0,1.5-0.41,1.85-1.11h0.77c-0.25,0.58-0.63,1.02-1.09,1.31
				c-0.45,0.29-0.98,0.44-1.53,0.44c-1.87,0-2.84-1.49-2.84-2.83c0-1.58,1.22-2.85,2.83-2.85c0.76,0,1.46,0.27,1.97,0.76
				c0.62,0.6,0.92,1.43,0.84,2.29H273.44z M277.6,61.51c-0.05-0.94-0.96-1.86-2.07-1.83c-1.16,0-2.02,0.85-2.09,1.83H277.6z"/>
			<path class="st11" d="M282.59,62.1c0.04,1.35,1.19,2,2.1,1.99c0.83,0,1.5-0.41,1.85-1.11h0.77c-0.25,0.58-0.63,1.02-1.09,1.31
				c-0.45,0.29-0.98,0.44-1.53,0.44c-1.87,0-2.84-1.49-2.84-2.83c0-1.58,1.22-2.85,2.83-2.85c0.76,0,1.46,0.27,1.97,0.76
				c0.62,0.6,0.92,1.43,0.84,2.29H282.59z M286.76,61.51c-0.05-0.94-0.96-1.86-2.07-1.83c-1.16,0-2.02,0.85-2.09,1.83H286.76z"/>
			<path class="st11" d="M288.54,59.2h0.7v0.85c0.34-0.68,1.09-1,1.7-1c0.56,0,1.09,0.18,1.47,0.61c0.14,0.14,0.32,0.5,0.35,0.56
				c0.08-0.15,0.19-0.36,0.39-0.57c0.35-0.37,0.88-0.6,1.48-0.6c0.55,0,1.08,0.16,1.45,0.54c0.47,0.47,0.61,1.05,0.61,2v2.99h-0.74
				v-2.96c0-0.57-0.09-1.08-0.4-1.43c-0.22-0.28-0.56-0.45-1.07-0.45c-0.47,0-0.93,0.19-1.18,0.56c-0.27,0.38-0.32,0.68-0.32,1.29
				v2.99h-0.74v-2.99c0.02-0.6-0.07-0.95-0.28-1.28c-0.25-0.35-0.63-0.56-1.18-0.57c-0.5-0.02-0.92,0.23-1.14,0.55
				c-0.23,0.31-0.36,0.72-0.36,1.29v3h-0.74V59.2z"/>
			<path class="st11" d="M298.1,59.2h0.7v1.12c0.44-0.78,1.22-1.27,2.25-1.27c1.81,0,2.76,1.47,2.76,2.86c0,1.5-1.09,2.82-2.76,2.82
				c-1.19,0-1.96-0.69-2.21-1.25v1.1v2.04h-0.74V59.2z M303.07,61.88c0-1.01-0.71-2.15-2.16-2.15c-0.6,0-1.13,0.24-1.52,0.63
				c-0.37,0.39-0.6,0.93-0.6,1.54c0,0.6,0.23,1.14,0.62,1.53c0.38,0.38,0.92,0.61,1.52,0.61C302.14,64.04,303.07,63.12,303.07,61.88
				L303.07,61.88z"/>
			<path class="st11" d="M304.95,57.19h0.74v7.4h-0.74V57.19z"/>
			<path class="st11" d="M306.78,61.88c0-1.5,1.12-2.83,2.85-2.83c1.74,0,2.86,1.33,2.86,2.84s-1.12,2.83-2.86,2.83
				C307.9,64.72,306.78,63.4,306.78,61.88L306.78,61.88z M307.51,61.9c0,1.22,0.93,2.14,2.12,2.14c1.2,0,2.12-0.92,2.12-2.15
				s-0.92-2.15-2.12-2.15C308.44,59.74,307.51,60.66,307.51,61.9L307.51,61.9z"/>
			<path class="st11" d="M314.81,64.48l-2.08-5.28h0.79l1.69,4.35l1.74-4.35h0.81l-3.07,7.42h-0.8L314.81,64.48z"/>
			<path class="st11" d="M318.59,62.1c0.04,1.35,1.19,2,2.1,1.99c0.83,0,1.5-0.41,1.85-1.11h0.77c-0.25,0.58-0.63,1.02-1.09,1.31
				c-0.45,0.29-0.98,0.44-1.53,0.44c-1.87,0-2.84-1.49-2.84-2.83c0-1.58,1.22-2.85,2.83-2.85c0.76,0,1.46,0.27,1.97,0.76
				c0.62,0.6,0.92,1.43,0.84,2.29H318.59z M322.76,61.51c-0.05-0.94-0.96-1.86-2.07-1.83c-1.16,0-2.02,0.85-2.09,1.83H322.76z"/>
			<path class="st11" d="M324.87,62.1c0.04,1.35,1.19,2,2.1,1.99c0.83,0,1.5-0.41,1.85-1.11h0.77c-0.25,0.58-0.63,1.02-1.09,1.31
				c-0.45,0.29-0.98,0.44-1.53,0.44c-1.87,0-2.84-1.49-2.84-2.83c0-1.58,1.22-2.85,2.83-2.85c0.76,0,1.46,0.27,1.97,0.76
				c0.62,0.6,0.92,1.43,0.84,2.29H324.87z M329.04,61.51c-0.05-0.94-0.96-1.86-2.07-1.83c-1.16,0-2.02,0.85-2.09,1.83H329.04z"/>
			<path class="st11" d="M333.24,60.55c0-0.57-0.38-0.89-0.92-0.89c-0.59,0-0.95,0.4-0.93,0.87c0.02,0.51,0.41,0.72,1.06,0.91
				c0.77,0.21,1.63,0.43,1.67,1.58c0.04,0.99-0.76,1.71-1.78,1.71c-0.87,0-1.83-0.55-1.84-1.68h0.73c0.03,0.74,0.58,1.07,1.12,1.07
				c0.62,0,1.05-0.46,1.04-1.01c-0.02-0.61-0.42-0.86-1.35-1.13c-0.77-0.23-1.37-0.54-1.39-1.39c0-0.97,0.77-1.54,1.68-1.54
				c0.75,0,1.59,0.41,1.64,1.5H333.24z"/>
		</g>
	</g>
</g>
</svg>
