<?xml version="1.0" encoding="utf-8"?>
<!-- Generator: Adobe Illustrator 23.0.0, SVG Export Plug-In . SVG Version: 6.00 Build 0)  -->
<svg version="1.1" id="Layer_1" xmlns="http://www.w3.org/2000/svg" xmlns:xlink="http://www.w3.org/1999/xlink" x="0px" y="0px"
	 viewBox="0 0 229.61 145.77" style="enable-background:new 0 0 229.61 145.77;" xml:space="preserve">
<style type="text/css">
	.st0{clip-path:url(#SVGID_2_);fill:#3AA7CC;}
	.st1{clip-path:url(#SVGID_2_);fill:none;stroke:#D4EAF5;stroke-width:3;}
	.st2{fill:#003767;}
	.st3{clip-path:url(#SVGID_4_);fill:#231F20;}
	.st4{clip-path:url(#SVGID_6_);fill:#231F20;}
	.st5{clip-path:url(#SVGID_8_);fill:#231F20;}
	.st6{clip-path:url(#SVGID_10_);fill:#231F20;}
	.st7{fill:#231F20;}
</style>
<g>
	<defs>
		<rect id="SVGID_1_" width="229.61" height="145.77"/>
	</defs>
	<clipPath id="SVGID_2_">
		<use xlink:href="#SVGID_1_"  style="overflow:visible;"/>
	</clipPath>
	<path class="st0" d="M168.9,4.81c0-1.12,0.85-1.89,1.88-1.89c0.66,0,1.13,0.26,1.43,0.64c0.3,0.37,0.44,0.86,0.44,1.29
		c-0.01,0.53-0.21,1-0.53,1.33c-0.33,0.34-0.79,0.55-1.34,0.55C169.64,6.73,168.9,5.84,168.9,4.81L168.9,4.81z M173.67,2.1h-1.04
		v0.92c-0.3-0.6-1.05-1.08-1.96-1.08c-1.58,0-2.81,1.2-2.81,2.9c0,1.62,1.18,2.86,2.81,2.86c0.98,0,1.64-0.51,1.96-1.12v0.56
		c0,1.22-0.94,1.89-1.85,1.89c-0.24,0-0.61-0.07-0.94-0.29c-0.27-0.17-0.48-0.39-0.6-0.63h-1.2c0.26,0.91,1.16,1.81,2.7,1.81
		c0.94,0,1.79-0.41,2.29-0.99c0.4-0.46,0.64-1.07,0.64-2.02V2.1z M161.32,7.54h1.04V4.51c0-0.94,0.47-1.58,1.49-1.59
		c1.06-0.01,1.44,0.69,1.44,1.67v2.95h1.05V4.35c0-1.13-0.46-2.39-2.2-2.41c-0.97-0.01-1.58,0.44-1.84,1V2.1h-0.98V7.54z
		 M158.42,7.54h1.04V2.1h-1.04V7.54z M158.42,1.24h1.04v-1.1h-1.04V1.24z M151.76,4.81c0-1.02,0.76-1.9,1.91-1.9
		c0.53,0,1,0.2,1.34,0.54c0.34,0.33,0.55,0.8,0.55,1.34c0.02,0.54-0.18,1.02-0.53,1.37c-0.34,0.35-0.83,0.57-1.36,0.57
		C152.47,6.73,151.77,5.82,151.76,4.81L151.76,4.81z M156.54,0.14h-1.04v1.89v0.96c-0.22-0.43-0.9-1.05-2.01-1.05
		c-1.55,0-2.77,1.18-2.77,2.87c0,1.57,1.08,2.89,2.79,2.89c1.12,0,1.73-0.55,2.03-1.11v0.95h1V0.14z M148.13,7.54h1.04v-7.4h-1.04
		V7.54z M141.81,4.82c0-1.09,0.82-1.9,1.86-1.9c1.04,0,1.86,0.81,1.86,1.9s-0.82,1.9-1.86,1.9C142.63,6.72,141.81,5.91,141.81,4.82
		L141.81,4.82z M140.77,4.82c0,1.46,1.07,2.87,2.9,2.87c1.83,0,2.9-1.41,2.9-2.87s-1.07-2.88-2.9-2.88
		C141.84,1.94,140.77,3.36,140.77,4.82L140.77,4.82z M134.22,7.54h1.04V4.47c0-0.37,0.1-0.76,0.33-1.05c0.22-0.29,0.6-0.5,1.15-0.5
		c0.54,0,0.9,0.18,1.14,0.48c0.22,0.3,0.31,0.73,0.31,1.22v2.92h1.05V4.57c0-0.75-0.13-1.4-0.47-1.87
		c-0.35-0.48-0.89-0.76-1.74-0.76c-0.71-0.01-1.45,0.28-1.77,0.92V2.01V0.14h-1.04V7.54z M128.07,4.34c0.05-0.74,0.74-1.51,1.8-1.51
		c1.03-0.02,1.75,0.79,1.8,1.51H128.07z M132.7,5.15c0.09-0.91-0.18-1.76-0.82-2.41c-0.52-0.51-1.23-0.8-2.01-0.8
		c-1.65,0-2.87,1.33-2.87,2.89c0,1.44,1.1,2.87,2.88,2.87c0.55,0,1.09-0.15,1.55-0.46c0.46-0.3,0.84-0.75,1.1-1.35h-1.08
		c-0.3,0.57-0.84,0.92-1.57,0.92c-0.82,0-1.78-0.56-1.83-1.66H132.7z M123.83,7.54h1.04V4.6c0-1.08,0.51-1.62,1.49-1.62h0.07V1.94
		c-0.74,0.01-1.31,0.32-1.62,0.96V2.1h-0.98V7.54z M117.15,4.83c0-1.02,0.74-1.92,1.88-1.92c0.87,0,1.48,0.49,1.74,1.12
		c0.12,0.25,0.17,0.53,0.16,0.81s-0.07,0.56-0.19,0.81c-0.27,0.62-0.86,1.08-1.69,1.08c-1.32,0-1.89-1.08-1.9-1.89V4.83z
		 M121.96,2.1h-1.04v0.96c-0.25-0.52-0.94-1.12-2.02-1.12c-1.58,0-2.79,1.22-2.79,2.88c0,1.52,1.04,2.88,2.79,2.88
		c0.86,0,1.64-0.38,2.02-1.11v0.95h1.04V2.1z M109.56,7.54h1.04V4.47c0-0.37,0.1-0.76,0.33-1.05c0.22-0.29,0.6-0.5,1.15-0.5
		c0.54,0,0.9,0.18,1.14,0.48c0.22,0.3,0.31,0.73,0.31,1.22v2.92h1.05V4.57c0-0.75-0.13-1.4-0.47-1.87
		c-0.35-0.48-0.89-0.76-1.74-0.76c-0.71-0.01-1.45,0.28-1.77,0.92V2.01V0.14h-1.04V7.54z M107.83,3.52
		c-0.08-1.21-1.06-1.58-1.81-1.58c-0.99,0-1.83,0.62-1.83,1.65c0.01,0.82,0.61,1.18,1.37,1.41c0.97,0.32,1.38,0.5,1.39,1.04
		c0,0.46-0.39,0.81-0.89,0.81c-0.39,0-0.92-0.22-0.96-0.88h-1.03c0.05,1.24,1.12,1.73,1.98,1.73c1.08,0,1.96-0.72,1.94-1.78
		c-0.03-1.17-0.94-1.41-1.77-1.64c-0.58-0.16-0.97-0.36-0.99-0.79c-0.01-0.36,0.27-0.7,0.78-0.7c0.53-0.01,0.79,0.31,0.79,0.73
		H107.83z M94.8,4.34c0.05-0.74,0.74-1.51,1.8-1.51c1.03-0.02,1.75,0.79,1.8,1.51H94.8z M99.43,5.15c0.09-0.91-0.18-1.76-0.82-2.41
		c-0.52-0.51-1.23-0.8-2.01-0.8c-1.65,0-2.87,1.33-2.87,2.89c0,1.44,1.1,2.87,2.88,2.87c0.55,0,1.09-0.15,1.55-0.46
		c0.46-0.3,0.84-0.75,1.1-1.35h-1.08c-0.3,0.57-0.84,0.92-1.57,0.92c-0.82,0-1.78-0.56-1.83-1.66H99.43z M90.56,7.54h1.04V4.6
		c0-1.08,0.51-1.62,1.49-1.62h0.07V1.94c-0.74,0.01-1.31,0.32-1.62,0.96V2.1h-0.98V7.54z M84.24,4.82c0-1.09,0.82-1.9,1.86-1.9
		c1.04,0,1.86,0.81,1.86,1.9s-0.82,1.9-1.86,1.9C85.06,6.72,84.24,5.91,84.24,4.82L84.24,4.82z M83.2,4.82
		c0,1.46,1.07,2.87,2.9,2.87c1.83,0,2.9-1.41,2.9-2.87s-1.07-2.88-2.9-2.88C84.27,1.94,83.2,3.36,83.2,4.82L83.2,4.82z M76.65,7.54
		h1.04V4.47c0-0.37,0.1-0.76,0.33-1.05c0.22-0.29,0.6-0.5,1.15-0.5c0.54,0,0.9,0.18,1.14,0.48c0.22,0.3,0.31,0.73,0.31,1.22v2.92
		h1.05V4.57c0-0.75-0.13-1.4-0.47-1.87c-0.35-0.48-0.89-0.76-1.74-0.76c-0.71-0.01-1.45,0.28-1.77,0.92V2.01V0.14h-1.04V7.54z
		 M74.92,3.52c-0.08-1.21-1.06-1.58-1.81-1.58c-0.99,0-1.83,0.62-1.83,1.65c0.01,0.82,0.61,1.18,1.37,1.41
		c0.97,0.32,1.38,0.5,1.39,1.04c0,0.46-0.39,0.81-0.89,0.81c-0.39,0-0.92-0.22-0.96-0.88h-1.03c0.05,1.24,1.12,1.73,1.98,1.73
		c1.08,0,1.96-0.72,1.94-1.78c-0.03-1.17-0.94-1.41-1.77-1.64c-0.58-0.16-0.97-0.36-0.99-0.79c-0.01-0.36,0.27-0.7,0.78-0.7
		c0.53-0.01,0.79,0.31,0.79,0.73H74.92z M68.19,7.54h1.04V2.91h1V2.1h-1V1.78c0-0.95,0.65-0.95,1-0.96V0
		c-0.77,0.01-2.04,0.09-2.04,1.73V2.1h-0.74v0.81h0.74V7.54z M65,7.54h1.04V2.91h1V2.1h-1V1.78c0-0.95,0.65-0.95,1-0.96V0
		C66.27,0.01,65,0.09,65,1.73V2.1h-0.74v0.81H65V7.54z M56.75,3.83c0-1.49,1.1-2.79,2.71-2.79c1.62,0,2.69,1.36,2.69,2.81
		c0,1.44-1.07,2.79-2.68,2.79c-1.58,0-2.72-1.26-2.72-2.8V3.83z M55.58,3.89c0,2.04,1.63,3.79,3.86,3.79c2.22,0,3.89-1.71,3.89-3.84
		c0-2.13-1.67-3.84-3.88-3.84C57.37,0,55.58,1.55,55.58,3.89L55.58,3.89z"/>
	<line class="st1" x1="0" y1="144.27" x2="229.61" y2="144.27"/>
</g>
<rect x="35.72" y="63.15" class="st2" width="8.5" height="57.11"/>
<g>
	<defs>
		<rect id="SVGID_3_" width="229.61" height="145.77"/>
	</defs>
	<clipPath id="SVGID_4_">
		<use xlink:href="#SVGID_3_"  style="overflow:visible;"/>
	</clipPath>
	<path class="st3" d="M47.27,59.74c0.83,0,0.92-0.64,0.92-1.34c0-0.7-0.08-1.34-0.92-1.34c-0.83,0-0.92,0.64-0.92,1.34
		C46.36,59.1,46.44,59.74,47.27,59.74 M44.44,57.37c0.83,0,0.92-0.64,0.92-1.34c0-0.7-0.08-1.34-0.92-1.34
		c-0.83,0-0.92,0.64-0.92,1.34C43.52,56.73,43.61,57.37,44.44,57.37 M47.27,59.36c-0.39,0-0.41-0.39-0.41-0.97
		c0-0.57,0.02-0.97,0.41-0.97c0.39,0,0.41,0.39,0.41,0.97C47.69,58.97,47.67,59.36,47.27,59.36 M44.5,59.74h0.49l2.17-5.05h-0.49
		L44.5,59.74z M44.44,57c-0.39,0-0.41-0.39-0.41-0.97c0-0.58,0.02-0.97,0.41-0.97c0.39,0,0.41,0.39,0.41,0.97
		C44.85,56.6,44.83,57,44.44,57 M40.31,55.92h1.06v3.72h0.59v-4.96h-0.42c-0.03,0.7-0.6,0.78-1.23,0.81V55.92z M38.68,59.64h0.64
		V58.9h-0.64V59.64z M35.07,55.33h2.27c-0.48,0.63-0.88,1.33-1.17,2.06c-0.31,0.74-0.51,1.51-0.6,2.25h0.69
		c0.09-1.01,0.36-1.88,0.68-2.65c0.31-0.74,0.7-1.34,0.97-1.7v-0.51h-2.83V55.33z M31.65,57.89v0.55h1.79v1.2h0.59v-1.2h0.56v-0.5
		h-0.56v-3.25h-0.59L31.65,57.89z M33.43,55.65h0.01v2.29h-1.26L33.43,55.65z"/>
	<path class="st3" d="M45.81,126.66c-1.43,0-1.71,1.38-1.71,2.53c0,1.14,0.28,2.52,1.71,2.52c1.43,0,1.71-1.38,1.71-2.53
		C47.52,128.03,47.24,126.66,45.81,126.66 M45.81,127.03c1.12,0,1.27,1.3,1.27,2.15c0,0.85-0.15,2.16-1.27,2.16
		c-1.12,0-1.27-1.3-1.27-2.16C44.55,128.33,44.69,127.03,45.81,127.03 M40.66,127.96h1.3v3.64h0.44v-4.9h-0.36
		c-0.13,0.9-0.61,0.92-1.38,0.94V127.96z M38.03,126.66c-1.43,0-1.71,1.38-1.71,2.53c0,1.14,0.28,2.52,1.71,2.52
		c1.43,0,1.71-1.38,1.71-2.53C39.74,128.03,39.46,126.66,38.03,126.66 M38.03,127.03c1.12,0,1.27,1.3,1.27,2.15
		c0,0.85-0.15,2.16-1.27,2.16c-1.12,0-1.27-1.3-1.27-2.16C36.76,128.33,36.91,127.03,38.03,127.03 M35.67,131.19h-2.72
		c0.12-0.66,0.99-1.09,1.47-1.41c0.64-0.41,1.23-0.92,1.23-1.74c0-0.91-0.66-1.38-1.52-1.38c-1.06,0-1.59,0.73-1.57,1.74H33
		c-0.01-0.72,0.3-1.36,1.11-1.36c0.6,0,1.1,0.36,1.1,1c0,0.39-0.14,0.65-0.41,0.93c-0.83,0.83-2.32,1.19-2.36,2.64h3.23V131.19z"/>
</g>
<rect x="73.11" y="49.44" class="st2" width="8.5" height="70.81"/>
<g>
	<defs>
		<rect id="SVGID_5_" width="229.61" height="145.77"/>
	</defs>
	<clipPath id="SVGID_6_">
		<use xlink:href="#SVGID_5_"  style="overflow:visible;"/>
	</clipPath>
	<path class="st4" d="M84.66,46.04c0.83,0,0.92-0.64,0.92-1.34c0-0.7-0.08-1.34-0.92-1.34c-0.83,0-0.92,0.64-0.92,1.34
		C83.74,45.39,83.82,46.04,84.66,46.04 M81.82,43.67c0.83,0,0.92-0.64,0.92-1.34c0-0.7-0.08-1.34-0.92-1.34
		c-0.83,0-0.92,0.64-0.92,1.34C80.9,43.03,80.99,43.67,81.82,43.67 M84.66,45.66c-0.39,0-0.41-0.39-0.41-0.97
		c0-0.57,0.02-0.97,0.41-0.97c0.39,0,0.41,0.39,0.41,0.97C85.07,45.27,85.05,45.66,84.66,45.66 M81.88,46.04h0.49l2.17-5.05h-0.49
		L81.88,46.04z M81.82,43.29c-0.39,0-0.41-0.39-0.41-0.97c0-0.57,0.02-0.97,0.41-0.97c0.39,0,0.41,0.39,0.41,0.97
		C82.23,42.9,82.21,43.29,81.82,43.29 M77.43,44.19v0.55h1.79v1.2h0.59v-1.2h0.56v-0.5h-0.56v-3.25h-0.59L77.43,44.19z M79.21,41.95
		h0.01v2.29h-1.26L79.21,41.95z M76.06,45.94h0.64V45.2h-0.64V45.94z M73.06,44.55c0-0.58,0.23-1.02,0.81-1.02
		c0.57,0,0.81,0.44,0.81,1.02c0,0.58-0.23,1.02-0.81,1.02C73.29,45.58,73.06,45.14,73.06,44.55 M73.86,41.45
		c0.45,0,0.65,0.34,0.65,0.81c0,0.46-0.2,0.81-0.65,0.81c-0.46,0-0.65-0.35-0.65-0.81C73.21,41.79,73.41,41.45,73.86,41.45
		 M72.44,44.57c0,0.65,0.31,1.46,1.42,1.46s1.42-0.81,1.42-1.46c0-0.67-0.28-1.08-0.87-1.27c0.5-0.2,0.72-0.52,0.72-1.06
		c0-0.8-0.48-1.26-1.27-1.26c-0.78,0-1.27,0.46-1.27,1.26c0,0.53,0.22,0.86,0.72,1.06C72.72,43.5,72.44,43.91,72.44,44.57
		 M69.23,43.62l0.53,0.03c0-0.12,0.27-0.48,0.7-0.48c0.62,0,0.83,0.57,0.83,1.12c0,0.5-0.11,1.29-0.81,1.29
		c-0.66,0-0.76-0.65-0.76-0.91H69.1c0,0.4,0.18,1.37,1.36,1.37c1.04,0,1.44-0.78,1.44-1.7c0-1.04-0.5-1.63-1.25-1.63
		c-0.34,0-0.67,0.12-0.87,0.37l-0.01-0.01l0.2-1.43h1.74v-0.54H69.5L69.23,43.62z"/>
	<path class="st4" d="M84.73,131.19h-2.72c0.12-0.66,0.99-1.09,1.47-1.41c0.64-0.41,1.23-0.92,1.23-1.74c0-0.91-0.66-1.38-1.52-1.38
		c-1.06,0-1.59,0.73-1.57,1.74h0.44c-0.01-0.72,0.3-1.36,1.11-1.36c0.6,0,1.1,0.36,1.1,1c0,0.39-0.14,0.65-0.41,0.93
		c-0.83,0.83-2.32,1.19-2.36,2.64h3.23V131.19z M78.04,127.96h1.3v3.64h0.44v-4.9h-0.36c-0.13,0.9-0.61,0.92-1.38,0.94V127.96z
		 M75.41,126.66c-1.43,0-1.71,1.38-1.71,2.53c0,1.14,0.28,2.52,1.71,2.52c1.43,0,1.71-1.38,1.71-2.53
		C77.12,128.03,76.84,126.66,75.41,126.66 M75.41,127.03c1.12,0,1.27,1.3,1.27,2.15c0,0.85-0.15,2.16-1.27,2.16
		c-1.12,0-1.27-1.3-1.27-2.16C74.14,128.33,74.29,127.03,75.41,127.03 M73.05,131.19h-2.72c0.12-0.66,0.99-1.09,1.47-1.41
		c0.64-0.41,1.23-0.92,1.23-1.74c0-0.91-0.66-1.38-1.52-1.38c-1.06,0-1.59,0.73-1.57,1.74h0.44c-0.01-0.72,0.3-1.36,1.11-1.36
		c0.6,0,1.1,0.36,1.1,1c0,0.39-0.14,0.65-0.41,0.93c-0.83,0.83-2.32,1.19-2.36,2.64h3.23V131.19z"/>
</g>
<rect x="110.49" y="48.35" class="st2" width="8.5" height="71.9"/>
<g>
	<defs>
		<rect id="SVGID_7_" width="229.61" height="145.77"/>
	</defs>
	<clipPath id="SVGID_8_">
		<use xlink:href="#SVGID_7_"  style="overflow:visible;"/>
	</clipPath>
	<path class="st5" d="M122.04,44.95c0.83,0,0.92-0.64,0.92-1.34c0-0.7-0.08-1.34-0.92-1.34c-0.83,0-0.92,0.64-0.92,1.34
		C121.12,44.3,121.2,44.95,122.04,44.95 M119.2,42.58c0.83,0,0.92-0.64,0.92-1.34c0-0.7-0.08-1.34-0.92-1.34
		c-0.83,0-0.92,0.64-0.92,1.34C118.29,41.94,118.37,42.58,119.2,42.58 M122.04,44.57c-0.39,0-0.41-0.39-0.41-0.97
		c0-0.57,0.02-0.97,0.41-0.97c0.39,0,0.41,0.39,0.41,0.97C122.45,44.18,122.43,44.57,122.04,44.57 M119.27,44.95h0.49l2.17-5.05
		h-0.49L119.27,44.95z M119.2,42.2c-0.39,0-0.41-0.39-0.41-0.97c0-0.57,0.02-0.97,0.41-0.97c0.39,0,0.41,0.39,0.41,0.97
		C119.62,41.81,119.59,42.2,119.2,42.2 M115.86,42.52h0.32c0.61,0,0.9,0.36,0.9,0.95c0,0.84-0.43,1.02-0.79,1.02
		c-0.57,0-0.79-0.53-0.79-0.98h-0.61v0.06c0,0.22,0.08,1.38,1.41,1.38c0.95,0,1.41-0.63,1.41-1.53c0-0.69-0.36-1.04-0.92-1.15v-0.01
		c0.52-0.13,0.77-0.57,0.77-1.06c0-0.55-0.24-1.29-1.27-1.29c-0.92,0-1.32,0.58-1.32,1.43h0.62c0-0.36,0.06-0.97,0.71-0.97
		c0.47,0,0.64,0.37,0.64,0.83c0,0.5-0.23,0.88-0.76,0.88h-0.31V42.52z M113.44,44.85h0.64v-0.74h-0.64V44.85z M111.99,41.5
		c0,0.53-0.13,1.15-0.78,1.15c-0.66,0-0.79-0.62-0.79-1.15c0-0.52,0.17-1.15,0.79-1.15C111.82,40.35,111.99,40.98,111.99,41.5
		 M109.92,43.76c0,0.23,0.1,1.19,1.25,1.19c1.43,0,1.5-1.57,1.5-2.7c0-1.02-0.1-2.35-1.47-2.35c-0.93,0-1.4,0.73-1.4,1.69
		c0,0.93,0.43,1.57,1.29,1.57c0.55,0,0.85-0.37,0.94-0.55h0.01v0.39c0,0.25-0.05,1.49-0.88,1.49c-0.42,0-0.65-0.32-0.65-0.73H109.92
		z M106.61,42.53l0.53,0.03c0-0.12,0.27-0.48,0.7-0.48c0.62,0,0.83,0.57,0.83,1.12c0,0.5-0.11,1.29-0.81,1.29
		c-0.66,0-0.76-0.65-0.76-0.91h-0.62c0,0.4,0.18,1.37,1.36,1.37c1.04,0,1.44-0.78,1.44-1.7c0-1.04-0.5-1.63-1.25-1.63
		c-0.34,0-0.67,0.12-0.87,0.37l-0.01-0.01l0.2-1.43h1.74v-0.54h-2.21L106.61,42.53z"/>
	<path class="st5" d="M119.24,130.01l1.85-2.67h0.01v2.67H119.24z M118.84,130.38h2.26v1.22h0.4v-1.22h0.74v-0.37h-0.74v-3.31h-0.4
		l-2.27,3.25V130.38z M115.42,127.96h1.3v3.64h0.44v-4.9h-0.36c-0.13,0.9-0.61,0.92-1.38,0.94V127.96z M112.79,126.66
		c-1.43,0-1.71,1.38-1.71,2.53c0,1.14,0.28,2.52,1.71,2.52c1.43,0,1.71-1.38,1.71-2.53C114.5,128.03,114.22,126.66,112.79,126.66
		 M112.79,127.03c1.12,0,1.27,1.3,1.27,2.15c0,0.85-0.15,2.16-1.27,2.16c-1.12,0-1.27-1.3-1.27-2.16
		C111.53,128.33,111.67,127.03,112.79,127.03 M110.43,131.19h-2.72c0.12-0.66,0.99-1.09,1.47-1.41c0.64-0.41,1.23-0.92,1.23-1.74
		c0-0.91-0.66-1.38-1.52-1.38c-1.06,0-1.59,0.73-1.57,1.74h0.44c-0.01-0.72,0.3-1.36,1.11-1.36c0.6,0,1.1,0.36,1.1,1
		c0,0.39-0.14,0.65-0.41,0.93c-0.83,0.83-2.32,1.19-2.36,2.64h3.23V131.19z"/>
</g>
<rect x="147.87" y="37.08" class="st2" width="8.5" height="83.18"/>
<g>
	<defs>
		<rect id="SVGID_9_" width="229.61" height="145.77"/>
	</defs>
	<clipPath id="SVGID_10_">
		<use xlink:href="#SVGID_9_"  style="overflow:visible;"/>
	</clipPath>
	<path class="st6" d="M159.42,33.67c0.83,0,0.92-0.64,0.92-1.34s-0.08-1.34-0.92-1.34c-0.83,0-0.92,0.64-0.92,1.34
		S158.59,33.67,159.42,33.67 M156.58,31.3c0.83,0,0.92-0.64,0.92-1.34c0-0.7-0.08-1.34-0.92-1.34c-0.83,0-0.92,0.64-0.92,1.34
		C155.67,30.66,155.75,31.3,156.58,31.3 M159.42,33.29c-0.39,0-0.41-0.39-0.41-0.97s0.02-0.97,0.41-0.97c0.39,0,0.41,0.39,0.41,0.97
		S159.81,33.29,159.42,33.29 M156.65,33.67h0.49l2.17-5.05h-0.49L156.65,33.67z M156.58,30.93c-0.39,0-0.41-0.39-0.41-0.97
		c0-0.57,0.02-0.97,0.41-0.97c0.39,0,0.41,0.39,0.41,0.97C157,30.53,156.98,30.93,156.58,30.93 M152.92,32.06
		c0-0.52,0.13-1.15,0.78-1.15c0.66,0,0.78,0.63,0.78,1.15c0,0.52-0.17,1.15-0.78,1.15C153.08,33.21,152.92,32.58,152.92,32.06
		 M154.99,29.81c0-0.23-0.1-1.19-1.25-1.19c-1.43,0-1.5,1.57-1.5,2.7c0,1.03,0.1,2.35,1.47,2.35c0.92,0,1.4-0.74,1.4-1.69
		c0-0.93-0.43-1.57-1.29-1.57c-0.55,0-0.85,0.37-0.95,0.55h-0.01v-0.39c0-0.26,0.05-1.49,0.88-1.49c0.42,0,0.65,0.32,0.65,0.73
		H154.99z M150.82,33.57h0.64v-0.74h-0.64V33.57z M147.82,32.19c0-0.58,0.23-1.02,0.8-1.02c0.58,0,0.81,0.44,0.81,1.02
		s-0.23,1.02-0.81,1.02C148.05,33.21,147.82,32.77,147.82,32.19 M148.62,29.08c0.45,0,0.65,0.34,0.65,0.81
		c0,0.46-0.2,0.81-0.65,0.81c-0.46,0-0.65-0.35-0.65-0.81C147.97,29.42,148.17,29.08,148.62,29.08 M147.2,32.21
		c0,0.65,0.31,1.46,1.42,1.46c1.11,0,1.42-0.81,1.42-1.46c0-0.67-0.28-1.08-0.87-1.27c0.5-0.2,0.72-0.53,0.72-1.06
		c0-0.8-0.48-1.26-1.27-1.26c-0.78,0-1.27,0.46-1.27,1.26c0,0.53,0.22,0.85,0.72,1.06C147.48,31.13,147.2,31.54,147.2,32.21
		 M144.52,32.06c0-0.52,0.13-1.15,0.78-1.15c0.66,0,0.79,0.63,0.79,1.15c0,0.52-0.17,1.15-0.79,1.15
		C144.68,33.21,144.52,32.58,144.52,32.06 M146.59,29.81c0-0.23-0.1-1.19-1.25-1.19c-1.43,0-1.5,1.57-1.5,2.7
		c0,1.03,0.1,2.35,1.47,2.35c0.93,0,1.4-0.74,1.4-1.69c0-0.93-0.43-1.57-1.29-1.57c-0.55,0-0.85,0.37-0.95,0.55h-0.01v-0.39
		c0-0.26,0.05-1.49,0.88-1.49c0.42,0,0.65,0.32,0.65,0.73H146.59z"/>
	<path class="st6" d="M159.55,127.94c-0.1-0.85-0.64-1.28-1.51-1.28c-1.6,0-1.75,1.86-1.75,2.44c0,1.91,0.52,2.6,1.71,2.6
		c0.97,0,1.66-0.71,1.66-1.66c0-0.96-0.64-1.64-1.62-1.64c-0.55,0-1.07,0.33-1.3,0.81h-0.01c0-0.89,0.21-2.19,1.35-2.19
		c0.57,0,0.95,0.37,1.02,0.91H159.55z M158.04,128.78c0.75,0,1.18,0.58,1.18,1.3c0,0.68-0.48,1.26-1.18,1.26
		c-0.85,0-1.23-0.57-1.23-1.26C156.83,129.35,157.27,128.78,158.04,128.78 M152.8,127.96h1.3v3.64h0.44v-4.9h-0.36
		c-0.13,0.9-0.61,0.92-1.38,0.94V127.96z M150.18,126.66c-1.43,0-1.71,1.38-1.71,2.53c0,1.14,0.28,2.52,1.71,2.52
		c1.43,0,1.71-1.38,1.71-2.53C151.88,128.03,151.6,126.66,150.18,126.66 M150.18,127.03c1.12,0,1.27,1.3,1.27,2.15
		c0,0.85-0.15,2.16-1.27,2.16c-1.12,0-1.27-1.3-1.27-2.16C148.91,128.33,149.06,127.03,150.18,127.03 M147.82,131.19h-2.72
		c0.12-0.66,0.99-1.09,1.47-1.41c0.64-0.41,1.23-0.92,1.23-1.74c0-0.91-0.66-1.38-1.52-1.38c-1.06,0-1.59,0.73-1.57,1.74h0.44
		c-0.01-0.72,0.3-1.36,1.11-1.36c0.6,0,1.1,0.36,1.1,1c0,0.39-0.14,0.65-0.41,0.93c-0.83,0.83-2.32,1.19-2.36,2.64h3.23V131.19z"/>
</g>
<rect x="185.25" y="35.5" class="st2" width="8.5" height="84.76"/>
<g>
	<path class="st7" d="M196.8,32.09c0.83,0,0.92-0.64,0.92-1.34s-0.08-1.34-0.92-1.34c-0.83,0-0.92,0.64-0.92,1.34
		S195.97,32.09,196.8,32.09 M193.97,29.73c0.83,0,0.92-0.64,0.92-1.34c0-0.7-0.08-1.34-0.92-1.34c-0.83,0-0.92,0.64-0.92,1.34
		C193.05,29.08,193.13,29.73,193.97,29.73 M196.8,31.72c-0.39,0-0.41-0.39-0.41-0.97s0.02-0.97,0.41-0.97
		c0.39,0,0.41,0.39,0.41,0.97S197.19,31.72,196.8,31.72 M194.03,32.09h0.49l2.17-5.05h-0.49L194.03,32.09z M193.97,29.35
		c-0.39,0-0.41-0.39-0.41-0.97c0-0.57,0.02-0.97,0.41-0.97c0.39,0,0.41,0.39,0.41,0.97C194.38,28.96,194.36,29.35,193.97,29.35
		 M191.8,28.65c0,0.53-0.13,1.15-0.79,1.15c-0.66,0-0.78-0.62-0.78-1.15s0.17-1.15,0.78-1.15C191.63,27.5,191.8,28.12,191.8,28.65
		 M189.72,30.9c0,0.23,0.1,1.19,1.25,1.19c1.43,0,1.51-1.57,1.51-2.7c0-1.02-0.1-2.35-1.47-2.35c-0.92,0-1.4,0.74-1.4,1.69
		c0,0.93,0.43,1.57,1.29,1.57c0.55,0,0.85-0.37,0.95-0.55h0.01v0.39c0,0.25-0.05,1.49-0.88,1.49c-0.42,0-0.65-0.32-0.65-0.73H189.72
		z M188.21,32h0.64v-0.74h-0.64V32z M186.76,28.65c0,0.53-0.13,1.15-0.78,1.15c-0.66,0-0.78-0.62-0.78-1.15s0.17-1.15,0.78-1.15
		C186.59,27.5,186.76,28.12,186.76,28.65 M184.68,30.9c0,0.23,0.1,1.19,1.25,1.19c1.43,0,1.5-1.57,1.5-2.7
		c0-1.02-0.1-2.35-1.47-2.35c-0.92,0-1.4,0.74-1.4,1.69c0,0.93,0.43,1.57,1.29,1.57c0.55,0,0.85-0.37,0.95-0.55h0.01v0.39
		c0,0.25-0.05,1.49-0.88,1.49c-0.42,0-0.65-0.32-0.65-0.73H184.68z M181.9,30.48c0-0.52,0.13-1.15,0.78-1.15
		c0.66,0,0.79,0.63,0.79,1.15c0,0.52-0.17,1.15-0.79,1.15C182.07,31.63,181.9,31,181.9,30.48 M183.97,28.23
		c0-0.23-0.1-1.19-1.25-1.19c-1.43,0-1.5,1.57-1.5,2.7c0,1.03,0.1,2.35,1.47,2.35c0.93,0,1.4-0.74,1.4-1.69
		c0-0.93-0.43-1.57-1.29-1.57c-0.55,0-0.85,0.37-0.95,0.55h-0.01v-0.39c0-0.26,0.05-1.49,0.88-1.49c0.42,0,0.65,0.32,0.65,0.73
		H183.97z"/>
	<path class="st7" d="M195.34,128.79c-0.52,0.01-1.05-0.25-1.05-0.91c0-0.56,0.51-0.85,1.05-0.85c0.59,0,1.04,0.29,1.04,0.85
		C196.39,128.51,195.88,128.8,195.34,128.79 M196.83,127.88c0-0.84-0.76-1.22-1.49-1.22c-0.72,0-1.48,0.38-1.48,1.22
		c0,0.54,0.29,0.92,0.8,1.08v0.01c-0.6,0.11-0.98,0.62-0.99,1.25c0,0.99,0.77,1.48,1.69,1.48c0.92,0,1.69-0.49,1.69-1.48
		c0-0.66-0.37-1.13-1-1.25v-0.01C196.53,128.81,196.83,128.41,196.83,127.88 M195.34,131.33c-0.69,0-1.25-0.37-1.25-1.11
		c0-0.72,0.57-1.08,1.25-1.07c0.66-0.01,1.25,0.36,1.25,1.07C196.59,130.97,196.03,131.33,195.34,131.33 M190.18,127.96h1.3v3.64
		h0.44v-4.9h-0.36c-0.13,0.9-0.61,0.92-1.38,0.94V127.96z M187.56,126.66c-1.43,0-1.71,1.38-1.71,2.53c0,1.14,0.28,2.52,1.71,2.52
		c1.43,0,1.71-1.38,1.71-2.53C189.27,128.03,188.99,126.66,187.56,126.66 M187.56,127.03c1.12,0,1.27,1.3,1.27,2.15
		c0,0.85-0.15,2.16-1.27,2.16c-1.12,0-1.27-1.3-1.27-2.16C186.29,128.33,186.44,127.03,187.56,127.03 M185.2,131.19h-2.72
		c0.12-0.66,0.99-1.09,1.47-1.41c0.64-0.41,1.23-0.92,1.23-1.74c0-0.91-0.66-1.38-1.52-1.38c-1.06,0-1.59,0.73-1.57,1.74h0.44
		c-0.01-0.72,0.3-1.36,1.11-1.36c0.6,0,1.1,0.36,1.1,1c0,0.39-0.14,0.65-0.41,0.93c-0.83,0.83-2.32,1.19-2.36,2.64h3.23V131.19z"/>
</g>
</svg>
