<?xml version="1.0" encoding="utf-8"?>
<!-- Generator: Adobe Illustrator 23.0.0, SVG Export Plug-In . SVG Version: 6.00 Build 0)  -->
<svg version="1.1" id="Layer_1" xmlns="http://www.w3.org/2000/svg" xmlns:xlink="http://www.w3.org/1999/xlink" x="0px" y="0px"
	 viewBox="0 0 229.61 145.77" style="enable-background:new 0 0 229.61 145.77;" xml:space="preserve">
<style type="text/css">
	.st0{clip-path:url(#SVGID_2_);}
	.st1{clip-path:url(#SVGID_4_);fill:#3AA7CC;}
	.st2{clip-path:url(#SVGID_4_);fill:none;stroke:#D4EAF5;stroke-width:3;}
	.st3{opacity:0.25;clip-path:url(#SVGID_4_);}
	.st4{clip-path:url(#SVGID_6_);fill:#939598;}
	.st5{clip-path:url(#SVGID_6_);fill:none;stroke:#FFFFFF;stroke-width:0.75;stroke-miterlimit:10;}
	.st6{clip-path:url(#SVGID_6_);fill:#005BAA;}
	.st7{clip-path:url(#SVGID_6_);fill:#64BDE1;}
	.st8{clip-path:url(#SVGID_6_);fill:#003767;}
	.st9{clip-path:url(#SVGID_6_);fill:#8DC63F;}
	.st10{clip-path:url(#SVGID_4_);fill:#939598;}
	.st11{clip-path:url(#SVGID_4_);fill:none;stroke:#FFFFFF;stroke-width:0.75;stroke-miterlimit:10;}
	.st12{clip-path:url(#SVGID_4_);fill:#005BAA;}
	.st13{clip-path:url(#SVGID_4_);fill:#64BDE1;}
	.st14{clip-path:url(#SVGID_4_);fill:#003767;}
	.st15{clip-path:url(#SVGID_4_);fill:#8DC63F;}
	.st16{opacity:0.5;clip-path:url(#SVGID_4_);}
	.st17{clip-path:url(#SVGID_8_);fill:#FFFFFF;}
	.st18{clip-path:url(#SVGID_4_);fill:none;stroke:#FFFFFF;stroke-width:0.75;}
	.st19{clip-path:url(#SVGID_4_);fill:#FFFFFF;}
	.st20{clip-path:url(#SVGID_4_);fill:#231F20;}
	.st21{clip-path:url(#SVGID_4_);fill:none;stroke:#FFFFFF;stroke-width:0.5;stroke-miterlimit:10;}
</style>
<g>
	<defs>
		<rect id="SVGID_1_" width="229.61" height="145.77"/>
	</defs>
	<clipPath id="SVGID_2_">
		<use xlink:href="#SVGID_1_"  style="overflow:visible;"/>
	</clipPath>
	<g class="st0">
		<defs>
			<rect id="SVGID_3_" width="229.61" height="145.77"/>
		</defs>
		<clipPath id="SVGID_4_">
			<use xlink:href="#SVGID_3_"  style="overflow:visible;"/>
		</clipPath>
		<path class="st1" d="M222.37,3.52c-0.08-1.21-1.06-1.58-1.81-1.58c-0.99,0-1.83,0.62-1.83,1.65c0.01,0.82,0.61,1.18,1.37,1.41
			c0.97,0.32,1.38,0.5,1.39,1.04c0,0.46-0.39,0.81-0.89,0.81c-0.39,0-0.92-0.22-0.96-0.88h-1.03c0.05,1.24,1.12,1.73,1.98,1.73
			c1.08,0,1.96-0.72,1.94-1.78c-0.03-1.17-0.94-1.41-1.77-1.64c-0.58-0.16-0.97-0.36-0.99-0.79c-0.01-0.36,0.27-0.7,0.78-0.7
			c0.53-0.01,0.79,0.31,0.79,0.73H222.37z M215.08,7.54h1.04V4.6c0-1.08,0.51-1.62,1.49-1.62h0.07V1.94
			c-0.74,0.01-1.31,0.32-1.62,0.96V2.1h-0.98V7.54z M208.93,4.34c0.05-0.74,0.74-1.51,1.8-1.51c1.03-0.02,1.75,0.79,1.8,1.51H208.93
			z M213.56,5.15c0.09-0.91-0.18-1.76-0.82-2.41c-0.52-0.51-1.23-0.8-2.01-0.8c-1.65,0-2.87,1.33-2.87,2.89
			c0,1.44,1.1,2.87,2.88,2.87c0.55,0,1.09-0.15,1.55-0.46c0.46-0.3,0.84-0.75,1.1-1.35h-1.08c-0.3,0.57-0.84,0.92-1.57,0.92
			c-0.82,0-1.78-0.56-1.83-1.66H213.56z M201.58,4.81c0-1.02,0.76-1.9,1.91-1.9c0.53,0,1,0.2,1.34,0.54
			c0.34,0.33,0.55,0.8,0.55,1.34c0.02,0.54-0.18,1.02-0.53,1.37c-0.34,0.35-0.83,0.57-1.36,0.57
			C202.29,6.73,201.59,5.82,201.58,4.81L201.58,4.81z M206.36,0.14h-1.04v1.89v0.96c-0.22-0.43-0.9-1.05-2.01-1.05
			c-1.55,0-2.77,1.18-2.77,2.87c0,1.57,1.08,2.89,2.79,2.89c1.12,0,1.73-0.55,2.03-1.11v0.95h1V0.14z M197.95,7.54h1.04v-7.4h-1.04
			V7.54z M191.63,4.82c0-1.09,0.82-1.9,1.86-1.9c1.04,0,1.86,0.81,1.86,1.9c0,1.09-0.82,1.9-1.86,1.9c-1.04,0-1.86-0.81-1.86-1.89
			V4.82z M190.59,4.82c0,1.46,1.07,2.87,2.9,2.87c1.83,0,2.9-1.41,2.9-2.87c0-1.46-1.07-2.88-2.9-2.88
			C191.66,1.94,190.59,3.36,190.59,4.82L190.59,4.82z M184.04,7.54h1.04V4.47c0-0.37,0.1-0.76,0.33-1.05c0.22-0.29,0.6-0.5,1.15-0.5
			c0.54,0,0.9,0.18,1.14,0.48c0.22,0.3,0.31,0.73,0.31,1.22v2.92h1.05V4.57c0-0.75-0.13-1.4-0.47-1.87
			c-0.35-0.48-0.89-0.76-1.74-0.76c-0.71-0.01-1.45,0.28-1.77,0.92V2.01V0.14h-1.04V7.54z M177.89,4.34
			c0.05-0.74,0.74-1.51,1.8-1.51c1.03-0.02,1.75,0.79,1.8,1.51H177.89z M182.52,5.15c0.09-0.91-0.18-1.76-0.82-2.41
			c-0.52-0.51-1.23-0.8-2.01-0.8c-1.65,0-2.87,1.33-2.87,2.89c0,1.44,1.1,2.87,2.88,2.87c0.55,0,1.09-0.15,1.55-0.46
			c0.46-0.3,0.84-0.75,1.1-1.35h-1.08c-0.3,0.57-0.84,0.92-1.57,0.92c-0.82,0-1.78-0.56-1.83-1.66H182.52z M173.65,7.54h1.04V4.6
			c0-1.08,0.51-1.62,1.49-1.62h0.07V1.94c-0.74,0.01-1.31,0.32-1.62,0.96V2.1h-0.98V7.54z M166.97,4.83c0-1.02,0.74-1.92,1.88-1.92
			c0.87,0,1.48,0.49,1.74,1.12c0.12,0.25,0.17,0.53,0.16,0.81c-0.01,0.28-0.07,0.56-0.19,0.81c-0.27,0.62-0.86,1.08-1.69,1.08
			C167.55,6.73,166.98,5.65,166.97,4.83L166.97,4.83z M171.78,2.1h-1.04v0.96c-0.25-0.52-0.94-1.12-2.02-1.12
			c-1.58,0-2.79,1.22-2.79,2.88c0,1.52,1.04,2.88,2.79,2.88c0.86,0,1.64-0.38,2.02-1.11v0.95h1.04V2.1z M159.38,7.54h1.04V4.47
			c0-0.37,0.1-0.76,0.33-1.05c0.22-0.29,0.6-0.5,1.15-0.5c0.54,0,0.9,0.18,1.14,0.48c0.22,0.3,0.31,0.73,0.31,1.22v2.92h1.05V4.57
			c0-0.75-0.13-1.4-0.47-1.87c-0.35-0.48-0.89-0.76-1.74-0.76c-0.71-0.01-1.45,0.28-1.77,0.92V2.01V0.14h-1.04V7.54z M157.65,3.52
			c-0.08-1.21-1.06-1.58-1.81-1.58c-0.99,0-1.83,0.62-1.83,1.65c0.01,0.82,0.61,1.18,1.37,1.41c0.97,0.32,1.38,0.5,1.39,1.04
			c0,0.46-0.39,0.81-0.89,0.81c-0.39,0-0.92-0.22-0.96-0.88h-1.03c0.05,1.24,1.12,1.73,1.98,1.73c1.08,0,1.96-0.72,1.94-1.78
			c-0.03-1.17-0.94-1.41-1.77-1.64c-0.58-0.16-0.97-0.36-0.99-0.79c-0.01-0.36,0.27-0.7,0.78-0.7c0.53-0.01,0.79,0.31,0.79,0.73
			H157.65z M147.47,7.54h1.04V2.91h1V2.1h-1V1.78c0-0.95,0.65-0.95,1-0.96V0c-0.77,0.01-2.04,0.09-2.04,1.73V2.1h-0.74v0.81h0.74
			V7.54z M141.04,4.82c0-1.09,0.82-1.9,1.86-1.9c1.04,0,1.86,0.81,1.86,1.9c0,1.09-0.82,1.9-1.86,1.9c-1.04,0-1.86-0.81-1.86-1.89
			V4.82z M140,4.82c0,1.46,1.07,2.87,2.9,2.87c1.83,0,2.9-1.41,2.9-2.87c0-1.46-1.07-2.88-2.9-2.88C141.07,1.94,140,3.36,140,4.82
			L140,4.82z M130,7.54h1.04V4.51c0-0.94,0.47-1.58,1.49-1.59c1.06-0.01,1.44,0.69,1.44,1.67v2.95h1.05V4.35
			c0-1.13-0.46-2.39-2.2-2.41c-0.97-0.01-1.58,0.44-1.84,1V2.1H130V7.54z M123.68,4.82c0-1.09,0.82-1.9,1.86-1.9s1.86,0.81,1.86,1.9
			c0,1.09-0.82,1.9-1.86,1.9s-1.86-0.81-1.86-1.89V4.82z M122.64,4.82c0,1.46,1.07,2.87,2.9,2.87c1.83,0,2.9-1.41,2.9-2.87
			c0-1.46-1.07-2.88-2.9-2.88C123.71,1.94,122.64,3.36,122.64,4.82L122.64,4.82z M120.05,7.54h1.04V2.1h-1.04V7.54z M120.05,1.24
			h1.04v-1.1h-1.04V1.24z M116.68,7.54h1.04V2.91h1.05V2.1h-1.05V0.14h-1.04V2.1h-0.98v0.81h0.98V7.54z M114.43,2.1h-1.04v3.04
			c0,0.93-0.47,1.58-1.49,1.59c-1.07,0-1.45-0.7-1.45-1.68V2.1h-1.04v3.19c0,1.13,0.45,2.4,2.2,2.41c0.97,0.01,1.58-0.44,1.84-1
			v0.84h0.98V2.1z M106.84,4.82c-0.01,0.94-0.67,1.91-1.91,1.91c-1.11,0-1.85-0.88-1.85-1.92c0-1.03,0.76-1.9,1.88-1.9
			C106.03,2.91,106.84,3.75,106.84,4.82L106.84,4.82z M102.08,7.54h1V6.6c0.35,0.65,1.07,1.1,2,1.1c1.56,0,2.8-1.15,2.8-2.9
			c0-1.81-1.35-2.86-2.76-2.86c-0.7,0.01-1.5,0.32-2,1.03V2.11V0.14h-1.04V7.54z M99.18,7.54h1.04V2.1h-1.04V7.54z M99.18,1.24h1.04
			v-1.1h-1.04V1.24z M95.26,7.54h1.04V4.6c0-1.08,0.51-1.62,1.49-1.62h0.07V1.94c-0.74,0.01-1.31,0.32-1.62,0.96V2.1h-0.98V7.54z
			 M91.89,7.54h1.04V2.91h1.05V2.1h-1.05V0.14h-1.04V2.1h-0.98v0.81h0.98V7.54z M89.77,3.52c-0.08-1.21-1.06-1.58-1.81-1.58
			c-0.99,0-1.83,0.62-1.83,1.65C86.14,4.41,86.74,4.77,87.5,5c0.97,0.32,1.38,0.5,1.39,1.04c0,0.46-0.39,0.81-0.89,0.81
			c-0.39,0-0.92-0.22-0.96-0.88h-1.03c0.05,1.24,1.12,1.73,1.98,1.73c1.08,0,1.96-0.72,1.94-1.78c-0.03-1.17-0.94-1.41-1.77-1.64
			c-0.58-0.16-0.97-0.36-0.99-0.79c-0.01-0.36,0.27-0.7,0.78-0.7c0.53-0.01,0.79,0.31,0.79,0.73H89.77z M83.44,7.54h1.04V2.1h-1.04
			V7.54z M83.44,1.24h1.04v-1.1h-1.04V1.24z M76.78,4.81c0-1.02,0.76-1.9,1.91-1.9c0.53,0,1,0.2,1.34,0.54
			c0.34,0.33,0.55,0.8,0.55,1.34c0.02,0.54-0.18,1.02-0.53,1.37c-0.34,0.35-0.83,0.57-1.36,0.57C77.49,6.73,76.79,5.82,76.78,4.81
			L76.78,4.81z M81.56,0.14h-1.04v1.89v0.96c-0.22-0.43-0.9-1.05-2.01-1.05c-1.55,0-2.77,1.18-2.77,2.87c0,1.57,1.08,2.89,2.79,2.89
			c1.12,0,1.73-0.55,2.03-1.11v0.95h1V0.14z M70.02,5.63c-0.22,0.54-0.79,1.09-1.7,1.1c-1.04,0-1.86-0.79-1.86-1.91
			c0-0.55,0.21-1.06,0.53-1.38c0.38-0.36,0.78-0.54,1.33-0.53c0.74,0,1.42,0.41,1.7,1.14h1.07c-0.34-1.31-1.51-2.11-2.81-2.11
			c-1.63,0-2.86,1.27-2.86,2.88c0,1.51,1.13,2.88,2.91,2.88c1.36,0,2.43-0.89,2.76-2.07H70.02z M62.83,7.54h1.04V2.1h-1.04V7.54z
			 M62.83,1.24h1.04v-1.1h-1.04V1.24z M55.97,7.54h1.04V4.47c0-0.37,0.1-0.76,0.33-1.05c0.22-0.29,0.6-0.5,1.15-0.5
			c0.54,0,0.9,0.18,1.14,0.48c0.22,0.3,0.31,0.73,0.31,1.22v2.92h1.05V4.57c0-0.75-0.13-1.4-0.47-1.87
			c-0.35-0.48-0.89-0.76-1.74-0.76c-0.71-0.01-1.45,0.28-1.77,0.92V2.01V0.14h-1.04V7.54z M53.36,4.82c0,1.06-0.79,1.91-1.89,1.91
			c-0.53,0-1.01-0.21-1.35-0.55c-0.34-0.34-0.54-0.81-0.54-1.35c0-0.54,0.2-1.02,0.53-1.36c0.34-0.35,0.81-0.56,1.35-0.56
			C52.73,2.91,53.36,3.92,53.36,4.82L53.36,4.82z M48.59,9.52h1.04V7.54v-0.9c0.24,0.44,0.91,1.06,2.04,1.06
			c1.63,0,2.74-1.31,2.74-2.85c0-1.35-0.88-2.91-2.75-2.91c-0.97,0-1.67,0.46-2.08,1.11V2.1h-0.99V9.52z M41.91,4.83
			c0-1.02,0.74-1.92,1.88-1.92c0.87,0,1.48,0.49,1.74,1.12c0.12,0.25,0.17,0.53,0.16,0.81c-0.01,0.28-0.07,0.56-0.19,0.81
			c-0.27,0.62-0.86,1.08-1.69,1.08C42.49,6.73,41.92,5.65,41.91,4.83L41.91,4.83z M46.72,2.1h-1.04v0.96
			c-0.25-0.52-0.94-1.12-2.02-1.12c-1.58,0-2.79,1.22-2.79,2.88c0,1.52,1.04,2.88,2.79,2.88c0.86,0,1.64-0.38,2.02-1.11v0.95h1.04
			V2.1z M37.65,7.54h1.04V4.6c0-1.08,0.51-1.62,1.49-1.62h0.07V1.94c-0.74,0.01-1.31,0.32-1.62,0.96V2.1h-0.98V7.54z M31.03,4.81
			c0-1.12,0.85-1.89,1.88-1.89c0.66,0,1.13,0.26,1.43,0.64c0.3,0.37,0.44,0.86,0.44,1.29c-0.01,0.53-0.21,1-0.53,1.33
			c-0.33,0.34-0.79,0.55-1.34,0.55C31.76,6.73,31.03,5.84,31.03,4.81L31.03,4.81z M35.8,2.1h-1.04v0.92
			c-0.3-0.6-1.05-1.08-1.96-1.08c-1.58,0-2.81,1.2-2.81,2.9c0,1.62,1.18,2.86,2.81,2.86c0.98,0,1.64-0.51,1.96-1.12v0.56
			c0,1.22-0.94,1.89-1.85,1.89c-0.24,0-0.61-0.07-0.94-0.29c-0.27-0.17-0.48-0.39-0.6-0.63h-1.2c0.26,0.91,1.16,1.81,2.7,1.81
			c0.94,0,1.79-0.41,2.29-0.99c0.4-0.46,0.64-1.07,0.64-2.02V2.1z M23.98,4.82c0-1.09,0.82-1.9,1.86-1.9c1.04,0,1.86,0.81,1.86,1.9
			c0,1.09-0.82,1.9-1.86,1.9c-1.04,0-1.86-0.81-1.86-1.89V4.82z M22.94,4.82c0,1.46,1.07,2.87,2.9,2.87c1.83,0,2.9-1.41,2.9-2.87
			c0-1.46-1.07-2.88-2.9-2.88C24.01,1.94,22.94,3.36,22.94,4.82L22.94,4.82z M17.1,4.34c0.05-0.74,0.74-1.51,1.8-1.51
			c1.03-0.02,1.75,0.79,1.8,1.51H17.1z M21.73,5.15c0.09-0.91-0.18-1.76-0.82-2.41c-0.52-0.51-1.23-0.8-2.01-0.8
			c-1.65,0-2.87,1.33-2.87,2.89c0,1.44,1.1,2.87,2.88,2.87c0.55,0,1.09-0.15,1.55-0.46c0.46-0.3,0.84-0.75,1.1-1.35h-1.08
			c-0.3,0.57-0.84,0.92-1.57,0.92c-0.82,0-1.78-0.56-1.83-1.66H21.73z M14.52,2.24C13.99,0.96,12.56,0,10.97,0
			c-2.15,0-3.9,1.61-3.9,3.82c0,2.17,1.7,3.86,3.89,3.86c1.4,0,2.93-0.74,3.61-2.21c0.25-0.55,0.33-1.19,0.33-1.66h-4.56v0.96h3.19
			c-0.11,0.51-0.42,0.98-0.87,1.32c-0.44,0.34-1.03,0.55-1.71,0.55c-1.39,0-2.71-1.04-2.71-2.82c0-1.72,1.31-2.78,2.71-2.78
			c0.61,0,1.13,0.19,1.56,0.5c0.26,0.19,0.49,0.43,0.68,0.7H14.52z"/>
		<line class="st2" x1="0" y1="144.27" x2="229.61" y2="144.27"/>
		<g class="st3">
			<g>
				<defs>
					<rect id="SVGID_5_" x="-17" y="25.12" width="124.71" height="104.71"/>
				</defs>
				<clipPath id="SVGID_6_">
					<use xlink:href="#SVGID_5_"  style="overflow:visible;"/>
				</clipPath>
				<path class="st4" d="M45.23,83.04L21.63,45.26c7.34-4.59,14.95-6.77,23.61-6.77V83.04z"/>
				<path class="st5" d="M45.23,83.04L21.63,45.26c7.34-4.59,14.95-6.77,23.61-6.77V83.04z"/>
				<path class="st6" d="M44.94,83.04L8.14,58.22c3.58-5.31,7.85-9.43,13.28-12.82L44.94,83.04z"/>
				<path class="st5" d="M44.94,83.04L8.14,58.22c3.58-5.31,7.85-9.43,13.28-12.82L44.94,83.04z"/>
				<path class="st7" d="M44.93,83.33L0.41,81.78C0.71,73.02,3.1,65.68,8,58.42L44.93,83.33z"/>
				<path class="st5" d="M44.93,83.33L0.41,81.78C0.71,73.02,3.1,65.68,8,58.42L44.93,83.33z"/>
				<path class="st8" d="M45.33,83.59l42.24,15.34c-8.49,23.28-34.29,35.28-57.62,26.81C11.34,118.98-0.29,101.78,0.4,82.02
					L45.33,83.59z"/>
				<path class="st5" d="M45.33,83.59l42.24,15.34c-8.49,23.28-34.29,35.28-57.62,26.81C11.34,118.98-0.29,101.78,0.4,82.02
					L45.33,83.59z"/>
				<path class="st9" d="M45.48,83.38V38.5c24.77,0,44.85,20.1,44.85,44.89c0,5.73-0.75,9.97-2.7,15.35L45.48,83.38z"/>
				<path class="st5" d="M45.48,83.38V38.5c24.77,0,44.85,20.1,44.85,44.89c0,5.73-0.75,9.97-2.7,15.35L45.48,83.38z"/>
			</g>
		</g>
		<path class="st10" d="M45.22,82.98L23.14,47.66c6.87-4.29,13.98-6.33,22.08-6.33V82.98z"/>
		<path class="st11" d="M45.22,82.98L23.14,47.66c6.87-4.29,13.98-6.33,22.08-6.33V82.98z"/>
		<path class="st12" d="M44.89,82.99l-34.4-23.2c3.34-4.96,7.34-8.82,12.41-11.98L44.89,82.99z"/>
		<path class="st11" d="M44.89,82.99l-34.4-23.2c3.34-4.96,7.34-8.82,12.41-11.98L44.89,82.99z"/>
		<path class="st13" d="M44.88,83.31L3.24,81.86c0.29-8.18,2.52-15.05,7.1-21.84L44.88,83.31z"/>
		<path class="st11" d="M44.88,83.31L3.24,81.86c0.29-8.18,2.52-15.05,7.1-21.84L44.88,83.31z"/>
		<path class="st14" d="M45.33,83.6l39.58,14.37c-7.96,21.8-32.13,33.04-53.98,25.11c-17.44-6.33-28.34-22.44-27.69-40.94
			L45.33,83.6z"/>
		<path class="st11" d="M45.33,83.6l39.58,14.37c-7.96,21.8-32.13,33.04-53.98,25.11c-17.44-6.33-28.34-22.44-27.69-40.94
			L45.33,83.6z"/>
		<path class="st15" d="M45.49,83.37V41.33c23.2,0,42.01,18.82,42.01,42.04c0,5.36-0.7,9.34-2.53,14.38L45.49,83.37z"/>
		<path class="st11" d="M45.49,83.37V41.33c23.2,0,42.01,18.82,42.01,42.04c0,5.36-0.7,9.34-2.53,14.38L45.49,83.37z"/>
		<g class="st16">
			<g>
				<defs>
					<rect id="SVGID_7_" x="3.07" y="43.19" width="84.57" height="74.57"/>
				</defs>
				<clipPath id="SVGID_8_">
					<use xlink:href="#SVGID_7_"  style="overflow:visible;"/>
				</clipPath>
				<path class="st17" d="M45.35,116.39c18.18,0,32.91-14.74,32.91-32.91c0-18.18-14.73-32.91-32.91-32.91S12.44,65.3,12.44,83.47
					C12.44,101.65,27.18,116.39,45.35,116.39"/>
			</g>
		</g>
		<path class="st18" d="M45.35,116.39c18.18,0,32.91-14.74,32.91-32.91c0-18.18-14.73-32.91-32.91-32.91S12.44,65.3,12.44,83.47
			C12.44,101.65,27.18,116.39,45.35,116.39z"/>
		<path class="st19" d="M45.35,113.24c16.44,0,29.76-13.33,29.76-29.76S61.79,53.71,45.35,53.71S15.59,67.04,15.59,83.47
			S28.92,113.24,45.35,113.24"/>
		<path class="st20" d="M188.69,106.26v-0.17c0-0.47-0.22-1.03-1.18-1.03c-0.78,0-1.29,0.33-1.29,1.04c0,0.6,0.24,0.89,0.8,1.09
			l0.62,0.22c0.27,0.09,0.41,0.27,0.41,0.55c0,0.34-0.2,0.55-0.62,0.55c-0.43,0-0.59-0.24-0.59-0.67v-0.12h-0.67v0.14
			c0,0.73,0.29,1.17,1.24,1.17c0.76,0,1.35-0.34,1.35-1.15c0-0.6-0.26-0.9-0.82-1.08l-0.48-0.17c-0.4-0.14-0.53-0.26-0.53-0.55
			c0-0.35,0.24-0.49,0.54-0.49c0.39,0,0.5,0.28,0.5,0.58v0.1H188.69z M183.76,106.62v-0.08c0-0.49,0.15-0.97,0.63-0.97
			c0.43,0,0.58,0.36,0.58,0.84v0.2H183.76z M185.73,107.14v-0.4c0-1.05-0.28-1.68-1.33-1.68c-1.18,0-1.39,1.05-1.39,2.04
			c0,1.74,0.76,1.92,1.38,1.92c0.82,0,1.32-0.53,1.32-1.36H185c0,0.22-0.06,0.84-0.6,0.84c-0.57,0-0.63-0.64-0.63-1.15v-0.22H185.73
			z M181.59,104.62h0.76v-0.75h-0.76V104.62z M181.59,108.92h0.76v-3.76h-0.76V108.92z M179.35,108.92h0.76v-2.25
			c0-0.7,0.41-0.85,0.76-0.85c0.13,0,0.26,0.03,0.32,0.04v-0.77c-0.05-0.01-0.1-0.03-0.18-0.03c-0.43,0-0.71,0.27-0.88,0.69h-0.01
			v-0.59h-0.76V108.92z M177.07,105.72h0.52v2.34c0,0.77,0.25,0.91,0.76,0.91c0.24,0,0.45-0.02,0.61-0.06v-0.56
			c-0.07,0.01-0.16,0.02-0.27,0.02c-0.26,0-0.34-0.11-0.34-0.4v-2.25h0.62v-0.56h-0.62v-1.07h-0.76v1.07h-0.52V105.72z
			 M174.04,108.92h0.75v-2.53c0-0.49,0.3-0.74,0.6-0.74c0.38,0,0.52,0.19,0.52,0.68v2.58h0.76v-2.84c0-0.76-0.36-1.02-0.94-1.02
			c-0.42,0-0.78,0.2-0.97,0.54h-0.02v-0.44h-0.71V108.92z M172.6,108.92h0.71v-3.77h-0.76v2.63c0,0.42-0.29,0.63-0.62,0.63
			c-0.32,0-0.51-0.14-0.51-0.56v-2.7h-0.76v2.63c0,0.97,0.38,1.23,0.94,1.23c0.42,0,0.78-0.2,0.97-0.54h0.02V108.92z M168.04,107.04
			c0-0.83,0.1-1.42,0.64-1.42c0.55,0,0.65,0.59,0.65,1.42c0,0.96-0.1,1.42-0.65,1.42C168.14,108.46,168.04,108,168.04,107.04
			 M167.29,107.04c0,1.17,0.36,1.98,1.4,1.98c1.05,0,1.41-0.81,1.41-1.98c0-1.17-0.31-1.98-1.41-1.98
			C167.59,105.06,167.29,105.87,167.29,107.04 M166.15,107.55c0,0.57-0.15,0.92-0.57,0.91c-0.55,0-0.64-0.59-0.64-1.42
			c0-0.83,0.1-1.42,0.64-1.42c0.44-0.01,0.54,0.44,0.54,0.79h0.76c0-0.47-0.17-1.37-1.29-1.35c-1.09,0-1.4,0.81-1.4,1.98
			c0,1.17,0.31,1.98,1.4,1.98c0.93,0,1.24-0.57,1.29-1.47H166.15z M160.44,108.92h0.76v-2.25c0-0.7,0.41-0.85,0.76-0.85
			c0.13,0,0.26,0.03,0.32,0.04v-0.77c-0.05-0.01-0.1-0.03-0.18-0.03c-0.43,0-0.71,0.27-0.88,0.69h-0.01v-0.59h-0.76V108.92z
			 M157.85,106.62v-0.08c0-0.49,0.15-0.97,0.63-0.97c0.43,0,0.58,0.36,0.58,0.84v0.2H157.85z M159.82,107.14v-0.4
			c0-1.05-0.28-1.68-1.33-1.68c-1.18,0-1.39,1.05-1.39,2.04c0,1.74,0.76,1.92,1.38,1.92c0.82,0,1.32-0.53,1.32-1.36h-0.71
			c0,0.22-0.06,0.84-0.6,0.84c-0.57,0-0.63-0.64-0.63-1.15v-0.22H159.82z M153.83,108.92h0.76v-2.53c0-0.49,0.29-0.74,0.6-0.74
			c0.38,0,0.53,0.19,0.53,0.68v2.58h0.75v-2.84c0-0.76-0.36-1.02-0.94-1.02c-0.39,0-0.71,0.2-0.93,0.52l-0.02-0.01v-1.64h-0.76
			V108.92z M151.55,105.72h0.52v2.34c0,0.77,0.25,0.91,0.76,0.91c0.24,0,0.45-0.02,0.61-0.06v-0.56c-0.07,0.01-0.16,0.02-0.27,0.02
			c-0.26,0-0.34-0.11-0.34-0.4v-2.25h0.62v-0.56h-0.62v-1.07h-0.75v1.07h-0.52V105.72z M149.58,108.42c-0.48,0-0.85-0.29-0.85-2.02
			c0-1.68,0.38-1.97,0.85-1.97c0.48,0,0.86,0.29,0.86,1.97C150.43,108.12,150.05,108.42,149.58,108.42 M149.58,109.02
			c1.15,0,1.65-0.81,1.65-2.6s-0.5-2.6-1.65-2.6c-1.15,0-1.65,0.81-1.65,2.6S148.43,109.02,149.58,109.02 M141.06,102.26h-0.7
			l-3.37,6.66h0.7L141.06,102.26z M139.91,107.49c0-0.51,0.38-0.9,0.9-0.9c0.51,0,0.88,0.38,0.88,0.9s-0.38,0.91-0.88,0.91
			C140.29,108.4,139.91,108,139.91,107.49L139.91,107.49z M139.26,107.49c0,0.89,0.68,1.56,1.56,1.56c0.86,0,1.55-0.67,1.55-1.56
			c0-0.87-0.68-1.56-1.55-1.56C139.93,105.94,139.26,106.62,139.26,107.49L139.26,107.49z M136.4,103.69c0-0.52,0.37-0.91,0.88-0.91
			c0.51,0,0.89,0.39,0.89,0.9c0,0.52-0.39,0.91-0.89,0.91C136.77,104.59,136.4,104.2,136.4,103.69L136.4,103.69z M135.74,103.69
			c0,0.87,0.68,1.55,1.55,1.55c0.87,0,1.55-0.67,1.55-1.55c0-0.87-0.67-1.56-1.55-1.56C136.41,102.14,135.74,102.82,135.74,103.69
			L135.74,103.69z M134.19,104.46c0,0.94-0.73,1.41-1.39,1.41c-0.71,0-1.35-0.56-1.35-1.4c0-0.78,0.59-1.4,1.38-1.4
			C133.6,103.07,134.19,103.66,134.19,104.46L134.19,104.46z M132.83,108.92l1.82-2.65c0.31-0.46,0.59-1.01,0.59-1.73
			c0-0.5-0.14-1.12-0.54-1.58c-0.41-0.51-1.09-0.83-1.89-0.83c-1.35,0-2.41,1.04-2.41,2.42c0,1.43,1.07,2.26,2.13,2.26
			c0.28,0,0.57-0.1,0.68-0.17c-0.1,0.14-0.21,0.29-0.31,0.43l-1.29,1.85H132.83z M129.32,107.75h-0.98v1.17h0.98V107.75z
			 M123.64,106.91c0-0.64,0.49-1.21,1.19-1.21c0.69,0,1.19,0.57,1.19,1.21c0,0.63-0.5,1.21-1.19,1.21
			C124.13,108.11,123.64,107.54,123.64,106.91L123.64,106.91z M123.89,103.95c0-0.53,0.42-0.94,0.94-0.94
			c0.51,0,0.94,0.41,0.94,0.94c0,0.53-0.42,0.93-0.94,0.93C124.31,104.87,123.89,104.48,123.89,103.95L123.89,103.95z
			 M122.86,103.86c0,0.69,0.43,1.14,0.8,1.35c-0.71,0.29-1.07,0.95-1.08,1.7c0.01,1.22,0.95,2.13,2.25,2.13
			c1.29,0,2.23-0.92,2.24-2.13c0-0.76-0.37-1.42-1.07-1.7c0.37-0.21,0.79-0.66,0.79-1.35c0-0.89-0.72-1.73-1.96-1.73
			C123.58,102.14,122.86,102.99,122.86,103.86L122.86,103.86z"/>
		<path class="st20" d="M164.19,95.62v-0.08c0-0.49,0.15-0.97,0.63-0.97c0.43,0,0.58,0.36,0.58,0.84v0.2H164.19z M166.16,96.14v-0.4
			c0-1.05-0.28-1.68-1.33-1.68c-1.18,0-1.39,1.05-1.39,2.04c0,1.74,0.76,1.93,1.38,1.93c0.82,0,1.32-0.52,1.32-1.36h-0.71
			c0,0.22-0.06,0.84-0.6,0.84c-0.57,0-0.63-0.65-0.63-1.15v-0.22H166.16z M160.89,96c0-0.81,0.12-1.34,0.64-1.34
			c0.52,0,0.64,0.54,0.64,1.39c0,1.04-0.2,1.37-0.63,1.37C161,97.42,160.89,96.9,160.89,96 M160.17,99.15h0.76v-1.67h0.01
			c0.14,0.33,0.45,0.54,0.85,0.54c0.52,0,1.16-0.35,1.16-1.93c0-1.29-0.35-2.03-1.21-2.03c-0.41,0-0.69,0.22-0.85,0.56h-0.01v-0.46
			h-0.71V99.15z M157.54,96.04c0-0.83,0.1-1.42,0.65-1.42c0.55,0,0.65,0.59,0.65,1.42c0,0.96-0.1,1.42-0.65,1.42
			C157.64,97.46,157.54,97,157.54,96.04 M156.79,96.04c0,1.17,0.36,1.98,1.4,1.98c1.05,0,1.41-0.81,1.41-1.98
			c0-1.17-0.31-1.98-1.41-1.98C157.09,94.06,156.79,94.87,156.79,96.04 M154.73,97.92h0.76v-2.25c0-0.7,0.41-0.85,0.76-0.85
			c0.13,0,0.26,0.03,0.32,0.04v-0.77c-0.05-0.01-0.1-0.03-0.18-0.03c-0.43,0-0.71,0.27-0.88,0.68h-0.01v-0.59h-0.76V97.92z
			 M153.29,97.92H154v-3.76h-0.76v2.63c0,0.42-0.29,0.63-0.62,0.63c-0.32,0-0.51-0.14-0.51-0.56v-2.7h-0.75v2.63
			c0,0.97,0.38,1.23,0.94,1.23c0.42,0,0.78-0.2,0.97-0.54h0.02V97.92z M148.04,97.92h2.76v-0.67h-1.96v-1.6h1.79v-0.67h-1.79V93.6
			h1.9v-0.67h-2.7V97.92z M141.06,91.26h-0.7L137,97.92h0.7L141.06,91.26z M139.91,96.49c0-0.51,0.38-0.9,0.9-0.9
			c0.5,0,0.88,0.38,0.88,0.9c0,0.52-0.38,0.91-0.88,0.91C140.29,97.4,139.91,97.01,139.91,96.49L139.91,96.49z M139.26,96.49
			c0,0.89,0.68,1.56,1.56,1.56c0.86,0,1.55-0.67,1.55-1.56c0-0.87-0.68-1.56-1.55-1.56C139.93,94.94,139.26,95.62,139.26,96.49
			L139.26,96.49z M136.4,92.69c0-0.52,0.37-0.91,0.88-0.91s0.89,0.39,0.89,0.9c0,0.52-0.39,0.91-0.89,0.91
			C136.77,93.59,136.4,93.2,136.4,92.69L136.4,92.69z M135.74,92.69c0,0.87,0.68,1.55,1.55,1.55c0.87,0,1.55-0.67,1.55-1.55
			c0-0.87-0.67-1.56-1.55-1.56C136.41,91.14,135.74,91.82,135.74,92.69L135.74,92.69z M131.43,95.73c0-0.94,0.74-1.42,1.38-1.42
			c0.72,0,1.37,0.56,1.37,1.41c0,0.77-0.59,1.4-1.39,1.4C132.03,97.11,131.43,96.53,131.43,95.73L131.43,95.73z M132.8,91.26
			l-1.82,2.65c-0.31,0.46-0.59,1.01-0.59,1.73c0,0.5,0.15,1.12,0.55,1.58c0.41,0.51,1.08,0.83,1.89,0.83c1.35,0,2.41-1.04,2.41-2.42
			c0-1.43-1.08-2.26-2.13-2.26c-0.28,0-0.57,0.1-0.68,0.17c0.11-0.15,0.21-0.3,0.31-0.43l1.29-1.85H132.8z M129.32,96.75h-0.98v1.17
			h0.98V96.75z M123.45,95.73c0-0.94,0.74-1.42,1.38-1.42c0.72,0,1.37,0.56,1.37,1.41c0,0.77-0.6,1.4-1.39,1.4
			C124.05,97.11,123.45,96.53,123.45,95.73L123.45,95.73z M124.82,91.26L123,93.92c-0.31,0.46-0.59,1.01-0.59,1.73
			c0,0.5,0.15,1.12,0.55,1.58c0.41,0.51,1.08,0.83,1.89,0.83c1.35,0,2.41-1.04,2.41-2.42c0-1.43-1.08-2.26-2.13-2.26
			c-0.28,0-0.57,0.1-0.68,0.17c0.11-0.15,0.21-0.3,0.31-0.43l1.29-1.85H124.82z"/>
		<path class="st20" d="M221,85.08c0,0.8-0.12,1.34-0.64,1.34c-0.52,0-0.64-0.54-0.64-1.39c0-1.02,0.15-1.37,0.59-1.37
			C220.89,83.66,221,84.18,221,85.08 M221,86.92h0.71v-5h-0.75v1.67h-0.01c-0.14-0.34-0.45-0.54-0.85-0.54
			c-0.57,0-1.16,0.26-1.16,1.93c0,1.29,0.35,2.03,1.23,2.03c0.54,0,0.73-0.31,0.83-0.56H221V86.92z M215.7,86.92h0.75V84.4
			c0-0.49,0.29-0.74,0.6-0.74c0.38,0,0.53,0.19,0.53,0.68v2.58h0.76v-2.84c0-0.76-0.36-1.02-0.94-1.02c-0.42,0-0.78,0.2-0.97,0.54
			h-0.02v-0.44h-0.71V86.92z M214.22,85.57c0,0.55-0.22,0.89-0.68,0.89c-0.32,0-0.47-0.25-0.47-0.57c0-0.28,0.09-0.5,0.31-0.61
			c0.22-0.1,0.65-0.19,0.84-0.35V85.57z M214.93,83.99c0-0.67-0.53-0.93-1.2-0.93c-0.99,0-1.32,0.44-1.32,1.25h0.71
			c0-0.37,0.07-0.73,0.57-0.73c0.4,0,0.52,0.22,0.52,0.57c0,0.33-0.17,0.41-0.44,0.48l-0.59,0.16c-0.51,0.17-0.87,0.34-0.87,1.18
			c0,0.72,0.38,1.06,0.98,1.06c0.44,0,0.74-0.18,0.94-0.55h0.01c0.02,0.36,0.3,0.5,0.64,0.5c0.15,0,0.28-0.05,0.37-0.09v-0.49
			c-0.03,0.01-0.08,0.02-0.13,0.02c-0.11,0-0.2-0.13-0.2-0.26V83.99z M210.94,86.92h0.76v-5h-0.76V86.92z M208.32,84.62v-0.08
			c0-0.49,0.15-0.97,0.63-0.97c0.43,0,0.58,0.36,0.58,0.84v0.2H208.32z M210.29,85.14v-0.4c0-1.05-0.28-1.68-1.33-1.68
			c-1.18,0-1.39,1.05-1.39,2.04c0,1.74,0.76,1.93,1.38,1.93c0.82,0,1.32-0.52,1.32-1.36h-0.71c0,0.22-0.06,0.84-0.6,0.84
			c-0.57,0-0.63-0.64-0.63-1.15v-0.22H210.29z M205.51,86.92h0.76v-2.25c0-0.7,0.41-0.86,0.76-0.86c0.13,0,0.26,0.03,0.32,0.04
			v-0.77c-0.05-0.01-0.1-0.03-0.18-0.03c-0.43,0-0.71,0.27-0.88,0.69h-0.01v-0.59h-0.76V86.92z M203.97,86.92h0.8v-5h-0.8V86.92z
			 M200.83,85.08c0,0.8-0.12,1.34-0.64,1.34c-0.53,0-0.64-0.54-0.64-1.39c0-1.02,0.15-1.37,0.59-1.37
			C200.72,83.66,200.83,84.18,200.83,85.08 M200.83,86.92h0.71v-5h-0.76v1.67h-0.01c-0.14-0.34-0.45-0.54-0.85-0.54
			c-0.57,0-1.16,0.26-1.16,1.93c0,1.29,0.35,2.03,1.23,2.03c0.54,0,0.73-0.31,0.83-0.56h0.01V86.92z M195.54,86.92h0.76V84.4
			c0-0.49,0.29-0.74,0.6-0.74c0.38,0,0.52,0.19,0.52,0.68v2.58h0.76v-2.84c0-0.76-0.36-1.02-0.94-1.02c-0.42,0-0.78,0.2-0.97,0.54
			h-0.02v-0.44h-0.71V86.92z M194.05,85.57c0,0.55-0.22,0.89-0.68,0.89c-0.32,0-0.47-0.25-0.47-0.57c0-0.28,0.09-0.5,0.31-0.61
			c0.22-0.1,0.64-0.19,0.84-0.35V85.57z M194.77,83.99c0-0.67-0.53-0.93-1.2-0.93c-0.99,0-1.32,0.44-1.32,1.25h0.71
			c0-0.37,0.07-0.73,0.57-0.73c0.4,0,0.52,0.22,0.52,0.57c0,0.33-0.17,0.41-0.44,0.48l-0.59,0.16c-0.51,0.17-0.87,0.34-0.87,1.18
			c0,0.72,0.38,1.06,0.98,1.06c0.44,0,0.74-0.18,0.94-0.55h0.01c0.02,0.36,0.3,0.5,0.64,0.5c0.15,0,0.28-0.05,0.37-0.09v-0.49
			c-0.03,0.01-0.08,0.02-0.13,0.02c-0.11,0-0.2-0.13-0.2-0.26V83.99z M185.47,86.92h0.76V84.4c0-0.49,0.29-0.74,0.6-0.74
			c0.32,0,0.46,0.19,0.46,0.68v2.58h0.76V84.4c0-0.49,0.29-0.74,0.6-0.74s0.46,0.19,0.46,0.68v2.58h0.76v-2.86c0-0.73-0.39-1-0.92-1
			c-0.46,0-0.74,0.21-0.95,0.57c-0.11-0.31-0.34-0.57-0.88-0.57c-0.36,0-0.71,0.2-0.9,0.54h-0.02v-0.44h-0.71V86.92z M182.8,85.04
			c0-0.83,0.1-1.42,0.64-1.42c0.55,0,0.65,0.59,0.65,1.42c0,0.96-0.1,1.42-0.65,1.42C182.9,86.46,182.8,86,182.8,85.04
			 M182.05,85.04c0,1.17,0.36,1.98,1.4,1.98c1.05,0,1.41-0.81,1.41-1.98c0-1.17-0.31-1.98-1.41-1.98
			C182.36,83.06,182.05,83.87,182.05,85.04 M180.75,85.08c0,0.8-0.12,1.34-0.64,1.34c-0.52,0-0.64-0.54-0.64-1.39
			c0-1.02,0.15-1.37,0.59-1.37C180.65,83.66,180.75,84.18,180.75,85.08 M180.75,86.92h0.71v-5h-0.76v1.67h-0.01
			c-0.14-0.34-0.45-0.54-0.85-0.54c-0.57,0-1.16,0.26-1.16,1.93c0,1.29,0.35,2.03,1.23,2.03c0.54,0,0.73-0.31,0.83-0.56h0.01V86.92z
			 M176.16,84.92c0-0.7,0.09-1.26,0.64-1.26c0.53,0,0.6,0.68,0.6,1.3c0,0.6-0.06,1.34-0.65,1.34
			C176.19,86.29,176.16,85.57,176.16,84.92 M175.5,87.24c0,0.31,0.12,0.97,1.25,0.97c1.01,0,1.41-0.55,1.41-1.47v-3.58h-0.71v0.46
			h-0.01c-0.07-0.27-0.39-0.56-0.83-0.56c-1.07,0-1.2,1.11-1.2,1.94c0,1.03,0.24,1.9,1.13,1.9c0.36,0,0.71-0.19,0.86-0.52h0.01v0.61
			c0,0.43-0.25,0.71-0.64,0.71c-0.34,0-0.55-0.22-0.55-0.45H175.5z M172.1,86.92h0.76V84.4c0-0.49,0.29-0.74,0.6-0.74
			c0.38,0,0.53,0.19,0.53,0.68v2.58h0.76v-2.84c0-0.76-0.36-1.02-0.94-1.02c-0.42,0-0.78,0.2-0.97,0.54h-0.02v-0.44h-0.71V86.92z
			 M170.58,82.62h0.76v-0.75h-0.76V82.62z M170.58,86.92h0.76v-3.76h-0.76V86.92z M166.96,86.92h0.8v-1.62l0.44-0.63l1.21,2.25h0.9
			l-1.6-2.89l1.44-2.11h-0.88l-1.51,2.18h-0.01v-2.18h-0.8V86.92z M163.79,85.08c0,0.8-0.12,1.34-0.64,1.34
			c-0.53,0-0.64-0.54-0.64-1.39c0-1.02,0.15-1.37,0.59-1.37C163.68,83.66,163.79,84.18,163.79,85.08 M163.79,86.92h0.71v-5h-0.76
			v1.67h-0.01c-0.14-0.34-0.45-0.54-0.85-0.54c-0.57,0-1.16,0.26-1.16,1.93c0,1.29,0.35,2.03,1.23,2.03c0.54,0,0.73-0.31,0.83-0.56
			h0.01V86.92z M159.27,84.62v-0.08c0-0.49,0.15-0.97,0.63-0.97c0.43,0,0.58,0.36,0.58,0.84v0.2H159.27z M161.24,85.14v-0.4
			c0-1.05-0.28-1.68-1.33-1.68c-1.18,0-1.39,1.05-1.39,2.04c0,1.74,0.76,1.93,1.38,1.93c0.82,0,1.32-0.52,1.32-1.36h-0.71
			c0,0.22-0.06,0.84-0.6,0.84c-0.57,0-0.63-0.64-0.63-1.15v-0.22H161.24z M156.34,83.72h0.52v2.34c0,0.77,0.25,0.91,0.76,0.91
			c0.24,0,0.45-0.02,0.61-0.06v-0.56c-0.07,0.01-0.16,0.02-0.27,0.02c-0.26,0-0.34-0.11-0.34-0.4v-2.25h0.62v-0.56h-0.62v-1.07
			h-0.76v1.07h-0.52V83.72z M155.16,82.62h0.76v-0.75h-0.76V82.62z M155.16,86.92h0.76v-3.76h-0.76V86.92z M151.75,86.92h0.75V84.4
			c0-0.49,0.3-0.74,0.6-0.74c0.38,0,0.52,0.19,0.52,0.68v2.58h0.76v-2.84c0-0.76-0.36-1.02-0.94-1.02c-0.42,0-0.78,0.2-0.97,0.54
			h-0.02v-0.44h-0.71V86.92z M147.98,81.93v3.52c0,1.15,0.57,1.57,1.53,1.57c0.95,0,1.52-0.42,1.52-1.57v-3.52h-0.8v3.58
			c0,0.63-0.25,0.91-0.73,0.91c-0.48,0-0.74-0.28-0.74-0.91v-3.58H147.98z M141.06,80.26h-0.7L137,86.92h0.7L141.06,80.26z
			 M139.91,85.49c0-0.51,0.38-0.9,0.9-0.9c0.5,0,0.88,0.38,0.88,0.9c0,0.52-0.38,0.91-0.88,0.91C140.29,86.4,139.91,86,139.91,85.49
			L139.91,85.49z M139.26,85.49c0,0.89,0.68,1.56,1.56,1.56c0.86,0,1.55-0.67,1.55-1.56c0-0.87-0.68-1.56-1.55-1.56
			C139.93,83.93,139.26,84.62,139.26,85.49L139.26,85.49z M136.4,81.69c0-0.52,0.37-0.91,0.88-0.91s0.89,0.39,0.89,0.9
			c0,0.52-0.39,0.91-0.89,0.91C136.77,82.59,136.4,82.2,136.4,81.69L136.4,81.69z M135.74,81.69c0,0.87,0.68,1.55,1.55,1.55
			c0.87,0,1.55-0.67,1.55-1.55c0-0.87-0.67-1.56-1.55-1.56C136.41,80.14,135.74,80.82,135.74,81.69L135.74,81.69z M131.53,82.49
			c0-0.77,0.46-1.41,1.26-1.41c1.03,0,1.29,0.87,1.29,1.39v2.27c0,0.76-0.55,1.39-1.27,1.39c-0.79,0-1.28-0.63-1.28-1.39V82.49z
			 M130.48,84.7c0,1.77,1.47,2.35,2.35,2.35c0.84,0,2.31-0.56,2.31-2.35v-2.21c0-1.67-1.33-2.35-2.33-2.35
			c-0.75,0-2.33,0.46-2.33,2.38V84.7z M129.32,85.75h-0.98v1.17h0.98V85.75z M126.21,82.46c0,0.94-0.73,1.41-1.39,1.41
			c-0.71,0-1.35-0.56-1.35-1.4c0-0.78,0.6-1.4,1.38-1.4C125.62,81.07,126.21,81.66,126.21,82.46L126.21,82.46z M124.85,86.92
			l1.82-2.65c0.31-0.46,0.58-1.01,0.58-1.73c0-0.5-0.14-1.12-0.54-1.58c-0.41-0.51-1.09-0.83-1.89-0.83c-1.35,0-2.41,1.04-2.41,2.42
			c0,1.43,1.07,2.26,2.13,2.26c0.28,0,0.57-0.1,0.68-0.17c-0.1,0.14-0.21,0.29-0.31,0.43l-1.29,1.85H124.85z"/>
		<path class="st20" d="M190.96,74.57c0,0.55-0.22,0.89-0.68,0.89c-0.32,0-0.47-0.25-0.47-0.56c0-0.28,0.09-0.5,0.31-0.61
			c0.22-0.1,0.65-0.19,0.84-0.35V74.57z M191.67,72.99c0-0.67-0.53-0.93-1.2-0.93c-0.99,0-1.32,0.44-1.32,1.25h0.71
			c0-0.37,0.07-0.73,0.57-0.73c0.4,0,0.52,0.22,0.52,0.57c0,0.33-0.17,0.41-0.44,0.48l-0.59,0.16c-0.51,0.17-0.87,0.34-0.87,1.18
			c0,0.72,0.38,1.06,0.98,1.06c0.44,0,0.74-0.18,0.94-0.55h0.01c0.02,0.36,0.3,0.5,0.64,0.5c0.15,0,0.28-0.05,0.37-0.09v-0.49
			c-0.03,0.01-0.08,0.02-0.13,0.02c-0.11,0-0.2-0.13-0.2-0.26V72.99z M187.76,74.08c0,0.81-0.12,1.34-0.64,1.34
			c-0.53,0-0.64-0.54-0.64-1.39c0-1.02,0.15-1.37,0.59-1.37C187.66,72.66,187.76,73.18,187.76,74.08 M187.76,75.92h0.71v-5h-0.76
			v1.67h-0.01c-0.14-0.33-0.45-0.54-0.85-0.54c-0.57,0-1.16,0.26-1.16,1.93c0,1.3,0.35,2.03,1.23,2.03c0.54,0,0.73-0.31,0.83-0.56
			h0.01V75.92z M184.35,74.57c0,0.55-0.22,0.89-0.68,0.89c-0.32,0-0.47-0.25-0.47-0.56c0-0.28,0.09-0.5,0.31-0.61
			c0.22-0.1,0.65-0.19,0.84-0.35V74.57z M185.06,72.99c0-0.67-0.53-0.93-1.2-0.93c-0.99,0-1.32,0.44-1.32,1.25h0.71
			c0-0.37,0.07-0.73,0.57-0.73c0.4,0,0.52,0.22,0.52,0.57c0,0.33-0.17,0.41-0.44,0.48l-0.59,0.16c-0.51,0.17-0.87,0.34-0.87,1.18
			c0,0.72,0.38,1.06,0.98,1.06c0.44,0,0.74-0.18,0.94-0.55h0.01c0.02,0.36,0.3,0.5,0.64,0.5c0.15,0,0.28-0.05,0.37-0.09v-0.49
			c-0.03,0.01-0.08,0.02-0.13,0.02c-0.11,0-0.2-0.13-0.2-0.26V72.99z M179.23,75.92h0.76V73.4c0-0.49,0.29-0.74,0.6-0.74
			c0.38,0,0.52,0.19,0.52,0.68v2.58h0.76v-2.84c0-0.76-0.36-1.02-0.94-1.02c-0.42,0-0.78,0.2-0.97,0.54h-0.02v-0.44h-0.71V75.92z
			 M177.74,74.57c0,0.55-0.22,0.89-0.68,0.89c-0.32,0-0.47-0.25-0.47-0.56c0-0.28,0.09-0.5,0.31-0.61c0.22-0.1,0.64-0.19,0.84-0.35
			V74.57z M178.46,72.99c0-0.67-0.53-0.93-1.2-0.93c-0.99,0-1.32,0.44-1.32,1.25h0.71c0-0.37,0.07-0.73,0.57-0.73
			c0.4,0,0.52,0.22,0.52,0.57c0,0.33-0.17,0.41-0.44,0.48l-0.59,0.16c-0.51,0.17-0.87,0.34-0.87,1.18c0,0.72,0.38,1.06,0.98,1.06
			c0.44,0,0.74-0.18,0.94-0.55h0.01c0.02,0.36,0.3,0.5,0.64,0.5c0.15,0,0.28-0.05,0.37-0.09v-0.49c-0.03,0.01-0.08,0.02-0.13,0.02
			c-0.11,0-0.2-0.13-0.2-0.26V72.99z M174.68,74.13v0.08c0,0.46-0.08,1.2-0.74,1.2c-0.59,0-0.86-0.41-0.86-2.02
			c0-1.61,0.27-1.97,0.86-1.97c0.57-0.02,0.71,0.51,0.71,0.97v0.08h0.8v-0.09c0-0.52-0.08-1.57-1.5-1.57c-1.27,0-1.66,0.81-1.66,2.6
			c0,1.78,0.39,2.6,1.65,2.6c1.18,0,1.54-0.88,1.54-1.78v-0.1H174.68z M169.23,74.08c0,0.81-0.12,1.34-0.64,1.34
			c-0.53,0-0.64-0.54-0.64-1.39c0-1.02,0.15-1.37,0.59-1.37C169.13,72.66,169.23,73.18,169.23,74.08 M169.23,75.92h0.71v-5h-0.75
			v1.67h-0.01c-0.14-0.33-0.45-0.54-0.85-0.54c-0.57,0-1.16,0.26-1.16,1.93c0,1.3,0.35,2.03,1.23,2.03c0.54,0,0.73-0.31,0.83-0.56
			h0.01V75.92z M163.94,75.92h0.76V73.4c0-0.49,0.29-0.74,0.6-0.74c0.38,0,0.52,0.19,0.52,0.68v2.58h0.76v-2.84
			c0-0.76-0.36-1.02-0.94-1.02c-0.42,0-0.78,0.2-0.97,0.54h-0.02v-0.44h-0.71V75.92z M162.46,74.57c0,0.55-0.22,0.89-0.68,0.89
			c-0.31,0-0.47-0.25-0.47-0.56c0-0.28,0.09-0.5,0.31-0.61c0.22-0.1,0.64-0.19,0.84-0.35V74.57z M163.17,72.99
			c0-0.67-0.53-0.93-1.2-0.93c-0.99,0-1.32,0.44-1.32,1.25h0.71c0-0.37,0.07-0.73,0.57-0.73c0.4,0,0.52,0.22,0.52,0.57
			c0,0.33-0.17,0.41-0.44,0.48l-0.59,0.16c-0.51,0.17-0.88,0.34-0.88,1.18c0,0.72,0.38,1.06,0.98,1.06c0.44,0,0.74-0.18,0.94-0.55
			h0.01c0.02,0.36,0.3,0.5,0.64,0.5c0.15,0,0.28-0.05,0.37-0.09v-0.49c-0.03,0.01-0.08,0.02-0.13,0.02c-0.11,0-0.2-0.13-0.2-0.26
			V72.99z M154.96,75.92h0.83l0.32-1.22h1.46l0.31,1.22h0.83l-1.32-5h-1.02L154.96,75.92z M156.26,74.06l0.6-2.47h0.01l0.57,2.47
			H156.26z M151.62,74.38v0.12c0,0.7,0.28,1.53,1.52,1.53c1.01,0,1.65-0.44,1.65-1.5c0-0.69-0.31-1.07-1.01-1.32l-0.54-0.2
			c-0.53-0.2-0.75-0.42-0.75-0.85c0-0.53,0.33-0.72,0.67-0.72c0.5,0,0.7,0.27,0.7,0.72v0.1h0.8v-0.11c0-0.52-0.13-1.31-1.41-1.31
			c-0.94,0-1.55,0.5-1.55,1.41c0,0.71,0.31,1.09,1.04,1.37l0.55,0.19c0.45,0.13,0.72,0.36,0.72,0.89c0,0.37-0.25,0.73-0.76,0.73
			c-0.55,0-0.82-0.31-0.82-0.92v-0.13H151.62z M147.98,70.93v3.52c0,1.15,0.57,1.57,1.53,1.57c0.95,0,1.53-0.42,1.53-1.57v-3.52
			h-0.8v3.58c0,0.63-0.25,0.91-0.73,0.91c-0.48,0-0.74-0.28-0.74-0.91v-3.58H147.98z M141.06,69.26h-0.7L137,75.92h0.7L141.06,69.26
			z M139.91,74.49c0-0.51,0.38-0.9,0.9-0.9c0.51,0,0.88,0.38,0.88,0.9c0,0.52-0.38,0.91-0.88,0.91
			C140.29,75.4,139.91,75,139.91,74.49L139.91,74.49z M139.26,74.49c0,0.89,0.68,1.56,1.56,1.56c0.86,0,1.55-0.67,1.55-1.56
			c0-0.87-0.68-1.56-1.55-1.56C139.93,72.93,139.26,73.62,139.26,74.49L139.26,74.49z M136.4,70.69c0-0.52,0.37-0.91,0.88-0.91
			c0.51,0,0.89,0.39,0.89,0.9c0,0.52-0.39,0.91-0.89,0.91C136.77,71.59,136.4,71.2,136.4,70.69L136.4,70.69z M135.74,70.69
			c0,0.87,0.68,1.55,1.55,1.55c0.87,0,1.55-0.67,1.55-1.55c0-0.87-0.67-1.56-1.55-1.56C136.41,69.14,135.74,69.82,135.74,70.69
			L135.74,70.69z M131.34,73.85l2.15-3.3v3.3H131.34z M133.42,75.92h1.02V74.7h0.71v-0.84h-0.71v-4.59h-1.04l-3.16,4.64v0.79h3.18
			V75.92z M129.32,74.75h-0.98v1.17h0.98V74.75z M123.32,69.26l-0.59,3.51l0.86,0.22c0.38-0.57,0.86-0.67,1.17-0.67
			c0.78,0,1.38,0.64,1.38,1.4c0,0.76-0.64,1.39-1.38,1.39c-0.58,0-1.16-0.4-1.31-1.05h-1.06c0.18,1.23,1.22,1.99,2.39,1.99
			c1.51,0,2.4-1.21,2.4-2.36c0-1.04-0.76-2.25-2.21-2.25c-0.61,0-0.92,0.21-1.13,0.35l0.3-1.63h2.56v-0.9H123.32z M118.04,73.85
			l2.15-3.3v3.3H118.04z M120.13,75.92h1.02V74.7h0.71v-0.84h-0.71v-4.59h-1.04l-3.16,4.64v0.79h3.18V75.92z"/>
		<path class="st20" d="M214.66,63.57c0,0.55-0.22,0.89-0.68,0.89c-0.32,0-0.47-0.25-0.47-0.56c0-0.28,0.09-0.5,0.31-0.61
			c0.22-0.11,0.64-0.2,0.84-0.35V63.57z M215.37,61.99c0-0.67-0.53-0.93-1.2-0.93c-0.99,0-1.32,0.44-1.32,1.25h0.71
			c0-0.37,0.07-0.73,0.57-0.73c0.4,0,0.52,0.22,0.52,0.56c0,0.33-0.17,0.41-0.44,0.48l-0.59,0.16c-0.51,0.17-0.88,0.34-0.88,1.18
			c0,0.72,0.38,1.06,0.98,1.06c0.44,0,0.74-0.18,0.94-0.55h0.01c0.02,0.36,0.3,0.5,0.64,0.5c0.15,0,0.28-0.05,0.37-0.09v-0.49
			c-0.03,0.01-0.08,0.02-0.13,0.02c-0.11,0-0.2-0.12-0.2-0.26V61.99z M211.39,60.62h0.75v-0.75h-0.75V60.62z M211.39,64.92h0.75
			v-3.77h-0.75V64.92z M208.7,63.08c0-0.9,0.11-1.42,0.69-1.42c0.43,0,0.59,0.35,0.59,1.36c0,0.85-0.11,1.39-0.64,1.39
			C208.82,64.42,208.7,63.89,208.7,63.08 M207.98,64.92h0.71v-0.46h0.01c0.1,0.25,0.29,0.56,0.83,0.56c0.88,0,1.23-0.74,1.23-2.03
			c0-1.67-0.59-1.93-1.16-1.93c-0.41,0-0.71,0.2-0.85,0.54h-0.01v-1.67h-0.76V64.92z M206.46,60.62h0.76v-0.75h-0.76V60.62z
			 M206.46,64.92h0.76v-3.77h-0.76V64.92z M201.28,64.92h0.75V62.4c0-0.49,0.29-0.74,0.6-0.74c0.32,0,0.46,0.19,0.46,0.68v2.58h0.76
			V62.4c0-0.49,0.29-0.74,0.6-0.74c0.31,0,0.46,0.19,0.46,0.68v2.58h0.76v-2.86c0-0.73-0.39-1-0.92-1c-0.46,0-0.74,0.21-0.95,0.57
			c-0.11-0.32-0.34-0.57-0.87-0.57c-0.36,0-0.71,0.2-0.9,0.54H202v-0.44h-0.71V64.92z M199.77,63.57c0,0.55-0.22,0.89-0.68,0.89
			c-0.32,0-0.47-0.25-0.47-0.56c0-0.28,0.09-0.5,0.31-0.61c0.22-0.11,0.64-0.2,0.84-0.35V63.57z M200.48,61.99
			c0-0.67-0.53-0.93-1.2-0.93c-0.99,0-1.32,0.44-1.32,1.25h0.71c0-0.37,0.07-0.73,0.57-0.73c0.4,0,0.52,0.22,0.52,0.56
			c0,0.33-0.17,0.41-0.44,0.48l-0.59,0.16c-0.51,0.17-0.87,0.34-0.87,1.18c0,0.72,0.38,1.06,0.98,1.06c0.44,0,0.74-0.18,0.94-0.55
			h0.01c0.02,0.36,0.3,0.5,0.64,0.5c0.15,0,0.28-0.05,0.37-0.09v-0.49c-0.03,0.01-0.08,0.02-0.13,0.02c-0.11,0-0.2-0.12-0.2-0.26
			V61.99z M194.04,64.92h0.76V61.1h0.01l1.45,3.82h0.97v-5h-0.76v3.72h-0.01l-1.45-3.72h-0.97V64.92z M190.87,63.08
			c0,0.81-0.12,1.34-0.64,1.34c-0.53,0-0.64-0.54-0.64-1.39c0-1.01,0.15-1.36,0.59-1.36C190.76,61.66,190.87,62.18,190.87,63.08
			 M190.87,64.92h0.71v-5h-0.76v1.67h-0.01c-0.14-0.34-0.45-0.54-0.86-0.54c-0.57,0-1.16,0.26-1.16,1.93c0,1.3,0.35,2.03,1.23,2.03
			c0.54,0,0.73-0.32,0.83-0.56h0.01V64.92z M185.58,64.92h0.76V62.4c0-0.49,0.29-0.74,0.6-0.74c0.38,0,0.52,0.19,0.52,0.68v2.58
			h0.76v-2.84c0-0.76-0.36-1.02-0.94-1.02c-0.42,0-0.78,0.2-0.97,0.54h-0.02v-0.44h-0.71V64.92z M184.09,63.57
			c0,0.55-0.22,0.89-0.68,0.89c-0.32,0-0.47-0.25-0.47-0.56c0-0.28,0.09-0.5,0.31-0.61c0.22-0.11,0.64-0.2,0.84-0.35V63.57z
			 M184.81,61.99c0-0.67-0.53-0.93-1.2-0.93c-0.99,0-1.32,0.44-1.32,1.25H183c0-0.37,0.07-0.73,0.57-0.73c0.4,0,0.52,0.22,0.52,0.56
			c0,0.33-0.17,0.41-0.44,0.48l-0.59,0.16c-0.51,0.17-0.87,0.34-0.87,1.18c0,0.72,0.38,1.06,0.98,1.06c0.44,0,0.74-0.18,0.94-0.55
			h0.01c0.02,0.36,0.3,0.5,0.64,0.5c0.15,0,0.28-0.05,0.37-0.09v-0.49c-0.03,0.01-0.08,0.02-0.13,0.02c-0.11,0-0.2-0.12-0.2-0.26
			V61.99z M179.17,63.57c0,0.55-0.22,0.89-0.68,0.89c-0.32,0-0.47-0.25-0.47-0.56c0-0.28,0.09-0.5,0.31-0.61
			c0.22-0.11,0.64-0.2,0.84-0.35V63.57z M179.88,61.99c0-0.67-0.53-0.93-1.2-0.93c-0.99,0-1.32,0.44-1.32,1.25h0.71
			c0-0.37,0.07-0.73,0.57-0.73c0.4,0,0.52,0.22,0.52,0.56c0,0.33-0.17,0.41-0.44,0.48l-0.59,0.16c-0.51,0.17-0.87,0.34-0.87,1.18
			c0,0.72,0.38,1.06,0.98,1.06c0.44,0,0.74-0.18,0.94-0.55h0.01c0.02,0.36,0.3,0.5,0.64,0.5c0.15,0,0.28-0.05,0.37-0.09v-0.49
			c-0.03,0.01-0.08,0.02-0.13,0.02c-0.11,0-0.2-0.12-0.2-0.26V61.99z M176.13,63.55c0,0.57-0.15,0.92-0.57,0.91
			c-0.55,0-0.64-0.59-0.64-1.42s0.1-1.42,0.64-1.42c0.44-0.01,0.54,0.44,0.54,0.79h0.75c0-0.47-0.17-1.37-1.29-1.35
			c-1.09,0-1.4,0.81-1.4,1.98s0.31,1.98,1.4,1.98c0.93,0,1.24-0.57,1.29-1.47H176.13z M172.79,60.62h0.76v-0.75h-0.76V60.62z
			 M172.79,64.92h0.76v-3.77h-0.76V64.92z M170.55,64.92h0.76v-2.25c0-0.7,0.41-0.85,0.76-0.85c0.13,0,0.26,0.03,0.32,0.04v-0.77
			c-0.05-0.01-0.1-0.03-0.18-0.03c-0.43,0-0.71,0.27-0.88,0.69h-0.01v-0.59h-0.76V64.92z M168.83,64.92h0.75v-3.21h0.62v-0.56h-0.62
			v-0.33c0-0.25,0.13-0.36,0.41-0.36h0.21v-0.58c-0.11-0.01-0.25-0.02-0.41-0.02c-0.62,0-0.96,0.22-0.96,0.94v0.35h-0.53v0.56h0.53
			V64.92z M164.54,64.92h0.83l0.32-1.23h1.46l0.31,1.23h0.83l-1.32-5h-1.02L164.54,64.92z M165.84,63.06l0.6-2.46h0.01l0.57,2.46
			H165.84z M160.18,64.92h0.76V62.4c0-0.49,0.29-0.74,0.6-0.74c0.38,0,0.53,0.19,0.53,0.68v2.58h0.76v-2.84
			c0-0.76-0.36-1.02-0.94-1.02c-0.39,0-0.71,0.2-0.93,0.52l-0.02-0.01v-1.64h-0.76V64.92z M157.9,61.72h0.52v2.34
			c0,0.77,0.25,0.91,0.76,0.91c0.24,0,0.45-0.02,0.61-0.06v-0.56c-0.07,0.01-0.16,0.02-0.27,0.02c-0.26,0-0.34-0.1-0.34-0.4v-2.25
			h0.62v-0.56h-0.62v-1.07h-0.75v1.07h-0.52V61.72z M156.79,64.92h0.71v-3.77h-0.75v2.63c0,0.42-0.29,0.63-0.62,0.63
			c-0.32,0-0.51-0.14-0.51-0.56v-2.7h-0.76v2.63c0,0.97,0.38,1.23,0.94,1.23c0.42,0,0.78-0.2,0.97-0.54h0.02V64.92z M152.24,63.04
			c0-0.83,0.1-1.42,0.64-1.42c0.55,0,0.65,0.59,0.65,1.42c0,0.96-0.1,1.42-0.65,1.42C152.33,64.46,152.24,64,152.24,63.04
			 M151.48,63.04c0,1.17,0.36,1.98,1.4,1.98c1.05,0,1.41-0.81,1.41-1.98s-0.31-1.98-1.41-1.98
			C151.79,61.06,151.48,61.87,151.48,63.04 M147.86,63.38v0.12c0,0.7,0.28,1.53,1.52,1.53c1.01,0,1.65-0.44,1.65-1.51
			c0-0.69-0.31-1.07-1.01-1.32l-0.54-0.2c-0.53-0.2-0.75-0.42-0.75-0.85c0-0.53,0.33-0.72,0.67-0.72c0.5,0,0.7,0.27,0.7,0.72v0.1
			h0.8v-0.11c0-0.52-0.13-1.32-1.41-1.32c-0.94,0-1.55,0.5-1.55,1.41c0,0.71,0.31,1.09,1.04,1.37l0.55,0.19
			c0.45,0.13,0.72,0.36,0.72,0.89c0,0.37-0.25,0.73-0.76,0.73c-0.55,0-0.82-0.31-0.82-0.92v-0.13H147.86z M141.06,58.26h-0.7
			L137,64.92h0.7L141.06,58.26z M139.91,63.49c0-0.51,0.38-0.9,0.9-0.9c0.5,0,0.88,0.38,0.88,0.9c0,0.52-0.38,0.91-0.88,0.91
			C140.29,64.4,139.91,64,139.91,63.49L139.91,63.49z M139.26,63.49c0,0.89,0.68,1.56,1.56,1.56c0.86,0,1.55-0.67,1.55-1.56
			c0-0.87-0.68-1.56-1.55-1.56C139.93,61.94,139.26,62.62,139.26,63.49L139.26,63.49z M136.4,59.69c0-0.52,0.37-0.91,0.88-0.91
			c0.51,0,0.89,0.39,0.89,0.9c0,0.52-0.39,0.91-0.89,0.91C136.77,60.59,136.4,60.2,136.4,59.69L136.4,59.69z M135.74,59.69
			c0,0.87,0.68,1.55,1.55,1.55c0.87,0,1.55-0.67,1.55-1.55s-0.67-1.56-1.55-1.56C136.41,58.14,135.74,58.82,135.74,59.69
			L135.74,59.69z M132.38,64.92h1.06v-6.66h-2.32v0.9h1.26V64.92z M129.32,63.75h-0.98v1.17h0.98V63.75z M123.55,60.49
			c0-0.77,0.46-1.41,1.26-1.41c1.03,0,1.29,0.87,1.29,1.39v2.27c0,0.76-0.55,1.39-1.27,1.39c-0.79,0-1.28-0.63-1.28-1.39V60.49z
			 M122.5,62.7c0,1.77,1.47,2.35,2.35,2.35c0.84,0,2.31-0.56,2.31-2.35v-2.21c0-1.67-1.33-2.35-2.33-2.35
			c-0.75,0-2.33,0.46-2.33,2.38V62.7z M118.55,59.96c0.03-0.4,0.25-0.89,0.88-0.89c0.51,0,0.83,0.41,0.83,0.91
			c0,0.49-0.43,0.95-1.13,0.95h-0.32v0.8h0.5c0.75,0,1.34,0.5,1.34,1.18c0,0.67-0.43,1.21-1.19,1.21c-0.69-0.01-1.18-0.5-1.22-1.15
			h-1.07c0.01,0.37,0.12,0.84,0.4,1.23c0.41,0.57,1.17,0.85,1.86,0.85c1.28,0,2.28-0.89,2.28-2.09c0-0.34-0.11-1.31-1.3-1.72
			c0.42-0.23,0.9-0.65,0.9-1.4c0-0.97-0.77-1.7-1.84-1.7c-0.83,0-1.92,0.49-1.96,1.83H118.55z"/>
		<path class="st15" d="M104.88,66.28c2.21,0,4-1.79,4-4s-1.79-4-4-4c-2.21,0-4,1.79-4,4S102.67,66.28,104.88,66.28"/>
		<circle class="st21" cx="104.88" cy="62.28" r="4"/>
		<path class="st14" d="M104.88,77.13c2.21,0,4-1.79,4-4s-1.79-4-4-4c-2.21,0-4,1.79-4,4S102.67,77.13,104.88,77.13"/>
		<circle class="st21" cx="104.88" cy="73.13" r="4"/>
		<path class="st13" d="M104.88,88.05c2.21,0,4-1.79,4-4c0-2.21-1.79-4-4-4c-2.21,0-4,1.79-4,4
			C100.88,86.26,102.67,88.05,104.88,88.05"/>
		<circle class="st21" cx="104.88" cy="84.05" r="4"/>
		<path class="st12" d="M104.88,99.28c2.21,0,4-1.79,4-4s-1.79-4-4-4c-2.21,0-4,1.79-4,4S102.67,99.28,104.88,99.28"/>
		<circle class="st21" cx="104.88" cy="95.28" r="4"/>
		<path class="st10" d="M104.88,110.28c2.21,0,4-1.79,4-4c0-2.21-1.79-4-4-4c-2.21,0-4,1.79-4,4
			C100.88,108.49,102.67,110.28,104.88,110.28"/>
		<circle class="st21" cx="104.88" cy="106.28" r="4"/>
	</g>
</g>
</svg>
