<?xml version="1.0" encoding="utf-8"?>
<!-- Generator: Adobe Illustrator 23.0.0, SVG Export Plug-In . SVG Version: 6.00 Build 0)  -->
<svg version="1.1" id="Layer_1" xmlns="http://www.w3.org/2000/svg" xmlns:xlink="http://www.w3.org/1999/xlink" x="0px" y="0px"
	 viewBox="0 0 451.24 257.43" style="enable-background:new 0 0 451.24 257.43;" xml:space="preserve">
<style type="text/css">
	.st0{clip-path:url(#SVGID_2_);}
	.st1{clip-path:url(#SVGID_4_);fill:#3AA7CC;}
	.st2{clip-path:url(#SVGID_4_);fill:#00ACDD;}
	.st3{clip-path:url(#SVGID_4_);fill:#003767;}
	.st4{opacity:0.5;clip-path:url(#SVGID_4_);}
	.st5{clip-path:url(#SVGID_6_);}
	.st6{clip-path:url(#SVGID_8_);fill:url(#SVGID_9_);}
	.st7{clip-path:url(#SVGID_2_);fill:none;stroke:#FFFFFF;stroke-width:4;stroke-miterlimit:10;}
	.st8{clip-path:url(#SVGID_11_);fill:#3AA7CC;}
	.st9{clip-path:url(#SVGID_11_);fill:#231F20;}
	.st10{clip-path:url(#SVGID_11_);fill:#00ACDD;}
	.st11{clip-path:url(#SVGID_2_);fill:#FFFFFF;}
	.st12{clip-path:url(#SVGID_13_);fill:#003767;}
	.st13{clip-path:url(#SVGID_15_);fill:#00ACDD;}
	.st14{clip-path:url(#SVGID_15_);fill:#FFFFFF;}
	.st15{clip-path:url(#SVGID_15_);fill:#003767;}
	.st16{clip-path:url(#SVGID_17_);fill:#003767;}
	.st17{clip-path:url(#SVGID_19_);fill:#00ACDD;}
	.st18{clip-path:url(#SVGID_19_);fill:#FFFFFF;}
	.st19{clip-path:url(#SVGID_19_);fill:#003767;}
</style>
<g>
	<defs>
		<rect id="SVGID_1_" width="451.24" height="257.43"/>
	</defs>
	<clipPath id="SVGID_2_">
		<use xlink:href="#SVGID_1_"  style="overflow:visible;"/>
	</clipPath>
	<g class="st0">
		<defs>
			<rect id="SVGID_3_" width="451.24" height="257.43"/>
		</defs>
		<clipPath id="SVGID_4_">
			<use xlink:href="#SVGID_3_"  style="overflow:visible;"/>
		</clipPath>
		<path class="st1" d="M276.94,8.75c0.08,2.26,1.73,3.5,3.71,3.5c2.21,0,3.66-1.54,3.66-3.47c0-2.18-1.76-2.8-2.88-3.23
			c-1.79-0.61-2.96-0.96-2.94-2.4c0-1.23,0.98-2.03,2.16-2.03c1.57,0,1.95,1.17,2.1,1.94h1.31C283.87,0.82,282.17,0,280.7,0
			c-1.81,0-3.55,1.17-3.52,3.26c0,2.24,2.06,2.85,3.02,3.14c1.38,0.45,2.8,0.82,2.8,2.48c0,1.31-1.14,2.26-2.37,2.26
			c-0.74,0-2.18-0.42-2.37-2.38H276.94z M267.48,12.05h1.31V6.43l5.1,5.62h1.65l-5.46-5.94l4.96-5.9h-1.44l-4.82,5.73V0.21h-1.31
			V12.05z M257.28,8.75c0.08,2.26,1.73,3.5,3.71,3.5c2.21,0,3.66-1.54,3.66-3.47c0-2.18-1.76-2.8-2.88-3.23
			c-1.79-0.61-2.96-0.96-2.94-2.4c0-1.23,0.98-2.03,2.16-2.03c1.57,0,1.95,1.17,2.1,1.94h1.31C264.2,0.82,262.51,0,261.04,0
			c-1.81,0-3.55,1.17-3.52,3.26c0,2.24,2.06,2.85,3.02,3.14c1.38,0.45,2.8,0.82,2.8,2.48c0,1.31-1.14,2.26-2.37,2.26
			c-0.74,0-2.18-0.42-2.37-2.38H257.28z M253.36,12.05h1.31V0.21h-1.31V12.05z M243.05,12.05h1.33V1.38h1.86
			c1.07,0,1.81,0.05,2.4,0.43c0.74,0.48,1.17,1.41,1.17,2.29c0,0.85-0.27,1.57-0.9,2.18c-0.64,0.59-1.79,0.61-2.62,0.61h-0.38
			l3.34,5.17h1.44l-2.94-4.43c1.09-0.11,1.94-0.34,2.64-1.3c0.5-0.67,0.72-1.52,0.7-2.32c0-1.34-0.66-2.61-1.62-3.18
			c-0.61-0.38-1.47-0.61-3.33-0.61h-3.09V12.05z M229.87,12.05h5.84v-1.17h-4.51V0.21h-1.33V12.05z M224.52,7.63h-4.72l2.35-5.94
			L224.52,7.63z M219.4,8.72h5.52l1.38,3.33h1.44l-4.9-11.84h-1.28l-4.94,11.84h1.42L219.4,8.72z M213.18,12.05h1.31V0.21h-1.31
			V12.05z M202.88,12.05h1.33V1.38h1.86c1.07,0,1.81,0.05,2.4,0.43c0.74,0.48,1.17,1.41,1.17,2.29c0,0.85-0.27,1.57-0.9,2.18
			c-0.64,0.59-1.79,0.61-2.62,0.61h-0.38l3.34,5.17h1.44l-2.94-4.43c1.09-0.11,1.94-0.34,2.64-1.3c0.5-0.67,0.72-1.52,0.7-2.32
			c0-1.34-0.66-2.61-1.62-3.18c-0.61-0.38-1.47-0.61-3.33-0.61h-3.09V12.05z M193.53,12.05h6.56v-1.17h-5.25V6.66h5.22V5.49h-5.22
			V1.38h5.25V0.21h-6.56V12.05z M187.18,12.05h1.33V1.38h2.93V0.21h-7.17v1.17h2.91V12.05z M181.25,7.63h-4.72l2.35-5.94
			L181.25,7.63z M176.13,8.72h5.52l1.38,3.33h1.44l-4.9-11.84h-1.28l-4.94,11.84h1.42L176.13,8.72z M160,12.05l-0.03-10.53
			l4.61,10.53h0.85l4.59-10.53l-0.03,10.53h1.25V0.21h-1.86l-4.37,9.94l-4.38-9.94h-1.86v11.84H160z"/>
		<path class="st2" d="M80.1,37.02c3.13,0,5.67-2.54,5.67-5.67s-2.54-5.67-5.67-5.67c-3.13,0-5.67,2.54-5.67,5.67
			S76.97,37.02,80.1,37.02"/>
		<path class="st1" d="M228.88,37.1c1.61-0.75,2.51-2.46,2.51-4.09c0-1.66-0.86-3.26-2.51-4.1v0.68c0.99,0.58,1.86,1.87,1.86,3.42
			c0,1.58-0.89,2.86-1.86,3.42V37.1z M223.66,34.93h0.59V32.5c0-0.9,0.51-1.43,1.4-1.44c0.97-0.02,1.38,0.62,1.38,1.54v2.33h0.58
			v-2.45c0-1.05-0.47-1.96-1.81-1.98c-0.77-0.02-1.35,0.33-1.6,0.89c0.01-0.29,0.01-0.53,0.01-0.77h-0.56V34.93z M218.39,32.78
			c0-0.98,0.74-1.72,1.7-1.72c0.96,0,1.7,0.74,1.7,1.72c0,0.98-0.74,1.72-1.7,1.72C219.13,34.5,218.39,33.77,218.39,32.78
			L218.39,32.78z M217.8,32.78c0,1.21,0.9,2.26,2.28,2.26c1.39,0,2.29-1.05,2.29-2.26c0-1.21-0.89-2.27-2.29-2.27
			C218.7,30.51,217.8,31.57,217.8,32.78L217.8,32.78z M215.93,34.93h0.59v-4.3h-0.59V34.93z M215.93,29.84h0.59v-0.82h-0.59V29.84z
			 M213.35,34.93h0.58V31.1h0.94v-0.47h-0.94v-1.62h-0.58v1.62h-0.85v0.47h0.85V34.93z M207.46,32.78c0-0.96,0.72-1.73,1.71-1.73
			c0.76,0,1.34,0.44,1.58,1.03c0.1,0.21,0.14,0.45,0.14,0.69c0,0.23-0.05,0.47-0.14,0.68c-0.23,0.61-0.79,1.05-1.55,1.05
			C208.01,34.5,207.47,33.57,207.46,32.78L207.46,32.78z M211.46,30.63h-0.59v0.9c-0.21-0.49-0.84-1.02-1.76-1.02
			c-1.31,0-2.23,1.01-2.23,2.27c0,1.18,0.83,2.27,2.23,2.27c0.77,0,1.42-0.36,1.76-1.01v0.89h0.59V30.63z M201.61,32.77
			c0-1.01,0.77-1.71,1.71-1.71c0.62,0,1.05,0.26,1.31,0.6c0.27,0.34,0.39,0.77,0.39,1.13c-0.01,0.47-0.18,0.9-0.48,1.22
			c-0.3,0.31-0.72,0.5-1.21,0.5C202.23,34.5,201.61,33.65,201.61,32.77L201.61,32.77z M205.6,30.63h-0.58v0.89
			c-0.24-0.53-0.9-1.01-1.75-1.01c-1.31,0-2.25,0.99-2.25,2.28c0,1.24,0.9,2.26,2.25,2.26c0.83,0,1.43-0.42,1.74-1.03v0.55
			c0,1.07-0.84,1.71-1.66,1.71c-0.27,0-0.64-0.09-0.95-0.31c-0.26-0.18-0.41-0.38-0.51-0.57h-0.68c0.27,0.78,1.06,1.39,2.13,1.39
			c0.58,0,1.21-0.25,1.63-0.66c0.38-0.36,0.64-0.88,0.64-1.7V30.63z M199.15,34.93h0.59v-4.3h-0.59V34.93z M199.15,29.84h0.59v-0.82
			h-0.59V29.84z M196.57,34.93h0.58V31.1h0.94v-0.47h-0.94v-1.62h-0.58v1.62h-0.85v0.47h0.85V34.93z M194.09,34.93h0.59v-4.3h-0.59
			V34.93z M194.09,29.84h0.59v-0.82h-0.59V29.84z M186.05,34.93h0.59v-2.4c0-0.46,0.1-0.78,0.29-1.03c0.18-0.26,0.51-0.46,0.91-0.44
			c0.44,0.01,0.74,0.18,0.94,0.46c0.17,0.26,0.24,0.54,0.22,1.02v2.39h0.59v-2.39c0-0.49,0.04-0.73,0.26-1.03
			c0.2-0.3,0.57-0.45,0.94-0.45c0.41,0,0.68,0.14,0.86,0.36c0.25,0.28,0.32,0.69,0.32,1.14v2.37h0.59v-2.39
			c0-0.76-0.11-1.22-0.49-1.6c-0.3-0.3-0.72-0.43-1.16-0.43c-0.48,0-0.9,0.18-1.18,0.48c-0.16,0.17-0.25,0.34-0.31,0.46
			c-0.02-0.05-0.17-0.34-0.28-0.45c-0.3-0.34-0.73-0.49-1.18-0.49c-0.49,0-1.09,0.26-1.36,0.8v-0.68h-0.56V34.93z M178.19,32.48
			c0.06-0.78,0.74-1.46,1.67-1.46c0.89-0.02,1.62,0.71,1.66,1.46H178.19z M182.1,32.95c0.06-0.69-0.18-1.35-0.67-1.83
			c-0.41-0.39-0.97-0.61-1.58-0.61c-1.29,0-2.26,1.02-2.26,2.28c0,1.07,0.78,2.26,2.27,2.26c0.44,0,0.86-0.12,1.22-0.35
			c0.37-0.23,0.67-0.58,0.87-1.05h-0.62c-0.28,0.56-0.82,0.89-1.48,0.89c-0.73,0.01-1.65-0.51-1.68-1.59H182.1z M175.25,34.93h0.58
			v-2.34c0-0.98,0.46-1.5,1.3-1.5h0.06v-0.58c-0.5,0.02-1.06,0.18-1.38,0.82v-0.7h-0.56V34.93z M169.97,32.78
			c0-0.98,0.74-1.72,1.7-1.72c0.96,0,1.7,0.74,1.7,1.72c0,0.98-0.74,1.72-1.7,1.72C170.72,34.5,169.97,33.77,169.97,32.78
			L169.97,32.78z M169.39,32.78c0,1.21,0.9,2.26,2.28,2.26c1.39,0,2.29-1.05,2.29-2.26c0-1.21-0.9-2.27-2.29-2.27
			C170.29,30.51,169.39,31.57,169.39,32.78L169.39,32.78z M167.33,34.93h0.58V31.1h0.93v-0.47h-0.93v-0.3
			c0-0.94,0.63-0.94,0.93-0.95v-0.47c-0.46,0-1.51,0.04-1.51,1.37v0.35h-0.63v0.47h0.63V34.93z M162.08,32.48
			c0.06-0.78,0.74-1.46,1.67-1.46c0.89-0.02,1.62,0.71,1.66,1.46H162.08z M165.99,32.95c0.06-0.69-0.18-1.35-0.67-1.83
			c-0.41-0.39-0.97-0.61-1.58-0.61c-1.29,0-2.26,1.02-2.26,2.28c0,1.07,0.78,2.26,2.27,2.26c0.44,0,0.86-0.12,1.22-0.35
			c0.37-0.23,0.67-0.58,0.87-1.05h-0.62c-0.28,0.56-0.82,0.89-1.48,0.89c-0.73,0.01-1.65-0.51-1.68-1.59H165.99z M159.93,32.78
			c0,0.83-0.58,1.72-1.73,1.72c-1,0-1.68-0.79-1.68-1.73c0-0.95,0.71-1.72,1.71-1.72C159.19,31.05,159.93,31.79,159.93,32.78
			L159.93,32.78z M155.97,34.93h0.57v-0.89c0.32,0.62,0.95,1.01,1.76,1.01c1.3,0,2.23-0.98,2.23-2.28c0-1.35-0.99-2.26-2.21-2.26
			c-0.74,0.01-1.39,0.38-1.75,0.98v-0.86v-1.62h-0.59V34.93z M154.7,28.91c-1.61,0.75-2.52,2.46-2.52,4.08
			c0,1.66,0.87,3.26,2.52,4.11v-0.69c-1-0.58-1.87-1.86-1.87-3.42c0-1.58,0.9-2.86,1.87-3.42V28.91z M144.33,34.93h0.65v-2.81
			l2.55,2.81h0.82l-2.73-2.97l2.48-2.95h-0.72l-2.41,2.86v-2.86h-0.65V34.93z M139.23,33.29c0.04,1.13,0.86,1.75,1.86,1.75
			c1.1,0,1.83-0.77,1.83-1.74c0-1.09-0.88-1.4-1.44-1.62c-0.9-0.3-1.48-0.48-1.47-1.2c0-0.62,0.49-1.02,1.08-1.02
			c0.78,0,0.98,0.58,1.05,0.97h0.66c-0.1-1.12-0.94-1.53-1.68-1.53c-0.9,0-1.78,0.58-1.76,1.63c0,1.12,1.03,1.42,1.51,1.57
			c0.69,0.22,1.4,0.41,1.4,1.24c0,0.66-0.57,1.13-1.18,1.13c-0.37,0-1.09-0.21-1.18-1.19H139.23z M137.27,34.93h0.65v-5.92h-0.65
			V34.93z M132.12,34.93h0.66V29.6h0.93c0.54,0,0.9,0.02,1.2,0.22c0.37,0.24,0.58,0.71,0.58,1.15c0,0.42-0.14,0.78-0.45,1.09
			c-0.32,0.3-0.9,0.3-1.31,0.3h-0.19l1.67,2.58h0.72l-1.47-2.22c0.54-0.06,0.97-0.17,1.32-0.65c0.25-0.34,0.36-0.76,0.35-1.16
			c0-0.67-0.33-1.31-0.81-1.59c-0.3-0.19-0.74-0.3-1.66-0.3h-1.54V34.93z M126.29,34.93h0.66V29.6h1.46v-0.58h-3.58v0.58h1.46V34.93
			z M119.69,29.01h-0.67v5.92h0.64l-0.02-4.98l3.51,4.98h0.64v-5.92h-0.64l0.01,4.94L119.69,29.01z M114.29,34.93h3.28v-0.58h-2.62
			v-2.11h2.61v-0.58h-2.61V29.6h2.62v-0.58h-3.28V34.93z M109.14,34.93h0.66V29.6h0.93c0.54,0,0.9,0.02,1.2,0.22
			c0.37,0.24,0.58,0.71,0.58,1.15c0,0.42-0.14,0.78-0.45,1.09c-0.32,0.3-0.9,0.3-1.31,0.3h-0.19l1.67,2.58h0.72l-1.47-2.22
			c0.54-0.06,0.97-0.17,1.32-0.65c0.25-0.34,0.36-0.76,0.35-1.16c0-0.67-0.33-1.31-0.81-1.59c-0.3-0.19-0.74-0.3-1.67-0.3h-1.54
			V34.93z M104.46,34.93h3.28v-0.58h-2.62v-2.11h2.61v-0.58h-2.61V29.6h2.62v-0.58h-3.28V34.93z M99.36,34.93v-2.7h2.86v2.7h0.66
			v-5.92h-0.66v2.63h-2.86v-2.63H98.7v5.92H99.36z M93.01,29.01h-0.67v5.92h0.64l-0.02-4.98l3.51,4.98h0.64v-5.92h-0.64l0.01,4.94
			L93.01,29.01z M90.1,34.93h0.65v-5.92H90.1V34.93z"/>
		<path class="st3" d="M252.66,37.02c3.13,0,5.67-2.54,5.67-5.67s-2.54-5.67-5.67-5.67c-3.13,0-5.67,2.54-5.67,5.67
			S249.53,37.02,252.66,37.02"/>
		<path class="st3" d="M392.41,37.1c1.61-0.75,2.51-2.46,2.51-4.09c0-1.66-0.86-3.26-2.51-4.1v0.68c0.99,0.58,1.86,1.87,1.86,3.42
			c0,1.58-0.89,2.86-1.86,3.42V37.1z M387.2,34.93h0.59V32.5c0-0.9,0.51-1.43,1.4-1.44c0.97-0.02,1.38,0.62,1.38,1.54v2.33h0.58
			v-2.45c0-1.05-0.47-1.96-1.81-1.97c-0.77-0.02-1.35,0.33-1.6,0.89c0.01-0.29,0.01-0.53,0.01-0.77h-0.56V34.93z M381.92,32.78
			c0-0.98,0.74-1.72,1.7-1.72c0.96,0,1.7,0.74,1.7,1.72c0,0.99-0.74,1.72-1.7,1.72C382.67,34.5,381.92,33.77,381.92,32.78
			L381.92,32.78z M381.34,32.78c0,1.21,0.9,2.26,2.28,2.26c1.39,0,2.29-1.06,2.29-2.26c0-1.21-0.89-2.27-2.29-2.27
			C382.24,30.51,381.34,31.57,381.34,32.78L381.34,32.78z M379.46,34.93h0.59v-4.3h-0.59V34.93z M379.46,29.84h0.59v-0.82h-0.59
			V29.84z M376.88,34.93h0.58V31.1h0.94v-0.47h-0.94v-1.62h-0.58v1.62h-0.85v0.47h0.85V34.93z M371,32.78
			c0-0.96,0.72-1.73,1.71-1.73c0.76,0,1.34,0.44,1.58,1.03c0.1,0.21,0.14,0.45,0.14,0.69c0,0.23-0.05,0.47-0.14,0.68
			c-0.23,0.61-0.79,1.05-1.55,1.05C371.54,34.5,371,33.57,371,32.78L371,32.78z M375,30.63h-0.59v0.9
			c-0.21-0.49-0.84-1.02-1.76-1.02c-1.31,0-2.23,1.01-2.23,2.27c0,1.18,0.83,2.27,2.23,2.27c0.77,0,1.42-0.36,1.76-1.01v0.89H375
			V30.63z M365.15,32.77c0-1.01,0.77-1.71,1.71-1.71c0.62,0,1.05,0.26,1.31,0.6c0.27,0.34,0.39,0.77,0.39,1.13
			c-0.01,0.47-0.18,0.9-0.48,1.22c-0.3,0.31-0.72,0.5-1.21,0.5C365.76,34.5,365.15,33.65,365.15,32.77L365.15,32.77z M369.13,30.63
			h-0.58v0.89c-0.24-0.53-0.9-1.01-1.74-1.01c-1.31,0-2.25,0.99-2.25,2.28c0,1.24,0.9,2.26,2.25,2.26c0.83,0,1.43-0.42,1.74-1.03
			v0.55c0,1.07-0.84,1.71-1.66,1.71c-0.27,0-0.64-0.09-0.95-0.31c-0.26-0.18-0.41-0.38-0.51-0.57h-0.68
			c0.27,0.78,1.06,1.39,2.13,1.39c0.58,0,1.21-0.25,1.63-0.66c0.38-0.36,0.64-0.88,0.64-1.7V30.63z M362.69,34.93h0.59v-4.3h-0.59
			V34.93z M362.69,29.84h0.59v-0.82h-0.59V29.84z M360.11,34.93h0.58V31.1h0.94v-0.47h-0.94v-1.62h-0.58v1.62h-0.85v0.47h0.85V34.93
			z M357.63,34.93h0.59v-4.3h-0.59V34.93z M357.63,29.84h0.59v-0.82h-0.59V29.84z M349.58,34.93h0.59v-2.4
			c0-0.46,0.1-0.78,0.29-1.03c0.18-0.26,0.51-0.46,0.91-0.44c0.44,0.01,0.74,0.18,0.95,0.46c0.17,0.26,0.24,0.54,0.22,1.02v2.39
			h0.59v-2.39c0-0.49,0.04-0.73,0.26-1.03c0.2-0.3,0.57-0.45,0.94-0.45c0.41,0,0.68,0.14,0.86,0.36c0.25,0.28,0.32,0.69,0.32,1.14
			v2.37h0.59v-2.39c0-0.76-0.11-1.22-0.49-1.6c-0.3-0.3-0.72-0.43-1.16-0.43c-0.48,0-0.9,0.18-1.18,0.48
			c-0.16,0.17-0.25,0.34-0.31,0.46c-0.02-0.05-0.17-0.34-0.28-0.45c-0.3-0.34-0.73-0.49-1.18-0.49c-0.49,0-1.09,0.26-1.36,0.8v-0.68
			h-0.56V34.93z M343.9,34.93h0.58v-2.34c0-0.98,0.46-1.5,1.3-1.5h0.06v-0.58c-0.5,0.02-1.06,0.18-1.38,0.82v-0.7h-0.56V34.93z
			 M338.75,32.48c0.06-0.79,0.74-1.47,1.67-1.47c0.89-0.02,1.62,0.71,1.66,1.47H338.75z M342.66,32.95
			c0.06-0.69-0.18-1.35-0.67-1.83c-0.41-0.39-0.97-0.61-1.58-0.61c-1.29,0-2.26,1.01-2.26,2.28c0,1.07,0.77,2.26,2.27,2.26
			c0.44,0,0.86-0.12,1.23-0.35c0.37-0.23,0.67-0.58,0.87-1.05h-0.62c-0.28,0.56-0.82,0.89-1.48,0.89c-0.73,0.01-1.65-0.51-1.68-1.59
			H342.66z M336.14,34.93h0.58V31.1h0.94v-0.47h-0.94v-1.62h-0.58v1.62h-0.85v0.47h0.85V34.93z M333.27,34.93h0.58V31.1h0.93v-0.47
			h-0.93v-0.3c0-0.94,0.63-0.94,0.93-0.95v-0.47c-0.46,0-1.51,0.04-1.51,1.37v0.35h-0.63v0.47h0.63V34.93z M327.61,32.78
			c0-0.96,0.72-1.73,1.71-1.73c0.76,0,1.34,0.44,1.58,1.03c0.1,0.21,0.14,0.45,0.14,0.69c0,0.23-0.05,0.47-0.14,0.68
			c-0.23,0.61-0.79,1.05-1.55,1.05C328.16,34.5,327.62,33.57,327.61,32.78L327.61,32.78z M331.61,30.63h-0.59v0.9
			c-0.21-0.49-0.84-1.02-1.76-1.02c-1.31,0-2.23,1.01-2.23,2.27c0,1.18,0.83,2.27,2.23,2.27c0.77,0,1.42-0.36,1.76-1.01v0.89h0.59
			V30.63z M326.03,28.91c-1.61,0.75-2.52,2.46-2.52,4.08c0,1.66,0.87,3.26,2.52,4.11v-0.69c-1-0.58-1.87-1.86-1.87-3.42
			c0-1.58,0.9-2.86,1.87-3.42V28.91z M315.66,34.93h0.65v-2.81l2.55,2.81h0.82l-2.73-2.97l2.48-2.95h-0.72l-2.41,2.86v-2.86h-0.65
			V34.93z M310.56,33.29c0.04,1.13,0.86,1.75,1.86,1.75c1.1,0,1.83-0.77,1.83-1.74c0-1.09-0.88-1.4-1.44-1.62
			c-0.9-0.3-1.48-0.48-1.47-1.2c0-0.62,0.49-1.02,1.08-1.02c0.78,0,0.98,0.58,1.05,0.97h0.65c-0.1-1.12-0.94-1.53-1.68-1.53
			c-0.9,0-1.78,0.58-1.76,1.63c0,1.12,1.03,1.43,1.51,1.57c0.69,0.22,1.4,0.41,1.4,1.24c0,0.66-0.57,1.13-1.18,1.13
			c-0.37,0-1.09-0.21-1.18-1.19H310.56z M308.6,34.93h0.65v-5.92h-0.65V34.93z M303.45,34.93h0.66V29.6h0.93
			c0.54,0,0.9,0.02,1.2,0.22c0.37,0.24,0.58,0.7,0.58,1.14c0,0.43-0.14,0.79-0.45,1.09c-0.32,0.3-0.9,0.3-1.31,0.3h-0.19l1.67,2.58
			h0.72l-1.47-2.22c0.54-0.06,0.97-0.17,1.32-0.65c0.25-0.34,0.36-0.76,0.35-1.16c0-0.67-0.33-1.3-0.81-1.59
			c-0.3-0.19-0.74-0.3-1.66-0.3h-1.54V34.93z M296.85,34.93h2.92v-0.58h-2.26v-5.34h-0.66V34.93z M294.18,32.73h-2.36l1.18-2.97
			L294.18,32.73z M291.62,33.27h2.76l0.69,1.66h0.72l-2.45-5.92h-0.64l-2.47,5.92h0.71L291.62,33.27z M285.52,29.01v3.75
			c0,0.65,0.05,1.32,0.67,1.82c0.37,0.33,0.89,0.45,1.3,0.45c0.51,0,0.95-0.17,1.28-0.45c0.59-0.46,0.68-1.14,0.67-1.82v-3.75h-0.65
			v3.75c0,0.46,0,0.81-0.28,1.2c-0.2,0.3-0.59,0.49-1.02,0.49c-0.43,0-0.82-0.2-1.03-0.5c-0.28-0.4-0.28-0.74-0.28-1.19v-3.75
			H285.52z M280.07,29.6h1.18c0.81,0,1.36,0.26,1.74,0.66c0.39,0.43,0.58,1.04,0.58,1.73c0,1.42-0.79,2.36-2.31,2.36h-1.18V29.6z
			 M279.41,34.93h1.8c1.99,0,3.01-1.18,3.01-2.97c0-0.84-0.23-1.54-0.71-2.06c-0.59-0.7-1.49-0.89-2.33-0.89h-1.77V34.93z
			 M277.17,34.93h0.65v-5.92h-0.65V34.93z M272.19,33.29c0.04,1.13,0.86,1.75,1.86,1.75c1.1,0,1.83-0.77,1.83-1.74
			c0-1.09-0.88-1.4-1.44-1.62c-0.9-0.3-1.48-0.48-1.47-1.2c0-0.62,0.49-1.02,1.08-1.02c0.79,0,0.98,0.58,1.05,0.97h0.65
			c-0.1-1.12-0.94-1.53-1.68-1.53c-0.9,0-1.77,0.58-1.76,1.63c0,1.12,1.03,1.43,1.51,1.57c0.69,0.22,1.4,0.41,1.4,1.24
			c0,0.66-0.57,1.13-1.18,1.13c-0.37,0-1.09-0.21-1.18-1.19H272.19z M267.75,34.93h3.28v-0.58h-2.62v-2.11h2.61v-0.58h-2.61V29.6
			h2.62v-0.58h-3.28V34.93z M262.6,34.93h0.66V29.6h0.93c0.54,0,0.9,0.02,1.2,0.22c0.37,0.24,0.58,0.7,0.58,1.14
			c0,0.43-0.14,0.79-0.45,1.09c-0.32,0.3-0.9,0.3-1.31,0.3h-0.19l1.67,2.58h0.72l-1.47-2.22c0.54-0.06,0.97-0.17,1.32-0.65
			c0.25-0.34,0.36-0.76,0.35-1.16c0-0.67-0.33-1.3-0.81-1.59c-0.3-0.19-0.74-0.3-1.66-0.3h-1.54V34.93z"/>
		<g class="st4">
			<g>
				<defs>
					<rect id="SVGID_5_" x="65.43" y="36.93" width="377.05" height="185.17"/>
				</defs>
				<clipPath id="SVGID_6_">
					<use xlink:href="#SVGID_5_"  style="overflow:visible;"/>
				</clipPath>
				<g class="st5">
					<defs>
						<rect id="SVGID_7_" x="74.43" y="43.93" width="359.05" height="177.17"/>
					</defs>
					<clipPath id="SVGID_8_">
						<use xlink:href="#SVGID_7_"  style="overflow:visible;"/>
					</clipPath>
					
						<linearGradient id="SVGID_9_" gradientUnits="userSpaceOnUse" x1="-352.7245" y1="226.4725" x2="-351.7247" y2="226.4725" gradientTransform="matrix(268.1694 -268.1694 -268.1694 -268.1694 155442.7969 -33590.3516)">
						<stop  offset="0" style="stop-color:#7DC242"/>
						<stop  offset="5.054949e-03" style="stop-color:#7DC242"/>
						<stop  offset="0.3348" style="stop-color:#63BDE0"/>
						<stop  offset="0.6099" style="stop-color:#63BDE0"/>
						<stop  offset="0.9965" style="stop-color:#A970AF"/>
						<stop  offset="1" style="stop-color:#A970AF"/>
					</linearGradient>
					<polygon class="st6" points="-14.15,132.51 253.96,-135.6 522.07,132.51 253.96,400.63 					"/>
				</g>
			</g>
		</g>
	</g>
	<line class="st7" x1="73.14" y1="43.3" x2="146.86" y2="43.3"/>
	<line class="st7" x1="75.14" y1="76.74" x2="75.14" y2="45.3"/>
	<line class="st7" x1="146.86" y1="43.3" x2="218.58" y2="43.3"/>
	<line class="st7" x1="146.86" y1="76.74" x2="146.86" y2="45.3"/>
	<line class="st7" x1="218.57" y1="43.3" x2="290.29" y2="43.3"/>
	<line class="st7" x1="218.57" y1="76.74" x2="218.57" y2="45.3"/>
	<line class="st7" x1="290.29" y1="43.3" x2="362.01" y2="43.3"/>
	<line class="st7" x1="290.29" y1="76.74" x2="290.29" y2="45.3"/>
	<line class="st7" x1="362.01" y1="43.3" x2="435.72" y2="43.3"/>
	<line class="st7" x1="362.01" y1="76.74" x2="362.01" y2="45.3"/>
	<line class="st7" x1="433.72" y1="76.74" x2="433.72" y2="45.3"/>
	<line class="st7" x1="73.14" y1="78.74" x2="146.86" y2="78.74"/>
	<line class="st7" x1="75.14" y1="112.17" x2="75.14" y2="80.74"/>
	<line class="st7" x1="146.86" y1="78.74" x2="218.58" y2="78.74"/>
	<line class="st7" x1="146.86" y1="112.17" x2="146.86" y2="80.74"/>
	<line class="st7" x1="218.57" y1="78.74" x2="290.29" y2="78.74"/>
	<line class="st7" x1="218.57" y1="112.17" x2="218.57" y2="80.74"/>
	<line class="st7" x1="290.29" y1="78.74" x2="362.01" y2="78.74"/>
	<line class="st7" x1="290.29" y1="112.17" x2="290.29" y2="80.74"/>
	<line class="st7" x1="362.01" y1="78.74" x2="435.72" y2="78.74"/>
	<line class="st7" x1="362.01" y1="112.17" x2="362.01" y2="80.74"/>
	<line class="st7" x1="433.72" y1="112.17" x2="433.72" y2="80.74"/>
	<line class="st7" x1="73.14" y1="114.17" x2="146.86" y2="114.17"/>
	<line class="st7" x1="75.14" y1="147.6" x2="75.14" y2="116.17"/>
	<line class="st7" x1="146.86" y1="114.17" x2="218.58" y2="114.17"/>
	<line class="st7" x1="146.86" y1="147.6" x2="146.86" y2="116.17"/>
	<line class="st7" x1="218.57" y1="114.17" x2="290.29" y2="114.17"/>
	<line class="st7" x1="218.57" y1="147.6" x2="218.57" y2="116.17"/>
	<line class="st7" x1="290.29" y1="114.17" x2="362.01" y2="114.17"/>
	<line class="st7" x1="290.29" y1="147.6" x2="290.29" y2="116.17"/>
	<line class="st7" x1="362.01" y1="114.17" x2="435.72" y2="114.17"/>
	<line class="st7" x1="362.01" y1="147.6" x2="362.01" y2="116.17"/>
	<line class="st7" x1="433.72" y1="147.6" x2="433.72" y2="116.17"/>
	<line class="st7" x1="73.14" y1="149.6" x2="146.86" y2="149.6"/>
	<line class="st7" x1="75.14" y1="183.04" x2="75.14" y2="151.6"/>
	<line class="st7" x1="146.86" y1="149.6" x2="218.58" y2="149.6"/>
	<line class="st7" x1="146.86" y1="183.04" x2="146.86" y2="151.6"/>
	<line class="st7" x1="218.57" y1="149.6" x2="290.29" y2="149.6"/>
	<line class="st7" x1="218.57" y1="183.04" x2="218.57" y2="151.6"/>
	<line class="st7" x1="290.29" y1="149.6" x2="362.01" y2="149.6"/>
	<line class="st7" x1="290.29" y1="183.04" x2="290.29" y2="151.6"/>
	<line class="st7" x1="362.01" y1="149.6" x2="435.72" y2="149.6"/>
	<line class="st7" x1="362.01" y1="183.04" x2="362.01" y2="151.6"/>
	<line class="st7" x1="433.72" y1="183.04" x2="433.72" y2="151.6"/>
	<line class="st7" x1="73.14" y1="185.04" x2="146.86" y2="185.04"/>
	<line class="st7" x1="75.14" y1="218.47" x2="75.14" y2="187.04"/>
	<line class="st7" x1="146.86" y1="185.04" x2="218.58" y2="185.04"/>
	<line class="st7" x1="146.86" y1="218.47" x2="146.86" y2="187.04"/>
	<line class="st7" x1="218.57" y1="185.04" x2="290.29" y2="185.04"/>
	<line class="st7" x1="218.57" y1="218.47" x2="218.57" y2="187.04"/>
	<line class="st7" x1="290.29" y1="185.04" x2="362.01" y2="185.04"/>
	<line class="st7" x1="290.29" y1="218.47" x2="290.29" y2="187.04"/>
	<line class="st7" x1="362.01" y1="185.04" x2="435.72" y2="185.04"/>
	<line class="st7" x1="362.01" y1="218.47" x2="362.01" y2="187.04"/>
	<line class="st7" x1="433.72" y1="218.47" x2="433.72" y2="187.04"/>
	<line class="st7" x1="73.14" y1="220.47" x2="146.86" y2="220.47"/>
	<line class="st7" x1="146.86" y1="220.47" x2="218.58" y2="220.47"/>
	<line class="st7" x1="218.57" y1="220.47" x2="290.29" y2="220.47"/>
	<line class="st7" x1="290.29" y1="220.47" x2="362.01" y2="220.47"/>
	<line class="st7" x1="362.01" y1="220.47" x2="435.72" y2="220.47"/>
	<g class="st0">
		<defs>
			<rect id="SVGID_10_" width="451.24" height="257.43"/>
		</defs>
		<clipPath id="SVGID_11_">
			<use xlink:href="#SVGID_10_"  style="overflow:visible;"/>
		</clipPath>
		<path class="st8" d="M281.65,241.89h-0.92l-1.78,2.89l-1.82-2.89h-0.96l2.35,3.59v2.48h0.81v-2.48L281.65,241.89z M273.32,247.96
			h0.81v-5.39h2.02v-0.68h-4.85v0.68h2.02V247.96z M269.77,247.96h0.81v-6.07h-0.81V247.96z M265.01,247.96h4.02v-0.68h-3.21v-5.39
			h-0.81V247.96z M262.84,247.96h0.81v-6.07h-0.81V247.96z M257.79,242.57h1.62c0.7,0,1.29,0.12,1.29,0.96
			c0,0.64-0.37,0.97-1.29,0.97h-1.62V242.57z M256.99,247.96h2.93c1.21,0,1.84-0.85,1.84-1.74c0-0.75-0.41-1.31-1.15-1.46v-0.02
			c0.56-0.23,0.9-0.71,0.9-1.36c0-0.59-0.31-1.03-0.71-1.26c-0.37-0.22-1.07-0.22-1.61-0.22h-2.2V247.96z M257.79,245.18h1.85
			c0.68,0,1.32,0.22,1.32,1.01c0,0.66-0.44,1.09-1.14,1.09h-2.02V245.18z M253.55,242.62h0.02l1.01,2.83h-2.06L253.55,242.62z
			 M250.76,247.96h0.83l0.68-1.83h2.57l0.66,1.83h0.89l-2.37-6.07h-0.89L250.76,247.96z M246.46,242.57h1.61
			c0.7,0,1.29,0.12,1.29,0.96c0,0.64-0.37,0.97-1.29,0.97h-1.61V242.57z M245.66,247.96h2.93c1.21,0,1.84-0.85,1.84-1.74
			c0-0.75-0.41-1.31-1.15-1.46v-0.02c0.56-0.23,0.9-0.71,0.9-1.36c0-0.59-0.31-1.03-0.71-1.26c-0.37-0.22-1.07-0.22-1.61-0.22h-2.2
			V247.96z M246.46,245.18h1.84c0.68,0,1.32,0.22,1.32,1.01c0,0.66-0.44,1.09-1.14,1.09h-2.02V245.18z M239.66,244.92
			c0-1.22,0.62-2.5,2.1-2.5c1.48,0,2.1,1.28,2.1,2.5s-0.62,2.5-2.1,2.5C240.29,247.42,239.66,246.15,239.66,244.92 M238.86,244.92
			c0,1.65,0.98,3.18,2.91,3.18c1.93,0,2.91-1.53,2.91-3.18s-0.98-3.18-2.91-3.18C239.83,241.75,238.86,243.28,238.86,244.92
			 M233.38,247.96h0.81v-2.59h1.97c0.78,0,0.93,0.5,1.01,1.1c0.12,0.6-0.01,1.25,0.22,1.5h0.9c-0.34-0.42-0.31-1.08-0.36-1.67
			c-0.06-0.6-0.2-1.11-0.91-1.25v-0.02c0.73-0.2,1.05-0.81,1.05-1.54c0-0.97-0.7-1.59-1.84-1.59h-2.86V247.96z M234.18,244.69v-2.12
			h2.01c0.76,0,1.08,0.44,1.08,1.04c0,0.88-0.65,1.08-1.4,1.08H234.18z M228.67,242.57h1.58c0.91,0,1.33,0.39,1.33,1.11
			c0,0.72-0.42,1.12-1.33,1.11h-1.58V242.57z M227.87,247.96h0.81v-2.48h1.85c1.21,0.01,1.86-0.67,1.86-1.79
			c0-1.12-0.65-1.79-1.86-1.79h-2.66V247.96z"/>
		<path class="st9" d="M416.04,229.47h0.44v-2.11c0.01-0.71,0.43-1.24,1.13-1.24c0.71,0,0.92,0.47,0.92,1.09v2.25h0.44v-2.32
			c0-0.86-0.31-1.39-1.32-1.39c-0.51,0-0.99,0.29-1.15,0.73h-0.01v-0.62h-0.44V229.47z M414.76,225.17h0.44v-0.71h-0.44V225.17z
			 M414.76,229.47h0.44v-3.61h-0.44V229.47z M411.52,226.96c0.01-0.59,0.42-0.84,0.97-0.84c0.52,0,0.94,0.15,0.94,0.74
			c0,0.4-0.2,0.45-0.57,0.49c-0.95,0.11-1.94,0.15-1.94,1.16c0,0.73,0.54,1.06,1.21,1.06c0.69,0,1.01-0.26,1.32-0.73h0.01
			c0,0.38,0.07,0.63,0.52,0.63c0.12,0,0.19-0.01,0.29-0.03v-0.37c-0.04,0.01-0.09,0.03-0.14,0.03c-0.17,0-0.26-0.1-0.26-0.27v-1.92
			c0-0.97-0.69-1.16-1.33-1.16c-0.83,0-1.42,0.36-1.46,1.21H411.52z M413.43,228.07c0.01,0.71-0.59,1.13-1.26,1.13
			c-0.41,0-0.8-0.27-0.8-0.71c0-0.71,0.93-0.7,1.68-0.83c0.12-0.02,0.32-0.06,0.37-0.16h0.01V228.07z M409.75,224.77h-0.44v1.08
			h-0.63v0.37h0.63v2.47c-0.01,0.61,0.2,0.81,0.78,0.81c0.13,0,0.26-0.01,0.39-0.01v-0.38c-0.13,0.01-0.25,0.02-0.38,0.02
			c-0.32-0.02-0.36-0.19-0.36-0.48v-2.44h0.73v-0.37h-0.73V224.77z M406.84,229.47h0.44v-1.93c0-0.75,0.55-1.34,1.34-1.29v-0.44
			c-0.65-0.03-1.14,0.31-1.37,0.9h-0.01v-0.85h-0.4V229.47z M403.47,227.41c0.07-0.66,0.47-1.29,1.19-1.29
			c0.71,0,1.13,0.62,1.15,1.29H403.47z M406.25,227.78c0.04-1.01-0.43-2.03-1.59-2.03c-1.15,0-1.63,0.96-1.63,1.91
			c0,1.03,0.48,1.91,1.63,1.91c0.91,0,1.39-0.47,1.58-1.29h-0.44c-0.14,0.55-0.49,0.93-1.14,0.93c-0.85,0-1.18-0.78-1.19-1.42
			H406.25z M402.57,226.99c-0.1-0.83-0.69-1.24-1.46-1.24c-1.11,0-1.71,0.87-1.71,1.91c0,1.04,0.6,1.91,1.71,1.91
			c0.81,0,1.37-0.53,1.49-1.4h-0.44c-0.06,0.6-0.5,1.03-1.05,1.03c-0.85,0-1.27-0.77-1.27-1.54c0-0.77,0.42-1.54,1.27-1.54
			c0.57,0,0.9,0.33,1.02,0.87H402.57z M396.26,224.77h-0.44v1.08h-0.63v0.37h0.63v2.47c-0.01,0.61,0.2,0.81,0.78,0.81
			c0.13,0,0.26-0.01,0.39-0.01v-0.38c-0.13,0.01-0.25,0.02-0.38,0.02c-0.32-0.02-0.36-0.19-0.36-0.48v-2.44h0.74v-0.37h-0.74V224.77
			z M394.8,226.91c-0.03-0.78-0.6-1.16-1.32-1.16c-0.64,0-1.36,0.28-1.36,1.01c0,0.62,0.43,0.81,1.01,0.97l0.57,0.13
			c0.4,0.1,0.79,0.24,0.79,0.66c0,0.5-0.57,0.69-0.99,0.69c-0.59,0-1.03-0.31-1.06-0.9h-0.44c0.07,0.88,0.64,1.27,1.48,1.27
			c0.67,0,1.45-0.3,1.45-1.08c0-0.63-0.52-0.93-1.03-1l-0.59-0.13c-0.3-0.08-0.75-0.22-0.75-0.61c0-0.47,0.46-0.62,0.85-0.62
			c0.51,0,0.92,0.25,0.95,0.79H394.8z M389.83,226.12c0.85,0,1.27,0.77,1.27,1.54c0,0.77-0.42,1.54-1.27,1.54
			c-0.85,0-1.27-0.77-1.27-1.54C388.56,226.89,388.98,226.12,389.83,226.12 M389.83,225.75c-1.11,0-1.71,0.87-1.71,1.91
			c0,1.04,0.6,1.91,1.71,1.91c1.11,0,1.71-0.87,1.71-1.91C391.53,226.62,390.93,225.75,389.83,225.75 M382.47,229.47h0.44v-2.02
			c0.01-0.76,0.32-1.33,1.08-1.33c0.56,0,0.76,0.41,0.76,0.9v2.45h0.44v-2.04c0-0.67,0.22-1.3,0.98-1.3c0.63,0,0.85,0.32,0.85,0.92
			v2.43h0.44v-2.45c0-0.85-0.4-1.27-1.2-1.27c-0.48,0-0.93,0.23-1.15,0.71c-0.13-0.48-0.56-0.71-1.04-0.71
			c-0.58,0-0.95,0.28-1.18,0.71h-0.02v-0.61h-0.4V229.47z M381.18,229.47h0.44v-5h-0.44V229.47z M378.56,224.94l0.96,2.56h-1.97
			L378.56,224.94z M376.3,229.47h0.51l0.6-1.55h2.27l0.61,1.55h0.51l-1.96-5h-0.53L376.3,229.47z"/>
		<path class="st9" d="M337.66,229.45l-0.15,0.41c-0.15,0.34-0.24,0.57-0.63,0.57c-0.1,0-0.2-0.01-0.3-0.04v0.37
			c0.07,0.03,0.16,0.03,0.34,0.04c0.55,0,0.7-0.18,0.95-0.78l1.57-4.17h-0.44l-1.11,3.08l-1.19-3.08h-0.47L337.66,229.45z
			 M335.33,229.47h0.44v-5h-0.44V229.47z M331.31,229.47h0.4v-0.69h0.01c0.2,0.49,0.71,0.79,1.29,0.79c1.1,0,1.62-0.89,1.62-1.91
			c0-1.02-0.52-1.91-1.62-1.91c-0.54,0-1.06,0.27-1.25,0.79h-0.01v-2.07h-0.44V229.47z M334.2,227.66c0,0.75-0.34,1.54-1.18,1.54
			c-0.94,0-1.27-0.79-1.27-1.54c0-0.75,0.33-1.54,1.27-1.54C333.86,226.12,334.2,226.91,334.2,227.66 M328.07,226.96
			c0.01-0.59,0.42-0.84,0.97-0.84c0.52,0,0.95,0.15,0.95,0.74c0,0.4-0.2,0.45-0.57,0.49c-0.95,0.11-1.94,0.15-1.94,1.16
			c0,0.73,0.54,1.06,1.21,1.06c0.69,0,1.01-0.26,1.32-0.73h0.01c0,0.38,0.07,0.63,0.52,0.63c0.12,0,0.19-0.01,0.29-0.03v-0.37
			c-0.04,0.01-0.09,0.03-0.14,0.03c-0.17,0-0.26-0.1-0.26-0.27v-1.92c0-0.97-0.69-1.16-1.33-1.16c-0.83,0-1.42,0.36-1.46,1.21
			H328.07z M329.99,228.07c0.01,0.71-0.59,1.13-1.26,1.13c-0.41,0-0.8-0.27-0.8-0.71c0-0.71,0.93-0.7,1.68-0.83
			c0.12-0.02,0.32-0.06,0.37-0.16h0.01V228.07z M323.66,229.47h0.4v-0.69h0.01c0.2,0.49,0.71,0.79,1.29,0.79
			c1.1,0,1.62-0.89,1.62-1.91c0-1.02-0.52-1.91-1.62-1.91c-0.54,0-1.06,0.27-1.25,0.79h-0.01v-2.07h-0.44V229.47z M326.55,227.66
			c0,0.75-0.34,1.54-1.18,1.54c-0.94,0-1.27-0.79-1.27-1.54c0-0.75,0.33-1.54,1.27-1.54C326.21,226.12,326.55,226.91,326.55,227.66
			 M321.29,226.12c0.85,0,1.27,0.77,1.27,1.54c0,0.77-0.42,1.54-1.27,1.54c-0.85,0-1.27-0.77-1.27-1.54
			C320.02,226.89,320.44,226.12,321.29,226.12 M321.29,225.75c-1.11,0-1.71,0.87-1.71,1.91c0,1.04,0.6,1.91,1.71,1.91
			c1.11,0,1.71-0.87,1.71-1.91C323,226.62,322.4,225.75,321.29,225.75 M317.69,229.47h0.44v-1.93c0-0.75,0.55-1.34,1.34-1.29v-0.44
			c-0.65-0.03-1.14,0.31-1.36,0.9h-0.01v-0.85h-0.4V229.47z M313.84,224.87h1.64c0.66,0,1.11,0.34,1.11,1.02
			c0,0.69-0.46,1.02-1.11,1.02h-1.64V224.87z M313.36,229.47h0.47v-2.14h1.74c0.9,0,1.48-0.52,1.48-1.43c0-0.9-0.59-1.43-1.48-1.43
			h-2.22V229.47z"/>
		<path class="st9" d="M282.46,227.41c0.07-0.66,0.47-1.29,1.19-1.29c0.71,0,1.13,0.62,1.15,1.29H282.46z M285.24,227.78
			c0.04-1.01-0.43-2.03-1.59-2.03c-1.15,0-1.63,0.96-1.63,1.91c0,1.03,0.48,1.91,1.63,1.91c0.91,0,1.39-0.47,1.57-1.29h-0.44
			c-0.14,0.55-0.49,0.93-1.13,0.93c-0.85,0-1.18-0.78-1.19-1.42H285.24z M280.92,229.47h0.44v-5h-0.44V229.47z M276.89,229.47h0.41
			v-0.69h0.01c0.2,0.49,0.71,0.79,1.29,0.79c1.1,0,1.62-0.89,1.62-1.91c0-1.02-0.52-1.91-1.62-1.91c-0.54,0-1.06,0.27-1.25,0.79
			h-0.01v-2.07h-0.44V229.47z M279.78,227.66c0,0.75-0.34,1.54-1.18,1.54c-0.94,0-1.27-0.79-1.27-1.54c0-0.75,0.33-1.54,1.27-1.54
			C279.44,226.12,279.78,226.91,279.78,227.66 M275.6,225.17h0.44v-0.71h-0.44V225.17z M275.6,229.47h0.44v-3.61h-0.44V229.47z
			 M274.83,226.91c-0.03-0.78-0.6-1.16-1.32-1.16c-0.64,0-1.36,0.28-1.36,1.01c0,0.62,0.43,0.81,1.01,0.97l0.57,0.13
			c0.4,0.1,0.79,0.24,0.79,0.66c0,0.5-0.57,0.69-0.99,0.69c-0.59,0-1.03-0.31-1.06-0.9h-0.44c0.07,0.88,0.64,1.27,1.48,1.27
			c0.67,0,1.45-0.3,1.45-1.08c0-0.63-0.52-0.93-1.03-1l-0.59-0.13c-0.3-0.08-0.75-0.22-0.75-0.61c0-0.47,0.46-0.62,0.85-0.62
			c0.5,0,0.92,0.25,0.95,0.79H274.83z M271.47,226.91c-0.03-0.78-0.6-1.16-1.32-1.16c-0.64,0-1.36,0.28-1.36,1.01
			c0,0.62,0.43,0.81,1.01,0.97l0.57,0.13c0.4,0.1,0.79,0.24,0.79,0.66c0,0.5-0.58,0.69-0.99,0.69c-0.59,0-1.03-0.31-1.06-0.9h-0.44
			c0.07,0.88,0.64,1.27,1.48,1.27c0.67,0,1.45-0.3,1.45-1.08c0-0.63-0.52-0.93-1.03-1l-0.59-0.13c-0.3-0.08-0.75-0.22-0.75-0.61
			c0-0.47,0.46-0.62,0.85-0.62c0.5,0,0.92,0.25,0.95,0.79H271.47z M266.5,226.12c0.85,0,1.27,0.77,1.27,1.54
			c0,0.77-0.42,1.54-1.27,1.54c-0.85,0-1.27-0.77-1.27-1.54C265.23,226.89,265.65,226.12,266.5,226.12 M266.5,225.75
			c-1.11,0-1.71,0.87-1.71,1.91c0,1.04,0.6,1.91,1.71,1.91c1.11,0,1.71-0.87,1.71-1.91C268.21,226.62,267.6,225.75,266.5,225.75
			 M260.95,230.8h0.44v-2.02h0.01c0.19,0.52,0.71,0.79,1.25,0.79c1.1,0,1.62-0.89,1.62-1.91c0-1.02-0.52-1.91-1.62-1.91
			c-0.58,0-1.08,0.3-1.29,0.79h-0.01v-0.69h-0.4V230.8z M263.85,227.66c0,0.75-0.34,1.54-1.18,1.54c-0.94,0-1.27-0.79-1.27-1.54
			c0-0.82,0.29-1.54,1.27-1.54C263.5,226.12,263.85,226.91,263.85,227.66 M256.8,229.45l-0.15,0.41c-0.15,0.34-0.24,0.57-0.63,0.57
			c-0.1,0-0.2-0.01-0.3-0.04v0.37c0.07,0.03,0.16,0.03,0.33,0.04c0.55,0,0.7-0.18,0.95-0.78l1.57-4.17h-0.44l-1.11,3.08l-1.19-3.08
			h-0.47L256.8,229.45z M254.48,229.47h0.44v-5h-0.44V229.47z M250.45,229.47h0.4v-0.69h0.01c0.2,0.49,0.71,0.79,1.29,0.79
			c1.1,0,1.62-0.89,1.62-1.91c0-1.02-0.52-1.91-1.62-1.91c-0.54,0-1.06,0.27-1.25,0.79h-0.01v-2.07h-0.44V229.47z M253.35,227.66
			c0,0.75-0.34,1.54-1.18,1.54c-0.94,0-1.27-0.79-1.27-1.54c0-0.75,0.33-1.54,1.27-1.54C253,226.12,253.35,226.91,253.35,227.66
			 M247.22,226.96c0.01-0.59,0.42-0.84,0.97-0.84c0.52,0,0.95,0.15,0.95,0.74c0,0.4-0.2,0.45-0.57,0.49
			c-0.95,0.11-1.94,0.15-1.94,1.16c0,0.73,0.54,1.06,1.21,1.06c0.69,0,1.01-0.26,1.32-0.73h0.01c0,0.38,0.07,0.63,0.52,0.63
			c0.12,0,0.19-0.01,0.29-0.03v-0.37c-0.04,0.01-0.09,0.03-0.14,0.03c-0.18,0-0.26-0.1-0.26-0.27v-1.92c0-0.97-0.69-1.16-1.33-1.16
			c-0.83,0-1.42,0.36-1.46,1.21H247.22z M249.13,228.07c0.01,0.71-0.59,1.13-1.26,1.13c-0.41,0-0.81-0.27-0.81-0.71
			c0-0.71,0.93-0.7,1.68-0.83c0.12-0.02,0.32-0.06,0.37-0.16h0.01V228.07z M243.06,229.47h0.44v-2.11c0.01-0.71,0.43-1.24,1.13-1.24
			c0.72,0,0.92,0.47,0.92,1.09v2.25h0.44v-2.32c0-0.86-0.31-1.39-1.32-1.39c-0.51,0-0.99,0.29-1.15,0.73h-0.01v-0.62h-0.44V229.47z
			 M240.7,226.12c0.85,0,1.27,0.77,1.27,1.54c0,0.77-0.42,1.54-1.27,1.54c-0.85,0-1.27-0.77-1.27-1.54
			C239.43,226.89,239.85,226.12,240.7,226.12 M240.7,225.75c-1.11,0-1.71,0.87-1.71,1.91c0,1.04,0.6,1.91,1.71,1.91
			c1.11,0,1.71-0.87,1.71-1.91C242.4,226.62,241.8,225.75,240.7,225.75 M238.41,226.91c-0.03-0.78-0.6-1.16-1.32-1.16
			c-0.64,0-1.36,0.28-1.36,1.01c0,0.62,0.43,0.81,1.01,0.97l0.57,0.13c0.4,0.1,0.79,0.24,0.79,0.66c0,0.5-0.57,0.69-0.99,0.69
			c-0.59,0-1.03-0.31-1.06-0.9h-0.44c0.07,0.88,0.64,1.27,1.48,1.27c0.67,0,1.45-0.3,1.45-1.08c0-0.63-0.52-0.93-1.03-1l-0.59-0.13
			c-0.3-0.08-0.75-0.22-0.75-0.61c0-0.47,0.46-0.62,0.85-0.62c0.51,0,0.93,0.25,0.95,0.79H238.41z M232.57,226.96
			c0.01-0.59,0.42-0.84,0.97-0.84c0.52,0,0.95,0.15,0.95,0.74c0,0.4-0.2,0.45-0.57,0.49c-0.95,0.11-1.94,0.15-1.94,1.16
			c0,0.73,0.54,1.06,1.21,1.06c0.69,0,1.01-0.26,1.32-0.73h0.01c0,0.38,0.07,0.63,0.52,0.63c0.12,0,0.19-0.01,0.29-0.03v-0.37
			c-0.04,0.01-0.09,0.03-0.14,0.03c-0.18,0-0.26-0.1-0.26-0.27v-1.92c0-0.97-0.69-1.16-1.33-1.16c-0.83,0-1.42,0.36-1.46,1.21
			H232.57z M234.48,228.07c0.01,0.71-0.59,1.13-1.26,1.13c-0.41,0-0.81-0.27-0.81-0.71c0-0.71,0.93-0.7,1.68-0.83
			c0.12-0.02,0.32-0.06,0.37-0.16h0.01V228.07z M228.8,227.41c0.07-0.66,0.47-1.29,1.19-1.29c0.71,0,1.13,0.62,1.15,1.29H228.8z
			 M231.57,227.78c0.04-1.01-0.43-2.03-1.59-2.03c-1.15,0-1.63,0.96-1.63,1.91c0,1.03,0.48,1.91,1.63,1.91
			c0.91,0,1.38-0.47,1.57-1.29h-0.44c-0.14,0.55-0.49,0.93-1.13,0.93c-0.85,0-1.18-0.78-1.19-1.42H231.57z M224.43,224.87h1.78
			c0.71,0,1.08,0.39,1.08,0.99c0,0.61-0.5,0.97-1.08,0.97h-1.78V224.87z M223.95,229.47h0.47v-2.22h1.81c0.9-0.03,0.96,0.74,1,1.44
			c0.01,0.21,0.01,0.58,0.13,0.78h0.52c-0.21-0.25-0.21-0.94-0.23-1.28c-0.04-0.6-0.22-1.04-0.87-1.13v-0.01
			c0.64-0.12,0.97-0.64,0.97-1.27c0-0.9-0.69-1.3-1.52-1.3h-2.29V229.47z"/>
		<path class="st9" d="M192.34,229.45l-0.15,0.41c-0.15,0.34-0.24,0.57-0.63,0.57c-0.1,0-0.2-0.01-0.3-0.04v0.37
			c0.07,0.03,0.16,0.03,0.34,0.04c0.55,0,0.7-0.17,0.95-0.78l1.57-4.16h-0.44l-1.11,3.08l-1.19-3.08h-0.47L192.34,229.45z
			 M190.01,229.47h0.44v-5h-0.44V229.47z M186.63,227.41c0.07-0.66,0.47-1.29,1.19-1.29c0.71,0,1.13,0.62,1.15,1.29H186.63z
			 M189.41,227.78c0.04-1.01-0.43-2.03-1.59-2.03c-1.15,0-1.63,0.96-1.63,1.91c0,1.03,0.48,1.91,1.63,1.91
			c0.91,0,1.39-0.48,1.57-1.29h-0.44c-0.14,0.55-0.49,0.92-1.13,0.92c-0.85,0-1.18-0.78-1.19-1.42H189.41z M182.87,229.47h0.44
			v-1.37l0.71-0.59l1.43,1.97h0.55l-1.64-2.27l1.54-1.34h-0.59l-2,1.75v-3.14h-0.44V229.47z M181.59,225.17h0.44v-0.71h-0.44V225.17
			z M181.59,229.47h0.44v-3.61h-0.44V229.47z M180.29,229.47h0.44v-5h-0.44V229.47z M176.52,229.47h0.44v-2.11
			c0.01-0.71,0.43-1.24,1.13-1.24c0.71,0,0.92,0.47,0.92,1.09v2.25h0.44v-2.32c0-0.86-0.31-1.39-1.32-1.39
			c-0.51,0-0.99,0.29-1.16,0.73h-0.01v-0.62h-0.44V229.47z M171.77,227.67c0,1.03,0.55,1.9,1.94,1.9c1.39,0,1.94-0.87,1.94-1.9v-3.2
			h-0.47v3.09c0.01,1.16-0.55,1.6-1.47,1.6c-0.92,0-1.47-0.44-1.46-1.6v-3.09h-0.47V227.67z"/>
		<path class="st9" d="M119.91,227.41c0.07-0.66,0.47-1.29,1.19-1.29c0.71,0,1.13,0.62,1.15,1.29H119.91z M122.69,227.78
			c0.04-1.01-0.43-2.03-1.59-2.03c-1.15,0-1.63,0.96-1.63,1.91c0,1.03,0.48,1.91,1.63,1.91c0.91,0,1.39-0.47,1.57-1.29h-0.44
			c-0.14,0.55-0.49,0.93-1.14,0.93c-0.85,0-1.18-0.78-1.19-1.42H122.69z M118.28,224.77h-0.44v1.08h-0.63v0.37h0.63v2.47
			c-0.01,0.61,0.19,0.81,0.78,0.81c0.13,0,0.26-0.01,0.39-0.01v-0.38c-0.13,0.01-0.25,0.02-0.38,0.02
			c-0.31-0.02-0.36-0.19-0.36-0.48v-2.44h0.74v-0.37h-0.74V224.77z M115.21,226.12c0.85,0,1.27,0.77,1.27,1.54
			c0,0.77-0.42,1.54-1.27,1.54c-0.85,0-1.27-0.77-1.27-1.54C113.95,226.89,114.37,226.12,115.21,226.12 M115.21,225.75
			c-1.11,0-1.71,0.87-1.71,1.91c0,1.04,0.6,1.91,1.71,1.91c1.11,0,1.71-0.87,1.71-1.91C116.92,226.62,116.32,225.75,115.21,225.75
			 M107.86,229.47h0.44v-2.02c0.01-0.76,0.32-1.33,1.08-1.33c0.56,0,0.76,0.41,0.76,0.9v2.45h0.44v-2.04c0-0.67,0.22-1.3,0.98-1.3
			c0.63,0,0.85,0.32,0.85,0.92v2.43h0.44v-2.45c0-0.85-0.41-1.27-1.2-1.27c-0.48,0-0.93,0.23-1.15,0.71
			c-0.13-0.48-0.56-0.71-1.04-0.71c-0.57,0-0.95,0.28-1.18,0.71h-0.02v-0.61h-0.4V229.47z M104.48,227.41
			c0.07-0.66,0.47-1.29,1.19-1.29c0.71,0,1.13,0.62,1.15,1.29H104.48z M107.26,227.78c0.04-1.01-0.43-2.03-1.59-2.03
			c-1.15,0-1.63,0.96-1.63,1.91c0,1.03,0.48,1.91,1.63,1.91c0.91,0,1.39-0.47,1.57-1.29h-0.44c-0.14,0.55-0.49,0.93-1.13,0.93
			c-0.85,0-1.18-0.78-1.19-1.42H107.26z M100.11,224.87h1.78c0.71,0,1.08,0.39,1.08,0.99c0,0.61-0.5,0.97-1.08,0.97h-1.78V224.87z
			 M99.64,229.47h0.47v-2.22h1.81c0.9-0.03,0.96,0.74,1,1.44c0.01,0.21,0.01,0.58,0.13,0.78h0.52c-0.21-0.25-0.21-0.94-0.23-1.28
			c-0.04-0.6-0.22-1.04-0.87-1.13v-0.01c0.64-0.12,0.97-0.64,0.97-1.27c0-0.9-0.69-1.3-1.52-1.3h-2.29V229.47z"/>
		<path class="st9" d="M67.18,200.55h-0.44v1.08h-0.63v0.37h0.63v2.47c-0.01,0.62,0.2,0.81,0.78,0.81c0.13,0,0.26-0.01,0.39-0.01
			v-0.38c-0.13,0.01-0.25,0.02-0.38,0.02c-0.32-0.02-0.36-0.19-0.36-0.48v-2.44h0.74v-0.37h-0.74V200.55z M62.72,205.25h0.44v-2.11
			c0.01-0.71,0.43-1.24,1.13-1.24c0.71,0,0.92,0.47,0.92,1.09v2.25h0.44v-2.32c0-0.86-0.31-1.39-1.32-1.39c-0.51,0-1,0.29-1.16,0.73
			h-0.01v-0.62h-0.44V205.25z M59.49,202.74c0.01-0.59,0.42-0.84,0.97-0.84c0.52,0,0.94,0.15,0.94,0.74c0,0.4-0.2,0.45-0.57,0.49
			c-0.95,0.11-1.94,0.15-1.94,1.16c0,0.73,0.55,1.06,1.21,1.06c0.69,0,1.01-0.26,1.32-0.73h0.01c0,0.38,0.07,0.63,0.52,0.63
			c0.12,0,0.19-0.01,0.29-0.03v-0.37c-0.03,0.01-0.09,0.03-0.14,0.03c-0.17,0-0.26-0.1-0.26-0.27v-1.92c0-0.97-0.69-1.16-1.33-1.16
			c-0.83,0-1.42,0.36-1.46,1.21H59.49z M61.4,203.85c0.01,0.71-0.59,1.13-1.26,1.13c-0.41,0-0.81-0.27-0.81-0.71
			c0-0.71,0.93-0.7,1.68-0.83c0.12-0.02,0.31-0.06,0.37-0.16h0.01V203.85z M58.45,202.77c-0.1-0.83-0.69-1.24-1.46-1.24
			c-1.11,0-1.71,0.87-1.71,1.91c0,1.04,0.6,1.91,1.71,1.91c0.81,0,1.37-0.53,1.49-1.4h-0.44c-0.06,0.6-0.5,1.03-1.05,1.03
			c-0.85,0-1.27-0.77-1.27-1.54c0-0.77,0.42-1.54,1.27-1.54c0.57,0,0.9,0.33,1.02,0.87H58.45z M54.17,200.96h0.44v-0.71h-0.44
			V200.96z M52.59,205.25h0.44v-3.24h0.72v-0.37h-0.72v-0.31c0.01-0.39-0.01-0.7,0.48-0.7c0.1,0,0.2,0.01,0.32,0.04v-0.38
			c-0.14-0.02-0.25-0.03-0.37-0.03c-0.71,0-0.88,0.43-0.88,1.06v0.33h-0.62v0.37h0.62V205.25z M54.17,205.25h0.44v-3.61h-0.44
			V205.25z M51.06,200.96h0.44v-0.71h-0.44V200.96z M51.06,205.25h0.44v-3.61h-0.44V205.25z M47.29,205.25h0.44v-2.11
			c0.01-0.71,0.44-1.24,1.14-1.24c0.71,0,0.92,0.47,0.92,1.09v2.25h0.44v-2.32c0-0.86-0.31-1.39-1.32-1.39
			c-0.51,0-0.99,0.29-1.16,0.73h-0.01v-0.62h-0.44V205.25z M46.46,201.64h-0.44v0.62H46c-0.18-0.4-0.62-0.73-1.15-0.73
			c-1.04,0-1.63,0.82-1.63,1.82c0,1.03,0.48,1.85,1.63,1.85c0.52,0,0.94-0.3,1.15-0.74h0.01v0.49c0,0.88-0.35,1.37-1.16,1.37
			c-0.49,0-0.96-0.19-1.06-0.72h-0.44c0.06,0.77,0.78,1.09,1.5,1.09c1.18,0,1.6-0.66,1.6-1.74V201.64z M44.86,204.84
			c-0.81,0-1.19-0.71-1.19-1.43c0-0.75,0.35-1.5,1.19-1.5c0.83,0,1.16,0.79,1.16,1.5C46.02,204.14,45.62,204.84,44.86,204.84
			 M42.12,200.96h0.44v-0.71h-0.44V200.96z M42.12,205.25h0.44v-3.61h-0.44V205.25z M41.35,202.7c-0.03-0.79-0.6-1.16-1.32-1.16
			c-0.64,0-1.36,0.28-1.36,1.01c0,0.62,0.43,0.81,1.01,0.97l0.57,0.13c0.4,0.1,0.79,0.24,0.79,0.66c0,0.5-0.57,0.69-0.99,0.69
			c-0.59,0-1.03-0.31-1.06-0.9h-0.44c0.07,0.88,0.64,1.27,1.48,1.27c0.67,0,1.45-0.3,1.45-1.08c0-0.63-0.52-0.92-1.03-1l-0.59-0.13
			c-0.3-0.08-0.75-0.22-0.75-0.61c0-0.47,0.46-0.62,0.85-0.62c0.5,0,0.92,0.24,0.94,0.79H41.35z M34.98,205.25h0.44v-2.11
			c0.01-0.71,0.43-1.24,1.13-1.24c0.71,0,0.92,0.47,0.92,1.09v2.25h0.44v-2.32c0-0.86-0.31-1.39-1.32-1.39
			c-0.51,0-0.99,0.29-1.16,0.73h-0.01v-0.62h-0.44V205.25z M33.55,205.25h0.47v-5h-0.47V205.25z"/>
		<path class="st9" d="M57.28,169.82h0.44v-1.93c0-0.75,0.55-1.34,1.34-1.29v-0.44c-0.65-0.03-1.14,0.31-1.36,0.89h-0.01v-0.85
			h-0.41V169.82z M54.91,166.47c0.85,0,1.27,0.77,1.27,1.54c0,0.77-0.42,1.54-1.27,1.54c-0.85,0-1.27-0.77-1.27-1.54
			C53.65,167.24,54.07,166.47,54.91,166.47 M54.91,166.1c-1.11,0-1.71,0.87-1.71,1.91c0,1.04,0.6,1.91,1.71,1.91
			c1.11,0,1.71-0.87,1.71-1.91C56.62,166.98,56.02,166.1,54.91,166.1 M49.62,169.82h0.44v-2.11c0.01-0.71,0.43-1.24,1.13-1.24
			c0.71,0,0.92,0.47,0.92,1.09v2.25h0.44v-2.32c0-0.86-0.31-1.39-1.32-1.39c-0.51,0-1,0.29-1.16,0.73h-0.01v-0.62h-0.44V169.82z
			 M48.34,165.53h0.44v-0.71h-0.44V165.53z M48.34,169.82h0.44v-3.61h-0.44V169.82z M42.57,169.82h0.47v-4.32h0.01l1.72,4.32h0.45
			l1.71-4.32h0.01v4.32h0.47v-5h-0.7L45,169.2l-1.73-4.38h-0.7V169.82z"/>
		<path class="st9" d="M62.08,132.33c0.07-0.66,0.47-1.29,1.19-1.29c0.72,0,1.13,0.62,1.15,1.29H62.08z M64.86,132.7
			c0.04-1.01-0.43-2.03-1.59-2.03c-1.15,0-1.63,0.96-1.63,1.91c0,1.03,0.48,1.91,1.63,1.91c0.91,0,1.39-0.48,1.57-1.3H64.4
			c-0.14,0.55-0.49,0.93-1.14,0.93c-0.85,0-1.18-0.78-1.19-1.42H64.86z M60.45,129.69h-0.44v1.09h-0.63v0.37h0.63v2.47
			c-0.01,0.62,0.2,0.81,0.78,0.81c0.13,0,0.26-0.01,0.39-0.01v-0.38c-0.13,0.01-0.25,0.02-0.38,0.02c-0.31-0.02-0.36-0.19-0.36-0.48
			v-2.44h0.74v-0.37h-0.74V129.69z M56.51,131.88c0.01-0.59,0.42-0.84,0.97-0.84c0.52,0,0.95,0.15,0.95,0.74
			c0,0.4-0.2,0.45-0.57,0.49c-0.95,0.11-1.94,0.15-1.94,1.16c0,0.73,0.54,1.06,1.21,1.06c0.69,0,1.01-0.27,1.32-0.73h0.01
			c0,0.38,0.07,0.63,0.52,0.63c0.12,0,0.19-0.01,0.29-0.03v-0.37c-0.04,0.01-0.09,0.03-0.14,0.03c-0.17,0-0.26-0.1-0.26-0.27v-1.92
			c0-0.97-0.69-1.16-1.33-1.16c-0.83,0-1.42,0.36-1.46,1.21H56.51z M58.43,132.99c0.01,0.71-0.59,1.13-1.26,1.13
			c-0.41,0-0.81-0.27-0.81-0.71c0-0.71,0.93-0.7,1.68-0.83c0.12-0.02,0.32-0.06,0.37-0.16h0.01V132.99z M53.91,134.38h0.44v-1.92
			c0-0.75,0.55-1.34,1.34-1.3v-0.44c-0.65-0.03-1.14,0.31-1.36,0.9h-0.01v-0.85h-0.4V134.38z M50.54,132.33
			c0.07-0.66,0.47-1.29,1.19-1.29c0.72,0,1.13,0.62,1.15,1.29H50.54z M53.31,132.7c0.03-1.01-0.43-2.03-1.59-2.03
			c-1.15,0-1.63,0.96-1.63,1.91c0,1.03,0.48,1.91,1.63,1.91c0.91,0,1.39-0.48,1.58-1.3h-0.44c-0.14,0.55-0.49,0.93-1.13,0.93
			c-0.85,0-1.18-0.78-1.19-1.42H53.31z M49.44,129.39H49v2.07h-0.01c-0.19-0.52-0.71-0.79-1.25-0.79c-1.1,0-1.62,0.89-1.62,1.91
			c0,1.02,0.52,1.91,1.62,1.91c0.53,0,1.1-0.32,1.29-0.79h0.01v0.68h0.4V129.39z M46.55,132.58c0-0.75,0.34-1.54,1.18-1.54
			c0.94,0,1.27,0.79,1.27,1.54c0,0.75-0.33,1.54-1.27,1.54C46.89,134.12,46.55,133.33,46.55,132.58 M43.89,131.04
			c0.85,0,1.27,0.77,1.27,1.54c0,0.77-0.42,1.54-1.27,1.54c-0.85,0-1.27-0.77-1.27-1.54C42.63,131.81,43.05,131.04,43.89,131.04
			 M43.89,130.67c-1.11,0-1.71,0.87-1.71,1.91c0,1.04,0.6,1.91,1.71,1.91c1.11,0,1.71-0.87,1.71-1.91
			C45.6,131.54,45,130.67,43.89,130.67 M36.61,134.38h0.47v-4.32h0.01l1.72,4.32h0.45l1.71-4.32h0.01v4.32h0.47v-5h-0.7l-1.72,4.38
			l-1.73-4.38h-0.7V134.38z"/>
		<path class="st9" d="M57.22,98.95h0.44v-1.92c0-0.75,0.55-1.34,1.34-1.29v-0.44c-0.65-0.03-1.14,0.31-1.36,0.89h-0.01v-0.85h-0.41
			V98.95z M54.85,95.61c0.85,0,1.27,0.77,1.27,1.54c0,0.77-0.42,1.54-1.27,1.54c-0.85,0-1.27-0.77-1.27-1.54
			C53.58,96.38,54,95.61,54.85,95.61 M54.85,95.24c-1.11,0-1.71,0.87-1.71,1.91c0,1.04,0.6,1.91,1.71,1.91
			c1.11,0,1.71-0.87,1.71-1.91C56.56,96.11,55.96,95.24,54.85,95.24 M52.04,94.66h0.44v-0.71h-0.44V94.66z M52.04,99.39
			c0,0.3-0.06,0.53-0.4,0.53c-0.07,0.01-0.17,0-0.24-0.01v0.36c0.1,0,0.2,0.01,0.31,0.01c0.62,0,0.77-0.46,0.77-1v-3.95h-0.44V99.39
			z M48.8,96.45c0.01-0.59,0.42-0.84,0.97-0.84c0.52,0,0.94,0.15,0.94,0.74c0,0.4-0.2,0.45-0.57,0.49
			c-0.95,0.11-1.94,0.15-1.94,1.16c0,0.73,0.54,1.06,1.21,1.06c0.69,0,1.01-0.26,1.32-0.73h0.01c0,0.38,0.07,0.63,0.52,0.63
			c0.12,0,0.19-0.01,0.29-0.03v-0.37c-0.03,0.01-0.09,0.03-0.14,0.03c-0.18,0-0.26-0.1-0.26-0.27V96.4c0-0.97-0.69-1.16-1.33-1.16
			c-0.83,0-1.42,0.36-1.46,1.21H48.8z M50.71,97.55c0.01,0.71-0.59,1.13-1.26,1.13c-0.41,0-0.81-0.27-0.81-0.71
			c0-0.71,0.93-0.7,1.68-0.83c0.12-0.02,0.32-0.06,0.37-0.16h0.01V97.55z M42.64,98.95h0.47v-4.32h0.01l1.72,4.32h0.45L47,94.63
			h0.01v4.32h0.47v-5h-0.7l-1.72,4.38l-1.73-4.38h-0.7V98.95z"/>
		<path class="st9" d="M69.54,61.04c-0.1-0.83-0.69-1.24-1.46-1.24c-1.11,0-1.71,0.87-1.71,1.91s0.6,1.91,1.71,1.91
			c0.81,0,1.37-0.53,1.49-1.4h-0.44c-0.06,0.6-0.5,1.03-1.05,1.03c-0.85,0-1.27-0.77-1.27-1.54s0.42-1.54,1.27-1.54
			c0.57,0,0.9,0.33,1.02,0.87H69.54z M65.26,59.23h0.44v-0.71h-0.44V59.23z M65.26,63.52h0.44v-3.61h-0.44V63.52z M61.49,63.52h0.44
			v-2.11c0.01-0.71,0.44-1.24,1.14-1.24c0.71,0,0.92,0.47,0.92,1.09v2.25h0.44v-2.32c0-0.86-0.31-1.39-1.32-1.39
			c-0.51,0-0.99,0.29-1.16,0.73h-0.01v-2.01h-0.44V63.52z M57.48,64.86h0.44v-2.02h0.01c0.19,0.52,0.71,0.79,1.25,0.79
			c1.1,0,1.62-0.89,1.62-1.91s-0.53-1.91-1.62-1.91c-0.58,0-1.08,0.3-1.29,0.79h-0.01v-0.69h-0.41V64.86z M60.37,61.71
			c0,0.75-0.34,1.54-1.18,1.54c-0.94,0-1.27-0.79-1.27-1.54c0-0.82,0.29-1.54,1.27-1.54C60.03,60.17,60.37,60.96,60.37,61.71
			 M55.11,60.17c0.85,0,1.27,0.77,1.27,1.54s-0.42,1.54-1.27,1.54s-1.27-0.77-1.27-1.54S54.27,60.17,55.11,60.17 M55.11,59.8
			c-1.11,0-1.71,0.87-1.71,1.91s0.6,1.91,1.71,1.91c1.11,0,1.71-0.88,1.71-1.91S56.22,59.8,55.11,59.8 M51.51,63.52h0.44v-1.93
			c0-0.75,0.55-1.34,1.34-1.29v-0.44c-0.65-0.03-1.14,0.31-1.36,0.9h-0.01v-0.85h-0.41V63.52z M50.14,58.82H49.7v1.08h-0.63v0.37
			h0.63v2.47c-0.01,0.62,0.19,0.81,0.78,0.81c0.13,0,0.26-0.01,0.39-0.01v-0.38c-0.13,0.01-0.25,0.02-0.38,0.02
			c-0.31-0.02-0.36-0.19-0.36-0.48v-2.44h0.74v-0.37h-0.74V58.82z M48.67,60.96c-0.03-0.78-0.6-1.16-1.32-1.16
			c-0.64,0-1.36,0.28-1.36,1.01c0,0.62,0.43,0.81,1.01,0.97l0.57,0.13c0.4,0.1,0.79,0.24,0.79,0.66c0,0.5-0.58,0.69-0.99,0.69
			c-0.59,0-1.03-0.31-1.06-0.9h-0.44c0.07,0.88,0.64,1.27,1.48,1.27c0.67,0,1.45-0.3,1.45-1.08c0-0.63-0.52-0.92-1.03-1l-0.59-0.13
			c-0.3-0.08-0.75-0.22-0.75-0.61c0-0.47,0.46-0.62,0.85-0.62c0.5,0,0.92,0.24,0.95,0.79H48.67z M42.84,61.01
			c0.01-0.59,0.42-0.84,0.97-0.84c0.52,0,0.95,0.15,0.95,0.74c0,0.4-0.2,0.45-0.57,0.49c-0.95,0.11-1.94,0.15-1.94,1.16
			c0,0.73,0.54,1.06,1.21,1.06c0.69,0,1.01-0.27,1.32-0.73h0.01c0,0.38,0.07,0.63,0.52,0.63c0.12,0,0.19-0.01,0.29-0.03v-0.37
			c-0.03,0.01-0.09,0.03-0.14,0.03c-0.17,0-0.26-0.1-0.26-0.27v-1.92c0-0.97-0.69-1.16-1.33-1.16c-0.83,0-1.42,0.36-1.46,1.21H42.84
			z M44.75,62.12c0.01,0.71-0.59,1.13-1.26,1.13c-0.41,0-0.81-0.27-0.81-0.71c0-0.71,0.93-0.7,1.68-0.83
			c0.12-0.02,0.32-0.06,0.37-0.16h0.01V62.12z M41.07,58.82h-0.44v1.08H40v0.37h0.63v2.47c-0.01,0.62,0.19,0.81,0.78,0.81
			c0.13,0,0.26-0.01,0.39-0.01v-0.38c-0.13,0.01-0.25,0.02-0.38,0.02c-0.32-0.02-0.36-0.19-0.36-0.48v-2.44h0.74v-0.37h-0.74V58.82z
			 M37.13,61.01c0.01-0.59,0.42-0.84,0.97-0.84c0.52,0,0.95,0.15,0.95,0.74c0,0.4-0.2,0.45-0.57,0.49
			c-0.95,0.11-1.94,0.15-1.94,1.16c0,0.73,0.55,1.06,1.21,1.06c0.69,0,1.01-0.27,1.32-0.73h0.01c0,0.38,0.07,0.63,0.52,0.63
			c0.12,0,0.19-0.01,0.29-0.03v-0.37c-0.03,0.01-0.09,0.03-0.14,0.03c-0.17,0-0.26-0.1-0.26-0.27v-1.92c0-0.97-0.69-1.16-1.33-1.16
			c-0.83,0-1.42,0.36-1.46,1.21H37.13z M39.04,62.12c0.01,0.71-0.59,1.13-1.26,1.13c-0.41,0-0.81-0.27-0.81-0.71
			c0-0.71,0.93-0.7,1.68-0.83c0.12-0.02,0.31-0.06,0.37-0.16h0.01V62.12z M36.02,60.03c-0.13-1.05-1.06-1.62-2.01-1.62
			c-1.58,0-2.36,1.24-2.36,2.6c0,1.36,0.78,2.6,2.36,2.6c1.17,0,1.95-0.78,2.08-2.01h-0.48c-0.09,0.89-0.68,1.6-1.6,1.6
			c-1.32,0-1.88-1.11-1.88-2.2c0-1.09,0.56-2.2,1.88-2.2c0.73,0,1.37,0.44,1.53,1.21H36.02z"/>
		<path class="st8" d="M20.54,119.22v-0.81h-5.39v-2.02h-0.68v4.85h0.68v-2.02H20.54z M16.3,121.66c-1.29,0.19-1.97,1.23-1.97,2.5
			c0,1.87,1.44,2.87,3.2,2.87c1.77,0,3.16-0.92,3.16-2.8c0-1.53-0.92-2.47-2.43-2.63v0.81c1,0.08,1.75,0.69,1.75,1.75
			c0,1.45-1.16,2.07-2.54,2.07c-1.27,0-2.46-0.61-2.46-2.06c0-0.84,0.43-1.53,1.29-1.7V121.66z M15.2,130.17v-0.02l2.83-1.01v2.06
			L15.2,130.17z M20.54,132.96v-0.83l-1.83-0.68v-2.57l1.83-0.66v-0.89l-6.07,2.37v0.89L20.54,132.96z M15.15,136.31v-1.58
			c0-0.91,0.39-1.33,1.11-1.33c0.72,0,1.12,0.42,1.11,1.33v1.58H15.15z M20.54,137.12v-0.81h-2.48v-1.85
			c0.01-1.21-0.67-1.86-1.79-1.86c-1.12,0-1.79,0.65-1.79,1.86v2.66H20.54z M20.54,144.51v-0.76h-5.05v-0.02l5.05-1.9v-0.69
			l-5.05-1.9v-0.02h5.05v-0.76h-6.07v1.1l5.1,1.92l-5.1,1.91v1.1H20.54z M20.54,145.88h-6.07v0.81h6.07V145.88z"/>
		<path class="st10" d="M402.43,72.98c4.57,0,8.28-3.71,8.28-8.28c0-4.57-3.71-8.28-8.28-8.28c-4.57,0-8.28,3.71-8.28,8.28
			C394.16,69.27,397.86,72.98,402.43,72.98"/>
	</g>
	<polygon class="st11" points="401.87,69.02 403.25,69.02 403.25,60.38 400.24,60.38 400.24,61.54 401.87,61.54 	"/>
	<g class="st0">
		<defs>
			<rect id="SVGID_12_" width="451.24" height="257.43"/>
		</defs>
		<clipPath id="SVGID_13_">
			<use xlink:href="#SVGID_12_"  style="overflow:visible;"/>
		</clipPath>
		<path class="st12" d="M288.27,124.24c4.57,0,8.28-3.71,8.28-8.28c0-4.57-3.71-8.28-8.28-8.28c-4.57,0-8.28,3.71-8.28,8.28
			C279.99,120.53,283.7,124.24,288.27,124.24"/>
	</g>
	<polygon class="st11" points="287.71,120.28 289.09,120.28 289.09,111.64 286.07,111.64 286.07,112.81 287.71,112.81 	"/>
	<g class="st0">
		<defs>
			<rect id="SVGID_14_" width="451.24" height="257.43"/>
		</defs>
		<clipPath id="SVGID_15_">
			<use xlink:href="#SVGID_14_"  style="overflow:visible;"/>
		</clipPath>
		<path class="st13" d="M402.43,120.6c4.57,0,8.28-3.71,8.28-8.28c0-4.57-3.71-8.28-8.28-8.28c-4.57,0-8.28,3.71-8.28,8.28
			C394.16,116.89,397.86,120.6,402.43,120.6"/>
		<path class="st14" d="M399.62,116.64h5.7v-1.17h-3.82c0.82-0.79,1.62-1.59,2.43-2.38c0.94-0.92,1.33-1.62,1.35-2.58
			c0.01-1.46-1.03-2.67-2.74-2.67c-0.61,0-1.61,0.19-2.23,1.03c-0.48,0.6-0.65,1.3-0.68,2.06h1.32c0.02-1.1,0.55-1.87,1.47-1.87
			c0.85,0,1.5,0.57,1.5,1.55c-0.04,1.03-0.79,1.68-1.62,2.44c-0.89,0.83-1.78,1.67-2.67,2.51V116.64z"/>
		<path class="st15" d="M288.27,147.37c4.57,0,8.28-3.71,8.28-8.28c0-4.57-3.71-8.28-8.28-8.28c-4.57,0-8.28,3.71-8.28,8.28
			C279.99,143.66,283.7,147.37,288.27,147.37"/>
		<path class="st14" d="M285.46,143.41h5.7v-1.17h-3.82c0.82-0.79,1.62-1.59,2.43-2.38c0.94-0.92,1.33-1.62,1.35-2.58
			c0.01-1.46-1.03-2.67-2.74-2.67c-0.61,0-1.61,0.19-2.23,1.03c-0.48,0.6-0.65,1.3-0.68,2.06h1.32c0.02-1.1,0.55-1.87,1.47-1.87
			c0.85,0,1.5,0.57,1.5,1.55c-0.04,1.03-0.79,1.68-1.62,2.44c-0.89,0.83-1.78,1.67-2.67,2.51V143.41z"/>
		<path class="st13" d="M252.06,105.86c4.57,0,8.28-3.71,8.28-8.28c0-4.57-3.71-8.28-8.28-8.28c-4.57,0-8.28,3.71-8.28,8.28
			C243.78,102.15,247.49,105.86,252.06,105.86"/>
		<path class="st14" d="M250.81,95.47c0.03-0.51,0.33-1.16,1.14-1.16c0.67,0,1.08,0.53,1.08,1.18c0,0.63-0.56,1.23-1.46,1.23h-0.41
			v1.04h0.64c0.97,0,1.74,0.64,1.74,1.53c0,0.87-0.56,1.57-1.54,1.57c-0.9-0.01-1.53-0.65-1.58-1.5h-1.39
			c0.01,0.48,0.15,1.09,0.51,1.6c0.54,0.74,1.52,1.11,2.42,1.11c1.66,0,2.95-1.15,2.95-2.71c0-0.44-0.14-1.69-1.69-2.23
			c0.55-0.29,1.17-0.84,1.17-1.82c0-1.26-1-2.21-2.39-2.21c-1.07,0-2.49,0.63-2.54,2.37H250.81z"/>
		<path class="st15" d="M161.89,144.07c4.57,0,8.28-3.71,8.28-8.28c0-4.57-3.71-8.28-8.28-8.28c-4.57,0-8.28,3.71-8.28,8.28
			C153.62,140.37,157.32,144.07,161.89,144.07"/>
		<path class="st14" d="M160.64,133.68c0.03-0.51,0.33-1.16,1.14-1.16c0.67,0,1.08,0.53,1.08,1.18c0,0.63-0.56,1.23-1.46,1.23h-0.41
			v1.04h0.64c0.97,0,1.74,0.64,1.74,1.53c0,0.87-0.56,1.57-1.54,1.57c-0.9-0.01-1.53-0.65-1.58-1.5h-1.39
			c0.01,0.48,0.15,1.09,0.51,1.6c0.54,0.73,1.52,1.11,2.42,1.11c1.66,0,2.95-1.15,2.95-2.71c0-0.44-0.14-1.69-1.69-2.23
			c0.55-0.29,1.17-0.84,1.17-1.82c0-1.26-1-2.21-2.39-2.21c-1.07,0-2.49,0.63-2.54,2.37H160.64z"/>
		<path class="st13" d="M262.58,132.52c4.57,0,8.28-3.71,8.28-8.28c0-4.57-3.71-8.28-8.28-8.28c-4.57,0-8.28,3.71-8.28,8.28
			C254.3,128.81,258.01,132.52,262.58,132.52"/>
	</g>
	<path class="st11" d="M260.67,125.87l2.79-4.29v4.29H260.67z M263.38,128.56h1.33v-1.59h0.92v-1.1h-0.92v-5.96h-1.35l-4.1,6.03
		v1.03h4.12V128.56z"/>
	<g class="st0">
		<defs>
			<rect id="SVGID_16_" width="451.24" height="257.43"/>
		</defs>
		<clipPath id="SVGID_17_">
			<use xlink:href="#SVGID_16_"  style="overflow:visible;"/>
		</clipPath>
		<path class="st16" d="M192.21,149.07c4.57,0,8.28-3.71,8.28-8.28c0-4.57-3.71-8.28-8.28-8.28c-4.57,0-8.28,3.71-8.28,8.28
			C183.93,145.36,187.64,149.07,192.21,149.07"/>
	</g>
	<path class="st11" d="M190.3,142.43l2.79-4.29v4.29H190.3z M193.01,145.11h1.33v-1.59h0.92v-1.1h-0.92v-5.96h-1.35l-4.1,6.03v1.03
		h4.12V145.11z"/>
	<g class="st0">
		<defs>
			<rect id="SVGID_18_" width="451.24" height="257.43"/>
		</defs>
		<clipPath id="SVGID_19_">
			<use xlink:href="#SVGID_18_"  style="overflow:visible;"/>
		</clipPath>
		<path class="st17" d="M339.11,139.09c4.57,0,8.28-3.71,8.28-8.28c0-4.57-3.71-8.28-8.28-8.28c-4.57,0-8.28,3.71-8.28,8.28
			C330.83,135.38,334.54,139.09,339.11,139.09"/>
		<path class="st18" d="M337.15,126.49l-0.77,4.55l1.12,0.28c0.49-0.74,1.11-0.86,1.52-0.86c1.02,0,1.79,0.83,1.79,1.81
			c0,0.99-0.83,1.81-1.79,1.81c-0.75,0-1.51-0.53-1.69-1.37h-1.38c0.23,1.6,1.58,2.58,3.11,2.58c1.96,0,3.12-1.57,3.12-3.06
			c0-1.34-0.99-2.92-2.87-2.92c-0.79,0-1.19,0.27-1.47,0.45l0.39-2.11h3.32v-1.17H337.15z"/>
		<path class="st19" d="M237.76,144.07c4.57,0,8.28-3.71,8.28-8.28c0-4.57-3.71-8.28-8.28-8.28c-4.57,0-8.28,3.71-8.28,8.28
			C229.48,140.37,233.19,144.07,237.76,144.07"/>
		<path class="st18" d="M235.8,131.47l-0.77,4.55l1.12,0.28c0.49-0.74,1.11-0.86,1.52-0.86c1.02,0,1.79,0.83,1.79,1.81
			c0,0.99-0.83,1.81-1.79,1.81c-0.75,0-1.51-0.53-1.69-1.37h-1.38c0.23,1.6,1.58,2.58,3.11,2.58c1.96,0,3.12-1.57,3.12-3.06
			c0-1.34-0.99-2.92-2.87-2.92c-0.79,0-1.19,0.27-1.47,0.45l0.39-2.11h3.32v-1.17H235.8z"/>
	</g>
</g>
</svg>
