<svg id="Layer_1" data-name="Layer 1" xmlns="http://www.w3.org/2000/svg" xmlns:xlink="http://www.w3.org/1999/xlink" viewBox="0 0 481.89 20.45"><defs><style>.cls-1{fill:none;}.cls-2{fill:#003767;}.cls-3{clip-path:url(#clip-path);}.cls-4{fill:#fff;}</style><clipPath id="clip-path" transform="translate(0 0)"><rect class="cls-1" width="481.89" height="20.45"/></clipPath></defs><title>p17_arrow</title><polygon class="cls-2" points="0 0 240.94 20.45 481.89 0 0 0"/><g class="cls-3"><path class="cls-4" d="M300.92,9.35a1.58,1.58,0,1,1,1.58,1.58,1.57,1.57,0,0,1-1.58-1.58Zm.36-3.45a1.22,1.22,0,1,1,1.22,1.21,1.21,1.21,0,0,1-1.22-1.21Zm-.8-.06a1.73,1.73,0,0,0,.95,1.54,2.06,2.06,0,0,0-1.32,2,2.4,2.4,0,0,0,4.79,0,2.08,2.08,0,0,0-1.34-2,1.73,1.73,0,0,0,1-1.54,2,2,0,0,0-4,0ZM296,11.53h.82V4.13h-2.31v.71H296Zm-7.65-5a1.69,1.69,0,1,1,3.37,0v2.7A1.7,1.7,0,0,1,290,10.93a1.66,1.66,0,0,1-1.68-1.75Zm-.82,2.64a2.5,2.5,0,1,0,5,0V6.5a2.5,2.5,0,1,0-5,.06Zm-6.08,2.37h4.71v-.71h-3.59L285,8.39a3.14,3.14,0,0,0,1.12-2.12A2.16,2.16,0,0,0,283.83,4a2.25,2.25,0,0,0-1.74.75,2.68,2.68,0,0,0-.63,1.78h.78c0-1.13.65-1.8,1.51-1.8a1.48,1.48,0,0,1,1.53,1.58c0,.91-.76,1.53-1.45,2.17l-2.43,2.38Zm-10.31-7.4h-.83v7.4h.79l0-6.23,4.39,6.23h.8V4.13h-.8v6.18Zm-3.64,7.4h.81V4.13h-.81Zm-9.29,0h4.09V10.8H259V8.16h3.26V7.43H259V4.86h3.28V4.13h-4.09Zm-6.88-7.4V8.82a2.64,2.64,0,0,0,.83,2.28,2.53,2.53,0,0,0,1.64.56,2.43,2.43,0,0,0,1.6-.56,2.62,2.62,0,0,0,.83-2.28V4.13h-.81V8.82a2.26,2.26,0,0,1-.35,1.5,1.54,1.54,0,0,1-1.27.61,1.62,1.62,0,0,1-1.3-.62,2.27,2.27,0,0,1-.35-1.49V4.13Zm-4.91,7.4H250V10.8h-2.82V4.13h-.82ZM243,8.77h-2.95l1.47-3.71Zm-3.2.68h3.45l.86,2.08H245L242,4.13h-.8l-3.09,7.4H239Zm-5.15,2.08h.79l2.93-7.4h-.86l-2.46,6.33-2.45-6.33h-.87Zm-6.93-5.48a3.87,3.87,0,0,0-3.47-2,3.77,3.77,0,0,0-3.87,3.82,3.8,3.8,0,0,0,3.86,3.85,4,4,0,0,0,3.61-2.2A3.66,3.66,0,0,0,228.21,8h-4.64v.68h3.68a2.73,2.73,0,0,1-1,1.55,3.21,3.21,0,0,1-2,.67,3,3,0,0,1-3-3.12A3,3,0,0,1,226,5.25a3.15,3.15,0,0,1,.83.8ZM213.64,4.13h-.83v7.4h.8l0-6.23L218,11.53h.8V4.13H218v6.18ZM210,11.53h.82V4.13H210Zm-4,0h.83V4.86h1.83V4.13h-4.48v.73H206Zm-3.71-2.76h-2.95l1.47-3.71Zm-3.2.68h3.45l.86,2.08h.9l-3.06-7.4h-.8l-3.09,7.4h.89Zm-7,2.08h4.1V10.8H193V8.16h3.26V7.43H193V4.86h3.28V4.13h-4.1Zm-6.44,0h.83V4.86h1.16a2.69,2.69,0,0,1,1.5.27,1.74,1.74,0,0,1,.73,1.43,1.8,1.8,0,0,1-.56,1.36,2.51,2.51,0,0,1-1.64.38h-.24l2.09,3.23h.9l-1.84-2.77A2,2,0,0,0,190.27,8a2.38,2.38,0,0,0,.44-1.45,2.34,2.34,0,0,0-1-2,3.78,3.78,0,0,0-2.08-.38h-1.93Zm-2.41-2a3,3,0,0,1-5.55-1.72,3,3,0,0,1,3-3.09,3,3,0,0,1,2.52,1.43h.89a3.82,3.82,0,0,0-7.26,1.67,3.79,3.79,0,0,0,3.86,3.83,3.68,3.68,0,0,0,3.4-2.12Z" transform="translate(0 0)"/></g></svg>