<?xml version="1.0" encoding="utf-8"?>
<!-- Generator: Adobe Illustrator 23.0.0, SVG Export Plug-In . SVG Version: 6.00 Build 0)  -->
<svg version="1.1" id="Layer_1" xmlns="http://www.w3.org/2000/svg" xmlns:xlink="http://www.w3.org/1999/xlink" x="0px" y="0px"
	 viewBox="0 0 425.2 272.98" style="enable-background:new 0 0 425.2 272.98;" xml:space="preserve">
<style type="text/css">
	.st0{fill:#003767;}
	.st1{fill:#64BDE1;}
	.st2{fill:none;stroke:#7DC242;}
	.st3{fill:#7DC242;}
	.st4{clip-path:url(#SVGID_2_);fill:none;stroke:#003767;stroke-width:0.35;}
	.st5{clip-path:url(#SVGID_2_);fill:#231F20;}
</style>
<rect x="5.67" y="187.82" class="st0" width="11.34" height="23.81"/>
<rect x="17.01" y="164.57" class="st1" width="11.34" height="47.05"/>
<rect x="49.45" y="181.58" class="st0" width="11.34" height="30.05"/>
<rect x="60.79" y="151.82" class="st1" width="11.34" height="59.81"/>
<rect x="93.23" y="176.2" class="st0" width="11.34" height="35.43"/>
<rect x="104.57" y="140.76" class="st1" width="11.34" height="70.87"/>
<rect x="137.01" y="168.54" class="st0" width="11.34" height="43.09"/>
<rect x="148.35" y="134.24" class="st1" width="11.34" height="77.39"/>
<rect x="180.79" y="164.01" class="st0" width="11.34" height="47.62"/>
<rect x="192.13" y="127.16" class="st1" width="11.34" height="84.47"/>
<rect x="224.57" y="157.77" class="st0" width="11.34" height="53.86"/>
<rect x="235.91" y="116.1" class="st1" width="11.34" height="95.53"/>
<rect x="268.35" y="145.01" class="st0" width="11.34" height="66.61"/>
<rect x="279.68" y="102.78" class="st1" width="11.34" height="108.85"/>
<rect x="312.13" y="134.53" class="st0" width="11.34" height="77.1"/>
<rect x="323.46" y="87.19" class="st1" width="11.34" height="124.44"/>
<rect x="355.91" y="120.35" class="st0" width="11.34" height="91.28"/>
<rect x="399.68" y="103.91" class="st0" width="11.34" height="107.72"/>
<rect x="367.24" y="69.33" class="st1" width="11.34" height="142.3"/>
<rect x="411.02" y="47.79" class="st1" width="11.34" height="163.84"/>
<polyline class="st2" points="15.59,93.12 59.36,93.12 103.13,93.12 146.91,52.7 190.68,52.7 234.49,52.7 278.27,31.92 
	322.05,31.92 365.83,25.49 409.61,11.8 "/>
<rect x="12.76" y="90.79" class="st3" width="5.67" height="5.67"/>
<rect x="12.76" y="90.79" class="st2" width="5.67" height="5.67"/>
<rect x="56.53" y="90.79" class="st3" width="5.67" height="5.67"/>
<rect x="56.53" y="90.79" class="st2" width="5.67" height="5.67"/>
<rect x="100.32" y="90.79" class="st3" width="5.67" height="5.67"/>
<rect x="100.32" y="90.79" class="st2" width="5.67" height="5.67"/>
<rect x="144.09" y="49.52" class="st3" width="5.67" height="5.67"/>
<rect x="144.09" y="49.52" class="st2" width="5.67" height="5.67"/>
<rect x="187.87" y="49.52" class="st3" width="5.67" height="5.67"/>
<rect x="187.87" y="49.52" class="st2" width="5.67" height="5.67"/>
<rect x="231.65" y="49.52" class="st3" width="5.67" height="5.67"/>
<rect x="231.65" y="49.52" class="st2" width="5.67" height="5.67"/>
<rect x="275.43" y="29.09" class="st3" width="5.67" height="5.67"/>
<rect x="275.43" y="29.09" class="st2" width="5.67" height="5.67"/>
<rect x="319.21" y="29.09" class="st3" width="5.67" height="5.67"/>
<rect x="319.21" y="29.09" class="st2" width="5.67" height="5.67"/>
<rect x="362.99" y="22.46" class="st3" width="5.67" height="5.67"/>
<rect x="362.99" y="22.46" class="st2" width="5.67" height="5.67"/>
<rect x="406.77" y="8.96" class="st3" width="5.67" height="5.67"/>
<rect x="406.77" y="8.96" class="st2" width="5.67" height="5.67"/>
<rect x="55.14" y="238.07" class="st0" width="5.67" height="5.67"/>
<rect x="172.5" y="238.07" class="st1" width="5.67" height="5.67"/>
<line class="st2" x1="272.82" y1="240.9" x2="284.86" y2="240.9"/>
<rect x="276" y="238.07" class="st3" width="5.67" height="5.67"/>
<rect x="276" y="238.07" class="st2" width="5.67" height="5.67"/>
<g>
	<defs>
		<rect id="SVGID_1_" width="425.2" height="272.98"/>
	</defs>
	<clipPath id="SVGID_2_">
		<use xlink:href="#SVGID_1_"  style="overflow:visible;"/>
	</clipPath>
	<line class="st4" x1="0" y1="229.1" x2="425.2" y2="229.1"/>
	<path class="st5" d="M10.13,182.56v0.55h1.79v1.2h0.59v-1.2h0.56v-0.5h-0.56v-3.26h-0.59L10.13,182.56z M11.91,180.32h0.01v2.29
		h-1.26L11.91,180.32z M7.44,182.93c0-0.58,0.23-1.02,0.81-1.02c0.57,0,0.8,0.44,0.8,1.02s-0.23,1.02-0.8,1.02
		C7.67,183.95,7.44,183.51,7.44,182.93 M8.24,179.82c0.45,0,0.65,0.34,0.65,0.81c0,0.46-0.2,0.81-0.65,0.81
		c-0.46,0-0.65-0.35-0.65-0.81C7.59,180.16,7.79,179.82,8.24,179.82 M6.82,182.95c0,0.65,0.31,1.46,1.42,1.46s1.42-0.81,1.42-1.46
		c0-0.66-0.28-1.08-0.87-1.27c0.5-0.2,0.72-0.53,0.72-1.06c0-0.8-0.48-1.26-1.27-1.26c-0.79,0-1.27,0.46-1.27,1.26
		c0,0.53,0.22,0.85,0.72,1.06C7.1,181.87,6.82,182.28,6.82,182.95"/>
	<path class="st5" d="M24.5,159.56c0-0.52,0.13-1.15,0.78-1.15c0.66,0,0.78,0.63,0.78,1.15c0,0.52-0.17,1.15-0.78,1.15
		C24.67,160.7,24.5,160.07,24.5,159.56 M26.57,157.3c0-0.23-0.1-1.19-1.25-1.19c-1.43,0-1.51,1.57-1.51,2.7
		c0,1.03,0.1,2.35,1.47,2.35c0.92,0,1.4-0.73,1.4-1.69c0-0.93-0.43-1.57-1.29-1.57c-0.55,0-0.85,0.37-0.95,0.55h-0.01v-0.39
		c0-0.26,0.05-1.49,0.88-1.49c0.42,0,0.65,0.32,0.65,0.73H26.57z M21.14,159.56c0-0.52,0.13-1.15,0.78-1.15
		c0.66,0,0.78,0.63,0.78,1.15c0,0.52-0.17,1.15-0.78,1.15C21.31,160.7,21.14,160.07,21.14,159.56 M23.21,157.3
		c0-0.23-0.1-1.19-1.25-1.19c-1.43,0-1.5,1.57-1.5,2.7c0,1.03,0.1,2.35,1.47,2.35c0.92,0,1.4-0.73,1.4-1.69
		c0-0.93-0.43-1.57-1.29-1.57c-0.55,0-0.85,0.37-0.95,0.55h-0.01v-0.39c0-0.26,0.05-1.49,0.88-1.49c0.42,0,0.65,0.32,0.65,0.73
		H23.21z M17.32,157.34h1.06v3.72h0.59v-4.96h-0.42c-0.03,0.7-0.6,0.78-1.22,0.81V157.34z"/>
	<path class="st5" d="M19.84,221.79c0.1,0.86,0.64,1.28,1.5,1.28c1.6,0,1.75-1.86,1.75-2.44c0-1.91-0.52-2.6-1.72-2.6
		c-0.97,0-1.66,0.71-1.66,1.66c0,0.96,0.64,1.64,1.62,1.64c0.55,0,1.07-0.33,1.3-0.81h0.01c0,0.89-0.21,2.19-1.35,2.19
		c-0.57,0-0.94-0.37-1.02-0.91H19.84z M21.34,220.95c-0.75,0-1.18-0.58-1.18-1.29c0-0.68,0.48-1.26,1.18-1.26
		c0.85,0,1.23,0.57,1.23,1.26C22.56,220.38,22.12,220.95,21.34,220.95 M17.54,218.03c-1.43,0-1.71,1.38-1.71,2.53
		c0,1.14,0.28,2.52,1.71,2.52c1.43,0,1.71-1.38,1.71-2.53C19.24,219.4,18.97,218.03,17.54,218.03 M17.54,218.4
		c1.12,0,1.27,1.3,1.27,2.15c0,0.85-0.15,2.16-1.27,2.16c-1.12,0-1.27-1.3-1.27-2.16C16.27,219.7,16.42,218.4,17.54,218.4
		 M13.64,218.03c-1.43,0-1.71,1.38-1.71,2.53c0,1.14,0.28,2.52,1.71,2.52c1.43,0,1.71-1.38,1.71-2.53
		C15.35,219.4,15.07,218.03,13.64,218.03 M13.64,218.4c1.12,0,1.27,1.3,1.27,2.15c0,0.85-0.15,2.16-1.27,2.16
		c-1.12,0-1.27-1.3-1.27-2.16C12.38,219.7,12.52,218.4,13.64,218.4 M11.29,222.56H8.56c0.12-0.66,0.99-1.09,1.47-1.41
		c0.64-0.41,1.23-0.93,1.23-1.74c0-0.91-0.66-1.38-1.52-1.38c-1.06,0-1.59,0.73-1.57,1.73h0.44c-0.01-0.72,0.3-1.36,1.11-1.36
		c0.6,0,1.1,0.36,1.1,1c0,0.39-0.14,0.65-0.41,0.92c-0.83,0.83-2.32,1.19-2.36,2.65h3.23V222.56z"/>
	<path class="st5" d="M20.37,86.88c0.83,0,0.92-0.64,0.92-1.34c0-0.7-0.08-1.34-0.92-1.34c-0.83,0-0.92,0.64-0.92,1.34
		C19.45,86.24,19.54,86.88,20.37,86.88 M17.53,84.51c0.83,0,0.92-0.64,0.92-1.34c0-0.7-0.08-1.34-0.92-1.34
		c-0.83,0-0.92,0.64-0.92,1.34C16.62,83.87,16.7,84.51,17.53,84.51 M20.37,86.5c-0.39,0-0.41-0.39-0.41-0.97
		c0-0.57,0.02-0.97,0.41-0.97c0.39,0,0.41,0.39,0.41,0.97C20.78,86.11,20.76,86.5,20.37,86.5 M17.6,86.88h0.49l2.17-5.05h-0.49
		L17.6,86.88z M17.53,84.14c-0.39,0-0.41-0.39-0.41-0.97c0-0.57,0.02-0.97,0.41-0.97c0.39,0,0.41,0.39,0.41,0.97
		C17.95,83.74,17.93,84.14,17.53,84.14 M13.82,84.37c0-1.09,0.04-2.09,0.8-2.09c0.76,0,0.8,0.99,0.8,2.09c0,1.04-0.04,2.04-0.8,2.04
		C13.86,86.42,13.82,85.42,13.82,84.37 M14.61,86.88c1.34,0,1.41-1.46,1.41-2.51c0-1.22-0.08-2.55-1.41-2.55
		c-1.34,0-1.41,1.45-1.41,2.55C13.2,85.55,13.28,86.88,14.61,86.88 M9.98,84.46l0.53,0.03c0-0.12,0.27-0.48,0.7-0.48
		c0.62,0,0.83,0.57,0.83,1.12c0,0.5-0.11,1.29-0.81,1.29c-0.66,0-0.76-0.65-0.76-0.91H9.85c0,0.4,0.18,1.37,1.36,1.37
		c1.04,0,1.44-0.78,1.44-1.7c0-1.04-0.5-1.63-1.24-1.63c-0.34,0-0.67,0.12-0.87,0.37l-0.01-0.01l0.2-1.43h1.74v-0.54h-2.21
		L9.98,84.46z"/>
	<path class="st5" d="M56.31,176.42c0-0.52,0.13-1.15,0.78-1.15c0.66,0,0.78,0.63,0.78,1.15c0,0.52-0.17,1.15-0.78,1.15
		C56.48,177.57,56.31,176.94,56.31,176.42 M58.38,174.17c0-0.23-0.1-1.19-1.25-1.19c-1.44,0-1.51,1.57-1.51,2.7
		c0,1.03,0.1,2.35,1.47,2.35c0.92,0,1.4-0.73,1.4-1.69c0-0.93-0.43-1.57-1.29-1.57c-0.55,0-0.85,0.37-0.95,0.55h-0.01v-0.39
		c0-0.26,0.05-1.49,0.88-1.49c0.42,0,0.65,0.32,0.65,0.73H58.38z M52.9,175.53c0-1.09,0.04-2.09,0.8-2.09c0.76,0,0.8,0.99,0.8,2.09
		c0,1.04-0.04,2.04-0.8,2.04C52.94,177.57,52.9,176.57,52.9,175.53 M53.7,178.03c1.34,0,1.41-1.46,1.41-2.51
		c0-1.22-0.08-2.55-1.41-2.55c-1.34,0-1.41,1.45-1.41,2.55C52.29,176.7,52.36,178.03,53.7,178.03 M49.13,174.21h1.06v3.72h0.59
		v-4.95h-0.42c-0.03,0.7-0.6,0.78-1.22,0.81V174.21z"/>
	<path class="st5" d="M67.82,144.59h1.06v3.72h0.59v-4.96h-0.42c-0.03,0.7-0.6,0.78-1.23,0.81V144.59z M64.46,144.59h1.06v3.72h0.59
		v-4.96h-0.42c-0.03,0.7-0.6,0.78-1.22,0.81V144.59z M63.69,147.77h-2.13c0.07-0.33,0.27-0.62,0.54-0.85l0.7-0.61
		c0.55-0.48,0.87-0.88,0.87-1.63c0-0.43-0.18-1.32-1.33-1.32c-1.01,0-1.41,0.64-1.41,1.57h0.61c0-0.28,0.02-1.07,0.78-1.07
		c0.53,0,0.72,0.46,0.72,0.89c0,0.55-0.26,0.85-0.66,1.19l-0.41,0.34c-0.55,0.48-1.07,1.11-1.07,2.03h2.77V147.77z"/>
	<path class="st5" d="M65.21,218.03c-1.43,0-1.71,1.38-1.71,2.53c0,1.14,0.28,2.52,1.71,2.52c1.43,0,1.71-1.38,1.71-2.53
		C66.92,219.4,66.64,218.03,65.21,218.03 M65.21,218.4c1.12,0,1.27,1.3,1.27,2.15c0,0.85-0.15,2.16-1.27,2.16
		c-1.12,0-1.27-1.3-1.27-2.16C63.94,219.7,64.09,218.4,65.21,218.4 M60.05,219.33h1.3v3.64h0.44v-4.9h-0.36
		c-0.13,0.9-0.61,0.92-1.38,0.95V219.33z M57.42,218.03c-1.43,0-1.71,1.38-1.71,2.53c0,1.14,0.28,2.52,1.71,2.52
		c1.43,0,1.71-1.38,1.71-2.53C59.13,219.4,58.85,218.03,57.42,218.03 M57.42,218.4c1.12,0,1.27,1.3,1.27,2.15
		c0,0.85-0.15,2.16-1.27,2.16c-1.12,0-1.27-1.3-1.27-2.16C56.16,219.7,56.3,218.4,57.42,218.4 M55.06,222.56h-2.72
		c0.12-0.66,0.99-1.09,1.47-1.41c0.64-0.41,1.23-0.93,1.23-1.74c0-0.91-0.66-1.38-1.52-1.38c-1.06,0-1.59,0.73-1.57,1.73h0.44
		c-0.01-0.72,0.3-1.36,1.11-1.36c0.6,0,1.1,0.36,1.1,1c0,0.39-0.14,0.65-0.41,0.92c-0.83,0.83-2.32,1.19-2.36,2.65h3.23V222.56z"/>
	<path class="st5" d="M64.15,86.88c0.83,0,0.92-0.64,0.92-1.34c0-0.7-0.08-1.34-0.92-1.34c-0.83,0-0.92,0.64-0.92,1.34
		C63.23,86.24,63.31,86.88,64.15,86.88 M61.31,84.51c0.83,0,0.92-0.64,0.92-1.34c0-0.7-0.08-1.34-0.92-1.34
		c-0.83,0-0.92,0.64-0.92,1.34C60.4,83.87,60.48,84.51,61.31,84.51 M64.15,86.5c-0.39,0-0.41-0.39-0.41-0.97
		c0-0.57,0.02-0.97,0.41-0.97c0.39,0,0.41,0.39,0.41,0.97C64.56,86.11,64.54,86.5,64.15,86.5 M61.38,86.88h0.49l2.17-5.05h-0.49
		L61.38,86.88z M61.31,84.14c-0.39,0-0.41-0.39-0.41-0.97c0-0.57,0.02-0.97,0.41-0.97c0.39,0,0.41,0.39,0.41,0.97
		C61.73,83.74,61.7,84.14,61.31,84.14 M57.59,84.37c0-1.09,0.04-2.09,0.8-2.09c0.76,0,0.8,0.99,0.8,2.09c0,1.04-0.04,2.04-0.8,2.04
		C57.64,86.42,57.59,85.42,57.59,84.37 M58.39,86.88c1.34,0,1.41-1.46,1.41-2.51c0-1.22-0.08-2.55-1.41-2.55
		c-1.34,0-1.41,1.45-1.41,2.55C56.98,85.55,57.06,86.88,58.39,86.88 M53.76,84.46l0.53,0.03c0-0.12,0.27-0.48,0.7-0.48
		c0.62,0,0.83,0.57,0.83,1.12c0,0.5-0.11,1.29-0.81,1.29c-0.66,0-0.76-0.65-0.76-0.91h-0.62c0,0.4,0.18,1.37,1.36,1.37
		c1.04,0,1.44-0.78,1.44-1.7c0-1.04-0.5-1.63-1.24-1.63c-0.34,0-0.67,0.12-0.87,0.37L54.3,83.9l0.2-1.43h1.74v-0.54h-2.21
		L53.76,84.46z"/>
	<path class="st5" d="M99.57,170.37l0.53,0.03c0-0.12,0.27-0.48,0.7-0.48c0.62,0,0.83,0.57,0.83,1.12c0,0.5-0.11,1.29-0.81,1.29
		c-0.66,0-0.76-0.65-0.76-0.91h-0.61c0,0.4,0.18,1.37,1.36,1.37c1.04,0,1.44-0.78,1.44-1.7c0-1.04-0.5-1.63-1.24-1.63
		c-0.34,0-0.67,0.13-0.87,0.37l-0.01-0.01l0.2-1.43h1.74v-0.55h-2.21L99.57,170.37z M98.87,172.14h-2.13
		c0.07-0.33,0.27-0.62,0.54-0.85l0.7-0.61c0.55-0.48,0.87-0.88,0.87-1.63c0-0.43-0.18-1.32-1.33-1.32c-1.02,0-1.41,0.64-1.41,1.57
		h0.61c0-0.28,0.02-1.07,0.79-1.07c0.53,0,0.72,0.46,0.72,0.89c0,0.55-0.26,0.85-0.66,1.19l-0.41,0.34
		c-0.55,0.48-1.07,1.11-1.07,2.03h2.77V172.14z M92.91,168.97h1.06v3.72h0.59v-4.96h-0.42c-0.03,0.7-0.6,0.78-1.22,0.81V168.97z"/>
	<path class="st5" d="M112.01,134.85c0-1.09,0.04-2.09,0.8-2.09c0.76,0,0.8,0.99,0.8,2.09c0,1.04-0.04,2.04-0.8,2.04
		C112.05,136.89,112.01,135.89,112.01,134.85 M112.81,137.35c1.34,0,1.41-1.46,1.41-2.51c0-1.22-0.08-2.55-1.41-2.55
		c-1.34,0-1.41,1.46-1.41,2.55C111.4,136.02,111.47,137.35,112.81,137.35 M108.18,134.94l0.53,0.03c0-0.12,0.27-0.48,0.7-0.48
		c0.62,0,0.83,0.57,0.83,1.12c0,0.5-0.11,1.29-0.81,1.29c-0.66,0-0.76-0.65-0.76-0.91h-0.61c0,0.4,0.18,1.37,1.36,1.37
		c1.04,0,1.44-0.78,1.44-1.7c0-1.04-0.5-1.63-1.25-1.63c-0.34,0-0.67,0.13-0.87,0.37l-0.01-0.01l0.2-1.44h1.74v-0.54h-2.21
		L108.18,134.94z M107.47,136.71h-2.13c0.07-0.33,0.27-0.62,0.54-0.85l0.7-0.61c0.55-0.48,0.87-0.88,0.87-1.63
		c0-0.43-0.18-1.32-1.33-1.32c-1.01,0-1.41,0.64-1.41,1.57h0.61c0-0.28,0.02-1.07,0.78-1.07c0.53,0,0.72,0.46,0.72,0.89
		c0,0.55-0.26,0.85-0.66,1.19l-0.41,0.34c-0.55,0.48-1.07,1.11-1.07,2.03h2.77V136.71z"/>
	<path class="st5" d="M107.72,219.33h1.29v3.64h0.44v-4.9h-0.36c-0.13,0.9-0.61,0.92-1.38,0.95V219.33z M103.83,219.33h1.3v3.64
		h0.44v-4.9h-0.36c-0.13,0.9-0.61,0.92-1.38,0.95V219.33z M101.2,218.03c-1.43,0-1.71,1.38-1.71,2.53c0,1.14,0.28,2.52,1.71,2.52
		c1.43,0,1.71-1.38,1.71-2.53C102.91,219.4,102.63,218.03,101.2,218.03 M101.2,218.4c1.12,0,1.27,1.3,1.27,2.15
		c0,0.85-0.15,2.16-1.27,2.16c-1.12,0-1.27-1.3-1.27-2.16C99.94,219.7,100.08,218.4,101.2,218.4 M98.84,222.56h-2.72
		c0.12-0.66,0.99-1.09,1.47-1.41c0.64-0.41,1.23-0.93,1.23-1.74c0-0.91-0.66-1.38-1.52-1.38c-1.06,0-1.59,0.73-1.57,1.73h0.44
		c-0.01-0.72,0.3-1.36,1.11-1.36c0.6,0,1.1,0.36,1.1,1c0,0.39-0.14,0.65-0.41,0.92c-0.83,0.83-2.32,1.19-2.36,2.65h3.23V222.56z"/>
	<path class="st5" d="M107.93,86.88c0.83,0,0.92-0.64,0.92-1.34c0-0.7-0.08-1.34-0.92-1.34c-0.83,0-0.92,0.64-0.92,1.34
		C107.01,86.24,107.09,86.88,107.93,86.88 M105.09,84.51c0.83,0,0.92-0.64,0.92-1.34c0-0.7-0.08-1.34-0.92-1.34
		c-0.83,0-0.92,0.64-0.92,1.34C104.18,83.87,104.26,84.51,105.09,84.51 M107.93,86.5c-0.39,0-0.41-0.39-0.41-0.97
		c0-0.57,0.02-0.97,0.41-0.97c0.39,0,0.41,0.39,0.41,0.97C108.34,86.11,108.32,86.5,107.93,86.5 M105.16,86.88h0.49l2.17-5.05h-0.49
		L105.16,86.88z M105.09,84.14c-0.39,0-0.41-0.39-0.41-0.97c0-0.57,0.02-0.97,0.41-0.97c0.39,0,0.41,0.39,0.41,0.97
		C105.51,83.74,105.48,84.14,105.09,84.14 M101.37,84.37c0-1.09,0.04-2.09,0.8-2.09c0.76,0,0.8,0.99,0.8,2.09
		c0,1.04-0.04,2.04-0.8,2.04C101.42,86.42,101.37,85.42,101.37,84.37 M102.17,86.88c1.34,0,1.41-1.46,1.41-2.51
		c0-1.22-0.08-2.55-1.41-2.55c-1.34,0-1.41,1.45-1.41,2.55C100.76,85.55,100.84,86.88,102.17,86.88 M97.54,84.46l0.53,0.03
		c0-0.12,0.27-0.48,0.7-0.48c0.62,0,0.83,0.57,0.83,1.12c0,0.5-0.11,1.29-0.81,1.29c-0.66,0-0.76-0.65-0.76-0.91h-0.62
		c0,0.4,0.18,1.37,1.36,1.37c1.04,0,1.44-0.78,1.44-1.7c0-1.04-0.5-1.63-1.25-1.63c-0.34,0-0.67,0.12-0.87,0.37l-0.01-0.01l0.2-1.43
		h1.74v-0.54h-2.21L97.54,84.46z"/>
	<path class="st5" d="M146.01,164.21h-2.13c0.07-0.33,0.27-0.62,0.54-0.85l0.7-0.61c0.55-0.48,0.87-0.88,0.87-1.63
		c0-0.43-0.18-1.32-1.33-1.32c-1.02,0-1.41,0.64-1.41,1.57h0.62c0-0.28,0.02-1.07,0.79-1.07c0.53,0,0.72,0.46,0.72,0.89
		c0,0.55-0.26,0.85-0.66,1.19l-0.41,0.34c-0.55,0.48-1.07,1.11-1.07,2.03h2.77V164.21z M139.99,162.44l0.53,0.03
		c0-0.12,0.27-0.48,0.7-0.48c0.62,0,0.83,0.57,0.83,1.12c0,0.51-0.11,1.29-0.81,1.29c-0.66,0-0.76-0.65-0.76-0.91h-0.62
		c0,0.4,0.18,1.37,1.36,1.37c1.04,0,1.44-0.78,1.44-1.7c0-1.04-0.5-1.63-1.24-1.63c-0.34,0-0.67,0.13-0.87,0.37l-0.01-0.01l0.2-1.43
		h1.74v-0.54h-2.21L139.99,162.44z M136.69,161.03h1.06v3.72h0.59v-4.96h-0.42c-0.03,0.7-0.6,0.78-1.22,0.81V161.03z"/>
	<path class="st5" d="M156.17,128.41h0.32c0.61,0,0.9,0.36,0.9,0.95c0,0.84-0.43,1.02-0.79,1.02c-0.57,0-0.79-0.52-0.79-0.98h-0.62
		v0.06c0,0.22,0.08,1.38,1.41,1.38c0.95,0,1.41-0.63,1.41-1.53c0-0.69-0.36-1.04-0.92-1.16v-0.01c0.52-0.13,0.77-0.57,0.77-1.06
		c0-0.55-0.24-1.29-1.27-1.29c-0.92,0-1.32,0.58-1.32,1.43h0.62c0-0.36,0.06-0.97,0.71-0.97c0.48,0,0.64,0.37,0.64,0.83
		c0,0.5-0.23,0.88-0.76,0.88h-0.31V128.41z M151.81,126.42h2.27c-0.48,0.63-0.88,1.33-1.17,2.06c-0.31,0.74-0.51,1.51-0.6,2.25h0.68
		c0.09-1.01,0.36-1.88,0.68-2.65c0.31-0.74,0.7-1.34,0.97-1.7v-0.51h-2.83V126.42z M151.25,130.19h-2.13
		c0.07-0.33,0.27-0.62,0.54-0.85l0.7-0.61c0.55-0.48,0.87-0.88,0.87-1.63c0-0.43-0.18-1.32-1.33-1.32c-1.01,0-1.41,0.64-1.41,1.57
		h0.61c0-0.28,0.02-1.07,0.78-1.07c0.53,0,0.72,0.46,0.72,0.89c0,0.55-0.26,0.85-0.66,1.19l-0.41,0.34
		c-0.55,0.48-1.07,1.11-1.07,2.03h2.77V130.19z"/>
	<path class="st5" d="M154.3,222.56h-2.72c0.12-0.66,0.99-1.09,1.47-1.41c0.64-0.41,1.23-0.93,1.23-1.74c0-0.91-0.66-1.38-1.52-1.38
		c-1.06,0-1.59,0.73-1.57,1.73h0.44c-0.01-0.72,0.3-1.36,1.11-1.36c0.6,0,1.1,0.36,1.1,1c0,0.39-0.14,0.65-0.41,0.92
		c-0.83,0.83-2.32,1.19-2.36,2.65h3.23V222.56z M147.61,219.33h1.3v3.64h0.44v-4.9h-0.36c-0.13,0.9-0.61,0.92-1.38,0.95V219.33z
		 M144.98,218.03c-1.43,0-1.71,1.38-1.71,2.53c0,1.14,0.28,2.52,1.71,2.52c1.43,0,1.71-1.38,1.71-2.53
		C146.69,219.4,146.41,218.03,144.98,218.03 M144.98,218.4c1.12,0,1.27,1.3,1.27,2.15c0,0.85-0.15,2.16-1.27,2.16
		c-1.12,0-1.27-1.3-1.27-2.16C143.72,219.7,143.86,218.4,144.98,218.4 M142.62,222.56h-2.72c0.12-0.66,0.99-1.09,1.47-1.41
		c0.64-0.41,1.23-0.93,1.23-1.74c0-0.91-0.66-1.38-1.52-1.38c-1.06,0-1.59,0.73-1.57,1.73h0.44c-0.01-0.72,0.3-1.36,1.11-1.36
		c0.6,0,1.1,0.36,1.1,1c0,0.39-0.14,0.65-0.41,0.92c-0.83,0.83-2.32,1.19-2.36,2.65h3.23V222.56z"/>
	<path class="st5" d="M151.71,45.61c0.83,0,0.92-0.64,0.92-1.34c0-0.7-0.08-1.34-0.92-1.34c-0.83,0-0.92,0.64-0.92,1.34
		C150.79,44.97,150.87,45.61,151.71,45.61 M148.87,43.25c0.83,0,0.92-0.64,0.92-1.34c0-0.7-0.08-1.34-0.92-1.34
		c-0.83,0-0.92,0.64-0.92,1.34C147.95,42.6,148.04,43.25,148.87,43.25 M151.71,45.23c-0.39,0-0.41-0.39-0.41-0.97
		c0-0.57,0.02-0.97,0.41-0.97c0.39,0,0.41,0.39,0.41,0.97C152.12,44.84,152.1,45.23,151.71,45.23 M148.93,45.61h0.49l2.17-5.05
		h-0.49L148.93,45.61z M148.87,42.87c-0.39,0-0.41-0.39-0.41-0.97c0-0.57,0.02-0.97,0.41-0.97c0.39,0,0.41,0.39,0.41,0.97
		C149.28,42.48,149.26,42.87,148.87,42.87 M145.2,44c0-0.52,0.13-1.15,0.79-1.15c0.66,0,0.78,0.63,0.78,1.15s-0.17,1.15-0.78,1.15
		C145.37,45.15,145.2,44.52,145.2,44 M147.27,41.75c0-0.23-0.1-1.19-1.25-1.19c-1.43,0-1.51,1.57-1.51,2.7
		c0,1.03,0.1,2.35,1.47,2.35c0.92,0,1.4-0.73,1.4-1.69c0-0.93-0.43-1.57-1.29-1.57c-0.55,0-0.85,0.37-0.95,0.55h-0.01v-0.39
		c0-0.26,0.05-1.49,0.88-1.49c0.42,0,0.65,0.31,0.65,0.73H147.27z M141.32,43.2l0.53,0.03c0-0.12,0.27-0.48,0.7-0.48
		c0.62,0,0.83,0.57,0.83,1.12c0,0.5-0.11,1.29-0.81,1.29c-0.66,0-0.76-0.65-0.76-0.91h-0.62c0,0.4,0.18,1.37,1.36,1.37
		c1.04,0,1.44-0.78,1.44-1.7c0-1.04-0.5-1.63-1.24-1.63c-0.34,0-0.67,0.12-0.87,0.37l-0.01-0.01l0.2-1.43h1.74v-0.54h-2.21
		L141.32,43.2z"/>
	<path class="st5" d="M187.59,158.97c0-0.58,0.23-1.02,0.81-1.02c0.57,0,0.8,0.44,0.8,1.02c0,0.58-0.23,1.02-0.8,1.02
		C187.82,160,187.59,159.55,187.59,158.97 M188.4,155.86c0.45,0,0.65,0.34,0.65,0.81c0,0.46-0.2,0.81-0.65,0.81
		c-0.46,0-0.65-0.35-0.65-0.81C187.75,156.21,187.94,155.86,188.4,155.86 M186.98,158.99c0,0.65,0.31,1.46,1.42,1.46
		c1.11,0,1.42-0.81,1.42-1.46c0-0.67-0.28-1.08-0.87-1.27c0.5-0.2,0.72-0.52,0.72-1.06c0-0.8-0.48-1.26-1.27-1.26
		c-0.78,0-1.27,0.46-1.27,1.26c0,0.53,0.22,0.85,0.72,1.06C187.26,157.92,186.98,158.33,186.98,158.99 M184.29,158.85
		c0-0.52,0.13-1.15,0.78-1.15c0.66,0,0.78,0.63,0.78,1.15c0,0.52-0.17,1.15-0.78,1.15C184.46,160,184.29,159.37,184.29,158.85
		 M186.36,156.59c0-0.23-0.1-1.19-1.25-1.19c-1.43,0-1.51,1.57-1.51,2.7c0,1.03,0.1,2.35,1.47,2.35c0.92,0,1.4-0.73,1.4-1.69
		c0-0.93-0.43-1.57-1.29-1.57c-0.55,0-0.85,0.37-0.95,0.55h-0.01v-0.39c0-0.26,0.05-1.49,0.88-1.49c0.42,0,0.65,0.32,0.65,0.73
		H186.36z M180.47,156.63h1.06v3.72h0.59v-4.95h-0.42c-0.03,0.7-0.6,0.78-1.22,0.81V156.63z"/>
	<path class="st5" d="M199.56,122.26c0-0.58,0.23-1.02,0.81-1.02c0.57,0,0.81,0.44,0.81,1.02c0,0.58-0.23,1.02-0.81,1.02
		C199.79,123.29,199.56,122.85,199.56,122.26 M200.37,119.16c0.45,0,0.65,0.34,0.65,0.81c0,0.46-0.2,0.81-0.65,0.81
		c-0.46,0-0.65-0.35-0.65-0.81C199.72,119.5,199.91,119.16,200.37,119.16 M198.95,122.29c0,0.65,0.31,1.46,1.42,1.46
		c1.11,0,1.42-0.81,1.42-1.46c0-0.67-0.28-1.08-0.87-1.27c0.5-0.2,0.72-0.53,0.72-1.06c0-0.8-0.48-1.26-1.27-1.26
		c-0.78,0-1.27,0.46-1.27,1.26c0,0.53,0.22,0.85,0.72,1.06C199.23,121.21,198.95,121.62,198.95,122.29 M197.76,120.3
		c0,0.52-0.13,1.15-0.79,1.15c-0.66,0-0.78-0.62-0.78-1.15c0-0.53,0.17-1.15,0.78-1.15C197.59,119.16,197.76,119.78,197.76,120.3
		 M195.69,122.56c0,0.23,0.1,1.19,1.25,1.19c1.43,0,1.51-1.57,1.51-2.7c0-1.02-0.1-2.35-1.47-2.35c-0.92,0-1.4,0.73-1.4,1.69
		c0,0.93,0.43,1.57,1.29,1.57c0.55,0,0.85-0.37,0.95-0.55h0.01v0.39c0,0.25-0.05,1.49-0.88,1.49c-0.42,0-0.65-0.32-0.65-0.73H195.69
		z M195.03,123.1h-2.13c0.07-0.33,0.27-0.62,0.54-0.85l0.7-0.61c0.55-0.48,0.87-0.88,0.87-1.63c0-0.43-0.18-1.32-1.33-1.32
		c-1.01,0-1.41,0.64-1.41,1.57h0.61c0-0.28,0.02-1.07,0.78-1.07c0.53,0,0.72,0.46,0.72,0.89c0,0.55-0.26,0.85-0.66,1.19l-0.41,0.34
		c-0.55,0.48-1.07,1.11-1.07,2.03h2.77V123.1z"/>
	<path class="st5" d="M194.83,221.41c-0.07,1.05,0.66,1.66,1.67,1.66c0.9,0,1.69-0.53,1.69-1.49c0-0.65-0.37-1.11-1.01-1.21v-0.01
		c0.53-0.13,0.82-0.55,0.82-1.08c0-0.87-0.75-1.24-1.52-1.24c-0.95,0-1.54,0.68-1.55,1.61h0.44c-0.01-0.73,0.38-1.24,1.11-1.24
		c0.59,0,1.07,0.28,1.07,0.92c0,0.62-0.54,0.9-1,0.89h-0.37v0.37h0.37c0.65,0,1.18,0.34,1.18,1.04c0,0.7-0.61,1.09-1.25,1.09
		c-0.79,0-1.25-0.52-1.23-1.3L194.83,221.41z M191.39,219.33h1.3v3.64h0.44v-4.9h-0.36c-0.13,0.9-0.61,0.92-1.38,0.95V219.33z
		 M188.76,218.03c-1.43,0-1.71,1.38-1.71,2.53c0,1.14,0.28,2.52,1.71,2.52c1.43,0,1.71-1.38,1.71-2.53
		C190.47,219.4,190.19,218.03,188.76,218.03 M188.76,218.4c1.12,0,1.27,1.3,1.27,2.15c0,0.85-0.15,2.16-1.27,2.16
		c-1.12,0-1.27-1.3-1.27-2.16C187.5,219.7,187.64,218.4,188.76,218.4 M186.4,222.56h-2.72c0.12-0.66,0.99-1.09,1.47-1.41
		c0.64-0.41,1.23-0.93,1.23-1.74c0-0.91-0.66-1.38-1.52-1.38c-1.06,0-1.59,0.73-1.57,1.73h0.44c-0.01-0.72,0.3-1.36,1.11-1.36
		c0.6,0,1.1,0.36,1.1,1c0,0.39-0.14,0.65-0.41,0.92c-0.83,0.83-2.32,1.19-2.36,2.65h3.23V222.56z"/>
	<path class="st5" d="M195.49,45.61c0.83,0,0.92-0.64,0.92-1.34c0-0.7-0.08-1.34-0.92-1.34c-0.83,0-0.92,0.64-0.92,1.34
		C194.57,44.97,194.65,45.61,195.49,45.61 M192.65,43.25c0.83,0,0.92-0.64,0.92-1.34c0-0.7-0.08-1.34-0.92-1.34
		c-0.83,0-0.92,0.64-0.92,1.34C191.73,42.6,191.82,43.25,192.65,43.25 M195.49,45.23c-0.39,0-0.41-0.39-0.41-0.97
		c0-0.57,0.02-0.97,0.41-0.97c0.39,0,0.41,0.39,0.41,0.97C195.9,44.84,195.88,45.23,195.49,45.23 M192.71,45.61h0.49l2.17-5.05
		h-0.49L192.71,45.61z M192.65,42.87c-0.39,0-0.41-0.39-0.41-0.97c0-0.57,0.02-0.97,0.41-0.97c0.39,0,0.41,0.39,0.41,0.97
		C193.06,42.48,193.04,42.87,192.65,42.87 M188.98,44c0-0.52,0.13-1.15,0.79-1.15c0.66,0,0.78,0.63,0.78,1.15s-0.17,1.15-0.78,1.15
		C189.15,45.15,188.98,44.52,188.98,44 M191.05,41.75c0-0.23-0.1-1.19-1.25-1.19c-1.43,0-1.51,1.57-1.51,2.7
		c0,1.03,0.1,2.35,1.47,2.35c0.92,0,1.4-0.73,1.4-1.69c0-0.93-0.43-1.57-1.29-1.57c-0.55,0-0.85,0.37-0.95,0.55h-0.01v-0.39
		c0-0.26,0.05-1.49,0.88-1.49c0.42,0,0.65,0.31,0.65,0.73H191.05z M185.1,43.2l0.53,0.03c0-0.12,0.27-0.48,0.7-0.48
		c0.62,0,0.83,0.57,0.83,1.12c0,0.5-0.11,1.29-0.81,1.29c-0.66,0-0.76-0.65-0.76-0.91h-0.62c0,0.4,0.18,1.37,1.36,1.37
		c1.04,0,1.44-0.78,1.44-1.7c0-1.04-0.5-1.63-1.24-1.63c-0.34,0-0.67,0.12-0.87,0.37l-0.01-0.01l0.2-1.43h1.74v-0.54h-2.21
		L185.1,43.2z"/>
	<path class="st5" d="M239.27,45.61c0.83,0,0.92-0.64,0.92-1.34c0-0.7-0.08-1.34-0.92-1.34c-0.83,0-0.92,0.64-0.92,1.34
		C238.35,44.97,238.43,45.61,239.27,45.61 M236.43,43.25c0.83,0,0.92-0.64,0.92-1.34c0-0.7-0.08-1.34-0.92-1.34
		c-0.83,0-0.92,0.64-0.92,1.34C235.51,42.6,235.6,43.25,236.43,43.25 M239.27,45.23c-0.39,0-0.41-0.39-0.41-0.97
		c0-0.57,0.02-0.97,0.41-0.97c0.39,0,0.41,0.39,0.41,0.97C239.68,44.84,239.66,45.23,239.27,45.23 M236.49,45.61h0.49l2.17-5.05
		h-0.49L236.49,45.61z M236.43,42.87c-0.39,0-0.41-0.39-0.41-0.97c0-0.57,0.02-0.97,0.41-0.97c0.39,0,0.41,0.39,0.41,0.97
		C236.84,42.48,236.82,42.87,236.43,42.87 M232.76,44c0-0.52,0.13-1.15,0.79-1.15c0.66,0,0.78,0.63,0.78,1.15s-0.17,1.15-0.78,1.15
		C232.93,45.15,232.76,44.52,232.76,44 M234.83,41.75c0-0.23-0.1-1.19-1.25-1.19c-1.43,0-1.51,1.57-1.51,2.7
		c0,1.03,0.1,2.35,1.47,2.35c0.92,0,1.4-0.73,1.4-1.69c0-0.93-0.43-1.57-1.29-1.57c-0.55,0-0.85,0.37-0.95,0.55h-0.01v-0.39
		c0-0.26,0.05-1.49,0.88-1.49c0.42,0,0.65,0.31,0.65,0.73H234.83z M228.88,43.2l0.53,0.03c0-0.12,0.27-0.48,0.7-0.48
		c0.62,0,0.83,0.57,0.83,1.12c0,0.5-0.11,1.29-0.81,1.29c-0.66,0-0.76-0.65-0.76-0.91h-0.62c0,0.4,0.18,1.37,1.36,1.37
		c1.04,0,1.44-0.78,1.44-1.7c0-1.04-0.5-1.63-1.24-1.63c-0.34,0-0.67,0.12-0.87,0.37l-0.01-0.01l0.2-1.43h1.74v-0.54h-2.21
		L228.88,43.2z"/>
	<path class="st5" d="M231.38,151.29c0-1.09,0.04-2.09,0.8-2.09c0.76,0,0.8,0.99,0.8,2.09c0,1.04-0.04,2.04-0.8,2.04
		C231.42,153.33,231.38,152.33,231.38,151.29 M232.18,153.8c1.34,0,1.41-1.46,1.41-2.51c0-1.22-0.08-2.55-1.41-2.55
		c-1.34,0-1.41,1.46-1.41,2.55C230.77,152.47,230.84,153.8,232.18,153.8 M229.57,150.35c0,0.53-0.13,1.15-0.79,1.15
		c-0.66,0-0.78-0.62-0.78-1.15c0-0.53,0.17-1.15,0.79-1.15C229.4,149.2,229.57,149.83,229.57,150.35 M227.5,152.61
		c0,0.23,0.1,1.19,1.25,1.19c1.43,0,1.5-1.57,1.5-2.7c0-1.02-0.1-2.35-1.47-2.35c-0.92,0-1.4,0.73-1.4,1.69
		c0,0.93,0.43,1.57,1.29,1.57c0.55,0,0.85-0.37,0.95-0.55h0.01v0.39c0,0.25-0.05,1.49-0.88,1.49c-0.42,0-0.65-0.32-0.65-0.73H227.5z
		 M224.25,149.97h1.06v3.72h0.59v-4.96h-0.42c-0.03,0.7-0.6,0.78-1.22,0.81V149.97z"/>
	<path class="st5" d="M242.73,108.28H245c-0.48,0.63-0.88,1.33-1.18,2.06c-0.31,0.74-0.51,1.5-0.6,2.25h0.69
		c0.09-1.01,0.36-1.88,0.68-2.65c0.31-0.74,0.7-1.34,0.97-1.7v-0.51h-2.83V108.28z M240.37,110.26h0.32c0.62,0,0.9,0.36,0.9,0.95
		c0,0.84-0.43,1.02-0.79,1.02c-0.57,0-0.79-0.52-0.79-0.98h-0.62v0.06c0,0.22,0.08,1.38,1.41,1.38c0.95,0,1.41-0.63,1.41-1.53
		c0-0.69-0.36-1.04-0.92-1.15v-0.01c0.52-0.13,0.77-0.57,0.77-1.06c0-0.55-0.24-1.29-1.27-1.29c-0.92,0-1.32,0.58-1.32,1.43h0.61
		c0-0.36,0.06-0.97,0.72-0.97c0.47,0,0.64,0.37,0.64,0.83c0,0.5-0.23,0.88-0.76,0.88h-0.31V110.26z M237.01,110.26h0.31
		c0.62,0,0.9,0.36,0.9,0.95c0,0.84-0.43,1.02-0.79,1.02c-0.57,0-0.79-0.52-0.79-0.98h-0.62v0.06c0,0.22,0.08,1.38,1.41,1.38
		c0.95,0,1.41-0.63,1.41-1.53c0-0.69-0.36-1.04-0.92-1.15v-0.01c0.52-0.13,0.77-0.57,0.77-1.06c0-0.55-0.24-1.29-1.27-1.29
		c-0.92,0-1.32,0.58-1.32,1.43h0.61c0-0.36,0.06-0.97,0.72-0.97c0.47,0,0.64,0.37,0.64,0.83c0,0.5-0.23,0.88-0.76,0.88h-0.31V110.26
		z"/>
	<path class="st5" d="M238.99,221.38l1.85-2.67h0.01v2.67H238.99z M238.59,221.75h2.26v1.22h0.4v-1.22h0.74v-0.37h-0.74v-3.31h-0.4
		l-2.27,3.26V221.75z M235.17,219.33h1.3v3.64h0.44v-4.9h-0.36c-0.13,0.9-0.61,0.92-1.38,0.95V219.33z M232.54,218.03
		c-1.43,0-1.71,1.38-1.71,2.53c0,1.14,0.28,2.52,1.71,2.52c1.43,0,1.71-1.38,1.71-2.53C234.25,219.4,233.97,218.03,232.54,218.03
		 M232.54,218.4c1.12,0,1.27,1.3,1.27,2.15c0,0.85-0.15,2.16-1.27,2.16c-1.12,0-1.27-1.3-1.27-2.16
		C231.27,219.7,231.42,218.4,232.54,218.4 M230.18,222.56h-2.72c0.12-0.66,0.99-1.09,1.47-1.41c0.64-0.41,1.23-0.93,1.23-1.74
		c0-0.91-0.66-1.38-1.52-1.38c-1.06,0-1.59,0.73-1.57,1.73h0.44c-0.01-0.72,0.3-1.36,1.11-1.36c0.6,0,1.1,0.36,1.1,1
		c0,0.39-0.14,0.65-0.41,0.92c-0.83,0.83-2.32,1.19-2.36,2.65h3.23V222.56z"/>
	<path class="st5" d="M274.69,138.91l0.53,0.03c0-0.12,0.27-0.48,0.7-0.48c0.62,0,0.83,0.57,0.83,1.12c0,0.5-0.11,1.29-0.81,1.29
		c-0.66,0-0.76-0.65-0.76-0.91h-0.61c0,0.4,0.18,1.37,1.36,1.37c1.04,0,1.44-0.78,1.44-1.7c0-1.04-0.5-1.63-1.25-1.63
		c-0.34,0-0.66,0.13-0.87,0.37l-0.01-0.01l0.2-1.44h1.74v-0.54h-2.21L274.69,138.91z M272.18,138.89h0.32c0.61,0,0.9,0.36,0.9,0.95
		c0,0.84-0.43,1.02-0.79,1.02c-0.57,0-0.79-0.52-0.79-0.98h-0.61v0.06c0,0.22,0.08,1.38,1.41,1.38c0.95,0,1.41-0.63,1.41-1.53
		c0-0.69-0.36-1.04-0.92-1.16v-0.01c0.52-0.13,0.77-0.57,0.77-1.06c0-0.55-0.24-1.29-1.27-1.29c-0.92,0-1.32,0.58-1.32,1.43h0.61
		c0-0.36,0.06-0.97,0.71-0.97c0.48,0,0.64,0.37,0.64,0.83c0,0.5-0.23,0.88-0.76,0.88h-0.31V138.89z M270.62,140.68h-2.13
		c0.07-0.33,0.27-0.62,0.54-0.85l0.7-0.61c0.55-0.48,0.87-0.88,0.87-1.63c0-0.43-0.18-1.32-1.33-1.32c-1.02,0-1.41,0.64-1.41,1.57
		h0.61c0-0.28,0.02-1.07,0.78-1.07c0.53,0,0.72,0.46,0.72,0.89c0,0.55-0.26,0.85-0.66,1.19l-0.41,0.34
		c-0.55,0.48-1.07,1.11-1.07,2.03h2.77V140.68z"/>
	<path class="st5" d="M286.46,97.52v0.55h1.79v1.2h0.59v-1.2h0.56v-0.5h-0.56v-3.26h-0.59L286.46,97.52z M288.24,95.28h0.01v2.29
		h-1.26L288.24,95.28z M283.76,97.89c0-0.58,0.23-1.02,0.81-1.02c0.57,0,0.8,0.44,0.8,1.02c0,0.58-0.23,1.02-0.8,1.02
		C283.99,98.91,283.76,98.47,283.76,97.89 M284.57,94.78c0.45,0,0.65,0.34,0.65,0.81c0,0.46-0.2,0.81-0.65,0.81
		c-0.46,0-0.65-0.35-0.65-0.81C283.92,95.12,284.11,94.78,284.57,94.78 M283.15,97.91c0,0.65,0.31,1.46,1.42,1.46
		c1.11,0,1.42-0.81,1.42-1.46c0-0.66-0.28-1.08-0.87-1.27c0.5-0.2,0.72-0.52,0.72-1.06c0-0.8-0.48-1.26-1.27-1.26
		c-0.79,0-1.27,0.46-1.27,1.26c0,0.53,0.22,0.85,0.72,1.06C283.43,96.83,283.15,97.24,283.15,97.91 M280.79,96.94h0.31
		c0.62,0,0.9,0.36,0.9,0.95c0,0.84-0.43,1.02-0.79,1.02c-0.57,0-0.79-0.52-0.79-0.98h-0.62v0.06c0,0.22,0.08,1.38,1.41,1.38
		c0.95,0,1.41-0.63,1.41-1.53c0-0.69-0.36-1.04-0.92-1.15v-0.01c0.52-0.13,0.77-0.57,0.77-1.06c0-0.55-0.24-1.29-1.27-1.29
		c-0.92,0-1.32,0.58-1.32,1.43h0.61c0-0.36,0.06-0.97,0.71-0.97c0.48,0,0.64,0.37,0.64,0.83c0,0.5-0.23,0.88-0.76,0.88h-0.31V96.94z
		"/>
	<path class="st5" d="M282.41,221.57c0.02,0.93,0.7,1.5,1.61,1.5c0.94,0,1.7-0.7,1.7-1.66c0-0.99-0.64-1.69-1.64-1.69
		c-0.38,0-0.79,0.17-1.04,0.45l-0.01-0.01l0.32-1.62h2.14v-0.4h-2.45l-0.48,2.54h0.38c0.24-0.37,0.66-0.58,1.09-0.58
		c0.73,0,1.25,0.55,1.25,1.27c0,0.71-0.47,1.34-1.23,1.34c-0.67,0-1.18-0.46-1.2-1.13H282.41z M278.95,219.33h1.3v3.64h0.44v-4.9
		h-0.36c-0.13,0.9-0.61,0.92-1.38,0.95V219.33z M276.32,218.03c-1.43,0-1.71,1.38-1.71,2.53c0,1.14,0.28,2.52,1.71,2.52
		c1.43,0,1.71-1.38,1.71-2.53C278.03,219.4,277.75,218.03,276.32,218.03 M276.32,218.4c1.12,0,1.27,1.3,1.27,2.15
		c0,0.85-0.15,2.16-1.27,2.16c-1.12,0-1.27-1.3-1.27-2.16C275.05,219.7,275.2,218.4,276.32,218.4 M273.96,222.56h-2.72
		c0.12-0.66,0.99-1.09,1.47-1.41c0.64-0.41,1.23-0.93,1.23-1.74c0-0.91-0.66-1.38-1.52-1.38c-1.06,0-1.59,0.73-1.57,1.73h0.44
		c-0.01-0.72,0.3-1.36,1.11-1.36c0.6,0,1.1,0.36,1.1,1c0,0.39-0.14,0.65-0.41,0.92c-0.83,0.83-2.32,1.19-2.36,2.65h3.23V222.56z"/>
	<path class="st5" d="M283.05,25.22c0.83,0,0.92-0.64,0.92-1.34c0-0.7-0.08-1.34-0.92-1.34c-0.83,0-0.92,0.64-0.92,1.34
		C282.13,24.57,282.21,25.22,283.05,25.22 M280.21,22.85c0.83,0,0.92-0.64,0.92-1.34c0-0.7-0.08-1.34-0.92-1.34
		c-0.83,0-0.92,0.64-0.92,1.34C279.29,22.21,279.38,22.85,280.21,22.85 M283.05,24.84c-0.39,0-0.41-0.39-0.41-0.97
		c0-0.57,0.02-0.97,0.41-0.97c0.39,0,0.41,0.39,0.41,0.97C283.46,24.45,283.44,24.84,283.05,24.84 M280.27,25.22h0.49l2.17-5.05
		h-0.49L280.27,25.22z M280.21,22.47c-0.39,0-0.41-0.39-0.41-0.97c0-0.57,0.02-0.97,0.41-0.97c0.39,0,0.41,0.39,0.41,0.97
		C280.62,22.08,280.6,22.47,280.21,22.47 M278.04,21.77c0,0.52-0.13,1.15-0.78,1.15c-0.66,0-0.79-0.62-0.79-1.15
		s0.17-1.15,0.79-1.15C277.87,20.63,278.04,21.25,278.04,21.77 M275.97,24.03c0,0.23,0.1,1.19,1.25,1.19c1.43,0,1.5-1.57,1.5-2.7
		c0-1.02-0.1-2.35-1.47-2.35c-0.93,0-1.4,0.73-1.4,1.69c0,0.93,0.43,1.57,1.3,1.57c0.55,0,0.85-0.37,0.95-0.55h0.01v0.39
		c0,0.25-0.05,1.49-0.88,1.49c-0.42,0-0.65-0.32-0.65-0.73H275.97z M272.66,22.8l0.53,0.03c0-0.12,0.27-0.48,0.7-0.48
		c0.62,0,0.83,0.57,0.83,1.12c0,0.5-0.11,1.29-0.81,1.29c-0.66,0-0.76-0.65-0.76-0.91h-0.61c0,0.4,0.18,1.37,1.36,1.37
		c1.04,0,1.44-0.78,1.44-1.7c0-1.04-0.5-1.63-1.24-1.63c-0.34,0-0.67,0.12-0.87,0.37l-0.01-0.01l0.2-1.43h1.74v-0.54h-2.21
		L272.66,22.8z"/>
	<path class="st5" d="M321.12,130.19H319c0.07-0.33,0.27-0.62,0.54-0.85l0.7-0.61c0.55-0.48,0.87-0.88,0.87-1.63
		c0-0.43-0.18-1.32-1.33-1.32c-1.02,0-1.41,0.64-1.41,1.57h0.61c0-0.28,0.02-1.07,0.78-1.07c0.53,0,0.72,0.46,0.72,0.89
		c0,0.55-0.26,0.85-0.66,1.19l-0.41,0.34c-0.55,0.48-1.07,1.11-1.07,2.03h2.77V130.19z M314.96,126.42h2.27
		c-0.48,0.63-0.88,1.33-1.18,2.06c-0.31,0.74-0.51,1.51-0.6,2.25h0.68c0.09-1.01,0.36-1.88,0.68-2.65c0.31-0.74,0.7-1.34,0.97-1.7
		v-0.51h-2.83V126.42z M314.4,130.19h-2.13c0.07-0.33,0.27-0.62,0.54-0.85l0.7-0.61c0.55-0.48,0.87-0.88,0.87-1.63
		c0-0.43-0.18-1.32-1.33-1.32c-1.02,0-1.41,0.64-1.41,1.57h0.61c0-0.28,0.02-1.07,0.78-1.07c0.53,0,0.72,0.46,0.72,0.89
		c0,0.55-0.26,0.85-0.66,1.19l-0.41,0.34c-0.55,0.48-1.07,1.11-1.07,2.03h2.77V130.19z"/>
	<path class="st5" d="M332.46,80.34c0,0.52-0.13,1.15-0.79,1.15c-0.66,0-0.78-0.62-0.78-1.15c0-0.53,0.17-1.15,0.78-1.15
		C332.29,79.19,332.46,79.81,332.46,80.34 M330.38,82.59c0,0.23,0.1,1.19,1.25,1.19c1.43,0,1.51-1.57,1.51-2.7
		c0-1.02-0.1-2.35-1.47-2.35c-0.92,0-1.4,0.73-1.4,1.69c0,0.93,0.43,1.57,1.29,1.57c0.55,0,0.85-0.37,0.95-0.55h0.01v0.39
		c0,0.25-0.05,1.49-0.88,1.49c-0.42,0-0.65-0.32-0.65-0.73H330.38z M327.93,81.35h0.32c0.61,0,0.9,0.36,0.9,0.95
		c0,0.84-0.43,1.02-0.79,1.02c-0.57,0-0.79-0.52-0.79-0.98h-0.61v0.06c0,0.22,0.08,1.38,1.41,1.38c0.95,0,1.41-0.63,1.41-1.53
		c0-0.69-0.36-1.04-0.92-1.16v-0.01c0.52-0.13,0.77-0.57,0.77-1.06c0-0.55-0.24-1.29-1.27-1.29c-0.92,0-1.32,0.58-1.32,1.43h0.61
		c0-0.36,0.06-0.97,0.71-0.97c0.48,0,0.64,0.37,0.64,0.83c0,0.5-0.23,0.88-0.76,0.88h-0.31V81.35z M323.52,81.93v0.55h1.79v1.2h0.59
		v-1.2h0.56v-0.5h-0.56v-3.25h-0.59L323.52,81.93z M325.29,79.69h0.01v2.29h-1.26L325.29,79.69z"/>
	<path class="st5" d="M329.47,219.31c-0.11-0.85-0.64-1.28-1.51-1.28c-1.6,0-1.75,1.86-1.75,2.44c0,1.91,0.52,2.6,1.71,2.6
		c0.97,0,1.66-0.71,1.66-1.66c0-0.96-0.64-1.64-1.62-1.64c-0.55,0-1.07,0.33-1.3,0.81h-0.01c0-0.89,0.21-2.19,1.35-2.19
		c0.57,0,0.95,0.37,1.02,0.91H329.47z M327.97,220.15c0.75,0,1.18,0.58,1.18,1.3c0,0.68-0.48,1.26-1.18,1.26
		c-0.85,0-1.23-0.57-1.23-1.26C326.75,220.72,327.2,220.15,327.97,220.15 M322.73,219.33h1.3v3.64h0.44v-4.9h-0.36
		c-0.13,0.9-0.61,0.92-1.38,0.95V219.33z M320.1,218.03c-1.43,0-1.71,1.38-1.71,2.53c0,1.14,0.28,2.52,1.71,2.52
		c1.43,0,1.71-1.38,1.71-2.53C321.81,219.4,321.53,218.03,320.1,218.03 M320.1,218.4c1.12,0,1.27,1.3,1.27,2.15
		c0,0.85-0.15,2.16-1.27,2.16c-1.12,0-1.27-1.3-1.27-2.16C318.83,219.7,318.98,218.4,320.1,218.4 M317.74,222.56h-2.72
		c0.12-0.66,0.99-1.09,1.47-1.41c0.64-0.41,1.23-0.93,1.23-1.74c0-0.91-0.66-1.38-1.52-1.38c-1.06,0-1.59,0.73-1.57,1.73h0.44
		c-0.01-0.72,0.3-1.36,1.11-1.36c0.6,0,1.1,0.36,1.1,1c0,0.39-0.14,0.65-0.41,0.92c-0.83,0.83-2.32,1.19-2.36,2.65h3.23V222.56z"/>
	<path class="st5" d="M326.83,26.13c0.83,0,0.92-0.64,0.92-1.34c0-0.7-0.08-1.34-0.92-1.34c-0.83,0-0.92,0.64-0.92,1.34
		C325.91,25.49,325.99,26.13,326.83,26.13 M323.99,23.77c0.83,0,0.92-0.64,0.92-1.34c0-0.7-0.08-1.34-0.92-1.34
		c-0.83,0-0.92,0.64-0.92,1.34C323.07,23.13,323.16,23.77,323.99,23.77 M326.83,25.76c-0.39,0-0.41-0.39-0.41-0.97
		c0-0.57,0.02-0.97,0.41-0.97c0.39,0,0.41,0.39,0.41,0.97C327.24,25.37,327.22,25.76,326.83,25.76 M324.05,26.13h0.49l2.17-5.05
		h-0.49L324.05,26.13z M323.99,23.39c-0.39,0-0.41-0.39-0.41-0.97c0-0.57,0.02-0.97,0.41-0.97c0.39,0,0.41,0.39,0.41,0.97
		C324.4,23,324.38,23.39,323.99,23.39 M321.82,22.69c0,0.52-0.13,1.15-0.78,1.15c-0.66,0-0.79-0.62-0.79-1.15s0.17-1.15,0.79-1.15
		C321.65,21.54,321.82,22.17,321.82,22.69 M319.75,24.94c0,0.23,0.1,1.19,1.25,1.19c1.43,0,1.5-1.57,1.5-2.7
		c0-1.02-0.1-2.35-1.47-2.35c-0.93,0-1.4,0.73-1.4,1.69c0,0.93,0.43,1.57,1.3,1.57c0.55,0,0.85-0.37,0.95-0.55h0.01v0.39
		c0,0.25-0.05,1.49-0.88,1.49c-0.42,0-0.65-0.32-0.65-0.73H319.75z M316.44,23.72l0.53,0.03c0-0.12,0.27-0.48,0.7-0.48
		c0.62,0,0.83,0.57,0.83,1.12c0,0.5-0.11,1.29-0.81,1.29c-0.66,0-0.76-0.65-0.76-0.91h-0.61c0,0.4,0.18,1.37,1.36,1.37
		c1.04,0,1.44-0.78,1.44-1.7c0-1.04-0.5-1.63-1.24-1.63c-0.34,0-0.67,0.12-0.87,0.37l-0.01-0.01l0.2-1.43h1.74v-0.54h-2.21
		L316.44,23.72z"/>
	<path class="st5" d="M364.9,116.3h-2.13c0.07-0.33,0.27-0.62,0.54-0.85l0.7-0.61c0.55-0.48,0.87-0.88,0.87-1.63
		c0-0.43-0.18-1.32-1.33-1.32c-1.02,0-1.41,0.64-1.41,1.57h0.62c0-0.28,0.02-1.07,0.79-1.07c0.53,0,0.72,0.46,0.72,0.89
		c0,0.55-0.26,0.85-0.66,1.19l-0.41,0.34c-0.55,0.48-1.07,1.11-1.07,2.03h2.77V116.3z M361.54,116.3h-2.13
		c0.07-0.33,0.27-0.62,0.54-0.85l0.7-0.61c0.55-0.48,0.87-0.88,0.87-1.63c0-0.43-0.18-1.32-1.33-1.32c-1.02,0-1.41,0.64-1.41,1.57
		h0.61c0-0.28,0.02-1.07,0.79-1.07c0.53,0,0.72,0.46,0.72,0.89c0,0.55-0.26,0.85-0.66,1.19l-0.41,0.34
		c-0.55,0.48-1.07,1.11-1.07,2.03h2.77V116.3z M356.38,114.52h0.31c0.62,0,0.9,0.36,0.9,0.95c0,0.84-0.43,1.02-0.79,1.02
		c-0.57,0-0.79-0.52-0.79-0.98h-0.62v0.06c0,0.22,0.08,1.38,1.41,1.38c0.95,0,1.41-0.63,1.41-1.53c0-0.69-0.36-1.04-0.92-1.15v-0.01
		c0.52-0.13,0.77-0.57,0.77-1.06c0-0.55-0.24-1.29-1.27-1.29c-0.92,0-1.32,0.58-1.32,1.43h0.61c0-0.36,0.06-0.97,0.71-0.97
		c0.48,0,0.64,0.37,0.64,0.83c0,0.5-0.23,0.88-0.76,0.88h-0.31V114.52z"/>
	<path class="st5" d="M406.5,98c0-1.09,0.04-2.09,0.8-2.09c0.76,0,0.8,0.99,0.8,2.09c0,1.04-0.04,2.04-0.8,2.04
		C406.54,100.04,406.5,99.04,406.5,98 M407.3,100.5c1.34,0,1.41-1.45,1.41-2.51c0-1.22-0.08-2.55-1.41-2.55
		c-1.34,0-1.41,1.46-1.41,2.55C405.88,99.17,405.96,100.5,407.3,100.5 M403.13,99.02c0-0.58,0.23-1.02,0.81-1.02
		c0.57,0,0.8,0.44,0.8,1.02c0,0.58-0.23,1.02-0.8,1.02C403.36,100.04,403.13,99.6,403.13,99.02 M403.94,95.91
		c0.45,0,0.65,0.34,0.65,0.81c0,0.46-0.2,0.81-0.65,0.81c-0.46,0-0.65-0.35-0.65-0.81C403.29,96.25,403.48,95.91,403.94,95.91
		 M402.52,99.04c0,0.65,0.31,1.46,1.42,1.46c1.11,0,1.42-0.81,1.42-1.46c0-0.66-0.28-1.08-0.87-1.27c0.5-0.2,0.72-0.52,0.72-1.06
		c0-0.8-0.48-1.26-1.27-1.26c-0.79,0-1.27,0.46-1.27,1.26c0,0.53,0.22,0.85,0.72,1.06C402.8,97.96,402.52,98.38,402.52,99.04
		 M400.16,98.07h0.31c0.62,0,0.9,0.36,0.9,0.95c0,0.84-0.43,1.02-0.79,1.02c-0.57,0-0.79-0.52-0.79-0.98h-0.62v0.06
		c0,0.22,0.08,1.38,1.41,1.38c0.95,0,1.41-0.63,1.41-1.53c0-0.69-0.36-1.04-0.92-1.15V97.8c0.52-0.13,0.77-0.57,0.77-1.06
		c0-0.55-0.24-1.29-1.27-1.29c-0.92,0-1.32,0.58-1.32,1.43h0.61c0-0.36,0.06-0.97,0.71-0.97c0.48,0,0.64,0.37,0.64,0.83
		c0,0.5-0.23,0.88-0.76,0.88h-0.31V98.07z"/>
	<path class="st5" d="M376.87,65.28h-2.13c0.07-0.33,0.27-0.62,0.54-0.85l0.7-0.61c0.55-0.48,0.87-0.88,0.87-1.63
		c0-0.43-0.18-1.32-1.33-1.32c-1.02,0-1.41,0.64-1.41,1.57h0.62c0-0.28,0.02-1.07,0.78-1.07c0.53,0,0.72,0.46,0.72,0.89
		c0,0.55-0.26,0.85-0.66,1.19l-0.41,0.34c-0.55,0.48-1.07,1.11-1.07,2.03h2.77V65.28z M371.33,63.42c0-1.09,0.04-2.09,0.8-2.09
		c0.76,0,0.8,0.99,0.8,2.09c0,1.04-0.04,2.04-0.8,2.04C371.37,65.46,371.33,64.46,371.33,63.42 M372.13,65.92
		c1.34,0,1.41-1.46,1.41-2.51c0-1.22-0.08-2.55-1.41-2.55c-1.34,0-1.41,1.45-1.41,2.55C370.71,64.59,370.79,65.92,372.13,65.92
		 M367.49,63.51l0.53,0.03c0-0.12,0.27-0.48,0.7-0.48c0.62,0,0.83,0.57,0.83,1.12c0,0.5-0.11,1.29-0.81,1.29
		c-0.66,0-0.76-0.65-0.76-0.91h-0.61c0,0.4,0.18,1.37,1.36,1.37c1.04,0,1.44-0.78,1.44-1.7c0-1.04-0.5-1.63-1.24-1.63
		c-0.34,0-0.67,0.12-0.87,0.37l-0.01-0.01l0.2-1.43h1.74v-0.54h-2.21L367.49,63.51z"/>
	<path class="st5" d="M418.46,44.31c0-0.58,0.23-1.02,0.81-1.02c0.57,0,0.8,0.44,0.8,1.02c0,0.58-0.23,1.02-0.8,1.02
		C418.69,45.33,418.46,44.89,418.46,44.31 M419.27,41.2c0.45,0,0.65,0.34,0.65,0.81c0,0.46-0.2,0.81-0.65,0.81
		c-0.46,0-0.65-0.35-0.65-0.81C418.61,41.55,418.81,41.2,419.27,41.2 M417.84,44.33c0,0.65,0.31,1.46,1.42,1.46s1.42-0.81,1.42-1.46
		c0-0.67-0.28-1.08-0.87-1.27c0.5-0.2,0.72-0.52,0.72-1.06c0-0.8-0.48-1.26-1.27-1.26c-0.79,0-1.27,0.46-1.27,1.26
		c0,0.53,0.22,0.86,0.72,1.06C418.12,43.25,417.84,43.67,417.84,44.33 M414.49,41.39h2.27c-0.48,0.63-0.88,1.33-1.18,2.06
		c-0.31,0.74-0.51,1.51-0.6,2.25h0.69c0.09-1.01,0.36-1.88,0.68-2.65c0.31-0.74,0.7-1.34,0.97-1.7v-0.51h-2.83V41.39z M411.27,43.38
		l0.53,0.03c0-0.12,0.27-0.48,0.7-0.48c0.62,0,0.83,0.57,0.83,1.12c0,0.5-0.11,1.29-0.81,1.29c-0.66,0-0.76-0.65-0.76-0.91h-0.61
		c0,0.4,0.18,1.37,1.36,1.37c1.04,0,1.44-0.78,1.44-1.7c0-1.04-0.5-1.63-1.24-1.63c-0.34,0-0.67,0.12-0.87,0.37l-0.01-0.01l0.2-1.43
		h1.74v-0.54h-2.21L411.27,43.38z"/>
	<path class="st5" d="M370.08,218.54h2.71c-1.36,1.55-1.9,2.77-2.02,4.43h0.48c0.11-2.28,1.37-3.79,1.98-4.43v-0.4h-3.15V218.54z
		 M366.51,219.33h1.3v3.64h0.44v-4.9h-0.36c-0.13,0.9-0.61,0.92-1.38,0.95V219.33z M363.88,218.03c-1.43,0-1.71,1.38-1.71,2.53
		c0,1.14,0.28,2.52,1.71,2.52c1.43,0,1.71-1.38,1.71-2.53C365.59,219.4,365.31,218.03,363.88,218.03 M363.88,218.4
		c1.12,0,1.27,1.3,1.27,2.15c0,0.85-0.15,2.16-1.27,2.16c-1.12,0-1.27-1.3-1.27-2.16C362.61,219.7,362.76,218.4,363.88,218.4
		 M361.52,222.56h-2.72c0.12-0.66,0.99-1.09,1.47-1.41c0.64-0.41,1.23-0.93,1.23-1.74c0-0.91-0.66-1.38-1.52-1.38
		c-1.06,0-1.59,0.73-1.57,1.73h0.44c-0.01-0.72,0.3-1.36,1.11-1.36c0.6,0,1.1,0.36,1.1,1c0,0.39-0.14,0.65-0.41,0.92
		c-0.83,0.83-2.32,1.19-2.36,2.65h3.23V222.56z"/>
	<path class="st5" d="M415.44,220.16c-0.52,0.01-1.05-0.25-1.05-0.91c0-0.56,0.51-0.85,1.05-0.85c0.59,0,1.04,0.29,1.04,0.85
		C416.49,219.88,415.98,220.17,415.44,220.16 M416.93,219.25c0-0.84-0.76-1.22-1.49-1.22c-0.72,0-1.48,0.38-1.48,1.22
		c0,0.54,0.29,0.92,0.8,1.08v0.01c-0.6,0.11-0.98,0.62-0.99,1.25c0,0.99,0.77,1.48,1.69,1.48c0.92,0,1.69-0.49,1.69-1.48
		c0-0.66-0.37-1.13-1-1.25v-0.01C416.63,220.18,416.93,219.78,416.93,219.25 M415.44,222.7c-0.69,0-1.25-0.37-1.25-1.11
		c0-0.72,0.57-1.08,1.25-1.07c0.66-0.01,1.25,0.36,1.25,1.07C416.69,222.34,416.13,222.7,415.44,222.7 M410.29,219.33h1.3v3.64h0.44
		v-4.9h-0.36c-0.13,0.9-0.61,0.92-1.38,0.95V219.33z M407.66,218.03c-1.43,0-1.71,1.38-1.71,2.53c0,1.14,0.28,2.52,1.71,2.52
		c1.43,0,1.71-1.38,1.71-2.53C409.37,219.4,409.09,218.03,407.66,218.03 M407.66,218.4c1.12,0,1.27,1.3,1.27,2.15
		c0,0.85-0.15,2.16-1.27,2.16c-1.12,0-1.27-1.3-1.27-2.16C406.39,219.7,406.54,218.4,407.66,218.4 M405.3,222.56h-2.72
		c0.12-0.66,0.99-1.09,1.47-1.41c0.64-0.41,1.23-0.93,1.23-1.74c0-0.91-0.66-1.38-1.52-1.38c-1.06,0-1.59,0.73-1.57,1.73h0.44
		c-0.01-0.72,0.3-1.36,1.11-1.36c0.6,0,1.1,0.36,1.1,1c0,0.39-0.14,0.65-0.41,0.92c-0.83,0.83-2.32,1.19-2.36,2.65h3.23V222.56z"/>
	<path class="st5" d="M372.02,18.55c0.83,0,0.92-0.64,0.92-1.34s-0.08-1.34-0.92-1.34c-0.83,0-0.92,0.64-0.92,1.34
		S371.19,18.55,372.02,18.55 M369.19,16.18c0.83,0,0.92-0.64,0.92-1.34c0-0.7-0.08-1.34-0.92-1.34c-0.83,0-0.92,0.64-0.92,1.34
		C368.27,15.54,368.35,16.18,369.19,16.18 M372.02,18.17c-0.39,0-0.41-0.39-0.41-0.97c0-0.57,0.02-0.97,0.41-0.97
		c0.39,0,0.41,0.39,0.41,0.97C372.44,17.78,372.41,18.17,372.02,18.17 M369.25,18.55h0.49l2.17-5.05h-0.49L369.25,18.55z
		 M369.19,15.8c-0.39,0-0.41-0.39-0.41-0.97s0.02-0.97,0.41-0.97c0.39,0,0.41,0.39,0.41,0.97S369.58,15.8,369.19,15.8 M365.47,16.04
		c0-1.09,0.04-2.09,0.8-2.09c0.76,0,0.8,0.99,0.8,2.09c0,1.04-0.04,2.04-0.8,2.04C365.51,18.09,365.47,17.09,365.47,16.04
		 M366.27,18.55c1.34,0,1.41-1.46,1.41-2.51c0-1.22-0.08-2.55-1.41-2.55c-1.34,0-1.41,1.46-1.41,2.55
		C364.85,17.22,364.93,18.55,366.27,18.55 M362.16,16.94c0-0.52,0.13-1.15,0.78-1.15c0.66,0,0.79,0.63,0.79,1.15
		c0,0.52-0.17,1.15-0.79,1.15C362.33,18.09,362.16,17.46,362.16,16.94 M364.23,14.68c0-0.23-0.1-1.19-1.25-1.19
		c-1.43,0-1.5,1.57-1.5,2.7c0,1.03,0.1,2.35,1.47,2.35c0.93,0,1.4-0.74,1.4-1.69c0-0.93-0.43-1.57-1.29-1.57
		c-0.55,0-0.85,0.37-0.95,0.55h-0.01v-0.39c0-0.26,0.05-1.49,0.88-1.49c0.42,0,0.65,0.32,0.65,0.73H364.23z"/>
	<path class="st5" d="M414.38,5.05c0.83,0,0.92-0.64,0.92-1.34c0-0.7-0.08-1.34-0.92-1.34c-0.83,0-0.92,0.64-0.92,1.34
		C413.47,4.41,413.55,5.05,414.38,5.05 M411.55,2.69c0.83,0,0.92-0.64,0.92-1.34c0-0.7-0.08-1.34-0.92-1.34
		c-0.83,0-0.92,0.64-0.92,1.34C410.63,2.04,410.72,2.69,411.55,2.69 M414.38,4.68c-0.39,0-0.41-0.39-0.41-0.97s0.02-0.97,0.41-0.97
		c0.39,0,0.41,0.39,0.41,0.97S414.78,4.68,414.38,4.68 M411.61,5.05h0.49L414.27,0h-0.49L411.61,5.05z M411.55,2.31
		c-0.39,0-0.41-0.39-0.41-0.97s0.02-0.97,0.41-0.97c0.39,0,0.41,0.39,0.41,0.97S411.94,2.31,411.55,2.31 M410.02,4.41h-2.13
		c0.07-0.33,0.27-0.62,0.54-0.85l0.7-0.61c0.55-0.48,0.87-0.88,0.87-1.63c0-0.43-0.18-1.32-1.33-1.32c-1.02,0-1.41,0.64-1.41,1.57
		h0.61c0-0.28,0.02-1.07,0.78-1.07c0.53,0,0.72,0.46,0.72,0.89c0,0.55-0.26,0.85-0.66,1.19l-0.41,0.34
		c-0.55,0.48-1.07,1.11-1.07,2.03h2.77V4.41z M404.52,3.44c0-0.52,0.13-1.15,0.78-1.15c0.66,0,0.79,0.63,0.79,1.15
		c0,0.52-0.17,1.15-0.79,1.15C404.69,4.59,404.52,3.96,404.52,3.44 M406.59,1.19c0-0.23-0.1-1.19-1.25-1.19
		c-1.43,0-1.51,1.57-1.51,2.7c0,1.03,0.1,2.35,1.47,2.35c0.93,0,1.4-0.73,1.4-1.69c0-0.93-0.43-1.57-1.29-1.57
		c-0.55,0-0.85,0.37-0.95,0.55h-0.01V1.95c0-0.26,0.05-1.49,0.88-1.49c0.42,0,0.65,0.32,0.65,0.73H406.59z"/>
	<path class="st5" d="M159.71,237.74c0.65,1.05,1.09,2.46,1.09,3.69c0,1.5-0.33,2.92-1.09,4.13h0.43c0.74-1.15,1.2-2.49,1.2-3.93
		c0-1.48-0.44-2.63-1.2-3.88H159.71z M159.3,240.84c-0.03-0.95-0.73-1.41-1.61-1.41c-0.77,0-1.65,0.34-1.65,1.23
		c0,0.75,0.53,0.99,1.22,1.17l0.69,0.15c0.48,0.12,0.96,0.29,0.96,0.8c0,0.61-0.7,0.83-1.2,0.83c-0.71,0-1.25-0.37-1.29-1.1h-0.53
		c0.08,1.07,0.78,1.55,1.8,1.55c0.82,0,1.76-0.37,1.76-1.32c0-0.76-0.64-1.12-1.25-1.22l-0.71-0.16c-0.37-0.09-0.91-0.26-0.91-0.74
		c0-0.57,0.56-0.76,1.04-0.76c0.61,0,1.12,0.3,1.15,0.96H159.3z M154.48,238.24h-0.53v1.32h-0.76V240h0.76v3
		c-0.01,0.75,0.24,0.99,0.95,0.99c0.16,0,0.31-0.02,0.48-0.02v-0.46c-0.15,0.02-0.31,0.03-0.46,0.03c-0.38-0.03-0.43-0.23-0.43-0.58
		V240h0.89v-0.45h-0.89V238.24z M149.05,243.94h0.54v-2.56c0.02-0.86,0.53-1.51,1.38-1.51c0.87,0,1.11,0.57,1.11,1.33v2.74h0.54
		v-2.82c0-1.05-0.37-1.69-1.61-1.69c-0.62,0-1.21,0.36-1.4,0.88h-0.02v-0.76h-0.54V243.94z M144.97,241.44
		c0.09-0.8,0.57-1.57,1.45-1.57c0.87,0,1.37,0.76,1.39,1.57H144.97z M148.34,241.89c0.04-1.23-0.52-2.46-1.93-2.46
		c-1.4,0-1.98,1.16-1.98,2.32c0,1.25,0.58,2.32,1.98,2.32c1.1,0,1.68-0.58,1.91-1.57h-0.53c-0.17,0.66-0.6,1.12-1.38,1.12
		c-1.03,0-1.44-0.94-1.45-1.73H148.34z M143.87,240.93c-0.12-1-0.84-1.5-1.78-1.5c-1.34,0-2.07,1.06-2.07,2.32
		c0,1.26,0.73,2.32,2.07,2.32c0.98,0,1.67-0.65,1.81-1.7h-0.53c-0.07,0.73-0.61,1.25-1.28,1.25c-1.03,0-1.54-0.93-1.54-1.87
		c0-0.94,0.51-1.87,1.54-1.87c0.7,0,1.1,0.4,1.24,1.05H143.87z M139.74,245.56c-0.65-1.05-1.09-2.46-1.09-3.69
		c0-1.5,0.33-2.92,1.09-4.13h-0.42c-0.74,1.15-1.2,2.49-1.2,3.93c0,1.48,0.44,2.63,1.2,3.88H139.74z M131.73,241.44
		c0.08-0.8,0.57-1.57,1.44-1.57c0.87,0,1.37,0.76,1.4,1.57H131.73z M135.11,241.89c0.04-1.23-0.52-2.46-1.93-2.46
		c-1.39,0-1.98,1.16-1.98,2.32c0,1.25,0.59,2.32,1.98,2.32c1.11,0,1.68-0.58,1.91-1.57h-0.53c-0.17,0.66-0.6,1.12-1.38,1.12
		c-1.03,0-1.44-0.94-1.44-1.73H135.11z M128.89,243.94h0.53v-2.34c0-0.91,0.66-1.62,1.63-1.57v-0.53c-0.79-0.03-1.38,0.38-1.66,1.09
		h-0.02v-1.03h-0.49V243.94z M124.97,240.89c0.02-0.71,0.51-1.02,1.17-1.02c0.63,0,1.15,0.18,1.15,0.9c0,0.49-0.25,0.54-0.69,0.6
		c-1.16,0.14-2.35,0.18-2.35,1.41c0,0.88,0.66,1.28,1.47,1.28c0.84,0,1.23-0.32,1.6-0.89h0.02c0,0.46,0.08,0.76,0.63,0.76
		c0.14,0,0.23-0.01,0.35-0.03v-0.45c-0.04,0.02-0.11,0.03-0.17,0.03c-0.21,0-0.31-0.12-0.31-0.32v-2.33c0-1.17-0.84-1.41-1.61-1.41
		c-1,0-1.72,0.44-1.78,1.47H124.97z M127.29,242.24c0.01,0.86-0.71,1.38-1.53,1.38c-0.5,0-0.98-0.33-0.98-0.87
		c0-0.86,1.13-0.85,2.04-1.01c0.14-0.02,0.38-0.07,0.45-0.2h0.02V242.24z M119.91,243.94h0.54v-2.56c0.02-0.86,0.53-1.51,1.38-1.51
		c0.87,0,1.11,0.57,1.11,1.33v2.74h0.54v-2.82c0-1.05-0.37-1.69-1.61-1.69c-0.62,0-1.21,0.36-1.4,0.88h-0.02v-2.44h-0.54V243.94z
		 M118.99,240.84c-0.03-0.95-0.73-1.41-1.61-1.41c-0.77,0-1.65,0.34-1.65,1.23c0,0.75,0.53,0.99,1.22,1.17l0.69,0.15
		c0.49,0.12,0.96,0.29,0.96,0.8c0,0.61-0.7,0.83-1.2,0.83c-0.71,0-1.25-0.37-1.29-1.1h-0.53c0.08,1.07,0.78,1.55,1.8,1.55
		c0.82,0,1.76-0.37,1.76-1.32c0-0.76-0.64-1.12-1.25-1.22l-0.71-0.16c-0.36-0.09-0.91-0.26-0.91-0.74c0-0.57,0.56-0.76,1.04-0.76
		c0.61,0,1.12,0.3,1.15,0.96H118.99z M110.79,243.94h0.53v-2.34c0-0.91,0.66-1.62,1.63-1.57v-0.53c-0.79-0.03-1.39,0.38-1.66,1.09
		h-0.02v-1.03h-0.49V243.94z M106.69,241.44c0.08-0.8,0.57-1.57,1.45-1.57c0.87,0,1.37,0.76,1.39,1.57H106.69z M110.06,241.89
		c0.04-1.23-0.52-2.46-1.93-2.46c-1.4,0-1.98,1.16-1.98,2.32c0,1.25,0.58,2.32,1.98,2.32c1.1,0,1.68-0.58,1.91-1.57h-0.53
		c-0.17,0.66-0.6,1.12-1.38,1.12c-1.03,0-1.44-0.94-1.45-1.73H110.06z M101.5,245.56h0.53v-2.46h0.02c0.23,0.63,0.87,0.96,1.52,0.96
		c1.33,0,1.97-1.08,1.97-2.32c0-1.24-0.64-2.32-1.97-2.32c-0.71,0-1.32,0.36-1.56,0.96h-0.02v-0.83h-0.49V245.56z M105.01,241.75
		c0,0.91-0.42,1.87-1.44,1.87c-1.14,0-1.54-0.96-1.54-1.87c0-0.99,0.36-1.87,1.54-1.87C104.59,239.87,105.01,240.84,105.01,241.75
		 M98.11,237.87h-0.53v2.51h-0.02c-0.23-0.63-0.87-0.96-1.52-0.96c-1.33,0-1.97,1.08-1.97,2.32c0,1.24,0.64,2.32,1.97,2.32
		c0.64,0,1.33-0.39,1.56-0.96h0.02v0.83h0.49V237.87z M94.6,241.75c0-0.91,0.42-1.87,1.44-1.87c1.14,0,1.54,0.96,1.54,1.87
		c0,0.91-0.4,1.87-1.54,1.87C95.02,243.62,94.6,242.65,94.6,241.75 M89.68,243.94h0.53v-2.56c0.02-0.86,0.53-1.51,1.38-1.51
		c0.87,0,1.11,0.57,1.11,1.33v2.74h0.53v-2.82c0-1.05-0.37-1.69-1.61-1.69c-0.62,0-1.21,0.36-1.4,0.88h-0.02v-0.76h-0.53V243.94z
		 M85.59,241.44c0.08-0.8,0.57-1.57,1.45-1.57c0.87,0,1.37,0.76,1.39,1.57H85.59z M88.97,241.89c0.04-1.23-0.52-2.46-1.93-2.46
		c-1.4,0-1.98,1.16-1.98,2.32c0,1.25,0.58,2.32,1.98,2.32c1.1,0,1.68-0.58,1.91-1.57h-0.53c-0.17,0.66-0.6,1.12-1.38,1.12
		c-1.03,0-1.44-0.94-1.45-1.73H88.97z M84.26,237.87h-0.54v2.51h-0.02c-0.23-0.63-0.87-0.96-1.52-0.96c-1.33,0-1.97,1.08-1.97,2.32
		c0,1.24,0.64,2.32,1.97,2.32c0.64,0,1.33-0.39,1.57-0.96h0.02v0.83h0.49V237.87z M80.75,241.75c0-0.91,0.42-1.87,1.44-1.87
		c1.14,0,1.54,0.96,1.54,1.87c0,0.91-0.4,1.87-1.54,1.87C81.17,243.62,80.75,242.65,80.75,241.75 M78.84,238.73h0.53v-0.86h-0.53
		V238.73z M78.84,243.94h0.53v-4.38h-0.53V243.94z M76.09,243.94h0.57l1.64-4.38h-0.55l-1.36,3.85h-0.02L75,239.55H74.4
		L76.09,243.94z M73.33,238.73h0.53v-0.86h-0.53V238.73z M73.33,243.94h0.53v-4.38h-0.53V243.94z M67.6,243.94h2.1
		c1.83-0.04,2.79-1.04,2.79-3.03s-0.96-2.99-2.79-3.03h-2.1V243.94z M68.18,238.36h1.23c1.74-0.01,2.5,0.73,2.5,2.54
		c0,1.81-0.76,2.55-2.5,2.54h-1.23V238.36z"/>
	<path class="st5" d="M258.18,237.74c0.65,1.05,1.09,2.46,1.09,3.69c0,1.5-0.33,2.92-1.09,4.13h0.42c0.74-1.15,1.2-2.49,1.2-3.93
		c0-1.48-0.44-2.63-1.2-3.88H258.18z M257.77,240.84c-0.03-0.95-0.73-1.41-1.61-1.41c-0.77,0-1.65,0.34-1.65,1.23
		c0,0.75,0.52,0.99,1.22,1.17l0.69,0.15c0.48,0.12,0.96,0.29,0.96,0.8c0,0.61-0.7,0.83-1.2,0.83c-0.71,0-1.25-0.37-1.29-1.1h-0.53
		c0.08,1.07,0.78,1.55,1.8,1.55c0.82,0,1.76-0.37,1.76-1.32c0-0.76-0.64-1.12-1.25-1.22l-0.71-0.16c-0.37-0.09-0.91-0.26-0.91-0.74
		c0-0.57,0.56-0.76,1.04-0.76c0.61,0,1.12,0.3,1.15,0.96H257.77z M252.94,238.24h-0.53v1.32h-0.76V240h0.76v3
		c-0.01,0.75,0.24,0.99,0.95,0.99c0.16,0,0.31-0.02,0.48-0.02v-0.46c-0.15,0.02-0.31,0.03-0.46,0.03c-0.38-0.03-0.43-0.23-0.43-0.58
		V240h0.89v-0.45h-0.89V238.24z M247.52,243.94h0.54v-2.56c0.02-0.86,0.53-1.51,1.38-1.51c0.87,0,1.11,0.57,1.11,1.33v2.74h0.54
		v-2.82c0-1.05-0.37-1.69-1.61-1.69c-0.62,0-1.21,0.36-1.4,0.88h-0.02v-0.76h-0.54V243.94z M243.43,241.44
		c0.09-0.8,0.57-1.57,1.45-1.57c0.87,0,1.37,0.76,1.4,1.57H243.43z M246.81,241.89c0.04-1.23-0.52-2.46-1.93-2.46
		c-1.39,0-1.98,1.16-1.98,2.32c0,1.25,0.59,2.32,1.98,2.32c1.11,0,1.68-0.58,1.91-1.57h-0.53c-0.17,0.66-0.6,1.12-1.38,1.12
		c-1.03,0-1.44-0.94-1.45-1.73H246.81z M242.34,240.93c-0.12-1-0.84-1.5-1.78-1.5c-1.34,0-2.07,1.06-2.07,2.32
		c0,1.26,0.73,2.32,2.07,2.32c0.98,0,1.67-0.65,1.81-1.7h-0.54c-0.07,0.73-0.61,1.25-1.28,1.25c-1.03,0-1.54-0.93-1.54-1.87
		c0-0.94,0.51-1.87,1.54-1.87c0.7,0,1.1,0.4,1.24,1.05H242.34z M238.2,245.56c-0.65-1.05-1.09-2.46-1.09-3.69
		c0-1.5,0.33-2.92,1.09-4.13h-0.43c-0.74,1.15-1.2,2.49-1.2,3.93c0,1.48,0.44,2.63,1.2,3.88H238.2z M228.74,241.94
		c-0.07,1.48,0.99,2.12,2.42,2.12c2.15,0,2.32-1.32,2.32-1.73c0-0.99-0.71-1.37-1.57-1.6l-1.48-0.37c-0.49-0.12-0.92-0.36-0.92-0.93
		c0-0.9,0.73-1.21,1.52-1.21c0.86,0,1.62,0.47,1.66,1.39h0.58c0.01-1.24-1.04-1.89-2.24-1.89c-1.71,0-2.09,1.11-2.09,1.71
		c0,0.94,0.65,1.28,1.37,1.46l1.35,0.33c0.56,0.14,1.25,0.41,1.25,1.1c0,0.88-0.97,1.23-1.61,1.23c-1.1,0-2.01-0.38-1.98-1.63
		H228.74z M224.26,238.36h1.99c0.8,0,1.35,0.41,1.35,1.24c0,0.83-0.55,1.24-1.35,1.24h-1.99V238.36z M223.69,243.94h0.58v-2.6h2.12
		c1.09,0,1.8-0.64,1.8-1.73s-0.71-1.73-1.8-1.73h-2.69V243.94z M218.65,243.94h4.23v-0.49h-3.65v-2.4h3.38v-0.49h-3.38v-2.19h3.61
		v-0.49h-4.19V243.94z M212.66,243.94h0.58V241h3.61v2.94h0.58v-6.07h-0.58v2.63h-3.61v-2.63h-0.58V243.94z M209.18,237.87h-0.53
		v2.51h-0.02c-0.23-0.63-0.87-0.96-1.52-0.96c-1.33,0-1.97,1.08-1.97,2.32c0,1.24,0.64,2.32,1.97,2.32c0.64,0,1.34-0.39,1.56-0.96
		h0.02v0.83h0.49V237.87z M205.67,241.75c0-0.91,0.42-1.87,1.44-1.87c1.14,0,1.54,0.96,1.54,1.87c0,0.91-0.4,1.87-1.54,1.87
		C206.08,243.62,205.67,242.65,205.67,241.75 M201.22,241.44c0.09-0.8,0.57-1.57,1.45-1.57c0.87,0,1.37,0.76,1.39,1.57H201.22z
		 M204.6,241.89c0.04-1.23-0.52-2.46-1.93-2.46c-1.4,0-1.98,1.16-1.98,2.32c0,1.25,0.58,2.32,1.98,2.32c1.1,0,1.68-0.58,1.91-1.57
		h-0.54c-0.17,0.66-0.6,1.12-1.38,1.12c-1.03,0-1.44-0.94-1.45-1.73H204.6z M199.24,238.24h-0.54v1.32h-0.76V240h0.76v3
		c-0.01,0.75,0.24,0.99,0.95,0.99c0.16,0,0.32-0.02,0.48-0.02v-0.46c-0.15,0.02-0.31,0.03-0.46,0.03c-0.38-0.03-0.43-0.23-0.43-0.58
		V240h0.89v-0.45h-0.89V238.24z M197.38,239.55h-0.53v2.3c0,0.89-0.4,1.76-1.32,1.76c-0.85,0-1.15-0.42-1.17-1.21v-2.86h-0.53v2.85
		c0,1.02,0.43,1.67,1.54,1.67c0.65,0,1.23-0.33,1.51-0.92h0.02v0.79h0.49V239.55z M192.26,243.94h0.53v-6.07h-0.53V243.94z
		 M190.69,238.73h0.53v-0.86h-0.53V238.73z M190.69,243.94h0.53v-4.38h-0.53V243.94z M184.96,243.94h2.1
		c1.83-0.04,2.79-1.04,2.79-3.03s-0.96-2.99-2.79-3.03h-2.1V243.94z M185.54,238.36h1.23c1.74-0.01,2.5,0.73,2.5,2.54
		c0,1.81-0.76,2.55-2.5,2.54h-1.23V238.36z"/>
	<path class="st5" d="M369.35,239.21l-0.62,0.83l0.27,0.2l0.62-0.85l0.62,0.85l0.27-0.2l-0.61-0.83l1-0.33l-0.13-0.32l-0.98,0.35
		v-1.05h-0.33v1.05l-0.98-0.35l-0.12,0.32L369.35,239.21z M366.36,239.21l-0.62,0.83l0.27,0.2l0.62-0.85l0.62,0.85l0.27-0.2
		l-0.61-0.83l1-0.33l-0.13-0.32l-0.98,0.35v-1.05h-0.33v1.05l-0.98-0.35l-0.12,0.32L366.36,239.21z M362.79,239.87
		c1.03,0,1.54,0.93,1.54,1.87c0,0.93-0.51,1.87-1.54,1.87c-1.03,0-1.54-0.93-1.54-1.87C361.25,240.81,361.76,239.87,362.79,239.87
		 M362.79,239.43c-1.34,0-2.07,1.06-2.07,2.32c0,1.26,0.73,2.32,2.07,2.32c1.34,0,2.07-1.06,2.07-2.32
		C364.86,240.49,364.13,239.43,362.79,239.43 M359.37,238.73h0.53v-0.86h-0.53V238.73z M359.37,243.94h0.53v-4.38h-0.53V243.94z
		 M357.7,238.24h-0.54v1.32h-0.77V240h0.77v3c-0.01,0.75,0.24,0.99,0.95,0.99c0.16,0,0.32-0.02,0.48-0.02v-0.46
		c-0.15,0.02-0.31,0.03-0.46,0.03c-0.38-0.03-0.43-0.23-0.43-0.58V240h0.89v-0.45h-0.89V238.24z M352.92,240.89
		c0.02-0.71,0.51-1.02,1.17-1.02c0.63,0,1.15,0.18,1.15,0.9c0,0.49-0.25,0.54-0.69,0.6c-1.16,0.14-2.35,0.18-2.35,1.41
		c0,0.88,0.66,1.28,1.47,1.28c0.84,0,1.22-0.32,1.6-0.89h0.02c0,0.46,0.08,0.76,0.63,0.76c0.14,0,0.23-0.01,0.35-0.03v-0.45
		c-0.04,0.02-0.11,0.03-0.17,0.03c-0.21,0-0.31-0.12-0.31-0.32v-2.33c0-1.17-0.84-1.41-1.62-1.41c-1,0-1.73,0.44-1.78,1.47H352.92z
		 M355.24,242.24c0.01,0.86-0.71,1.38-1.53,1.38c-0.5,0-0.98-0.33-0.98-0.87c0-0.86,1.13-0.85,2.04-1.01
		c0.15-0.02,0.38-0.07,0.45-0.2h0.02V242.24z M349.76,243.94h0.53v-2.34c0-0.91,0.66-1.62,1.63-1.57v-0.53
		c-0.79-0.03-1.39,0.38-1.66,1.09h-0.02v-1.03h-0.49V243.94z M345.73,238.24h-0.53v1.32h-0.77V240h0.77v3
		c-0.01,0.75,0.24,0.99,0.95,0.99c0.16,0,0.32-0.02,0.48-0.02v-0.46c-0.15,0.02-0.31,0.03-0.46,0.03c-0.38-0.03-0.43-0.23-0.43-0.58
		V240h0.89v-0.45h-0.89V238.24z M343.87,239.55h-0.53v2.3c0,0.89-0.4,1.76-1.32,1.76c-0.85,0-1.15-0.42-1.17-1.21v-2.86h-0.53v2.85
		c0,1.02,0.43,1.67,1.54,1.67c0.66,0,1.23-0.33,1.51-0.92h0.02v0.79h0.49V239.55z M337.44,239.87c1.03,0,1.54,0.93,1.54,1.87
		c0,0.93-0.51,1.87-1.54,1.87s-1.54-0.93-1.54-1.87C335.9,240.81,336.41,239.87,337.44,239.87 M337.44,239.43
		c-1.34,0-2.07,1.06-2.07,2.32c0,1.26,0.73,2.32,2.07,2.32c1.34,0,2.07-1.06,2.07-2.32C339.52,240.49,338.79,239.43,337.44,239.43
		 M332.91,243.92l-0.19,0.5c-0.18,0.41-0.29,0.69-0.76,0.69c-0.12,0-0.24-0.02-0.37-0.04v0.45c0.08,0.03,0.2,0.03,0.41,0.04
		c0.67,0,0.85-0.21,1.16-0.95l1.9-5.06h-0.53l-1.35,3.74l-1.45-3.74h-0.57L332.91,243.92z M327.73,240.89
		c0.02-0.71,0.51-1.02,1.17-1.02c0.63,0,1.15,0.18,1.15,0.9c0,0.49-0.25,0.54-0.69,0.6c-1.16,0.14-2.35,0.18-2.35,1.41
		c0,0.88,0.66,1.28,1.47,1.28c0.84,0,1.22-0.32,1.6-0.89h0.02c0,0.46,0.08,0.76,0.63,0.76c0.14,0,0.23-0.01,0.35-0.03v-0.45
		c-0.04,0.02-0.11,0.03-0.17,0.03c-0.21,0-0.31-0.12-0.31-0.32v-2.33c0-1.17-0.84-1.41-1.61-1.41c-1,0-1.73,0.44-1.78,1.47H327.73z
		 M330.05,242.24c0.01,0.86-0.71,1.38-1.53,1.38c-0.5,0-0.98-0.33-0.98-0.87c0-0.86,1.13-0.85,2.04-1.01
		c0.14-0.02,0.38-0.07,0.45-0.2h0.02V242.24z M322.36,245.56h0.53v-2.46h0.02c0.23,0.63,0.87,0.96,1.52,0.96
		c1.33,0,1.97-1.08,1.97-2.32c0-1.24-0.64-2.32-1.97-2.32c-0.71,0-1.32,0.36-1.56,0.96h-0.02v-0.83h-0.49V245.56z M325.87,241.75
		c0,0.91-0.42,1.87-1.44,1.87c-1.14,0-1.54-0.96-1.54-1.87c0-0.99,0.36-1.87,1.54-1.87C325.46,239.87,325.87,240.84,325.87,241.75
		 M318.98,237.87h-0.54v2.51h-0.02c-0.23-0.63-0.87-0.96-1.52-0.96c-1.33,0-1.97,1.08-1.97,2.32c0,1.24,0.64,2.32,1.97,2.32
		c0.64,0,1.34-0.39,1.57-0.96h0.02v0.83h0.49V237.87z M315.47,241.75c0-0.91,0.42-1.87,1.44-1.87c1.14,0,1.54,0.96,1.54,1.87
		c0,0.91-0.4,1.87-1.54,1.87C315.89,243.62,315.47,242.65,315.47,241.75 M310.55,243.94h0.53v-2.56c0.02-0.86,0.53-1.51,1.38-1.51
		c0.87,0,1.11,0.57,1.11,1.33v2.74h0.53v-2.82c0-1.05-0.37-1.69-1.61-1.69c-0.62,0-1.21,0.36-1.4,0.88h-0.02v-0.76h-0.53V243.94z
		 M306.46,241.44c0.08-0.8,0.57-1.57,1.45-1.57c0.87,0,1.37,0.76,1.39,1.57H306.46z M309.83,241.89c0.04-1.23-0.52-2.46-1.93-2.46
		c-1.4,0-1.98,1.16-1.98,2.32c0,1.25,0.58,2.32,1.98,2.32c1.1,0,1.68-0.58,1.91-1.57h-0.54c-0.17,0.66-0.6,1.12-1.38,1.12
		c-1.03,0-1.44-0.94-1.45-1.73H309.83z M305.13,237.87h-0.54v2.51h-0.02c-0.23-0.63-0.87-0.96-1.52-0.96
		c-1.34,0-1.97,1.08-1.97,2.32c0,1.24,0.64,2.32,1.97,2.32c0.64,0,1.33-0.39,1.57-0.96h0.02v0.83h0.49V237.87z M301.61,241.75
		c0-0.91,0.42-1.87,1.44-1.87c1.14,0,1.54,0.96,1.54,1.87c0,0.91-0.4,1.87-1.54,1.87C302.03,243.62,301.61,242.65,301.61,241.75
		 M299.7,238.73h0.53v-0.86h-0.53V238.73z M299.7,243.94h0.53v-4.38h-0.53V243.94z M296.96,243.94h0.57l1.64-4.38h-0.55l-1.36,3.85
		h-0.02l-1.38-3.85h-0.6L296.96,243.94z M294.2,238.73h0.53v-0.86h-0.53V238.73z M294.2,243.94h0.53v-4.38h-0.53V243.94z
		 M288.47,243.94h2.1c1.83-0.04,2.79-1.04,2.79-3.03s-0.96-2.99-2.79-3.03h-2.1V243.94z M289.04,238.36h1.23
		c1.74-0.01,2.5,0.73,2.5,2.54c0,1.81-0.76,2.55-2.5,2.54h-1.23V238.36z"/>
	<path class="st5" d="M68.34,270.86c-0.07,1.48,0.99,2.12,2.42,2.12c2.15,0,2.32-1.32,2.32-1.73c0-0.99-0.71-1.37-1.57-1.6
		l-1.48-0.37c-0.49-0.12-0.92-0.36-0.92-0.93c0-0.9,0.73-1.21,1.52-1.21c0.86,0,1.62,0.47,1.66,1.39h0.58
		c0.01-1.24-1.04-1.89-2.24-1.89c-1.71,0-2.09,1.11-2.09,1.71c0,0.94,0.65,1.28,1.37,1.46l1.35,0.33c0.56,0.14,1.25,0.41,1.25,1.1
		c0,0.88-0.97,1.23-1.61,1.23c-1.11,0-2.01-0.38-1.98-1.63H68.34z M63.86,267.28h1.99c0.8,0,1.35,0.41,1.35,1.24
		c0,0.83-0.55,1.24-1.35,1.24h-1.99V267.28z M63.29,272.85h0.58v-2.6h2.12c1.09,0,1.8-0.64,1.8-1.73c0-1.1-0.71-1.73-1.8-1.73h-2.69
		V272.85z M58.25,272.85h4.23v-0.49h-3.65v-2.4h3.38v-0.49h-3.38v-2.19h3.61v-0.49h-4.19V272.85z M52.26,272.85h0.58v-2.94h3.6v2.94
		h0.58v-6.07h-0.58v2.64h-3.6v-2.64h-0.58V272.85z M45.22,272.85h0.53v-2.56c0.02-0.86,0.53-1.5,1.38-1.5
		c0.87,0,1.11,0.57,1.11,1.33v2.74h0.53v-2.82c0-1.05-0.37-1.69-1.61-1.69c-0.62,0-1.21,0.36-1.4,0.88h-0.02v-0.76h-0.53V272.85z
		 M42.36,268.79c1.03,0,1.54,0.93,1.54,1.87c0,0.94-0.51,1.87-1.54,1.87c-1.03,0-1.54-0.93-1.54-1.87
		C40.82,269.73,41.33,268.79,42.36,268.79 M42.36,268.34c-1.34,0-2.07,1.06-2.07,2.32c0,1.26,0.73,2.32,2.07,2.32
		c1.34,0,2.07-1.06,2.07-2.32C44.43,269.4,43.7,268.34,42.36,268.34 M37.12,266.79h-0.53v2.52h-0.02c-0.23-0.63-0.87-0.96-1.52-0.96
		c-1.33,0-1.97,1.08-1.97,2.32c0,1.24,0.64,2.32,1.97,2.32c0.64,0,1.33-0.39,1.56-0.96h0.02v0.83h0.49V266.79z M33.61,270.66
		c0-0.91,0.42-1.87,1.44-1.87c1.14,0,1.54,0.96,1.54,1.87c0,0.91-0.4,1.87-1.54,1.87C34.03,272.53,33.61,271.57,33.61,270.66
		 M29.17,270.36c0.09-0.8,0.57-1.57,1.45-1.57c0.87,0,1.37,0.76,1.39,1.57H29.17z M32.54,270.8c0.04-1.23-0.52-2.46-1.93-2.46
		c-1.4,0-1.98,1.16-1.98,2.32c0,1.25,0.59,2.32,1.98,2.32c1.1,0,1.68-0.58,1.91-1.57h-0.53c-0.17,0.66-0.59,1.12-1.38,1.12
		c-1.03,0-1.44-0.94-1.45-1.73H32.54z M27.93,269.75c-0.03-0.95-0.73-1.41-1.61-1.41c-0.77,0-1.65,0.34-1.65,1.23
		c0,0.75,0.53,0.99,1.22,1.17l0.69,0.15c0.48,0.12,0.96,0.29,0.96,0.8c0,0.61-0.7,0.83-1.2,0.83c-0.72,0-1.25-0.37-1.29-1.1h-0.53
		c0.08,1.07,0.78,1.55,1.8,1.55c0.82,0,1.76-0.36,1.76-1.32c0-0.76-0.64-1.12-1.25-1.22l-0.71-0.16c-0.37-0.09-0.91-0.26-0.91-0.74
		c0-0.57,0.56-0.76,1.04-0.76c0.61,0,1.12,0.3,1.15,0.96H27.93z M20.84,269.81c0.02-0.71,0.51-1.02,1.17-1.02
		c0.63,0,1.15,0.18,1.15,0.9c0,0.48-0.25,0.54-0.69,0.6c-1.16,0.14-2.35,0.18-2.35,1.41c0,0.88,0.66,1.28,1.47,1.28
		c0.84,0,1.22-0.32,1.6-0.89h0.02c0,0.46,0.08,0.76,0.63,0.76c0.15,0,0.23-0.01,0.35-0.03v-0.45c-0.04,0.02-0.11,0.03-0.17,0.03
		c-0.21,0-0.31-0.12-0.31-0.32v-2.33c0-1.17-0.84-1.41-1.61-1.41c-1,0-1.73,0.44-1.78,1.47H20.84z M23.16,271.15
		c0.01,0.86-0.72,1.38-1.53,1.38c-0.5,0-0.98-0.33-0.98-0.87c0-0.86,1.13-0.85,2.04-1.01c0.15-0.03,0.38-0.07,0.45-0.2h0.02V271.15z
		 M15.36,267.28h1.99c0.9,0,1.37,0.38,1.37,1.14c0,0.57-0.44,1.03-1.37,1.03h-1.99V267.28z M14.79,272.85h2.57
		c1.97,0,2.17-1.15,2.17-1.72c0-0.79-0.5-1.38-1.28-1.48v-0.02c0.63-0.14,1.05-0.72,1.05-1.36c0-1.13-0.93-1.49-1.95-1.49h-2.57
		V272.85z M15.36,269.94h1.99c1.01,0,1.6,0.4,1.6,1.17c0,0.97-0.74,1.26-1.6,1.25h-1.99V269.94z M4.2,268.13l-0.62,0.83l0.27,0.2
		l0.62-0.85l0.62,0.85l0.27-0.2l-0.61-0.83l1-0.33l-0.13-0.31l-0.98,0.35v-1.05H4.32v1.05l-0.98-0.35l-0.12,0.31L4.2,268.13z
		 M1.21,268.13l-0.62,0.83l0.27,0.2l0.62-0.85l0.62,0.85l0.27-0.2l-0.61-0.83l1-0.33l-0.13-0.31l-0.98,0.35v-1.05H1.33v1.05
		l-0.98-0.35l-0.12,0.31L1.21,268.13z"/>
	<path class="st5" d="M259.97,259.36c0.08-0.8,0.57-1.57,1.44-1.57c0.87,0,1.37,0.76,1.4,1.57H259.97z M263.35,259.8
		c0.04-1.23-0.52-2.46-1.93-2.46c-1.39,0-1.98,1.16-1.98,2.32c0,1.25,0.59,2.32,1.98,2.32c1.11,0,1.68-0.58,1.91-1.57h-0.53
		c-0.17,0.66-0.6,1.12-1.38,1.12c-1.03,0-1.44-0.94-1.44-1.73H263.35z M258.88,258.84c-0.12-1-0.84-1.5-1.78-1.5
		c-1.34,0-2.07,1.06-2.07,2.32c0,1.26,0.73,2.32,2.07,2.32c0.98,0,1.67-0.64,1.81-1.7h-0.54c-0.07,0.73-0.61,1.25-1.27,1.25
		c-1.03,0-1.54-0.93-1.54-1.87c0-0.93,0.51-1.87,1.54-1.87c0.7,0,1.1,0.4,1.24,1.05H258.88z M253.68,256.64h0.53v-0.86h-0.53V256.64
		z M253.68,261.85h0.53v-4.38h-0.53V261.85z M251,261.85h0.53v-2.34c0-0.91,0.66-1.62,1.63-1.57v-0.54
		c-0.79-0.03-1.38,0.38-1.66,1.09h-0.02v-1.03H251V261.85z M246.12,263.48h0.53v-2.46h0.02c0.23,0.63,0.87,0.96,1.52,0.96
		c1.34,0,1.97-1.08,1.97-2.32c0-1.24-0.64-2.32-1.97-2.32c-0.7,0-1.32,0.37-1.56,0.96h-0.02v-0.83h-0.49V263.48z M249.63,259.66
		c0,0.91-0.42,1.87-1.44,1.87c-1.14,0-1.54-0.96-1.54-1.87c0-0.99,0.36-1.87,1.54-1.87C249.21,257.79,249.63,258.75,249.63,259.66
		 M239.66,259.36c0.09-0.8,0.57-1.57,1.45-1.57c0.87,0,1.37,0.76,1.39,1.57H239.66z M243.03,259.8c0.04-1.23-0.52-2.46-1.93-2.46
		c-1.39,0-1.98,1.16-1.98,2.32c0,1.25,0.59,2.32,1.98,2.32c1.11,0,1.68-0.58,1.91-1.57h-0.53c-0.17,0.66-0.6,1.12-1.38,1.12
		c-1.03,0-1.44-0.94-1.45-1.73H243.03z M236.82,261.85h0.53v-2.34c0-0.91,0.66-1.62,1.63-1.57v-0.54c-0.79-0.03-1.38,0.38-1.66,1.09
		h-0.02v-1.03h-0.49V261.85z M232.89,258.81c0.02-0.71,0.51-1.02,1.17-1.02c0.63,0,1.15,0.18,1.15,0.9c0,0.48-0.25,0.54-0.69,0.6
		c-1.16,0.14-2.35,0.18-2.35,1.41c0,0.88,0.66,1.28,1.47,1.28c0.84,0,1.22-0.32,1.6-0.89h0.02c0,0.46,0.08,0.76,0.63,0.76
		c0.14,0,0.23-0.01,0.35-0.03v-0.45c-0.04,0.02-0.11,0.03-0.17,0.03c-0.21,0-0.32-0.12-0.32-0.32v-2.33c0-1.17-0.84-1.41-1.61-1.41
		c-1,0-1.73,0.44-1.78,1.47H232.89z M235.21,260.15c0.01,0.86-0.71,1.38-1.53,1.38c-0.5,0-0.98-0.33-0.98-0.87
		c0-0.86,1.13-0.85,2.04-1.01c0.14-0.03,0.38-0.07,0.45-0.2h0.02V260.15z M227.84,261.85h0.53v-2.56c0.02-0.86,0.53-1.5,1.38-1.5
		c0.87,0,1.11,0.57,1.11,1.33v2.74h0.53v-2.82c0-1.05-0.37-1.69-1.61-1.69c-0.62,0-1.21,0.36-1.4,0.88h-0.02v-2.44h-0.53V261.85z
		 M226.92,258.75c-0.03-0.95-0.73-1.41-1.61-1.41c-0.77,0-1.65,0.34-1.65,1.23c0,0.75,0.53,0.99,1.22,1.17l0.69,0.15
		c0.49,0.12,0.96,0.29,0.96,0.8c0,0.61-0.7,0.83-1.2,0.83c-0.71,0-1.25-0.37-1.29-1.1h-0.54c0.09,1.07,0.78,1.55,1.8,1.55
		c0.82,0,1.76-0.36,1.76-1.32c0-0.76-0.64-1.12-1.25-1.22l-0.71-0.16c-0.37-0.09-0.91-0.26-0.91-0.74c0-0.57,0.56-0.76,1.04-0.76
		c0.61,0,1.12,0.3,1.15,0.96H226.92z M220.37,257.47h-0.54v0.76h-0.02c-0.21-0.48-0.76-0.88-1.39-0.88c-1.27,0-1.98,1-1.98,2.21
		c0,1.25,0.58,2.25,1.98,2.25c0.63,0,1.15-0.36,1.39-0.9h0.02v0.6c0,1.07-0.43,1.66-1.41,1.66c-0.6,0-1.17-0.23-1.28-0.88h-0.54
		c0.08,0.94,0.94,1.33,1.82,1.33c1.44,0,1.94-0.8,1.95-2.11V257.47z M218.43,261.35c-0.99,0-1.45-0.86-1.45-1.74
		c0-0.91,0.43-1.82,1.45-1.82c1.01,0,1.41,0.96,1.41,1.82C219.84,260.5,219.35,261.35,218.43,261.35 M212.09,261.85h0.53v-2.56
		c0.02-0.86,0.53-1.5,1.38-1.5c0.87,0,1.11,0.57,1.11,1.33v2.74h0.53v-2.82c0-1.05-0.37-1.69-1.61-1.69c-0.62,0-1.21,0.36-1.4,0.88
		h-0.02v-0.76h-0.53V261.85z M210.54,256.64h0.53v-0.86h-0.53V256.64z M210.54,261.85h0.53v-4.38h-0.53V261.85z M209.6,258.75
		c-0.03-0.95-0.73-1.41-1.61-1.41c-0.77,0-1.65,0.34-1.65,1.23c0,0.75,0.53,0.99,1.22,1.17l0.69,0.15c0.49,0.12,0.96,0.29,0.96,0.8
		c0,0.61-0.7,0.83-1.2,0.83c-0.71,0-1.25-0.37-1.29-1.1h-0.53c0.09,1.07,0.78,1.55,1.8,1.55c0.82,0,1.76-0.36,1.76-1.32
		c0-0.76-0.64-1.12-1.25-1.22l-0.71-0.16c-0.37-0.09-0.91-0.26-0.91-0.74c0-0.57,0.56-0.76,1.04-0.76c0.61,0,1.12,0.3,1.15,0.96
		H209.6z M203.57,257.79c1.03,0,1.54,0.93,1.54,1.87c0,0.94-0.51,1.87-1.54,1.87s-1.54-0.93-1.54-1.87
		C202.03,258.73,202.54,257.79,203.57,257.79 M203.57,257.34c-1.34,0-2.07,1.06-2.07,2.32c0,1.26,0.73,2.32,2.07,2.32
		s2.07-1.06,2.07-2.32C205.64,258.4,204.91,257.34,203.57,257.34 M200.15,261.85h0.53v-6.07h-0.53V261.85z M199.36,258.84
		c-0.12-1-0.84-1.5-1.78-1.5c-1.34,0-2.07,1.06-2.07,2.32c0,1.26,0.73,2.32,2.07,2.32c0.98,0,1.67-0.64,1.81-1.7h-0.54
		c-0.07,0.73-0.61,1.25-1.27,1.25c-1.03,0-1.54-0.93-1.54-1.87c0-0.93,0.51-1.87,1.54-1.87c0.7,0,1.1,0.4,1.24,1.05H199.36z
		 M189.27,259.36c0.08-0.8,0.57-1.57,1.44-1.57c0.87,0,1.37,0.76,1.4,1.57H189.27z M192.64,259.8c0.04-1.23-0.52-2.46-1.93-2.46
		c-1.39,0-1.98,1.16-1.98,2.32c0,1.25,0.59,2.32,1.98,2.32c1.11,0,1.68-0.58,1.91-1.57h-0.53c-0.17,0.66-0.6,1.12-1.38,1.12
		c-1.03,0-1.44-0.94-1.44-1.73H192.64z M184.38,261.85h0.54v-2.56c0.02-0.86,0.53-1.5,1.38-1.5c0.87,0,1.11,0.57,1.11,1.33v2.74
		h0.54v-2.82c0-1.05-0.37-1.69-1.61-1.69c-0.62,0-1.21,0.36-1.4,0.88h-0.02v-2.44h-0.54V261.85z M182.73,256.15h-0.54v1.32h-0.76
		v0.45h0.76v3c-0.01,0.75,0.24,0.99,0.95,0.99c0.16,0,0.31-0.02,0.48-0.02v-0.46c-0.15,0.02-0.31,0.02-0.46,0.02
		c-0.38-0.02-0.43-0.23-0.43-0.58v-2.96h0.89v-0.45h-0.89V256.15z M178.49,255.79h-0.54v2.52h-0.02c-0.23-0.63-0.87-0.96-1.52-0.96
		c-1.33,0-1.97,1.08-1.97,2.32c0,1.24,0.64,2.32,1.97,2.32c0.64,0,1.34-0.39,1.57-0.96H178v0.83h0.49V255.79z M174.98,259.66
		c0-0.91,0.42-1.87,1.44-1.87c1.14,0,1.54,0.96,1.54,1.87c0,0.91-0.4,1.87-1.54,1.87C175.4,261.53,174.98,260.57,174.98,259.66
		 M170.06,261.85h0.53v-2.56c0.02-0.86,0.53-1.5,1.38-1.5c0.87,0,1.11,0.57,1.11,1.33v2.74h0.53v-2.82c0-1.05-0.37-1.69-1.6-1.69
		c-0.62,0-1.21,0.36-1.4,0.88h-0.02v-0.76h-0.53V261.85z M166.14,258.81c0.02-0.71,0.51-1.02,1.17-1.02c0.63,0,1.15,0.18,1.15,0.9
		c0,0.48-0.25,0.54-0.69,0.6c-1.16,0.14-2.35,0.18-2.35,1.41c0,0.88,0.66,1.28,1.47,1.28c0.84,0,1.22-0.32,1.6-0.89h0.02
		c0,0.46,0.08,0.76,0.63,0.76c0.15,0,0.23-0.01,0.35-0.03v-0.45c-0.04,0.02-0.11,0.03-0.17,0.03c-0.21,0-0.32-0.12-0.32-0.32v-2.33
		c0-1.17-0.84-1.41-1.61-1.41c-1,0-1.72,0.44-1.78,1.47H166.14z M168.46,260.15c0.01,0.86-0.71,1.38-1.53,1.38
		c-0.5,0-0.98-0.33-0.98-0.87c0-0.86,1.13-0.85,2.04-1.01c0.15-0.03,0.38-0.07,0.45-0.2h0.02V260.15z M162.27,255.79h-0.53v2.52
		h-0.02c-0.23-0.63-0.87-0.96-1.52-0.96c-1.34,0-1.97,1.08-1.97,2.32c0,1.24,0.64,2.32,1.97,2.32c0.64,0,1.33-0.39,1.56-0.96h0.02
		v0.83h0.49V255.79z M158.76,259.66c0-0.91,0.42-1.87,1.44-1.87c1.14,0,1.54,0.96,1.54,1.87c0,0.91-0.4,1.87-1.54,1.87
		C159.18,261.53,158.76,260.57,158.76,259.66 M156.85,256.64h0.53v-0.86h-0.53V256.64z M156.85,261.85h0.53v-4.38h-0.53V261.85z
		 M152.92,258.81c0.02-0.71,0.51-1.02,1.17-1.02c0.63,0,1.15,0.18,1.15,0.9c0,0.48-0.25,0.54-0.69,0.6
		c-1.16,0.14-2.35,0.18-2.35,1.41c0,0.88,0.66,1.28,1.47,1.28c0.84,0,1.23-0.32,1.6-0.89h0.02c0,0.46,0.08,0.76,0.63,0.76
		c0.14,0,0.23-0.01,0.35-0.03v-0.45c-0.04,0.02-0.11,0.03-0.17,0.03c-0.21,0-0.31-0.12-0.31-0.32v-2.33c0-1.17-0.84-1.41-1.62-1.41
		c-1,0-1.72,0.44-1.78,1.47H152.92z M155.24,260.15c0.01,0.86-0.71,1.38-1.53,1.38c-0.5,0-0.98-0.33-0.98-0.87
		c0-0.86,1.13-0.85,2.04-1.01c0.14-0.03,0.38-0.07,0.45-0.2h0.02V260.15z M147.55,263.48h0.54v-2.46h0.02
		c0.23,0.63,0.87,0.96,1.52,0.96c1.34,0,1.97-1.08,1.97-2.32c0-1.24-0.64-2.32-1.97-2.32c-0.71,0-1.32,0.37-1.57,0.96h-0.02v-0.83
		h-0.49V263.48z M151.06,259.66c0,0.91-0.42,1.87-1.44,1.87c-1.14,0-1.54-0.96-1.54-1.87c0-0.99,0.36-1.87,1.54-1.87
		C150.65,257.79,151.06,258.75,151.06,259.66 M144.26,258.75c-0.03-0.95-0.73-1.41-1.61-1.41c-0.77,0-1.65,0.34-1.65,1.23
		c0,0.75,0.53,0.99,1.22,1.17l0.69,0.15c0.48,0.12,0.96,0.29,0.96,0.8c0,0.61-0.7,0.83-1.2,0.83c-0.71,0-1.25-0.37-1.29-1.1h-0.54
		c0.09,1.07,0.78,1.55,1.8,1.55c0.82,0,1.76-0.36,1.76-1.32c0-0.76-0.64-1.12-1.25-1.22l-0.71-0.16c-0.37-0.09-0.91-0.26-0.91-0.74
		c0-0.57,0.56-0.76,1.04-0.76c0.61,0,1.12,0.3,1.15,0.96H144.26z M140.08,255.79h-0.53v2.52h-0.02c-0.23-0.63-0.87-0.96-1.52-0.96
		c-1.34,0-1.97,1.08-1.97,2.32c0,1.24,0.64,2.32,1.97,2.32c0.64,0,1.33-0.39,1.57-0.96h0.02v0.83h0.49V255.79z M136.57,259.66
		c0-0.91,0.42-1.87,1.44-1.87c1.14,0,1.54,0.96,1.54,1.87c0,0.91-0.4,1.87-1.54,1.87C136.99,261.53,136.57,260.57,136.57,259.66
		 M131.65,261.85h0.54v-2.56c0.02-0.86,0.53-1.5,1.38-1.5c0.87,0,1.11,0.57,1.11,1.33v2.74h0.54v-2.82c0-1.05-0.37-1.69-1.61-1.69
		c-0.62,0-1.21,0.36-1.4,0.88h-0.02v-0.76h-0.54V261.85z M127.56,259.36c0.09-0.8,0.57-1.57,1.45-1.57c0.87,0,1.37,0.76,1.39,1.57
		H127.56z M130.94,259.8c0.04-1.23-0.52-2.46-1.93-2.46c-1.39,0-1.98,1.16-1.98,2.32c0,1.25,0.59,2.32,1.98,2.32
		c1.11,0,1.68-0.58,1.91-1.57h-0.53c-0.17,0.66-0.6,1.12-1.38,1.12c-1.03,0-1.44-0.94-1.45-1.73H130.94z M126.23,255.79h-0.53v2.52
		h-0.02c-0.23-0.63-0.87-0.96-1.52-0.96c-1.33,0-1.97,1.08-1.97,2.32c0,1.24,0.64,2.32,1.97,2.32c0.64,0,1.33-0.39,1.56-0.96h0.02
		v0.83h0.49V255.79z M122.72,259.66c0-0.91,0.42-1.87,1.44-1.87c1.14,0,1.54,0.96,1.54,1.87c0,0.91-0.4,1.87-1.54,1.87
		C123.13,261.53,122.72,260.57,122.72,259.66 M120.8,256.64h0.53v-0.86h-0.53V256.64z M120.8,261.85h0.53v-4.38h-0.53V261.85z
		 M118.06,261.85h0.57l1.64-4.38h-0.55l-1.36,3.85h-0.02l-1.38-3.85h-0.59L118.06,261.85z M115.3,256.64h0.53v-0.86h-0.53V256.64z
		 M115.3,261.85h0.53v-4.38h-0.53V261.85z M114.27,255.79h-0.53v2.52h-0.02c-0.23-0.63-0.87-0.96-1.52-0.96
		c-1.33,0-1.97,1.08-1.97,2.32c0,1.24,0.64,2.32,1.97,2.32c0.64,0,1.33-0.39,1.57-0.96h0.02v0.83h0.49V255.79z M110.76,259.66
		c0-0.91,0.42-1.87,1.44-1.87c1.14,0,1.54,0.96,1.54,1.87c0,0.91-0.4,1.87-1.54,1.87C111.17,261.53,110.76,260.57,110.76,259.66
		 M107.54,257.47h-0.87v-0.38c0.01-0.48-0.01-0.85,0.59-0.85c0.13,0,0.25,0.02,0.39,0.04v-0.46c-0.17-0.03-0.3-0.03-0.45-0.03
		c-0.86,0-1.07,0.53-1.06,1.28v0.4h-0.75v0.45h0.75v3.94h0.53v-3.94h0.87V257.47z M102.97,257.79c1.03,0,1.54,0.93,1.54,1.87
		c0,0.94-0.51,1.87-1.54,1.87s-1.54-0.93-1.54-1.87C101.43,258.73,101.94,257.79,102.97,257.79 M102.97,257.34
		c-1.34,0-2.07,1.06-2.07,2.32c0,1.26,0.73,2.32,2.07,2.32s2.07-1.06,2.07-2.32C105.04,258.4,104.31,257.34,102.97,257.34
		 M97.09,256.15h-0.54v1.32h-0.76v0.45h0.76v3c-0.01,0.75,0.24,0.99,0.95,0.99c0.16,0,0.32-0.02,0.48-0.02v-0.46
		c-0.15,0.02-0.31,0.02-0.46,0.02c-0.38-0.02-0.43-0.23-0.43-0.58v-2.96h0.89v-0.45h-0.89V256.15z M91.67,261.85h0.53v-2.56
		c0.02-0.86,0.53-1.5,1.38-1.5c0.87,0,1.11,0.57,1.11,1.33v2.74h0.53v-2.82c0-1.05-0.37-1.69-1.61-1.69c-0.62,0-1.21,0.36-1.4,0.88
		H92.2v-0.76h-0.53V261.85z M87.58,259.36c0.08-0.8,0.57-1.57,1.45-1.57c0.87,0,1.37,0.76,1.39,1.57H87.58z M90.95,259.8
		c0.04-1.23-0.52-2.46-1.93-2.46c-1.4,0-1.98,1.16-1.98,2.32c0,1.25,0.58,2.32,1.98,2.32c1.1,0,1.68-0.58,1.91-1.57H90.4
		c-0.17,0.66-0.6,1.12-1.38,1.12c-1.03,0-1.44-0.94-1.45-1.73H90.95z M80.18,261.85h0.54v-2.45c0.01-0.92,0.38-1.61,1.31-1.61
		c0.68,0,0.93,0.49,0.92,1.09v2.97h0.53v-2.48c0-0.82,0.26-1.58,1.19-1.58c0.76,0,1.04,0.39,1.04,1.11v2.95h0.54v-2.97
		c0-1.04-0.49-1.54-1.45-1.54c-0.58,0-1.13,0.28-1.39,0.86c-0.16-0.58-0.68-0.86-1.26-0.86c-0.7,0-1.16,0.34-1.44,0.87h-0.03v-0.74
		h-0.49V261.85z M78.52,256.15h-0.53v1.32h-0.76v0.45h0.76v3c-0.01,0.75,0.24,0.99,0.95,0.99c0.16,0,0.31-0.02,0.48-0.02v-0.46
		c-0.15,0.02-0.31,0.02-0.46,0.02c-0.38-0.02-0.43-0.23-0.43-0.58v-2.96h0.89v-0.45h-0.89V256.15z M76.74,258.75
		c-0.03-0.95-0.73-1.41-1.61-1.41c-0.77,0-1.65,0.34-1.65,1.23c0,0.75,0.53,0.99,1.22,1.17l0.69,0.15c0.48,0.12,0.96,0.29,0.96,0.8
		c0,0.61-0.7,0.83-1.2,0.83c-0.72,0-1.25-0.37-1.29-1.1h-0.53c0.08,1.07,0.78,1.55,1.8,1.55c0.82,0,1.76-0.36,1.76-1.32
		c0-0.76-0.64-1.12-1.25-1.22l-0.71-0.16c-0.37-0.09-0.91-0.26-0.91-0.74c0-0.57,0.56-0.76,1.04-0.76c0.61,0,1.12,0.3,1.15,0.96
		H76.74z M69.48,259.36c0.08-0.8,0.57-1.57,1.45-1.57c0.87,0,1.37,0.76,1.39,1.57H69.48z M72.86,259.8
		c0.04-1.23-0.52-2.46-1.93-2.46c-1.4,0-1.98,1.16-1.98,2.32c0,1.25,0.58,2.32,1.98,2.32c1.1,0,1.68-0.58,1.91-1.57H72.3
		c-0.17,0.66-0.6,1.12-1.38,1.12c-1.03,0-1.44-0.94-1.45-1.73H72.86z M66.43,261.85H67l1.64-4.38h-0.55l-1.36,3.85h-0.02l-1.38-3.85
		h-0.6L66.43,261.85z M60.66,261.85h0.53v-2.56c0.02-0.86,0.53-1.5,1.38-1.5c0.87,0,1.11,0.57,1.11,1.33v2.74h0.53v-2.82
		c0-1.05-0.37-1.69-1.61-1.69c-0.62,0-1.21,0.36-1.4,0.88h-0.02v-0.76h-0.53V261.85z M59.1,256.64h0.53v-0.86H59.1V256.64z
		 M59.1,261.85h0.53v-4.38H59.1V261.85z M55,259.36c0.08-0.8,0.57-1.57,1.45-1.57c0.87,0,1.37,0.76,1.39,1.57H55z M58.37,259.8
		c0.04-1.23-0.52-2.46-1.93-2.46c-1.4,0-1.98,1.16-1.98,2.32c0,1.25,0.58,2.32,1.98,2.32c1.1,0,1.68-0.58,1.91-1.57h-0.53
		c-0.17,0.66-0.59,1.12-1.38,1.12c-1.03,0-1.44-0.94-1.45-1.73H58.37z M52.16,261.85h0.53v-2.34c0-0.91,0.66-1.62,1.63-1.57v-0.54
		c-0.79-0.03-1.39,0.38-1.66,1.09h-0.02v-1.03h-0.49V261.85z M45.22,261.85h0.53v-2.56c0.02-0.86,0.53-1.5,1.38-1.5
		c0.87,0,1.11,0.57,1.11,1.33v2.74h0.53v-2.82c0-1.05-0.37-1.69-1.61-1.69c-0.62,0-1.21,0.36-1.4,0.88h-0.02v-0.76h-0.53V261.85z
		 M42.36,257.79c1.03,0,1.54,0.93,1.54,1.87c0,0.94-0.51,1.87-1.54,1.87c-1.03,0-1.54-0.93-1.54-1.87
		C40.82,258.73,41.33,257.79,42.36,257.79 M42.36,257.34c-1.34,0-2.07,1.06-2.07,2.32c0,1.26,0.73,2.32,2.07,2.32
		c1.34,0,2.07-1.06,2.07-2.32C44.43,258.4,43.7,257.34,42.36,257.34 M37.12,255.79h-0.53v2.52h-0.02c-0.23-0.63-0.87-0.96-1.52-0.96
		c-1.33,0-1.97,1.08-1.97,2.32c0,1.24,0.64,2.32,1.97,2.32c0.64,0,1.33-0.39,1.56-0.96h0.02v0.83h0.49V255.79z M33.61,259.66
		c0-0.91,0.42-1.87,1.44-1.87c1.14,0,1.54,0.96,1.54,1.87c0,0.91-0.4,1.87-1.54,1.87C34.03,261.53,33.61,260.57,33.61,259.66
		 M29.17,259.36c0.09-0.8,0.57-1.57,1.45-1.57c0.87,0,1.37,0.76,1.39,1.57H29.17z M32.54,259.8c0.04-1.23-0.52-2.46-1.93-2.46
		c-1.4,0-1.98,1.16-1.98,2.32c0,1.25,0.59,2.32,1.98,2.32c1.1,0,1.68-0.58,1.91-1.57h-0.53c-0.17,0.66-0.59,1.12-1.38,1.12
		c-1.03,0-1.44-0.94-1.45-1.73H32.54z M27.93,258.75c-0.03-0.95-0.73-1.41-1.61-1.41c-0.77,0-1.65,0.34-1.65,1.23
		c0,0.75,0.53,0.99,1.22,1.17l0.69,0.15c0.48,0.12,0.96,0.29,0.96,0.8c0,0.61-0.7,0.83-1.2,0.83c-0.72,0-1.25-0.37-1.29-1.1h-0.53
		c0.08,1.07,0.78,1.55,1.8,1.55c0.82,0,1.76-0.36,1.76-1.32c0-0.76-0.64-1.12-1.25-1.22l-0.71-0.16c-0.37-0.09-0.91-0.26-0.91-0.74
		c0-0.57,0.56-0.76,1.04-0.76c0.61,0,1.12,0.3,1.15,0.96H27.93z M20.84,258.81c0.02-0.71,0.51-1.02,1.17-1.02
		c0.63,0,1.15,0.18,1.15,0.9c0,0.48-0.25,0.54-0.69,0.6c-1.16,0.14-2.35,0.18-2.35,1.41c0,0.88,0.66,1.28,1.47,1.28
		c0.84,0,1.22-0.32,1.6-0.89h0.02c0,0.46,0.08,0.76,0.63,0.76c0.15,0,0.23-0.01,0.35-0.03v-0.45c-0.04,0.02-0.11,0.03-0.17,0.03
		c-0.21,0-0.31-0.12-0.31-0.32v-2.33c0-1.17-0.84-1.41-1.61-1.41c-1,0-1.73,0.44-1.78,1.47H20.84z M23.16,260.15
		c0.01,0.86-0.72,1.38-1.53,1.38c-0.5,0-0.98-0.33-0.98-0.87c0-0.86,1.13-0.85,2.04-1.01c0.15-0.03,0.38-0.07,0.45-0.2h0.02V260.15z
		 M15.36,256.28h1.99c0.9,0,1.37,0.38,1.37,1.14c0,0.57-0.44,1.03-1.37,1.03h-1.99V256.28z M14.79,261.85h2.57
		c1.97,0,2.17-1.15,2.17-1.72c0-0.79-0.5-1.38-1.28-1.48v-0.02c0.63-0.14,1.05-0.72,1.05-1.36c0-1.13-0.93-1.49-1.95-1.49h-2.57
		V261.85z M15.36,258.94h1.99c1.01,0,1.6,0.4,1.6,1.17c0,0.97-0.74,1.26-1.6,1.25h-1.99V258.94z M1.21,257.13l-0.62,0.83l0.27,0.2
		l0.62-0.85l0.62,0.85l0.27-0.2l-0.61-0.83l1-0.33l-0.13-0.31l-0.98,0.35v-1.05H1.33v1.05l-0.98-0.35l-0.12,0.31L1.21,257.13z"/>
</g>
</svg>
