<?xml version="1.0" encoding="utf-8"?>
<!-- Generator: Adobe Illustrator 23.0.0, SVG Export Plug-In . SVG Version: 6.00 Build 0)  -->
<svg version="1.1" id="Layer_1" xmlns="http://www.w3.org/2000/svg" xmlns:xlink="http://www.w3.org/1999/xlink" x="0px" y="0px"
	 viewBox="0 0 229.67 150.5" style="enable-background:new 0 0 229.67 150.5;" xml:space="preserve">
<style type="text/css">
	.st0{clip-path:url(#SVGID_2_);}
	.st1{fill:#3AA7CC;}
	.st2{fill:#231F20;}
	.st3{fill:#64BDE1;}
	.st4{clip-path:url(#SVGID_4_);}
	.st5{fill:#003767;}
	.st6{fill:#FFFFFF;}
	.st7{fill:#7DC242;}
	.st8{clip-path:url(#SVGID_6_);fill:none;stroke:#003767;stroke-width:0.35;}
</style>
<g>
	<defs>
		<rect id="SVGID_1_" width="229.67" height="150.5"/>
	</defs>
	<clipPath id="SVGID_2_">
		<use xlink:href="#SVGID_1_"  style="overflow:visible;"/>
	</clipPath>
	<g class="st0">
		<path class="st1" d="M68.67,5.15c-0.46,1.35-1.83,2.39-3.51,2.39c-2.23,0-3.87-1.75-3.87-3.85c0-2.03,1.57-3.83,3.86-3.83
			c1.99,0.01,3.17,1.41,3.53,2.43h-1.25c-0.24-0.48-0.99-1.38-2.29-1.39c-1.57,0-2.67,1.29-2.67,2.79c0,1.54,1.12,2.81,2.68,2.81
			c1.43,0,2.12-1.08,2.28-1.35H68.67z"/>
		<path class="st1" d="M75.73,7.4h-1.04V6.45c-0.38,0.73-1.16,1.11-2.02,1.11c-1.75,0-2.79-1.36-2.79-2.88
			c0-1.66,1.21-2.88,2.79-2.88c1.08,0,1.77,0.6,2.02,1.12V1.96h1.04V7.4z M70.92,4.7c0.01,0.81,0.58,1.89,1.9,1.89
			c0.83,0,1.42-0.46,1.69-1.08c0.12-0.25,0.18-0.53,0.19-0.81c0.01-0.28-0.04-0.56-0.16-0.81c-0.26-0.63-0.87-1.12-1.74-1.12
			c-1.14,0-1.88,0.9-1.88,1.92V4.7z"/>
		<path class="st1" d="M77.61,1.96h0.99v0.95C79,2.26,79.7,1.8,80.67,1.8c1.87,0,2.75,1.56,2.75,2.91c0,1.54-1.11,2.85-2.74,2.85
			c-1.13,0-1.8-0.62-2.04-1.06v0.9v1.98h-1.04V1.96z M82.37,4.67c0-0.89-0.63-1.9-1.9-1.9c-0.54,0-1.01,0.21-1.35,0.56
			c-0.33,0.34-0.53,0.82-0.53,1.36c0,0.54,0.2,1.01,0.54,1.35s0.82,0.55,1.35,0.55C81.58,6.59,82.37,5.74,82.37,4.67L82.37,4.67z"/>
		<path class="st1" d="M84.98,0h1.04v1.1h-1.04V0z M84.98,1.96h1.04V7.4h-1.04V1.96z"/>
		<path class="st1" d="M88.27,2.77h-0.98V1.96h0.98V0h1.04v1.96h1.05v0.81h-1.05V7.4h-1.04V2.77z"/>
		<path class="st1" d="M96.9,7.4h-1.04V6.45c-0.38,0.73-1.16,1.11-2.02,1.11c-1.75,0-2.79-1.36-2.79-2.88
			c0-1.66,1.21-2.88,2.79-2.88c1.08,0,1.77,0.6,2.02,1.12V1.96h1.04V7.4z M92.09,4.7c0.01,0.81,0.58,1.89,1.9,1.89
			c0.83,0,1.42-0.46,1.69-1.08c0.12-0.25,0.18-0.53,0.19-0.81c0.01-0.28-0.04-0.56-0.16-0.81c-0.26-0.63-0.87-1.12-1.74-1.12
			c-1.14,0-1.88,0.9-1.88,1.92V4.7z"/>
		<path class="st1" d="M98.77,0h1.04v7.4h-1.04V0z"/>
		<path class="st1" d="M105.79,5.01c0.05,1.1,1.01,1.66,1.83,1.66c0.73,0,1.27-0.35,1.57-0.92h1.08c-0.26,0.6-0.64,1.05-1.1,1.35
			c-0.46,0.31-1,0.46-1.55,0.46c-1.78,0-2.88-1.43-2.88-2.87c0-1.56,1.22-2.89,2.87-2.89c0.78,0,1.49,0.29,2.01,0.8
			c0.64,0.65,0.91,1.5,0.82,2.41H105.79z M109.41,4.2c-0.05-0.72-0.77-1.53-1.8-1.51c-1.06,0-1.75,0.77-1.8,1.51H109.41z"/>
		<path class="st1" d="M113.07,4.57l-1.83-2.61h1.26l1.21,1.87l1.2-1.87h1.24l-1.82,2.61l1.97,2.83h-1.27l-1.32-2.02l-1.33,2.02
			h-1.27L113.07,4.57z"/>
		<path class="st1" d="M117.54,1.96h0.99v0.95c0.41-0.65,1.11-1.11,2.08-1.11c1.87,0,2.75,1.56,2.75,2.91
			c0,1.54-1.11,2.85-2.74,2.85c-1.13,0-1.8-0.62-2.04-1.06v0.9v1.98h-1.04V1.96z M122.31,4.67c0-0.89-0.63-1.9-1.9-1.9
			c-0.54,0-1.01,0.21-1.35,0.56c-0.33,0.34-0.53,0.82-0.53,1.36c0,0.54,0.2,1.01,0.54,1.35s0.82,0.55,1.35,0.55
			C121.52,6.59,122.31,5.74,122.31,4.67L122.31,4.67z"/>
		<path class="st1" d="M125.59,5.01c0.05,1.1,1.01,1.66,1.83,1.66c0.73,0,1.27-0.35,1.57-0.92h1.08c-0.26,0.6-0.64,1.05-1.1,1.35
			c-0.46,0.31-1,0.46-1.55,0.46c-1.78,0-2.88-1.43-2.88-2.87c0-1.56,1.22-2.89,2.87-2.89c0.78,0,1.49,0.29,2.01,0.8
			c0.64,0.65,0.91,1.5,0.82,2.41H125.59z M129.21,4.2c-0.05-0.72-0.77-1.53-1.8-1.51c-1.06,0-1.75,0.77-1.8,1.51H129.21z"/>
		<path class="st1" d="M131.76,1.96h0.98V2.8c0.26-0.56,0.87-1.01,1.84-1c1.74,0.02,2.2,1.28,2.2,2.41V7.4h-1.05V4.45
			c0-0.98-0.38-1.68-1.44-1.67c-1.02,0.01-1.49,0.65-1.49,1.59V7.4h-1.04V1.96z"/>
		<path class="st1" d="M144.13,7.4h-1V6.45c-0.3,0.56-0.91,1.11-2.03,1.11c-1.71,0-2.79-1.32-2.79-2.89c0-1.69,1.22-2.87,2.77-2.87
			c1.11,0,1.79,0.62,2.01,1.05V1.89V0h1.04V7.4z M139.35,4.68c0.01,1,0.71,1.91,1.91,1.91c0.53,0,1.02-0.22,1.36-0.57
			c0.35-0.35,0.55-0.83,0.53-1.37c0-0.54-0.21-1.01-0.55-1.34c-0.34-0.34-0.81-0.54-1.34-0.54C140.11,2.77,139.35,3.65,139.35,4.68
			L139.35,4.68z"/>
		<path class="st1" d="M146.01,0h1.04v1.1h-1.04V0z M146.01,1.96h1.04V7.4h-1.04V1.96z"/>
		<path class="st1" d="M149.3,2.77h-0.98V1.96h0.98V0h1.04v1.96h1.05v0.81h-1.05V7.4h-1.04V2.77z"/>
		<path class="st1" d="M157.68,7.4h-0.98V6.56c-0.26,0.56-0.87,1.01-1.84,1c-1.75-0.01-2.2-1.28-2.2-2.41V1.96h1.04v2.95
			c0,0.98,0.38,1.68,1.45,1.68c1.02-0.01,1.49-0.66,1.49-1.59V1.96h1.04V7.4z"/>
		<path class="st1" d="M159.54,1.96h0.98v0.8c0.31-0.64,0.88-0.95,1.62-0.96v1.04h-0.07c-0.98,0-1.49,0.54-1.49,1.62V7.4h-1.04V1.96
			z"/>
		<path class="st1" d="M163.76,5.01c0.05,1.1,1.01,1.66,1.83,1.66c0.73,0,1.27-0.35,1.57-0.92h1.08c-0.26,0.6-0.64,1.05-1.1,1.35
			c-0.46,0.31-1,0.46-1.55,0.46c-1.78,0-2.88-1.43-2.88-2.87c0-1.56,1.22-2.89,2.87-2.89c0.78,0,1.49,0.29,2.01,0.8
			c0.64,0.65,0.91,1.5,0.82,2.41H163.76z M167.38,4.2c-0.05-0.72-0.77-1.53-1.8-1.51c-1.06,0-1.75,0.77-1.8,1.51H167.38z"/>
	</g>
</g>
<g>
	<path class="st2" d="M98.51,15.58c0.37-0.08,0.91-0.12,1.42-0.12c0.79,0,1.3,0.14,1.66,0.47c0.29,0.25,0.45,0.65,0.45,1.09
		c0,0.76-0.48,1.26-1.08,1.46v0.03c0.44,0.15,0.71,0.56,0.84,1.16c0.19,0.8,0.32,1.35,0.44,1.57h-0.76
		c-0.09-0.16-0.22-0.65-0.38-1.37c-0.17-0.79-0.48-1.09-1.15-1.11h-0.7v2.48h-0.74V15.58z M99.25,18.19h0.76
		c0.79,0,1.29-0.43,1.29-1.09c0-0.74-0.54-1.06-1.32-1.07c-0.36,0-0.61,0.03-0.73,0.07V18.19z"/>
	<path class="st2" d="M104.5,15.41c-0.2,0.71-0.56,1.62-0.8,2.01l-0.48,0.06c0.19-0.5,0.41-1.39,0.5-2L104.5,15.41z"/>
	<path class="st2" d="M105.41,18.23c0-0.42-0.01-0.77-0.03-1.11h0.65l0.03,0.66h0.03c0.23-0.39,0.61-0.76,1.29-0.76
		c0.56,0,0.99,0.34,1.16,0.82h0.02c0.13-0.23,0.29-0.41,0.46-0.54c0.25-0.19,0.52-0.29,0.91-0.29c0.54,0,1.35,0.36,1.35,1.79v2.42
		h-0.73v-2.33c0-0.79-0.29-1.27-0.89-1.27c-0.42,0-0.76,0.31-0.88,0.68c-0.03,0.1-0.06,0.24-0.06,0.37v2.54h-0.73v-2.46
		c0-0.65-0.29-1.13-0.86-1.13c-0.47,0-0.81,0.37-0.93,0.75c-0.04,0.11-0.06,0.24-0.06,0.37v2.48h-0.73V18.23z"/>
	<path class="st2" d="M113.76,15.96c0.01,0.25-0.18,0.46-0.48,0.46c-0.26,0-0.45-0.2-0.45-0.46c0-0.26,0.2-0.47,0.47-0.47
		C113.58,15.5,113.76,15.7,113.76,15.96z M112.93,21.23v-4.11h0.75v4.11H112.93z"/>
	<path class="st2" d="M115.33,15.2h0.75v6.03h-0.75V15.2z"/>
	<path class="st2" d="M117.76,15.2h0.75v6.03h-0.75V15.2z"/>
	<path class="st2" d="M121.02,15.96c0.01,0.25-0.18,0.46-0.48,0.46c-0.26,0-0.45-0.2-0.45-0.46c0-0.26,0.2-0.47,0.47-0.47
		C120.84,15.5,121.02,15.7,121.02,15.96z M120.19,21.23v-4.11h0.75v4.11H120.19z"/>
	<path class="st2" d="M126.32,19.14c0,1.52-1.05,2.18-2.05,2.18c-1.11,0-1.97-0.82-1.97-2.12c0-1.38,0.9-2.18,2.04-2.18
		C125.52,17.03,126.32,17.89,126.32,19.14z M123.06,19.19c0,0.9,0.52,1.58,1.25,1.58c0.71,0,1.25-0.67,1.25-1.6
		c0-0.7-0.35-1.58-1.23-1.58S123.06,18.4,123.06,19.19z"/>
	<path class="st2" d="M127.68,18.23c0-0.42-0.01-0.77-0.03-1.11h0.66l0.04,0.68h0.02c0.2-0.39,0.68-0.77,1.36-0.77
		c0.57,0,1.45,0.34,1.45,1.75v2.46h-0.75v-2.37c0-0.66-0.25-1.22-0.95-1.22c-0.49,0-0.88,0.35-1,0.77
		c-0.03,0.09-0.05,0.22-0.05,0.35v2.47h-0.75V18.23z"/>
</g>
<g>
	<path class="st2" d="M14.04,134.17c-0.04-0.8-0.09-1.76-0.08-2.47h-0.03c-0.2,0.67-0.43,1.39-0.72,2.18l-1.01,2.78h-0.56
		l-0.93-2.73c-0.27-0.81-0.5-1.55-0.66-2.23h-0.02c-0.02,0.71-0.06,1.67-0.11,2.53l-0.15,2.46H9.06l0.4-5.73h0.94l0.98,2.77
		c0.24,0.71,0.43,1.33,0.58,1.93h0.03c0.14-0.58,0.35-1.21,0.6-1.93l1.02-2.77h0.94l0.36,5.73h-0.72L14.04,134.17z"/>
	<path class="st2" d="M18.35,136.68l-0.06-0.52h-0.03c-0.23,0.32-0.67,0.61-1.26,0.61c-0.83,0-1.26-0.59-1.26-1.18
		c0-0.99,0.88-1.54,2.47-1.53v-0.08c0-0.34-0.09-0.95-0.93-0.95c-0.38,0-0.78,0.12-1.07,0.31l-0.17-0.49
		c0.34-0.22,0.83-0.37,1.35-0.37c1.26,0,1.56,0.86,1.56,1.68v1.54c0,0.36,0.02,0.71,0.07,0.99H18.35z M18.24,134.58
		c-0.82-0.02-1.74,0.13-1.74,0.93c0,0.48,0.32,0.71,0.71,0.71c0.54,0,0.88-0.34,0.99-0.69c0.03-0.08,0.04-0.16,0.04-0.24V134.58z"/>
	<path class="st2" d="M21,131.41c0.01,0.25-0.18,0.46-0.48,0.46c-0.26,0-0.45-0.2-0.45-0.46c0-0.26,0.2-0.47,0.47-0.47
		C20.82,130.94,21,131.15,21,131.41z M20.17,136.68v-4.11h0.75v4.11H20.17z"/>
	<path class="st2" d="M22.15,133.68c0-0.42-0.01-0.77-0.03-1.11h0.66l0.04,0.68h0.02c0.2-0.39,0.68-0.77,1.36-0.77
		c0.57,0,1.45,0.34,1.45,1.75v2.46h-0.75v-2.37c0-0.66-0.25-1.22-0.95-1.22c-0.49,0-0.88,0.35-1,0.77
		c-0.03,0.09-0.05,0.22-0.05,0.35v2.47h-0.75V133.68z"/>
	<path class="st2" d="M27.74,131.39v1.18h1.07v0.57h-1.07v2.22c0,0.51,0.14,0.8,0.56,0.8c0.2,0,0.34-0.03,0.43-0.05l0.03,0.56
		c-0.14,0.06-0.37,0.1-0.66,0.1c-0.35,0-0.63-0.11-0.81-0.31c-0.21-0.22-0.29-0.59-0.29-1.07v-2.24h-0.64v-0.57h0.64v-0.99
		L27.74,131.39z"/>
	<path class="st2" d="M30.02,134.76c0.02,1.01,0.66,1.43,1.41,1.43c0.54,0,0.86-0.09,1.14-0.21l0.13,0.54
		c-0.26,0.12-0.71,0.25-1.37,0.25c-1.27,0-2.02-0.83-2.02-2.07c0-1.24,0.73-2.22,1.93-2.22c1.34,0,1.7,1.18,1.7,1.94
		c0,0.15-0.02,0.27-0.03,0.35H30.02z M32.21,134.23c0.01-0.48-0.2-1.22-1.04-1.22c-0.76,0-1.09,0.7-1.15,1.22H32.21z"/>
	<path class="st2" d="M33.86,133.68c0-0.42-0.01-0.77-0.03-1.11h0.66l0.04,0.68h0.02c0.2-0.39,0.68-0.77,1.36-0.77
		c0.57,0,1.45,0.34,1.45,1.75v2.46h-0.75v-2.37c0-0.66-0.25-1.22-0.95-1.22c-0.49,0-0.88,0.35-1,0.77
		c-0.03,0.09-0.05,0.22-0.05,0.35v2.47h-0.75V133.68z"/>
	<path class="st2" d="M40.86,136.68l-0.06-0.52h-0.03c-0.23,0.32-0.67,0.61-1.26,0.61c-0.83,0-1.26-0.59-1.26-1.18
		c0-0.99,0.88-1.54,2.47-1.53v-0.08c0-0.34-0.09-0.95-0.93-0.95c-0.38,0-0.78,0.12-1.07,0.31l-0.17-0.49
		c0.34-0.22,0.83-0.37,1.35-0.37c1.26,0,1.56,0.86,1.56,1.68v1.54c0,0.36,0.02,0.71,0.07,0.99H40.86z M40.74,134.58
		c-0.82-0.02-1.74,0.13-1.74,0.93c0,0.48,0.32,0.71,0.71,0.71c0.54,0,0.88-0.34,0.99-0.69c0.03-0.08,0.04-0.16,0.04-0.24V134.58z"/>
	<path class="st2" d="M42.67,133.68c0-0.42-0.01-0.77-0.03-1.11h0.66l0.04,0.68h0.02c0.2-0.39,0.68-0.77,1.36-0.77
		c0.57,0,1.45,0.34,1.45,1.75v2.46h-0.75v-2.37c0-0.66-0.25-1.22-0.95-1.22c-0.49,0-0.88,0.35-1,0.77
		c-0.03,0.09-0.05,0.22-0.05,0.35v2.47h-0.75V133.68z"/>
	<path class="st2" d="M50.32,136.53c-0.2,0.1-0.63,0.24-1.18,0.24c-1.24,0-2.05-0.84-2.05-2.1c0-1.27,0.87-2.18,2.21-2.18
		c0.44,0,0.83,0.11,1.04,0.21l-0.17,0.58c-0.18-0.1-0.46-0.2-0.87-0.2c-0.94,0-1.45,0.7-1.45,1.56c0,0.95,0.61,1.54,1.43,1.54
		c0.42,0,0.71-0.11,0.92-0.2L50.32,136.53z"/>
	<path class="st2" d="M51.56,134.76c0.02,1.01,0.66,1.43,1.41,1.43c0.54,0,0.86-0.09,1.14-0.21l0.13,0.54
		c-0.26,0.12-0.71,0.25-1.37,0.25c-1.27,0-2.02-0.83-2.02-2.07c0-1.24,0.73-2.22,1.93-2.22c1.34,0,1.7,1.18,1.7,1.94
		c0,0.15-0.02,0.27-0.03,0.35H51.56z M53.76,134.23c0.01-0.48-0.2-1.22-1.04-1.22c-0.76,0-1.09,0.7-1.15,1.22H53.76z"/>
</g>
<rect x="0.06" y="130.66" class="st3" width="5.67" height="5.67"/>
<g>
	<defs>
		<rect id="SVGID_3_" width="229.67" height="150.5"/>
	</defs>
	<clipPath id="SVGID_4_">
		<use xlink:href="#SVGID_3_"  style="overflow:visible;"/>
	</clipPath>
	<g class="st4">
		<path class="st2" d="M12.36,145.34h-2.23v2.07h2.48v0.62H9.39v-5.73h3.09v0.62h-2.35v1.81h2.23V145.34z"/>
		<path class="st2" d="M13.9,143.91l0.59,0.88c0.15,0.23,0.28,0.44,0.42,0.67h0.03c0.14-0.25,0.27-0.46,0.41-0.68l0.58-0.88h0.81
			l-1.4,1.99l1.45,2.12h-0.85l-0.6-0.93c-0.16-0.24-0.3-0.47-0.44-0.71h-0.02c-0.14,0.25-0.28,0.47-0.43,0.71l-0.59,0.93h-0.83
			l1.46-2.1l-1.39-2.01H13.9z"/>
		<path class="st2" d="M17.48,145.25c0-0.53-0.02-0.95-0.03-1.34h0.67l0.03,0.71h0.02c0.31-0.5,0.79-0.8,1.46-0.8
			c1,0,1.74,0.84,1.74,2.09c0,1.48-0.9,2.21-1.87,2.21c-0.54,0-1.02-0.24-1.27-0.65h-0.02v2.24h-0.74V145.25z M18.22,146.35
			c0,0.11,0.02,0.21,0.03,0.31c0.14,0.52,0.59,0.88,1.12,0.88c0.79,0,1.25-0.65,1.25-1.59c0-0.82-0.43-1.53-1.22-1.53
			c-0.51,0-0.99,0.37-1.13,0.93c-0.03,0.09-0.05,0.2-0.05,0.31V146.35z"/>
		<path class="st2" d="M24.6,148.02l-0.06-0.52h-0.03c-0.23,0.32-0.67,0.61-1.26,0.61c-0.83,0-1.26-0.59-1.26-1.18
			c0-0.99,0.88-1.54,2.47-1.53v-0.08c0-0.34-0.09-0.95-0.93-0.95c-0.38,0-0.78,0.12-1.07,0.31l-0.17-0.49
			c0.34-0.22,0.83-0.37,1.35-0.37c1.26,0,1.56,0.86,1.56,1.68v1.54c0,0.36,0.02,0.71,0.07,0.99H24.6z M24.48,145.92
			c-0.82-0.02-1.74,0.13-1.74,0.93c0,0.48,0.32,0.71,0.71,0.71c0.54,0,0.88-0.34,0.99-0.69c0.03-0.08,0.04-0.16,0.04-0.24V145.92z"
			/>
		<path class="st2" d="M26.42,145.02c0-0.42-0.01-0.77-0.03-1.11h0.66l0.04,0.68h0.02c0.2-0.39,0.68-0.77,1.36-0.77
			c0.57,0,1.45,0.34,1.45,1.75v2.46h-0.75v-2.37c0-0.66-0.25-1.22-0.95-1.22c-0.49,0-0.88,0.35-1,0.77
			c-0.03,0.09-0.05,0.22-0.05,0.35v2.47h-0.75V145.02z"/>
		<path class="st2" d="M31.03,147.26c0.22,0.14,0.61,0.3,0.99,0.3c0.54,0,0.8-0.27,0.8-0.61c0-0.36-0.21-0.55-0.76-0.76
			c-0.74-0.26-1.09-0.67-1.09-1.16c0-0.66,0.54-1.21,1.42-1.21c0.42,0,0.78,0.12,1.01,0.25l-0.19,0.54
			c-0.16-0.1-0.46-0.24-0.84-0.24c-0.44,0-0.69,0.25-0.69,0.56c0,0.34,0.25,0.49,0.78,0.7c0.71,0.27,1.08,0.63,1.08,1.24
			c0,0.72-0.56,1.23-1.54,1.23c-0.45,0-0.87-0.11-1.16-0.28L31.03,147.26z"/>
		<path class="st2" d="M35.33,142.75c0.01,0.25-0.18,0.46-0.48,0.46c-0.26,0-0.45-0.2-0.45-0.46c0-0.26,0.2-0.47,0.47-0.47
			C35.15,142.28,35.33,142.49,35.33,142.75z M34.5,148.02v-4.11h0.75v4.11H34.5z"/>
		<path class="st2" d="M40.21,145.93c0,1.52-1.05,2.18-2.05,2.18c-1.11,0-1.97-0.82-1.97-2.12c0-1.38,0.9-2.18,2.04-2.18
			C39.41,143.81,40.21,144.67,40.21,145.93z M36.95,145.97c0,0.9,0.52,1.58,1.25,1.58c0.71,0,1.25-0.67,1.25-1.6
			c0-0.7-0.35-1.58-1.23-1.58S36.95,145.19,36.95,145.97z"/>
		<path class="st2" d="M41.15,145.02c0-0.42-0.01-0.77-0.03-1.11h0.66l0.04,0.68h0.02c0.2-0.39,0.68-0.77,1.36-0.77
			c0.57,0,1.45,0.34,1.45,1.75v2.46h-0.75v-2.37c0-0.66-0.25-1.22-0.95-1.22c-0.49,0-0.88,0.35-1,0.77
			c-0.03,0.09-0.05,0.22-0.05,0.35v2.47h-0.75V145.02z"/>
	</g>
</g>
<rect x="0.24" y="142" class="st5" width="5.67" height="5.67"/>
<rect x="12.76" y="92.28" class="st3" width="19.84" height="9.06"/>
<g>
	<path class="st2" d="M19.35,97.35c0-0.57,0.34-0.98,0.9-1.22l-0.01-0.02c-0.5-0.24-0.72-0.63-0.72-1.02c0-0.72,0.61-1.21,1.41-1.21
		c0.88,0,1.32,0.55,1.32,1.12c0,0.38-0.19,0.8-0.75,1.06v0.02c0.57,0.22,0.92,0.62,0.92,1.18c0,0.79-0.68,1.32-1.55,1.32
		C19.92,98.58,19.35,98.01,19.35,97.35z M21.8,97.32c0-0.55-0.38-0.82-1-0.99c-0.53,0.15-0.82,0.5-0.82,0.94
		c-0.02,0.46,0.33,0.87,0.91,0.87C21.44,98.13,21.8,97.79,21.8,97.32z M20.1,95.04c0,0.46,0.34,0.7,0.87,0.84
		c0.39-0.13,0.69-0.41,0.69-0.83c0-0.36-0.22-0.74-0.77-0.74C20.38,94.32,20.1,94.65,20.1,95.04z"/>
	<path class="st2" d="M24.33,94.53h-0.01l-0.79,0.43l-0.12-0.47l0.99-0.53h0.53v4.55h-0.6V94.53z"/>
</g>
<g>
	<path class="st2" d="M17.76,60.09c0.17,0.11,0.58,0.29,1.01,0.29c0.79,0,1.04-0.5,1.03-0.88c-0.01-0.64-0.58-0.91-1.18-0.91h-0.34
		v-0.46h0.34c0.45,0,1.02-0.23,1.02-0.77c0-0.36-0.23-0.69-0.8-0.69c-0.36,0-0.71,0.16-0.91,0.3l-0.16-0.45
		c0.24-0.17,0.7-0.35,1.19-0.35c0.9,0,1.3,0.53,1.3,1.09c0,0.47-0.28,0.87-0.84,1.07v0.01c0.56,0.11,1.02,0.53,1.02,1.17
		c0,0.73-0.57,1.37-1.66,1.37c-0.51,0-0.96-0.16-1.18-0.31L17.76,60.09z"/>
	<path class="st2" d="M21.35,60.09c0.17,0.11,0.58,0.29,1.01,0.29c0.79,0,1.04-0.5,1.03-0.88c-0.01-0.64-0.58-0.91-1.18-0.91h-0.34
		v-0.46h0.34c0.45,0,1.02-0.23,1.02-0.77c0-0.36-0.23-0.69-0.8-0.69c-0.36,0-0.71,0.16-0.91,0.3l-0.16-0.45
		c0.24-0.17,0.7-0.35,1.19-0.35c0.9,0,1.3,0.53,1.3,1.09c0,0.47-0.28,0.87-0.84,1.07v0.01c0.56,0.11,1.02,0.53,1.02,1.17
		c0,0.73-0.57,1.37-1.66,1.37c-0.51,0-0.96-0.16-1.18-0.31L21.35,60.09z"/>
	<path class="st2" d="M27.75,56.24v0.41l-1.98,4.15h-0.64l1.97-4.03v-0.01h-2.23v-0.51H27.75z"/>
</g>
<g>
	<path class="st2" d="M54.32,56.8c0.17,0.11,0.58,0.29,1.01,0.29c0.79,0,1.04-0.5,1.03-0.88c-0.01-0.64-0.58-0.91-1.18-0.91h-0.34
		v-0.46h0.34c0.45,0,1.02-0.23,1.02-0.77c0-0.36-0.23-0.69-0.8-0.69c-0.36,0-0.71,0.16-0.91,0.3l-0.16-0.45
		c0.24-0.17,0.7-0.35,1.19-0.35c0.9,0,1.3,0.53,1.3,1.09c0,0.47-0.28,0.87-0.84,1.07v0.01c0.56,0.11,1.02,0.53,1.02,1.17
		c0,0.73-0.57,1.37-1.66,1.37c-0.51,0-0.96-0.16-1.18-0.31L54.32,56.8z"/>
	<path class="st2" d="M60.72,52.95v0.41l-1.98,4.15H58.1l1.98-4.03v-0.01h-2.23v-0.51H60.72z"/>
	<path class="st2" d="M64.38,55.18c0,1.55-0.57,2.4-1.58,2.4c-0.89,0-1.49-0.83-1.51-2.34c0-1.53,0.66-2.37,1.58-2.37
		C63.84,52.88,64.38,53.73,64.38,55.18z M61.91,55.25c0,1.18,0.36,1.86,0.92,1.86c0.63,0,0.93-0.74,0.93-1.9
		c0-1.12-0.29-1.86-0.92-1.86C62.3,53.35,61.91,54.01,61.91,55.25z"/>
</g>
<g>
	<path class="st2" d="M92.65,49.71v-1.24h-2.12v-0.41l2.03-2.91h0.67v2.83h0.64v0.48h-0.64v1.24H92.65z M92.65,47.99v-1.52
		c0-0.24,0.01-0.48,0.02-0.71h-0.02c-0.14,0.27-0.25,0.46-0.38,0.67l-1.11,1.55v0.01H92.65z"/>
	<path class="st2" d="M94.48,49.01c0.17,0.11,0.58,0.29,1.01,0.29c0.79,0,1.04-0.5,1.03-0.88c-0.01-0.64-0.58-0.91-1.18-0.91H95
		v-0.46h0.34c0.45,0,1.02-0.23,1.02-0.77c0-0.36-0.23-0.69-0.8-0.69c-0.36,0-0.71,0.16-0.91,0.3l-0.16-0.45
		c0.24-0.17,0.7-0.35,1.19-0.35c0.9,0,1.3,0.53,1.3,1.09c0,0.47-0.28,0.87-0.84,1.07v0.01c0.56,0.11,1.02,0.53,1.02,1.17
		c0,0.73-0.57,1.37-1.66,1.37c-0.51,0-0.96-0.16-1.18-0.31L94.48,49.01z"/>
	<path class="st2" d="M98.07,49.01c0.17,0.11,0.58,0.29,1.01,0.29c0.79,0,1.04-0.5,1.03-0.88c-0.01-0.64-0.58-0.91-1.18-0.91h-0.34
		v-0.46h0.34c0.45,0,1.02-0.23,1.02-0.77c0-0.36-0.23-0.69-0.8-0.69c-0.36,0-0.71,0.16-0.91,0.3l-0.16-0.45
		c0.24-0.17,0.7-0.35,1.19-0.35c0.9,0,1.3,0.53,1.3,1.09c0,0.47-0.28,0.87-0.84,1.07v0.01c0.56,0.11,1.02,0.53,1.02,1.17
		c0,0.73-0.57,1.37-1.66,1.37c-0.51,0-0.96-0.16-1.18-0.31L98.07,49.01z"/>
</g>
<g>
	<path class="st2" d="M130.03,36.51h-1.74l-0.17,1.17c0.11-0.01,0.2-0.03,0.37-0.03c0.35,0,0.7,0.08,0.98,0.25
		c0.36,0.2,0.65,0.6,0.65,1.17c0,0.89-0.71,1.55-1.69,1.55c-0.5,0-0.92-0.14-1.13-0.28l0.15-0.47c0.19,0.11,0.56,0.25,0.97,0.25
		c0.58,0,1.08-0.38,1.08-0.99c-0.01-0.59-0.4-1.01-1.31-1.01c-0.26,0-0.46,0.03-0.63,0.05l0.29-2.19h2.18V36.51z"/>
	<path class="st2" d="M132.24,36.57h-0.01l-0.79,0.43l-0.12-0.47l0.99-0.53h0.53v4.55h-0.59V36.57z"/>
	<path class="st2" d="M134.44,39.39c0-0.57,0.34-0.98,0.9-1.22l-0.01-0.02c-0.5-0.24-0.72-0.63-0.72-1.02
		c0-0.72,0.61-1.21,1.41-1.21c0.88,0,1.32,0.55,1.32,1.12c0,0.38-0.19,0.8-0.75,1.06v0.02c0.57,0.22,0.92,0.62,0.92,1.18
		c0,0.79-0.68,1.32-1.55,1.32C135.01,40.62,134.44,40.05,134.44,39.39z M136.89,39.36c0-0.55-0.39-0.82-1-0.99
		c-0.53,0.15-0.82,0.5-0.82,0.94c-0.02,0.46,0.33,0.87,0.91,0.87C136.53,40.17,136.89,39.83,136.89,39.36z M135.2,37.08
		c0,0.46,0.34,0.7,0.87,0.84c0.39-0.13,0.69-0.41,0.69-0.83c0-0.36-0.22-0.74-0.77-0.74C135.48,36.36,135.2,36.69,135.2,37.08z"/>
</g>
<g>
	<path class="st2" d="M166.48,19.37c-0.13-0.01-0.29,0-0.46,0.03c-0.97,0.16-1.48,0.87-1.58,1.62h0.02c0.22-0.29,0.59-0.53,1.1-0.53
		c0.81,0,1.37,0.58,1.37,1.47c0,0.83-0.57,1.6-1.51,1.6c-0.97,0-1.61-0.76-1.61-1.94c0-0.9,0.32-1.6,0.77-2.05
		c0.38-0.37,0.88-0.6,1.46-0.67c0.18-0.03,0.34-0.03,0.45-0.03V19.37z M166.3,21.99c0-0.65-0.37-1.04-0.94-1.04
		c-0.37,0-0.71,0.23-0.88,0.56c-0.04,0.07-0.07,0.16-0.07,0.27c0.01,0.75,0.36,1.3,1,1.3C165.95,23.09,166.3,22.64,166.3,21.99z"/>
	<path class="st2" d="M170.43,18.93v0.41l-1.98,4.15h-0.64l1.97-4.03v-0.01h-2.23v-0.51H170.43z"/>
	<path class="st2" d="M172.4,19.51h-0.01l-0.79,0.43l-0.12-0.47l0.99-0.53H173v4.55h-0.59V19.51z"/>
</g>
<g>
	<path class="st2" d="M203.3,15.62v0.41l-1.98,4.15h-0.64l1.97-4.03v-0.01h-2.23v-0.51H203.3z"/>
	<path class="st2" d="M206.96,17.85c0,1.55-0.57,2.4-1.58,2.4c-0.89,0-1.49-0.83-1.51-2.34c0-1.53,0.66-2.37,1.58-2.37
		C206.41,15.54,206.96,16.4,206.96,17.85z M204.49,17.92c0,1.18,0.36,1.86,0.92,1.86c0.63,0,0.93-0.74,0.93-1.9
		c0-1.12-0.29-1.86-0.92-1.86C204.88,16.02,204.49,16.68,204.49,17.92z"/>
	<path class="st2" d="M210.55,17.85c0,1.55-0.57,2.4-1.58,2.4c-0.89,0-1.49-0.83-1.51-2.34c0-1.53,0.66-2.37,1.58-2.37
		C210.01,15.54,210.55,16.4,210.55,17.85z M208.08,17.92c0,1.18,0.36,1.86,0.92,1.86c0.63,0,0.93-0.74,0.93-1.9
		c0-1.12-0.29-1.86-0.92-1.86C208.47,16.02,208.08,16.68,208.08,17.92z"/>
</g>
<rect x="12.76" y="63.63" class="st5" width="19.84" height="28.65"/>
<g>
	<path class="st6" d="M17.61,89.44v-0.38l0.48-0.47c1.16-1.11,1.69-1.69,1.69-2.38c0-0.46-0.22-0.89-0.9-0.89
		c-0.41,0-0.76,0.21-0.97,0.38l-0.2-0.43c0.31-0.27,0.76-0.46,1.29-0.46c0.98,0,1.39,0.67,1.39,1.32c0,0.84-0.61,1.52-1.57,2.44
		l-0.36,0.34v0.01h2.04v0.51H17.61z"/>
	<path class="st6" d="M23.91,85.41h-1.74L22,86.58c0.1-0.01,0.2-0.03,0.37-0.03c0.35,0,0.7,0.08,0.98,0.25
		c0.36,0.2,0.65,0.6,0.65,1.17c0,0.89-0.71,1.55-1.7,1.55c-0.5,0-0.92-0.14-1.13-0.28l0.15-0.47c0.19,0.11,0.56,0.25,0.97,0.25
		c0.58,0,1.08-0.38,1.08-0.99c-0.01-0.59-0.4-1.01-1.31-1.01c-0.26,0-0.46,0.03-0.63,0.05l0.29-2.19h2.18V85.41z"/>
	<path class="st6" d="M27.39,85.32c-0.13-0.01-0.29,0-0.46,0.03c-0.97,0.16-1.48,0.87-1.58,1.62h0.02c0.22-0.29,0.6-0.53,1.1-0.53
		c0.81,0,1.37,0.58,1.37,1.47c0,0.83-0.57,1.6-1.51,1.6c-0.97,0-1.61-0.76-1.61-1.94c0-0.9,0.32-1.6,0.77-2.05
		c0.38-0.37,0.88-0.6,1.46-0.67c0.18-0.03,0.34-0.03,0.45-0.03V85.32z M27.21,87.95c0-0.65-0.37-1.04-0.94-1.04
		c-0.37,0-0.71,0.23-0.88,0.56c-0.04,0.07-0.07,0.16-0.07,0.27c0.01,0.75,0.36,1.3,1,1.3C26.85,89.04,27.21,88.6,27.21,87.95z"/>
</g>
<g>
	<path class="st2" d="M15.81,112.68v-0.38l0.48-0.47c1.16-1.11,1.69-1.69,1.69-2.38c0-0.46-0.22-0.89-0.9-0.89
		c-0.41,0-0.76,0.21-0.97,0.38l-0.2-0.43c0.31-0.27,0.76-0.46,1.29-0.46c0.98,0,1.39,0.67,1.39,1.32c0,0.84-0.61,1.52-1.57,2.44
		l-0.36,0.34v0.01h2.04v0.51H15.81z"/>
	<path class="st2" d="M22.43,110.35c0,1.55-0.57,2.4-1.58,2.4c-0.89,0-1.49-0.83-1.51-2.34c0-1.53,0.66-2.37,1.58-2.37
		C21.88,108.05,22.43,108.9,22.43,110.35z M19.96,110.42c0,1.18,0.36,1.86,0.92,1.86c0.63,0,0.93-0.74,0.93-1.9
		c0-1.12-0.29-1.86-0.92-1.86C20.35,108.53,19.96,109.18,19.96,110.42z"/>
	<path class="st2" d="M24.33,108.7h-0.01l-0.79,0.43l-0.12-0.47l1-0.53h0.52v4.55h-0.59V108.7z"/>
	<path class="st2" d="M28.49,112.68v-1.24h-2.12v-0.41l2.03-2.91h0.67v2.83h0.64v0.48h-0.64v1.24H28.49z M28.49,110.96v-1.52
		c0-0.24,0.01-0.48,0.02-0.71h-0.02c-0.14,0.27-0.25,0.46-0.38,0.67L27,110.94v0.01H28.49z"/>
</g>
<rect x="49.32" y="87.35" class="st3" width="19.84" height="13.99"/>
<g>
	<path class="st2" d="M55.51,94.53H55.5l-0.79,0.43l-0.12-0.47l0.99-0.53h0.53v4.55h-0.6V94.53z"/>
	<path class="st2" d="M57.76,98.5v-0.38l0.48-0.47c1.16-1.11,1.69-1.69,1.7-2.38c0-0.46-0.22-0.89-0.9-0.89
		c-0.41,0-0.76,0.21-0.97,0.38l-0.2-0.43c0.32-0.27,0.76-0.46,1.29-0.46c0.98,0,1.39,0.67,1.39,1.32c0,0.84-0.61,1.52-1.57,2.44
		l-0.36,0.34v0.01h2.04v0.51H57.76z"/>
	<path class="st2" d="M63.95,94.39c-0.13-0.01-0.29,0-0.46,0.03c-0.97,0.16-1.48,0.87-1.58,1.62h0.02c0.22-0.29,0.59-0.53,1.1-0.53
		c0.8,0,1.37,0.58,1.37,1.47c0,0.83-0.57,1.6-1.51,1.6c-0.97,0-1.61-0.76-1.61-1.94c0-0.9,0.32-1.6,0.77-2.05
		c0.38-0.37,0.88-0.6,1.46-0.67c0.18-0.03,0.34-0.03,0.45-0.03V94.39z M63.78,97.01c0-0.65-0.37-1.04-0.94-1.04
		c-0.37,0-0.71,0.23-0.88,0.56c-0.04,0.07-0.07,0.16-0.07,0.27c0.01,0.75,0.36,1.3,1,1.3C63.42,98.1,63.78,97.66,63.78,97.01z"/>
</g>
<rect x="49.32" y="60.05" class="st5" width="19.84" height="27.31"/>
<g>
	<path class="st6" d="M54.17,84.52v-0.38l0.48-0.47c1.16-1.11,1.69-1.69,1.7-2.38c0-0.46-0.22-0.89-0.9-0.89
		c-0.41,0-0.76,0.21-0.97,0.38l-0.2-0.43c0.32-0.27,0.76-0.46,1.29-0.46c0.98,0,1.39,0.67,1.39,1.32c0,0.84-0.61,1.52-1.57,2.44
		l-0.36,0.34V84h2.04v0.51H54.17z"/>
	<path class="st6" d="M59.67,84.52v-1.24h-2.12v-0.41l2.03-2.91h0.67v2.83h0.64v0.48h-0.64v1.24H59.67z M59.67,82.79v-1.52
		c0-0.24,0.01-0.48,0.02-0.71h-0.02c-0.14,0.27-0.25,0.46-0.38,0.67l-1.11,1.55v0.01H59.67z"/>
	<path class="st6" d="M63.26,84.52v-1.24h-2.12v-0.41l2.03-2.91h0.67v2.83h0.64v0.48h-0.64v1.24H63.26z M63.26,82.79v-1.52
		c0-0.24,0.01-0.48,0.02-0.71h-0.02c-0.14,0.27-0.25,0.46-0.38,0.67l-1.11,1.55v0.01H63.26z"/>
</g>
<g>
	<path class="st2" d="M52.38,112.68v-0.38l0.48-0.47c1.16-1.11,1.69-1.69,1.7-2.38c0-0.46-0.22-0.89-0.9-0.89
		c-0.41,0-0.76,0.21-0.97,0.38l-0.2-0.43c0.32-0.27,0.76-0.46,1.29-0.46c0.98,0,1.39,0.67,1.39,1.32c0,0.84-0.61,1.52-1.57,2.44
		l-0.36,0.34v0.01h2.04v0.51H52.38z"/>
	<path class="st2" d="M59,110.35c0,1.55-0.57,2.4-1.58,2.4c-0.89,0-1.49-0.83-1.51-2.34c0-1.53,0.66-2.37,1.58-2.37
		C58.45,108.05,59,108.9,59,110.35z M56.52,110.42c0,1.18,0.36,1.86,0.92,1.86c0.63,0,0.93-0.74,0.93-1.9
		c0-1.12-0.29-1.86-0.92-1.86C56.92,108.52,56.52,109.18,56.52,110.42z"/>
	<path class="st2" d="M60.9,108.7h-0.01l-0.79,0.43l-0.12-0.47l0.99-0.53h0.53v4.55h-0.6V108.7z"/>
	<path class="st2" d="M65.87,108.64h-1.74l-0.18,1.17c0.11-0.01,0.2-0.03,0.37-0.03c0.35,0,0.7,0.08,0.98,0.25
		c0.36,0.2,0.65,0.6,0.65,1.17c0,0.89-0.71,1.55-1.69,1.55c-0.5,0-0.92-0.14-1.13-0.28l0.15-0.47c0.19,0.11,0.56,0.25,0.97,0.25
		c0.58,0,1.08-0.38,1.08-0.99c-0.01-0.59-0.4-1.01-1.31-1.01c-0.26,0-0.46,0.03-0.63,0.05l0.29-2.19h2.18V108.64z"/>
</g>
<rect x="85.89" y="86.9" class="st3" width="19.84" height="14.44"/>
<g>
	<path class="st2" d="M92.08,94.53h-0.01l-0.79,0.43l-0.12-0.47l1-0.53h0.52v4.55h-0.59V94.53z"/>
	<path class="st2" d="M94.33,98.5v-0.38l0.48-0.47c1.16-1.11,1.69-1.69,1.69-2.38c0-0.46-0.22-0.89-0.9-0.89
		c-0.41,0-0.76,0.21-0.97,0.38l-0.2-0.43c0.31-0.27,0.76-0.46,1.29-0.46c0.98,0,1.39,0.67,1.39,1.32c0,0.84-0.61,1.52-1.57,2.44
		l-0.36,0.34v0.01h2.04v0.51H94.33z"/>
	<path class="st2" d="M98.28,98.07c0.13,0.01,0.29,0,0.5-0.02c0.36-0.05,0.69-0.2,0.95-0.44c0.3-0.27,0.52-0.67,0.6-1.21h-0.02
		c-0.25,0.31-0.62,0.49-1.07,0.49c-0.82,0-1.34-0.62-1.34-1.39c0-0.86,0.62-1.62,1.55-1.62c0.93,0,1.51,0.76,1.51,1.92
		c0,1-0.34,1.7-0.78,2.14c-0.35,0.34-0.83,0.55-1.32,0.61c-0.22,0.04-0.42,0.04-0.57,0.04V98.07z M98.5,95.45
		c0,0.57,0.34,0.97,0.88,0.97c0.41,0,0.74-0.2,0.9-0.48c0.04-0.06,0.06-0.13,0.06-0.22c0-0.78-0.29-1.37-0.93-1.37
		C98.87,94.34,98.5,94.81,98.5,95.45z"/>
</g>
<rect x="85.89" y="52.88" class="st5" width="19.84" height="34.02"/>
<g>
	<path class="st6" d="M90.89,83.36c0.17,0.11,0.58,0.29,1.01,0.29c0.79,0,1.04-0.5,1.03-0.88c-0.01-0.64-0.58-0.91-1.18-0.91H91.4
		v-0.46h0.34c0.45,0,1.02-0.23,1.02-0.77c0-0.36-0.23-0.69-0.8-0.69c-0.36,0-0.71,0.16-0.91,0.3l-0.16-0.45
		c0.24-0.17,0.7-0.35,1.19-0.35c0.9,0,1.3,0.53,1.3,1.09c0,0.47-0.28,0.87-0.84,1.07v0.01c0.56,0.11,1.02,0.53,1.02,1.17
		c0,0.73-0.57,1.37-1.66,1.37c-0.51,0-0.96-0.16-1.18-0.31L90.89,83.36z"/>
	<path class="st6" d="M97.36,81.74c0,1.55-0.57,2.4-1.58,2.4c-0.89,0-1.49-0.83-1.51-2.34c0-1.53,0.66-2.37,1.58-2.37
		C96.81,79.44,97.36,80.29,97.36,81.74z M94.88,81.81c0,1.18,0.36,1.86,0.92,1.86c0.63,0,0.93-0.74,0.93-1.9
		c0-1.12-0.29-1.86-0.92-1.86C95.28,79.92,94.88,80.57,94.88,81.81z"/>
	<path class="st6" d="M99.83,84.07v-1.24h-2.12v-0.41l2.03-2.91h0.67v2.83h0.64v0.48h-0.64v1.24H99.83z M99.83,82.35v-1.52
		c0-0.24,0.01-0.48,0.02-0.71h-0.02c-0.14,0.27-0.25,0.46-0.38,0.67l-1.11,1.55v0.01H99.83z"/>
</g>
<g>
	<path class="st2" d="M88.95,112.68v-0.38l0.48-0.47c1.16-1.11,1.69-1.69,1.69-2.38c0-0.46-0.22-0.89-0.9-0.89
		c-0.41,0-0.76,0.21-0.97,0.38l-0.2-0.43c0.31-0.27,0.76-0.46,1.29-0.46c0.98,0,1.39,0.67,1.39,1.32c0,0.84-0.61,1.52-1.57,2.44
		l-0.36,0.34v0.01h2.04v0.51H88.95z"/>
	<path class="st2" d="M95.56,110.35c0,1.55-0.57,2.4-1.58,2.4c-0.89,0-1.49-0.83-1.51-2.34c0-1.53,0.66-2.37,1.58-2.37
		C95.02,108.05,95.56,108.9,95.56,110.35z M93.09,110.42c0,1.18,0.36,1.86,0.92,1.86c0.63,0,0.93-0.74,0.93-1.9
		c0-1.12-0.29-1.86-0.92-1.86C93.48,108.52,93.09,109.18,93.09,110.42z"/>
	<path class="st2" d="M97.47,108.7h-0.01l-0.79,0.43l-0.12-0.47l1-0.53h0.52v4.55h-0.59V108.7z"/>
	<path class="st2" d="M102.32,108.56c-0.13-0.01-0.29,0-0.46,0.03c-0.97,0.16-1.48,0.87-1.58,1.62h0.02c0.22-0.29,0.6-0.53,1.1-0.53
		c0.81,0,1.37,0.58,1.37,1.47c0,0.83-0.57,1.6-1.51,1.6c-0.97,0-1.61-0.76-1.61-1.94c0-0.9,0.32-1.6,0.77-2.05
		c0.38-0.37,0.88-0.6,1.46-0.67c0.18-0.03,0.34-0.03,0.45-0.03V108.56z M102.14,111.19c0-0.65-0.37-1.04-0.94-1.04
		c-0.37,0-0.71,0.23-0.88,0.56c-0.04,0.07-0.07,0.16-0.07,0.27c0.01,0.75,0.36,1.3,1,1.3C101.79,112.28,102.14,111.84,102.14,111.19
		z"/>
</g>
<rect x="122.46" y="88.81" class="st3" width="19.84" height="12.53"/>
<g>
	<path class="st2" d="M128.64,94.53h-0.01l-0.79,0.43l-0.12-0.47l0.99-0.53h0.53v4.55h-0.6V94.53z"/>
	<path class="st2" d="M132.24,94.53h-0.01l-0.79,0.43l-0.12-0.47l0.99-0.53h0.53v4.55h-0.59V94.53z"/>
	<path class="st2" d="M134.49,98.5v-0.38l0.48-0.47c1.16-1.11,1.69-1.69,1.69-2.38c0-0.46-0.22-0.89-0.9-0.89
		c-0.41,0-0.76,0.21-0.97,0.38l-0.2-0.43c0.32-0.27,0.76-0.46,1.29-0.46c0.98,0,1.39,0.67,1.39,1.32c0,0.84-0.61,1.52-1.57,2.44
		l-0.36,0.34v0.01h2.04v0.51H134.49z"/>
</g>
<rect x="122.46" y="43.37" class="st5" width="19.84" height="45.43"/>
<g>
	<path class="st6" d="M129.21,85.97v-1.24h-2.12v-0.41l2.03-2.91h0.67v2.83h0.64v0.48h-0.64v1.24H129.21z M129.21,84.25v-1.52
		c0-0.24,0.01-0.48,0.02-0.71h-0.02c-0.14,0.27-0.25,0.46-0.38,0.67l-1.11,1.55v0.01H129.21z"/>
	<path class="st6" d="M133.92,83.65c0,1.55-0.57,2.4-1.58,2.4c-0.89,0-1.49-0.83-1.51-2.34c0-1.53,0.66-2.37,1.58-2.37
		C133.38,81.34,133.92,82.2,133.92,83.65z M131.45,83.72c0,1.18,0.36,1.86,0.92,1.86c0.63,0,0.93-0.74,0.93-1.9
		c0-1.12-0.29-1.86-0.92-1.86C131.84,81.82,131.45,82.48,131.45,83.72z"/>
	<path class="st6" d="M137.09,81.85c-0.13-0.01-0.29,0-0.46,0.03c-0.97,0.16-1.48,0.87-1.58,1.62h0.02c0.22-0.29,0.59-0.53,1.1-0.53
		c0.81,0,1.37,0.58,1.37,1.47c0,0.83-0.57,1.6-1.51,1.6c-0.97,0-1.61-0.76-1.61-1.94c0-0.9,0.32-1.6,0.77-2.05
		c0.38-0.37,0.88-0.6,1.46-0.67c0.18-0.03,0.34-0.03,0.45-0.03V81.85z M136.91,84.48c0-0.65-0.37-1.04-0.94-1.04
		c-0.37,0-0.71,0.23-0.88,0.56c-0.04,0.07-0.07,0.16-0.07,0.27c0.01,0.75,0.36,1.3,1,1.3C136.55,85.57,136.91,85.13,136.91,84.48z"
		/>
</g>
<g>
	<path class="st2" d="M125.51,112.68v-0.38l0.48-0.47c1.16-1.11,1.69-1.69,1.7-2.38c0-0.46-0.22-0.89-0.9-0.89
		c-0.41,0-0.76,0.21-0.97,0.38l-0.2-0.43c0.32-0.27,0.76-0.46,1.29-0.46c0.98,0,1.39,0.67,1.39,1.32c0,0.84-0.61,1.52-1.57,2.44
		l-0.36,0.34v0.01h2.04v0.51H125.51z"/>
	<path class="st2" d="M132.13,110.35c0,1.55-0.57,2.4-1.58,2.4c-0.89,0-1.49-0.83-1.51-2.34c0-1.53,0.66-2.37,1.58-2.37
		C131.59,108.05,132.13,108.9,132.13,110.35z M129.66,110.42c0,1.18,0.36,1.86,0.92,1.86c0.63,0,0.93-0.74,0.93-1.9
		c0-1.12-0.29-1.86-0.92-1.86C130.05,108.52,129.66,109.18,129.66,110.42z"/>
	<path class="st2" d="M134.03,108.7h-0.01l-0.79,0.43l-0.12-0.47l0.99-0.53h0.53v4.55h-0.59V108.7z"/>
	<path class="st2" d="M139.24,108.12v0.41l-1.98,4.15h-0.64l1.97-4.03v-0.01h-2.23v-0.51H139.24z"/>
</g>
<rect x="159.02" y="87.8" class="st3" width="19.84" height="13.54"/>
<g>
	<path class="st2" d="M165.21,94.53h-0.01l-0.79,0.43l-0.12-0.47l0.99-0.53h0.53v4.55h-0.59V94.53z"/>
	<path class="st2" d="M167.46,98.5v-0.38l0.48-0.47c1.16-1.11,1.69-1.69,1.69-2.38c0-0.46-0.22-0.89-0.9-0.89
		c-0.41,0-0.76,0.21-0.97,0.38l-0.2-0.43c0.32-0.27,0.76-0.46,1.29-0.46c0.98,0,1.39,0.67,1.39,1.32c0,0.84-0.61,1.52-1.57,2.44
		l-0.36,0.34v0.01h2.04v0.51H167.46z"/>
	<path class="st2" d="M172.39,94.53h-0.01l-0.79,0.43l-0.12-0.47l0.99-0.53h0.53v4.55h-0.59V94.53z"/>
</g>
<rect x="159.02" y="26.25" class="st5" width="19.84" height="61.55"/>
<g>
	<path class="st6" d="M166.59,80.93h-1.74l-0.17,1.17c0.1-0.01,0.2-0.03,0.37-0.03c0.35,0,0.7,0.08,0.98,0.25
		c0.36,0.2,0.65,0.6,0.65,1.17c0,0.89-0.71,1.55-1.7,1.55c-0.5,0-0.92-0.14-1.13-0.28l0.15-0.47c0.19,0.11,0.56,0.25,0.97,0.25
		c0.58,0,1.08-0.38,1.08-0.99c-0.01-0.59-0.4-1.01-1.31-1.01c-0.26,0-0.46,0.03-0.63,0.05l0.29-2.19h2.18V80.93z"/>
	<path class="st6" d="M170.18,80.93h-1.74l-0.18,1.17c0.11-0.01,0.2-0.03,0.37-0.03c0.35,0,0.7,0.08,0.98,0.25
		c0.36,0.2,0.65,0.6,0.65,1.17c0,0.89-0.71,1.55-1.7,1.55c-0.5,0-0.92-0.14-1.13-0.28l0.15-0.47c0.19,0.11,0.56,0.25,0.97,0.25
		c0.58,0,1.08-0.38,1.08-0.99c-0.01-0.59-0.4-1.01-1.31-1.01c-0.26,0-0.46,0.03-0.63,0.05l0.29-2.19h2.18V80.93z"/>
	<path class="st6" d="M174.08,82.64c0,1.55-0.57,2.4-1.58,2.4c-0.89,0-1.49-0.83-1.51-2.34c0-1.53,0.66-2.37,1.58-2.37
		C173.53,80.33,174.08,81.19,174.08,82.64z M171.61,82.71c0,1.18,0.36,1.86,0.92,1.86c0.63,0,0.93-0.74,0.93-1.9
		c0-1.12-0.29-1.86-0.92-1.86C172,80.81,171.61,81.47,171.61,82.71z"/>
</g>
<g>
	<path class="st2" d="M162.08,112.68v-0.38l0.48-0.47c1.16-1.11,1.69-1.69,1.69-2.38c0-0.46-0.22-0.89-0.9-0.89
		c-0.41,0-0.76,0.21-0.97,0.38l-0.2-0.43c0.32-0.27,0.76-0.46,1.29-0.46c0.98,0,1.39,0.67,1.39,1.32c0,0.84-0.61,1.52-1.57,2.44
		l-0.36,0.34v0.01h2.04v0.51H162.08z"/>
	<path class="st2" d="M168.7,110.35c0,1.55-0.57,2.4-1.58,2.4c-0.89,0-1.49-0.83-1.51-2.34c0-1.53,0.66-2.37,1.58-2.37
		C168.15,108.05,168.7,108.9,168.7,110.35z M166.23,110.42c0,1.18,0.36,1.86,0.92,1.86c0.63,0,0.93-0.74,0.93-1.9
		c0-1.12-0.29-1.86-0.92-1.86C166.62,108.52,166.23,109.18,166.23,110.42z"/>
	<path class="st2" d="M170.6,108.7h-0.01l-0.79,0.43l-0.12-0.47l0.99-0.53h0.53v4.55h-0.59V108.7z"/>
	<path class="st2" d="M172.8,111.52c0-0.57,0.34-0.98,0.9-1.22l-0.01-0.02c-0.5-0.24-0.72-0.63-0.72-1.02
		c0-0.72,0.61-1.21,1.41-1.21c0.88,0,1.32,0.55,1.32,1.12c0,0.38-0.19,0.8-0.75,1.06v0.02c0.57,0.22,0.92,0.62,0.92,1.18
		c0,0.79-0.68,1.32-1.55,1.32C173.37,112.75,172.8,112.19,172.8,111.52z M175.25,111.49c0-0.55-0.39-0.82-1-0.99
		c-0.53,0.15-0.82,0.5-0.82,0.94c-0.02,0.46,0.33,0.87,0.91,0.87C174.89,112.31,175.25,111.96,175.25,111.49z M173.55,109.22
		c0,0.46,0.34,0.7,0.87,0.84c0.39-0.13,0.69-0.41,0.69-0.83c0-0.36-0.22-0.74-0.77-0.74C173.83,108.49,173.55,108.82,173.55,109.22z
		"/>
</g>
<rect x="195.59" y="23.01" class="st7" width="19.84" height="78.33"/>
<g>
	<path class="st2" d="M198.54,112.88v-0.38l0.48-0.47c1.16-1.11,1.69-1.69,1.69-2.38c0-0.46-0.22-0.89-0.9-0.89
		c-0.41,0-0.76,0.21-0.97,0.38l-0.2-0.43c0.32-0.27,0.76-0.46,1.29-0.46c0.98,0,1.39,0.67,1.39,1.32c0,0.84-0.61,1.52-1.57,2.44
		l-0.36,0.34v0.01h2.04v0.51H198.54z"/>
	<path class="st2" d="M205.16,110.55c0,1.55-0.57,2.4-1.58,2.4c-0.89,0-1.49-0.83-1.51-2.34c0-1.53,0.66-2.37,1.58-2.37
		C204.61,108.25,205.16,109.1,205.16,110.55z M202.69,110.63c0,1.18,0.36,1.86,0.92,1.86c0.63,0,0.93-0.74,0.93-1.9
		c0-1.12-0.29-1.86-0.92-1.86C203.08,108.73,202.69,109.38,202.69,110.63z"/>
	<path class="st2" d="M207.06,108.9h-0.01l-0.79,0.43l-0.12-0.47l0.99-0.53h0.53v4.55h-0.59V108.9z"/>
	<path class="st2" d="M209.67,112.45c0.13,0.01,0.29,0,0.5-0.02c0.36-0.05,0.69-0.2,0.95-0.44c0.3-0.27,0.52-0.67,0.6-1.21h-0.02
		c-0.25,0.31-0.62,0.49-1.07,0.49c-0.82,0-1.34-0.62-1.34-1.39c0-0.86,0.62-1.62,1.55-1.62s1.51,0.76,1.51,1.92
		c0,1-0.34,1.7-0.78,2.14c-0.35,0.34-0.83,0.55-1.32,0.61c-0.22,0.04-0.42,0.04-0.57,0.04V112.45z M209.9,109.83
		c0,0.57,0.34,0.97,0.88,0.97c0.41,0,0.74-0.2,0.9-0.48c0.04-0.06,0.06-0.13,0.06-0.22c0-0.78-0.29-1.37-0.93-1.37
		C210.27,108.72,209.9,109.18,209.9,109.83z"/>
</g>
<g>
	<path class="st2" d="M193.97,114.21c0.29-0.05,0.68-0.09,1.17-0.09c0.6,0,1.04,0.14,1.32,0.39c0.26,0.22,0.41,0.57,0.41,0.99
		c0,0.43-0.13,0.76-0.36,1.01c-0.32,0.34-0.85,0.52-1.44,0.52c-0.18,0-0.35-0.01-0.49-0.04v1.89h-0.61V114.21z M194.58,116.49
		c0.13,0.04,0.3,0.05,0.5,0.05c0.74,0,1.18-0.36,1.18-1.01c0-0.62-0.44-0.92-1.11-0.92c-0.27,0-0.47,0.02-0.57,0.05V116.49z"/>
	<path class="st2" d="M197.64,113.91h0.62v4.97h-0.62V113.91z"/>
	<path class="st2" d="M201.17,118.88l-0.05-0.43h-0.02c-0.19,0.27-0.55,0.5-1.04,0.5c-0.69,0-1.04-0.48-1.04-0.97
		c0-0.82,0.73-1.27,2.04-1.26v-0.07c0-0.28-0.08-0.78-0.77-0.78c-0.32,0-0.64,0.1-0.88,0.25l-0.14-0.41c0.28-0.18,0.69-0.3,1.11-0.3
		c1.04,0,1.29,0.71,1.29,1.39v1.27c0,0.29,0.01,0.58,0.06,0.81H201.17z M201.08,117.15c-0.67-0.01-1.44,0.1-1.44,0.76
		c0,0.4,0.27,0.59,0.58,0.59c0.44,0,0.72-0.28,0.82-0.57c0.02-0.06,0.03-0.13,0.03-0.2V117.15z"/>
	<path class="st2" d="M202.66,116.41c0-0.35-0.01-0.64-0.03-0.92h0.55l0.04,0.56h0.01c0.17-0.32,0.56-0.64,1.12-0.64
		c0.47,0,1.2,0.28,1.2,1.44v2.02h-0.62v-1.95c0-0.55-0.2-1-0.78-1c-0.41,0-0.72,0.29-0.83,0.63c-0.03,0.08-0.04,0.18-0.04,0.29v2.04
		h-0.62V116.41z"/>
	<path class="st2" d="M206.55,116.41c0-0.35-0.01-0.64-0.03-0.92h0.55l0.04,0.56h0.01c0.17-0.32,0.56-0.64,1.12-0.64
		c0.47,0,1.2,0.28,1.2,1.44v2.02h-0.62v-1.95c0-0.55-0.2-1-0.78-1c-0.41,0-0.72,0.29-0.83,0.63c-0.03,0.08-0.04,0.18-0.04,0.29v2.04
		h-0.62V116.41z"/>
	<path class="st2" d="M210.78,117.3c0.01,0.83,0.55,1.18,1.16,1.18c0.44,0,0.71-0.08,0.94-0.17l0.1,0.44
		c-0.22,0.1-0.59,0.21-1.13,0.21c-1.04,0-1.67-0.69-1.67-1.71s0.6-1.83,1.59-1.83c1.11,0,1.4,0.97,1.4,1.6
		c0,0.13-0.01,0.22-0.02,0.29H210.78z M212.58,116.85c0.01-0.39-0.16-1-0.85-1c-0.62,0-0.9,0.57-0.95,1H212.58z"/>
	<path class="st2" d="M216.87,113.91v4.1c0,0.3,0.01,0.64,0.03,0.88h-0.55l-0.03-0.59h-0.01c-0.19,0.38-0.6,0.67-1.16,0.67
		c-0.82,0-1.45-0.69-1.45-1.72c-0.01-1.13,0.69-1.82,1.52-1.82c0.52,0,0.87,0.25,1.02,0.52h0.01v-2.02H216.87z M216.25,116.87
		c0-0.08-0.01-0.18-0.03-0.26c-0.09-0.39-0.43-0.71-0.89-0.71c-0.64,0-1.02,0.56-1.02,1.31c0,0.69,0.34,1.25,1,1.25
		c0.41,0,0.79-0.27,0.9-0.74c0.02-0.08,0.03-0.17,0.03-0.27V116.87z"/>
</g>
<g>
	<defs>
		<rect id="SVGID_5_" width="229.67" height="150.5"/>
	</defs>
	<clipPath id="SVGID_6_">
		<use xlink:href="#SVGID_5_"  style="overflow:visible;"/>
	</clipPath>
	<line class="st8" x1="0.06" y1="123.93" x2="229.67" y2="123.93"/>
</g>
</svg>
