<?xml version="1.0" encoding="utf-8"?>
<!-- Generator: Adobe Illustrator 23.0.0, SVG Export Plug-In . SVG Version: 6.00 Build 0)  -->
<svg version="1.1" id="Layer_1" xmlns="http://www.w3.org/2000/svg" xmlns:xlink="http://www.w3.org/1999/xlink" x="0px" y="0px"
	 viewBox="0 0 481.89 198.95" style="enable-background:new 0 0 481.89 198.95;" xml:space="preserve">
<style type="text/css">
	.st0{fill:#003767;}
	.st1{clip-path:url(#SVGID_2_);fill:#231F20;}
	.st2{fill:#7DC242;}
	.st3{clip-path:url(#SVGID_4_);fill:#231F20;}
	.st4{clip-path:url(#SVGID_6_);fill:#231F20;}
	.st5{fill:#64BDE1;}
	.st6{clip-path:url(#SVGID_8_);fill:#231F20;}
	.st7{clip-path:url(#SVGID_10_);fill:#231F20;}
	.st8{clip-path:url(#SVGID_12_);fill:#231F20;}
	.st9{clip-path:url(#SVGID_14_);fill:#231F20;}
	.st10{clip-path:url(#SVGID_16_);fill:#231F20;}
	.st11{clip-path:url(#SVGID_16_);fill:#3AA7CC;}
	.st12{clip-path:url(#SVGID_16_);fill:none;stroke:#003767;stroke-width:0.35;}
</style>
<rect x="43.94" y="49.28" class="st0" width="19.84" height="119.4"/>
<g>
	<defs>
		<rect id="SVGID_1_" width="481.89" height="198.95"/>
	</defs>
	<clipPath id="SVGID_2_">
		<use xlink:href="#SVGID_1_"  style="overflow:visible;"/>
	</clipPath>
	<path class="st1" d="M58.27,44.02v0.55h1.79v1.2h0.59v-1.2h0.56v-0.5h-0.56v-3.25h-0.59L58.27,44.02z M60.05,41.78h0.01v2.29H58.8
		L60.05,41.78z M54.96,41.46h2.27c-0.48,0.63-0.88,1.33-1.18,2.06c-0.31,0.74-0.51,1.51-0.6,2.25h0.68
		c0.09-1.01,0.36-1.88,0.68-2.65c0.31-0.74,0.7-1.34,0.97-1.7v-0.51h-2.83V41.46z M54.4,45.23h-2.13c0.07-0.33,0.27-0.62,0.54-0.85
		l0.7-0.61c0.55-0.48,0.87-0.88,0.87-1.63c0-0.43-0.18-1.32-1.33-1.32c-1.01,0-1.41,0.64-1.41,1.57h0.62c0-0.28,0.02-1.07,0.78-1.07
		c0.53,0,0.72,0.46,0.72,0.89c0,0.55-0.26,0.85-0.66,1.19l-0.41,0.34c-0.55,0.48-1.07,1.11-1.07,2.03h2.77V45.23z M49.36,45.23
		h-2.13c0.07-0.33,0.27-0.62,0.54-0.85l0.7-0.61c0.55-0.48,0.87-0.88,0.87-1.63c0-0.43-0.18-1.32-1.33-1.32
		c-1.01,0-1.41,0.64-1.41,1.57h0.61c0-0.28,0.02-1.07,0.78-1.07c0.53,0,0.72,0.46,0.72,0.89c0,0.55-0.26,0.85-0.66,1.19l-0.41,0.34
		c-0.55,0.48-1.07,1.11-1.07,2.03h2.77V45.23z"/>
	<path class="st1" d="M63.42,197.52h0.47v-5.35h-0.47V197.52z M59.94,194.84c0.02-0.63,0.45-0.9,1.04-0.9
		c0.55,0,1.01,0.16,1.01,0.79c0,0.43-0.22,0.48-0.61,0.52c-1.02,0.12-2.08,0.16-2.08,1.25c0,0.78,0.58,1.13,1.3,1.13
		c0.74,0,1.08-0.28,1.41-0.79h0.01c0,0.4,0.08,0.67,0.55,0.67c0.13,0,0.2-0.01,0.31-0.03v-0.4c-0.04,0.02-0.1,0.03-0.15,0.03
		c-0.19,0-0.28-0.11-0.28-0.29v-2.06c0-1.03-0.74-1.24-1.42-1.24c-0.89,0-1.52,0.39-1.57,1.3H59.94z M61.99,196.02
		c0.01,0.76-0.63,1.22-1.35,1.22c-0.44,0-0.86-0.29-0.86-0.77c0-0.76,1-0.75,1.8-0.89c0.13-0.02,0.34-0.06,0.4-0.17h0.01V196.02z
		 M58.05,192.49h-0.47v1.16H56.9v0.4h0.67v2.65c-0.01,0.66,0.21,0.87,0.84,0.87c0.14,0,0.28-0.01,0.42-0.01v-0.4
		c-0.14,0.01-0.27,0.02-0.41,0.02c-0.34-0.02-0.38-0.2-0.38-0.51v-2.61h0.79v-0.4h-0.79V192.49z M55.92,192.92h0.47v-0.76h-0.47
		V192.92z M55.92,197.52h0.47v-3.87h-0.47V197.52z M51.6,198.95h0.47v-2.17h0.02c0.2,0.55,0.76,0.85,1.34,0.85
		c1.18,0,1.74-0.95,1.74-2.05c0-1.1-0.56-2.05-1.74-2.05c-0.62,0-1.16,0.32-1.38,0.85h-0.01v-0.73H51.6V198.95z M54.7,195.59
		c0,0.8-0.37,1.65-1.27,1.65c-1.01,0-1.36-0.85-1.36-1.65c0-0.88,0.32-1.65,1.36-1.65C54.33,193.94,54.7,194.78,54.7,195.59
		 M48.14,194.84c0.02-0.63,0.45-0.9,1.04-0.9c0.55,0,1.01,0.16,1.01,0.79c0,0.43-0.22,0.48-0.61,0.52
		c-1.02,0.12-2.08,0.16-2.08,1.25c0,0.78,0.58,1.13,1.3,1.13c0.74,0,1.08-0.28,1.41-0.79h0.01c0,0.4,0.08,0.67,0.55,0.67
		c0.13,0,0.2-0.01,0.31-0.03v-0.4c-0.04,0.02-0.1,0.03-0.15,0.03c-0.19,0-0.28-0.11-0.28-0.29v-2.06c0-1.03-0.74-1.24-1.42-1.24
		c-0.88,0-1.52,0.39-1.57,1.3H48.14z M50.19,196.02c0.01,0.76-0.63,1.22-1.35,1.22c-0.44,0-0.86-0.29-0.86-0.77
		c0-0.76,1-0.75,1.8-0.89c0.13-0.02,0.34-0.06,0.4-0.17h0.01V196.02z M47.02,194.87c-0.11-0.88-0.74-1.33-1.57-1.33
		c-1.19,0-1.83,0.94-1.83,2.05c0,1.11,0.64,2.05,1.83,2.05c0.86,0,1.47-0.57,1.6-1.5h-0.47c-0.06,0.65-0.54,1.1-1.12,1.1
		c-0.91,0-1.36-0.83-1.36-1.65s0.45-1.65,1.36-1.65c0.61,0,0.97,0.35,1.09,0.93H47.02z"/>
	<path class="st1" d="M77.38,184.65h-0.47v0.67h-0.02c-0.19-0.43-0.67-0.78-1.23-0.78c-1.12,0-1.75,0.88-1.75,1.95
		c0,1.1,0.51,1.99,1.75,1.99c0.56,0,1.01-0.32,1.23-0.79h0.02v0.52c0,0.95-0.38,1.46-1.25,1.46c-0.53,0-1.03-0.2-1.13-0.77h-0.47
		c0.07,0.82,0.83,1.17,1.61,1.17c1.27,0,1.71-0.71,1.72-1.86V184.65z M75.66,188.08c-0.87,0-1.28-0.76-1.28-1.54
		c0-0.8,0.38-1.61,1.28-1.61c0.89,0,1.25,0.85,1.25,1.61C76.91,187.33,76.48,188.08,75.66,188.08 M70.07,188.52h0.47v-2.26
		c0.01-0.76,0.46-1.33,1.21-1.33c0.76,0,0.98,0.5,0.98,1.17v2.41h0.47v-2.49c0-0.92-0.33-1.49-1.42-1.49
		c-0.55,0-1.07,0.31-1.24,0.78h-0.01v-0.67h-0.47V188.52z M68.7,183.92h0.47v-0.76H68.7V183.92z M68.7,188.52h0.47v-3.87H68.7
		V188.52z M64.94,188.52h0.47v-1.47l0.76-0.64l1.53,2.11h0.59l-1.76-2.44l1.65-1.43h-0.63l-2.15,1.88v-3.36h-0.47V188.52z
		 M62.58,188.52h0.47v-2.06c0-0.8,0.59-1.43,1.44-1.39v-0.47c-0.7-0.03-1.22,0.34-1.46,0.96h-0.01v-0.91h-0.43V188.52z
		 M60.05,184.94c0.91,0,1.36,0.83,1.36,1.65s-0.45,1.65-1.36,1.65c-0.91,0-1.36-0.82-1.36-1.65S59.14,184.94,60.05,184.94
		 M60.05,184.54c-1.18,0-1.83,0.94-1.83,2.05s0.64,2.05,1.83,2.05c1.19,0,1.83-0.94,1.83-2.05S61.23,184.54,60.05,184.54
		 M53.71,188.52h0.52l0.94-3.26h0.02l0.95,3.26h0.52l1.25-3.87h-0.5l-0.99,3.31h-0.01l-0.95-3.31h-0.53l-0.94,3.31h-0.02l-0.99-3.31
		h-0.5L53.71,188.52z M47.15,186.32c0.08-0.71,0.5-1.38,1.28-1.38c0.77,0,1.21,0.67,1.23,1.38H47.15z M50.13,186.71
		c0.04-1.09-0.46-2.17-1.7-2.17c-1.23,0-1.75,1.03-1.75,2.05c0,1.1,0.52,2.05,1.75,2.05c0.98,0,1.49-0.51,1.69-1.39h-0.47
		c-0.15,0.58-0.53,0.99-1.22,0.99c-0.91,0-1.27-0.83-1.28-1.52H50.13z M44.65,188.52h0.47v-2.06c0-0.8,0.58-1.43,1.44-1.39v-0.47
		c-0.7-0.03-1.22,0.34-1.46,0.96h-0.01v-0.91h-0.43V188.52z M42.11,184.94c0.91,0,1.36,0.83,1.36,1.65s-0.45,1.65-1.36,1.65
		s-1.36-0.82-1.36-1.65S41.21,184.94,42.11,184.94 M42.11,184.54c-1.19,0-1.83,0.94-1.83,2.05s0.64,2.05,1.83,2.05
		c1.19,0,1.83-0.94,1.83-2.05S43.3,184.54,42.11,184.54 M40.03,184.65h-0.76v-0.34c0.01-0.42-0.01-0.75,0.52-0.75
		c0.11,0,0.22,0.01,0.35,0.04v-0.4c-0.15-0.02-0.26-0.03-0.4-0.03c-0.76,0-0.94,0.46-0.94,1.13v0.35h-0.66v0.4h0.66v3.47h0.47v-3.47
		h0.76V184.65z M34.92,186.32c0.08-0.71,0.5-1.38,1.28-1.38c0.77,0,1.21,0.67,1.23,1.38H34.92z M37.9,186.71
		c0.04-1.09-0.46-2.17-1.7-2.17c-1.23,0-1.75,1.03-1.75,2.05c0,1.1,0.52,2.05,1.75,2.05c0.98,0,1.49-0.51,1.69-1.39h-0.47
		c-0.15,0.58-0.53,0.99-1.22,0.99c-0.91,0-1.27-0.83-1.28-1.52H37.9z M30.34,188.52h0.44v-0.74h0.01c0.22,0.52,0.76,0.85,1.38,0.85
		c1.18,0,1.74-0.95,1.74-2.05s-0.56-2.05-1.74-2.05c-0.58,0-1.14,0.29-1.34,0.85h-0.02v-2.22h-0.47V188.52z M33.44,186.59
		c0,0.8-0.37,1.65-1.27,1.65c-1,0-1.36-0.85-1.36-1.65c0-0.8,0.35-1.65,1.36-1.65C33.07,184.94,33.44,185.78,33.44,186.59"/>
	<path class="st1" d="M77.91,174.49h-0.47v1.16h-0.67v0.4h0.67v2.65c-0.01,0.66,0.21,0.87,0.84,0.87c0.14,0,0.28-0.01,0.42-0.01
		v-0.4c-0.14,0.01-0.27,0.02-0.4,0.02c-0.34-0.02-0.38-0.2-0.38-0.51v-2.61h0.79v-0.4h-0.79V174.49z M75.78,174.92h0.47v-0.76h-0.47
		V174.92z M74.09,179.52h0.47v-3.47h0.77v-0.4h-0.77v-0.34c0.01-0.42-0.01-0.75,0.52-0.75c0.11,0,0.22,0.01,0.35,0.04v-0.4
		c-0.15-0.02-0.26-0.03-0.4-0.03c-0.76,0-0.94,0.46-0.94,1.13v0.35h-0.66v0.4h0.66V179.52z M75.78,179.52h0.47v-3.87h-0.47V179.52z
		 M71.3,175.94c0.91,0,1.36,0.82,1.36,1.65c0,0.83-0.45,1.65-1.36,1.65c-0.91,0-1.36-0.82-1.36-1.65
		C69.94,176.76,70.39,175.94,71.3,175.94 M71.3,175.54c-1.18,0-1.83,0.94-1.83,2.05c0,1.11,0.64,2.05,1.83,2.05
		c1.19,0,1.83-0.94,1.83-2.05C73.13,176.48,72.48,175.54,71.3,175.54 M67.44,179.52h0.47v-2.06c0-0.8,0.58-1.43,1.44-1.39v-0.47
		c-0.7-0.03-1.22,0.34-1.46,0.96h-0.01v-0.91h-0.43V179.52z M63.13,180.95h0.47v-2.17h0.01c0.2,0.56,0.76,0.85,1.34,0.85
		c1.18,0,1.74-0.95,1.74-2.05c0-1.09-0.56-2.05-1.74-2.05c-0.62,0-1.16,0.32-1.38,0.85h-0.01v-0.73h-0.43V180.95z M66.23,177.59
		c0,0.8-0.37,1.65-1.27,1.65c-1.01,0-1.36-0.85-1.36-1.65c0-0.88,0.31-1.65,1.36-1.65C65.86,175.94,66.23,176.78,66.23,177.59
		 M60.15,175.65h-0.47v0.67h-0.01c-0.19-0.43-0.67-0.78-1.23-0.78c-1.12,0-1.75,0.89-1.75,1.95c0,1.1,0.51,1.99,1.75,1.99
		c0.56,0,1.01-0.32,1.23-0.79h0.01v0.52c0,0.95-0.38,1.46-1.24,1.46c-0.53,0-1.03-0.2-1.13-0.77h-0.47c0.07,0.83,0.83,1.17,1.6,1.17
		c1.27,0,1.71-0.7,1.72-1.86V175.65z M58.43,179.08c-0.87,0-1.28-0.76-1.28-1.54c0-0.8,0.38-1.61,1.28-1.61
		c0.89,0,1.24,0.85,1.24,1.61C59.67,178.33,59.25,179.08,58.43,179.08 M52.84,179.52h0.47v-2.26c0.01-0.76,0.47-1.33,1.22-1.33
		c0.76,0,0.98,0.5,0.98,1.17v2.42h0.47v-2.49c0-0.92-0.33-1.49-1.42-1.49c-0.55,0-1.06,0.32-1.24,0.78h-0.01v-0.67h-0.47V179.52z
		 M51.47,174.92h0.47v-0.76h-0.47V174.92z M51.47,179.52h0.47v-3.87h-0.47V179.52z M49.99,174.49h-0.47v1.16h-0.68v0.4h0.68v2.65
		c-0.01,0.66,0.21,0.87,0.84,0.87c0.14,0,0.28-0.01,0.42-0.01v-0.4c-0.13,0.01-0.27,0.02-0.4,0.02c-0.34-0.02-0.38-0.2-0.38-0.51
		v-2.61h0.79v-0.4h-0.79V174.49z M45.78,176.84c0.01-0.63,0.45-0.9,1.03-0.9c0.56,0,1.01,0.16,1.01,0.79c0,0.43-0.22,0.48-0.61,0.53
		c-1.02,0.12-2.08,0.16-2.08,1.25c0,0.78,0.58,1.13,1.3,1.13c0.74,0,1.08-0.29,1.41-0.79h0.01c0,0.41,0.08,0.67,0.55,0.67
		c0.13,0,0.2-0.01,0.31-0.03v-0.4c-0.04,0.01-0.1,0.03-0.15,0.03c-0.19,0-0.28-0.1-0.28-0.29v-2.05c0-1.04-0.74-1.25-1.43-1.25
		c-0.88,0-1.52,0.39-1.57,1.3H45.78z M47.82,178.02c0.01,0.76-0.63,1.21-1.35,1.21c-0.44,0-0.86-0.29-0.86-0.76
		c0-0.76,1-0.75,1.8-0.89c0.13-0.02,0.34-0.06,0.4-0.17h0.02V178.02z M42.99,179.52h0.47v-2.06c0-0.8,0.58-1.43,1.44-1.39v-0.47
		c-0.7-0.03-1.22,0.34-1.46,0.96h-0.02v-0.91h-0.43V179.52z M39.37,177.32c0.08-0.71,0.5-1.38,1.28-1.38c0.77,0,1.21,0.67,1.23,1.38
		H39.37z M42.35,177.71c0.04-1.09-0.46-2.18-1.7-2.18c-1.23,0-1.75,1.03-1.75,2.05c0,1.1,0.52,2.05,1.75,2.05
		c0.98,0,1.49-0.51,1.69-1.39h-0.47c-0.15,0.59-0.53,0.99-1.22,0.99c-0.91,0-1.27-0.83-1.28-1.52H42.35z M34.79,180.95h0.47v-2.17
		h0.01c0.2,0.56,0.77,0.85,1.34,0.85c1.18,0,1.74-0.95,1.74-2.05c0-1.09-0.56-2.05-1.74-2.05c-0.62,0-1.16,0.32-1.38,0.85h-0.01
		v-0.73h-0.44V180.95z M37.89,177.59c0,0.8-0.37,1.65-1.27,1.65c-1.01,0-1.36-0.85-1.36-1.65c0-0.88,0.32-1.65,1.36-1.65
		C37.52,175.94,37.89,176.78,37.89,177.59 M29.55,176.84c0-1.17,0.6-2.35,2.02-2.35c1.41,0,2.01,1.18,2.01,2.35s-0.6,2.35-2.01,2.35
		C30.15,179.2,29.55,178.01,29.55,176.84 M29.04,176.84c0,1.46,0.84,2.79,2.53,2.79c1.68,0,2.52-1.33,2.52-2.79
		s-0.84-2.79-2.52-2.79C29.88,174.05,29.04,175.38,29.04,176.84"/>
</g>
<rect x="97.39" y="39.72" class="st2" width="19.84" height="9.56"/>
<g>
	<defs>
		<rect id="SVGID_3_" width="481.89" height="198.95"/>
	</defs>
	<clipPath id="SVGID_4_">
		<use xlink:href="#SVGID_3_"  style="overflow:visible;"/>
	</clipPath>
	<path class="st3" d="M112.06,35.96h-2.13c0.07-0.33,0.27-0.62,0.54-0.85l0.7-0.61c0.55-0.48,0.87-0.88,0.87-1.63
		c0-0.43-0.18-1.32-1.33-1.32c-1.02,0-1.41,0.64-1.41,1.57h0.61c0-0.28,0.02-1.07,0.79-1.07c0.53,0,0.72,0.46,0.72,0.89
		c0,0.55-0.26,0.85-0.66,1.19l-0.41,0.34c-0.55,0.48-1.07,1.11-1.07,2.03h2.77V35.96z M106.51,35.12c0-0.58,0.23-1.02,0.81-1.02
		c0.57,0,0.81,0.44,0.81,1.02c0,0.58-0.23,1.02-0.81,1.02C106.74,36.14,106.51,35.7,106.51,35.12 M107.31,32.01
		c0.45,0,0.65,0.34,0.65,0.81c0,0.46-0.2,0.81-0.65,0.81c-0.46,0-0.65-0.35-0.65-0.81C106.66,32.35,106.86,32.01,107.31,32.01
		 M105.89,35.14c0,0.65,0.31,1.46,1.42,1.46c1.11,0,1.42-0.81,1.42-1.46c0-0.67-0.28-1.08-0.87-1.27c0.5-0.2,0.72-0.52,0.72-1.06
		c0-0.8-0.48-1.26-1.27-1.26c-0.79,0-1.27,0.46-1.27,1.26c0,0.53,0.22,0.85,0.72,1.06C106.17,34.06,105.89,34.47,105.89,35.14
		 M102.74,32.78h1.06v3.72h0.59v-4.96h-0.42c-0.03,0.7-0.6,0.78-1.22,0.81V32.78z"/>
	<path class="st3" d="M125.83,194.78c-0.03-0.84-0.64-1.25-1.42-1.25c-0.68,0-1.46,0.3-1.46,1.09c0,0.66,0.46,0.87,1.08,1.04
		l0.61,0.14c0.43,0.1,0.85,0.25,0.85,0.71c0,0.54-0.62,0.73-1.06,0.73c-0.63,0-1.1-0.33-1.14-0.97h-0.47
		c0.08,0.94,0.69,1.36,1.59,1.36c0.72,0,1.55-0.32,1.55-1.16c0-0.67-0.56-0.99-1.1-1.07l-0.63-0.14c-0.32-0.08-0.8-0.23-0.8-0.65
		c0-0.5,0.5-0.67,0.92-0.67c0.54,0,0.99,0.26,1.01,0.85H125.83z M121.57,192.49h-0.47v1.16h-0.68v0.4h0.68v2.65
		c-0.01,0.66,0.21,0.87,0.84,0.87c0.14,0,0.28-0.01,0.42-0.01v-0.4c-0.14,0.01-0.27,0.02-0.4,0.02c-0.34-0.02-0.38-0.2-0.38-0.51
		v-2.61h0.79v-0.4h-0.79V192.49z M116.79,197.52h0.47v-2.26c0.01-0.76,0.47-1.33,1.22-1.33c0.76,0,0.98,0.5,0.98,1.17v2.42h0.47
		v-2.49c0-0.92-0.33-1.49-1.42-1.49c-0.55,0-1.07,0.32-1.24,0.78h-0.01v-0.67h-0.47V197.52z M113.18,195.32
		c0.07-0.71,0.5-1.38,1.28-1.38c0.76,0,1.21,0.67,1.23,1.38H113.18z M116.16,195.71c0.04-1.09-0.46-2.18-1.7-2.18
		c-1.23,0-1.75,1.03-1.75,2.05c0,1.1,0.52,2.05,1.75,2.05c0.97,0,1.48-0.51,1.69-1.39h-0.47c-0.15,0.59-0.53,0.99-1.21,0.99
		c-0.91,0-1.27-0.83-1.28-1.52H116.16z M106.66,197.52h0.47v-2.16c0.01-0.81,0.34-1.43,1.15-1.43c0.6,0,0.82,0.43,0.81,0.96v2.62
		h0.47v-2.19c0-0.72,0.23-1.4,1.05-1.4c0.68,0,0.92,0.35,0.92,0.98v2.6H112v-2.62c0-0.92-0.43-1.36-1.28-1.36
		c-0.51,0-1,0.25-1.23,0.76c-0.14-0.51-0.6-0.76-1.11-0.76c-0.61,0-1.02,0.3-1.27,0.76h-0.02v-0.65h-0.43V197.52z M103.04,195.32
		c0.08-0.71,0.5-1.38,1.28-1.38c0.77,0,1.21,0.67,1.23,1.38H103.04z M106.02,195.71c0.04-1.09-0.46-2.18-1.7-2.18
		c-1.23,0-1.75,1.03-1.75,2.05c0,1.1,0.52,2.05,1.75,2.05c0.98,0,1.49-0.51,1.69-1.39h-0.47c-0.15,0.59-0.53,0.99-1.22,0.99
		c-0.91,0-1.27-0.83-1.28-1.52H106.02z M100.35,197.52h0.5l1.45-3.87h-0.49l-1.2,3.4h-0.01l-1.22-3.4h-0.53L100.35,197.52z
		 M96.76,193.94c0.91,0,1.36,0.82,1.36,1.65c0,0.83-0.45,1.65-1.36,1.65s-1.36-0.82-1.36-1.65
		C95.4,194.76,95.85,193.94,96.76,193.94 M96.76,193.54c-1.18,0-1.83,0.94-1.83,2.05c0,1.11,0.65,2.05,1.83,2.05
		s1.83-0.94,1.83-2.05C98.58,194.48,97.94,193.54,96.76,193.54 M88.87,197.52h0.47v-2.16c0.01-0.81,0.34-1.43,1.16-1.43
		c0.6,0,0.82,0.43,0.81,0.96v2.62h0.47v-2.19c0-0.72,0.23-1.4,1.05-1.4c0.67,0,0.92,0.35,0.92,0.98v2.6h0.47v-2.62
		c0-0.92-0.44-1.36-1.28-1.36c-0.51,0-1,0.25-1.23,0.76c-0.14-0.51-0.6-0.76-1.11-0.76c-0.62,0-1.02,0.3-1.27,0.76h-0.02v-0.65
		h-0.43V197.52z"/>
	<path class="st3" d="M116.87,188.52h0.47v-5.35h-0.47V188.52z M113.4,185.84c0.01-0.63,0.45-0.9,1.04-0.9
		c0.55,0,1.01,0.16,1.01,0.79c0,0.43-0.22,0.48-0.61,0.52c-1.02,0.12-2.08,0.16-2.08,1.25c0,0.78,0.58,1.13,1.3,1.13
		c0.74,0,1.08-0.28,1.41-0.79h0.01c0,0.4,0.08,0.67,0.55,0.67c0.13,0,0.2-0.01,0.31-0.03v-0.4c-0.04,0.02-0.1,0.03-0.15,0.03
		c-0.19,0-0.28-0.11-0.28-0.29v-2.06c0-1.03-0.74-1.24-1.42-1.24c-0.89,0-1.52,0.39-1.57,1.3H113.4z M115.45,187.02
		c0.01,0.76-0.63,1.22-1.35,1.22c-0.44,0-0.86-0.29-0.86-0.77c0-0.76,1-0.75,1.8-0.89c0.13-0.02,0.34-0.06,0.4-0.17h0.01V187.02z
		 M111.5,183.49h-0.47v1.16h-0.67v0.4h0.67v2.65c-0.01,0.66,0.21,0.87,0.84,0.87c0.14,0,0.28-0.02,0.42-0.02v-0.4
		c-0.14,0.01-0.27,0.02-0.4,0.02c-0.34-0.02-0.38-0.2-0.38-0.51v-2.61h0.79v-0.4h-0.79V183.49z M109.37,183.92h0.47v-0.76h-0.47
		V183.92z M109.37,188.52h0.47v-3.87h-0.47V188.52z M105.06,189.95h0.47v-2.17h0.02c0.2,0.55,0.76,0.85,1.34,0.85
		c1.18,0,1.74-0.95,1.74-2.05c0-1.1-0.56-2.05-1.74-2.05c-0.62,0-1.16,0.32-1.38,0.85h-0.01v-0.73h-0.43V189.95z M108.16,186.59
		c0,0.8-0.37,1.65-1.27,1.65c-1,0-1.36-0.85-1.36-1.65c0-0.88,0.32-1.65,1.36-1.65C107.79,184.94,108.16,185.78,108.16,186.59
		 M101.59,185.84c0.01-0.63,0.45-0.9,1.04-0.9c0.55,0,1.01,0.16,1.01,0.79c0,0.43-0.22,0.48-0.61,0.52
		c-1.02,0.12-2.08,0.16-2.08,1.25c0,0.78,0.58,1.13,1.3,1.13c0.74,0,1.08-0.28,1.41-0.79h0.01c0,0.4,0.08,0.67,0.55,0.67
		c0.13,0,0.2-0.01,0.31-0.03v-0.4c-0.04,0.02-0.1,0.03-0.15,0.03c-0.19,0-0.28-0.11-0.28-0.29v-2.06c0-1.03-0.74-1.24-1.42-1.24
		c-0.89,0-1.52,0.39-1.57,1.3H101.59z M103.64,187.02c0.01,0.76-0.63,1.22-1.35,1.22c-0.44,0-0.86-0.29-0.86-0.77
		c0-0.76,1-0.75,1.8-0.89c0.13-0.02,0.34-0.06,0.4-0.17h0.01V187.02z M100.47,185.87c-0.11-0.88-0.74-1.33-1.57-1.33
		c-1.19,0-1.83,0.94-1.83,2.05c0,1.11,0.64,2.05,1.83,2.05c0.86,0,1.47-0.57,1.6-1.5h-0.47c-0.06,0.65-0.54,1.1-1.12,1.1
		c-0.91,0-1.36-0.83-1.36-1.65s0.45-1.65,1.36-1.65c0.61,0,0.97,0.35,1.09,0.93H100.47z"/>
	<path class="st3" d="M120.13,175.65h-0.47v0.67h-0.01c-0.19-0.43-0.67-0.78-1.23-0.78c-1.12,0-1.75,0.89-1.75,1.95
		c0,1.1,0.51,1.99,1.75,1.99c0.56,0,1.01-0.32,1.23-0.79h0.01v0.52c0,0.95-0.38,1.46-1.25,1.46c-0.53,0-1.03-0.2-1.13-0.77h-0.47
		c0.07,0.83,0.83,1.17,1.6,1.17c1.27,0,1.71-0.7,1.72-1.86V175.65z M118.41,179.08c-0.87,0-1.28-0.76-1.28-1.54
		c0-0.8,0.38-1.6,1.28-1.6c0.89,0,1.25,0.85,1.25,1.6C119.66,178.33,119.23,179.08,118.41,179.08 M112.82,179.52h0.47v-2.26
		c0.01-0.76,0.46-1.33,1.21-1.33c0.77,0,0.98,0.5,0.98,1.17v2.42h0.47v-2.49c0-0.92-0.33-1.49-1.42-1.49
		c-0.55,0-1.07,0.32-1.24,0.78h-0.01v-0.67h-0.47V179.52z M111.45,174.92h0.47v-0.76h-0.47V174.92z M111.45,179.52h0.47v-3.87h-0.47
		V179.52z M107.69,179.52h0.47v-1.47l0.77-0.64l1.53,2.11h0.59l-1.76-2.44l1.65-1.43h-0.63l-2.15,1.87v-3.36h-0.47V179.52z
		 M105.33,179.52h0.47v-2.06c0-0.8,0.58-1.43,1.44-1.39v-0.47c-0.7-0.03-1.22,0.34-1.46,0.96h-0.01v-0.91h-0.43V179.52z
		 M102.8,175.94c0.91,0,1.36,0.82,1.36,1.65c0,0.83-0.45,1.65-1.36,1.65c-0.91,0-1.36-0.82-1.36-1.65
		C101.44,176.76,101.89,175.94,102.8,175.94 M102.8,175.54c-1.19,0-1.83,0.94-1.83,2.05c0,1.11,0.64,2.05,1.83,2.05
		c1.19,0,1.83-0.94,1.83-2.05C104.63,176.48,103.98,175.54,102.8,175.54 M95.53,179.52h0.55l1.35-4.79h0.01l1.36,4.79h0.54
		l1.48-5.35h-0.51l-1.22,4.69h-0.01l-1.31-4.69h-0.64l-1.3,4.69h-0.02l-1.21-4.69h-0.55L95.53,179.52z"/>
</g>
<rect x="150.84" y="38.88" class="st2" width="19.84" height="0.84"/>
<g>
	<defs>
		<rect id="SVGID_5_" width="481.89" height="198.95"/>
	</defs>
	<clipPath id="SVGID_6_">
		<use xlink:href="#SVGID_5_"  style="overflow:visible;"/>
	</clipPath>
	<path class="st4" d="M161.7,33.86c0-0.52,0.13-1.15,0.78-1.15c0.66,0,0.78,0.63,0.78,1.15c0,0.52-0.17,1.15-0.78,1.15
		C161.86,35.01,161.7,34.38,161.7,33.86 M163.77,31.61c0-0.23-0.1-1.19-1.25-1.19c-1.43,0-1.51,1.57-1.51,2.7
		c0,1.03,0.1,2.35,1.47,2.35c0.92,0,1.4-0.73,1.4-1.69c0-0.93-0.43-1.57-1.29-1.57c-0.55,0-0.85,0.37-0.95,0.55h-0.01v-0.39
		c0-0.26,0.05-1.49,0.88-1.49c0.42,0,0.65,0.32,0.65,0.73H163.77z M157.87,31.65h1.06v3.72h0.59v-4.96h-0.42
		c-0.03,0.7-0.6,0.78-1.22,0.81V31.65z"/>
	<path class="st4" d="M169.41,186.32c0.07-0.71,0.5-1.38,1.28-1.38c0.76,0,1.21,0.67,1.23,1.38H169.41z M172.39,186.71
		c0.04-1.09-0.46-2.17-1.7-2.17c-1.23,0-1.75,1.03-1.75,2.05c0,1.1,0.52,2.05,1.75,2.05c0.97,0,1.49-0.51,1.69-1.39h-0.47
		c-0.15,0.59-0.53,0.99-1.21,0.99c-0.91,0-1.27-0.83-1.28-1.52H172.39z M162.88,188.52h0.47v-2.16c0.01-0.81,0.34-1.43,1.15-1.43
		c0.6,0,0.82,0.44,0.81,0.96v2.62h0.47v-2.19c0-0.72,0.23-1.4,1.05-1.4c0.68,0,0.92,0.35,0.92,0.98v2.6h0.47v-2.62
		c0-0.92-0.43-1.36-1.28-1.36c-0.51,0-1,0.25-1.23,0.76c-0.14-0.51-0.6-0.76-1.11-0.76c-0.62,0-1.02,0.3-1.27,0.76h-0.02v-0.65
		h-0.43V188.52z M160.35,184.94c0.91,0,1.36,0.83,1.36,1.65s-0.45,1.65-1.36,1.65c-0.91,0-1.36-0.83-1.36-1.65
		S159.44,184.94,160.35,184.94 M160.35,184.54c-1.19,0-1.83,0.94-1.83,2.05s0.64,2.05,1.83,2.05c1.18,0,1.83-0.94,1.83-2.05
		S161.53,184.54,160.35,184.54 M158.02,185.87c-0.1-0.89-0.74-1.33-1.57-1.33c-1.18,0-1.83,0.94-1.83,2.05s0.64,2.05,1.83,2.05
		c0.86,0,1.47-0.57,1.6-1.5h-0.47c-0.06,0.65-0.54,1.1-1.12,1.1c-0.91,0-1.36-0.83-1.36-1.65s0.45-1.65,1.36-1.65
		c0.62,0,0.97,0.35,1.1,0.93H158.02z M150.79,188.52h0.47v-2.26c0.01-0.76,0.47-1.33,1.22-1.33c0.76,0,0.98,0.5,0.98,1.17v2.42h0.47
		v-2.49c0-0.92-0.33-1.49-1.42-1.49c-0.55,0-1.07,0.31-1.24,0.78h-0.01v-0.67h-0.47V188.52z M149.41,183.92h0.47v-0.76h-0.47V183.92
		z M149.41,188.52h0.47v-3.87h-0.47V188.52z"/>
	<path class="st4" d="M175.87,177.32c0.08-0.71,0.5-1.38,1.28-1.38c0.76,0,1.21,0.67,1.23,1.38H175.87z M178.85,177.71
		c0.04-1.09-0.46-2.18-1.7-2.18c-1.23,0-1.75,1.03-1.75,2.05c0,1.1,0.52,2.05,1.75,2.05c0.98,0,1.48-0.51,1.69-1.39h-0.47
		c-0.15,0.59-0.53,0.99-1.22,0.99c-0.91,0-1.27-0.83-1.28-1.52H178.85z M174.9,176.87c-0.1-0.89-0.74-1.33-1.57-1.33
		c-1.19,0-1.83,0.94-1.83,2.05c0,1.11,0.64,2.05,1.83,2.05c0.86,0,1.47-0.57,1.6-1.5h-0.47c-0.06,0.65-0.54,1.1-1.12,1.1
		c-0.91,0-1.36-0.82-1.36-1.65c0-0.82,0.45-1.65,1.36-1.65c0.61,0,0.97,0.35,1.09,0.93H174.9z M167.67,179.52h0.47v-2.26
		c0.01-0.76,0.46-1.33,1.21-1.33c0.77,0,0.98,0.5,0.98,1.17v2.42h0.47v-2.49c0-0.92-0.33-1.49-1.42-1.49
		c-0.55,0-1.07,0.32-1.24,0.78h-0.01v-0.67h-0.47V179.52z M164.21,176.84c0.01-0.63,0.45-0.9,1.03-0.9c0.56,0,1.01,0.16,1.01,0.79
		c0,0.43-0.22,0.48-0.61,0.53c-1.02,0.12-2.08,0.16-2.08,1.25c0,0.78,0.58,1.13,1.3,1.13c0.74,0,1.08-0.29,1.41-0.79h0.01
		c0,0.41,0.07,0.67,0.55,0.67c0.13,0,0.2-0.01,0.31-0.03v-0.4c-0.04,0.01-0.1,0.03-0.15,0.03c-0.19,0-0.28-0.1-0.28-0.29v-2.05
		c0-1.04-0.74-1.25-1.43-1.25c-0.88,0-1.52,0.39-1.57,1.3H164.21z M166.26,178.02c0.01,0.76-0.63,1.21-1.35,1.21
		c-0.44,0-0.86-0.29-0.86-0.76c0-0.76,1-0.75,1.8-0.89c0.13-0.02,0.34-0.06,0.4-0.17h0.01V178.02z M159.75,179.52h0.47v-2.26
		c0.01-0.76,0.46-1.33,1.21-1.33c0.77,0,0.98,0.5,0.98,1.17v2.42h0.47v-2.49c0-0.92-0.33-1.49-1.42-1.49
		c-0.55,0-1.07,0.32-1.24,0.78h-0.01v-0.67h-0.47V179.52z M158.37,174.92h0.47v-0.76h-0.47V174.92z M156.68,179.52h0.47v-3.47h0.77
		v-0.4h-0.77v-0.34c0.01-0.42-0.01-0.75,0.52-0.75c0.11,0,0.22,0.02,0.35,0.04v-0.4c-0.15-0.02-0.26-0.03-0.4-0.03
		c-0.76,0-0.94,0.46-0.94,1.13v0.35h-0.66v0.4h0.66V179.52z M158.37,179.52h0.47v-3.87h-0.47V179.52z M152.87,174.49h-0.47v1.16
		h-0.68v0.4h0.68v2.65c-0.01,0.66,0.21,0.87,0.84,0.87c0.14,0,0.28-0.01,0.42-0.01v-0.4c-0.13,0.01-0.27,0.02-0.4,0.02
		c-0.34-0.02-0.38-0.2-0.38-0.51v-2.61h0.79v-0.4h-0.79V174.49z M148.5,177.32c0.07-0.71,0.5-1.38,1.28-1.38
		c0.76,0,1.21,0.67,1.23,1.38H148.5z M151.48,177.71c0.04-1.09-0.46-2.18-1.7-2.18c-1.23,0-1.75,1.03-1.75,2.05
		c0,1.1,0.52,2.05,1.75,2.05c0.97,0,1.48-0.51,1.69-1.39h-0.47c-0.15,0.59-0.53,0.99-1.21,0.99c-0.91,0-1.27-0.83-1.28-1.52H151.48z
		 M143.03,179.52h0.51v-4.53h0.01l3.12,4.53h0.57v-5.35h-0.51v4.53h-0.01l-3.12-4.53h-0.57V179.52z"/>
</g>
<rect x="204.3" y="38.88" class="st5" width="19.84" height="14.02"/>
<g>
	<defs>
		<rect id="SVGID_7_" width="481.89" height="198.95"/>
	</defs>
	<clipPath id="SVGID_8_">
		<use xlink:href="#SVGID_7_"  style="overflow:visible;"/>
	</clipPath>
	<path class="st6" d="M219.62,62.69c0.66-0.91,1.02-2.03,1.02-3.14c0-1.11-0.36-2.24-1.02-3.14h-0.34c0.52,1,0.77,2.01,0.77,3.14
		c0,1.08-0.2,2.21-0.77,3.14H219.62z M216.16,57.09h2.27c-0.48,0.63-0.88,1.33-1.18,2.06c-0.31,0.74-0.51,1.5-0.6,2.25h0.68
		c0.09-1.01,0.36-1.88,0.68-2.65c0.31-0.74,0.7-1.34,0.97-1.7v-0.51h-2.83V57.09z M213.47,59.89c0-0.52,0.13-1.15,0.78-1.15
		c0.66,0,0.79,0.63,0.79,1.15c0,0.52-0.17,1.15-0.79,1.15C213.64,61.04,213.47,60.41,213.47,59.89 M215.54,57.64
		c0-0.23-0.1-1.19-1.25-1.19c-1.43,0-1.5,1.57-1.5,2.7c0,1.03,0.1,2.35,1.47,2.35c0.93,0,1.4-0.73,1.4-1.69
		c0-0.93-0.43-1.57-1.29-1.57c-0.55,0-0.85,0.37-0.94,0.55h-0.01V58.4c0-0.26,0.05-1.49,0.88-1.49c0.42,0,0.65,0.32,0.65,0.73
		H215.54z M212.24,60.86h-2.13c0.07-0.33,0.27-0.62,0.54-0.85l0.7-0.61c0.55-0.48,0.87-0.88,0.87-1.63c0-0.43-0.18-1.32-1.33-1.32
		c-1.01,0-1.41,0.64-1.41,1.57h0.62c0-0.28,0.02-1.07,0.78-1.07c0.53,0,0.72,0.46,0.72,0.89c0,0.55-0.26,0.85-0.66,1.19l-0.41,0.34
		c-0.55,0.48-1.07,1.11-1.07,2.03h2.77V60.86z M208.81,56.41c-0.67,0.91-1.02,2.03-1.02,3.14c0,1.1,0.36,2.24,1.02,3.14h0.34
		c-0.52-1-0.77-2.01-0.77-3.14c0-1.08,0.2-2.21,0.77-3.14H208.81z"/>
	<path class="st6" d="M223.9,179.52h0.47v-2.26c0.01-0.76,0.46-1.33,1.21-1.33c0.77,0,0.98,0.5,0.98,1.17v2.42h0.47v-2.49
		c0-0.92-0.33-1.49-1.42-1.49c-0.55,0-1.07,0.32-1.24,0.78h-0.01v-0.67h-0.47V179.52z M221.37,175.94c0.91,0,1.36,0.82,1.36,1.65
		c0,0.83-0.45,1.65-1.36,1.65c-0.91,0-1.36-0.82-1.36-1.65C220.01,176.76,220.47,175.94,221.37,175.94 M221.37,175.54
		c-1.19,0-1.83,0.94-1.83,2.05c0,1.11,0.64,2.05,1.83,2.05c1.19,0,1.83-0.94,1.83-2.05C223.2,176.48,222.56,175.54,221.37,175.54
		 M218.36,174.92h0.47v-0.76h-0.47V174.92z M218.36,179.52h0.47v-3.87h-0.47V179.52z M216.88,174.49h-0.47v1.16h-0.68v0.4h0.68v2.65
		c-0.01,0.66,0.21,0.87,0.84,0.87c0.14,0,0.28-0.01,0.42-0.01v-0.4c-0.14,0.01-0.27,0.02-0.4,0.02c-0.34-0.02-0.38-0.2-0.38-0.51
		v-2.61h0.79v-0.4h-0.79V174.49z M212.66,176.84c0.01-0.63,0.45-0.9,1.04-0.9c0.56,0,1.01,0.16,1.01,0.79
		c0,0.43-0.22,0.48-0.61,0.53c-1.02,0.12-2.08,0.16-2.08,1.25c0,0.78,0.58,1.13,1.3,1.13c0.74,0,1.08-0.29,1.41-0.79h0.01
		c0,0.41,0.07,0.67,0.55,0.67c0.13,0,0.2-0.01,0.31-0.03v-0.4c-0.04,0.01-0.1,0.03-0.15,0.03c-0.19,0-0.28-0.1-0.28-0.29v-2.05
		c0-1.04-0.74-1.25-1.42-1.25c-0.89,0-1.52,0.39-1.57,1.3H212.66z M214.71,178.02c0.01,0.76-0.63,1.21-1.35,1.21
		c-0.44,0-0.86-0.29-0.86-0.76c0-0.76,1-0.75,1.8-0.89c0.13-0.02,0.34-0.06,0.4-0.17h0.01V178.02z M208.19,179.52h0.58l1.19-1.63
		l1.22,1.63h0.6l-1.51-2.02l1.4-1.85h-0.59l-1.08,1.47l-1.1-1.47h-0.59l1.39,1.86L208.19,179.52z M205.17,176.84
		c0.01-0.63,0.45-0.9,1.03-0.9c0.56,0,1.01,0.16,1.01,0.79c0,0.43-0.22,0.48-0.61,0.53c-1.02,0.12-2.08,0.16-2.08,1.25
		c0,0.78,0.58,1.13,1.3,1.13c0.74,0,1.08-0.29,1.41-0.79h0.01c0,0.41,0.07,0.67,0.56,0.67c0.13,0,0.2-0.01,0.31-0.03v-0.4
		c-0.04,0.01-0.1,0.03-0.15,0.03c-0.19,0-0.28-0.1-0.28-0.29v-2.05c0-1.04-0.74-1.25-1.42-1.25c-0.89,0-1.52,0.39-1.57,1.3H205.17z
		 M207.21,178.02c0.01,0.76-0.63,1.21-1.35,1.21c-0.44,0-0.86-0.29-0.86-0.76c0-0.76,1-0.75,1.8-0.89c0.13-0.02,0.34-0.06,0.4-0.17
		h0.01V178.02z M200.91,174.6h1.87v4.92h0.51v-4.92h1.87v-0.43h-4.24V174.6z"/>
</g>
<rect x="257.75" y="52.9" class="st5" width="19.84" height="35.23"/>
<g>
	<defs>
		<rect id="SVGID_9_" width="481.89" height="198.95"/>
	</defs>
	<clipPath id="SVGID_10_">
		<use xlink:href="#SVGID_9_"  style="overflow:visible;"/>
	</clipPath>
	<path class="st7" d="M273.08,97.43c0.66-0.91,1.02-2.03,1.02-3.14c0-1.11-0.36-2.24-1.02-3.14h-0.34c0.52,1,0.77,2.01,0.77,3.14
		c0,1.08-0.2,2.21-0.77,3.14H273.08z M269.82,92.42h1.06v3.72h0.59v-4.95h-0.42c-0.03,0.7-0.6,0.78-1.23,0.81V92.42z M266.26,91.83
		h2.27c-0.48,0.63-0.88,1.33-1.18,2.06c-0.31,0.74-0.51,1.5-0.6,2.25h0.68c0.09-1.01,0.36-1.88,0.68-2.65
		c0.31-0.74,0.7-1.34,0.97-1.7v-0.51h-2.83V91.83z M263.56,94.63c0-0.52,0.13-1.15,0.78-1.15c0.66,0,0.79,0.63,0.79,1.15
		c0,0.52-0.17,1.15-0.79,1.15C263.73,95.78,263.56,95.15,263.56,94.63 M265.63,92.38c0-0.23-0.1-1.19-1.25-1.19
		c-1.43,0-1.51,1.57-1.51,2.7c0,1.03,0.1,2.35,1.47,2.35c0.93,0,1.4-0.73,1.4-1.69c0-0.93-0.43-1.57-1.29-1.57
		c-0.55,0-0.85,0.37-0.95,0.55h-0.01v-0.39c0-0.26,0.05-1.49,0.88-1.49c0.42,0,0.65,0.31,0.65,0.73H265.63z M262.27,91.14
		c-0.67,0.91-1.02,2.03-1.02,3.14c0,1.1,0.36,2.24,1.02,3.14h0.34c-0.52-1-0.77-2.01-0.77-3.14c0-1.08,0.2-2.21,0.77-3.14H262.27z"
		/>
	<path class="st7" d="M274.56,179.52h0.58l1.19-1.63l1.22,1.63h0.6l-1.51-2.02l1.39-1.85h-0.59l-1.08,1.47l-1.1-1.47h-0.59
		l1.39,1.86L274.56,179.52z M271.39,177.32c0.07-0.71,0.5-1.38,1.27-1.38c0.77,0,1.21,0.67,1.23,1.38H271.39z M274.36,177.71
		c0.04-1.09-0.46-2.17-1.7-2.17c-1.23,0-1.75,1.03-1.75,2.05c0,1.1,0.52,2.05,1.75,2.05c0.98,0,1.49-0.51,1.69-1.39h-0.47
		c-0.15,0.58-0.53,0.99-1.22,0.99c-0.91,0-1.27-0.83-1.27-1.52H274.36z M266.81,180.95h0.47v-2.17h0.02
		c0.2,0.55,0.76,0.85,1.34,0.85c1.18,0,1.74-0.95,1.74-2.05c0-1.1-0.56-2.05-1.74-2.05c-0.62,0-1.16,0.32-1.38,0.85h-0.02v-0.73
		h-0.43V180.95z M269.9,177.59c0,0.8-0.37,1.65-1.27,1.65c-1.01,0-1.36-0.85-1.36-1.65c0-0.88,0.32-1.65,1.36-1.65
		C269.54,175.94,269.9,176.78,269.9,177.59 M263.34,176.84c0.01-0.63,0.45-0.9,1.04-0.9c0.55,0,1.01,0.16,1.01,0.79
		c0,0.43-0.22,0.48-0.61,0.53c-1.02,0.12-2.08,0.16-2.08,1.24c0,0.78,0.58,1.13,1.3,1.13c0.74,0,1.08-0.28,1.41-0.79h0.02
		c0,0.4,0.08,0.67,0.55,0.67c0.13,0,0.2-0.01,0.31-0.03v-0.4c-0.04,0.01-0.1,0.03-0.15,0.03c-0.19,0-0.28-0.1-0.28-0.29v-2.06
		c0-1.03-0.74-1.24-1.42-1.24c-0.89,0-1.52,0.39-1.57,1.3H263.34z M265.39,178.02c0.01,0.76-0.63,1.22-1.35,1.22
		c-0.44,0-0.86-0.29-0.86-0.77c0-0.76,1-0.75,1.8-0.89c0.13-0.02,0.34-0.06,0.4-0.17h0.02V178.02z M262.15,175.79
		c-0.14-1.12-1.14-1.73-2.15-1.73c-1.69,0-2.53,1.33-2.53,2.79s0.84,2.79,2.53,2.79c1.25,0,2.08-0.84,2.23-2.15h-0.51
		c-0.1,0.95-0.73,1.72-1.72,1.72c-1.42,0-2.02-1.18-2.02-2.35c0-1.17,0.6-2.36,2.02-2.36c0.78,0,1.46,0.47,1.64,1.3H262.15z"/>
</g>
<rect x="311.2" y="88.13" class="st5" width="19.84" height="42.63"/>
<g>
	<defs>
		<rect id="SVGID_11_" width="481.89" height="198.95"/>
	</defs>
	<clipPath id="SVGID_12_">
		<use xlink:href="#SVGID_11_"  style="overflow:visible;"/>
	</clipPath>
	<path class="st8" d="M326.53,140.56c0.66-0.91,1.02-2.03,1.02-3.14c0-1.11-0.36-2.24-1.02-3.14h-0.34c0.52,1,0.77,2.01,0.77,3.14
		c0,1.08-0.2,2.21-0.77,3.14H326.53z M325.87,138.72h-2.13c0.07-0.33,0.27-0.62,0.54-0.85l0.7-0.61c0.55-0.48,0.87-0.88,0.87-1.63
		c0-0.43-0.18-1.32-1.33-1.32c-1.01,0-1.41,0.64-1.41,1.57h0.62c0-0.28,0.02-1.07,0.78-1.07c0.53,0,0.72,0.46,0.72,0.89
		c0,0.55-0.26,0.85-0.66,1.19l-0.41,0.34c-0.55,0.48-1.07,1.11-1.07,2.03h2.77V138.72z M319.91,135.54h1.06v3.72h0.59v-4.95h-0.42
		c-0.03,0.7-0.6,0.78-1.23,0.81V135.54z M316.96,137.88c0-0.58,0.23-1.02,0.8-1.02c0.58,0,0.81,0.44,0.81,1.02
		c0,0.58-0.23,1.02-0.81,1.02C317.19,138.91,316.96,138.46,316.96,137.88 M317.76,134.77c0.45,0,0.65,0.34,0.65,0.81
		c0,0.46-0.2,0.81-0.65,0.81c-0.45,0-0.65-0.35-0.65-0.81C317.11,135.12,317.31,134.77,317.76,134.77 M316.34,137.9
		c0,0.65,0.31,1.46,1.42,1.46c1.11,0,1.42-0.81,1.42-1.46c0-0.67-0.28-1.08-0.87-1.27c0.5-0.2,0.72-0.52,0.72-1.06
		c0-0.8-0.48-1.26-1.27-1.26c-0.78,0-1.27,0.46-1.27,1.26c0,0.53,0.22,0.85,0.72,1.06C316.62,136.83,316.34,137.24,316.34,137.9
		 M315.72,134.27c-0.67,0.91-1.02,2.03-1.02,3.14c0,1.11,0.36,2.24,1.02,3.14h0.34c-0.52-1-0.77-2.01-0.77-3.14
		c0-1.08,0.2-2.21,0.77-3.14H315.72z"/>
	<path class="st8" d="M336.52,176.78c-0.03-0.84-0.64-1.25-1.42-1.25c-0.68,0-1.46,0.3-1.46,1.09c0,0.66,0.46,0.87,1.08,1.04
		l0.61,0.14c0.43,0.1,0.85,0.25,0.85,0.71c0,0.54-0.61,0.73-1.06,0.73c-0.63,0-1.1-0.33-1.14-0.97h-0.47
		c0.07,0.94,0.69,1.36,1.59,1.36c0.72,0,1.55-0.32,1.55-1.16c0-0.67-0.56-0.99-1.1-1.07l-0.63-0.14c-0.32-0.08-0.8-0.23-0.8-0.65
		c0-0.5,0.49-0.67,0.92-0.67c0.54,0,0.99,0.26,1.01,0.85H336.52z M332.83,174.17h-0.47v2.22h-0.02c-0.2-0.55-0.76-0.85-1.34-0.85
		c-1.18,0-1.74,0.95-1.74,2.05c0,1.1,0.56,2.05,1.74,2.05c0.56,0,1.18-0.35,1.38-0.85h0.02v0.73h0.43V174.17z M329.73,177.59
		c0-0.8,0.37-1.65,1.27-1.65c1.01,0,1.36,0.85,1.36,1.65c0,0.8-0.35,1.65-1.36,1.65C330.1,179.24,329.73,178.39,329.73,177.59
		 M325.39,179.52h0.47v-2.26c0.01-0.76,0.47-1.33,1.22-1.33c0.76,0,0.98,0.5,0.98,1.17v2.42h0.47v-2.49c0-0.92-0.33-1.49-1.42-1.49
		c-0.55,0-1.07,0.32-1.24,0.78h-0.01v-0.67h-0.47V179.52z M321.78,177.32c0.08-0.71,0.5-1.38,1.28-1.38c0.77,0,1.21,0.67,1.23,1.38
		H321.78z M324.76,177.71c0.04-1.09-0.46-2.18-1.7-2.18c-1.23,0-1.75,1.03-1.75,2.05c0,1.1,0.52,2.05,1.75,2.05
		c0.98,0,1.49-0.51,1.69-1.39h-0.47c-0.15,0.59-0.52,0.99-1.21,0.99c-0.91,0-1.27-0.83-1.28-1.52H324.76z M320.6,174.17h-0.47v2.22
		h-0.02c-0.2-0.55-0.76-0.85-1.34-0.85c-1.18,0-1.74,0.95-1.74,2.05c0,1.1,0.56,2.05,1.74,2.05c0.56,0,1.18-0.35,1.38-0.85h0.01
		v0.73h0.43V174.17z M317.51,177.59c0-0.8,0.37-1.65,1.27-1.65c1.01,0,1.36,0.85,1.36,1.65c0,0.8-0.35,1.65-1.36,1.65
		C317.87,179.24,317.51,178.39,317.51,177.59 M315.82,174.92h0.47v-0.76h-0.47V174.92z M315.82,179.52h0.47v-3.87h-0.47V179.52z
		 M313.4,179.52h0.5l1.45-3.87h-0.49l-1.2,3.4h-0.02l-1.21-3.4h-0.52L313.4,179.52z M310.96,174.92h0.47v-0.76h-0.47V174.92z
		 M310.96,179.52h0.47v-3.87h-0.47V179.52z M305.9,179.52h1.85c1.61-0.04,2.46-0.92,2.46-2.68c0-1.76-0.85-2.64-2.46-2.68h-1.85
		V179.52z M306.41,174.6h1.09c1.54-0.01,2.21,0.64,2.21,2.24c0,1.6-0.67,2.25-2.21,2.24h-1.09V174.6z"/>
</g>
<rect x="364.66" y="125.46" class="st2" width="19.84" height="5.3"/>
<g>
	<defs>
		<rect id="SVGID_13_" width="481.89" height="198.95"/>
	</defs>
	<clipPath id="SVGID_14_">
		<use xlink:href="#SVGID_13_"  style="overflow:visible;"/>
	</clipPath>
	<path class="st9" d="M376.73,118.23h1.06v3.72h0.59V117h-0.42c-0.03,0.7-0.6,0.78-1.23,0.81V118.23z M373.78,119.55
		c0-1.09,0.04-2.09,0.8-2.09c0.76,0,0.8,0.99,0.8,2.09c0,1.04-0.04,2.04-0.8,2.04C373.82,121.59,373.78,120.59,373.78,119.55
		 M374.58,122.05c1.34,0,1.41-1.46,1.41-2.51c0-1.22-0.08-2.55-1.41-2.55c-1.34,0-1.41,1.46-1.41,2.55
		C373.16,120.72,373.24,122.05,374.58,122.05 M370.01,118.23h1.06v3.72h0.59V117h-0.42c-0.03,0.7-0.6,0.78-1.22,0.81V118.23z"/>
	<path class="st9" d="M387.89,194.78c-0.03-0.84-0.64-1.24-1.42-1.24c-0.68,0-1.45,0.3-1.45,1.09c0,0.66,0.46,0.87,1.08,1.04
		l0.61,0.13c0.43,0.11,0.85,0.26,0.85,0.71c0,0.54-0.62,0.74-1.06,0.74c-0.63,0-1.1-0.33-1.14-0.97h-0.47
		c0.07,0.94,0.69,1.36,1.59,1.36c0.72,0,1.55-0.32,1.55-1.16c0-0.68-0.56-0.99-1.1-1.07l-0.63-0.14c-0.32-0.08-0.8-0.23-0.8-0.65
		c0-0.5,0.49-0.67,0.92-0.67c0.54,0,0.99,0.26,1.01,0.85H387.89z M381.48,195.32c0.08-0.71,0.5-1.38,1.28-1.38
		c0.77,0,1.21,0.67,1.23,1.38H381.48z M384.46,195.71c0.04-1.09-0.46-2.17-1.7-2.17c-1.23,0-1.75,1.03-1.75,2.05
		c0,1.1,0.52,2.05,1.75,2.05c0.98,0,1.49-0.51,1.69-1.39h-0.47c-0.15,0.58-0.52,0.99-1.21,0.99c-0.91,0-1.27-0.83-1.28-1.52H384.46z
		 M379.83,192.92h0.47v-0.76h-0.47V192.92z M379.83,197.52h0.47v-3.87h-0.47V197.52z M378.35,192.49h-0.47v1.16h-0.68v0.4h0.68v2.65
		c-0.01,0.66,0.21,0.87,0.84,0.87c0.14,0,0.28-0.01,0.42-0.01v-0.4c-0.14,0.01-0.27,0.02-0.4,0.02c-0.34-0.02-0.38-0.2-0.38-0.51
		v-2.61h0.79v-0.4h-0.79V192.49z M376.22,192.92h0.47v-0.76h-0.47V192.92z M376.22,197.52h0.47v-3.87h-0.47V197.52z M373.8,197.52
		h0.5l1.45-3.87h-0.49l-1.2,3.4h-0.02l-1.21-3.4h-0.52L373.8,197.52z M371.36,192.92h0.47v-0.76h-0.47V192.92z M371.36,197.52h0.47
		v-3.87h-0.47V197.52z M369.88,192.49h-0.47v1.16h-0.67v0.4h0.67v2.65c-0.01,0.66,0.21,0.87,0.84,0.87c0.14,0,0.28-0.01,0.42-0.01
		v-0.4c-0.14,0.01-0.27,0.02-0.41,0.02c-0.34-0.02-0.38-0.2-0.38-0.51v-2.61h0.79v-0.4h-0.79V192.49z M368.44,194.87
		c-0.11-0.89-0.74-1.33-1.57-1.33c-1.18,0-1.83,0.94-1.83,2.05s0.64,2.05,1.83,2.05c0.86,0,1.47-0.57,1.6-1.5H368
		c-0.06,0.64-0.54,1.1-1.12,1.1c-0.91,0-1.36-0.82-1.36-1.65s0.45-1.65,1.36-1.65c0.62,0,0.97,0.35,1.1,0.93H368.44z M361.78,194.84
		c0.01-0.63,0.45-0.9,1.04-0.9c0.55,0,1.01,0.16,1.01,0.8c0,0.43-0.22,0.48-0.61,0.52c-1.02,0.12-2.08,0.16-2.08,1.24
		c0,0.78,0.58,1.13,1.3,1.13c0.74,0,1.08-0.28,1.41-0.79h0.02c0,0.4,0.08,0.67,0.55,0.67c0.13,0,0.2-0.01,0.31-0.03v-0.4
		c-0.04,0.01-0.1,0.03-0.15,0.03c-0.19,0-0.28-0.1-0.28-0.29v-2.06c0-1.03-0.74-1.24-1.42-1.24c-0.89,0-1.52,0.39-1.57,1.3H361.78z
		 M363.82,196.02c0.01,0.76-0.63,1.21-1.35,1.21c-0.44,0-0.86-0.29-0.86-0.76c0-0.76,1-0.75,1.8-0.89c0.13-0.02,0.34-0.06,0.4-0.17
		h0.02V196.02z"/>
	<path class="st9" d="M395.38,184.65h-0.47v0.67h-0.02c-0.19-0.43-0.67-0.78-1.23-0.78c-1.12,0-1.75,0.88-1.75,1.95
		c0,1.1,0.51,1.99,1.75,1.99c0.55,0,1.01-0.32,1.23-0.79h0.02v0.52c0,0.95-0.38,1.46-1.24,1.46c-0.53,0-1.03-0.2-1.13-0.77h-0.47
		c0.07,0.82,0.83,1.17,1.61,1.17c1.27,0,1.71-0.7,1.72-1.86V184.65z M393.66,188.08c-0.87,0-1.28-0.76-1.28-1.54
		c0-0.8,0.38-1.61,1.28-1.61c0.89,0,1.24,0.85,1.24,1.61C394.91,187.33,394.48,188.08,393.66,188.08 M388.07,188.52h0.47v-2.26
		c0.02-0.76,0.47-1.33,1.22-1.33c0.77,0,0.98,0.5,0.98,1.17v2.41h0.47v-2.49c0-0.92-0.33-1.49-1.42-1.49
		c-0.55,0-1.07,0.31-1.24,0.78h-0.02v-0.67h-0.47V188.52z M386.7,183.92h0.47v-0.76h-0.47V183.92z M386.7,188.52h0.47v-3.87h-0.47
		V188.52z M385.22,183.49h-0.47v1.16h-0.68v0.4h0.68v2.65c-0.01,0.66,0.21,0.87,0.84,0.87c0.14,0,0.28-0.01,0.42-0.01v-0.4
		c-0.13,0.01-0.27,0.02-0.4,0.02c-0.34-0.02-0.38-0.2-0.38-0.51v-2.61h0.79v-0.4h-0.79V183.49z M383.66,185.78
		c-0.03-0.84-0.64-1.24-1.42-1.24c-0.68,0-1.46,0.3-1.46,1.09c0,0.66,0.46,0.87,1.08,1.04l0.61,0.13c0.43,0.11,0.85,0.26,0.85,0.71
		c0,0.54-0.61,0.74-1.06,0.74c-0.63,0-1.1-0.33-1.14-0.97h-0.47c0.08,0.94,0.69,1.36,1.59,1.36c0.72,0,1.55-0.32,1.55-1.16
		c0-0.68-0.56-0.99-1.1-1.07l-0.63-0.14c-0.32-0.08-0.8-0.23-0.8-0.65c0-0.5,0.49-0.67,0.91-0.67c0.54,0,0.99,0.26,1.01,0.85H383.66
		z M377.25,186.32c0.07-0.71,0.5-1.38,1.27-1.38c0.76,0,1.21,0.67,1.23,1.38H377.25z M380.23,186.71c0.04-1.09-0.46-2.17-1.7-2.17
		c-1.23,0-1.75,1.03-1.75,2.05c0,1.1,0.52,2.05,1.75,2.05c0.98,0,1.48-0.51,1.69-1.39h-0.47c-0.15,0.58-0.53,0.99-1.22,0.99
		c-0.91,0-1.27-0.83-1.27-1.52H380.23z M374.56,188.52h0.5l1.45-3.87h-0.49l-1.2,3.4h-0.02l-1.21-3.4h-0.53L374.56,188.52z
		 M369.47,188.52h0.47v-2.26c0.02-0.76,0.47-1.33,1.22-1.33c0.77,0,0.98,0.5,0.98,1.17v2.41h0.47v-2.49c0-0.92-0.33-1.49-1.42-1.49
		c-0.55,0-1.07,0.31-1.24,0.78h-0.02v-0.67h-0.47V188.52z M368.09,183.92h0.47v-0.76h-0.47V183.92z M368.09,188.52h0.47v-3.87h-0.47
		V188.52z M365.1,183.17h-0.47v2.22h-0.01c-0.2-0.56-0.77-0.85-1.34-0.85c-1.18,0-1.74,0.95-1.74,2.05s0.56,2.05,1.74,2.05
		c0.56,0,1.18-0.34,1.38-0.85h0.01v0.73h0.43V183.17z M362,186.59c0-0.8,0.37-1.65,1.27-1.65c1.01,0,1.36,0.85,1.36,1.65
		c0,0.8-0.35,1.65-1.36,1.65C362.37,188.24,362,187.39,362,186.59 M357.66,188.52h0.47v-2.26c0.01-0.76,0.46-1.33,1.21-1.33
		c0.77,0,0.98,0.5,0.98,1.17v2.41h0.47v-2.49c0-0.92-0.33-1.49-1.42-1.49c-0.55,0-1.07,0.31-1.24,0.78h-0.01v-0.67h-0.47V188.52z
		 M354.2,185.84c0.01-0.63,0.45-0.9,1.04-0.9c0.55,0,1.01,0.16,1.01,0.8c0,0.43-0.22,0.48-0.61,0.52c-1.02,0.12-2.08,0.16-2.08,1.24
		c0,0.78,0.58,1.13,1.3,1.13c0.74,0,1.08-0.28,1.41-0.79h0.02c0,0.4,0.08,0.67,0.55,0.67c0.13,0,0.2-0.01,0.31-0.03v-0.4
		c-0.04,0.01-0.1,0.03-0.15,0.03c-0.19,0-0.28-0.1-0.28-0.29v-2.06c0-1.03-0.74-1.24-1.42-1.24c-0.89,0-1.52,0.39-1.57,1.3H354.2z
		 M356.25,187.02c0.01,0.76-0.63,1.21-1.35,1.21c-0.44,0-0.86-0.29-0.86-0.76c0-0.76,1-0.75,1.8-0.89c0.13-0.02,0.34-0.06,0.4-0.17
		h0.02V187.02z"/>
	<path class="st9" d="M398.58,175.65h-0.47v0.67h-0.01c-0.19-0.43-0.67-0.78-1.23-0.78c-1.12,0-1.75,0.89-1.75,1.95
		c0,1.1,0.51,1.99,1.75,1.99c0.55,0,1.01-0.32,1.23-0.79h0.01v0.52c0,0.95-0.38,1.46-1.25,1.46c-0.52,0-1.03-0.2-1.13-0.77h-0.47
		c0.07,0.83,0.83,1.17,1.6,1.17c1.27,0,1.71-0.7,1.72-1.86V175.65z M396.86,179.08c-0.87,0-1.27-0.76-1.27-1.54
		c0-0.8,0.38-1.61,1.27-1.61c0.89,0,1.25,0.85,1.25,1.61C398.11,178.33,397.68,179.08,396.86,179.08 M391.27,179.52h0.47v-2.26
		c0.01-0.76,0.46-1.33,1.21-1.33c0.77,0,0.98,0.5,0.98,1.17v2.42h0.47v-2.49c0-0.92-0.33-1.49-1.42-1.49
		c-0.55,0-1.07,0.32-1.24,0.78h-0.01v-0.67h-0.47V179.52z M389.9,174.92h0.47v-0.76h-0.47V174.92z M389.9,179.52h0.47v-3.87h-0.47
		V179.52z M389.2,176.87c-0.11-0.89-0.74-1.33-1.57-1.33c-1.18,0-1.83,0.94-1.83,2.05c0,1.11,0.64,2.05,1.83,2.05
		c0.86,0,1.47-0.57,1.6-1.5h-0.47c-0.06,0.65-0.54,1.1-1.12,1.1c-0.91,0-1.36-0.82-1.36-1.65c0-0.82,0.45-1.65,1.36-1.65
		c0.62,0,0.97,0.35,1.1,0.93H389.2z M381.97,179.52h0.47v-2.26c0.02-0.76,0.47-1.33,1.22-1.33c0.77,0,0.98,0.5,0.98,1.17v2.42h0.47
		v-2.49c0-0.92-0.33-1.49-1.42-1.49c-0.55,0-1.07,0.32-1.24,0.78h-0.02v-0.67h-0.47V179.52z M378.51,176.84
		c0.01-0.63,0.45-0.9,1.04-0.9c0.55,0,1.01,0.16,1.01,0.79c0,0.43-0.22,0.48-0.61,0.53c-1.02,0.12-2.08,0.16-2.08,1.25
		c0,0.78,0.58,1.13,1.3,1.13c0.74,0,1.08-0.29,1.41-0.79h0.01c0,0.41,0.08,0.67,0.55,0.67c0.13,0,0.2-0.01,0.31-0.03v-0.4
		c-0.04,0.01-0.1,0.03-0.15,0.03c-0.19,0-0.28-0.1-0.28-0.29v-2.05c0-1.04-0.74-1.25-1.42-1.25c-0.89,0-1.52,0.39-1.57,1.3H378.51z
		 M380.56,178.02c0.01,0.76-0.63,1.21-1.35,1.21c-0.44,0-0.86-0.29-0.86-0.76c0-0.76,1-0.75,1.8-0.89c0.13-0.02,0.34-0.06,0.4-0.17
		h0.02V178.02z M374.05,179.52h0.47v-2.26c0.02-0.76,0.47-1.33,1.22-1.33c0.76,0,0.98,0.5,0.98,1.17v2.42h0.47v-2.49
		c0-0.92-0.33-1.49-1.42-1.49c-0.55,0-1.07,0.32-1.24,0.78h-0.02v-0.67h-0.47V179.52z M372.67,174.92h0.47v-0.76h-0.47V174.92z
		 M370.98,179.52h0.47v-3.47h0.77v-0.4h-0.77v-0.34c0.01-0.42-0.01-0.75,0.52-0.75c0.11,0,0.22,0.01,0.35,0.04v-0.4
		c-0.15-0.02-0.26-0.03-0.4-0.03c-0.76,0-0.95,0.46-0.94,1.13v0.35h-0.66v0.4h0.66V179.52z M372.67,179.52h0.47v-3.87h-0.47V179.52z
		 M366.28,179.52h0.47v-2.06c0-0.8,0.58-1.43,1.44-1.39v-0.47c-0.7-0.03-1.22,0.34-1.46,0.96h-0.01v-0.91h-0.43V179.52z
		 M362.66,177.32c0.08-0.71,0.5-1.38,1.28-1.38c0.77,0,1.21,0.67,1.23,1.38H362.66z M365.64,177.71c0.04-1.09-0.46-2.18-1.7-2.18
		c-1.23,0-1.75,1.03-1.75,2.05c0,1.1,0.52,2.05,1.75,2.05c0.98,0,1.49-0.51,1.69-1.39h-0.47c-0.15,0.59-0.53,0.99-1.22,0.99
		c-0.91,0-1.27-0.83-1.28-1.52H365.64z M358.35,179.52h0.47v-2.26c0.02-0.76,0.47-1.33,1.22-1.33c0.77,0,0.98,0.5,0.98,1.17v2.42
		h0.47v-2.49c0-0.92-0.33-1.49-1.42-1.49c-0.55,0-1.07,0.32-1.24,0.78h-0.02v-2.15h-0.47V179.52z M356.89,174.49h-0.47v1.16h-0.68
		v0.4h0.68v2.65c-0.01,0.66,0.21,0.87,0.84,0.87c0.14,0,0.28-0.01,0.42-0.01v-0.4c-0.13,0.01-0.27,0.02-0.4,0.02
		c-0.34-0.02-0.38-0.2-0.38-0.51v-2.61h0.79v-0.4h-0.79V174.49z M350.89,176.84c0-1.17,0.6-2.35,2.02-2.35
		c1.41,0,2.01,1.18,2.01,2.35s-0.6,2.35-2.01,2.35C351.49,179.2,350.89,178.01,350.89,176.84 M350.38,176.84
		c0,1.46,0.84,2.79,2.53,2.79c1.68,0,2.52-1.33,2.52-2.79s-0.84-2.79-2.52-2.79C351.22,174.05,350.38,175.38,350.38,176.84"/>
</g>
<rect x="418.11" y="125.46" class="st0" width="19.84" height="43.21"/>
<g>
	<defs>
		<rect id="SVGID_15_" width="481.89" height="198.95"/>
	</defs>
	<clipPath id="SVGID_16_">
		<use xlink:href="#SVGID_15_"  style="overflow:visible;"/>
	</clipPath>
	<path class="st10" d="M430.97,119.62h0.32c0.61,0,0.9,0.36,0.9,0.94c0,0.84-0.43,1.02-0.79,1.02c-0.57,0-0.79-0.53-0.79-0.98h-0.62
		v0.06c0,0.22,0.08,1.38,1.41,1.38c0.95,0,1.41-0.63,1.41-1.53c0-0.69-0.36-1.04-0.92-1.15v-0.01c0.52-0.13,0.77-0.57,0.77-1.06
		c0-0.55-0.24-1.29-1.27-1.29c-0.92,0-1.32,0.58-1.32,1.43h0.62c0-0.36,0.06-0.97,0.71-0.97c0.48,0,0.64,0.37,0.64,0.83
		c0,0.5-0.23,0.88-0.76,0.88h-0.31V119.62z M429.42,121.41h-2.13c0.07-0.33,0.27-0.62,0.54-0.85l0.7-0.61
		c0.55-0.48,0.87-0.88,0.87-1.63c0-0.43-0.18-1.32-1.33-1.32c-1.02,0-1.41,0.64-1.41,1.57h0.61c0-0.28,0.02-1.07,0.79-1.07
		c0.53,0,0.72,0.46,0.72,0.89c0,0.55-0.26,0.85-0.66,1.19l-0.41,0.34c-0.55,0.48-1.07,1.11-1.07,2.03h2.77V121.41z M423.87,120.57
		c0-0.58,0.23-1.02,0.81-1.02c0.57,0,0.8,0.44,0.8,1.02s-0.23,1.02-0.8,1.02C424.1,121.59,423.87,121.15,423.87,120.57
		 M424.67,117.46c0.45,0,0.65,0.34,0.65,0.81c0,0.46-0.2,0.81-0.65,0.81c-0.46,0-0.65-0.35-0.65-0.81
		C424.02,117.8,424.22,117.46,424.67,117.46 M423.25,120.59c0,0.65,0.31,1.46,1.42,1.46s1.42-0.81,1.42-1.46
		c0-0.66-0.28-1.08-0.87-1.27c0.5-0.2,0.72-0.53,0.72-1.06c0-0.8-0.48-1.26-1.27-1.26c-0.79,0-1.27,0.46-1.27,1.26
		c0,0.53,0.22,0.85,0.72,1.06C423.53,119.51,423.25,119.93,423.25,120.59"/>
	<path class="st10" d="M435.91,188.52h0.47v-2.26c0.02-0.76,0.47-1.33,1.22-1.33c0.77,0,0.98,0.5,0.98,1.17v2.42h0.47v-2.49
		c0-0.92-0.33-1.49-1.42-1.49c-0.55,0-1.07,0.31-1.24,0.78h-0.02v-2.15h-0.47V188.52z M435.1,185.78c-0.03-0.84-0.64-1.24-1.42-1.24
		c-0.68,0-1.45,0.3-1.45,1.09c0,0.66,0.46,0.87,1.08,1.03l0.61,0.14c0.43,0.1,0.85,0.26,0.85,0.71c0,0.54-0.61,0.74-1.06,0.74
		c-0.63,0-1.1-0.33-1.14-0.97h-0.47c0.08,0.95,0.69,1.36,1.59,1.36c0.72,0,1.55-0.32,1.55-1.16c0-0.68-0.56-0.99-1.1-1.07
		l-0.63-0.14c-0.32-0.08-0.8-0.23-0.8-0.65c0-0.5,0.49-0.67,0.91-0.67c0.54,0,0.99,0.26,1.01,0.85H435.1z M428.84,185.84
		c0.01-0.63,0.45-0.9,1.04-0.9c0.56,0,1.01,0.16,1.01,0.8c0,0.43-0.22,0.48-0.61,0.52c-1.02,0.12-2.08,0.16-2.08,1.25
		c0,0.78,0.58,1.13,1.3,1.13c0.74,0,1.08-0.28,1.41-0.79h0.02c0,0.4,0.08,0.67,0.55,0.67c0.13,0,0.2-0.01,0.31-0.03v-0.4
		c-0.04,0.01-0.1,0.03-0.15,0.03c-0.19,0-0.28-0.11-0.28-0.29v-2.06c0-1.04-0.74-1.24-1.42-1.24c-0.89,0-1.52,0.39-1.57,1.3H428.84z
		 M430.89,187.02c0.01,0.76-0.63,1.22-1.35,1.22c-0.44,0-0.86-0.29-0.86-0.76c0-0.76,1-0.75,1.8-0.89c0.13-0.02,0.34-0.06,0.4-0.17
		h0.02V187.02z M427.72,185.87c-0.11-0.89-0.74-1.33-1.57-1.33c-1.18,0-1.83,0.94-1.83,2.05s0.64,2.05,1.83,2.05
		c0.86,0,1.47-0.57,1.6-1.5h-0.47c-0.06,0.65-0.54,1.1-1.12,1.1c-0.91,0-1.36-0.83-1.36-1.65s0.45-1.65,1.36-1.65
		c0.61,0,0.97,0.35,1.1,0.93H427.72z M418.4,188.52h0.47v-2.26c0.02-0.76,0.46-1.33,1.21-1.33c0.77,0,0.98,0.5,0.98,1.17v2.42h0.47
		v-2.49c0-0.92-0.33-1.49-1.42-1.49c-0.55,0-1.07,0.31-1.24,0.78h-0.02v-0.67h-0.47V188.52z M417.03,183.92h0.47v-0.76h-0.47V183.92
		z M417.03,188.52h0.47v-3.87h-0.47V188.52z"/>
	<path class="st10" d="M445.01,177.32c0.07-0.71,0.5-1.38,1.27-1.38c0.76,0,1.21,0.67,1.23,1.38H445.01z M447.99,177.71
		c0.04-1.09-0.46-2.18-1.7-2.18c-1.23,0-1.75,1.03-1.75,2.05c0,1.1,0.52,2.05,1.75,2.05c0.98,0,1.48-0.51,1.69-1.39h-0.47
		c-0.15,0.59-0.53,0.99-1.22,0.99c-0.91,0-1.27-0.83-1.27-1.52H447.99z M443.92,176.78c-0.03-0.84-0.64-1.25-1.42-1.25
		c-0.68,0-1.45,0.3-1.45,1.09c0,0.66,0.46,0.87,1.08,1.04l0.61,0.14c0.43,0.1,0.85,0.25,0.85,0.71c0,0.54-0.62,0.73-1.06,0.73
		c-0.63,0-1.1-0.33-1.14-0.97h-0.47c0.08,0.94,0.69,1.36,1.59,1.36c0.72,0,1.55-0.32,1.55-1.16c0-0.67-0.56-0.99-1.1-1.07
		l-0.63-0.14c-0.32-0.08-0.8-0.23-0.8-0.65c0-0.5,0.5-0.67,0.92-0.67c0.54,0,0.99,0.26,1.01,0.85H443.92z M437.66,176.84
		c0.01-0.63,0.45-0.9,1.04-0.9c0.55,0,1.01,0.16,1.01,0.79c0,0.43-0.22,0.48-0.61,0.53c-1.02,0.12-2.08,0.16-2.08,1.25
		c0,0.78,0.58,1.13,1.3,1.13c0.74,0,1.08-0.29,1.41-0.79h0.02c0,0.41,0.07,0.67,0.55,0.67c0.13,0,0.2-0.01,0.31-0.03v-0.4
		c-0.04,0.01-0.1,0.03-0.15,0.03c-0.19,0-0.28-0.1-0.28-0.29v-2.05c0-1.04-0.74-1.25-1.42-1.25c-0.89,0-1.52,0.39-1.57,1.3H437.66z
		 M439.71,178.02c0.01,0.76-0.63,1.21-1.35,1.21c-0.44,0-0.86-0.29-0.86-0.76c0-0.76,1-0.75,1.8-0.89c0.13-0.02,0.34-0.06,0.4-0.17
		h0.02V178.02z M433.62,177.32c0.07-0.71,0.5-1.38,1.28-1.38c0.76,0,1.21,0.67,1.23,1.38H433.62z M436.6,177.71
		c0.04-1.09-0.46-2.18-1.7-2.18c-1.23,0-1.75,1.03-1.75,2.05c0,1.1,0.52,2.05,1.75,2.05c0.98,0,1.48-0.51,1.69-1.39h-0.47
		c-0.15,0.59-0.52,0.99-1.21,0.99c-0.91,0-1.27-0.83-1.28-1.52H436.6z M431.12,179.52h0.47v-2.06c0-0.8,0.58-1.43,1.44-1.39v-0.47
		c-0.7-0.03-1.22,0.34-1.46,0.96h-0.01v-0.91h-0.43V179.52z M430.43,176.87c-0.11-0.89-0.74-1.33-1.57-1.33
		c-1.19,0-1.83,0.94-1.83,2.05c0,1.11,0.64,2.05,1.83,2.05c0.86,0,1.47-0.57,1.6-1.5h-0.47c-0.06,0.65-0.54,1.1-1.12,1.1
		c-0.91,0-1.36-0.82-1.36-1.65c0-0.82,0.45-1.65,1.36-1.65c0.61,0,0.97,0.35,1.09,0.93H430.43z M423.19,179.52h0.47v-2.26
		c0.02-0.76,0.47-1.33,1.22-1.33c0.77,0,0.98,0.5,0.98,1.17v2.42h0.47v-2.49c0-0.92-0.33-1.49-1.42-1.49
		c-0.55,0-1.07,0.32-1.24,0.78h-0.02v-0.67h-0.47V179.52z M421.82,174.92h0.47v-0.76h-0.47V174.92z M421.82,179.52h0.47v-3.87h-0.47
		V179.52z M418.25,174.49h-0.47v1.16h-0.67v0.4h0.67v2.65c-0.01,0.66,0.21,0.87,0.84,0.87c0.14,0,0.28-0.01,0.42-0.01v-0.4
		c-0.13,0.01-0.27,0.02-0.4,0.02c-0.34-0.02-0.38-0.2-0.38-0.51v-2.61h0.79v-0.4h-0.79V174.49z M413.89,177.32
		c0.07-0.71,0.5-1.38,1.28-1.38c0.76,0,1.21,0.67,1.23,1.38H413.89z M416.87,177.71c0.04-1.09-0.46-2.18-1.7-2.18
		c-1.23,0-1.75,1.03-1.75,2.05c0,1.1,0.52,2.05,1.75,2.05c0.97,0,1.48-0.51,1.69-1.39h-0.47c-0.15,0.59-0.53,0.99-1.21,0.99
		c-0.91,0-1.27-0.83-1.28-1.52H416.87z M408.42,179.52h0.51v-4.53h0.02l3.12,4.53h0.57v-5.35h-0.51v4.53h-0.02l-3.12-4.53h-0.57
		V179.52z"/>
	<path class="st10" d="M253.93,18.54h0.53v-2.56c0.02-0.86,0.53-1.5,1.38-1.5c0.87,0,1.11,0.57,1.11,1.33v2.74h0.53v-2.82
		c0-1.04-0.37-1.69-1.61-1.69c-0.62,0-1.21,0.36-1.4,0.88h-0.02v-0.76h-0.53V18.54z M250.64,14.48c1.03,0,1.54,0.93,1.54,1.87
		c0,0.93-0.51,1.87-1.54,1.87c-1.03,0-1.54-0.93-1.54-1.87C249.1,15.41,249.61,14.48,250.64,14.48 M250.64,14.03
		c-1.34,0-2.07,1.06-2.07,2.32c0,1.26,0.73,2.32,2.07,2.32c1.34,0,2.07-1.06,2.07-2.32C252.71,15.09,251.98,14.03,250.64,14.03
		 M246.8,13.33h0.53v-0.86h-0.53V13.33z M246.8,18.54h0.53v-4.38h-0.53V18.54z M244.8,18.54h0.53v-6.07h-0.53V18.54z M242.8,18.54
		h0.53v-6.07h-0.53V18.54z M240.8,13.33h0.53v-0.86h-0.53V13.33z M240.8,18.54h0.53v-4.38h-0.53V18.54z M233.29,18.54h0.53v-2.45
		c0.01-0.92,0.38-1.61,1.31-1.61c0.68,0,0.93,0.49,0.92,1.09v2.97h0.53v-2.48c0-0.82,0.26-1.58,1.19-1.58
		c0.76,0,1.04,0.39,1.04,1.11v2.95h0.54v-2.97c0-1.04-0.49-1.54-1.45-1.54c-0.58,0-1.13,0.28-1.39,0.86
		c-0.16-0.58-0.68-0.86-1.26-0.86c-0.7,0-1.16,0.34-1.44,0.87h-0.03v-0.74h-0.49V18.54z M230.83,12.47v0.9h0.36
		c0.02,0.28-0.11,0.7-0.4,0.8v0.37c0.52-0.15,0.75-0.66,0.76-1.16v-0.91H230.83z M225.09,12.96h2.16c0.87,0,1.31,0.47,1.31,1.21
		c0,0.74-0.6,1.18-1.31,1.18h-2.16V12.96z M224.51,18.54h0.58v-2.69h2.19c1.1-0.04,1.16,0.9,1.21,1.75
		c0.02,0.26,0.02,0.71,0.16,0.94h0.64c-0.25-0.31-0.25-1.14-0.28-1.55c-0.04-0.72-0.27-1.27-1.06-1.37V15.6
		c0.78-0.15,1.18-0.78,1.18-1.55c0-1.1-0.84-1.58-1.84-1.58h-2.78V18.54z"/>
	<path class="st11" d="M290.17,3.52c-0.08-1.21-1.06-1.58-1.81-1.58c-0.99,0-1.83,0.62-1.83,1.65c0.01,0.82,0.61,1.18,1.37,1.41
		c0.97,0.32,1.38,0.5,1.39,1.04c0,0.46-0.39,0.81-0.89,0.81c-0.39,0-0.92-0.22-0.96-0.88h-1.03c0.05,1.24,1.12,1.73,1.98,1.73
		c1.08,0,1.96-0.72,1.94-1.78c-0.03-1.17-0.94-1.41-1.77-1.64c-0.58-0.16-0.97-0.36-0.99-0.79c-0.01-0.36,0.27-0.7,0.78-0.7
		c0.53-0.01,0.79,0.31,0.79,0.73H290.17z M283.84,7.54h1.04V2.1h-1.04V7.54z M283.84,1.24h1.04v-1.1h-1.04V1.24z M282.11,3.52
		c-0.08-1.21-1.06-1.58-1.81-1.58c-0.99,0-1.83,0.62-1.83,1.65c0.01,0.82,0.61,1.18,1.37,1.41c0.97,0.32,1.38,0.5,1.39,1.04
		c0,0.46-0.39,0.81-0.89,0.81c-0.39,0-0.92-0.22-0.96-0.88h-1.03c0.05,1.24,1.12,1.73,1.98,1.73c1.08,0,1.96-0.72,1.94-1.78
		c-0.03-1.17-0.94-1.41-1.77-1.64c-0.58-0.16-0.97-0.36-0.99-0.79c-0.01-0.36,0.27-0.7,0.78-0.7c0.53-0.01,0.79,0.31,0.79,0.73
		H282.11z M273.41,9.52h1.11l2.97-7.42h-1.12l-1.52,3.98l-1.5-3.98h-1.12l2.08,5.28L273.41,9.52z M269.96,7.54H271v-7.4h-1.04V7.54z
		 M263.28,4.83c0-1.02,0.74-1.92,1.88-1.92c0.87,0,1.48,0.49,1.74,1.12c0.12,0.25,0.17,0.53,0.16,0.81
		c-0.01,0.28-0.07,0.56-0.19,0.81c-0.27,0.62-0.86,1.08-1.69,1.08C263.86,6.73,263.29,5.65,263.28,4.83L263.28,4.83z M268.09,2.1
		h-1.04v0.96c-0.25-0.52-0.94-1.12-2.02-1.12c-1.58,0-2.79,1.22-2.79,2.88c0,1.52,1.04,2.88,2.79,2.88c0.86,0,1.64-0.38,2.02-1.11
		v0.95h1.04V2.1z M255.7,7.54h1.04V4.51c0-0.94,0.47-1.58,1.49-1.59c1.06-0.01,1.44,0.69,1.44,1.67v2.95h1.05V4.35
		c0-1.13-0.46-2.39-2.2-2.41c-0.97-0.01-1.58,0.44-1.84,1V2.1h-0.98V7.54z M249.01,4.83c0-1.02,0.74-1.92,1.88-1.92
		c0.87,0,1.48,0.49,1.74,1.12c0.12,0.25,0.17,0.53,0.16,0.81c-0.01,0.28-0.07,0.56-0.19,0.81c-0.27,0.62-0.86,1.08-1.69,1.08
		C249.59,6.73,249.02,5.65,249.01,4.83L249.01,4.83z M253.82,2.1h-1.04v0.96c-0.25-0.52-0.94-1.12-2.02-1.12
		c-1.58,0-2.79,1.22-2.79,2.88c0,1.52,1.04,2.88,2.79,2.88c0.86,0,1.64-0.38,2.02-1.11v0.95h1.04V2.1z M237.46,7.54h0.99l1.14-3.81
		l1.17,3.81h0.99l1.81-5.44h-1.08l-1.26,4.11l-1.18-3.79h-0.87l-1.16,3.79l-1.28-4.11h-1.09L237.46,7.54z M230.15,4.82
		c0-1.09,0.82-1.9,1.86-1.9c1.04,0,1.86,0.81,1.86,1.9c0,1.09-0.82,1.9-1.86,1.9C230.97,6.72,230.15,5.91,230.15,4.82L230.15,4.82z
		 M229.12,4.82c0,1.46,1.07,2.87,2.9,2.87c1.83,0,2.9-1.41,2.9-2.87c0-1.46-1.07-2.88-2.9-2.88c-1.83,0-2.9,1.42-2.9,2.87V4.82z
		 M226.53,7.54h1.04v-7.4h-1.04V7.54z M223.45,7.54h1.04V2.91h1V2.1h-1V1.78c0-0.95,0.65-0.95,1-0.96V0
		c-0.77,0.01-2.04,0.09-2.04,1.73V2.1h-0.74v0.81h0.74V7.54z M213.03,7.54h1.04V4.47c0-0.37,0.1-0.76,0.33-1.05
		c0.22-0.29,0.6-0.5,1.15-0.5c0.54,0,0.9,0.18,1.14,0.48c0.22,0.3,0.31,0.73,0.31,1.22v2.92h1.05V4.57c0-0.75-0.13-1.4-0.47-1.87
		c-0.35-0.48-0.89-0.76-1.74-0.76c-0.71-0.01-1.45,0.28-1.77,0.92V2.01V0.14h-1.04V7.54z M211.29,3.52
		c-0.08-1.21-1.06-1.58-1.81-1.58c-0.99,0-1.83,0.62-1.83,1.65c0.01,0.82,0.61,1.18,1.37,1.41c0.97,0.32,1.38,0.5,1.39,1.04
		c0,0.46-0.39,0.81-0.89,0.81c-0.39,0-0.92-0.22-0.96-0.88h-1.03c0.05,1.24,1.12,1.73,1.98,1.73c1.08,0,1.96-0.72,1.94-1.78
		c-0.03-1.17-0.94-1.41-1.77-1.64c-0.58-0.16-0.97-0.36-0.99-0.79c-0.01-0.36,0.27-0.7,0.78-0.7c0.53-0.01,0.79,0.31,0.79,0.73
		H211.29z M201.18,4.83c0-1.02,0.74-1.92,1.88-1.92c0.87,0,1.48,0.49,1.74,1.12c0.12,0.25,0.17,0.53,0.16,0.81
		c-0.01,0.28-0.07,0.56-0.19,0.81c-0.27,0.62-0.86,1.08-1.69,1.08C201.76,6.73,201.19,5.65,201.18,4.83L201.18,4.83z M205.99,2.1
		h-1.04v0.96c-0.25-0.52-0.94-1.12-2.02-1.12c-1.58,0-2.79,1.22-2.79,2.88c0,1.52,1.04,2.88,2.79,2.88c0.86,0,1.64-0.38,2.02-1.11
		v0.95h1.04V2.1z M197.69,5.29c-0.16,0.27-0.85,1.35-2.28,1.35c-1.56,0-2.68-1.27-2.68-2.81c0-1.5,1.1-2.79,2.67-2.79
		c1.3,0.01,2.05,0.91,2.29,1.39h1.25c-0.36-1.02-1.54-2.42-3.53-2.43c-2.29,0-3.86,1.8-3.86,3.83c0,2.1,1.64,3.85,3.87,3.85
		c1.68,0,3.05-1.04,3.51-2.39H197.69z"/>
	<line class="st12" x1="0" y1="168.5" x2="481.89" y2="168.5"/>
</g>
</svg>
