<?xml version="1.0" encoding="utf-8"?>
<!-- Generator: Adobe Illustrator 23.0.0, SVG Export Plug-In . SVG Version: 6.00 Build 0)  -->
<svg version="1.1" id="Layer_1" xmlns="http://www.w3.org/2000/svg" xmlns:xlink="http://www.w3.org/1999/xlink" x="0px" y="0px"
	 viewBox="0 0 425.76 94.46" style="enable-background:new 0 0 425.76 94.46;" xml:space="preserve">
<style type="text/css">
	.st0{clip-path:url(#SVGID_2_);}
	.st1{clip-path:url(#SVGID_4_);fill:#3AA7CC;}
	.st2{clip-path:url(#SVGID_2_);fill:#C5E3F2;}
	.st3{clip-path:url(#SVGID_2_);fill:#CFE6B7;}
	.st4{opacity:0.25;clip-path:url(#SVGID_6_);}
	.st5{clip-path:url(#SVGID_8_);fill:#64BDE1;}
	.st6{clip-path:url(#SVGID_8_);fill:none;stroke:#FFFFFF;stroke-width:0.66;stroke-miterlimit:10;}
	.st7{clip-path:url(#SVGID_8_);fill:#7DC242;}
	.st8{clip-path:url(#SVGID_6_);fill:#003767;}
	.st9{clip-path:url(#SVGID_6_);fill:none;stroke:#FFFFFF;stroke-width:0.66;stroke-miterlimit:10;}
	.st10{clip-path:url(#SVGID_6_);fill:#7DC242;}
	.st11{opacity:0.5;clip-path:url(#SVGID_6_);}
	.st12{clip-path:url(#SVGID_10_);fill:#FFFFFF;}
	.st13{clip-path:url(#SVGID_6_);fill:none;stroke:#FFFFFF;stroke-width:0.66;}
	.st14{clip-path:url(#SVGID_6_);fill:#FFFFFF;}
	.st15{clip-path:url(#SVGID_6_);fill:#231F20;}
	.st16{opacity:0.25;clip-path:url(#SVGID_12_);}
	.st17{clip-path:url(#SVGID_14_);fill:#7DC242;}
	.st18{clip-path:url(#SVGID_14_);fill:none;stroke:#FFFFFF;stroke-width:0.66;stroke-miterlimit:10;}
	.st19{clip-path:url(#SVGID_14_);fill:#64BDE1;}
	.st20{clip-path:url(#SVGID_12_);fill:#7DC242;}
	.st21{clip-path:url(#SVGID_12_);fill:none;stroke:#FFFFFF;stroke-width:0.66;stroke-miterlimit:10;}
	.st22{clip-path:url(#SVGID_12_);fill:#003767;}
	.st23{opacity:0.5;clip-path:url(#SVGID_12_);}
	.st24{clip-path:url(#SVGID_16_);fill:#FFFFFF;}
	.st25{clip-path:url(#SVGID_12_);fill:none;stroke:#FFFFFF;stroke-width:0.66;}
	.st26{clip-path:url(#SVGID_12_);fill:#FFFFFF;}
	.st27{clip-path:url(#SVGID_12_);fill:#231F20;}
	.st28{opacity:0.25;clip-path:url(#SVGID_18_);}
	.st29{clip-path:url(#SVGID_20_);fill:#64BDE1;}
	.st30{clip-path:url(#SVGID_20_);fill:none;stroke:#FFFFFF;stroke-width:0.66;stroke-miterlimit:10;}
	.st31{clip-path:url(#SVGID_20_);fill:#7DC242;}
	.st32{clip-path:url(#SVGID_18_);fill:#003767;}
	.st33{clip-path:url(#SVGID_18_);fill:none;stroke:#FFFFFF;stroke-width:0.66;stroke-miterlimit:10;}
	.st34{clip-path:url(#SVGID_18_);fill:#7DC242;}
	.st35{opacity:0.5;clip-path:url(#SVGID_18_);}
	.st36{clip-path:url(#SVGID_22_);fill:#FFFFFF;}
	.st37{clip-path:url(#SVGID_18_);fill:none;stroke:#FFFFFF;stroke-width:0.66;}
	.st38{clip-path:url(#SVGID_18_);fill:#FFFFFF;}
	.st39{clip-path:url(#SVGID_18_);fill:#231F20;}
</style>
<g>
	<defs>
		<rect id="SVGID_1_" width="425.76" height="94.46"/>
	</defs>
	<clipPath id="SVGID_2_">
		<use xlink:href="#SVGID_1_"  style="overflow:visible;"/>
	</clipPath>
	<g class="st0">
		<defs>
			<rect id="SVGID_3_" y="0" width="425.76" height="94.46"/>
		</defs>
		<clipPath id="SVGID_4_">
			<use xlink:href="#SVGID_3_"  style="overflow:visible;"/>
		</clipPath>
		<path class="st1" d="M307.16,7.53h0.83v-2.6l2.38-4.8h-0.9l-1.89,4l-1.9-4h-0.9l2.38,4.8V7.53z M301.42,7.53h0.83V0.86h1.83V0.13
			h-4.48v0.73h1.82V7.53z M297.46,7.53h0.82v-7.4h-0.82V7.53z M291.24,5.47c0.05,1.41,1.08,2.19,2.32,2.19
			c1.38,0,2.29-0.96,2.29-2.17c0-1.36-1.1-1.75-1.8-2.02c-1.12-0.38-1.85-0.6-1.84-1.5c0-0.77,0.61-1.27,1.35-1.27
			c0.98,0,1.22,0.73,1.31,1.21h0.82c-0.12-1.4-1.18-1.91-2.1-1.91c-1.13,0-2.22,0.73-2.2,2.04c0,1.4,1.29,1.78,1.89,1.96
			c0.86,0.28,1.75,0.51,1.75,1.55c0,0.82-0.71,1.41-1.48,1.41c-0.46,0-1.36-0.26-1.48-1.49H291.24z M285.16,7.53h0.83V0.86h1.16
			c0.67,0,1.13,0.03,1.5,0.27c0.46,0.3,0.73,0.88,0.73,1.43c0,0.53-0.17,0.98-0.56,1.36c-0.4,0.37-1.12,0.38-1.64,0.38h-0.24
			l2.09,3.23h0.9l-1.84-2.77c0.68-0.07,1.21-0.21,1.65-0.81c0.31-0.42,0.45-0.95,0.44-1.45c0-0.84-0.41-1.63-1.01-1.99
			c-0.38-0.24-0.92-0.38-2.08-0.38h-1.93V7.53z M279.32,7.53h4.1V6.8h-3.28V4.16h3.26V3.43h-3.26V0.86h3.28V0.13h-4.1V7.53z
			 M274.25,7.53h0.79l2.94-7.4h-0.87l-2.46,6.33l-2.45-6.33h-0.87L274.25,7.53z M269.16,7.53h0.82v-7.4h-0.82V7.53z M262.33,0.86
			h1.47c1.01,0,1.7,0.33,2.17,0.83c0.49,0.54,0.72,1.3,0.72,2.16c0,1.78-0.99,2.95-2.89,2.95h-1.47V0.86z M261.51,7.53h2.25
			c2.49,0,3.76-1.48,3.76-3.71c0-1.05-0.29-1.92-0.89-2.58c-0.74-0.88-1.86-1.11-2.91-1.11h-2.21V7.53z M251.3,0.86h1.47
			c1.01,0,1.7,0.33,2.17,0.83c0.49,0.54,0.72,1.3,0.72,2.16c0,1.78-0.99,2.95-2.89,2.95h-1.47V0.86z M250.48,7.53h2.25
			c2.49,0,3.76-1.48,3.76-3.71c0-1.05-0.29-1.92-0.89-2.58c-0.74-0.88-1.86-1.11-2.91-1.11h-2.21V7.53z M243.37,0.13h-0.84v7.4h0.8
			l-0.02-6.23l4.39,6.23h0.8v-7.4h-0.8l0.01,6.18L243.37,0.13z M239.2,4.77h-2.95l1.47-3.71L239.2,4.77z M236,5.45h3.45l0.86,2.08
			h0.9l-3.06-7.4h-0.8l-3.09,7.4h0.89L236,5.45z M224.93,0.13h-0.84v7.4h0.8l-0.02-6.23l4.39,6.23h0.8v-7.4h-0.8l0.01,6.18
			L224.93,0.13z M215.56,3.82c0-1.71,1.29-3.09,3.03-3.09c1.76,0,3.04,1.41,3.04,3.1c0,1.69-1.28,3.1-3.03,3.1
			c-1.73,0-3.04-1.36-3.04-3.1V3.82z M214.73,3.86c0,2.11,1.67,3.8,3.86,3.8c2.18,0,3.86-1.66,3.86-3.83c0-2.17-1.69-3.83-3.86-3.83
			C216.5,0,214.73,1.57,214.73,3.86L214.73,3.86z M212.27,7.53h0.82v-7.4h-0.82V7.53z M208.3,7.53h0.83V0.86h1.83V0.13h-4.48v0.73
			h1.82V7.53z M204.34,7.53h0.82v-7.4h-0.82V7.53z M198.12,5.47c0.05,1.41,1.08,2.19,2.32,2.19c1.38,0,2.29-0.96,2.29-2.17
			c0-1.36-1.1-1.75-1.8-2.02c-1.12-0.38-1.85-0.6-1.84-1.5c0-0.77,0.61-1.27,1.35-1.27c0.98,0,1.22,0.73,1.31,1.21h0.82
			c-0.12-1.4-1.18-1.91-2.1-1.91c-1.13,0-2.22,0.73-2.2,2.04c0,1.4,1.29,1.78,1.89,1.96c0.86,0.28,1.75,0.51,1.75,1.55
			c0,0.82-0.71,1.41-1.48,1.41c-0.46,0-1.36-0.26-1.48-1.49H198.12z M189.95,3.82c0-1.71,1.29-3.09,3.03-3.09
			c1.76,0,3.04,1.41,3.04,3.1c0,1.69-1.28,3.1-3.03,3.1c-1.73,0-3.04-1.36-3.04-3.1V3.82z M189.12,3.86c0,2.11,1.67,3.8,3.86,3.8
			c2.18,0,3.86-1.66,3.86-3.83c0-2.17-1.69-3.83-3.86-3.83C190.89,0,189.12,1.57,189.12,3.86L189.12,3.86z M184.21,0.86h1.16
			c0.63,0,1.01,0.07,1.38,0.31c0.33,0.21,0.56,0.68,0.56,1.21c0,0.52-0.23,0.99-0.55,1.2c-0.37,0.24-0.75,0.31-1.37,0.31h-1.18V0.86
			z M183.38,0.13v7.4h0.83V4.62h1.19c0.96,0,1.46-0.12,1.95-0.5c0.45-0.35,0.76-1.06,0.76-1.76c0-0.69-0.3-1.38-0.79-1.76
			c-0.46-0.35-0.95-0.47-1.99-0.47H183.38z M174.45,7.53l-0.02-6.58l2.88,6.58h0.53l2.87-6.58l-0.02,6.58h0.78v-7.4h-1.16
			l-2.73,6.21l-2.74-6.21h-1.16v7.4H174.45z M165.15,3.82c0-1.71,1.29-3.09,3.03-3.09c1.76,0,3.04,1.41,3.04,3.1
			c0,1.69-1.28,3.1-3.03,3.1c-1.73,0-3.04-1.36-3.04-3.1V3.82z M164.32,3.86c0,2.11,1.67,3.8,3.86,3.8c2.18,0,3.86-1.66,3.86-3.83
			c0-2.17-1.69-3.83-3.86-3.83C166.09,0,164.32,1.57,164.32,3.86L164.32,3.86z M162.19,5.54c-0.18,0.28-0.97,1.39-2.52,1.39
			c-1.72,0-3.03-1.36-3.03-3.11c0-1.72,1.3-3.09,3.03-3.09c1.43,0,2.27,0.99,2.52,1.43h0.89C162.65,1.22,161.5,0,159.67,0
			c-2.22,0-3.85,1.72-3.85,3.83c0,2.14,1.67,3.83,3.86,3.83c1.63,0,2.92-0.98,3.4-2.12H162.19z M145.95,0.86h1.47
			c1.01,0,1.7,0.33,2.17,0.83c0.49,0.54,0.72,1.3,0.72,2.16c0,1.78-0.99,2.95-2.89,2.95h-1.47V0.86z M145.13,7.53h2.25
			c2.49,0,3.76-1.48,3.76-3.71c0-1.05-0.29-1.92-0.89-2.58c-0.74-0.88-1.86-1.11-2.91-1.11h-2.21V7.53z M138.69,7.53h0.83V0.86h1.16
			c0.67,0,1.13,0.03,1.5,0.27c0.46,0.3,0.73,0.88,0.73,1.43c0,0.53-0.17,0.98-0.56,1.36c-0.4,0.37-1.12,0.38-1.64,0.38h-0.24
			l2.09,3.23h0.9l-1.84-2.77c0.68-0.07,1.21-0.21,1.65-0.81c0.31-0.42,0.45-0.95,0.44-1.45c0-0.84-0.41-1.63-1.01-1.99
			c-0.38-0.24-0.92-0.38-2.08-0.38h-1.93V7.53z M135.43,4.77h-2.95l1.47-3.71L135.43,4.77z M132.23,5.45h3.45l0.86,2.08h0.9
			l-3.06-7.4h-0.8l-3.09,7.4h0.89L132.23,5.45z M123.02,3.82c0-1.71,1.29-3.09,3.03-3.09c1.76,0,3.04,1.41,3.04,3.1
			c0,1.69-1.28,3.1-3.03,3.1c-1.73,0-3.04-1.36-3.04-3.1V3.82z M122.19,3.86c0,2.11,1.67,3.8,3.86,3.8c2.18,0,3.86-1.66,3.86-3.83
			c0-2.17-1.69-3.83-3.86-3.83C123.96,0,122.19,1.57,122.19,3.86L122.19,3.86z M117.11,4.03h1.19c0.46,0,0.71,0.01,1.04,0.15
			c0.47,0.21,0.79,0.65,0.79,1.25c-0.01,0.66-0.34,1.04-0.78,1.23c-0.27,0.11-0.6,0.14-0.9,0.14h-1.34V4.03z M117.11,0.86h1.07
			c0.48,0.01,0.73,0.07,0.92,0.17c0.31,0.14,0.6,0.51,0.6,1.05c0,0.45-0.13,0.84-0.6,1.1c-0.23,0.11-0.53,0.15-0.87,0.15h-1.12V0.86
			z M116.29,7.53h2.04c0.73,0,1.15-0.06,1.59-0.33c0.63-0.33,1-0.93,1.01-1.73c0-0.34-0.09-1.47-1.42-1.88
			c0.5-0.26,0.99-0.7,0.99-1.57c0-0.58-0.2-1.2-0.8-1.54c-0.33-0.23-0.79-0.35-1.46-0.35h-1.95V7.53z"/>
	</g>
	<rect x="70.86" y="56.51" class="st2" width="64.91" height="12.52"/>
	<rect x="70.86" y="43.33" class="st3" width="64.91" height="12.52"/>
	<g class="st0">
		<defs>
			<rect id="SVGID_5_" y="0" width="425.76" height="94.46"/>
		</defs>
		<clipPath id="SVGID_6_">
			<use xlink:href="#SVGID_5_"  style="overflow:visible;"/>
		</clipPath>
		<g class="st4">
			<g>
				<defs>
					<rect id="SVGID_7_" x="-29.35" y="-9.49" width="124.13" height="135.64"/>
				</defs>
				<clipPath id="SVGID_8_">
					<use xlink:href="#SVGID_7_"  style="overflow:visible;"/>
				</clipPath>
				<path class="st5" d="M38.35,56.39l37.87-0.06c-0.04,20.84-17.02,37.76-37.94,37.8c-15.9,0.03-29.65-9.38-35.32-24.15
					L38.35,56.39z"/>
				<path class="st6" d="M38.35,56.39l37.87-0.06c-0.04,20.84-17.02,37.76-37.94,37.8c-15.9,0.03-29.65-9.38-35.32-24.15
					L38.35,56.39z"/>
				<path class="st7" d="M38.26,56.03L2.84,69.63c-7.48-19.48,2.32-41.36,21.88-48.87c19.56-7.51,41.48,2.2,48.96,21.68
					c1.8,4.67,2.51,8.53,2.5,13.54L38.26,56.03z"/>
				<path class="st6" d="M38.26,56.03L2.84,69.63c-7.48-19.48,2.32-41.36,21.88-48.87c19.56-7.51,41.48,2.2,48.96,21.68
					c1.8,4.67,2.51,8.53,2.5,13.54L38.26,56.03z"/>
			</g>
		</g>
		<path class="st8" d="M38.35,56.4l35.04-0.06c-0.04,19.27-15.75,34.92-35.1,34.96c-14.71,0.03-27.42-8.67-32.67-22.33L38.35,56.4z"
			/>
		<path class="st9" d="M38.35,56.4l35.04-0.06c-0.04,19.27-15.75,34.92-35.1,34.96c-14.71,0.03-27.42-8.67-32.67-22.33L38.35,56.4z"
			/>
		<path class="st10" d="M38.26,56.03L5.48,68.61c-6.92-18.02,2.15-38.25,20.25-45.2c18.1-6.95,38.38,2.02,45.29,20.04
			c1.66,4.32,2.32,7.89,2.31,12.53L38.26,56.03z"/>
		<path class="st9" d="M38.26,56.03L5.48,68.61c-6.92-18.02,2.15-38.25,20.25-45.2c18.1-6.95,38.38,2.02,45.29,20.04
			c1.66,4.32,2.32,7.89,2.31,12.53L38.26,56.03z"/>
		<g class="st11">
			<g>
				<defs>
					<rect id="SVGID_9_" x="3.13" y="22.99" width="70.38" height="60.38"/>
				</defs>
				<clipPath id="SVGID_10_">
					<use xlink:href="#SVGID_9_"  style="overflow:visible;"/>
				</clipPath>
				<path class="st12" d="M38.32,82.04c14.28,0,25.86-11.58,25.86-25.86S52.6,30.32,38.32,30.32S12.46,41.9,12.46,56.18
					S24.04,82.04,38.32,82.04"/>
			</g>
		</g>
		<circle class="st13" cx="38.32" cy="56.18" r="25.86"/>
		<path class="st14" d="M38.32,79.57c12.92,0,23.39-10.47,23.39-23.39S51.24,32.8,38.32,32.8S14.94,43.27,14.94,56.18
			S25.41,79.57,38.32,79.57"/>
		<path class="st15" d="M105.24,49.5c-0.55,0-0.96,0.3-0.96,1.34c0,1.04,0.41,1.34,0.96,1.34c0.55,0,0.96-0.3,0.96-1.34
			C106.2,49.8,105.79,49.5,105.24,49.5 M102.35,47.13c-0.55,0-0.96,0.3-0.96,1.34c0,1.04,0.4,1.34,0.96,1.34s0.96-0.3,0.96-1.34
			C103.31,47.43,102.9,47.13,102.35,47.13 M105.24,49.93c0.29,0,0.36,0.26,0.36,0.91c0,0.65-0.07,0.91-0.36,0.91
			c-0.29,0-0.36-0.26-0.36-0.91C104.88,50.19,104.95,49.93,105.24,49.93 M104.62,47.13l-2.22,5.05h0.53l2.23-5.05H104.62z
			 M102.35,47.57c0.29,0,0.36,0.26,0.36,0.91c0,0.65-0.07,0.91-0.36,0.91c-0.29,0-0.36-0.26-0.36-0.91
			C101.99,47.82,102.06,47.57,102.35,47.57 M98.82,50.6c0-0.6,0.11-1.11,0.69-1.11c0.46,0,0.66,0.38,0.66,1.07
			c0,0.58-0.17,1.06-0.66,1.06C99.04,51.63,98.82,51.17,98.82,50.6 M100.87,48.34c0-0.81-0.47-1.2-1.34-1.2
			c-1.31,0-1.58,1.2-1.58,2.68c0,1.42,0.24,2.37,1.49,2.37c1.05,0,1.52-0.68,1.52-1.82c0-0.99-0.55-1.48-1.22-1.48
			c-0.43,0-0.77,0.17-0.97,0.52l-0.02-0.01c0-0.72,0.04-1.71,0.79-1.71c0.4,0,0.53,0.36,0.53,0.64H100.87z M94.64,50.86
			c0,0.88,0.5,1.33,1.39,1.33c1.07,0,1.53-0.76,1.53-1.75c0-0.76-0.26-1.64-1.29-1.64c-0.32,0-0.62,0.15-0.83,0.38l-0.01-0.01
			l0.16-1.3h1.79v-0.64h-2.39l-0.24,2.6l0.71,0.03c0.07-0.27,0.31-0.46,0.65-0.46c0.51,0,0.67,0.48,0.67,1.06
			c0,0.58-0.15,1.13-0.71,1.13c-0.45,0-0.65-0.33-0.65-0.7v-0.13h-0.76V50.86z M90.45,49.9c0.01-0.92,0.27-1.26,0.79-1.26
			c0.52,0,0.78,0.34,0.79,1.26H90.45z M92.03,50.86c-0.07,0.65-0.34,0.97-0.78,0.97c-0.41,0-0.79-0.33-0.79-1.4v-0.18h2.03v-0.15
			c0-1.24-0.37-1.81-1.2-1.81c-0.82,0-1.28,0.65-1.28,1.94c0,1.4,0.46,1.95,1.24,1.95c0.7,0,1.13-0.52,1.2-1.32H92.03z M88.9,52.09
			h0.42v-5H88.9V52.09z M87.59,50.77c0,0.67-0.35,1.05-0.86,1.05c-0.36,0-0.59-0.29-0.59-0.73c0-0.44,0.22-0.66,0.64-0.77l0.35-0.09
			c0.17-0.04,0.41-0.12,0.45-0.25h0.01V50.77z M86.23,49.47c0-0.53,0.22-0.83,0.71-0.83c0.38,0,0.64,0.17,0.64,0.64
			c0,0.43-0.06,0.5-0.36,0.59l-0.79,0.22c-0.53,0.15-0.75,0.54-0.75,1.03c0,0.65,0.29,1.05,0.94,1.05c0.41,0,0.79-0.14,0.96-0.63
			h0.01v0.13c0,0.38,0.21,0.46,0.54,0.46c0.06,0,0.12-0.01,0.2-0.04v-0.31h-0.12c-0.15,0-0.22-0.1-0.22-0.31v-2.2
			c0-0.58-0.28-0.98-1.05-0.98c-0.78,0-1.15,0.42-1.15,1.18H86.23z M81.12,52.09h0.45v-4.58h0.01l1.3,4.58h0.42l1.29-4.58h0.01v4.58
			h0.45v-5h-0.73l-1.2,4.44H83.1l-1.21-4.44h-0.78V52.09z"/>
		<path class="st15" d="M111.2,62.62c-0.55,0-0.96,0.3-0.96,1.34c0,1.04,0.4,1.34,0.96,1.34s0.96-0.3,0.96-1.34
			C112.16,62.92,111.76,62.62,111.2,62.62 M108.31,60.25c-0.55,0-0.96,0.3-0.96,1.34c0,1.04,0.4,1.34,0.96,1.34
			c0.55,0,0.96-0.3,0.96-1.34C109.27,60.55,108.86,60.25,108.31,60.25 M111.2,63.05c0.29,0,0.36,0.26,0.36,0.91
			c0,0.65-0.07,0.91-0.36,0.91c-0.29,0-0.36-0.26-0.36-0.91C110.85,63.31,110.92,63.05,111.2,63.05 M110.58,60.25l-2.22,5.05h0.53
			l2.23-5.05H110.58z M108.31,60.68c0.29,0,0.36,0.26,0.36,0.91c0,0.65-0.07,0.91-0.36,0.91c-0.29,0-0.36-0.26-0.36-0.91
			C107.95,60.94,108.02,60.68,108.31,60.68 M105.66,63.46h-1.13l1.11-2.04h0.01V63.46z M103.89,64.09h1.77v1.11h0.75v-1.11h0.54
			v-0.64h-0.54v-3.21h-0.81l-1.72,3.16V64.09z M102.3,63.46h-1.13l1.11-2.04h0.01V63.46z M100.53,64.09h1.77v1.11h0.75v-1.11h0.54
			v-0.64h-0.54v-3.21h-0.81l-1.72,3.16V64.09z M96.42,63.02c0.01-0.93,0.27-1.26,0.79-1.26c0.52,0,0.78,0.34,0.79,1.26H96.42z
			 M97.99,63.97c-0.07,0.65-0.34,0.97-0.79,0.97c-0.41,0-0.79-0.33-0.79-1.4v-0.17h2.03v-0.15c0-1.24-0.37-1.81-1.2-1.81
			c-0.82,0-1.28,0.65-1.28,1.94c0,1.4,0.46,1.95,1.25,1.95c0.7,0,1.13-0.52,1.2-1.32H97.99z M94.87,65.21h0.42v-5h-0.42V65.21z
			 M93.56,63.89c0,0.67-0.35,1.05-0.86,1.05c-0.36,0-0.59-0.29-0.59-0.73c0-0.44,0.22-0.66,0.64-0.77l0.35-0.09
			c0.17-0.04,0.41-0.12,0.45-0.25h0.01V63.89z M92.2,62.59c0-0.53,0.22-0.83,0.71-0.83c0.38,0,0.64,0.17,0.64,0.64
			c0,0.43-0.06,0.5-0.36,0.59l-0.79,0.22c-0.52,0.15-0.75,0.54-0.75,1.03c0,0.65,0.29,1.05,0.94,1.05c0.41,0,0.79-0.14,0.96-0.63
			h0.01v0.13c0,0.39,0.21,0.46,0.54,0.46c0.06,0,0.12-0.01,0.2-0.04V64.9h-0.12c-0.15,0-0.22-0.1-0.22-0.31v-2.2
			c0-0.58-0.28-0.98-1.05-0.98c-0.78,0-1.15,0.42-1.15,1.18H92.2z M87.08,65.21h0.42v-2.5c0-0.57,0.34-0.95,0.76-0.95
			c0.38,0,0.58,0.23,0.58,0.67v2.78h0.42v-2.5c0-0.57,0.34-0.95,0.76-0.95c0.38,0,0.58,0.23,0.58,0.67v2.78h0.42v-2.84
			c0-0.67-0.34-0.96-0.86-0.96c-0.48,0-0.78,0.24-0.95,0.65h-0.01c-0.06-0.38-0.33-0.65-0.78-0.65c-0.41,0-0.75,0.19-0.95,0.6h-0.01
			v-0.52h-0.38V65.21z M84.36,63.02c0.01-0.93,0.27-1.26,0.79-1.26c0.52,0,0.78,0.34,0.79,1.26H84.36z M85.94,63.97
			c-0.07,0.65-0.34,0.97-0.78,0.97c-0.41,0-0.79-0.33-0.79-1.4v-0.17h2.03v-0.15c0-1.24-0.37-1.81-1.2-1.81
			c-0.82,0-1.28,0.65-1.28,1.94c0,1.4,0.46,1.95,1.25,1.95c0.7,0,1.13-0.52,1.2-1.32H85.94z M81.08,65.21h0.45v-2.42h1.9v-0.38h-1.9
			v-1.82h2.03v-0.38h-2.48V65.21z"/>
	</g>
	<rect x="215.85" y="56.53" class="st2" width="64.91" height="12.52"/>
	<rect x="215.85" y="43.35" class="st3" width="64.91" height="12.52"/>
	<g class="st0">
		<defs>
			<rect id="SVGID_11_" y="0" width="425.76" height="94.46"/>
		</defs>
		<clipPath id="SVGID_12_">
			<use xlink:href="#SVGID_11_"  style="overflow:visible;"/>
		</clipPath>
		<g class="st16">
			<g>
				<defs>
					<rect id="SVGID_13_" x="143.07" y="0.25" width="92.45" height="112.1"/>
				</defs>
				<clipPath id="SVGID_14_">
					<use xlink:href="#SVGID_13_"  style="overflow:visible;"/>
				</clipPath>
				<path class="st17" d="M183.34,55.98L148.2,41.85c7.84-19.31,29.92-28.64,49.33-20.84c14.75,5.93,23.97,19.8,23.7,35.63
					L183.34,55.98z"/>
				<path class="st18" d="M183.34,55.98L148.2,41.85c7.84-19.31,29.92-28.64,49.33-20.84c14.75,5.93,23.97,19.8,23.7,35.63
					L183.34,55.98z"/>
				<path class="st19" d="M183.29,56.35l37.93,0.66c-0.36,20.86-17.64,37.48-38.59,37.11c-20.95-0.37-37.64-17.57-37.27-38.44
					c0.09-5.01,0.87-8.85,2.76-13.49L183.29,56.35z"/>
				<path class="st18" d="M183.29,56.35l37.93,0.66c-0.36,20.86-17.64,37.48-38.59,37.11c-20.95-0.37-37.64-17.57-37.27-38.44
					c0.09-5.01,0.87-8.85,2.76-13.49L183.29,56.35z"/>
			</g>
		</g>
		<path class="st20" d="M183.34,55.97l-32.51-13.06c7.25-17.85,27.68-26.48,45.64-19.26c13.64,5.48,22.18,18.31,21.92,32.94
			L183.34,55.97z"/>
		<path class="st21" d="M183.34,55.97l-32.51-13.06c7.25-17.85,27.68-26.48,45.64-19.26c13.64,5.48,22.18,18.31,21.92,32.94
			L183.34,55.97z"/>
		<path class="st22" d="M183.29,56.36l35.1,0.61c-0.34,19.29-16.32,34.66-35.71,34.32s-34.83-16.25-34.49-35.55
			c0.08-4.63,0.81-8.19,2.55-12.48L183.29,56.36z"/>
		<path class="st21" d="M183.29,56.36l35.1,0.61c-0.34,19.29-16.32,34.66-35.71,34.32s-34.83-16.25-34.49-35.55
			c0.08-4.63,0.81-8.19,2.55-12.48L183.29,56.36z"/>
		<g class="st23">
			<g>
				<defs>
					<rect id="SVGID_15_" x="148.12" y="23.01" width="70.38" height="60.38"/>
				</defs>
				<clipPath id="SVGID_16_">
					<use xlink:href="#SVGID_15_"  style="overflow:visible;"/>
				</clipPath>
				<path class="st24" d="M183.31,82.06c14.28,0,25.86-11.58,25.86-25.86s-11.58-25.86-25.86-25.86
					c-14.28,0-25.86,11.58-25.86,25.86S169.02,82.06,183.31,82.06"/>
			</g>
		</g>
		<circle class="st25" cx="183.31" cy="56.2" r="25.86"/>
		<path class="st26" d="M183.31,79.58c12.92,0,23.39-10.47,23.39-23.39s-10.47-23.39-23.39-23.39s-23.39,10.47-23.39,23.39
			S170.39,79.58,183.31,79.58"/>
		<path class="st27" d="M251.63,49.52c-0.55,0-0.96,0.3-0.96,1.34c0,1.04,0.4,1.34,0.96,1.34c0.55,0,0.96-0.3,0.96-1.34
			C252.59,49.82,252.19,49.52,251.63,49.52 M248.74,47.15c-0.55,0-0.96,0.3-0.96,1.34c0,1.04,0.4,1.34,0.96,1.34
			c0.55,0,0.96-0.3,0.96-1.34C249.7,47.45,249.3,47.15,248.74,47.15 M251.63,49.95c0.29,0,0.36,0.26,0.36,0.91
			c0,0.65-0.07,0.91-0.36,0.91c-0.29,0-0.36-0.26-0.36-0.91C251.28,50.21,251.35,49.95,251.63,49.95 M251.01,47.15l-2.22,5.05h0.52
			l2.23-5.05H251.01z M248.74,47.58c0.29,0,0.36,0.26,0.36,0.91c0,0.65-0.07,0.91-0.36,0.91c-0.29,0-0.36-0.26-0.36-0.91
			C248.39,47.84,248.46,47.58,248.74,47.58 M246.09,50.36h-1.13l1.11-2.04h0.01V50.36z M244.32,50.99h1.77v1.11h0.76v-1.11h0.54
			v-0.64h-0.54v-3.21h-0.81l-1.71,3.16V50.99z M242.73,50.36h-1.13l1.11-2.04h0.01V50.36z M240.96,50.99h1.77v1.11h0.76v-1.11h0.54
			v-0.64h-0.54v-3.21h-0.81l-1.71,3.16V50.99z M236.65,52.1h0.42v-1.3l0.55-0.66l1.11,1.96h0.52l-1.32-2.34l1.12-1.38h-0.52
			l-1.44,1.85h-0.01v-3.13h-0.42V52.1z M235.65,50.87c-0.07,0.65-0.34,0.97-0.77,0.97c-0.39,0-0.79-0.19-0.79-1.59
			c0-1.31,0.38-1.59,0.83-1.59c0.45,0,0.68,0.26,0.73,0.83h0.42c-0.04-0.76-0.45-1.18-1.15-1.18c-0.82,0-1.28,0.65-1.28,1.93
			c0,1.4,0.46,1.95,1.24,1.95c0.69,0,1.12-0.53,1.18-1.32H235.65z M232.56,50.79c0,0.67-0.35,1.05-0.86,1.05
			c-0.36,0-0.59-0.3-0.59-0.73c0-0.44,0.22-0.66,0.64-0.77l0.35-0.09c0.17-0.04,0.41-0.12,0.45-0.25h0.01V50.79z M231.2,49.49
			c0-0.53,0.22-0.83,0.71-0.83c0.38,0,0.65,0.17,0.65,0.64c0,0.43-0.06,0.5-0.36,0.59l-0.79,0.23c-0.53,0.15-0.75,0.54-0.75,1.03
			c0,0.65,0.29,1.05,0.94,1.05c0.41,0,0.79-0.14,0.96-0.63h0.01v0.13c0,0.38,0.21,0.46,0.54,0.46c0.06,0,0.12-0.01,0.2-0.04V51.8
			h-0.12c-0.15,0-0.22-0.1-0.22-0.31v-2.2c0-0.58-0.28-0.98-1.05-0.98c-0.78,0-1.15,0.42-1.15,1.18H231.2z M229.6,52.1h0.42v-5
			h-0.42V52.1z M226.06,52.1h1.37c0.95,0,1.51-0.52,1.51-1.4c0-0.65-0.31-1.13-0.93-1.24v-0.01c0.5-0.13,0.77-0.6,0.77-1.09
			c0-0.74-0.38-1.25-1.34-1.25h-1.38V52.1z M226.5,49.68h0.83c0.78,0,1.16,0.35,1.16,1.02c0,0.67-0.38,1.02-1.16,1.02h-0.83V49.68z
			 M226.5,47.48h0.78c0.7,0,1.04,0.25,1.04,0.91c0,0.58-0.35,0.91-1.12,0.91h-0.71V47.48z"/>
		<path class="st27" d="M252.29,62.63c-0.55,0-0.96,0.3-0.96,1.34c0,1.04,0.4,1.34,0.96,1.34s0.96-0.3,0.96-1.34
			C253.24,62.93,252.84,62.63,252.29,62.63 M249.39,60.27c-0.55,0-0.96,0.3-0.96,1.34c0,1.04,0.4,1.34,0.96,1.34
			c0.55,0,0.96-0.3,0.96-1.34C250.35,60.57,249.95,60.27,249.39,60.27 M252.29,63.07c0.29,0,0.36,0.26,0.36,0.91
			c0,0.65-0.07,0.91-0.36,0.91c-0.29,0-0.36-0.26-0.36-0.91C251.93,63.33,252,63.07,252.29,63.07 M251.66,60.27l-2.22,5.05h0.52
			l2.23-5.05H251.66z M249.39,60.7c0.29,0,0.36,0.26,0.36,0.91c0,0.65-0.07,0.91-0.36,0.91c-0.29,0-0.36-0.26-0.36-0.91
			C249.04,60.96,249.11,60.7,249.39,60.7 M245.87,63.73c0-0.59,0.11-1.11,0.69-1.11c0.46,0,0.66,0.38,0.66,1.07
			c0,0.58-0.17,1.06-0.66,1.06C246.08,64.76,245.87,64.31,245.87,63.73 M247.92,61.47c0-0.81-0.47-1.2-1.34-1.2
			c-1.31,0-1.58,1.2-1.58,2.68c0,1.42,0.24,2.37,1.49,2.37c1.05,0,1.52-0.68,1.52-1.82c0-0.99-0.55-1.48-1.23-1.48
			c-0.43,0-0.77,0.17-0.97,0.52l-0.02-0.01c0-0.72,0.04-1.71,0.79-1.71c0.4,0,0.53,0.36,0.53,0.64H247.92z M241.69,63.99
			c0,0.88,0.5,1.33,1.38,1.33c1.07,0,1.53-0.76,1.53-1.75c0-0.76-0.26-1.64-1.29-1.64c-0.32,0-0.62,0.15-0.83,0.38l-0.01-0.01
			l0.16-1.3h1.79v-0.64h-2.39l-0.24,2.6l0.71,0.03c0.07-0.27,0.32-0.46,0.65-0.46c0.51,0,0.67,0.48,0.67,1.06
			c0,0.58-0.15,1.13-0.71,1.13c-0.45,0-0.65-0.33-0.65-0.7v-0.13h-0.76V63.99z M237.5,63.03c0.01-0.92,0.27-1.26,0.79-1.26
			c0.52,0,0.78,0.34,0.79,1.26H237.5z M239.08,63.99c-0.07,0.65-0.34,0.97-0.79,0.97c-0.41,0-0.79-0.33-0.79-1.4v-0.18h2.03v-0.15
			c0-1.24-0.37-1.81-1.2-1.81c-0.82,0-1.28,0.65-1.28,1.94c0,1.4,0.46,1.95,1.25,1.95c0.7,0,1.13-0.52,1.2-1.32H239.08z
			 M235.68,64.61c0,0.5,0.22,0.65,0.78,0.65c0.14,0,0.24-0.01,0.29-0.04v-0.35c-0.09,0.03-0.17,0.04-0.26,0.04
			c-0.27,0-0.4-0.1-0.4-0.39v-2.67h0.66v-0.35h-0.66v-1.03h-0.42v1.03h-0.51v0.35h0.51V64.61z M234.26,60.94h0.42v-0.71h-0.42V60.94
			z M234.26,65.22h0.42v-3.72h-0.42V65.22z M231.13,65.22h0.42v-2.5c0-0.57,0.33-0.95,0.82-0.95c0.43,0,0.64,0.25,0.64,0.76v2.69
			h0.42v-2.81c0-0.7-0.38-0.99-0.95-0.99c-0.44,0-0.81,0.22-0.91,0.6h-0.01v-1.8h-0.42V65.22z M226.8,65.22h0.56l0.83-4.4h0.01
			l0.83,4.4h0.56l1.06-5h-0.45l-0.87,4.4h-0.01l-0.85-4.4h-0.52l-0.85,4.4h-0.01l-0.88-4.4h-0.45L226.8,65.22z"/>
	</g>
	<rect x="355.61" y="56.53" class="st2" width="70.16" height="16.15"/>
	<rect x="360.85" y="43.35" class="st3" width="64.91" height="12.52"/>
	<g class="st0">
		<defs>
			<rect id="SVGID_17_" y="0" width="425.76" height="94.46"/>
		</defs>
		<clipPath id="SVGID_18_">
			<use xlink:href="#SVGID_17_"  style="overflow:visible;"/>
		</clipPath>
		<g class="st28">
			<g>
				<defs>
					<rect id="SVGID_19_" x="255.26" y="-15.24" width="140.34" height="132.31"/>
				</defs>
				<clipPath id="SVGID_20_">
					<use xlink:href="#SVGID_19_"  style="overflow:visible;"/>
				</clipPath>
				<path class="st29" d="M328.25,56.21l37.89-0.31c0.2,20.94-16.61,38.06-37.54,38.23c-20.93,0.17-38.05-16.67-38.24-37.61
					c-0.13-14.24,7.29-26.86,19.79-33.65L328.25,56.21z"/>
				<path class="st30" d="M328.25,56.21l37.89-0.31c0.2,20.94-16.61,38.06-37.54,38.23c-20.93,0.17-38.05-16.67-38.24-37.61
					c-0.13-14.24,7.29-26.86,19.79-33.65L328.25,56.21z"/>
				<path class="st31" d="M328.43,55.97l-18.04-33.22c18.31-9.94,41.23-3.12,51.19,15.22c3.19,5.87,4.52,11.03,4.59,17.71
					L328.43,55.97z"/>
				<path class="st30" d="M328.43,55.97l-18.04-33.22c18.31-9.94,41.23-3.12,51.19,15.22c3.19,5.87,4.52,11.03,4.59,17.71
					L328.43,55.97z"/>
			</g>
		</g>
		<path class="st32" d="M328.25,56.21l35.06-0.28c0.18,19.38-15.37,35.21-34.73,35.37c-19.36,0.16-35.2-15.43-35.38-34.8
			c-0.12-13.18,6.74-24.85,18.31-31.13L328.25,56.21z"/>
		<path class="st33" d="M328.25,56.21l35.06-0.28c0.18,19.38-15.37,35.21-34.73,35.37c-19.36,0.16-35.2-15.43-35.38-34.8
			c-0.12-13.18,6.74-24.85,18.31-31.13L328.25,56.21z"/>
		<path class="st34" d="M328.43,55.96l-16.68-30.73c16.93-9.19,38.12-2.88,47.33,14.09c2.95,5.43,4.19,10.2,4.25,16.37L328.43,55.96
			z"/>
		<path class="st33" d="M328.43,55.96l-16.68-30.73c16.93-9.19,38.12-2.88,47.33,14.09c2.95,5.43,4.19,10.2,4.25,16.37L328.43,55.96
			z"/>
		<g class="st35">
			<g>
				<defs>
					<rect id="SVGID_21_" x="293.12" y="23.01" width="70.38" height="60.38"/>
				</defs>
				<clipPath id="SVGID_22_">
					<use xlink:href="#SVGID_21_"  style="overflow:visible;"/>
				</clipPath>
				<path class="st36" d="M328.31,82.06c14.28,0,25.86-11.58,25.86-25.86s-11.58-25.86-25.86-25.86
					c-14.28,0-25.86,11.58-25.86,25.86S314.03,82.06,328.31,82.06"/>
			</g>
		</g>
		
			<ellipse transform="matrix(0.9585 -0.2852 0.2852 0.9585 -2.3907 95.9829)" class="st37" cx="328.31" cy="56.2" rx="25.86" ry="25.86"/>
		<path class="st38" d="M328.31,79.58c12.92,0,23.39-10.47,23.39-23.39s-10.47-23.39-23.39-23.39c-12.92,0-23.39,10.47-23.39,23.39
			S315.39,79.58,328.31,79.58"/>
		<path class="st39" d="M406.35,49.52c-0.55,0-0.96,0.3-0.96,1.34c0,1.04,0.41,1.34,0.96,1.34c0.55,0,0.96-0.3,0.96-1.34
			C407.31,49.82,406.91,49.52,406.35,49.52 M403.46,47.15c-0.55,0-0.96,0.3-0.96,1.34c0,1.04,0.41,1.34,0.96,1.34
			c0.55,0,0.96-0.3,0.96-1.34C404.42,47.45,404.01,47.15,403.46,47.15 M406.35,49.95c0.29,0,0.36,0.26,0.36,0.91
			c0,0.65-0.07,0.91-0.36,0.91c-0.29,0-0.36-0.26-0.36-0.91C406,50.21,406.07,49.95,406.35,49.95 M405.73,47.15l-2.22,5.05h0.52
			l2.23-5.05H405.73z M403.46,47.58c0.29,0,0.36,0.26,0.36,0.91c0,0.65-0.07,0.91-0.36,0.91c-0.29,0-0.36-0.26-0.36-0.91
			C403.1,47.84,403.17,47.58,403.46,47.58 M399.11,50.73c0,1.04,0.52,1.48,1.41,1.48c1.02,0,1.51-0.55,1.51-1.53
			c0-0.69-0.39-1.11-0.9-1.15V49.5c0.49-0.08,0.79-0.57,0.79-1.08c0-0.99-0.74-1.27-1.33-1.27c-0.95,0-1.43,0.5-1.43,1.43h0.76
			c0-0.45,0.14-0.87,0.63-0.87c0.41,0,0.57,0.36,0.57,0.71c0,0.48-0.18,0.85-0.71,0.85h-0.29v0.56h0.31c0.6,0,0.81,0.31,0.81,0.92
			c0,0.49-0.2,0.89-0.69,0.89c-0.54,0-0.68-0.48-0.68-0.92H399.11z M395.75,50.73c0,1.04,0.52,1.48,1.41,1.48
			c1.02,0,1.51-0.55,1.51-1.53c0-0.69-0.39-1.11-0.9-1.15V49.5c0.49-0.08,0.79-0.57,0.79-1.08c0-0.99-0.73-1.27-1.33-1.27
			c-0.95,0-1.43,0.5-1.43,1.43h0.76c0-0.45,0.14-0.87,0.63-0.87c0.41,0,0.57,0.36,0.57,0.71c0,0.48-0.18,0.85-0.71,0.85h-0.29v0.56
			h0.31c0.6,0,0.8,0.31,0.8,0.92c0,0.49-0.2,0.89-0.69,0.89c-0.54,0-0.68-0.48-0.68-0.92H395.75z M391.57,49.91
			c0.01-0.92,0.27-1.26,0.79-1.26s0.78,0.34,0.79,1.26H391.57z M393.14,50.87c-0.07,0.65-0.34,0.97-0.79,0.97
			c-0.41,0-0.79-0.33-0.79-1.4v-0.18h2.03v-0.15c0-1.24-0.37-1.81-1.2-1.81c-0.82,0-1.28,0.65-1.28,1.94c0,1.4,0.46,1.95,1.24,1.95
			c0.7,0,1.13-0.52,1.2-1.32H393.14z M389.36,52.1h0.48l0.98-3.72h-0.45l-0.76,3.24h-0.01l-0.83-3.24h-0.45L389.36,52.1z
			 M387.43,47.82h0.42v-0.71h-0.42V47.82z M387.43,52.1h0.42v-3.72h-0.42V52.1z M385.86,51.5c0,0.5,0.22,0.65,0.78,0.65
			c0.14,0,0.24-0.01,0.29-0.04v-0.35c-0.09,0.03-0.18,0.04-0.26,0.04c-0.27,0-0.4-0.1-0.4-0.39v-2.67h0.66v-0.35h-0.66v-1.03h-0.42
			v1.03h-0.51v0.35h0.51V51.5z M382.6,51.2c0,0.7,0.38,0.99,0.95,0.99c0.38,0,0.74-0.19,0.95-0.6h0.01v0.52h0.38v-3.72h-0.42v2.5
			c0,0.58-0.34,0.95-0.81,0.95c-0.44,0-0.64-0.23-0.64-0.83v-2.62h-0.42V51.2z M381.57,50.87c-0.07,0.65-0.34,0.97-0.77,0.97
			c-0.39,0-0.79-0.19-0.79-1.59c0-1.31,0.38-1.59,0.83-1.59c0.45,0,0.68,0.26,0.73,0.83h0.42c-0.04-0.76-0.45-1.18-1.15-1.18
			c-0.82,0-1.28,0.65-1.28,1.93c0,1.4,0.46,1.95,1.24,1.95c0.69,0,1.12-0.53,1.18-1.32H381.57z M377.06,49.91
			c0.01-0.92,0.27-1.26,0.79-1.26c0.52,0,0.78,0.34,0.79,1.26H377.06z M378.64,50.87c-0.07,0.65-0.34,0.97-0.79,0.97
			c-0.41,0-0.79-0.33-0.79-1.4v-0.18h2.03v-0.15c0-1.24-0.37-1.81-1.2-1.81c-0.82,0-1.28,0.65-1.28,1.94c0,1.4,0.46,1.95,1.24,1.95
			c0.7,0,1.13-0.52,1.2-1.32H378.64z M375.85,52.1h0.48l-1-1.92l0.96-1.8h-0.48l-0.74,1.47l-0.73-1.47h-0.48l0.96,1.8l-1,1.92h0.48
			l0.78-1.6L375.85,52.1z M371.06,52.1h2.54v-0.38h-2.09v-2.04h1.9v-0.38h-1.9v-1.82h2.03v-0.38h-2.48V52.1z"/>
		<path class="st39" d="M406.23,67.98c-0.55,0-0.96,0.3-0.96,1.34s0.41,1.34,0.96,1.34c0.55,0,0.96-0.3,0.96-1.34
			S406.78,67.98,406.23,67.98 M403.34,65.62c-0.55,0-0.96,0.3-0.96,1.34s0.41,1.34,0.96,1.34c0.55,0,0.96-0.3,0.96-1.34
			S403.89,65.62,403.34,65.62 M406.23,68.42c0.29,0,0.36,0.26,0.36,0.91s-0.07,0.91-0.36,0.91c-0.29,0-0.36-0.26-0.36-0.91
			S405.94,68.42,406.23,68.42 M405.6,65.62l-2.22,5.05h0.52l2.23-5.05H405.6z M403.34,66.05c0.29,0,0.36,0.26,0.36,0.91
			s-0.07,0.91-0.36,0.91c-0.29,0-0.36-0.26-0.36-0.91S403.05,66.05,403.34,66.05 M398.98,66.43h2.17c-0.79,1.01-1.52,2.67-1.63,4.14
			h0.84c0.11-1.49,0.78-3.21,1.56-4.23v-0.63h-2.94V66.43z M396.45,69.08c0-0.6,0.11-1.11,0.69-1.11c0.46,0,0.66,0.39,0.66,1.07
			c0,0.58-0.17,1.07-0.66,1.07C396.66,70.11,396.45,69.66,396.45,69.08 M398.5,66.82c0-0.81-0.47-1.2-1.34-1.2
			c-1.31,0-1.58,1.2-1.58,2.68c0,1.42,0.24,2.37,1.49,2.37c1.05,0,1.52-0.68,1.52-1.82c0-0.99-0.55-1.48-1.22-1.48
			c-0.43,0-0.77,0.17-0.97,0.52l-0.02-0.01c0-0.72,0.04-1.71,0.79-1.71c0.4,0,0.53,0.36,0.53,0.64H398.5z M391.44,68.38
			c0.01-0.92,0.27-1.26,0.79-1.26s0.78,0.34,0.79,1.26H391.44z M393.02,69.34c-0.07,0.65-0.34,0.97-0.79,0.97
			c-0.41,0-0.79-0.33-0.79-1.4v-0.18h2.03v-0.15c0-1.24-0.37-1.81-1.2-1.81c-0.82,0-1.28,0.65-1.28,1.94c0,1.4,0.46,1.95,1.24,1.95
			c0.7,0,1.13-0.53,1.2-1.32H393.02z M389.24,70.57h0.48l0.98-3.72h-0.45l-0.76,3.24h-0.01l-0.83-3.24h-0.45L389.24,70.57z
			 M387.3,66.29h0.42v-0.71h-0.42V66.29z M387.3,70.57h0.42v-3.72h-0.42V70.57z M385.74,69.96c0,0.5,0.22,0.65,0.78,0.65
			c0.14,0,0.24-0.01,0.29-0.04v-0.35c-0.09,0.03-0.17,0.04-0.26,0.04c-0.27,0-0.4-0.1-0.4-0.39v-2.67h0.66v-0.35h-0.66v-1.03h-0.42
			v1.03h-0.51v0.35h0.51V69.96z M382.48,69.66c0,0.7,0.38,0.99,0.95,0.99c0.38,0,0.74-0.19,0.95-0.6h0.01v0.52h0.38v-3.72h-0.42v2.5
			c0,0.58-0.34,0.95-0.81,0.95c-0.44,0-0.64-0.23-0.64-0.83v-2.62h-0.42V69.66z M381.44,69.34c-0.07,0.65-0.34,0.97-0.77,0.97
			c-0.39,0-0.79-0.19-0.79-1.6c0-1.31,0.38-1.59,0.83-1.59c0.45,0,0.68,0.26,0.73,0.83h0.42c-0.04-0.76-0.45-1.18-1.15-1.18
			c-0.82,0-1.28,0.65-1.28,1.93c0,1.4,0.46,1.95,1.24,1.95c0.69,0,1.12-0.53,1.18-1.32H381.44z M376.94,68.38
			c0.01-0.92,0.27-1.26,0.79-1.26c0.52,0,0.78,0.34,0.79,1.26H376.94z M378.51,69.34c-0.07,0.65-0.34,0.97-0.79,0.97
			c-0.41,0-0.79-0.33-0.79-1.4v-0.18h2.03v-0.15c0-1.24-0.37-1.81-1.2-1.81c-0.82,0-1.28,0.65-1.28,1.94c0,1.4,0.46,1.95,1.24,1.95
			c0.7,0,1.13-0.53,1.2-1.32H378.51z M375.72,70.57h0.48l-1-1.92l0.96-1.8h-0.48l-0.74,1.47l-0.73-1.47h-0.48l0.96,1.8l-1,1.92h0.48
			l0.78-1.6L375.72,70.57z M371.37,68.38c0.01-0.92,0.27-1.26,0.79-1.26c0.52,0,0.78,0.34,0.79,1.26H371.37z M372.94,69.34
			c-0.07,0.65-0.34,0.97-0.78,0.97c-0.41,0-0.79-0.33-0.79-1.4v-0.18h2.03v-0.15c0-1.24-0.37-1.81-1.2-1.81
			c-0.82,0-1.28,0.65-1.28,1.94c0,1.4,0.46,1.95,1.25,1.95c0.7,0,1.13-0.53,1.2-1.32H372.94z"/>
		<path class="st39" d="M412.52,61.77h1.52V61.4h-1.52V61.77z M409.41,63.57h0.42v-2.5c0-0.57,0.33-0.95,0.82-0.95
			c0.43,0,0.64,0.25,0.64,0.76v2.69h0.42v-2.81c0-0.7-0.38-0.99-0.95-0.99c-0.38,0-0.74,0.19-0.95,0.6h-0.01v-0.52h-0.38V63.57z
			 M406.68,61.71c0-1.18,0.36-1.59,0.83-1.59s0.83,0.41,0.83,1.59c0,1.19-0.36,1.6-0.83,1.6S406.68,62.9,406.68,61.71 M406.23,61.71
			c0,1.29,0.46,1.95,1.28,1.95c0.82,0,1.28-0.65,1.28-1.95c0-1.29-0.46-1.94-1.28-1.94C406.7,59.77,406.23,60.42,406.23,61.71
			 M403.32,63.57h0.42v-2.5c0-0.57,0.33-0.95,0.82-0.95c0.43,0,0.64,0.25,0.64,0.76v2.69h0.42v-2.81c0-0.7-0.38-0.99-0.95-0.99
			c-0.38,0-0.74,0.19-0.95,0.6h-0.01v-0.52h-0.38V63.57z M400.11,62.96c0,0.5,0.22,0.65,0.78,0.65c0.14,0,0.24-0.01,0.29-0.04v-0.35
			c-0.09,0.03-0.18,0.04-0.26,0.04c-0.27,0-0.4-0.1-0.4-0.39v-2.67h0.66v-0.35h-0.66v-1.03h-0.42v1.03h-0.51v0.35h0.51V62.96z
			 M396.85,63.57h0.42v-2.5c0-0.57,0.33-0.95,0.82-0.95c0.43,0,0.64,0.25,0.64,0.76v2.69h0.42v-2.81c0-0.7-0.38-0.99-0.95-0.99
			c-0.38,0-0.74,0.19-0.95,0.6h-0.01v-0.52h-0.38V63.57z M394.16,61.38c0.01-0.92,0.27-1.26,0.79-1.26c0.52,0,0.78,0.34,0.79,1.26
			H394.16z M395.73,62.34c-0.07,0.65-0.34,0.97-0.78,0.97c-0.41,0-0.79-0.33-0.79-1.4v-0.17h2.03v-0.15c0-1.24-0.37-1.81-1.2-1.81
			c-0.82,0-1.28,0.65-1.28,1.94c0,1.4,0.46,1.95,1.25,1.95c0.7,0,1.13-0.53,1.2-1.32H395.73z M391.05,61.71
			c0-1.37,0.39-1.59,0.81-1.59c0.43,0,0.81,0.22,0.81,1.59c0,1.38-0.38,1.6-0.81,1.6C391.44,63.31,391.05,63.09,391.05,61.71
			 M392.72,63.57h0.38v-5h-0.42v1.84h-0.01c-0.09-0.39-0.41-0.64-0.87-0.64c-0.82,0-1.19,0.66-1.19,1.94c0,1.29,0.37,1.95,1.19,1.95
			c0.44,0,0.8-0.27,0.91-0.7h0.01V63.57z M387.65,63.57h0.42v-2.5c0-0.57,0.33-0.95,0.82-0.95c0.43,0,0.64,0.25,0.64,0.76v2.69h0.42
			v-2.81c0-0.7-0.38-0.99-0.95-0.99c-0.38,0-0.74,0.19-0.95,0.6h-0.01v-0.52h-0.38V63.57z M384.96,61.38
			c0.01-0.92,0.27-1.26,0.79-1.26c0.52,0,0.78,0.34,0.79,1.26H384.96z M386.54,62.34c-0.07,0.65-0.34,0.97-0.78,0.97
			c-0.41,0-0.79-0.33-0.79-1.4v-0.17h2.03v-0.15c0-1.24-0.37-1.81-1.2-1.81c-0.82,0-1.28,0.65-1.28,1.94c0,1.4,0.46,1.95,1.25,1.95
			c0.7,0,1.13-0.53,1.2-1.32H386.54z M383.56,61.72c0,1.37-0.39,1.59-0.81,1.59c-0.43,0-0.81-0.22-0.81-1.59
			c0-0.64,0.06-1.01,0.24-1.27c0.14-0.2,0.35-0.33,0.59-0.33C383.17,60.12,383.56,60.37,383.56,61.72 M381.52,64.81h0.42v-1.79h0.01
			c0.09,0.39,0.41,0.64,0.87,0.64c0.82,0,1.19-0.66,1.19-1.94c0-1.29-0.36-1.94-1.18-1.94c-0.48,0-0.78,0.27-0.92,0.61h-0.01v-0.53
			h-0.38V64.81z M378.87,61.38c0.01-0.92,0.27-1.26,0.79-1.26c0.52,0,0.78,0.34,0.79,1.26H378.87z M380.45,62.34
			c-0.07,0.65-0.34,0.97-0.78,0.97c-0.41,0-0.79-0.33-0.79-1.4v-0.17h2.03v-0.15c0-1.24-0.37-1.81-1.2-1.81
			c-0.82,0-1.28,0.65-1.28,1.94c0,1.4,0.46,1.95,1.25,1.95c0.7,0,1.13-0.53,1.2-1.32H380.45z M375.76,61.71
			c0-1.37,0.39-1.59,0.81-1.59c0.43,0,0.81,0.22,0.81,1.59c0,1.38-0.39,1.6-0.81,1.6C376.15,63.31,375.76,63.09,375.76,61.71
			 M377.43,63.57h0.38v-5h-0.42v1.84h-0.02c-0.09-0.39-0.41-0.64-0.87-0.64c-0.82,0-1.19,0.66-1.19,1.94c0,1.29,0.37,1.95,1.19,1.95
			c0.44,0,0.8-0.27,0.91-0.7h0.01V63.57z M372.36,63.57h0.42v-2.5c0-0.57,0.33-0.95,0.82-0.95c0.43,0,0.64,0.25,0.64,0.76v2.69h0.42
			v-2.81c0-0.7-0.38-0.99-0.95-0.99c-0.38,0-0.74,0.19-0.95,0.6h-0.01v-0.52h-0.38V63.57z M371.09,63.57h0.45v-5h-0.45V63.57z"/>
	</g>
</g>
</svg>
