<?xml version="1.0" encoding="utf-8"?>
<!-- Generator: Adobe Illustrator 23.0.0, SVG Export Plug-In . SVG Version: 6.00 Build 0)  -->
<svg version="1.1" id="Layer_1" xmlns="http://www.w3.org/2000/svg" xmlns:xlink="http://www.w3.org/1999/xlink" x="0px" y="0px"
	 viewBox="0 0 229.61 163.14" style="enable-background:new 0 0 229.61 163.14;" xml:space="preserve">
<style type="text/css">
	.st0{clip-path:url(#SVGID_2_);fill:#231F20;}
	.st1{fill:#64BDE1;}
	.st2{clip-path:url(#SVGID_4_);fill:#231F20;}
	.st3{fill:#003767;}
	.st4{clip-path:url(#SVGID_6_);fill:#231F20;}
	.st5{clip-path:url(#SVGID_8_);fill:#231F20;}
	.st6{clip-path:url(#SVGID_10_);fill:#231F20;}
	.st7{clip-path:url(#SVGID_12_);fill:#231F20;}
	.st8{clip-path:url(#SVGID_14_);fill:#231F20;}
	.st9{clip-path:url(#SVGID_16_);fill:#231F20;}
	.st10{clip-path:url(#SVGID_18_);fill:#231F20;}
	.st11{clip-path:url(#SVGID_20_);fill:#231F20;}
	.st12{clip-path:url(#SVGID_22_);fill:#231F20;}
	.st13{clip-path:url(#SVGID_24_);fill:#231F20;}
	.st14{clip-path:url(#SVGID_24_);fill:#3AA7CC;}
	.st15{clip-path:url(#SVGID_24_);fill:none;stroke:#003767;stroke-width:0.35;}
</style>
<g>
	<defs>
		<rect id="SVGID_1_" width="229.61" height="163.14"/>
	</defs>
	<clipPath id="SVGID_2_">
		<use xlink:href="#SVGID_1_"  style="overflow:visible;"/>
	</clipPath>
	<path class="st0" d="M186.51,147.07c-0.03-0.95-0.73-1.41-1.61-1.41c-0.77,0-1.65,0.34-1.65,1.23c0,0.75,0.53,0.99,1.22,1.17
		l0.69,0.15c0.48,0.12,0.96,0.29,0.96,0.8c0,0.61-0.7,0.83-1.2,0.83c-0.71,0-1.25-0.37-1.29-1.1h-0.53c0.08,1.07,0.78,1.55,1.8,1.55
		c0.82,0,1.76-0.36,1.76-1.32c0-0.77-0.64-1.12-1.25-1.22l-0.71-0.16c-0.37-0.09-0.91-0.26-0.91-0.74c0-0.57,0.56-0.76,1.04-0.76
		c0.61,0,1.12,0.3,1.15,0.96H186.51z M180.67,150.17h0.53v-2.34c0-0.91,0.66-1.62,1.63-1.57v-0.53c-0.79-0.03-1.39,0.38-1.66,1.09
		h-0.02v-1.03h-0.49V150.17z M176.57,147.68c0.09-0.8,0.57-1.57,1.45-1.57c0.87,0,1.37,0.76,1.39,1.57H176.57z M179.95,148.13
		c0.04-1.23-0.52-2.46-1.93-2.46c-1.39,0-1.98,1.16-1.98,2.32c0,1.25,0.59,2.32,1.98,2.32c1.11,0,1.68-0.58,1.91-1.57h-0.53
		c-0.17,0.66-0.6,1.12-1.38,1.12c-1.03,0-1.44-0.94-1.45-1.73H179.95z M174.69,150.17h0.53v-6.07h-0.53V150.17z M173.12,144.96h0.53
		v-0.86h-0.53V144.96z M173.12,150.17h0.53v-4.39h-0.53V150.17z M169.18,147.13c0.02-0.71,0.51-1.02,1.17-1.02
		c0.63,0,1.15,0.18,1.15,0.9c0,0.49-0.25,0.54-0.69,0.6c-1.16,0.14-2.35,0.18-2.35,1.41c0,0.88,0.66,1.28,1.47,1.28
		c0.84,0,1.22-0.32,1.6-0.89h0.02c0,0.46,0.08,0.76,0.63,0.76c0.15,0,0.23-0.01,0.35-0.03v-0.45c-0.04,0.02-0.11,0.03-0.17,0.03
		c-0.21,0-0.32-0.12-0.32-0.32v-2.33c0-1.17-0.84-1.41-1.61-1.41c-1,0-1.72,0.44-1.78,1.47H169.18z M171.51,148.48
		c0.01,0.86-0.71,1.38-1.53,1.38c-0.5,0-0.98-0.33-0.98-0.87c0-0.86,1.13-0.85,2.04-1.01c0.15-0.02,0.38-0.07,0.45-0.2h0.02V148.48z
		 M167.03,144.47h-0.54v1.32h-0.76v0.45h0.76v3c-0.01,0.75,0.24,0.99,0.95,0.99c0.16,0,0.32-0.02,0.48-0.02v-0.46
		c-0.15,0.02-0.31,0.03-0.46,0.03c-0.38-0.03-0.43-0.23-0.43-0.58v-2.96h0.89v-0.45h-0.89V144.47z M162.09,147.68
		c0.08-0.8,0.57-1.57,1.45-1.57c0.87,0,1.37,0.76,1.39,1.57H162.09z M165.46,148.13c0.04-1.23-0.52-2.46-1.93-2.46
		c-1.4,0-1.98,1.16-1.98,2.32c0,1.25,0.59,2.32,1.98,2.32c1.1,0,1.68-0.58,1.91-1.57h-0.53c-0.17,0.66-0.6,1.12-1.38,1.12
		c-1.03,0-1.44-0.94-1.45-1.73H165.46z M159.25,150.17h0.53v-2.34c0-0.91,0.66-1.62,1.63-1.57v-0.53c-0.79-0.03-1.38,0.38-1.66,1.09
		h-0.02v-1.03h-0.49V150.17z M155.87,145.79h-0.53v0.76h-0.02c-0.21-0.49-0.76-0.88-1.39-0.88c-1.27,0-1.98,1-1.98,2.21
		c0,1.25,0.58,2.25,1.98,2.25c0.63,0,1.15-0.37,1.39-0.9h0.02v0.6c0,1.07-0.43,1.66-1.41,1.66c-0.6,0-1.17-0.23-1.28-0.88h-0.53
		c0.08,0.94,0.94,1.33,1.82,1.33c1.44,0,1.94-0.8,1.95-2.11V145.79z M153.92,149.67c-0.99,0-1.45-0.86-1.45-1.74
		c0-0.91,0.43-1.82,1.45-1.82c1.01,0,1.41,0.96,1.41,1.82C155.33,148.82,154.85,149.67,153.92,149.67 M151.15,145.79h-0.53v2.3
		c0,0.89-0.4,1.76-1.32,1.76c-0.85,0-1.15-0.42-1.17-1.21v-2.86h-0.53v2.85c0,1.02,0.43,1.66,1.54,1.66c0.65,0,1.23-0.33,1.51-0.92
		h0.02v0.79h0.49V145.79z M144.92,150.17h0.54v-2.34c0-0.91,0.66-1.62,1.63-1.57v-0.53c-0.79-0.03-1.39,0.38-1.66,1.09h-0.02v-1.03
		h-0.49V150.17z M143.9,144.11h-0.53v2.51h-0.02c-0.23-0.63-0.87-0.96-1.52-0.96c-1.34,0-1.97,1.08-1.97,2.32
		c0,1.24,0.64,2.32,1.97,2.32c0.64,0,1.33-0.39,1.56-0.96h0.02v0.83h0.49V144.11z M140.39,147.98c0-0.91,0.42-1.87,1.44-1.87
		c1.14,0,1.54,0.96,1.54,1.87c0,0.91-0.4,1.87-1.54,1.87C140.8,149.85,140.39,148.89,140.39,147.98 M136.66,144.11h-0.53v2.51h-0.02
		c-0.23-0.63-0.87-0.96-1.52-0.96c-1.33,0-1.97,1.08-1.97,2.32c0,1.24,0.64,2.32,1.97,2.32c0.64,0,1.34-0.39,1.56-0.96h0.02v0.83
		h0.49V144.11z M133.15,147.98c0-0.91,0.42-1.87,1.44-1.87c1.14,0,1.54,0.96,1.54,1.87c0,0.91-0.4,1.87-1.54,1.87
		C133.56,149.85,133.15,148.89,133.15,147.98 M128.23,150.17h0.53v-2.56c0.02-0.86,0.53-1.5,1.38-1.5c0.87,0,1.11,0.57,1.11,1.33
		v2.74h0.53v-2.82c0-1.05-0.37-1.69-1.61-1.69c-0.62,0-1.21,0.36-1.4,0.88h-0.02v-0.76h-0.53V150.17z M124.31,147.13
		c0.02-0.71,0.51-1.02,1.17-1.02c0.63,0,1.15,0.18,1.15,0.9c0,0.49-0.25,0.54-0.69,0.6c-1.16,0.14-2.35,0.18-2.35,1.41
		c0,0.88,0.66,1.28,1.47,1.28c0.84,0,1.22-0.32,1.6-0.89h0.02c0,0.46,0.08,0.76,0.63,0.76c0.15,0,0.23-0.01,0.35-0.03v-0.45
		c-0.04,0.02-0.11,0.03-0.17,0.03c-0.21,0-0.31-0.12-0.31-0.32v-2.33c0-1.17-0.84-1.41-1.61-1.41c-1,0-1.72,0.44-1.78,1.47H124.31z
		 M126.63,148.48c0.01,0.86-0.71,1.38-1.53,1.38c-0.5,0-0.98-0.33-0.98-0.87c0-0.86,1.13-0.85,2.04-1.01
		c0.14-0.02,0.38-0.07,0.45-0.2h0.02V148.48z M120.44,144.11h-0.54v2.51h-0.02c-0.23-0.63-0.87-0.96-1.52-0.96
		c-1.33,0-1.97,1.08-1.97,2.32c0,1.24,0.64,2.32,1.97,2.32c0.64,0,1.33-0.39,1.57-0.96h0.02v0.83h0.49V144.11z M116.93,147.98
		c0-0.91,0.42-1.87,1.44-1.87c1.14,0,1.54,0.96,1.54,1.87c0,0.91-0.4,1.87-1.54,1.87C117.35,149.85,116.93,148.89,116.93,147.98
		 M113.71,146.11c1.03,0,1.54,0.93,1.54,1.87c0,0.93-0.51,1.87-1.54,1.87s-1.54-0.93-1.54-1.87
		C112.17,147.05,112.68,146.11,113.71,146.11 M113.71,145.66c-1.34,0-2.07,1.06-2.07,2.32c0,1.26,0.73,2.32,2.07,2.32
		c1.34,0,2.07-1.06,2.07-2.32C115.78,146.72,115.05,145.66,113.71,145.66 M108.98,146.11c1.03,0,1.54,0.93,1.54,1.87
		c0,0.93-0.51,1.87-1.54,1.87s-1.54-0.93-1.54-1.87C107.44,147.05,107.95,146.11,108.98,146.11 M108.98,145.66
		c-1.34,0-2.07,1.06-2.07,2.32c0,1.26,0.73,2.32,2.07,2.32c1.34,0,2.07-1.06,2.07-2.32C111.06,146.72,110.32,145.66,108.98,145.66
		 M106.62,145.79h-0.87v-0.38c0.01-0.48-0.01-0.85,0.59-0.85c0.13,0,0.25,0.02,0.39,0.04v-0.46c-0.17-0.03-0.3-0.03-0.45-0.03
		c-0.86,0-1.07,0.53-1.06,1.28v0.4h-0.75v0.45h0.75v3.94h0.53v-3.94h0.87V145.79z M99.89,150.17h0.53v-2.34
		c0-0.91,0.66-1.62,1.63-1.57v-0.53c-0.79-0.03-1.39,0.38-1.66,1.09h-0.02v-1.03h-0.49V150.17z M95.79,147.68
		c0.08-0.8,0.57-1.57,1.44-1.57c0.87,0,1.37,0.76,1.39,1.57H95.79z M99.16,148.13c0.04-1.23-0.52-2.46-1.93-2.46
		c-1.39,0-1.98,1.16-1.98,2.32c0,1.25,0.59,2.32,1.98,2.32c1.11,0,1.68-0.58,1.91-1.57h-0.53c-0.17,0.66-0.6,1.12-1.38,1.12
		c-1.03,0-1.44-0.94-1.44-1.73H99.16z M90.9,150.17h0.53v-2.56c0.02-0.86,0.53-1.5,1.38-1.5c0.87,0,1.11,0.57,1.11,1.33v2.74h0.53
		v-2.82c0-1.05-0.37-1.69-1.61-1.69c-0.62,0-1.21,0.36-1.4,0.88h-0.02v-2.44H90.9V150.17z M89.24,144.47h-0.53v1.32h-0.76v0.45h0.76
		v3c-0.01,0.75,0.24,0.99,0.95,0.99c0.16,0,0.31-0.02,0.48-0.02v-0.46c-0.15,0.02-0.31,0.03-0.46,0.03
		c-0.38-0.03-0.43-0.23-0.43-0.58v-2.96h0.89v-0.45h-0.89V144.47z M85.52,146.11c1.03,0,1.54,0.93,1.54,1.87
		c0,0.93-0.51,1.87-1.54,1.87c-1.03,0-1.54-0.93-1.54-1.87C83.98,147.05,84.49,146.11,85.52,146.11 M85.52,145.66
		c-1.34,0-2.07,1.06-2.07,2.32c0,1.26,0.73,2.32,2.07,2.32c1.34,0,2.07-1.06,2.07-2.32C87.6,146.72,86.86,145.66,85.52,145.66
		 M77.21,147.68c0.08-0.8,0.57-1.57,1.45-1.57c0.87,0,1.37,0.76,1.39,1.57H77.21z M80.58,148.13c0.04-1.23-0.52-2.46-1.93-2.46
		c-1.39,0-1.98,1.16-1.98,2.32c0,1.25,0.59,2.32,1.98,2.32c1.11,0,1.68-0.58,1.91-1.57h-0.54c-0.17,0.66-0.6,1.12-1.38,1.12
		c-1.03,0-1.44-0.94-1.45-1.73H80.58z M72.32,150.17h0.53v-2.56c0.02-0.86,0.53-1.5,1.38-1.5c0.87,0,1.11,0.57,1.11,1.33v2.74h0.53
		v-2.82c0-1.05-0.37-1.69-1.61-1.69c-0.62,0-1.21,0.36-1.4,0.88h-0.02v-2.44h-0.53V150.17z M70.66,144.47h-0.53v1.32h-0.76v0.45
		h0.76v3c-0.01,0.75,0.24,0.99,0.95,0.99c0.16,0,0.31-0.02,0.48-0.02v-0.46c-0.15,0.02-0.31,0.03-0.46,0.03
		c-0.38-0.03-0.43-0.23-0.43-0.58v-2.96h0.89v-0.45h-0.89V144.47z M66.94,145.79h-0.87v-0.38c0.01-0.48-0.01-0.85,0.59-0.85
		c0.13,0,0.25,0.02,0.39,0.04v-0.46c-0.17-0.03-0.3-0.03-0.45-0.03c-0.86,0-1.07,0.53-1.06,1.28v0.4h-0.75v0.45h0.75v3.94h0.53
		v-3.94h0.87V145.79z M62.38,146.11c1.03,0,1.54,0.93,1.54,1.87c0,0.93-0.51,1.87-1.54,1.87c-1.03,0-1.54-0.93-1.54-1.87
		C60.84,147.05,61.35,146.11,62.38,146.11 M62.38,145.66c-1.34,0-2.07,1.06-2.07,2.32c0,1.26,0.73,2.32,2.07,2.32
		c1.34,0,2.07-1.06,2.07-2.32C64.45,146.72,63.72,145.66,62.38,145.66 M53.22,150.17h4.23v-0.49H53.8v-2.4h3.38v-0.49H53.8v-2.19
		h3.61v-0.49h-4.19V150.17z M47.18,147.14c0-1.33,0.68-2.67,2.29-2.67c1.6,0,2.28,1.34,2.28,2.67c0,1.33-0.68,2.67-2.28,2.67
		C47.86,149.81,47.18,148.47,47.18,147.14 M46.6,147.14c0,1.66,0.95,3.16,2.86,3.16c1.9,0,2.86-1.5,2.86-3.16
		c0-1.66-0.95-3.16-2.86-3.16C47.55,143.98,46.6,145.48,46.6,147.14 M41.83,144.6h2.16c0.87,0,1.31,0.47,1.31,1.21
		c0,0.74-0.6,1.18-1.31,1.18h-2.16V144.6z M41.26,150.17h0.58v-2.7h2.19c1.1-0.04,1.16,0.9,1.22,1.75c0.02,0.25,0.02,0.71,0.16,0.94
		h0.64c-0.26-0.31-0.26-1.14-0.28-1.56c-0.04-0.72-0.27-1.27-1.06-1.37v-0.02c0.78-0.15,1.18-0.78,1.18-1.55
		c0-1.1-0.84-1.58-1.84-1.58h-2.78V150.17z M34.69,147.68c0.09-0.8,0.57-1.57,1.44-1.57c0.87,0,1.37,0.76,1.4,1.57H34.69z
		 M38.07,148.13c0.04-1.23-0.52-2.46-1.93-2.46c-1.39,0-1.98,1.16-1.98,2.32c0,1.25,0.59,2.32,1.98,2.32c1.11,0,1.68-0.58,1.91-1.57
		h-0.53c-0.17,0.66-0.6,1.12-1.38,1.12c-1.03,0-1.44-0.94-1.44-1.73H38.07z M33.36,145.79h-0.53v0.76h-0.02
		c-0.21-0.49-0.76-0.88-1.4-0.88c-1.27,0-1.98,1-1.98,2.21c0,1.25,0.58,2.25,1.98,2.25c0.63,0,1.15-0.37,1.4-0.9h0.02v0.6
		c0,1.07-0.42,1.66-1.41,1.66c-0.59,0-1.16-0.23-1.28-0.88h-0.53c0.08,0.94,0.94,1.33,1.82,1.33c1.44,0,1.94-0.8,1.95-2.11V145.79z
		 M31.41,149.67c-0.99,0-1.44-0.86-1.44-1.74c0-0.91,0.42-1.82,1.44-1.82c1.01,0,1.41,0.96,1.41,1.82
		C32.82,148.82,32.34,149.67,31.41,149.67 M25.72,147.13c0.02-0.71,0.51-1.02,1.17-1.02c0.63,0,1.15,0.18,1.15,0.9
		c0,0.49-0.25,0.54-0.69,0.6c-1.16,0.14-2.35,0.18-2.35,1.41c0,0.88,0.66,1.28,1.47,1.28c0.84,0,1.22-0.32,1.6-0.89h0.02
		c0,0.46,0.09,0.76,0.63,0.76c0.15,0,0.23-0.01,0.35-0.03v-0.45c-0.04,0.02-0.11,0.03-0.17,0.03c-0.21,0-0.32-0.12-0.32-0.32v-2.33
		c0-1.17-0.84-1.41-1.61-1.41c-1,0-1.73,0.44-1.78,1.47H25.72z M28.05,148.48c0.01,0.86-0.71,1.38-1.53,1.38
		c-0.5,0-0.98-0.33-0.98-0.87c0-0.86,1.13-0.85,2.04-1.01c0.15-0.02,0.38-0.07,0.45-0.2h0.02V148.48z M22.56,150.17h0.53v-2.34
		c0-0.91,0.66-1.62,1.63-1.57v-0.53c-0.79-0.03-1.39,0.38-1.66,1.09h-0.02v-1.03h-0.49V150.17z M18.47,147.68
		c0.08-0.8,0.57-1.57,1.45-1.57c0.87,0,1.37,0.76,1.39,1.57H18.47z M21.84,148.13c0.04-1.23-0.52-2.46-1.93-2.46
		c-1.4,0-1.98,1.16-1.98,2.32c0,1.25,0.58,2.32,1.98,2.32c1.1,0,1.68-0.58,1.91-1.57h-0.53c-0.17,0.66-0.6,1.12-1.38,1.12
		c-1.03,0-1.44-0.94-1.45-1.73H21.84z M15.41,150.17h0.57l1.64-4.39h-0.55l-1.36,3.85h-0.02l-1.38-3.85h-0.59L15.41,150.17z
		 M11.19,144.68l1.17,3.11H9.97L11.19,144.68z M8.44,150.17h0.62l0.73-1.89h2.76l0.74,1.89h0.62l-2.38-6.07h-0.64L8.44,150.17z"/>
</g>
<rect y="144.31" class="st1" width="5.67" height="5.67"/>
<g>
	<defs>
		<rect id="SVGID_3_" width="229.61" height="163.14"/>
	</defs>
	<clipPath id="SVGID_4_">
		<use xlink:href="#SVGID_3_"  style="overflow:visible;"/>
	</clipPath>
	<path class="st2" d="M70.86,161.51h4.23v-0.49h-3.66v-2.4h3.38v-0.49h-3.38v-2.19h3.61v-0.49h-4.19V161.51z M64.81,158.48
		c0-1.33,0.68-2.67,2.29-2.67c1.6,0,2.28,1.34,2.28,2.67c0,1.33-0.68,2.67-2.28,2.67C65.49,161.15,64.81,159.81,64.81,158.48
		 M64.24,158.48c0,1.66,0.95,3.16,2.86,3.16c1.91,0,2.86-1.5,2.86-3.16c0-1.66-0.95-3.16-2.86-3.16
		C65.19,155.32,64.24,156.82,64.24,158.48 M59.47,155.94h2.16c0.87,0,1.31,0.47,1.31,1.21c0,0.74-0.6,1.18-1.31,1.18h-2.16V155.94z
		 M58.89,161.51h0.58v-2.7h2.19c1.1-0.04,1.16,0.9,1.22,1.75c0.02,0.26,0.02,0.71,0.16,0.94h0.64c-0.25-0.31-0.25-1.14-0.28-1.56
		c-0.04-0.72-0.27-1.27-1.06-1.37v-0.02c0.78-0.15,1.18-0.78,1.18-1.55c0-1.1-0.84-1.58-1.84-1.58h-2.78V161.51z M51.55,163.14h0.53
		v-2.46h0.02c0.23,0.63,0.87,0.96,1.52,0.96c1.33,0,1.97-1.08,1.97-2.32c0-1.24-0.64-2.32-1.97-2.32c-0.71,0-1.32,0.37-1.56,0.96
		h-0.02v-0.83h-0.49V163.14z M55.06,159.32c0,0.91-0.42,1.87-1.44,1.87c-1.14,0-1.54-0.96-1.54-1.87c0-1,0.36-1.87,1.54-1.87
		C54.64,157.45,55.06,158.41,55.06,159.32 M50.53,157.13H50v2.3c0,0.89-0.4,1.76-1.32,1.76c-0.85,0-1.15-0.42-1.17-1.21v-2.86h-0.53
		v2.85c0,1.02,0.43,1.66,1.54,1.66c0.66,0,1.23-0.33,1.51-0.92h0.02v0.79h0.49V157.13z M44.11,157.45c1.03,0,1.54,0.93,1.54,1.87
		c0,0.93-0.51,1.87-1.54,1.87c-1.03,0-1.54-0.94-1.54-1.87C42.57,158.39,43.08,157.45,44.11,157.45 M44.11,157
		c-1.34,0-2.07,1.06-2.07,2.32c0,1.26,0.73,2.32,2.07,2.32c1.34,0,2.07-1.06,2.07-2.32C46.18,158.06,45.45,157,44.11,157
		 M39.73,161.51h0.53v-2.34c0-0.91,0.66-1.62,1.63-1.57v-0.54c-0.79-0.03-1.39,0.38-1.66,1.09h-0.02v-1.03h-0.49V161.51z
		 M38.72,158.43h-2.58v0.49h2.07c0.03,1.28-0.76,2.23-2.1,2.23c-1.61,0-2.29-1.34-2.29-2.67c0-1.33,0.68-2.67,2.29-2.67
		c1.16,0,1.88,0.82,1.95,1.52h0.58c-0.22-1.33-1.26-2.01-2.53-2.01c-1.91,0-2.86,1.5-2.86,3.16c0,1.66,0.95,3.16,2.86,3.16
		c0.88,0,1.69-0.37,2.1-1.23h0.02l0.08,1.1h0.42V158.43z M30.14,158.41c-0.03-0.95-0.73-1.41-1.61-1.41c-0.77,0-1.65,0.34-1.65,1.23
		c0,0.75,0.53,0.99,1.22,1.17l0.69,0.15c0.49,0.12,0.96,0.29,0.96,0.8c0,0.61-0.7,0.83-1.2,0.83c-0.72,0-1.25-0.37-1.29-1.1h-0.53
		c0.08,1.07,0.78,1.55,1.8,1.55c0.82,0,1.76-0.36,1.76-1.32c0-0.77-0.64-1.12-1.25-1.22l-0.71-0.16c-0.37-0.09-0.91-0.26-0.91-0.74
		c0-0.57,0.56-0.76,1.04-0.76c0.61,0,1.12,0.3,1.15,0.96H30.14z M22.73,161.51h0.53v-1.67l0.87-0.72l1.73,2.39h0.67l-2-2.76
		l1.87-1.62H25.7l-2.43,2.12v-3.81h-0.53V161.51z M21.95,158.5c-0.12-1-0.84-1.5-1.78-1.5c-1.34,0-2.07,1.06-2.07,2.32
		c0,1.26,0.73,2.32,2.07,2.32c0.98,0,1.67-0.65,1.81-1.7h-0.54c-0.07,0.73-0.61,1.25-1.27,1.25c-1.03,0-1.54-0.94-1.54-1.87
		c0-0.94,0.51-1.87,1.54-1.87c0.7,0,1.1,0.4,1.24,1.05H21.95z M16.76,156.3h0.53v-0.86h-0.53V156.3z M16.76,161.51h0.53v-4.38h-0.53
		V161.51z M15.18,161.51h0.53v-6.07h-0.53V161.51z M14.31,157.28c-0.15-1.27-1.29-1.96-2.44-1.96c-1.91,0-2.86,1.5-2.86,3.16
		c0,1.66,0.95,3.16,2.86,3.16c1.42,0,2.36-0.95,2.52-2.44h-0.58c-0.11,1.08-0.82,1.95-1.95,1.95c-1.61,0-2.29-1.34-2.29-2.67
		c0-1.33,0.68-2.67,2.29-2.67c0.88,0,1.66,0.54,1.86,1.47H14.31z"/>
</g>
<rect x="0.18" y="155.65" class="st3" width="5.67" height="5.67"/>
<rect x="20.29" y="69.03" class="st1" width="8.5" height="44.53"/>
<g>
	<defs>
		<rect id="SVGID_5_" width="229.61" height="163.14"/>
	</defs>
	<clipPath id="SVGID_6_">
		<use xlink:href="#SVGID_5_"  style="overflow:visible;"/>
	</clipPath>
	<path class="st4" d="M27.59,65.62c0.83,0,0.92-0.64,0.92-1.34c0-0.7-0.08-1.34-0.92-1.34c-0.83,0-0.92,0.64-0.92,1.34
		C26.67,64.98,26.75,65.62,27.59,65.62 M24.75,63.26c0.83,0,0.92-0.64,0.92-1.34c0-0.7-0.08-1.34-0.92-1.34
		c-0.83,0-0.92,0.64-0.92,1.34C23.83,62.61,23.92,63.26,24.75,63.26 M27.59,65.25c-0.39,0-0.41-0.39-0.41-0.97
		c0-0.57,0.02-0.97,0.41-0.97c0.39,0,0.41,0.39,0.41,0.97C28,64.85,27.98,65.25,27.59,65.25 M24.81,65.62h0.49l2.17-5.05h-0.49
		L24.81,65.62z M24.75,62.88c-0.39,0-0.41-0.39-0.41-0.97c0-0.58,0.02-0.97,0.41-0.97c0.39,0,0.41,0.39,0.41,0.97
		C25.16,62.49,25.14,62.88,24.75,62.88 M21.03,64.14c0-0.58,0.23-1.02,0.81-1.02c0.57,0,0.81,0.44,0.81,1.02
		c0,0.58-0.23,1.02-0.81,1.02C21.26,65.16,21.03,64.72,21.03,64.14 M21.83,61.03c0.45,0,0.65,0.34,0.65,0.81
		c0,0.46-0.2,0.81-0.65,0.81c-0.45,0-0.65-0.35-0.65-0.81C21.18,61.37,21.38,61.03,21.83,61.03 M20.41,64.16
		c0,0.65,0.31,1.46,1.42,1.46c1.11,0,1.42-0.81,1.42-1.46c0-0.67-0.28-1.08-0.87-1.27c0.5-0.2,0.72-0.53,0.72-1.06
		c0-0.8-0.48-1.26-1.27-1.26c-0.78,0-1.27,0.46-1.27,1.26c0,0.53,0.22,0.85,0.72,1.06C20.69,63.08,20.41,63.49,20.41,64.16
		 M18.99,65.52h0.64v-0.74h-0.64V65.52z M15.99,64.14c0-0.58,0.23-1.02,0.8-1.02c0.58,0,0.81,0.44,0.81,1.02
		c0,0.58-0.23,1.02-0.81,1.02C16.22,65.16,15.99,64.72,15.99,64.14 M16.79,61.03c0.45,0,0.65,0.34,0.65,0.81
		c0,0.46-0.2,0.81-0.65,0.81c-0.45,0-0.65-0.35-0.65-0.81C16.14,61.37,16.34,61.03,16.79,61.03 M15.37,64.16
		c0,0.65,0.31,1.46,1.42,1.46s1.42-0.81,1.42-1.46c0-0.67-0.28-1.08-0.87-1.27c0.5-0.2,0.72-0.53,0.72-1.06
		c0-0.8-0.48-1.26-1.27-1.26c-0.78,0-1.27,0.46-1.27,1.26c0,0.53,0.22,0.85,0.72,1.06C15.65,63.08,15.37,63.49,15.37,64.16
		 M14.82,64.98h-2.13c0.07-0.33,0.27-0.62,0.54-0.85l0.7-0.61c0.55-0.48,0.87-0.88,0.87-1.63c0-0.43-0.18-1.32-1.33-1.32
		c-1.01,0-1.41,0.64-1.41,1.57h0.61c0-0.28,0.02-1.07,0.78-1.07c0.53,0,0.72,0.46,0.72,0.89c0,0.55-0.26,0.85-0.66,1.19l-0.41,0.34
		c-0.55,0.48-1.07,1.11-1.07,2.03h2.77V64.98z"/>
</g>
<rect x="31.63" y="25.43" class="st3" width="8.5" height="88.13"/>
<g>
	<defs>
		<rect id="SVGID_7_" width="229.61" height="163.14"/>
	</defs>
	<clipPath id="SVGID_8_">
		<use xlink:href="#SVGID_7_"  style="overflow:visible;"/>
	</clipPath>
	<path class="st5" d="M43.18,22.02c0.83,0,0.92-0.64,0.92-1.34c0-0.7-0.08-1.34-0.92-1.34c-0.83,0-0.92,0.64-0.92,1.34
		C42.26,21.38,42.34,22.02,43.18,22.02 M40.34,19.65c0.83,0,0.92-0.64,0.92-1.34c0-0.7-0.08-1.34-0.92-1.34
		c-0.83,0-0.92,0.64-0.92,1.34C39.42,19.01,39.51,19.65,40.34,19.65 M43.18,21.64c-0.39,0-0.41-0.39-0.41-0.97
		c0-0.57,0.02-0.97,0.41-0.97c0.39,0,0.41,0.39,0.41,0.97C43.59,21.25,43.57,21.64,43.18,21.64 M40.4,22.02h0.49l2.17-5.05h-0.49
		L40.4,22.02z M40.34,19.28c-0.39,0-0.41-0.39-0.41-0.97c0-0.57,0.02-0.97,0.41-0.97c0.39,0,0.41,0.39,0.41,0.97
		C40.75,18.89,40.73,19.28,40.34,19.28 M36.62,19.51c0-1.09,0.04-2.09,0.8-2.09c0.76,0,0.8,0.99,0.8,2.09c0,1.04-0.04,2.04-0.8,2.04
		C36.67,21.56,36.62,20.56,36.62,19.51 M37.42,22.02c1.34,0,1.41-1.46,1.41-2.51c0-1.22-0.08-2.55-1.41-2.55
		c-1.34,0-1.41,1.45-1.41,2.55C36.01,20.69,36.09,22.02,37.42,22.02 M34.58,21.92h0.64v-0.74h-0.64V21.92z M30.97,17.61h2.27
		c-0.48,0.63-0.88,1.33-1.17,2.06c-0.31,0.74-0.51,1.51-0.6,2.25h0.69c0.09-1.01,0.36-1.88,0.68-2.65c0.31-0.74,0.7-1.34,0.97-1.7
		v-0.51h-2.83V17.61z M27.75,19.61l0.53,0.03c0-0.12,0.27-0.48,0.7-0.48c0.62,0,0.83,0.57,0.83,1.12c0,0.5-0.11,1.29-0.81,1.29
		c-0.66,0-0.76-0.65-0.76-0.91h-0.61c0,0.4,0.18,1.37,1.36,1.37c1.04,0,1.44-0.78,1.44-1.7c0-1.04-0.5-1.63-1.24-1.63
		c-0.34,0-0.67,0.12-0.87,0.37l-0.01-0.01l0.2-1.43h1.74v-0.54h-2.21L27.75,19.61z"/>
	<path class="st5" d="M34.71,123.31l1.85-2.67h0.01v2.67H34.71z M34.31,123.68h2.26v1.22h0.4v-1.22h0.74v-0.37h-0.74V120h-0.4
		l-2.27,3.25V123.68z M30.89,121.26h1.3v3.64h0.44V120h-0.36c-0.13,0.9-0.61,0.92-1.38,0.94V121.26z M28.26,119.96
		c-1.43,0-1.71,1.38-1.71,2.53c0,1.14,0.28,2.52,1.71,2.52c1.43,0,1.71-1.38,1.71-2.53C29.97,121.34,29.69,119.96,28.26,119.96
		 M28.26,120.33c1.12,0,1.27,1.3,1.27,2.15c0,0.85-0.15,2.16-1.27,2.16c-1.12,0-1.27-1.3-1.27-2.16
		C27,121.63,27.14,120.33,28.26,120.33 M25.9,124.49h-2.72c0.12-0.66,0.99-1.09,1.47-1.41c0.64-0.41,1.23-0.93,1.23-1.74
		c0-0.91-0.66-1.38-1.52-1.38c-1.06,0-1.59,0.73-1.57,1.74h0.44c-0.01-0.72,0.3-1.36,1.11-1.36c0.6,0,1.1,0.36,1.1,1
		c0,0.39-0.14,0.65-0.41,0.93c-0.83,0.83-2.32,1.19-2.36,2.65h3.23V124.49z"/>
</g>
<rect x="105.94" y="67.64" class="st1" width="8.5" height="45.92"/>
<g>
	<defs>
		<rect id="SVGID_9_" width="229.61" height="163.14"/>
	</defs>
	<clipPath id="SVGID_10_">
		<use xlink:href="#SVGID_9_"  style="overflow:visible;"/>
	</clipPath>
	<path class="st6" d="M113.24,64.23c0.83,0,0.92-0.64,0.92-1.34c0-0.7-0.08-1.34-0.92-1.34c-0.83,0-0.92,0.64-0.92,1.34
		C112.33,63.59,112.41,64.23,113.24,64.23 M110.41,61.87c0.83,0,0.92-0.64,0.92-1.34c0-0.7-0.08-1.34-0.92-1.34
		c-0.83,0-0.92,0.64-0.92,1.34C109.49,61.22,109.58,61.87,110.41,61.87 M113.24,63.85c-0.39,0-0.41-0.39-0.41-0.97
		c0-0.57,0.02-0.97,0.41-0.97c0.39,0,0.41,0.39,0.41,0.97C113.66,63.46,113.64,63.85,113.24,63.85 M110.47,64.23h0.49l2.17-5.05
		h-0.49L110.47,64.23z M110.41,61.49c-0.39,0-0.41-0.39-0.41-0.97c0-0.58,0.02-0.97,0.41-0.97c0.39,0,0.41,0.39,0.41,0.97
		C110.82,61.1,110.8,61.49,110.41,61.49 M106.08,59.82h2.27c-0.48,0.63-0.88,1.33-1.18,2.06c-0.31,0.74-0.51,1.51-0.6,2.25h0.68
		c0.09-1.01,0.36-1.88,0.68-2.65c0.31-0.74,0.7-1.34,0.97-1.7v-0.51h-2.83V59.82z M104.65,64.13h0.64v-0.74h-0.64V64.13z
		 M103.2,60.79c0,0.53-0.13,1.15-0.79,1.15c-0.66,0-0.78-0.62-0.78-1.15c0-0.53,0.17-1.15,0.78-1.15
		C103.03,59.64,103.2,60.26,103.2,60.79 M101.13,63.04c0,0.23,0.1,1.19,1.25,1.19c1.43,0,1.5-1.57,1.5-2.7
		c0-1.02-0.1-2.35-1.47-2.35c-0.92,0-1.4,0.73-1.4,1.69c0,0.93,0.43,1.57,1.29,1.57c0.55,0,0.85-0.37,0.95-0.55h0.01v0.39
		c0,0.25-0.05,1.49-0.88,1.49c-0.42,0-0.65-0.32-0.65-0.73H101.13z M100.47,63.59h-2.13c0.07-0.33,0.27-0.62,0.54-0.85l0.7-0.61
		c0.55-0.48,0.87-0.88,0.87-1.63c0-0.43-0.18-1.32-1.33-1.32c-1.01,0-1.41,0.64-1.41,1.57h0.61c0-0.28,0.02-1.07,0.78-1.07
		c0.53,0,0.72,0.46,0.72,0.89c0,0.55-0.26,0.85-0.66,1.19l-0.41,0.34c-0.55,0.48-1.07,1.11-1.07,2.03h2.77V63.59z"/>
</g>
<rect x="117.28" y="37.49" class="st3" width="8.5" height="76.07"/>
<g>
	<defs>
		<rect id="SVGID_11_" width="229.61" height="163.14"/>
	</defs>
	<clipPath id="SVGID_12_">
		<use xlink:href="#SVGID_11_"  style="overflow:visible;"/>
	</clipPath>
	<path class="st7" d="M128.83,33.46c0.83,0,0.92-0.64,0.92-1.34c0-0.7-0.08-1.34-0.92-1.34c-0.83,0-0.92,0.64-0.92,1.34
		C127.92,32.82,128,33.46,128.83,33.46 M126,31.1c0.83,0,0.92-0.64,0.92-1.34c0-0.7-0.08-1.34-0.92-1.34
		c-0.83,0-0.92,0.64-0.92,1.34C125.08,30.45,125.17,31.1,126,31.1 M128.83,33.09c-0.39,0-0.41-0.39-0.41-0.97
		c0-0.57,0.02-0.97,0.41-0.97c0.39,0,0.41,0.39,0.41,0.97C129.25,32.69,129.23,33.09,128.83,33.09 M126.06,33.46h0.49l2.17-5.05
		h-0.49L126.06,33.46z M126,30.72c-0.39,0-0.41-0.39-0.41-0.97c0-0.57,0.02-0.97,0.41-0.97c0.39,0,0.41,0.39,0.41,0.97
		C126.41,30.33,126.39,30.72,126,30.72 M124.46,32.82h-2.13c0.07-0.33,0.27-0.62,0.54-0.85l0.7-0.61c0.55-0.48,0.87-0.88,0.87-1.63
		c0-0.43-0.18-1.32-1.33-1.32c-1.01,0-1.41,0.64-1.41,1.57h0.62c0-0.28,0.02-1.07,0.78-1.07c0.53,0,0.72,0.46,0.72,0.89
		c0,0.55-0.26,0.85-0.66,1.19l-0.41,0.34c-0.55,0.48-1.07,1.11-1.07,2.03h2.77V32.82z M120.24,33.36h0.64v-0.74h-0.64V33.36z
		 M118.79,30.02c0,0.52-0.13,1.15-0.78,1.15c-0.66,0-0.78-0.62-0.78-1.15c0-0.53,0.17-1.15,0.79-1.15
		C118.62,28.87,118.79,29.49,118.79,30.02 M116.72,32.27c0,0.23,0.1,1.19,1.25,1.19c1.43,0,1.51-1.57,1.51-2.7
		c0-1.02-0.1-2.35-1.47-2.35c-0.92,0-1.4,0.73-1.4,1.69c0,0.93,0.43,1.57,1.29,1.57c0.55,0,0.85-0.37,0.95-0.55h0.01v0.39
		c0,0.25-0.05,1.49-0.88,1.49c-0.42,0-0.65-0.32-0.65-0.73H116.72z M113.21,31.62v0.55H115v1.2h0.59v-1.2h0.56v-0.5h-0.56v-3.25H115
		L113.21,31.62z M114.99,29.38H115v2.29h-1.26L114.99,29.38z"/>
	<path class="st7" d="M123.29,121.24c-0.1-0.85-0.64-1.28-1.5-1.28c-1.6,0-1.75,1.86-1.75,2.44c0,1.91,0.52,2.6,1.71,2.6
		c0.97,0,1.66-0.71,1.66-1.66c0-0.96-0.64-1.64-1.62-1.64c-0.55,0-1.07,0.33-1.3,0.81h-0.01c0-0.89,0.21-2.19,1.35-2.19
		c0.57,0,0.95,0.37,1.02,0.91H123.29z M121.79,122.08c0.75,0,1.18,0.58,1.18,1.3c0,0.68-0.48,1.26-1.18,1.26
		c-0.85,0-1.22-0.57-1.22-1.26C120.57,122.65,121.02,122.08,121.79,122.08 M116.55,121.26h1.3v3.64h0.44V120h-0.36
		c-0.13,0.9-0.61,0.92-1.38,0.94V121.26z M113.92,119.96c-1.43,0-1.71,1.38-1.71,2.53c0,1.14,0.28,2.52,1.71,2.52
		c1.43,0,1.71-1.38,1.71-2.53C115.63,121.34,115.35,119.96,113.92,119.96 M113.92,120.33c1.12,0,1.27,1.3,1.27,2.15
		c0,0.85-0.15,2.16-1.27,2.16c-1.12,0-1.27-1.3-1.27-2.16C112.65,121.63,112.8,120.33,113.92,120.33 M111.56,124.49h-2.72
		c0.12-0.66,0.99-1.09,1.47-1.41c0.64-0.41,1.23-0.93,1.23-1.74c0-0.91-0.66-1.38-1.52-1.38c-1.06,0-1.59,0.73-1.57,1.74h0.44
		c-0.01-0.72,0.3-1.36,1.11-1.36c0.6,0,1.1,0.36,1.1,1c0,0.39-0.14,0.65-0.41,0.93c-0.83,0.83-2.32,1.19-2.36,2.65h3.23V124.49z"/>
</g>
<rect x="63.12" y="66.87" class="st1" width="8.5" height="46.69"/>
<g>
	<defs>
		<rect id="SVGID_13_" width="229.61" height="163.14"/>
	</defs>
	<clipPath id="SVGID_14_">
		<use xlink:href="#SVGID_13_"  style="overflow:visible;"/>
	</clipPath>
	<path class="st8" d="M70.41,63.46c0.83,0,0.92-0.64,0.92-1.34c0-0.7-0.08-1.34-0.92-1.34c-0.83,0-0.92,0.64-0.92,1.34
		C69.5,62.82,69.58,63.46,70.41,63.46 M67.58,61.09c0.83,0,0.92-0.64,0.92-1.34c0-0.7-0.08-1.34-0.92-1.34
		c-0.83,0-0.92,0.64-0.92,1.34C66.66,60.45,66.75,61.09,67.58,61.09 M70.41,63.08c-0.39,0-0.41-0.39-0.41-0.97
		c0-0.57,0.02-0.97,0.41-0.97c0.39,0,0.41,0.39,0.41,0.97C70.83,62.69,70.81,63.08,70.41,63.08 M67.64,63.46h0.49l2.17-5.05h-0.49
		L67.64,63.46z M67.58,60.72c-0.39,0-0.41-0.39-0.41-0.97c0-0.57,0.02-0.97,0.41-0.97c0.39,0,0.41,0.39,0.41,0.97
		C67.99,60.32,67.97,60.72,67.58,60.72 M66.05,62.82h-2.13c0.07-0.33,0.27-0.62,0.54-0.85l0.7-0.61c0.55-0.48,0.87-0.88,0.87-1.63
		c0-0.43-0.18-1.32-1.33-1.32c-1.01,0-1.41,0.64-1.41,1.57h0.62c0-0.28,0.02-1.07,0.78-1.07c0.53,0,0.72,0.46,0.72,0.89
		c0,0.55-0.26,0.85-0.66,1.19l-0.41,0.34c-0.55,0.48-1.07,1.11-1.07,2.03h2.77V62.82z M61.82,63.36h0.64v-0.74h-0.64V63.36z
		 M58.82,60.95c0-1.09,0.04-2.09,0.8-2.09c0.76,0,0.8,0.99,0.8,2.09c0,1.04-0.04,2.04-0.8,2.04C58.86,63,58.82,62,58.82,60.95
		 M59.62,63.46c1.34,0,1.41-1.45,1.41-2.51c0-1.22-0.08-2.55-1.41-2.55c-1.34,0-1.41,1.45-1.41,2.55
		C58.21,62.13,58.28,63.46,59.62,63.46 M55.84,61.03h0.31c0.61,0,0.9,0.36,0.9,0.95c0,0.84-0.43,1.02-0.79,1.02
		c-0.57,0-0.79-0.53-0.79-0.98h-0.62v0.06c0,0.22,0.08,1.38,1.41,1.38c0.95,0,1.41-0.63,1.41-1.53c0-0.69-0.36-1.04-0.92-1.15v-0.01
		c0.52-0.13,0.77-0.57,0.77-1.06c0-0.55-0.24-1.29-1.27-1.29c-0.92,0-1.32,0.58-1.32,1.43h0.62c0-0.36,0.06-0.97,0.72-0.97
		c0.47,0,0.64,0.37,0.64,0.83c0,0.5-0.23,0.88-0.76,0.88h-0.31V61.03z"/>
</g>
<rect x="74.46" y="30.53" class="st3" width="8.5" height="83.03"/>
<g>
	<defs>
		<rect id="SVGID_15_" width="229.61" height="163.14"/>
	</defs>
	<clipPath id="SVGID_16_">
		<use xlink:href="#SVGID_15_"  style="overflow:visible;"/>
	</clipPath>
	<path class="st9" d="M86,27.12c0.83,0,0.92-0.64,0.92-1.34c0-0.7-0.08-1.34-0.92-1.34c-0.83,0-0.92,0.64-0.92,1.34
		C85.09,26.48,85.17,27.12,86,27.12 M83.17,24.76c0.83,0,0.92-0.64,0.92-1.34c0-0.7-0.08-1.34-0.92-1.34
		c-0.83,0-0.92,0.64-0.92,1.34C82.25,24.11,82.34,24.76,83.17,24.76 M86,26.75c-0.39,0-0.41-0.39-0.41-0.97
		c0-0.57,0.02-0.97,0.41-0.97c0.39,0,0.41,0.39,0.41,0.97C86.42,26.35,86.4,26.75,86,26.75 M83.23,27.12h0.49l2.17-5.05H85.4
		L83.23,27.12z M83.17,24.38c-0.39,0-0.41-0.39-0.41-0.97c0-0.57,0.02-0.97,0.41-0.97c0.39,0,0.41,0.39,0.41,0.97
		C83.58,23.99,83.56,24.38,83.17,24.38 M78.84,22.71h2.27c-0.48,0.63-0.88,1.33-1.18,2.06c-0.31,0.74-0.51,1.51-0.6,2.25h0.69
		c0.09-1.01,0.36-1.88,0.68-2.65c0.31-0.74,0.7-1.34,0.97-1.7v-0.51h-2.83V22.71z M77.41,27.03h0.64v-0.74h-0.64V27.03z
		 M74.79,24.69h0.32c0.61,0,0.9,0.36,0.9,0.95c0,0.84-0.43,1.02-0.79,1.02c-0.57,0-0.79-0.53-0.79-0.98H73.8v0.06
		c0,0.22,0.08,1.38,1.41,1.38c0.95,0,1.41-0.63,1.41-1.53c0-0.69-0.36-1.04-0.92-1.15v-0.01c0.52-0.13,0.77-0.57,0.77-1.06
		c0-0.55-0.24-1.29-1.27-1.29c-0.92,0-1.32,0.58-1.32,1.43h0.62c0-0.36,0.06-0.97,0.71-0.97c0.47,0,0.64,0.37,0.64,0.83
		c0,0.5-0.23,0.88-0.76,0.88h-0.31V24.69z M70.58,24.71l0.53,0.03c0-0.12,0.27-0.48,0.7-0.48c0.62,0,0.83,0.57,0.83,1.12
		c0,0.5-0.11,1.29-0.81,1.29c-0.66,0-0.76-0.65-0.76-0.91h-0.62c0,0.4,0.18,1.37,1.36,1.37c1.04,0,1.44-0.78,1.44-1.7
		c0-1.04-0.5-1.63-1.25-1.63c-0.34,0-0.67,0.12-0.87,0.37l-0.01-0.01l0.2-1.43h1.74v-0.54h-2.21L70.58,24.71z"/>
	<path class="st9" d="M77.18,123.5c0.02,0.93,0.7,1.5,1.61,1.5c0.94,0,1.7-0.7,1.7-1.66c0-0.99-0.64-1.69-1.64-1.69
		c-0.38,0-0.79,0.17-1.04,0.45l-0.01-0.01l0.32-1.62h2.14v-0.41H77.8l-0.47,2.54h0.38c0.24-0.37,0.66-0.58,1.09-0.58
		c0.73,0,1.25,0.55,1.25,1.27c0,0.71-0.47,1.34-1.23,1.34c-0.67,0-1.18-0.46-1.2-1.13H77.18z M73.72,121.26h1.3v3.64h0.44V120H75.1
		c-0.13,0.9-0.61,0.92-1.38,0.94V121.26z M71.09,119.96c-1.43,0-1.71,1.38-1.71,2.53c0,1.14,0.28,2.52,1.71,2.52
		c1.43,0,1.71-1.38,1.71-2.53C72.8,121.34,72.52,119.96,71.09,119.96 M71.09,120.33c1.12,0,1.27,1.3,1.27,2.15
		c0,0.85-0.15,2.16-1.27,2.16c-1.12,0-1.27-1.3-1.27-2.16C69.82,121.63,69.97,120.33,71.09,120.33 M68.73,124.49h-2.72
		c0.12-0.66,0.99-1.09,1.47-1.41c0.64-0.41,1.23-0.93,1.23-1.74c0-0.91-0.66-1.38-1.52-1.38c-1.06,0-1.59,0.73-1.57,1.74h0.44
		c-0.01-0.72,0.3-1.36,1.11-1.36c0.6,0,1.1,0.36,1.1,1c0,0.39-0.14,0.65-0.41,0.93c-0.83,0.83-2.32,1.19-2.36,2.65h3.23V124.49z"/>
</g>
<rect x="148.77" y="56.35" class="st1" width="8.5" height="57.21"/>
<g>
	<defs>
		<rect id="SVGID_17_" width="229.61" height="163.14"/>
	</defs>
	<clipPath id="SVGID_18_">
		<use xlink:href="#SVGID_17_"  style="overflow:visible;"/>
	</clipPath>
	<path class="st10" d="M156.07,52.94c0.83,0,0.92-0.64,0.92-1.34c0-0.7-0.08-1.34-0.92-1.34c-0.83,0-0.92,0.64-0.92,1.34
		C155.15,52.3,155.24,52.94,156.07,52.94 M153.24,50.58c0.83,0,0.92-0.64,0.92-1.34c0-0.7-0.08-1.34-0.92-1.34
		c-0.83,0-0.92,0.64-0.92,1.34C152.32,49.94,152.4,50.58,153.24,50.58 M156.07,52.57c-0.39,0-0.41-0.39-0.41-0.97
		c0-0.57,0.02-0.97,0.41-0.97c0.39,0,0.41,0.39,0.41,0.97C156.48,52.18,156.46,52.57,156.07,52.57 M153.3,52.94h0.49l2.17-5.05
		h-0.49L153.3,52.94z M153.24,50.2c-0.39,0-0.41-0.39-0.41-0.97c0-0.57,0.02-0.97,0.41-0.97c0.39,0,0.41,0.39,0.41,0.97
		C153.65,49.81,153.63,50.2,153.24,50.2 M149.52,50.44c0-1.09,0.04-2.09,0.8-2.09c0.76,0,0.8,0.99,0.8,2.09
		c0,1.04-0.04,2.04-0.8,2.04C149.56,52.48,149.52,51.48,149.52,50.44 M150.32,52.94c1.34,0,1.41-1.45,1.41-2.51
		c0-1.22-0.08-2.55-1.41-2.55c-1.34,0-1.41,1.45-1.41,2.55C148.9,51.62,148.98,52.94,150.32,52.94 M147.48,52.85h0.64v-0.74h-0.64
		V52.85z M143.86,48.53h2.27c-0.48,0.63-0.88,1.33-1.18,2.06c-0.31,0.74-0.51,1.5-0.6,2.25h0.69c0.09-1.01,0.36-1.88,0.68-2.65
		c0.31-0.74,0.7-1.34,0.97-1.7v-0.51h-2.83V48.53z M141.5,50.52h0.31c0.62,0,0.9,0.36,0.9,0.95c0,0.84-0.43,1.02-0.79,1.02
		c-0.57,0-0.79-0.53-0.79-0.98h-0.62v0.06c0,0.22,0.08,1.38,1.41,1.38c0.95,0,1.41-0.63,1.41-1.53c0-0.69-0.36-1.04-0.92-1.15v-0.01
		c0.52-0.13,0.77-0.57,0.77-1.06c0-0.55-0.24-1.29-1.27-1.29c-0.92,0-1.32,0.58-1.32,1.43h0.61c0-0.36,0.06-0.97,0.72-0.97
		c0.47,0,0.64,0.37,0.64,0.83c0,0.5-0.23,0.88-0.76,0.88h-0.31V50.52z"/>
</g>
<rect x="160.11" y="45.37" class="st3" width="8.5" height="68.19"/>
<g>
	<defs>
		<rect id="SVGID_19_" width="229.61" height="163.14"/>
	</defs>
	<clipPath id="SVGID_20_">
		<use xlink:href="#SVGID_19_"  style="overflow:visible;"/>
	</clipPath>
	<path class="st11" d="M171.66,41.97c0.83,0,0.92-0.64,0.92-1.34c0-0.7-0.08-1.34-0.92-1.34c-0.83,0-0.92,0.64-0.92,1.34
		C170.74,41.32,170.83,41.97,171.66,41.97 M168.83,39.6c0.83,0,0.92-0.64,0.92-1.34c0-0.7-0.08-1.34-0.92-1.34
		c-0.83,0-0.92,0.64-0.92,1.34C167.91,38.96,167.99,39.6,168.83,39.6 M171.66,41.59c-0.39,0-0.41-0.39-0.41-0.97
		c0-0.57,0.02-0.97,0.41-0.97c0.39,0,0.41,0.39,0.41,0.97C172.07,41.2,172.05,41.59,171.66,41.59 M168.89,41.97h0.49l2.17-5.05
		h-0.49L168.89,41.97z M168.83,39.22c-0.39,0-0.41-0.39-0.41-0.97c0-0.58,0.02-0.97,0.41-0.97c0.39,0,0.41,0.39,0.41,0.97
		C169.24,38.83,169.22,39.22,168.83,39.22 M164.7,38.14h1.06v3.72h0.59v-4.96h-0.42c-0.03,0.7-0.6,0.78-1.22,0.81V38.14z
		 M163.07,41.87h0.64v-0.74h-0.64V41.87z M159.4,40.12v0.55h1.79v1.2h0.59v-1.2h0.56v-0.5h-0.56v-3.25h-0.59L159.4,40.12z
		 M161.18,37.88h0.01v2.29h-1.26L161.18,37.88z M156.04,40.12v0.55h1.79v1.2h0.59v-1.2h0.56v-0.5h-0.56v-3.25h-0.59L156.04,40.12z
		 M157.82,37.88h0.01v2.29h-1.26L157.82,37.88z"/>
	<path class="st11" d="M162.94,120.47h2.71c-1.36,1.55-1.9,2.77-2.02,4.43h0.48c0.11-2.28,1.37-3.79,1.98-4.43v-0.41h-3.15V120.47z
		 M159.37,121.26h1.3v3.64h0.44V120h-0.36c-0.13,0.9-0.61,0.92-1.38,0.94V121.26z M156.75,119.96c-1.43,0-1.71,1.38-1.71,2.53
		c0,1.14,0.28,2.52,1.71,2.52c1.43,0,1.71-1.38,1.71-2.53C158.46,121.34,158.18,119.96,156.75,119.96 M156.75,120.33
		c1.12,0,1.27,1.3,1.27,2.15c0,0.85-0.15,2.16-1.27,2.16c-1.12,0-1.27-1.3-1.27-2.16C155.48,121.63,155.63,120.33,156.75,120.33
		 M154.39,124.49h-2.72c0.12-0.66,0.99-1.09,1.47-1.41c0.64-0.41,1.23-0.93,1.23-1.74c0-0.91-0.66-1.38-1.52-1.38
		c-1.06,0-1.59,0.73-1.57,1.74h0.44c-0.01-0.72,0.3-1.36,1.11-1.36c0.6,0,1.1,0.36,1.1,1c0,0.39-0.14,0.65-0.41,0.93
		c-0.83,0.83-2.32,1.19-2.36,2.65h3.23V124.49z"/>
</g>
<rect x="191.6" y="62.23" class="st1" width="8.5" height="51.33"/>
<g>
	<defs>
		<rect id="SVGID_21_" width="229.61" height="163.14"/>
	</defs>
	<clipPath id="SVGID_22_">
		<use xlink:href="#SVGID_21_"  style="overflow:visible;"/>
	</clipPath>
	<path class="st12" d="M198.9,58.82c0.83,0,0.92-0.64,0.92-1.34c0-0.7-0.08-1.34-0.92-1.34c-0.83,0-0.92,0.64-0.92,1.34
		C197.98,58.18,198.07,58.82,198.9,58.82 M196.06,56.45c0.83,0,0.92-0.64,0.92-1.34c0-0.7-0.08-1.34-0.92-1.34
		c-0.83,0-0.92,0.64-0.92,1.34C195.15,55.81,195.23,56.45,196.06,56.45 M198.9,58.44c-0.39,0-0.41-0.39-0.41-0.97
		c0-0.57,0.02-0.97,0.41-0.97c0.39,0,0.41,0.39,0.41,0.97C199.31,58.05,199.29,58.44,198.9,58.44 M196.13,58.82h0.49l2.17-5.05
		h-0.49L196.13,58.82z M196.06,56.08c-0.39,0-0.41-0.39-0.41-0.97c0-0.57,0.02-0.97,0.41-0.97c0.39,0,0.41,0.39,0.41,0.97
		C196.48,55.68,196.46,56.08,196.06,56.08 M194.53,58.18h-2.13c0.07-0.33,0.27-0.62,0.54-0.85l0.7-0.61
		c0.55-0.48,0.87-0.88,0.87-1.63c0-0.43-0.18-1.32-1.33-1.32c-1.01,0-1.41,0.64-1.41,1.57h0.61c0-0.28,0.02-1.07,0.78-1.07
		c0.53,0,0.72,0.46,0.72,0.89c0,0.55-0.26,0.85-0.66,1.19l-0.41,0.34c-0.55,0.48-1.07,1.11-1.07,2.03h2.77V58.18z M190.3,58.72h0.64
		v-0.74h-0.64V58.72z M187.69,56.39H188c0.62,0,0.9,0.36,0.9,0.95c0,0.84-0.43,1.02-0.79,1.02c-0.57,0-0.79-0.53-0.79-0.98h-0.62
		v0.06c0,0.22,0.08,1.38,1.41,1.38c0.95,0,1.41-0.63,1.41-1.53c0-0.69-0.36-1.04-0.92-1.15v-0.01c0.52-0.13,0.77-0.57,0.77-1.06
		c0-0.55-0.24-1.29-1.27-1.29c-0.92,0-1.32,0.58-1.32,1.43h0.61c0-0.36,0.06-0.97,0.72-0.97c0.47,0,0.64,0.37,0.64,0.83
		c0,0.5-0.23,0.88-0.76,0.88h-0.31V56.39z M184.33,56.39h0.31c0.62,0,0.9,0.36,0.9,0.95c0,0.84-0.43,1.02-0.79,1.02
		c-0.57,0-0.79-0.53-0.79-0.98h-0.62v0.06c0,0.22,0.08,1.38,1.41,1.38c0.95,0,1.41-0.63,1.41-1.53c0-0.69-0.36-1.04-0.92-1.15v-0.01
		c0.52-0.13,0.77-0.57,0.77-1.06c0-0.55-0.24-1.29-1.27-1.29c-0.92,0-1.32,0.58-1.32,1.43h0.61c0-0.36,0.06-0.97,0.72-0.97
		c0.47,0,0.64,0.37,0.64,0.83c0,0.5-0.23,0.88-0.76,0.88h-0.31V56.39z"/>
</g>
<rect x="202.94" y="54.5" class="st3" width="8.5" height="59.06"/>
<g>
	<defs>
		<rect id="SVGID_23_" width="229.61" height="163.14"/>
	</defs>
	<clipPath id="SVGID_24_">
		<use xlink:href="#SVGID_23_"  style="overflow:visible;"/>
	</clipPath>
	<path class="st13" d="M214.49,51.09c0.83,0,0.92-0.64,0.92-1.34c0-0.7-0.08-1.34-0.92-1.34c-0.83,0-0.92,0.64-0.92,1.34
		C213.57,50.45,213.66,51.09,214.49,51.09 M211.65,48.72c0.83,0,0.92-0.64,0.92-1.34c0-0.7-0.08-1.34-0.92-1.34
		c-0.83,0-0.92,0.64-0.92,1.34C210.74,48.08,210.82,48.72,211.65,48.72 M214.49,50.71c-0.39,0-0.41-0.39-0.41-0.97
		c0-0.57,0.02-0.97,0.41-0.97c0.39,0,0.41,0.39,0.41,0.97C214.9,50.32,214.88,50.71,214.49,50.71 M211.72,51.09h0.49l2.17-5.05
		h-0.49L211.72,51.09z M211.65,48.35c-0.39,0-0.41-0.39-0.41-0.97c0-0.57,0.02-0.97,0.41-0.97c0.39,0,0.41,0.39,0.41,0.97
		C212.07,47.95,212.05,48.35,211.65,48.35 M210.12,50.45h-2.13c0.07-0.33,0.27-0.62,0.54-0.85l0.7-0.61
		c0.55-0.48,0.87-0.88,0.87-1.63c0-0.43-0.18-1.32-1.33-1.32c-1.01,0-1.41,0.64-1.41,1.57h0.61c0-0.28,0.02-1.07,0.78-1.07
		c0.53,0,0.72,0.46,0.72,0.89c0,0.55-0.26,0.85-0.66,1.19l-0.41,0.34c-0.55,0.48-1.07,1.11-1.07,2.03h2.77V50.45z M205.89,50.99
		h0.64v-0.74h-0.64V50.99z M202.89,49.6c0-0.58,0.23-1.02,0.81-1.02c0.57,0,0.8,0.44,0.8,1.02c0,0.58-0.23,1.02-0.8,1.02
		C203.12,50.63,202.89,50.19,202.89,49.6 M203.7,46.5c0.45,0,0.65,0.34,0.65,0.81c0,0.46-0.2,0.81-0.65,0.81
		c-0.46,0-0.65-0.35-0.65-0.81C203.04,46.84,203.24,46.5,203.7,46.5 M202.28,49.63c0,0.65,0.31,1.46,1.42,1.46
		c1.11,0,1.42-0.81,1.42-1.46c0-0.67-0.28-1.08-0.87-1.27c0.5-0.2,0.72-0.52,0.72-1.06c0-0.8-0.48-1.26-1.27-1.26
		c-0.79,0-1.27,0.46-1.27,1.26c0,0.53,0.22,0.86,0.72,1.06C202.56,48.55,202.28,48.96,202.28,49.63 M199.92,48.66h0.31
		c0.62,0,0.9,0.36,0.9,0.95c0,0.84-0.43,1.02-0.79,1.02c-0.57,0-0.79-0.53-0.79-0.98h-0.62v0.06c0,0.22,0.08,1.38,1.41,1.38
		c0.95,0,1.41-0.63,1.41-1.53c0-0.69-0.36-1.04-0.92-1.15v-0.01c0.52-0.13,0.77-0.57,0.77-1.06c0-0.55-0.24-1.29-1.27-1.29
		c-0.92,0-1.32,0.58-1.32,1.43h0.61c0-0.36,0.06-0.97,0.72-0.97c0.47,0,0.64,0.37,0.64,0.83c0,0.5-0.23,0.88-0.76,0.88h-0.31V48.66z
		"/>
	<path class="st13" d="M207.36,122.09c-0.52,0.01-1.05-0.25-1.05-0.91c0-0.56,0.51-0.85,1.05-0.85c0.59,0,1.04,0.29,1.04,0.85
		C208.4,121.81,207.9,122.11,207.36,122.09 M208.84,121.18c0-0.84-0.76-1.22-1.49-1.22c-0.72,0-1.48,0.38-1.48,1.22
		c0,0.54,0.29,0.92,0.8,1.08v0.01c-0.6,0.11-0.98,0.62-0.99,1.25c0,0.99,0.77,1.48,1.69,1.48c0.92,0,1.69-0.49,1.69-1.48
		c0-0.66-0.37-1.13-1-1.25v-0.01C208.54,122.11,208.84,121.71,208.84,121.18 M207.36,124.63c-0.69,0-1.25-0.37-1.25-1.11
		c0-0.72,0.57-1.08,1.25-1.07c0.66-0.01,1.25,0.36,1.25,1.07C208.61,124.28,208.05,124.63,207.36,124.63 M202.2,121.26h1.3v3.64
		h0.44V120h-0.36c-0.13,0.9-0.61,0.92-1.38,0.94V121.26z M199.58,119.96c-1.43,0-1.71,1.38-1.71,2.53c0,1.14,0.28,2.52,1.71,2.52
		c1.43,0,1.71-1.38,1.71-2.53C201.28,121.34,201.01,119.96,199.58,119.96 M199.58,120.33c1.12,0,1.27,1.3,1.27,2.15
		c0,0.85-0.15,2.16-1.27,2.16c-1.12,0-1.27-1.3-1.27-2.16C198.31,121.63,198.46,120.33,199.58,120.33 M197.22,124.49h-2.72
		c0.12-0.66,0.99-1.09,1.47-1.41c0.64-0.41,1.23-0.93,1.23-1.74c0-0.91-0.66-1.38-1.52-1.38c-1.06,0-1.59,0.73-1.57,1.74h0.44
		c-0.01-0.72,0.3-1.36,1.11-1.36c0.6,0,1.1,0.36,1.1,1c0,0.39-0.14,0.65-0.41,0.93c-0.83,0.83-2.32,1.19-2.36,2.65h3.23V124.49z"/>
	<path class="st14" d="M172.47,10.22c2.21-0.9,3.31-3.12,3.31-5.09c0-2.01-1.07-4.14-3.31-5.13v1.19c1.13,0.61,2.18,2.08,2.18,3.93
		c0,1.9-1.09,3.35-2.18,3.94V10.22z M166.93,7.54h4.14V6.5h-2.96V4.31h2.92V3.28h-2.92v-2.1h2.96V0.14h-4.14V7.54z M158.75,3.83
		c0-1.49,1.1-2.79,2.71-2.79c1.62,0,2.69,1.36,2.69,2.81c0,1.44-1.07,2.79-2.68,2.79c-1.58,0-2.72-1.26-2.72-2.8V3.83z M157.59,3.89
		c0,2.04,1.63,3.79,3.86,3.79c2.22,0,3.89-1.71,3.89-3.84c0-2.13-1.67-3.84-3.88-3.84c-2.08,0-3.87,1.55-3.87,3.88V3.89z
		 M151.29,7.54h1.18V1.18h1.01c0.53,0,0.94,0.04,1.26,0.24c0.39,0.26,0.63,0.75,0.63,1.25c0,0.48-0.17,0.91-0.51,1.21
		c-0.35,0.3-0.97,0.32-1.48,0.32h-0.26l2.03,3.34h1.25l-1.74-2.75c0.57-0.1,1.05-0.28,1.43-0.81c0.27-0.39,0.42-0.89,0.42-1.41
		c0-0.83-0.37-1.6-0.98-2c-0.39-0.27-0.99-0.43-2.15-0.43h-2.09V7.54z M149.74,0c-2.21,0.91-3.31,3.13-3.31,5.1
		c0,2.01,1.07,4.14,3.31,5.12V9.04c-1.13-0.61-2.17-2.08-2.17-3.93c0-1.9,1.09-3.35,2.17-3.94V0z M137.57,9.52h1.11l2.97-7.42h-1.12
		l-1.52,3.98l-1.5-3.98h-1.12l2.08,5.28L137.57,9.52z M133.65,7.54h1.04V2.91h1.05V2.1h-1.05V0.14h-1.04V2.1h-0.98v0.81h0.98V7.54z
		 M130.36,7.54h1.04V2.1h-1.04V7.54z M130.36,1.24h1.04v-1.1h-1.04V1.24z M128.5,2.1h-1.04v3.04c0,0.93-0.47,1.58-1.49,1.59
		c-1.07,0-1.45-0.7-1.45-1.68V2.1h-1.04v3.19c0,1.13,0.45,2.4,2.2,2.41c0.97,0.01,1.58-0.44,1.84-1v0.84h0.98V2.1z M116.85,4.84
		c0.01-0.94,0.65-1.93,1.9-1.93c0.53,0,1.01,0.21,1.36,0.56c0.34,0.35,0.55,0.83,0.53,1.36c0,0.53-0.21,1.01-0.55,1.35
		c-0.34,0.34-0.81,0.55-1.34,0.55C117.61,6.73,116.85,5.83,116.85,4.84L116.85,4.84z M121.63,2.1h-1v0.93
		c-0.29-0.51-0.93-1.09-2.03-1.09c-1.62,0-2.79,1.24-2.79,2.94c0,1.53,1.1,2.82,2.73,2.82c1.16,0,1.81-0.63,2.05-1.08v0.92v1.98
		h1.04V2.1z M109.97,4.34c0.05-0.74,0.74-1.51,1.8-1.51c1.03-0.02,1.75,0.79,1.8,1.51H109.97z M114.6,5.15
		c0.09-0.91-0.18-1.76-0.82-2.41c-0.52-0.51-1.23-0.8-2.01-0.8c-1.65,0-2.87,1.33-2.87,2.89c0,1.44,1.1,2.87,2.88,2.87
		c0.55,0,1.09-0.15,1.55-0.46c0.46-0.3,0.84-0.75,1.1-1.35h-1.08c-0.3,0.57-0.84,0.92-1.57,0.92c-0.82,0-1.78-0.56-1.83-1.66H114.6z
		 M98.97,7.54h1.04V4.51c0-0.94,0.47-1.58,1.49-1.59c1.06-0.01,1.44,0.69,1.44,1.67v2.95h1.05V4.35c0-1.13-0.46-2.39-2.2-2.41
		c-0.97-0.01-1.58,0.44-1.84,1V2.1h-0.98V7.54z M92.65,4.82c0-1.09,0.82-1.9,1.86-1.9c1.04,0,1.86,0.81,1.86,1.9
		c0,1.09-0.82,1.9-1.86,1.9C93.47,6.72,92.65,5.91,92.65,4.82L92.65,4.82z M91.61,4.82c0,1.46,1.07,2.87,2.9,2.87
		c1.83,0,2.9-1.41,2.9-2.87c0-1.46-1.07-2.88-2.9-2.88C92.68,1.94,91.61,3.36,91.61,4.82L91.61,4.82z M81.61,7.54h1.04V4.51
		c0-0.94,0.47-1.58,1.49-1.59c1.06-0.01,1.44,0.69,1.44,1.67v2.95h1.05V4.35c0-1.13-0.46-2.39-2.2-2.41c-0.97-0.01-1.58,0.44-1.84,1
		V2.1h-0.98V7.54z M77.69,7.54h1.04V4.6c0-1.08,0.51-1.62,1.49-1.62h0.07V1.94c-0.74,0.01-1.31,0.32-1.62,0.96V2.1h-0.98V7.54z
		 M75.83,2.1h-1.04v3.04c0,0.93-0.47,1.58-1.49,1.59c-1.07,0-1.45-0.7-1.45-1.68V2.1h-1.04v3.19c0,1.13,0.45,2.4,2.2,2.41
		c0.97,0.01,1.58-0.44,1.84-1v0.84h0.98V2.1z M67.45,7.54h1.04V2.91h1.05V2.1h-1.05V0.14h-1.04V2.1h-0.98v0.81h0.98V7.54z
		 M60.91,4.34c0.05-0.74,0.74-1.51,1.8-1.51c1.03-0.02,1.75,0.79,1.8,1.51H60.91z M65.54,5.15c0.09-0.91-0.18-1.76-0.82-2.41
		c-0.52-0.51-1.23-0.8-2.01-0.8c-1.65,0-2.87,1.33-2.87,2.89c0,1.44,1.1,2.87,2.88,2.87c0.55,0,1.09-0.15,1.55-0.46
		c0.46-0.3,0.84-0.75,1.1-1.35h-1.08c-0.3,0.57-0.84,0.92-1.57,0.92c-0.82,0-1.78-0.56-1.83-1.66H65.54z M53.62,7.54h1.18V1.18h1.01
		c0.53,0,0.94,0.04,1.26,0.24c0.39,0.26,0.63,0.75,0.63,1.25c0,0.48-0.17,0.91-0.51,1.21c-0.35,0.3-0.97,0.32-1.48,0.32h-0.26
		l2.03,3.34h1.25l-1.74-2.75c0.57-0.1,1.05-0.28,1.43-0.81c0.27-0.39,0.42-0.89,0.42-1.41c0-0.83-0.37-1.6-0.98-2
		c-0.39-0.27-0.99-0.43-2.15-0.43h-2.09V7.54z"/>
	<line class="st15" x1="0" y1="137.57" x2="229.61" y2="137.57"/>
</g>
</svg>
