<?xml version="1.0" encoding="utf-8"?>
<!-- Generator: Adobe Illustrator 23.0.0, SVG Export Plug-In . SVG Version: 6.00 Build 0)  -->
<svg version="1.1" id="Layer_1" xmlns="http://www.w3.org/2000/svg" xmlns:xlink="http://www.w3.org/1999/xlink" x="0px" y="0px"
	 viewBox="0 0 229.84 163.12" style="enable-background:new 0 0 229.84 163.12;" xml:space="preserve">
<style type="text/css">
	.st0{fill:#003767;}
	.st1{clip-path:url(#SVGID_2_);fill:none;stroke:#003767;stroke-width:0.35;}
	.st2{clip-path:url(#SVGID_2_);fill:none;stroke:#7DC242;}
	.st3{fill:#FFFFFF;}
	.st4{clip-path:url(#SVGID_4_);fill:none;stroke:#7DC242;}
	.st5{fill:none;stroke:#9DCE6E;}
	.st6{fill:none;stroke:#7DC242;}
	.st7{clip-path:url(#SVGID_6_);fill:#231F20;}
	.st8{clip-path:url(#SVGID_6_);fill:#FFFFFF;}
	.st9{clip-path:url(#SVGID_6_);fill:#3AA7CC;}
</style>
<rect x="20.53" y="55.7" class="st0" width="19.84" height="57.72"/>
<rect x="106.18" y="40.57" class="st0" width="19.84" height="72.85"/>
<rect x="63.35" y="46.9" class="st0" width="19.84" height="66.52"/>
<rect x="149.01" y="32.62" class="st0" width="19.84" height="80.8"/>
<rect x="191.84" y="25.29" class="st0" width="19.84" height="88.13"/>
<g>
	<defs>
		<rect id="SVGID_1_" width="229.84" height="163.12"/>
	</defs>
	<clipPath id="SVGID_2_">
		<use xlink:href="#SVGID_1_"  style="overflow:visible;"/>
	</clipPath>
	<line class="st1" x1="0.24" y1="137.43" x2="229.84" y2="137.43"/>
	<line class="st2" x1="0" y1="158.34" x2="12.05" y2="158.34"/>
</g>
<rect x="3.54" y="144.17" class="st0" width="5.67" height="5.67"/>
<rect x="3.19" y="155.5" class="st3" width="5.67" height="5.67"/>
<g>
	<defs>
		<rect id="SVGID_3_" width="229.84" height="163.12"/>
	</defs>
	<clipPath id="SVGID_4_">
		<use xlink:href="#SVGID_3_"  style="overflow:visible;"/>
	</clipPath>
	<rect x="3.19" y="155.5" class="st4" width="5.67" height="5.67"/>
</g>
<polyline class="st5" points="30.45,66.75 73.28,67.48 116.1,66.02 158.93,63.83 201.76,62.37 "/>
<rect x="28.11" y="64.41" class="st3" width="4.67" height="4.67"/>
<rect x="28.11" y="64.41" class="st6" width="4.67" height="4.67"/>
<rect x="70.94" y="65.14" class="st3" width="4.67" height="4.67"/>
<rect x="70.94" y="65.14" class="st6" width="4.67" height="4.67"/>
<rect x="113.77" y="63.69" class="st3" width="4.67" height="4.67"/>
<rect x="113.77" y="63.69" class="st6" width="4.67" height="4.67"/>
<rect x="156.6" y="61.49" class="st3" width="4.67" height="4.67"/>
<rect x="156.6" y="61.49" class="st6" width="4.67" height="4.67"/>
<rect x="199.43" y="60.04" class="st3" width="4.67" height="4.67"/>
<rect x="199.43" y="60.04" class="st6" width="4.67" height="4.67"/>
<g>
	<defs>
		<rect id="SVGID_5_" width="229.84" height="163.12"/>
	</defs>
	<clipPath id="SVGID_6_">
		<use xlink:href="#SVGID_5_"  style="overflow:visible;"/>
	</clipPath>
	<path class="st7" d="M37.21,49.79c0-1.09,0.04-2.09,0.8-2.09c0.76,0,0.8,0.99,0.8,2.09c0,1.04-0.04,2.04-0.8,2.04
		C37.25,51.83,37.21,50.83,37.21,49.79 M38.01,52.29c1.34,0,1.41-1.46,1.41-2.51c0-1.22-0.08-2.55-1.41-2.55
		c-1.34,0-1.41,1.46-1.41,2.55C36.59,50.96,36.67,52.29,38.01,52.29 M33.37,49.88l0.53,0.03c0-0.12,0.27-0.48,0.7-0.48
		c0.62,0,0.83,0.57,0.83,1.12c0,0.5-0.11,1.29-0.81,1.29c-0.66,0-0.76-0.65-0.76-0.91h-0.61c0,0.4,0.18,1.37,1.36,1.37
		c1.04,0,1.44-0.78,1.44-1.7c0-1.04-0.5-1.63-1.25-1.63c-0.34,0-0.66,0.13-0.87,0.37l-0.01-0.01l0.2-1.43h1.74v-0.54h-2.21
		L33.37,49.88z M30.08,48.47h1.06v3.72h0.59v-4.96H31.3c-0.03,0.7-0.6,0.78-1.23,0.81V48.47z M27,48.85c0,0.53-0.13,1.15-0.78,1.15
		c-0.66,0-0.78-0.62-0.78-1.15c0-0.53,0.17-1.15,0.78-1.15C26.83,47.7,27,48.32,27,48.85 M24.92,51.1c0,0.23,0.1,1.19,1.25,1.19
		c1.43,0,1.5-1.57,1.5-2.7c0-1.02-0.1-2.35-1.47-2.35c-0.92,0-1.4,0.73-1.4,1.69c0,0.93,0.43,1.57,1.29,1.57
		c0.55,0,0.85-0.37,0.95-0.55h0.01v0.39c0,0.25-0.05,1.49-0.88,1.49c-0.42,0-0.65-0.32-0.65-0.73H24.92z M21.68,48.47h1.06v3.72
		h0.59v-4.96H22.9c-0.03,0.7-0.6,0.78-1.22,0.81V48.47z"/>
	<path class="st8" d="M36.31,77.77c0.83,0,0.92-0.64,0.92-1.34s-0.08-1.34-0.92-1.34c-0.83,0-0.92,0.64-0.92,1.34
		S35.47,77.77,36.31,77.77 M33.47,75.41c0.83,0,0.92-0.64,0.92-1.34c0-0.7-0.08-1.34-0.92-1.34c-0.83,0-0.92,0.64-0.92,1.34
		C32.55,74.76,32.64,75.41,33.47,75.41 M36.31,77.4c-0.39,0-0.41-0.39-0.41-0.97s0.02-0.97,0.41-0.97c0.39,0,0.41,0.39,0.41,0.97
		S36.7,77.4,36.31,77.4 M33.53,77.77h0.49l2.17-5.05H35.7L33.53,77.77z M33.47,75.03c-0.39,0-0.41-0.39-0.41-0.97
		c0-0.57,0.02-0.97,0.41-0.97c0.39,0,0.41,0.39,0.41,0.97C33.88,74.64,33.86,75.03,33.47,75.03 M29.08,75.93v0.55h1.79v1.2h0.59
		v-1.2h0.56v-0.5h-0.56v-3.25h-0.59L29.08,75.93z M30.86,73.69h0.01v2.29h-1.26L30.86,73.69z M27.71,77.68h0.64v-0.74h-0.64V77.68z
		 M24.76,76.16c0-0.52,0.13-1.15,0.78-1.15c0.66,0,0.78,0.63,0.78,1.15c0,0.52-0.17,1.15-0.78,1.15
		C24.93,77.31,24.76,76.68,24.76,76.16 M26.83,73.91c0-0.23-0.1-1.19-1.25-1.19c-1.43,0-1.5,1.57-1.5,2.7c0,1.03,0.1,2.35,1.47,2.35
		c0.92,0,1.4-0.74,1.4-1.69c0-0.93-0.43-1.57-1.29-1.57c-0.55,0-0.85,0.37-0.95,0.55h-0.01v-0.39c0-0.26,0.05-1.49,0.88-1.49
		c0.42,0,0.65,0.32,0.65,0.73H26.83z"/>
	<path class="st7" d="M34.95,123.17l1.85-2.67h0.01v2.67H34.95z M34.55,123.54h2.26v1.22h0.4v-1.22h0.74v-0.37h-0.74v-3.31h-0.4
		l-2.27,3.25V123.54z M31.13,121.12h1.3v3.64h0.44v-4.9h-0.36c-0.13,0.9-0.61,0.92-1.38,0.94V121.12z M28.5,119.82
		c-1.43,0-1.71,1.38-1.71,2.53c0,1.14,0.28,2.52,1.71,2.52c1.43,0,1.71-1.38,1.71-2.53C30.21,121.2,29.93,119.82,28.5,119.82
		 M28.5,120.19c1.12,0,1.27,1.3,1.27,2.15c0,0.85-0.15,2.16-1.27,2.16c-1.12,0-1.27-1.3-1.27-2.16
		C27.23,121.49,27.38,120.19,28.5,120.19 M26.14,124.35h-2.72c0.12-0.66,0.99-1.09,1.47-1.41c0.64-0.41,1.23-0.93,1.23-1.74
		c0-0.91-0.66-1.38-1.52-1.38c-1.06,0-1.59,0.73-1.57,1.74h0.44c-0.01-0.72,0.3-1.36,1.11-1.36c0.6,0,1.1,0.36,1.1,1
		c0,0.39-0.14,0.65-0.41,0.93c-0.83,0.83-2.32,1.19-2.36,2.65h3.23V124.35z"/>
	<path class="st7" d="M122.45,33.34h1.06v3.72h0.59v-4.96h-0.42c-0.03,0.7-0.6,0.78-1.22,0.81V33.34z M118.89,32.75h2.27
		c-0.48,0.63-0.88,1.33-1.18,2.06c-0.31,0.73-0.51,1.5-0.6,2.25h0.68c0.09-1.01,0.36-1.88,0.68-2.65c0.31-0.74,0.7-1.34,0.97-1.7
		V32.2h-2.83V32.75z M115.73,33.34h1.06v3.72h0.59v-4.96h-0.42c-0.03,0.7-0.6,0.78-1.23,0.81V33.34z M110.43,35.31v0.55h1.79v1.2
		h0.59v-1.2h0.56v-0.5h-0.56v-3.25h-0.59L110.43,35.31z M112.21,33.07h0.01v2.29h-1.26L112.21,33.07z M109.93,36.52h-2.13
		c0.07-0.33,0.27-0.62,0.54-0.85l0.7-0.61c0.55-0.48,0.87-0.88,0.87-1.63c0-0.43-0.18-1.32-1.33-1.32c-1.01,0-1.41,0.64-1.41,1.57
		h0.61c0-0.28,0.02-1.07,0.78-1.07c0.53,0,0.72,0.46,0.72,0.89c0,0.55-0.26,0.85-0.66,1.19l-0.41,0.34
		c-0.55,0.48-1.07,1.11-1.07,2.03h2.77V36.52z"/>
	<path class="st8" d="M121.96,77.06c0.83,0,0.92-0.64,0.92-1.34s-0.08-1.34-0.92-1.34c-0.83,0-0.92,0.64-0.92,1.34
		S121.13,77.06,121.96,77.06 M119.13,74.7c0.83,0,0.92-0.64,0.92-1.34c0-0.7-0.08-1.34-0.92-1.34c-0.83,0-0.92,0.64-0.92,1.34
		C118.21,74.05,118.3,74.7,119.13,74.7 M121.96,76.69c-0.39,0-0.41-0.39-0.41-0.97s0.02-0.97,0.41-0.97c0.39,0,0.41,0.39,0.41,0.97
		S122.36,76.69,121.96,76.69 M119.19,77.06h0.49l2.17-5.05h-0.49L119.19,77.06z M119.13,74.32c-0.39,0-0.41-0.39-0.41-0.97
		c0-0.57,0.02-0.97,0.41-0.97c0.39,0,0.41,0.39,0.41,0.97C119.54,73.93,119.52,74.32,119.13,74.32 M114.94,74.65l0.53,0.03
		c0-0.12,0.27-0.48,0.7-0.48c0.62,0,0.83,0.57,0.83,1.12c0,0.5-0.11,1.29-0.81,1.29c-0.66,0-0.76-0.65-0.76-0.91h-0.62
		c0,0.4,0.18,1.37,1.36,1.37c1.04,0,1.44-0.78,1.44-1.7c0-1.04-0.5-1.63-1.25-1.63c-0.34,0-0.67,0.13-0.87,0.37l-0.01-0.01l0.2-1.44
		h1.74v-0.55h-2.21L114.94,74.65z M113.37,76.97h0.64v-0.74h-0.64V76.97z M110.42,75.45c0-0.52,0.13-1.15,0.78-1.15
		c0.66,0,0.78,0.63,0.78,1.15c0,0.52-0.17,1.15-0.78,1.15C110.59,76.6,110.42,75.97,110.42,75.45 M112.49,73.2
		c0-0.23-0.1-1.19-1.25-1.19c-1.43,0-1.5,1.57-1.5,2.7c0,1.03,0.1,2.35,1.47,2.35c0.92,0,1.4-0.74,1.4-1.69
		c0-0.93-0.43-1.57-1.29-1.57c-0.55,0-0.85,0.37-0.95,0.55h-0.01v-0.39c0-0.26,0.05-1.49,0.88-1.49c0.42,0,0.65,0.32,0.65,0.73
		H112.49z"/>
	<path class="st7" d="M123.53,121.1c-0.1-0.85-0.64-1.28-1.5-1.28c-1.6,0-1.75,1.86-1.75,2.44c0,1.91,0.52,2.6,1.71,2.6
		c0.97,0,1.66-0.71,1.66-1.66c0-0.96-0.64-1.64-1.62-1.64c-0.55,0-1.07,0.33-1.3,0.81h-0.01c0-0.89,0.21-2.19,1.35-2.19
		c0.57,0,0.95,0.37,1.02,0.91H123.53z M122.03,121.94c0.75,0,1.18,0.58,1.18,1.3c0,0.68-0.48,1.26-1.18,1.26
		c-0.85,0-1.22-0.57-1.22-1.26C120.81,122.51,121.26,121.94,122.03,121.94 M116.78,121.12h1.3v3.64h0.44v-4.9h-0.36
		c-0.13,0.9-0.61,0.92-1.38,0.94V121.12z M114.16,119.82c-1.43,0-1.71,1.38-1.71,2.53c0,1.14,0.28,2.52,1.71,2.52
		c1.43,0,1.71-1.38,1.71-2.53C115.87,121.2,115.59,119.82,114.16,119.82 M114.16,120.19c1.12,0,1.27,1.3,1.27,2.15
		c0,0.85-0.15,2.16-1.27,2.16c-1.12,0-1.27-1.3-1.27-2.16C112.89,121.49,113.04,120.19,114.16,120.19 M111.8,124.35h-2.72
		c0.12-0.66,0.99-1.09,1.47-1.41c0.64-0.41,1.23-0.93,1.23-1.74c0-0.91-0.66-1.38-1.52-1.38c-1.06,0-1.59,0.73-1.57,1.74h0.44
		c-0.01-0.72,0.3-1.36,1.11-1.36c0.6,0,1.1,0.36,1.1,1c0,0.39-0.14,0.65-0.41,0.93c-0.83,0.83-2.32,1.19-2.36,2.65h3.23V124.35z"/>
	<path class="st7" d="M80.04,40.99c0-1.09,0.04-2.09,0.8-2.09c0.76,0,0.8,0.99,0.8,2.09c0,1.04-0.04,2.04-0.8,2.04
		C80.08,43.03,80.04,42.03,80.04,40.99 M80.84,43.49c1.34,0,1.41-1.46,1.41-2.51c0-1.22-0.08-2.55-1.41-2.55
		c-1.34,0-1.41,1.46-1.41,2.55C79.42,42.16,79.5,43.49,80.84,43.49 M76.06,39.08h2.27c-0.48,0.63-0.88,1.33-1.18,2.06
		c-0.31,0.74-0.51,1.51-0.6,2.25h0.68c0.09-1.01,0.36-1.88,0.68-2.65c0.31-0.74,0.7-1.34,0.97-1.7v-0.51h-2.83V39.08z M73.32,40.99
		c0-1.09,0.04-2.09,0.8-2.09c0.76,0,0.8,0.99,0.8,2.09c0,1.04-0.04,2.04-0.8,2.04C73.36,43.03,73.32,42.03,73.32,40.99 M74.12,43.49
		c1.34,0,1.41-1.46,1.41-2.51c0-1.22-0.08-2.55-1.41-2.55c-1.34,0-1.41,1.46-1.41,2.55C72.7,42.16,72.78,43.49,74.12,43.49
		 M70.46,42.85h-2.13c0.07-0.33,0.27-0.62,0.54-0.85l0.7-0.61c0.55-0.48,0.87-0.88,0.87-1.63c0-0.43-0.18-1.32-1.33-1.32
		c-1.01,0-1.41,0.64-1.41,1.57h0.61c0-0.28,0.02-1.07,0.78-1.07c0.53,0,0.72,0.46,0.72,0.89c0,0.55-0.26,0.85-0.66,1.19l-0.41,0.34
		c-0.55,0.48-1.07,1.11-1.07,2.03h2.77V42.85z M67.1,42.85h-2.13c0.07-0.33,0.27-0.62,0.54-0.85l0.7-0.61
		c0.55-0.48,0.87-0.88,0.87-1.63c0-0.43-0.18-1.32-1.33-1.32c-1.01,0-1.41,0.64-1.41,1.57h0.61c0-0.28,0.02-1.07,0.78-1.07
		c0.53,0,0.72,0.46,0.72,0.89c0,0.55-0.26,0.85-0.66,1.19l-0.41,0.34c-0.55,0.48-1.07,1.11-1.07,2.03h2.77V42.85z"/>
	<path class="st8" d="M79.13,79c0.83,0,0.92-0.64,0.92-1.34s-0.08-1.34-0.92-1.34c-0.83,0-0.92,0.64-0.92,1.34S78.3,79,79.13,79
		 M76.3,76.64c0.83,0,0.92-0.64,0.92-1.34c0-0.7-0.08-1.34-0.92-1.34c-0.83,0-0.92,0.64-0.92,1.34
		C75.38,75.99,75.47,76.64,76.3,76.64 M79.13,78.62c-0.39,0-0.41-0.39-0.41-0.97s0.02-0.97,0.41-0.97c0.39,0,0.41,0.39,0.41,0.97
		S79.53,78.62,79.13,78.62 M76.36,79h0.49l2.17-5.05h-0.49L76.36,79z M76.3,76.26c-0.39,0-0.41-0.39-0.41-0.97
		c0-0.57,0.02-0.97,0.41-0.97c0.39,0,0.41,0.39,0.41,0.97C76.71,75.87,76.69,76.26,76.3,76.26 M72.96,76.57h0.31
		c0.62,0,0.9,0.36,0.9,0.94c0,0.84-0.43,1.02-0.79,1.02c-0.57,0-0.79-0.52-0.79-0.98h-0.61v0.06c0,0.22,0.08,1.38,1.41,1.38
		c0.95,0,1.41-0.63,1.41-1.53c0-0.69-0.36-1.04-0.92-1.15V76.3c0.52-0.13,0.77-0.57,0.77-1.06c0-0.55-0.24-1.29-1.27-1.29
		c-0.92,0-1.32,0.58-1.32,1.43h0.62c0-0.36,0.06-0.97,0.71-0.97c0.48,0,0.65,0.37,0.65,0.83c0,0.5-0.23,0.88-0.76,0.88h-0.31V76.57z
		 M70.54,78.9h0.64v-0.74h-0.64V78.9z M67.59,77.39c0-0.52,0.13-1.15,0.78-1.15c0.66,0,0.78,0.63,0.78,1.15
		c0,0.52-0.17,1.15-0.78,1.15C67.76,78.54,67.59,77.91,67.59,77.39 M69.66,75.14c0-0.23-0.1-1.19-1.25-1.19
		c-1.43,0-1.5,1.57-1.5,2.7c0,1.03,0.1,2.35,1.47,2.35c0.92,0,1.4-0.74,1.4-1.69c0-0.93-0.43-1.57-1.29-1.57
		c-0.55,0-0.85,0.37-0.95,0.55h-0.01V75.9c0-0.26,0.05-1.49,0.88-1.49c0.42,0,0.65,0.32,0.65,0.73H69.66z"/>
	<path class="st7" d="M77.42,123.36c0.02,0.93,0.7,1.5,1.61,1.5c0.94,0,1.7-0.7,1.7-1.66c0-0.99-0.64-1.69-1.64-1.69
		c-0.38,0-0.79,0.17-1.04,0.45l-0.01-0.01l0.32-1.62h2.14v-0.41h-2.45l-0.47,2.54h0.38c0.24-0.37,0.66-0.58,1.09-0.58
		c0.73,0,1.25,0.55,1.25,1.27c0,0.71-0.47,1.34-1.23,1.34c-0.67,0-1.18-0.46-1.2-1.13H77.42z M73.96,121.12h1.3v3.64h0.44v-4.9
		h-0.36c-0.13,0.9-0.61,0.92-1.38,0.94V121.12z M71.33,119.82c-1.43,0-1.71,1.38-1.71,2.53c0,1.14,0.28,2.52,1.71,2.52
		c1.43,0,1.71-1.38,1.71-2.53C73.04,121.2,72.76,119.82,71.33,119.82 M71.33,120.19c1.12,0,1.27,1.3,1.27,2.15
		c0,0.85-0.15,2.16-1.27,2.16c-1.12,0-1.27-1.3-1.27-2.16C70.06,121.49,70.21,120.19,71.33,120.19 M68.97,124.35h-2.72
		c0.12-0.66,0.99-1.09,1.47-1.41c0.64-0.41,1.23-0.93,1.23-1.74c0-0.91-0.66-1.38-1.52-1.38c-1.06,0-1.59,0.73-1.57,1.74h0.44
		c-0.01-0.72,0.3-1.36,1.11-1.36c0.6,0,1.1,0.36,1.1,1c0,0.39-0.14,0.65-0.41,0.93c-0.83,0.83-2.32,1.19-2.36,2.65h3.23V124.35z"/>
	<path class="st7" d="M167.24,25.63c0,0.52-0.13,1.15-0.79,1.15c-0.66,0-0.78-0.62-0.78-1.15c0-0.53,0.17-1.15,0.78-1.15
		C167.07,24.48,167.24,25.1,167.24,25.63 M165.17,27.88c0,0.23,0.1,1.19,1.25,1.19c1.44,0,1.51-1.57,1.51-2.7
		c0-1.02-0.1-2.35-1.47-2.35c-0.92,0-1.4,0.73-1.4,1.69c0,0.93,0.43,1.57,1.29,1.57c0.55,0,0.85-0.37,0.95-0.55h0.01v0.39
		c0,0.25-0.05,1.49-0.88,1.49c-0.42,0-0.65-0.32-0.65-0.73H165.17z M162.33,26.56c0-1.09,0.04-2.09,0.8-2.09
		c0.76,0,0.8,0.99,0.8,2.09c0,1.04-0.04,2.04-0.8,2.04C162.38,28.61,162.33,27.61,162.33,26.56 M163.13,29.07
		c1.34,0,1.41-1.46,1.41-2.51c0-1.22-0.08-2.55-1.41-2.55c-1.34,0-1.41,1.46-1.41,2.55C161.72,27.74,161.8,29.07,163.13,29.07
		 M158.97,27.59c0-0.58,0.23-1.02,0.8-1.02c0.57,0,0.81,0.44,0.81,1.02c0,0.58-0.23,1.02-0.81,1.02
		C159.2,28.61,158.97,28.17,158.97,27.59 M159.77,24.48c0.45,0,0.65,0.34,0.65,0.81c0,0.46-0.2,0.81-0.65,0.81
		c-0.46,0-0.65-0.35-0.65-0.81C159.12,24.82,159.32,24.48,159.77,24.48 M158.35,27.61c0,0.65,0.31,1.46,1.42,1.46
		s1.42-0.81,1.42-1.46c0-0.67-0.28-1.08-0.87-1.27c0.5-0.2,0.72-0.53,0.72-1.06c0-0.8-0.48-1.26-1.27-1.26
		c-0.78,0-1.27,0.46-1.27,1.26c0,0.53,0.22,0.85,0.72,1.06C158.63,26.53,158.35,26.94,158.35,27.61 M153.98,27.46
		c0-0.52,0.13-1.15,0.78-1.15c0.66,0,0.79,0.63,0.79,1.15c0,0.52-0.17,1.15-0.79,1.15C154.15,28.61,153.98,27.98,153.98,27.46
		 M156.06,25.21c0-0.23-0.1-1.19-1.25-1.19c-1.43,0-1.5,1.57-1.5,2.7c0,1.03,0.1,2.35,1.47,2.35c0.93,0,1.4-0.73,1.4-1.69
		c0-0.93-0.43-1.57-1.29-1.57c-0.55,0-0.85,0.37-0.95,0.55h-0.01v-0.39c0-0.26,0.05-1.49,0.88-1.49c0.42,0,0.65,0.32,0.65,0.73
		H156.06z M152.76,28.43h-2.13c0.07-0.33,0.27-0.62,0.54-0.85l0.7-0.61c0.55-0.48,0.87-0.88,0.87-1.63c0-0.43-0.18-1.32-1.33-1.32
		c-1.01,0-1.41,0.64-1.41,1.57h0.61c0-0.28,0.02-1.07,0.78-1.07c0.53,0,0.72,0.46,0.72,0.89c0,0.55-0.26,0.85-0.66,1.19l-0.41,0.34
		c-0.55,0.48-1.07,1.11-1.07,2.03h2.77V28.43z"/>
	<path class="st8" d="M164.79,74.75c0.83,0,0.92-0.64,0.92-1.34s-0.08-1.34-0.92-1.34c-0.83,0-0.92,0.64-0.92,1.34
		S163.96,74.75,164.79,74.75 M161.96,72.38c0.83,0,0.92-0.64,0.92-1.34c0-0.7-0.08-1.34-0.92-1.34c-0.83,0-0.92,0.64-0.92,1.34
		C161.04,71.74,161.12,72.38,161.96,72.38 M164.79,74.37c-0.39,0-0.41-0.39-0.41-0.97s0.02-0.97,0.41-0.97
		c0.39,0,0.41,0.39,0.41,0.97S165.18,74.37,164.79,74.37 M162.02,74.75h0.49l2.17-5.05h-0.49L162.02,74.75z M161.96,72.01
		c-0.39,0-0.41-0.39-0.41-0.97c0-0.57,0.02-0.97,0.41-0.97c0.39,0,0.41,0.39,0.41,0.97C162.37,71.61,162.35,72.01,161.96,72.01
		 M158.23,73.27c0-0.58,0.23-1.02,0.81-1.02c0.57,0,0.81,0.44,0.81,1.02s-0.23,1.02-0.81,1.02
		C158.46,74.29,158.23,73.85,158.23,73.27 M159.04,70.16c0.45,0,0.65,0.34,0.65,0.81c0,0.46-0.2,0.81-0.65,0.81
		c-0.46,0-0.65-0.35-0.65-0.81C158.39,70.5,158.58,70.16,159.04,70.16 M157.62,73.29c0,0.65,0.31,1.46,1.42,1.46
		c1.11,0,1.42-0.81,1.42-1.46c0-0.67-0.28-1.08-0.87-1.27c0.5-0.2,0.72-0.53,0.72-1.06c0-0.8-0.48-1.26-1.27-1.26
		c-0.78,0-1.27,0.46-1.27,1.26c0,0.53,0.22,0.85,0.72,1.06C157.9,72.21,157.62,72.62,157.62,73.29 M156.2,74.65h0.64v-0.74h-0.64
		V74.65z M153.25,73.14c0-0.52,0.13-1.15,0.78-1.15c0.66,0,0.79,0.63,0.79,1.15c0,0.52-0.17,1.15-0.79,1.15
		C153.42,74.29,153.25,73.66,153.25,73.14 M155.32,70.89c0-0.23-0.1-1.19-1.25-1.19c-1.43,0-1.5,1.57-1.5,2.7
		c0,1.03,0.1,2.35,1.47,2.35c0.93,0,1.4-0.74,1.4-1.69c0-0.93-0.43-1.57-1.29-1.57c-0.55,0-0.85,0.37-0.95,0.55h-0.01v-0.39
		c0-0.26,0.05-1.49,0.88-1.49c0.42,0,0.65,0.32,0.65,0.73H155.32z"/>
	<path class="st7" d="M163.18,120.33h2.71c-1.36,1.55-1.9,2.77-2.02,4.43h0.48c0.11-2.28,1.37-3.79,1.98-4.43v-0.41h-3.15V120.33z
		 M159.61,121.12h1.3v3.64h0.44v-4.9h-0.36c-0.13,0.9-0.61,0.92-1.38,0.94V121.12z M156.99,119.82c-1.43,0-1.71,1.38-1.71,2.53
		c0,1.14,0.28,2.52,1.71,2.52c1.43,0,1.71-1.38,1.71-2.53C158.69,121.2,158.41,119.82,156.99,119.82 M156.99,120.19
		c1.12,0,1.27,1.3,1.27,2.15c0,0.85-0.15,2.16-1.27,2.16c-1.12,0-1.27-1.3-1.27-2.16C155.72,121.49,155.87,120.19,156.99,120.19
		 M154.63,124.35h-2.72c0.12-0.66,0.99-1.09,1.47-1.41c0.64-0.41,1.23-0.93,1.23-1.74c0-0.91-0.66-1.38-1.52-1.38
		c-1.06,0-1.59,0.73-1.57,1.74h0.44c-0.01-0.72,0.3-1.36,1.11-1.36c0.6,0,1.1,0.36,1.1,1c0,0.39-0.14,0.65-0.41,0.93
		c-0.83,0.83-2.32,1.19-2.36,2.65h3.23V124.35z"/>
	<path class="st7" d="M208.52,19.38c0-1.09,0.04-2.09,0.8-2.09c0.76,0,0.8,0.99,0.8,2.09c0,1.04-0.04,2.04-0.8,2.04
		C208.56,21.42,208.52,20.42,208.52,19.38 M209.32,21.88c1.34,0,1.41-1.46,1.41-2.51c0-1.22-0.08-2.55-1.41-2.55
		c-1.34,0-1.41,1.46-1.41,2.55C207.91,20.55,207.98,21.88,209.32,21.88 M204.49,20.03v0.55h1.79v1.2h0.59v-1.2h0.56v-0.5h-0.56
		v-3.25h-0.59L204.49,20.03z M206.27,17.79h0.01v2.29h-1.26L206.27,17.79z M203.99,21.24h-2.13c0.07-0.33,0.27-0.62,0.54-0.85
		l0.7-0.61c0.55-0.48,0.87-0.88,0.87-1.63c0-0.43-0.18-1.32-1.33-1.32c-1.01,0-1.41,0.64-1.41,1.57h0.62c0-0.28,0.02-1.07,0.78-1.07
		c0.53,0,0.72,0.46,0.72,0.89c0,0.55-0.26,0.85-0.66,1.19l-0.41,0.34c-0.55,0.48-1.07,1.11-1.07,2.03h2.77V21.24z M198.31,18.44
		c0,0.52-0.13,1.15-0.79,1.15c-0.66,0-0.78-0.62-0.78-1.15c0-0.53,0.17-1.15,0.78-1.15C198.14,17.29,198.31,17.91,198.31,18.44
		 M196.24,20.69c0,0.23,0.1,1.19,1.25,1.19c1.43,0,1.51-1.57,1.51-2.7c0-1.02-0.1-2.35-1.47-2.35c-0.92,0-1.4,0.73-1.4,1.69
		c0,0.93,0.43,1.57,1.29,1.57c0.55,0,0.85-0.37,0.95-0.55h0.01v0.39c0,0.25-0.05,1.49-0.88,1.49c-0.42,0-0.65-0.32-0.65-0.73H196.24
		z M195.59,21.24h-2.13c0.07-0.33,0.27-0.62,0.54-0.85l0.7-0.61c0.55-0.48,0.87-0.88,0.87-1.63c0-0.43-0.18-1.32-1.33-1.32
		c-1.01,0-1.41,0.64-1.41,1.57h0.61c0-0.28,0.02-1.07,0.78-1.07c0.53,0,0.72,0.46,0.72,0.89c0,0.55-0.26,0.85-0.66,1.19l-0.41,0.34
		c-0.55,0.48-1.07,1.11-1.07,2.03h2.77V21.24z"/>
	<path class="st8" d="M207.62,73.4c0.83,0,0.92-0.64,0.92-1.34c0-0.7-0.08-1.34-0.92-1.34c-0.83,0-0.92,0.64-0.92,1.34
		C206.7,72.75,206.79,73.4,207.62,73.4 M204.78,71.03c0.83,0,0.92-0.64,0.92-1.34c0-0.7-0.08-1.34-0.92-1.34
		c-0.83,0-0.92,0.64-0.92,1.34C203.87,70.39,203.95,71.03,204.78,71.03 M207.62,73.02c-0.39,0-0.41-0.39-0.41-0.97
		c0-0.57,0.02-0.97,0.41-0.97c0.39,0,0.41,0.39,0.41,0.97C208.03,72.63,208.01,73.02,207.62,73.02 M204.85,73.4h0.49l2.17-5.05
		h-0.49L204.85,73.4z M204.78,70.65c-0.39,0-0.41-0.39-0.41-0.97c0-0.57,0.02-0.97,0.41-0.97c0.39,0,0.41,0.39,0.41,0.97
		C205.2,70.26,205.18,70.65,204.78,70.65 M201.07,70.89c0-1.09,0.04-2.09,0.8-2.09c0.76,0,0.8,0.99,0.8,2.09
		c0,1.04-0.04,2.04-0.8,2.04C201.11,72.94,201.07,71.94,201.07,70.89 M201.87,73.4c1.34,0,1.41-1.46,1.41-2.51
		c0-1.22-0.08-2.55-1.41-2.55c-1.34,0-1.41,1.46-1.41,2.55C200.45,72.07,200.53,73.4,201.87,73.4 M199.02,73.3h0.64v-0.74h-0.64
		V73.3z M195.41,68.99h2.27c-0.48,0.63-0.88,1.33-1.18,2.06c-0.31,0.74-0.51,1.5-0.6,2.25h0.69c0.09-1.01,0.36-1.88,0.68-2.65
		c0.31-0.74,0.7-1.34,0.97-1.7v-0.51h-2.83V68.99z"/>
	<path class="st7" d="M207.6,121.95c-0.52,0.01-1.05-0.25-1.05-0.91c0-0.56,0.51-0.85,1.05-0.85c0.59,0,1.04,0.29,1.04,0.85
		C208.64,121.67,208.14,121.97,207.6,121.95 M209.08,121.04c0-0.84-0.76-1.22-1.49-1.22c-0.72,0-1.48,0.38-1.48,1.22
		c0,0.54,0.29,0.92,0.8,1.08v0.01c-0.6,0.11-0.98,0.62-0.99,1.25c0,0.99,0.77,1.48,1.69,1.48c0.92,0,1.69-0.49,1.69-1.48
		c0-0.66-0.37-1.13-1-1.25v-0.01C208.78,121.97,209.08,121.57,209.08,121.04 M207.6,124.49c-0.69,0-1.25-0.37-1.25-1.11
		c0-0.72,0.57-1.08,1.25-1.07c0.66-0.01,1.25,0.36,1.25,1.07C208.85,124.14,208.29,124.49,207.6,124.49 M202.44,121.12h1.3v3.64
		h0.44v-4.9h-0.36c-0.13,0.9-0.61,0.92-1.38,0.94V121.12z M199.81,119.82c-1.43,0-1.71,1.38-1.71,2.53c0,1.14,0.28,2.52,1.71,2.52
		c1.43,0,1.71-1.38,1.71-2.53C201.52,121.2,201.24,119.82,199.81,119.82 M199.81,120.19c1.12,0,1.27,1.3,1.27,2.15
		c0,0.85-0.15,2.16-1.27,2.16c-1.12,0-1.27-1.3-1.27-2.16C198.55,121.49,198.69,120.19,199.81,120.19 M197.46,124.35h-2.72
		c0.12-0.66,0.99-1.09,1.47-1.41c0.64-0.41,1.23-0.93,1.23-1.74c0-0.91-0.66-1.38-1.52-1.38c-1.06,0-1.59,0.73-1.57,1.74h0.44
		c-0.01-0.72,0.3-1.36,1.11-1.36c0.6,0,1.1,0.36,1.1,1c0,0.39-0.14,0.65-0.41,0.93c-0.83,0.83-2.32,1.19-2.36,2.65h3.23V124.35z"/>
	<path class="st9" d="M165.1,7.4h1.04V4.37c0-0.94,0.47-1.58,1.49-1.59c1.06-0.01,1.44,0.69,1.44,1.67V7.4h1.05V4.21
		c0-1.13-0.46-2.39-2.2-2.41c-0.97-0.01-1.58,0.44-1.84,1V1.96h-0.98V7.4z M162.2,7.4h1.04V1.96h-1.04V7.4z M162.2,1.1h1.04V0h-1.04
		V1.1z M155.58,4.67c0-1.12,0.85-1.89,1.88-1.89c0.66,0,1.13,0.26,1.43,0.64c0.3,0.37,0.44,0.86,0.44,1.29
		c-0.01,0.53-0.21,1-0.53,1.33c-0.33,0.34-0.79,0.55-1.34,0.55C156.31,6.59,155.58,5.7,155.58,4.67L155.58,4.67z M160.35,1.96h-1.04
		v0.92c-0.3-0.6-1.05-1.08-1.96-1.08c-1.58,0-2.81,1.2-2.81,2.9c0,1.62,1.18,2.86,2.81,2.86c0.98,0,1.64-0.51,1.96-1.12V7
		c0,1.22-0.94,1.89-1.85,1.89c-0.24,0-0.61-0.07-0.94-0.29c-0.27-0.17-0.48-0.39-0.6-0.63h-1.2c0.26,0.91,1.16,1.81,2.7,1.81
		c0.94,0,1.79-0.41,2.29-0.99c0.4-0.46,0.64-1.07,0.64-2.02V1.96z M151.23,7.4h1.04V4.46c0-1.08,0.51-1.62,1.49-1.62h0.07V1.8
		c-0.74,0.01-1.31,0.32-1.62,0.96v-0.8h-0.98V7.4z M144.55,4.69c0-1.02,0.74-1.92,1.88-1.92c0.87,0,1.48,0.49,1.74,1.12
		c0.12,0.25,0.17,0.53,0.16,0.81c-0.01,0.28-0.07,0.56-0.19,0.81c-0.27,0.62-0.86,1.08-1.69,1.08c-1.32,0-1.89-1.08-1.9-1.89V4.69z
		 M149.36,1.96h-1.04v0.96c-0.25-0.52-0.94-1.12-2.02-1.12c-1.58,0-2.79,1.22-2.79,2.88c0,1.52,1.04,2.88,2.79,2.88
		c0.86,0,1.64-0.38,2.02-1.11V7.4h1.04V1.96z M133.72,7.4h1.04V4.42c0-0.44,0.09-0.82,0.29-1.11c0.18-0.3,0.54-0.54,1.03-0.53
		c0.51,0.01,0.83,0.22,1.03,0.54c0.18,0.3,0.23,0.63,0.22,1.08v3h1.05v-3c0-0.46,0.03-0.76,0.25-1.1c0.2-0.33,0.59-0.52,1.05-0.52
		c0.49,0,0.78,0.17,0.97,0.45c0.24,0.31,0.3,0.76,0.3,1.21V7.4h1.04v-3c0-1.04-0.12-1.56-0.6-2.05c-0.4-0.41-0.96-0.55-1.46-0.55
		c-0.59,0-1.09,0.22-1.44,0.57c-0.19,0.19-0.3,0.38-0.39,0.54c-0.06-0.1-0.21-0.39-0.35-0.53c-0.38-0.43-0.9-0.58-1.4-0.58
		c-0.79,0-1.42,0.47-1.65,0.93V1.96h-0.98V7.4z M123.61,4.67c0-1.02,0.76-1.9,1.91-1.9c0.53,0,1,0.2,1.34,0.54
		c0.34,0.33,0.55,0.8,0.55,1.34c0.02,0.54-0.18,1.02-0.53,1.37c-0.34,0.35-0.83,0.57-1.36,0.57C124.32,6.59,123.62,5.68,123.61,4.67
		L123.61,4.67z M128.39,0h-1.04v1.89v0.96c-0.22-0.43-0.9-1.05-2.01-1.05c-1.55,0-2.77,1.18-2.77,2.87c0,1.57,1.08,2.89,2.79,2.89
		c1.12,0,1.73-0.55,2.03-1.11V7.4h1V0z M116.02,7.4h1.04V4.37c0-0.94,0.47-1.58,1.49-1.59c1.06-0.01,1.44,0.69,1.44,1.67V7.4h1.05
		V4.21c0-1.13-0.46-2.39-2.2-2.41c-0.97-0.01-1.58,0.44-1.84,1V1.96h-0.98V7.4z M109.34,4.69c0-1.02,0.74-1.92,1.88-1.92
		c0.87,0,1.48,0.49,1.74,1.12c0.12,0.25,0.17,0.53,0.16,0.81s-0.07,0.56-0.19,0.81c-0.27,0.62-0.86,1.08-1.69,1.08
		c-1.32,0-1.89-1.08-1.9-1.89V4.69z M114.15,1.96h-1.04v0.96c-0.25-0.52-0.94-1.12-2.02-1.12c-1.58,0-2.79,1.22-2.79,2.88
		c0,1.52,1.04,2.88,2.79,2.88c0.86,0,1.64-0.38,2.02-1.11V7.4h1.04V1.96z M101.31,7.4h1.04V4.46c0-1.08,0.51-1.62,1.49-1.62h0.07
		V1.8c-0.74,0.01-1.31,0.32-1.62,0.96v-0.8h-0.98V7.4z M95.15,4.2c0.05-0.74,0.74-1.51,1.8-1.51c1.03-0.02,1.75,0.79,1.8,1.51H95.15
		z M99.78,5.01c0.09-0.91-0.18-1.76-0.82-2.41c-0.52-0.51-1.23-0.8-2.01-0.8c-1.65,0-2.87,1.33-2.87,2.89c0,1.44,1.1,2.87,2.88,2.87
		c0.55,0,1.09-0.15,1.55-0.46c0.46-0.3,0.84-0.75,1.1-1.35h-1.08c-0.3,0.57-0.84,0.92-1.57,0.92c-0.82,0-1.78-0.56-1.83-1.66H99.78z
		 M93.45,1.96h-1.09L90.85,6.1l-1.51-4.14h-1.09l2.08,5.44h1.04L93.45,1.96z M82.78,4.68c0-1.09,0.82-1.9,1.86-1.9
		c1.04,0,1.86,0.81,1.86,1.9c0,1.09-0.82,1.9-1.86,1.9C83.6,6.58,82.78,5.77,82.78,4.68L82.78,4.68z M81.75,4.68
		c0,1.46,1.07,2.87,2.9,2.87c1.83,0,2.9-1.41,2.9-2.87c0-1.46-1.07-2.88-2.9-2.88C82.81,1.8,81.75,3.22,81.75,4.68L81.75,4.68z
		 M75.2,7.4h1.04V4.37c0-0.94,0.47-1.58,1.49-1.59c1.06-0.01,1.44,0.69,1.44,1.67V7.4h1.05V4.21c0-1.13-0.46-2.39-2.2-2.41
		c-0.97-0.01-1.58,0.44-1.84,1V1.96H75.2V7.4z M71.28,7.4h1.04V4.46c0-1.08,0.51-1.62,1.49-1.62h0.07V1.8
		c-0.74,0.01-1.31,0.32-1.62,0.96v-0.8h-0.98V7.4z M69.41,1.96h-1.04V5c0,0.93-0.47,1.58-1.49,1.59c-1.07,0-1.45-0.7-1.45-1.68V1.96
		H64.4v3.19c0,1.13,0.45,2.4,2.2,2.41c0.97,0.01,1.58-0.44,1.84-1V7.4h0.98V1.96z M61.02,7.4h1.18V1.04h1.7V0h-4.58v1.04h1.7V7.4z"
		/>
	<path class="st7" d="M75.69,161.37h0.53v-2.56c0.02-0.86,0.53-1.5,1.38-1.5c0.87,0,1.11,0.57,1.11,1.33v2.74h0.53v-2.82
		c0-1.05-0.37-1.69-1.61-1.69c-0.62,0-1.21,0.36-1.4,0.88h-0.02v-0.76h-0.53V161.37z M74.13,156.16h0.53v-0.86h-0.53V156.16z
		 M74.13,161.37h0.53v-4.38h-0.53V161.37z M73.1,156.99h-0.54v0.76h-0.02c-0.21-0.49-0.76-0.88-1.39-0.88c-1.27,0-1.98,1-1.98,2.21
		c0,1.25,0.58,2.25,1.98,2.25c0.63,0,1.15-0.36,1.39-0.9h0.02v0.6c0,1.07-0.42,1.66-1.41,1.66c-0.6,0-1.17-0.23-1.28-0.88h-0.53
		c0.08,0.94,0.94,1.33,1.82,1.33c1.44,0,1.94-0.8,1.95-2.11V156.99z M71.16,160.87c-0.99,0-1.45-0.86-1.45-1.74
		c0-0.91,0.42-1.82,1.45-1.82c1.01,0,1.41,0.96,1.41,1.82C72.57,160.02,72.08,160.87,71.16,160.87 M66.72,161.37h0.54v-2.34
		c0-0.91,0.66-1.62,1.63-1.57v-0.53c-0.79-0.03-1.39,0.38-1.66,1.09h-0.02v-1.03h-0.49V161.37z M62.79,158.33
		c0.02-0.71,0.51-1.02,1.17-1.02c0.63,0,1.15,0.18,1.15,0.9c0,0.49-0.25,0.54-0.69,0.6c-1.16,0.14-2.35,0.18-2.35,1.41
		c0,0.88,0.66,1.28,1.47,1.28c0.84,0,1.22-0.32,1.6-0.89h0.02c0,0.46,0.08,0.76,0.63,0.76c0.14,0,0.23-0.01,0.35-0.03v-0.45
		c-0.04,0.02-0.11,0.03-0.17,0.03c-0.21,0-0.32-0.12-0.32-0.32v-2.33c0-1.17-0.84-1.41-1.61-1.41c-1,0-1.72,0.44-1.78,1.47H62.79z
		 M65.11,159.67c0.01,0.86-0.71,1.38-1.53,1.38c-0.5,0-0.98-0.33-0.98-0.87c0-0.86,1.13-0.85,2.04-1.01
		c0.14-0.03,0.38-0.07,0.45-0.2h0.02V159.67z M55.23,161.37h0.53v-2.45c0.01-0.92,0.38-1.61,1.31-1.61c0.68,0,0.93,0.49,0.92,1.09
		v2.97h0.53v-2.48c0-0.82,0.26-1.58,1.19-1.58c0.77,0,1.04,0.39,1.04,1.11v2.95h0.53v-2.97c0-1.04-0.49-1.54-1.45-1.54
		c-0.58,0-1.13,0.28-1.39,0.86c-0.16-0.58-0.68-0.86-1.26-0.86c-0.7,0-1.16,0.34-1.44,0.87h-0.03v-0.74h-0.49V161.37z M51.84,156.99
		h-0.53v0.76h-0.02c-0.21-0.49-0.76-0.88-1.4-0.88c-1.27,0-1.98,1-1.98,2.21c0,1.25,0.58,2.25,1.98,2.25c0.63,0,1.15-0.36,1.4-0.9
		h0.02v0.6c0,1.07-0.42,1.66-1.41,1.66c-0.6,0-1.17-0.23-1.28-0.88h-0.53c0.08,0.94,0.94,1.33,1.82,1.33c1.44,0,1.94-0.8,1.95-2.11
		V156.99z M49.9,160.87c-0.99,0-1.45-0.86-1.45-1.74c0-0.91,0.43-1.82,1.45-1.82c1.01,0,1.41,0.96,1.41,1.82
		C51.31,160.02,50.83,160.87,49.9,160.87 M43.57,161.37h0.53v-2.56c0.02-0.86,0.53-1.5,1.38-1.5c0.87,0,1.11,0.57,1.11,1.33v2.74
		h0.53v-2.82c0-1.05-0.37-1.69-1.61-1.69c-0.62,0-1.21,0.36-1.4,0.88H44.1v-0.76h-0.53V161.37z M42.01,156.16h0.53v-0.86h-0.53
		V156.16z M42.01,161.37h0.53v-4.38h-0.53V161.37z M40.34,155.67H39.8v1.32h-0.76v0.45h0.76v3c-0.01,0.75,0.24,0.99,0.95,0.99
		c0.16,0,0.32-0.02,0.48-0.02v-0.46c-0.15,0.02-0.31,0.03-0.46,0.03c-0.38-0.03-0.43-0.23-0.43-0.58v-2.96h0.89v-0.45h-0.89V155.67z
		 M35.56,158.33c0.02-0.71,0.51-1.02,1.17-1.02c0.63,0,1.15,0.18,1.15,0.9c0,0.49-0.25,0.54-0.69,0.6
		c-1.16,0.14-2.35,0.18-2.35,1.41c0,0.88,0.66,1.28,1.47,1.28c0.84,0,1.23-0.32,1.6-0.89h0.02c0,0.46,0.08,0.76,0.63,0.76
		c0.14,0,0.23-0.01,0.35-0.03v-0.45c-0.04,0.02-0.11,0.03-0.17,0.03c-0.21,0-0.31-0.12-0.31-0.32v-2.33c0-1.17-0.84-1.41-1.62-1.41
		c-1,0-1.72,0.44-1.78,1.47H35.56z M37.88,159.67c0.01,0.86-0.71,1.38-1.53,1.38c-0.5,0-0.98-0.33-0.98-0.87
		c0-0.86,1.13-0.85,2.04-1.01c0.14-0.03,0.38-0.07,0.45-0.2h0.02V159.67z M32.4,161.37h0.53v-2.34c0-0.91,0.66-1.62,1.63-1.57v-0.53
		c-0.79-0.03-1.38,0.38-1.66,1.09h-0.02v-1.03H32.4V161.37z M28.3,158.88c0.08-0.8,0.57-1.57,1.44-1.57c0.87,0,1.37,0.76,1.4,1.57
		H28.3z M31.67,159.32c0.04-1.23-0.52-2.46-1.93-2.46c-1.39,0-1.98,1.16-1.98,2.32c0,1.25,0.59,2.32,1.98,2.32
		c1.11,0,1.68-0.58,1.91-1.57h-0.53c-0.17,0.66-0.6,1.12-1.38,1.12c-1.03,0-1.44-0.94-1.44-1.73H31.67z M23.11,163h0.53v-2.45h0.02
		c0.23,0.63,0.87,0.96,1.52,0.96c1.33,0,1.97-1.08,1.97-2.32c0-1.24-0.64-2.32-1.97-2.32c-0.71,0-1.32,0.36-1.57,0.96H23.6v-0.83
		h-0.49V163z M26.62,159.18c0,0.91-0.42,1.87-1.44,1.87c-1.14,0-1.54-0.96-1.54-1.87c0-0.99,0.36-1.87,1.54-1.87
		C26.2,157.31,26.62,158.27,26.62,159.18 M17.17,158.34c0-1.33,0.68-2.67,2.29-2.67c1.6,0,2.28,1.34,2.28,2.67
		c0,1.33-0.68,2.67-2.28,2.67C17.85,161.01,17.17,159.66,17.17,158.34 M16.59,158.34c0,1.66,0.95,3.16,2.86,3.16
		c1.9,0,2.86-1.5,2.86-3.16c0-1.66-0.95-3.16-2.86-3.16C17.54,155.18,16.59,156.68,16.59,158.34"/>
	<path class="st7" d="M83.05,143.84c0.65,1.05,1.09,2.46,1.09,3.69c0,1.5-0.33,2.92-1.09,4.13h0.43c0.74-1.15,1.2-2.49,1.2-3.93
		c0-1.48-0.44-2.63-1.2-3.88H83.05z M79,150.03h0.53v-2.56c0.02-0.86,0.53-1.51,1.38-1.51c0.87,0,1.11,0.57,1.11,1.33v2.74h0.53
		v-2.82c0-1.05-0.37-1.69-1.61-1.69c-0.62,0-1.21,0.36-1.4,0.88h-0.02v-0.76H79V150.03z M76.13,145.97c1.03,0,1.54,0.93,1.54,1.87
		c0,0.93-0.51,1.87-1.54,1.87s-1.54-0.93-1.54-1.87C74.59,146.91,75.1,145.97,76.13,145.97 M76.13,145.52
		c-1.34,0-2.07,1.06-2.07,2.32c0,1.26,0.73,2.32,2.07,2.32c1.34,0,2.07-1.06,2.07-2.32C78.2,146.58,77.47,145.52,76.13,145.52
		 M72.71,144.82h0.53v-0.86h-0.53V144.82z M72.71,150.03h0.53v-4.38h-0.53V150.03z M71.14,150.03h0.53v-6.07h-0.53V150.03z
		 M69.57,150.03h0.53v-6.07h-0.53V150.03z M68,144.82h0.53v-0.86H68V144.82z M68,150.03h0.53v-4.38H68V150.03z M60.91,150.03h0.53
		v-2.45c0.01-0.92,0.38-1.62,1.31-1.62c0.68,0,0.93,0.49,0.92,1.09v2.98h0.53v-2.48c0-0.82,0.26-1.58,1.19-1.58
		c0.77,0,1.04,0.39,1.04,1.11v2.95h0.53v-2.98c0-1.04-0.49-1.54-1.45-1.54c-0.58,0-1.13,0.28-1.39,0.86
		c-0.16-0.58-0.68-0.86-1.26-0.86c-0.7,0-1.16,0.34-1.44,0.87H61.4v-0.74h-0.49V150.03z M58.88,143.97v0.9h0.36
		c0.02,0.28-0.11,0.7-0.4,0.8v0.37c0.52-0.14,0.75-0.66,0.76-1.15v-0.91H58.88z M53.55,144.46h2.16c0.87,0,1.31,0.47,1.31,1.21
		c0,0.74-0.6,1.18-1.31,1.18h-2.16V144.46z M52.98,150.03h0.58v-2.69h2.19c1.1-0.04,1.16,0.9,1.22,1.75
		c0.02,0.25,0.02,0.7,0.16,0.94h0.64c-0.26-0.31-0.26-1.14-0.28-1.55c-0.04-0.72-0.27-1.27-1.06-1.37v-0.02
		c0.78-0.15,1.18-0.78,1.18-1.55c0-1.1-0.84-1.58-1.84-1.58h-2.78V150.03z M52.37,151.66c-0.65-1.05-1.09-2.46-1.09-3.69
		c0-1.5,0.33-2.92,1.09-4.13h-0.43c-0.74,1.15-1.2,2.49-1.2,3.94c0,1.48,0.44,2.63,1.2,3.88H52.37z M45.79,150.03h0.53v-2.34
		c0-0.91,0.66-1.62,1.63-1.57v-0.53c-0.79-0.03-1.39,0.38-1.66,1.09h-0.02v-1.03h-0.49V150.03z M41.69,147.54
		c0.09-0.8,0.57-1.57,1.44-1.57c0.87,0,1.37,0.76,1.4,1.57H41.69z M45.06,147.99c0.04-1.23-0.52-2.46-1.93-2.46
		c-1.39,0-1.98,1.16-1.98,2.32c0,1.25,0.59,2.32,1.98,2.32c1.11,0,1.68-0.58,1.91-1.57h-0.53c-0.17,0.66-0.6,1.12-1.38,1.12
		c-1.03,0-1.44-0.94-1.44-1.73H45.06z M38.64,150.03h0.57l1.64-4.38h-0.55l-1.36,3.85h-0.02l-1.38-3.85h-0.59L38.64,150.03z
		 M34.57,145.97c1.03,0,1.54,0.93,1.54,1.87c0,0.93-0.51,1.87-1.54,1.87c-1.03,0-1.54-0.93-1.54-1.87
		C33.03,146.91,33.54,145.97,34.57,145.97 M34.57,145.52c-1.34,0-2.07,1.06-2.07,2.32c0,1.26,0.73,2.32,2.07,2.32
		c1.34,0,2.07-1.06,2.07-2.32C36.64,146.58,35.91,145.52,34.57,145.52 M28.14,150.03h0.53v-2.56c0.02-0.86,0.53-1.51,1.38-1.51
		c0.87,0,1.11,0.57,1.11,1.33v2.74h0.53v-2.82c0-1.05-0.37-1.69-1.61-1.69c-0.62,0-1.21,0.36-1.4,0.88h-0.02v-0.76h-0.53V150.03z
		 M25.32,150.03h0.53v-2.34c0-0.91,0.66-1.62,1.63-1.57v-0.53c-0.79-0.03-1.39,0.38-1.66,1.09h-0.02v-1.03h-0.49V150.03z
		 M24.31,145.65h-0.53v2.3c0,0.89-0.4,1.76-1.32,1.76c-0.85,0-1.15-0.42-1.17-1.21v-2.86h-0.53v2.85c0,1.02,0.43,1.67,1.54,1.67
		c0.66,0,1.23-0.33,1.51-0.92h0.02v0.79h0.49V145.65z M16.26,144.46h2.12v5.58h0.58v-5.58h2.12v-0.49h-4.81V144.46z"/>
</g>
</svg>
