<?xml version="1.0" encoding="utf-8"?>
<!-- Generator: Adobe Illustrator 23.0.0, SVG Export Plug-In . SVG Version: 6.00 Build 0)  -->
<svg version="1.1" id="Layer_1" xmlns="http://www.w3.org/2000/svg" xmlns:xlink="http://www.w3.org/1999/xlink" x="0px" y="0px"
	 viewBox="0 0 30.23 34.44" style="enable-background:new 0 0 30.23 34.44;" xml:space="preserve">
<style type="text/css">
	.st0{clip-path:url(#SVGID_2_);fill:#231F20;}
</style>
<g>
	<defs>
		<rect id="SVGID_1_" x="0" y="0" width="30.23" height="34.44"/>
	</defs>
	<clipPath id="SVGID_2_">
		<use xlink:href="#SVGID_1_"  style="overflow:visible;"/>
	</clipPath>
	<path class="st0" d="M14.08,18.07c0.01-0.28,0.37-0.21,0.29-0.58h-0.29C14.08,17.76,13.68,17.95,14.08,18.07 M7.25,23.65
		c-0.12,0-0.13-0.12-0.29-0.1c-0.51,1.05-1.76,1.53-2.5,2.6c-0.02-0.17-0.16-0.22-0.38-0.19c-0.15,0.34,0.33,0.06,0.29,0.29
		c-1.43,0.84-2.26,2.29-3.46,3.36c-0.57,2.8,2.47,2.77,2.88,3.56c0.57-0.04,1.68,0.08,2.11,0.48c0.23-0.06,0.44-0.14,0.77-0.1
		c2.39,0.6,5.47-0.43,7.11-1.73c2.18-3.88,3.33-9.45,2.21-14.8c-0.96,0.09-1.08,1.03-1.92,1.25c-0.42,0.71-0.17,0.88-0.1,1.64
		c0.1,1.09-0.24,2.47,0,3.36c-0.4-0.05-0.26,0.44-0.48,0.58c-0.22-0.14-0.63-0.07-0.67-0.38c-0.08-1.25-0.19-2.71-0.1-4.04
		c-1.16,0.6-2.11,1.41-2.98,2.31c-0.04,1.7,0.26,3.82,0.39,5.67c-0.44,0.12-0.27,0.39-0.48,0.96c-0.46,0.05-0.52-0.31-0.77-0.48
		c-0.25-1.65-0.17-3.17-0.38-5.19c-0.57,0.12-0.75,0.98-1.35,0.77C7.23,23.48,7.27,23.54,7.25,23.65 M15.43,16.82
		c0.15-0.17,0.47-0.17,0.48-0.48C15.69,16.39,15.21,16.66,15.43,16.82 M16.77,15.67c0.42,0.13,0.79-0.36,0.39-0.48
		C17.14,15.46,16.7,15.31,16.77,15.67 M17.54,15.19c0.41,0.03,0.38-0.39,0.67-0.48c-0.14-0.02-0.16-0.16-0.29-0.19
		c0,0.13,0.05,0.21,0.1,0.29C17.75,14.82,17.75,15.11,17.54,15.19 M19.37,13.75c0.28,0.02,0.49-0.02,0.58-0.19
		C19.58,13.5,19.51,13.43,19.37,13.75 M11.2,20.09c0.09-0.31-0.32-0.13-0.29-0.39c1.15-0.55,1.87-0.97,1.73-2.4
		c-0.14-1.45-0.46-3.48-0.67-4.71c-0.87,0.37-1.94,0.09-2.88,0c0,1.28,0.04,2.52,0.48,3.36c-0.21-0.02-0.31,0.08-0.29,0.29
		c-0.07,1.39,0.29,3.13,0.19,4.52C10.4,20.9,10.55,19.36,11.2,20.09 M20.9,12.98c0.18-0.24,0.59-0.25,0.58-0.67
		C21.28,12.66,20.69,12.53,20.9,12.98 M12.83,12.59c0.31,0.65,0.18,1.74,0.39,2.5c0.6-0.75,0.25-2.22,0.38-2.98
		C13.25,12.18,13.13,12.48,12.83,12.59 M14.46,11.44c-0.99,1.22-0.57,3.91-0.58,5.96c0.7-0.42,1.39-0.85,1.92-1.44
		c-0.26-1.62-0.89-3.14-0.96-4.42C14.67,11.56,14.64,11.43,14.46,11.44 M14.27,10.57c0.25,0.03,0.41-0.03,0.39-0.29
		c-0.12-0.01-0.13-0.12-0.29-0.1C14.34,10.32,14.23,10.37,14.27,10.57 M24.17,10.67c0.15-0.2,0.34-0.36,0.58-0.48
		c-0.06-0.03-0.37-0.24-0.38,0C24.64,10.26,23.78,10.48,24.17,10.67 M9.37,11.92c1.07,0.16,1.67,0.27,2.5-0.29
		c-0.49-0.89-0.36-2.4-1.63-2.5C9.92,10.17,9.43,10.84,9.37,11.92 M18.69,14.03c1.01-0.65,1.38-1.14,1.06-2.5
		c-0.27-1.14-0.73-2.41-1.15-3.56h-0.29c-0.64,1.03-1.35,1.98-2.4,2.6c0.03,2.06,0.22,3.03,0.67,4.71
		C17.17,14.94,18,14.48,18.69,14.03 M16,7.4v0.39c-0.88,0.16-0.64,1.27-0.48,2.02c1.15-0.62,1.84-1.62,2.31-2.69
		C17.29,6.62,16.49,7.37,16,7.4 M14.94,1.92c-0.06,0.99,0.04,2.53-0.19,3.27c0.64,0.73-0.3,1.71,0.58,2.21
		c0.5-0.85,1.73-1.55,2.98-1.06C18.74,3.96,17.23-0.83,14.94,1.92 M25.61,9.71c-0.12-0.29-0.33,0.1-0.58,0
		c0.08-0.43,0.53-0.49,0.87-0.67c0.07,0.09,0.1,0.22,0.09,0.39c0.24-0.05,0.2-0.37,0.58-0.29c-0.22-0.23-0.34-0.12-0.67-0.1
		c0.27-0.47,0.79-0.45,1.06-0.1c0.35-0.21-0.29-0.21-0.19-0.48c1.2-0.37,1.87-1.27,3.08-1.63c0.16,0.16,0.39,0.25,0.38,0.58
		c-0.16,0.26-0.6,0.3-0.29,0.77c-0.8,0.13-1.61,0.65-2.21,0.67c-0.96,1.14-3.12,1.55-3.85,2.6c-0.42-0.04-0.32,0.3-0.67,0.1
		c-0.05,0.34-0.59,0.15-0.58,0.77c-0.87,0.16-1.19,0.86-1.83,1.25c0.09,0.86,0.37,1.66,0.1,2.5c-0.08,0.31,0.32,0.13,0.29,0.39
		c-0.05,2.18-0.33,5.39-0.67,7.59c0.07,0.28,0.29,0.42,0.19,0.86c-0.2,0.03-0.26,0.19-0.39,0.29c-0.49,0.04-0.58-0.32-0.77-0.58
		c0.11-3.62,1.17-6.77,0.39-10.57c-0.91,0.4-1.37,1.25-2.4,1.54c-0.31,0.23-0.36,0.73-0.67,0.96c0.66,3.02,0.92,7.37-0.29,10.28
		c-0.38,2.84-1.5,5.17-3.46,6.73c-2.4,1.41-7.09,0.93-9.52,0.1c-0.07-0.18-0.29-0.07-0.1-0.29c-0.59,0.24-0.88-0.58-1.63-0.48
		c-0.26-0.82-2.19-0.82-1.83-2.79c2.36-3.25,5.47-5.74,8.46-8.36c-0.15-3.28-0.81-6.17,0.19-8.56c0.02-0.44-0.24-0.6-0.29-0.96
		c-1.37-0.68-2.87-1.23-2.98-3.17c0.28,0,1.03-0.76,1.54-0.29C6.84,9.14,6.56,8.8,6.29,8.84c-0.08,1.41,1.34,2.11,2.4,2.69
		c0.34-0.51,0.55-0.93,0.58-1.54c-0.23-0.04,0.05,0.44-0.29,0.29C9.1,9.65,9.72,8.85,9.56,8.56c1.76-1.37,2.86,1.53,3.17,2.88
		c0.39-0.09,0.68-0.28,1.06-0.38C15.47,7.84,11.68,0.4,16.67,0c1.8,1.33,3.26,4.22,2.31,6.92c0.36,0.6,0.51,1.41,1.06,1.83
		c-0.06,1.15,0.73,2.11,0.67,3.56c1.59-0.52,2.52-1.87,4.13-2.6C25.18,9.99,25.37,9.99,25.61,9.71"/>
</g>
</svg>
