<?xml version="1.0" encoding="utf-8"?>
<!-- Generator: Adobe Illustrator 23.0.0, SVG Export Plug-In . SVG Version: 6.00 Build 0)  -->
<svg version="1.1" id="Layer_1" xmlns="http://www.w3.org/2000/svg" xmlns:xlink="http://www.w3.org/1999/xlink" x="0px" y="0px"
	 viewBox="0 0 80.17 29.76" style="enable-background:new 0 0 80.17 29.76;" xml:space="preserve">
<style type="text/css">
	.st0{clip-path:url(#SVGID_2_);fill:#231F20;}
</style>
<g>
	<defs>
		<rect id="SVGID_1_" width="80.17" height="29.76"/>
	</defs>
	<clipPath id="SVGID_2_">
		<use xlink:href="#SVGID_1_"  style="overflow:visible;"/>
	</clipPath>
	<path class="st0" d="M0,0h0.09v0.12C-0.01,0.15,0,0.08,0,0"/>
	<path class="st0" d="M51.88,4.1c0.49-0.19,0.51,0.57,0.14,0.58C51.74,4.68,51.56,4.22,51.88,4.1"/>
	<path class="st0" d="M58.49,7.01c-0.17-0.52,0.47-0.84,0.95-0.81c0.25-0.28,0.65-0.34,1.01-0.12c0.12,0.15-0.06,0.6-0.29,0.66
		c-0.15,0.04-0.29-0.07-0.43-0.06C59.25,6.72,58.84,7.24,58.49,7.01"/>
	<path class="st0" d="M20.57,8.8c0.23,0.03,0.37,0.09,0.69,0.12c-0.06,0.06-0.05,0.19-0.09,0.26C21.1,9.15,20.98,9.13,21,9.26
		c-0.17-0.23-0.27-0.18-0.49-0.09c0-0.03-0.04-0.02-0.06-0.03C20.42,8.96,20.49,8.88,20.57,8.8"/>
	<path class="st0" d="M36.92,12.66c-0.06,0.01-0.08-0.02-0.12-0.03c0.03-0.04,0.02-0.11,0.12-0.09V12.66z"/>
	<path class="st0" d="M34.32,15.43c0.04,0.01,0.04,0.05,0.09,0.06c-0.01,0.05-0.05,0.06-0.12,0.06
		C34.28,15.48,34.31,15.47,34.32,15.43"/>
	<path class="st0" d="M15.46,17.88c0.09-0.03,0.05,0.06,0.06,0.12h-0.09C15.42,17.94,15.45,17.92,15.46,17.88"/>
	<path class="st0" d="M76.6,18.23c-0.08,0-0.06,0.05-0.12,0C76.46,18.12,76.62,18.12,76.6,18.23"/>
	<path class="st0" d="M63.16,22.96c0.12,0.22-0.03,0.5-0.14,0.66c-0.51,0.04-1.46,0.06-1.44-0.43
		C61.59,22.74,62.74,22.83,63.16,22.96"/>
	<path class="st0" d="M30.92,29.65h0.12c0.01,0.09-0.03,0.13-0.12,0.11V29.65z"/>
	<path class="st0" d="M13.59,2.86c-0.01-0.17,0.12,0.05,0.23-0.09c0.04,0.01,0.02,0.07,0.03,0.12c0.29-0.09,0.59,0.16,0.81-0.03
		c0.09,0.02-0.04,0.07,0,0.14c0.05-0.03,0.14-0.01,0.17-0.06c0.34,0.16,0.99,0.04,1.36,0.2c0.22,0.09,0.53,0.03,0.81,0.23
		c0.09-0.02-0.03-0.06,0-0.11c0.15-0.03,0.16,0.09,0.23,0.14c0.06-0.03,0.04-0.16,0.17-0.12c0,0.05-0.04,0.06-0.03,0.12
		c0.26,0.04,0.53-0.05,0.69,0.17c0.14-0.1,0.29,0.04,0.43,0.06c0.07,0.01,0.03-0.08,0.09-0.09c0.1,0.05,0.15,0.13,0.26,0.03
		c-0.15,0.12,0.07,0.03,0.09,0.14c0.19-0.02,0.24,0,0.35,0.09c0.05-0.02,0.05-0.13,0.11-0.06c0.01,0.05-0.02,0.06-0.06,0.06
		c0.06,0.13,0.13-0.09,0.14,0.09c0.32-0.1,0.79,0.36,1.15,0.23c0.05,0.02,0,0.05,0,0.09c0.42,0.04,0.84,0.42,1.33,0.46
		c0.01,0.09,0.1,0.11,0.14,0.17c0.11,0.04,0.06-0.08,0.14-0.06c0.06,0.06-0.01,0.06-0.03,0.11c0.26,0.02,0.44,0.16,0.6,0.35
		c0.21-0.02,0.47,0.22,0.64,0.4c0.08,0.02,0.07-0.04,0.14-0.03c0.1,0.13,0.29,0.31,0.46,0.26c0.1,0.03,0.03,0.06,0,0.11
		c0.12,0.12,0.3,0.18,0.4,0.32c0.09,0.03,0.11-0.14,0.14-0.06c0.07,0.03-0.06-0.02-0.06,0.09c0.06,0.14,0.1,0.14,0.26,0.14
		c0.03,0.09,0.07,0.16,0.12,0.23c0.05,0,0.07-0.02,0.09-0.06c0.12,0.35,0.64,0.68,0.78,1.01c0.42,0.41,0.61,1.05,0.95,1.53
		c-0.09,0.1,0.1,0.19-0.03,0.23c0.06,0.06,0.2,0.2,0.09,0.26c0.2,0.4,0.33,0.84,0.23,1.35c-0.01,0.45-0.08,1.27-0.32,1.73
		c0,0.08-0.02,0.2,0.06,0.2c-0.29,0.33-0.43,0.87-0.63,1.36c-0.17,0.14-0.36,0.38-0.32,0.63c-0.15-0.07-0.16,0.27-0.29,0.49
		c-0.09,0.15-0.24,0.26-0.29,0.35c-0.18,0.35-0.44,0.62-0.61,0.92c-0.08,0.02-0.06-0.06-0.11-0.06c-0.12,0.1-0.06,0.21-0.09,0.4
		c-0.09,0.04-0.15,0.12-0.26,0.06c-0.01,0.09,0.07,0.09,0.06,0.17c-0.17,0.14-0.33,0.28-0.4,0.52c-0.06,0.01-0.08-0.02-0.12-0.03
		c-0.14,0.35-0.48,0.64-0.72,0.72c0,0.08-0.07,0.13-0.06,0.29c-0.16,0.11-0.29,0.44-0.61,0.49c0.05,0.09-0.02,0.13-0.03,0.23
		c-0.25-0.1-0.25,0.21-0.46,0.23c-0.01,0.18-0.03,0.18-0.06,0.35c-0.07,0.01-0.11,0-0.14-0.03c-0.04,0.09-0.06,0.19-0.11,0.26
		c-0.04-0.01-0.05-0.05-0.09-0.06c-0.1,0.02,0,0.07-0.03,0.17c-0.05-0.06-0.1-0.01-0.17,0c0.02,0.18-0.1,0.23-0.17,0.32
		c-0.09,0.02-0.03-0.1-0.14-0.06c-0.04,0.11-0.12,0.19-0.23,0.23c0.08,0.19-0.13,0.22-0.2,0.35c-0.07-0.01-0.12-0.03-0.17-0.06
		c-0.07,0.02,0.01,0.18-0.06,0.2c-0.05,0.01-0.06-0.02-0.06-0.06c-0.09,0.05-0.03,0.1-0.03,0.2c-0.1,0.09-0.23,0.14-0.29,0.26
		c-0.09-0.02,0.03-0.06,0-0.11c-0.1,0.01-0.17,0.06-0.17,0.17c-0.37,0-0.19,0.46-0.52,0.4c-0.06,0.06-0.06,0.11-0.12,0.23
		c-0.2-0.08-0.32,0.06-0.35,0.23c-0.16-0.09-0.2,0.1-0.26,0.2c-0.06,0.01-0.06-0.04-0.06-0.09c-0.16,0.19-0.3,0.54-0.63,0.46
		c-0.07,0.01,0,0.15-0.06,0.17c-0.08,0.02-0.06-0.06-0.11-0.06c-0.03,0.22-0.33,0.17-0.35,0.4c-0.2-0.13-0.23,0.25-0.43,0.12
		c-0.02,0.29-0.43,0.09-0.4,0.4c-0.18-0.11-0.21,0.04-0.29,0.17c-0.09,0.04-0.02-0.09-0.12-0.06c-0.04,0.05-0.11,0.06-0.09,0.17
		c-0.1,0.09-0.29,0.01-0.23,0.14c-0.11-0.07-0.11,0.04-0.23,0.03c-0.02,0.26-0.34,0.08-0.35,0.32c-0.15-0.13-0.13,0.11-0.29,0.03
		c-0.2,0.34-0.75,0.59-1.1,0.61c-0.1,0.32-0.63,0.21-0.84,0.49c-0.11-0.02-0.23,0.01-0.26,0.14c-0.11,0.02-0.1-0.07-0.17-0.09
		c0.01,0.32-0.32,0.15-0.37,0.38c-0.07-0.05-0.16,0.03-0.2-0.09c-0.25,0.29-0.78,0.29-1.07,0.55c-0.12-0.06-0.21,0.03-0.32-0.03
		c-0.05,0.06,0,0.04,0,0.11c-0.3,0.01-0.58,0.21-0.86,0.14c-0.06,0.03-0.12,0.05-0.14,0.12c-0.31-0.08-0.74,0.28-1.1,0.09
		c-0.12,0.04-0.25,0.14-0.38,0.09c-0.01-0.05,0.03-0.05,0.03-0.09c-0.09-0.02-0.14,0.01-0.17,0.06c-0.45-0.12-0.96-0.05-1.38-0.06
		c-0.62-0.16-1.41-0.13-1.88-0.58c-0.03,0.02-0.07,0.03-0.11,0.03c-0.07-0.07-0.15-0.19-0.26-0.14c-0.04-0.1-0.17-0.12-0.17-0.26
		c-0.39-0.14-0.75-0.69-0.81-1.15c-0.06-0.05-0.04,0-0.11,0c0.13-0.16,0.03-0.37,0.03-0.55h0.09c-0.09-0.07-0.03-0.13,0.03-0.2
		c-0.06-0.08-0.03-0.07-0.06-0.17c0.24-0.12,0.44-0.69,0.66-0.84c0.01-0.08-0.11,0.08-0.09-0.06c0.12-0.01,0.18-0.09,0.17-0.23
		c0.22-0.1,0.36-0.3,0.49-0.49c0.23,0,0.3-0.29,0.46-0.26v-0.15c0.14,0.01,0.13-0.16,0.26-0.09c0.19-0.2,0.62-0.29,0.72-0.49
		c0.15-0.05,0.49-0.19,0.49-0.38c0.16,0.05,0.27-0.04,0.32-0.17c0.19-0.04,0.38-0.08,0.43-0.26c0.06-0.01,0.06,0.04,0.06,0.09
		c0.64-0.46,1.22-0.66,1.93-1.07c0-0.08-0.05-0.06,0-0.12c0.06-0.01,0.05,0.04,0.06,0.09c0.19-0.05,0.31-0.17,0.49-0.23
		c-0.01-0.02-0.02-0.05-0.06-0.06c0.01,0.05,0.46-0.1,0.58-0.29v0.09c0.19-0.07,0.28-0.22,0.46-0.29c0.03,0.11-0.11,0.05-0.09,0.14
		c0.49-0.28,1-0.54,1.53-0.78c-0.02-0.06-0.09-0.06-0.03-0.11c0.03,0.01,0.06,0.04,0.06,0.09c0.22,0.02,0.47-0.34,0.64-0.26
		c0.35-0.22,0.83-0.46,1.21-0.55c0.29-0.24,0.75-0.39,1.07-0.52v-0.12c0.35,0.12,0.6-0.32,0.98-0.29c0.01-0.03,0.13-0.08,0.06-0.09
		c0.06-0.06,0.2-0.03,0.2-0.14c0.26,0.02,0.31-0.13,0.43-0.17c0.23,0.03,0.46-0.17,0.64-0.29c0.29-0.07,0.58-0.21,0.84-0.37
		c0.19,0.02,0.44-0.11,0.58-0.23c0.03,0.01,0.05,0.02,0.06,0.06c0.03-0.02,0.04-0.05,0.06-0.09c0.2,0.1,0.2-0.09,0.4-0.17
		c0.1-0.04,0.27,0,0.26-0.2c0.05,0.01,0.07,0.05,0.06,0.11c0.14,0,0.23-0.17,0.32-0.06c0.01-0.09-0.1-0.08-0.03-0.14
		c0.33,0.06,0.85-0.28,1.1-0.4c0.3,0.08,0.47-0.29,0.72-0.2c0.08-0.02,0.1-0.11,0.14-0.17c0.06-0.01,0.06,0.04,0.06,0.09
		c0.05,0,0.11-0.22,0.15-0.06c0.6-0.2,1.22-0.52,1.76-0.66c0.06-0.01,0.09,0.02,0.09,0.09c0.1,0,0.14-0.07,0.23-0.09
		c0.26,0.18-0.26,0.19-0.14,0.4c-0.41,0.05-0.84,0.14-1.18,0.38c-0.02-0.01-0.05-0.03-0.06-0.06c-0.14,0.2-0.42,0.13-0.52,0.4
		c-0.23-0.1-0.42,0.05-0.55,0.2c-0.1,0,0.06-0.09-0.03-0.09c-0.11,0-0.03,0.18-0.12,0.2c0.04-0.12-0.32-0.14-0.26,0.09
		c-0.36,0.08-0.8,0.06-1.01,0.46c-0.14-0.09-0.41,0.24-0.61,0.09c-0.09-0.01-0.09,0.07-0.17,0.06v0.14
		c-0.41,0.22-0.76,0.16-1.15,0.43c-0.01,0.07,0.13-0.02,0.09,0.09c-0.4-0.06-0.61,0.17-0.89,0.29c0.01,0.03,0.02,0.05,0.06,0.06
		c0,0.07-0.1,0.01-0.09-0.03c-0.3,0.24-0.81,0.26-1.04,0.58c-0.1-0.1-0.13,0.03-0.26-0.03c-0.05,0.04-0.11,0.06-0.11,0.15
		c-0.51,0.06-0.8,0.48-1.24,0.52c-0.08,0.14-0.34,0.1-0.35,0.32c-0.06-0.02-0.06-0.05-0.03-0.09c-1.02,0.42-1.94,0.89-2.88,1.3
		c-0.01,0.07,0.13-0.02,0.09,0.09c-0.11,0-0.09,0.04-0.14-0.03c-0.22,0.09-0.44,0.18-0.58,0.35c-0.02,0.02-0.06-0.02-0.06-0.03
		c-0.32,0.21-0.8,0.32-1.01,0.63c-0.06,0.01-0.09-0.02-0.09-0.09c-0.47,0.32-1.22,0.51-1.59,0.84c-0.38,0.17-0.84,0.41-1.1,0.61
		c-0.09,0.04-0.4,0.12-0.38,0.29c-0.15-0.04-0.32,0.12-0.4,0.23c-0.12-0.13-0.17,0.05-0.32,0.17c-0.12,0.1-0.39,0.21-0.49,0.29
		c-0.2,0.16-0.29,0.23-0.49,0.43c-0.09,0.09-0.28,0.22-0.4,0.29c0.04,0.16-0.12,0.13-0.09,0.29c-0.42,0.06-0.38,0.58-0.66,0.78
		c-0.07,0.33-0.14,0.61,0.06,1.01c0.03,0,0.05-0.01,0.06-0.03c0.01,0.26,0.27,0.39,0.43,0.64c0.03-0.02,0.07-0.03,0.12-0.03
		c0.32,0.35,0.67,0.35,1.07,0.61c0.43,0.07,0.74-0.02,1.12,0.17c0.32-0.07,0.6,0.08,0.95-0.03c0.18,0.08,0.48,0.05,0.69-0.03
		c0.16,0.11,0.44-0.03,0.61-0.09c0.5,0.07,1-0.19,1.44-0.35c0.14-0.05,0.28-0.05,0.4-0.12c0.47-0.23,1.15-0.56,1.67-0.69
		c0.25-0.06,0.41-0.27,0.63-0.38c0.19-0.09,0.4-0.12,0.58-0.23c0.26-0.16,0.49-0.34,0.78-0.43c0-0.06-0.08-0.04-0.06-0.11
		c0.09-0.03,0.09,0.04,0.11,0.09c0.06-0.04,0.13-0.07,0.15-0.14c0.04,0,0.08-0.01,0.09,0.03c0.27-0.27,0.74-0.36,0.98-0.66
		c0.14,0.04,0.3-0.06,0.37-0.23c0.3-0.04,0.39-0.16,0.49-0.35c0.15-0.03,0.43-0.14,0.52-0.32c0.18-0.04,0.37-0.24,0.52-0.4
		c0.45-0.07,0.61-0.53,0.95-0.55c0-0.03-0.04-0.02-0.06-0.03c0.47-0.47,1.08-0.79,1.47-1.33c0.05-0.01,0.05,0.03,0.09,0.03
		c0.15-0.3,0.65-0.41,0.66-0.75c0.03-0.05,0.08-0.07,0.11-0.03c-0.02-0.02-0.03-0.05-0.03-0.09c0.06-0.03,0.18,0.04,0.17-0.11
		c0.06-0.01,0.08,0.02,0.12,0.03c0.14-0.15,0.22-0.36,0.4-0.46c-0.02-0.03-0.07-0.03-0.06-0.09c0.3-0.11,0.49-0.34,0.63-0.61
		c0.68-0.52,1.17-1.36,1.7-1.93c0.01-0.08-0.11,0.07-0.12-0.03c-0.03,0-0.02,0.05-0.03,0.09c-0.13-0.07,0.09-0.16,0.15-0.14
		c0.07-0.19,0.3-0.22,0.29-0.49c0.06-0.06,0.06,0.01,0.11,0.03c0-0.1,0.01-0.11,0-0.23c0.08,0.04,0.4-0.31,0.49-0.46
		c0.19-0.31,0.44-0.8,0.55-1.15c0.04-0.03,0.05-0.01,0.09,0c-0.04-0.04-0.03-0.12-0.03-0.2c0.13,0.04,0.11-0.18,0.17-0.29
		c0.04-0.07,0.15-0.11,0.17-0.17c0.08-0.17,0.07-0.42,0.12-0.6c0.09,0.03,0.02-0.09,0.11-0.06c-0.07-0.03,0.07-0.12-0.06-0.12
		c0.4-0.37,0.37-1.17,0.55-1.76c0.01-0.05-0.02-0.05-0.06-0.06c0.13-0.35,0-0.81,0-1.15c-0.02-0.04-0.06-0.05-0.11-0.06
		c0.01-0.03,0.05-0.02,0.09-0.03c-0.16-0.53-0.39-1.01-0.66-1.53c-0.18-0.15-0.32-0.35-0.4-0.61h-0.15
		c-0.02-0.22-0.43-0.29-0.49-0.58c-0.19-0.05-0.21-0.27-0.43-0.29c-0.04-0.16-0.28-0.36-0.52-0.4c0-0.08-0.05-0.06,0-0.11
		c-0.05,0-0.06,0.04-0.11,0.03c0.01-0.04,0.05-0.05,0.06-0.09c-0.06-0.01-0.09,0.01-0.09,0.06c-0.25-0.17-0.36-0.44-0.69-0.46
		c0.04-0.08-0.11-0.17-0.26-0.14c-0.07-0.22-0.41-0.17-0.46-0.4c-0.06,0.01-0.05,0.08-0.14,0.06c-0.26-0.27-0.69-0.3-1.1-0.46
		c-0.01-0.06-0.06-0.07-0.06-0.14c-0.02,0.05-0.28,0.01-0.46-0.06c-0.01-0.01-0.15-0.12-0.23-0.14c-0.17-0.05-0.37,0.01-0.35-0.17
		c-0.11,0.04,0.01,0.03,0,0.12c-0.07-0.02-0.15-0.03-0.14-0.12c-0.09,0.12-0.2-0.01-0.32-0.03C19.24,4.4,19.4,4.5,19.3,4.5
		c-0.11,0-0.07-0.04-0.06-0.11C19,4.37,18.73,4.21,18.55,4.3c-0.35-0.23-0.87-0.24-1.3-0.29c-0.32-0.2-0.79-0.11-1.12-0.29
		c-0.18,0.11-0.45-0.09-0.69,0.03c-0.02-0.1-0.15-0.08-0.2-0.14c-0.06,0.04-0.11,0.08-0.14,0.14c-0.06-0.23-0.48-0.24-0.58-0.11
		c-0.04-0.01-0.02-0.07-0.03-0.12c-0.05,0.04-0.15,0.04-0.17,0.12c-0.07,0-0.05-0.11-0.09-0.15c-0.19,0.04-0.38-0.05-0.49,0.09
		c0-0.07,0.06-0.09-0.03-0.11c-0.06-0.01-0.05,0.04-0.06,0.09c-0.1-0.03-0.02-0.06,0-0.11c-0.22,0.09-0.19-0.08-0.29,0.14
		c-0.06-0.02-0.09-0.09-0.11-0.14c-0.12,0.05-0.34-0.07-0.43,0.06c-0.05,0-0.02-0.1-0.06-0.11c-0.09,0.12-0.37-0.11-0.35,0.09
		c-0.05,0-0.1-0.18-0.12-0.03c-0.09-0.02,0.03-0.06,0-0.12c-0.06,0.1-0.14,0.1-0.23,0.03C11.98,3.37,12,3.5,11.86,3.46
		c0.01-0.04,0.04-0.06,0.09-0.06c-0.02-0.03-0.05-0.04-0.09-0.06c-0.06-0.01-0.09,0.02-0.09,0.09c-0.05-0.03-0.02-0.15-0.14-0.12
		c-0.09,0.07-0.02,0.12-0.06,0.23c-0.15-0.1-0.05-0.17-0.2-0.2c-0.09-0.01-0.07,0.09-0.17,0.06c-0.01-0.05,0.03-0.05,0.03-0.09
		c-0.19,0.07-0.42-0.05-0.46,0.09c-0.1-0.01,0-0.08-0.06-0.09c-0.11,0-0.01,0.02-0.03,0.09c-0.2-0.17-0.57-0.1-0.69,0.03
		c-0.07,0-0.04-0.11-0.11-0.12c-0.13,0.05-0.15,0.09-0.26,0.2C9.57,3.41,9.58,3.43,9.64,3.4C9.59,3.36,9.48,3.44,9.46,3.32
		C9.22,3.47,9.09,3.3,8.89,3.43C8.9,3.47,8.92,3.49,8.97,3.49C8.87,3.58,8.82,3.46,8.83,3.4C8.61,3.37,8.6,3.57,8.48,3.63
		C8.4,3.56,8.52,3.55,8.51,3.46c-0.17,0.1-0.13,0.07-0.29,0.03C8.17,3.55,8.13,3.63,8.11,3.72c0.28,0.02,0.74,0.22,1.07,0.23
		C9.16,4.01,9.19,4.03,9.2,4.07c0.27-0.04,0.47,0.09,0.63,0.17c0.05-0.01-0.04-0.1,0.09-0.09c-0.08,0.13,0.13,0.09,0.14,0.2
		c0.03-0.01,0.06-0.04,0.06-0.09c0.26,0.05,0.34,0.27,0.63,0.29v0.09c0.27-0.01,0.63,0.13,0.78,0.35C11.62,4.91,11.7,5,11.71,5.08
		c0.2-0.05,0.36,0.17,0.49,0.29c0.29-0.11,0.33,0.29,0.58,0.2c0.07,0.23,0.46,0.14,0.49,0.4c0.31-0.04,0.47,0.29,0.75,0.38
		c0.01,0.05-0.03,0.05-0.03,0.09c0.41-0.06,0.65,0.39,1.1,0.4c0.01,0.07,0.03,0.12,0.06,0.17c0.27,0.04,0.5,0.17,0.75,0.32
		c0.07,0.01-0.02-0.13,0.09-0.09c0.06,0.06,0.01,0.08-0.03,0.12c0.01,0.07,0.2-0.03,0.14,0.11c0.17-0.07,0.36,0.29,0.55,0.11
		c-0.14,0.13,0.21,0.2,0.35,0.15c0.18,0.15,0.44,0.37,0.66,0.2c0.15,0.26,0.49,0.22,0.66,0.4c0.35,0.03,0.43,0.03,0.69,0.2
		c0.23-0.03,0.7,0,0.69,0.2c0.09,0.01,0.07-0.09,0.17-0.06c-0.02,0.13,0.06,0.12,0.14,0.09c0,0.05-0.03,0.06-0.03,0.11
		c0.14,0.03,0.17-0.06,0.26-0.09c0.08,0.01,0.14,0.05,0.17,0.12c0.02,0.08-0.06,0.06-0.06,0.11C20.13,8.96,19.95,9,19.82,8.94
		C19.76,8.95,19.74,9,19.7,9.03c-0.43-0.14-0.69-0.26-1.18-0.35c-0.01,0.06,0.04,0.06,0.09,0.06c-0.19,0.02-0.19-0.14-0.4-0.11
		c0.01-0.02,0.03-0.05,0.03-0.09c-0.02,0.05-0.09,0.05-0.11,0.09c-0.06-0.09-0.27-0.04-0.2-0.12c-0.22,0.08-0.23-0.1-0.4-0.03
		c-0.01-0.07,0-0.11,0.03-0.15c-0.13,0.12-0.12-0.09-0.29,0c-0.03-0.22-0.62-0.36-0.98-0.46c0-0.07-0.04-0.09-0.06-0.14
		c-0.19,0.08-0.28-0.17-0.49-0.06c-0.16-0.28-0.78-0.36-0.92-0.61c-0.03,0.02-0.03,0.07-0.09,0.06c-0.06-0.11-0.19-0.22-0.32-0.17
		c-0.28-0.3-0.65-0.5-1.1-0.63c-0.07-0.21-0.34-0.35-0.52-0.35c-0.06-0.26-0.26-0.14-0.49-0.23c-0.01-0.06-0.08-0.05-0.06-0.14
		C12.09,5.6,12.12,5.61,12,5.65c0.02-0.03,0.05-0.04,0.09-0.06c-0.08-0.06-0.18-0.11-0.23-0.2c-0.59-0.13-1.01-0.59-1.56-0.52
		c-0.02-0.07-0.1-0.08-0.12-0.15c-0.03,0.02-0.03,0.07-0.09,0.06C9.75,4.46,9.18,4.62,8.86,4.33C8.83,4.45,8.71,4.3,8.66,4.38
		c-0.11-0.25-0.39,0.03-0.46-0.2C8.06,4.35,8.04,4.08,7.82,4.15c-0.01,0-0.04,0.06-0.03,0.06c-0.05,0-0.15-0.19-0.17-0.03
		C7.57,4.07,7.51,4.1,7.44,4.04c-0.12-0.01-0.11,0.1-0.2,0.12C7.22,4.11,7.29,4.09,7.27,4.07C7.26,4.04,7.09,4.01,7.04,4.01
		C6.77,4,6.38,3.78,6.12,3.89C5.9,3.76,5.49,3.8,5.22,3.81C5.11,3.67,4.93,3.53,4.96,3.32c0.06-0.44,1.21-0.15,1.47-0.43
		c0.09-0.02,0.03,0.1,0.14,0.06c0.04-0.01-0.01-0.04,0-0.09C6.74,2.94,6.94,2.97,7.07,2.8c0.09,0.02-0.03,0.06,0,0.12
		c0.27-0.11,0.57,0.02,0.69-0.17c0.05,0.01,0.07,0.05,0.06,0.11C7.93,2.89,7.9,2.78,7.99,2.8C7.99,2.82,7.96,2.83,7.96,2.86
		c0.16-0.05,0.59-0.01,0.75-0.11c0.23,0.09,0.47-0.01,0.64,0C9.41,2.71,9.4,2.6,9.46,2.57c0.13,0.03,0.02,0.18,0.12,0.2
		c0.1,0,0.14-0.06,0.2-0.09c0.04,0.14,0.17-0.11,0.23,0.06c0.03-0.03,0.11-0.01,0.09-0.09c0.09,0.05,0.32,0.16,0.37,0
		c0.15,0.06,0.33,0.09,0.43-0.03c-0.02,0.17,0.13,0.05,0.17,0.03c0.24,0.07,0.53,0.1,0.69,0.03c0.31,0.09,0.43,0.05,0.81,0.03
		c0.15,0.16,0.49,0.08,0.69,0.09c0.02,0,0.1,0.06,0.11,0.06C13.44,2.83,13.53,2.74,13.59,2.86"/>
	<path class="st0" d="M39.6,12.69c-0.04,0.16,0.1,0.34,0.11,0.46c0.05,0.36-0.06,0.98-0.32,0.95c-0.4-0.04,0.14-0.64-0.23-0.78
		c0.01-0.04,0.04-0.06,0.09-0.06c-0.09-0.2-0.09-0.42-0.29-0.55c-0.03-0.02-0.11,0.01-0.15,0c-0.1-0.04-0.1-0.14-0.14-0.15
		c-0.4-0.08-1.04,0.34-1.27,0.52c-0.02,0.33-0.45,0.39-0.38,0.72c-0.41,0.19-0.16,0.73-0.12,1.07c0.07,0.07,0.15,0.02,0.2,0.06
		c0.03,0.09-0.06,0.05-0.11,0.06c0.12,0.17,0.47,0.21,0.66,0.14c0.17,0.09,0.47,0.06,0.69,0.03c0.03-0.01,0.02-0.05,0.03-0.09
		c0.41,0,0.77-0.07,1.01-0.35c0.06-0.01,0.06,0.04,0.06,0.09c0.66-0.32,1.35-0.79,1.41-1.53c0.06,0,0.04-0.08,0.12-0.06
		c-0.12-0.36-0.05-0.72-0.12-1.1c-0.03-0.19-0.18-0.39-0.23-0.61c-0.05-0.21,0.01-0.43-0.06-0.63c-0.07-0.22-0.23-0.31-0.2-0.63
		c-0.01-0.04-0.04,0.01-0.09,0c-0.15-0.52-0.35-1.01-0.69-1.21c-0.07-0.02,0.09-0.09,0-0.14c-0.11,0.1-0.16,0.24-0.38,0.23
		c-0.03-0.11-0.03-0.26-0.2-0.23c-0.1-0.22,0.01-0.48-0.11-0.66c0.12-0.22,0.32-0.48,0.58-0.26c-0.03-0.06,0.14-0.14,0.29-0.09
		c0.04,0.04-0.01,0.14-0.03,0.2c0.06,0.12,0.11-0.04,0.17,0.03c-0.09,0.26,0.23,0.38,0.2,0.58c0.13,0.1,0.28,0.18,0.29,0.4
		c0.35,0.62,0.66,1.14,0.72,1.99c0.27,0.23,0.23,0.67,0.35,1.12c0.1,0.39,0.18,1.04-0.09,1.44c0.03,0.81-0.79,1.01-1.12,1.62
		c-0.31,0.01-0.8,0.21-0.92,0.4c-0.84,0.12-2.2,0.5-2.85-0.26c-0.03,0.02-0.03,0.07-0.09,0.06c0.06-0.16-0.12-0.37-0.23-0.38
		c-0.06-0.38-0.13-0.7,0-1.04c0.01-0.07-0.13,0.02-0.09-0.09h0.11c-0.05-0.14,0.02-0.25,0.09-0.35c-0.02-0.08-0.09-0.1-0.09-0.2
		c0.09-0.02,0.06-0.02,0.12,0.03c0.52-0.77,1.16-1.53,2.36-1.53c0.22,0.11,0.39,0.27,0.61,0.38C39.34,12.48,39.44,12.62,39.6,12.69"
		/>
	<path class="st0" d="M29.65,13.73c-0.1-0.01-0.06,0.14-0.17,0.12c-0.13-0.14-0.28-0.17-0.32-0.35c-0.07-0.33,0.37-0.58,0.4-0.92
		c0.13-0.05,0.24-0.14,0.15-0.26c0.2-0.03,0.34-0.24,0.32-0.4c0.19-0.1,0.32-0.4,0.32-0.61c0.1-0.09,0.16-0.2,0.14-0.4
		c-0.07-0.02-0.12,0.13-0.17,0.03c0.26-0.29,0.12-0.87-0.14-1.07c0.02-0.01,0.06,0,0.06-0.03c-0.11-0.02-0.19-0.08-0.29-0.11
		c0,0.03,0.01,0.08-0.03,0.09c-0.04-0.07-0.13-0.1-0.26-0.09c-0.04,0.09-0.15,0.14-0.09,0.26c-0.17-0.12-0.39,0.24-0.4,0.38
		c-0.34,0.24-0.58,0.81-0.64,1.15c-0.33,0.3-0.19,0.97-0.35,1.33c0.04,0.02,0.05,0.06,0.06,0.12c-0.04,0.03-0.09,0.04-0.09,0.11
		c0.05,0.03,0.05,0.1,0.09,0.14c-0.03,0.58,0.25,1.33,0.63,1.67c0.05-0.04,0.16-0.07,0.2-0.03c0.05-0.19,0.27-0.21,0.29-0.43
		C29.73,14.51,29.52,13.85,29.65,13.73 M31.96,14.71c-0.06,0.02-0.07,0.11-0.06,0.2c0.1,0.02,0.04-0.12,0.15-0.09
		c0,0.18,0.01,0.3-0.03,0.46c-0.23,0-0.35,0.11-0.49,0.09c-0.16-0.03-0.18-0.25-0.43-0.17c0.02-0.19-0.21-0.27-0.35-0.2
		c-0.1-0.02-0.07-0.19-0.2-0.11c0.04-0.18-0.09-0.58-0.38-0.43c0,0.03,0.03,0.02,0.06,0.03c-0.11,0.03-0.09,0.2-0.12,0.32
		c-0.3,0.08-0.26,0.49-0.63,0.55c-0.26,0.56-1,0.21-1.33-0.12c-0.12-0.44-0.54-0.83-0.46-1.21c-0.09-0.07-0.06-0.26-0.23-0.26
		c0.15-0.8-0.03-1.78,0.43-2.45c-0.02-0.03-0.03-0.07-0.03-0.11c0.04-0.02,0.07-0.04,0.11-0.06c0.01-0.23,0.16-0.55,0.35-0.75
		c0.05-0.34,0.37-0.66,0.69-0.92c0.27-0.22,0.65-0.61,1.01-0.32c0.05,0,0.06-0.03,0.11-0.03c0.27,0.32,0.76,0.56,0.72,1.09
		c0.04,0.03,0.08,0.07,0.12,0.12c0.08,0.62,0.03,1.44-0.43,1.96c0.03,0.05,0,0.15,0.09,0.14c-0.07,0.14-0.05,0.23-0.03,0.4
		c-0.21,0.39-0.01,0.78,0.23,0.98c-0.06,0.21,0.22,0.37,0.35,0.4c-0.13,0.25,0.34,0.13,0.35,0.35c0.07-0.04,0.11-0.13,0.17-0.03
		C31.52,14.67,31.89,14.54,31.96,14.71"/>
	<path class="st0" d="M68.12,15.98c0.02,0.01,0.03,0.02,0.03,0.06c-0.04-0.03-0.07-0.03-0.12,0c0.01-0.04,0.05-0.05,0.06-0.09
		c-0.1-0.02-0.12,0.03-0.17,0.06c0.01-0.07-0.01-0.11-0.06-0.11c-0.16,0.05-0.36,0.06-0.58,0.06c0,0.05-0.01,0.09-0.03,0.12
		c0.1-0.06,0.3-0.08,0.17,0.06c0.31,0.02,0.49,0.01,0.75,0.06c0.11-0.03,0.11-0.16,0.23-0.17c0,0.12,0.09,0.08,0,0.17h0.23
		c-0.02-0.08,0.06-0.06,0.09-0.09c0.01,0.04,0.04,0.05,0,0.09c0.07-0.02,0.14-0.04,0.15-0.12c-0.18,0.02-0.04-0.09-0.09-0.12
		C68.63,15.98,68.38,15.88,68.12,15.98 M67.2,15.98c-0.07-0.04-0.11-0.07-0.2-0.03c0.03-0.04,0.03-0.07-0.03-0.09v0.09
		C67.01,15.97,67.14,16.06,67.2,15.98 M67.34,13.24c-0.04-0.01-0.07-0.04-0.12-0.06c-0.11,0.11-0.29,0.25-0.14,0.46
		c-0.13-0.04-0.21,0.18-0.06,0.17c0.01-0.14,0.36-0.34,0.46-0.58c-0.05-0.03-0.1,0.09-0.12,0c0.04-0.09,0.06-0.01,0.14-0.06
		c0-0.05-0.02-0.1-0.06-0.11C67.46,13.17,67.34,13.14,67.34,13.24 M70.69,14.04c0.07-0.02,0.06-0.11,0.17-0.09
		c0,0.05,0.03,0.06,0.03,0.11c0.14,0,0.17-0.12,0.35-0.09c0.05,0.17,0.2,0.24,0.23,0.43c-0.02,0.16-0.2,0.15-0.2,0.32
		c-0.14-0.06-0.11,0.03-0.23,0.06c-0.06-0.1-0.18,0.04-0.17-0.12c-0.13,0.07-0.13,0.09-0.32,0.09v-0.09c-0.14,0.09-0.39,0-0.46,0.2
		c-0.11-0.05-0.31-0.05-0.35,0.06c-0.18-0.14-0.4-0.25-0.61-0.06c-0.02-0.1-0.36,0.07-0.43-0.03c-0.13,0.08-0.27,0.16-0.43,0.14
		c-0.07,0.05-0.03,0.08-0.11,0.15c-0.12-0.05-0.28,0.03-0.35,0.11c0.26-0.04,0.5,0.09,0.75-0.03v0.09c0.67,0.08,1.12,0.38,1.53,0.72
		c0.05,0.75-1.14,0.69-1.53,0.92c-0.09,0.01-0.08-0.08-0.14-0.09c-0.4,0.13-0.95,0.11-1.3-0.09c-0.14,0.23-0.3-0.13-0.38,0.06
		c-0.03-0.01-0.02-0.05-0.03-0.09c-0.15,0.11-0.38-0.02-0.55,0.09c-0.32-0.2-0.81,0-1.01-0.26c-0.09-0.02-0.1,0.03-0.17,0.03
		c-0.35-0.3-0.82-0.48-1.01-0.95c-0.24-0.16-0.22-0.57-0.43-0.75c-0.05-0.56-0.15-1.1,0.03-1.76c0.03-0.11-0.07-0.08-0.06-0.17
		c0.21-0.19,0.07-0.52,0.17-0.72c0.01-0.01,0.08-0.01,0.09-0.03c0.06-0.23,0.04-0.48,0.09-0.69c0.03-0.14,0.16-0.24,0.2-0.38
		c0.03-0.08-0.02-0.16,0-0.23c0.05-0.18,0.22-0.34,0.14-0.55c0.04-0.07,0.09-0.14,0.17-0.17c0.02-0.31,0.08-0.81,0.32-1.01
		c0.67-0.04,0.58,0.67,0.37,0.98c0.01,0.07,0.09,0.09,0.09,0.17c-0.17,0.3-0.46,0.66-0.4,0.95c-0.17,0.42-0.44,1.01-0.38,1.47
		c-0.31,0.32-0.05,0.94-0.26,1.41c0.08,0.12,0.03,0.24,0.06,0.38c0.03,0.12,0.12,0.19,0.15,0.29c0.02,0.09-0.08,0.31,0.11,0.35v0.2
		c0.22,0.19,0.49,0.34,0.69,0.55c0.1,0-0.06-0.1,0.03-0.09c0.12,0.07,0.24,0.12,0.32,0.23c0.25-0.03,0.42,0.03,0.63-0.03
		c0,0.05-0.02,0.07-0.06,0.09c0.03,0.06,0.11,0.06,0.2,0.06c-0.37-0.78,0.12-1.83,0.72-2.34c-0.06-0.14-0.15-0.01-0.23-0.03
		c-0.51-0.13-0.31-1.02,0.12-1.18c0.13-0.23,0.48-0.34,0.72-0.29c0.18-0.11,0.51-0.15,0.72-0.06c0.36,0.45,0,1.08-0.23,1.35
		c-0.09,0.08-0.25,0.08-0.2,0.29c-0.03,0.02-0.07,0.03-0.12,0.03c0.06,0.14-0.04,0.18-0.14,0.23c0.14,0.08-0.13,0.1-0.14,0.2
		c0.02,0.07,0.18,0,0.2,0.06c0.06-0.03,0.13-0.06,0.14-0.15c0.08-0.02,0.07,0.04,0.14,0.03c0.16-0.28,0.57,0.08,0.69-0.32
		c0.1,0,0.07,0.12,0.14,0.14c0.05-0.09,0.35,0.01,0.26-0.14c0.11,0.02,0.09,0.16,0.26,0.12c0.05-0.07,0.11-0.12,0.17-0.17
		c0.06,0.02,0.01,0.15,0.12,0.11c0.04-0.01,0.03-0.06,0-0.06C69.99,14.15,70.4,13.88,70.69,14.04"/>
	<path class="st0" d="M20.42,11.65c0-0.13,0.08-0.01,0.11,0c0.02-0.12-0.11-0.13-0.06-0.35c0.01-0.04,0.1-0.07,0.11-0.11
		c0.04-0.14-0.1-0.26,0-0.35c0.07,0.01,0.12,0.06,0.17,0c-0.18-0.48,0.49-0.5,0.55-0.15c0,0.17-0.15,0.28-0.06,0.46
		c0.09,0.02,0.09-0.05,0.14,0c-0.05,0.22-0.12,0.24-0.23,0.4c-0.06,0.02-0.04-0.06-0.09-0.06c-0.08,0.28-0.14,0.69-0.23,1.07
		c-0.15,0.01-0.23,0.08-0.35,0.11c-0.04-0.08-0.05-0.18-0.12-0.23C20.45,12.27,20.67,11.69,20.42,11.65"/>
	<path class="st0" d="M34.9,13.04c0.03,0.02,0.06,0.03,0.11,0.03c0.02-0.08-0.06-0.06-0.06-0.12c-0.13,0.07-0.22,0.19-0.32,0.29
		c-0.01,0.07,0.13-0.02,0.09,0.09c-0.4,0.03-0.5,0.66-0.69,1.1c0.01,0.05,0.05-0.03,0.06,0.03c-0.08,0.17-0.17,0.41-0.09,0.61
		c-0.05,0.14-0.2,0.18-0.26,0.32c-0.51,0.02-0.62-0.36-1.01-0.52c0-0.07-0.05-0.09,0-0.14c-0.03-0.02-0.08-0.04-0.14-0.03
		c-0.01-0.07-0.05-0.11-0.03-0.2c-0.03-0.06-0.11-0.06-0.14-0.12c-0.03,0.01-0.05,0.03-0.06,0.06c-0.04,0.09-0.04-0.08,0.03-0.06
		c-0.15-0.34-0.48-0.5-0.61-0.86h-0.11c-0.09-0.32-0.2-0.49-0.2-0.86c-0.1-0.06-0.19-0.18-0.11-0.32c-0.15-0.11-0.27-0.72,0.11-0.81
		c0.18,0.03,0.25,0.08,0.43,0.14c0.09,0.52,0.26,0.92,0.49,1.38c0.27,0.32,0.42,0.75,0.78,0.98c-0.01,0.07,0,0.11,0.03,0.14
		c0.1,0,0.13-0.06,0.17,0.03c0.17-0.27,0.37-0.64,0.4-0.95c0.31-0.06,0.39-0.59,0.81-0.64c0.08-0.02-0.07-0.04-0.03-0.11
		c0.11,0,0.07-0.04,0.06-0.12c0.03,0.02,0.06,0.03,0.12,0.03c0.08-0.2,0.38-0.33,0.38-0.52c0.26-0.15,0.83-0.55,0.89,0.06
		c0.03,0.04,0.04,0.09,0.12,0.09c0.03,0.39-0.17,0.57-0.09,0.84c-0.25,0.29-0.3,0.64-0.32,0.98c-0.16-0.09-0.13,0.21-0.2,0.29
		c0.04,0.08,0.16,0.25-0.03,0.26c0,0.11,0.05,0.16,0.11,0.2c-0.01,0.06-0.08,0.05-0.06,0.14c0,0.09,0.14,0.04,0.17,0.09
		c-0.02,0.11-0.1,0-0.14,0.06c0.09,0.41,0.46,0.54,0.63,0.87c-0.14,0.1-0.23,0.23-0.4,0.29c-0.02-0.03-0.03-0.07-0.03-0.12
		c-0.09,0.06-0.22-0.03-0.38,0c0.03-0.15-0.14-0.11-0.11-0.26c-0.06,0.05-0.05-0.02-0.14,0v-0.11c-0.02,0.02-0.08,0.02-0.09,0.06
		c0-0.09-0.1-0.11-0.2-0.17c0.01-0.06,0.01-0.12,0.09-0.11c-0.09-0.14,0-0.28-0.14-0.35c0.07-0.38-0.19-0.71,0.06-0.89
		c0.02-0.12-0.14-0.05-0.11-0.17c0.09,0.02,0.06-0.07,0.11-0.09c-0.1-0.17,0.12-0.31,0.14-0.55c-0.1-0.02-0.11,0.06-0.2,0.06
		C34.79,13.16,34.92,13.18,34.9,13.04"/>
	<path class="st0" d="M32.33,28.32c0.05,0.01,0.06-0.03,0.11-0.03c0.01-0.08-0.01-0.12-0.09-0.11
		C32.38,28.26,32.32,28.25,32.33,28.32 M33.43,28c-0.07,0.06-0.14-0.05-0.2,0.03C33.28,28.07,33.42,28.13,33.43,28 M33.14,28.09
		c-0.07,0.01-0.06-0.05-0.14-0.03v0.09c0.07-0.01,0.11-0.04,0.2-0.03c-0.01-0.05,0.03-0.14-0.06-0.11
		C33.13,28.04,33.1,28.05,33.14,28.09 M76.92,18.14c0.04,0.17,0.22-0.09,0.23,0.06c0-0.1,0.08-0.08,0.15-0.06
		c0.06-0.01-0.04-0.08,0.03-0.11c0.06,0.02,0.06,0.04,0.03,0.09c0.93-0.13,1.67-0.28,2.65-0.26c0.12,0.13,0.16,0.37,0.17,0.52
		c-0.09,0.12-0.27,0.15-0.38,0.26c-0.38-0.12-0.59,0.09-1.04,0.03c-0.03,0.02-0.04,0.05-0.06,0.09c-0.05-0.02,0-0.05,0-0.09
		c-0.49,0.01-0.71,0.16-1.21,0.17c-0.08,0.18-0.35,0.17-0.43,0.35c-0.05-0.04-0.1-0.07-0.11-0.14c0.05,0,0.06,0.03,0.11,0.03
		c-0.01-0.15-0.09-0.03-0.17-0.03c0.03,0.04,0.03,0.11,0.09,0.12c-0.14,0.32-0.31,0.51-0.63,0.23c0-0.08,0.01-0.17-0.03-0.2
		c-0.12-0.04-0.09,0.06-0.17,0.06c-0.13-0.02,0.12-0.11-0.03-0.17c-0.06,0-0.06,0.07-0.06,0.14c-0.07,0-0.07-0.11-0.03-0.14
		c-0.13-0.03-0.06,0.13-0.2,0.09c-0.05-0.06,0-0.07,0-0.15c-0.18,0-0.38-0.02-0.55,0.09c-0.31-0.13-0.46,0.14-0.81,0.03
		c-0.6,0.14-1.33,0.17-2.05,0.34c-0.09,0.03-0.09-0.04-0.15-0.06c-0.97,0.27-1.99,0.17-2.97,0.52c-0.22-0.01-0.51-0.05-0.66,0.14
		c-0.4-0.14-0.83,0.03-1.33,0.15c-0.26-0.05-0.54,0.11-0.81,0.06c-0.08,0.02-0.14,0.07-0.2,0.11c-0.72,0-1.29,0.28-2.13,0.29
		c-0.49,0.18-1.03,0.13-1.5,0.23c-0.17,0.04-0.31,0.13-0.61,0.15c-0.49,0.02-0.98,0.1-1.53,0.17c-0.07-0.01-0.03,0.08-0.09,0.09
		c-0.14,0.01-0.26,0-0.38-0.03c-0.06,0.02-0.12,0.06-0.12,0.15c-0.16-0.01-0.22,0.06-0.29-0.06c-0.54,0.1-1.45,0.32-2.02,0.35
		c-0.09-0.02-0.04,0.1-0.12,0.09c-0.09-0.01-0.16-0.03-0.23-0.06c-0.09,0.02-0.13,0.1-0.2,0.14c-0.6,0.03-1.24,0.25-1.79,0.32
		c-0.4,0.12-0.86,0.13-1.15,0.29c-0.22-0.09-0.47,0.01-0.63,0.17c-0.49-0.09-0.83,0.19-1.33,0.2c-0.13,0.08-0.23,0.19-0.43,0.2
		c-0.08-0.08-0.07-0.07-0.2-0.09c-0.05,0-0.02,0.1-0.06,0.11c-0.26,0.01-0.51,0-0.75,0.06c-0.1,0.02-0.17,0.1-0.26,0.11
		c-0.24,0.05-0.48-0.05-0.64,0.14c-0.47-0.14-0.82,0.31-1.15,0.2c-0.26,0.2-0.46,0.03-0.69,0.26c-0.27-0.2-0.41,0.09-0.66,0.03
		c-0.11,0-0.11,0.12-0.17,0.17c-0.49-0.02-0.92,0.06-1.27,0.29c-0.19-0.06-0.6-0.01-0.72,0.17c-0.7-0.06-1.05,0.27-1.62,0.26
		c-0.34,0.19-0.7,0.28-1.15,0.32c-0.31,0.43-1.01,0.15-1.38,0.55c-0.04-0.01-0.02-0.07-0.03-0.12c-0.19,0.12-0.45,0.08-0.58,0.2
		c-0.57,0.09-0.92,0.26-1.53,0.4c-0.21,0.05-0.4,0.05-0.61,0.2c-0.07,0.01-0.06-0.05-0.14-0.03c-0.05,0.01-0.07,0.05-0.06,0.12
		c-0.08-0.03-0.18-0.03-0.29-0.03c-0.37,0.28-0.72,0.19-1.04,0.43c-0.22-0.05-0.34,0.05-0.49,0.14c-0.04-0.01-0.07-0.04-0.12-0.06
		c-0.27,0.27-0.7,0.24-1.1,0.4c-0.04,0.01,0.01,0.04,0,0.09c-0.29,0.01-0.43,0.04-0.63,0.17c-0.1-0.04-0.3-0.06-0.26,0.12
		c-0.33-0.09-0.47,0.12-0.72,0.2c0,0.07,0.05,0.09,0,0.15c0.11,0.02,0.1-0.08,0.15-0.12c0.04,0.01,0.02,0.07,0.03,0.12
		c0.62-0.06,1.15-0.11,1.64-0.06c0.03,0,0.03-0.05,0.03-0.09c0.26,0.1,0.32-0.18,0.58-0.17c-0.05,0.1,0.02,0.07,0.03,0.17
		c-0.23-0.05-0.34,0.15-0.61,0.12c0.04,0.41-0.46,0.49-0.78,0.43c-0.22,0.17-0.67,0.21-0.95,0.14c-0.18,0.09-0.34,0.17-0.63,0.12
		c-0.05,0.05-0.06,0.12-0.12,0.03c-0.06,0-0.06,0.07-0.06,0.14c-0.18,0.02-0.32-0.05-0.38,0.09c-0.05,0-0.07-0.02-0.09-0.06
		c-0.04,0.02-0.06,0.07-0.06,0.14c-0.32-0.04-0.55,0.23-0.81,0.06c-0.07,0.04-0.12,0.09-0.12,0.2c-0.06-0.09-0.24-0.05-0.38-0.06
		c-0.2,0.28-0.67,0.17-0.86,0.35c-0.14-0.07-0.55,0.14-0.69-0.15c-0.03,0.02-0.03,0.07-0.09,0.06c0.03-0.14-0.1-0.28,0-0.46
		c0.29-0.15,0.48-0.29,0.72-0.52c0.04,0.01-0.01,0.04,0,0.09c0.39-0.23,0.92-0.51,1.47-0.66c0.06-0.04,0.15-0.05,0.14-0.14
		c0.16,0.08,0.63-0.1,0.61-0.23c0.13,0.12,0.28-0.01,0.43-0.09c0.01-0.05-0.02-0.05-0.06-0.06c0.06-0.12,0.23-0.02,0.35,0.03
		c-0.03-0.15,0.43-0.04,0.49-0.26c0.08-0.02,0.08,0.04,0.15,0.03c0.61-0.32,1.4-0.41,1.84-0.72c0.24,0.04,0.32-0.09,0.58-0.09
		c0.03,0,0.02-0.05,0.03-0.09c0.09-0.01,0.11,0.04,0.17,0.06c0.28-0.11,0.52-0.25,0.78-0.26c0.05,0,0.02-0.1,0.06-0.12
		c0.18,0.16,0.36-0.15,0.58-0.06c-0.13-0.13,0.3-0.09,0.4-0.12c0.37-0.11,0.76-0.31,1.12-0.35c0.08,0,0.04-0.11,0.12-0.12
		c0.06-0.02,0.04,0.05,0.09,0.06c0.21-0.08,0.49-0.1,0.64-0.26c0.41-0.07,0.85-0.2,1.33-0.32c0.03-0.02,0.04-0.05,0.06-0.09
		c0.15,0.04,0.37,0.04,0.4-0.12c0.05,0,0.1,0.02,0.12,0.06c1.09-0.33,2.23-0.66,3.34-0.84c0.15-0.15,0.49-0.1,0.63-0.26
		c0.08-0.02,0.08,0.04,0.14,0.03c0.09,0.01,0.08-0.07,0.12-0.11c0.08,0.11,0.34,0.02,0.38-0.09c0.5-0.03,1.04-0.21,1.44-0.32
		c0.96-0.1,1.88-0.5,2.74-0.52c0.31-0.01,0.67-0.27,1.01-0.29c0.08,0,0.03,0.02,0.12,0c0.31-0.07,0.66-0.1,1.01-0.17
		c0.05-0.01,0.16-0.02,0.2-0.03c0.42-0.11,0.8-0.27,1.15-0.34c0.16-0.03,0.36,0.06,0.49-0.09c1.18-0.14,2.35-0.54,3.66-0.63
		c0.48-0.15,1.18-0.24,1.67-0.29c0.14-0.06,0.25-0.1,0.4-0.11c1.27-0.11,2.67-0.39,3.92-0.52c0.03-0.03,0.06-0.06,0.09-0.09
		c1.13-0.1,2.28-0.38,3.4-0.49c0.23-0.17,0.6,0,0.81-0.2c0.07,0,0.09,0.05,0.14,0.06c0.37-0.16,0.82-0.16,1.27-0.2
		c0.18-0.02,0.35-0.1,0.52-0.11c1.4-0.15,2.88-0.42,4.21-0.52c0.24-0.12,0.54-0.03,0.81-0.2c0.01,0.17,0.24-0.15,0.35,0.03
		c0.04-0.05,0.25-0.08,0.17-0.15c0.06-0.08,0.49,0.09,0.52-0.03C76.66,18.23,76.92,18.29,76.92,18.14"/>
	<path class="st0" d="M48.13,15.89c-0.03-0.01-0.08,0-0.09-0.03c0.12-0.07-0.02-0.05-0.03-0.14c0.09,0.02,0.09-0.05,0.14-0.06
		c0-0.13-0.02-0.11,0-0.23c-0.2-0.17-0.14-0.48-0.14-0.75c-0.66,0.14-1.21,0.64-1.87,0.87c0.02,0.08-0.06,0.06-0.06,0.12
		c0.32,0.23,0.63,0.21,0.92,0.4c0.31,0.03,0.74-0.07,0.98,0.06c-0.03,0.01-0.07,0.03-0.09,0.06c0.1,0,0.2,0.06,0.29,0.03
		c0.04-0.12-0.16,0.01-0.12-0.11c0.07,0,0.09,0.05,0.12-0.03c-0.13-0.06,0.1-0.25-0.03-0.23C48.11,15.84,48.18,15.88,48.13,15.89
		 M48.68,7.87c0.09,0.04,0.15-0.1,0.09-0.12c-0.04,0.1-0.03-0.1-0.12-0.06C48.59,7.76,48.69,7.79,48.68,7.87 M48.57,13.53
		c-0.03-0.02-0.11-0.07-0.09,0.03c0.64-0.23,1.29-0.71,1.85-1.12c0.06-0.01,0.08,0.02,0.12,0.03c0.5-0.45,1.09-0.82,1.64-1.21
		c0-0.04,0.01-0.08-0.03-0.09c0.67-0.25,1.32-0.78,1.79-1.33c0.18-0.08,0.35-0.16,0.4-0.38c0.04,0.01,0.05,0.05,0.09,0.06
		c0.49-0.5,1.08-0.9,1.47-1.5c0.07,0.01,0.11,0,0.14-0.03c0.45-0.64,1.2-1.24,1.44-2.08c0.36-0.25,0.3-0.75,0.46-1.1
		c-0.05-0.66-0.1-1.36-0.64-1.7c-0.02-0.09-0.02-0.06,0-0.14c-0.05-0.06-0.1-0.05-0.17-0.03c-0.04-0.13-0.2-0.32-0.46-0.32
		c-0.05-0.13-0.15-0.19-0.35-0.17c0.01-0.02,0.03-0.05,0.03-0.09c-0.39-0.08-0.67-0.27-1.12-0.29C55.05,2.09,55.06,2,55.03,1.96
		c-0.62,0.02-1.13,0.15-1.62,0.38c-0.2,0.22-0.25,0.57-0.63,0.61c0-0.03-0.03-0.02-0.06-0.03c-0.04-0.13-0.1-0.27-0.09-0.4
		c0.02-0.15,0.25-0.61,0.43-0.75c0.28-0.22,0.77-0.31,1.15-0.49c0.74-0.03,1.62,0.14,2.25,0.52c0.11,0.02,0.12-0.05,0.23-0.03
		c0.19,0.26,0.45,0.45,0.78,0.58c0.02,0.31,0.47,0.34,0.4,0.63c0.11,0.05,0.17,0.13,0.29,0.17c0.07,0.27,0.04,0.47,0.2,0.64
		c-0.06,0.15,0.01,0.23,0.09,0.32c0.02,0.29-0.07,0.62,0.03,0.95C58.32,5.39,58.33,5.91,58,6.08c0.04,0.21-0.11,0.23-0.09,0.43
		c-0.98,1.27-1.96,2.53-3.29,3.46c-0.5,0.64-1.26,1.01-1.85,1.56c-0.28,0.09-0.45,0.3-0.63,0.49c-0.84,0.55-1.7,1.09-2.51,1.67
		c-0.16-0.01-0.21,0.1-0.29,0.17c-0.31,0.07-0.48,0.27-0.75,0.38c0.04,0.34-0.08,0.65,0.11,1.01c-0.03,0.34-0.1,0.63,0.06,0.92
		c0.22,0.19,0.48,0.13,0.75,0.14c0.15,0.01,0.29,0.09,0.43,0.12c0.39,0.06,0.79,0.14,1.1,0.29c0.07-0.01,0.05-0.1,0.14-0.09
		c0.08,0.03,0.18,0.05,0.17,0.17c0.14,0.01,0.14-0.13,0.2-0.2c0.05,0.16,0.25,0.17,0.37,0.26c-0.02,0.23-0.12,0.38-0.2,0.55
		c-0.14-0.01-0.25,0.02-0.32,0.09c-0.07-0.2-0.29-0.17-0.46-0.09c-0.13-0.01-0.33-0.2-0.43-0.06c-0.11-0.09-0.2-0.11-0.38-0.06
		c-0.13-0.12-0.31-0.19-0.4-0.35c-0.06,0.02-0.07,0.1-0.12,0.14c-0.8-0.12-1.58-0.24-2.22-0.35c-0.07,0.01-0.12,0.03-0.14,0.09
		c-0.24-0.23-0.76-0.15-0.95-0.35h-0.2c-0.01-0.06-0.06-0.08-0.09-0.12c-0.53-0.09-0.77-0.48-1.07-0.81
		c0.04-0.13,0.17-0.18,0.17-0.34c0.98-0.35,1.81-0.85,2.71-1.27c-0.11-0.06-0.01-0.11,0.03-0.17c-0.03-0.34-0.01-0.8-0.14-1.07
		c-0.01-0.07,0.08-0.03,0.09-0.09c-0.09-0.51,0.08-1.21-0.12-1.7c0.07-0.12,0.02-0.17,0.09-0.29c0.02-0.1-0.03-0.12-0.06-0.17
		c0.07-0.24,0.06-0.61,0.03-0.92c0.17-0.19,0.07-0.35,0.03-0.63c0.17-0.15-0.12-0.5,0.17-0.64c-0.05-0.07-0.05-0.2-0.09-0.29
		c0.17-0.56,0.2-1.44,0.55-2.13c0.75,0.02,0.82,0.98,0.6,1.61c0.02,0.3,0.31,0.68,0.12,0.92c-0.24-0.01-0.31-0.19-0.32-0.43
		c-0.1,0-0.11,0.02-0.23-0.06c-0.07,0.4-0.03,0.94-0.17,1.36c0.07,0.89-0.07,1.47-0.03,2.19c0.02,0.3,0.12,0.74-0.03,1.07
		c0.05,0.25,0.16,0.56,0.09,0.81C48.46,13.42,48.56,13.43,48.57,13.53"/>
	<path class="st0" d="M36.34,10.81c-0.03-0.08-0.05,0.08-0.14,0.03c-0.04-0.13,0.04-0.25-0.14-0.26c0.08-0.08,0-0.15-0.12-0.12
		c0.01-0.19,0-0.36-0.14-0.4c0.01-0.19,0.18-0.39-0.03-0.49c0.03-0.12,0.09-0.2,0.2-0.23c-0.02-0.07-0.05,0.04-0.09-0.03
		c0.05-0.1,0.12-0.11,0.12-0.2c0.17,0.01,0.17,0.12,0.32,0.03c0,0.07,0.12,0.03,0.09,0.14c0.07-0.01,0.11-0.05,0.2-0.03
		c-0.05,0.13-0.01,0.16,0.12,0.17c0.01,0.07-0.01,0.12-0.09,0.11c-0.01,0.16,0.05,0.24,0.17,0.26c0.01,0.06-0.02,0.09-0.09,0.09
		c0.01,0.04,0.09,0.01,0.09,0.06c-0.14,0.05-0.11,0.16-0.2,0.29c-0.01,0.09,0.11,0.06,0.12,0.14c0,0.13-0.08,0.17-0.06,0.32
		c-0.16,0.05-0.26,0.15-0.38,0.23C36.27,10.86,36.29,10.82,36.34,10.81"/>
	<path class="st0" d="M56.64,14.82c0.01,0.28-0.05,0.51-0.11,0.81c0.06,0.12,0.1,0.19,0.03,0.32c0.11,0.17,0.25,0.31,0.32,0.52
		c0.42,0.18,1.15,0.42,1.62,0.17c0.23,0.16,0.37-0.16,0.63-0.06c0-0.17,0.12-0.26,0.06-0.43c-0.02-0.07-0.15-0.09-0.12-0.2
		c-0.33-0.22-0.77-0.47-1.21-0.4c-0.48-0.1-0.99-0.06-1.12-0.55c0.02-0.07,0.11-0.14,0.06-0.2C56.72,14.79,56.67,14.8,56.64,14.82
		 M56.79,14.59c0,0.04,0.01,0.06,0.03,0.09c-0.04,0-0.07,0.01-0.06,0.06c0.15-0.01,0.06-0.1,0.14-0.14
		C56.86,14.56,56.83,14.56,56.79,14.59 M56.96,14.56c0.27-0.24,0.94-0.44,0.38-0.72c0.02-0.06,0.07-0.08,0.06-0.17
		c-0.3,0.2-0.35,0.48-0.49,0.84C57.03,14.49,56.88,14.56,56.96,14.56 M56.33,16.99c0.03-0.09-0.09-0.04-0.12-0.09
		c0.06-0.15-0.14-0.26-0.23-0.35c-0.08-0.42-0.37-0.82-0.15-1.15c0.04-1.33,0.99-2.07,1.59-3.11c0.07,0,0.09-0.05,0.14-0.06
		c0.05-0.22,0.23-0.31,0.37-0.43c0.03-0.11-0.11-0.05-0.09-0.14c0.27,0.02,0.3-0.2,0.43-0.32c0.34-0.02,0.53,0.11,0.63,0.32
		c-0.22,0.57-0.57,1.01-0.84,1.53c0.01,0.05-0.03,0.14,0.06,0.11c-0.12,0.14-0.16,0.36-0.2,0.58c0.13-0.02,0.16-0.05,0.23-0.17
		c0.39,0.04,0.53-0.32,0.84-0.26c0.04-0.05,0.11-0.08,0.11-0.17c0.13-0.04,0.34,0,0.35-0.17c0.6-0.05,0.77-0.54,1.47-0.49
		c-0.01,0.16,0.14,0.26,0.23,0.4c-0.03,0.18-0.05,0.15,0.03,0.29c-0.04,0.02-0.07,0.05-0.09,0.09c0.13,0.52-0.28,1.2-0.32,1.82
		c-0.01,0.18-0.06,0.36-0.06,0.52c-0.01,0.25,0.19,0.9,0.46,0.89c0.16,0-0.03-0.05,0.09,0.03c0.08,0.06,0.25-0.01,0.35,0.03
		c0.01,0.1,0.13,0.1,0.11,0.23c0.21,0.01,0.46,0.28,0.64,0.06c0.11-0.02,0.07,0.12,0.14,0.14c0.42-0.05,0.67-0.06,0.95-0.17
		c0.26,0.05,0.42,0.2,0.58,0.35c-0.03,0.18-0.11,0.23-0.14,0.35c-0.88-0.08-1.77,0.46-2.39-0.03c-0.05,0-0.1,0.02-0.12,0.06
		c-0.15-0.09-0.34-0.14-0.58-0.14c-0.25-0.21-0.39-0.53-0.63-0.75c0.01-0.17-0.07-0.25-0.12-0.38c-0.01-0.11,0-0.21,0.03-0.29
		c0.01-0.07-0.04-0.09-0.09-0.12c0.06-0.81,0.17-1.58,0.43-2.33c-0.01-0.06-0.08-0.05-0.06-0.15c-0.08,0-0.16,0.01-0.14,0.12
		c-0.06,0-0.04-0.08-0.11-0.06c-0.41,0.32-0.94,0.5-1.41,0.69c-0.04,0.04-0.04,0.11-0.09,0.14c-0.44-0.01-0.52,0.33-0.81,0.46
		c0.66,0.23,1.43,0.34,1.67,0.98h0.14c0.01,0.16,0.07,0.28,0.2,0.32c-0.05,0.1-0.03,0.24,0.03,0.32c-0.06,0.14-0.08,0.16-0.09,0.35
		c-0.12,0.12-0.29,0.19-0.35,0.38c-0.16,0.12-0.35,0.08-0.43,0.23c-0.74,0.07-1.41,0.07-2.11-0.09c-0.08,0.15-0.15,0.23-0.26,0.4
		c-0.24,0.01-0.47,0.01-0.58-0.12c-0.14,0.09-0.25,0.04-0.4,0.09c-0.05-0.22-0.46-0.28-0.66-0.43c-0.06,0.01-0.02,0.11-0.12,0.09
		c-0.2-0.14-0.28-0.4-0.58-0.43c-0.05,0.32-0.27,0.35-0.4,0.55c-0.48-0.08-0.76-0.35-0.92-0.75c-0.24-0.19-0.4-0.55-0.43-0.87
		c-0.29-0.33-0.16-0.66-0.32-1.04c0.07-0.28,0.17-0.7,0.09-1.01c0.05-0.08,0.08-0.17,0.12-0.26c-0.07-0.44,0.15-0.73,0.11-1.24
		c0.2-0.01,0.22-0.2,0.35-0.29c0.24,0.01,0.34,0.16,0.52,0.23c-0.01,0.1,0.01,0.16,0.03,0.23c-0.18,0.46-0.34,0.94-0.26,1.56
		c-0.03,0.06-0.1,0.14-0.12,0.2c-0.06,0.26,0.03,0.58,0.06,0.84c0.01,0.12-0.03,0.24,0,0.35c0.05,0.21,0.23,0.46,0.38,0.69
		c0.03,0.06,0.04,0.11,0.03,0.23c0.26-0.07,0.14-0.39,0.26-0.63c0.12-0.05,0.18-0.13,0.29-0.14c0.54-0.05,0.46,0.59,0.87,0.72v0.12
		c0.23-0.01,0.32,0.12,0.52,0.14c0.03,0.03,0.03,0.1,0.03,0.17C55.83,16.77,56.08,16.77,56.33,16.99"/>
</g>
</svg>
