<?xml version="1.0" encoding="utf-8"?>
<!-- Generator: Adobe Illustrator 23.0.0, SVG Export Plug-In . SVG Version: 6.00 Build 0)  -->
<svg version="1.1" id="Layer_1" xmlns="http://www.w3.org/2000/svg" xmlns:xlink="http://www.w3.org/1999/xlink" x="0px" y="0px"
	 viewBox="0 0 54.65 25.72" style="enable-background:new 0 0 54.65 25.72;" xml:space="preserve">
<style type="text/css">
	.st0{clip-path:url(#SVGID_2_);fill:#231F20;}
</style>
<g>
	<defs>
		<rect id="SVGID_1_" width="54.65" height="25.72"/>
	</defs>
	<clipPath id="SVGID_2_">
		<use xlink:href="#SVGID_1_"  style="overflow:visible;"/>
	</clipPath>
	<path class="st0" d="M44.9,13.57c-7.14-1.9-14.58-4.43-20.75-7.45c-2.23-1.09-4.44-1.93-6.12-3.37c-0.69-0.6-1.42-2.23-2.39-2.31
		c-0.59-0.05-1.76,0.66-2.4,0.98C9.09,3.47,6.03,5.4,3.13,8.42c-0.92,0.96-2.78,2.72-2.66,4.26c0.17,2.16,4,2.36,6.56,2.22
		c1.89-0.1,4.33-0.43,6.83-0.53c2.57-0.1,5.52-0.4,7.89-0.09c0.41,0.05,0.7,0.24,1.06,0.27c1.4,0.1,2.75-0.41,3.9-0.62
		c1.09,1.07,3.18-0.54,4.43-0.27c0.3,0.07,0.23,0.46,0.62,0.36c0.7-0.12,1.41-0.48,2.13-0.44c0.36,0.02,0.7,0.25,1.06,0.27
		c0.61,0.03,1.32-0.39,1.95-0.35c0.49,0.03,0.92,0.36,1.33,0.35c0.46,0,0.87-0.38,1.33-0.35c0.41,0.02,0.82,0.45,1.24,0.44
		c0.78-0.02,1.37-0.89,2.13-0.89C43.29,13.43,44.19,14.11,44.9,13.57 M10.93,2.04c1.68-0.87,3.18-1.92,5.14-2.04
		c3.19,4.07,9.54,6.71,14.99,8.69c3.51,1.27,7.04,2.35,10.91,3.64c2.2,0.73,4.03,1.68,5.76,0.09c0.5,0.72,1.22,0.93,2.13,1.06
		c-0.15,1-1.89,0.19-2.13-0.35c-0.55,0.07-0.62,0.62-1.33,0.53c2.27,1.15,5.25,1.7,6.92,3.37c0.47,0.48,1.36,1.57,1.33,2.31
		c-0.04,1.08-2.28,1.75-3.72,2.13c-4.83,1.26-9.44,1.9-14.63,2.48c-7.26,0.81-14.24,1.38-20.93,1.68c-3.08,0.14-5.42,0.19-7.8-0.44
		c-0.35-0.09-1.47-0.39-1.33-0.98c0.13-0.55,1.22-0.46,1.33,0.18c-0.36,0.01-0.42-0.29-0.89-0.18c2.54,1.32,7.2,0.96,10.82,0.8
		c10.99-0.5,22.86-1.45,33.08-3.99c2.15-0.53,4.55-1.01,3.01-3.01c-1.03-1.35-2.81-2.19-4.79-2.93c-1.17-0.43-2.33-1.01-3.02-1.06
		c-0.78-0.07-2.43,0.76-2.93-0.36c-0.86,0.38-2.38,1.19-3.37,0.36c-0.72,0.86-1.77,0.03-2.66,0c-0.94-0.04-2.09,0.84-2.93,0.09
		c-0.88,0.13-1.7,0.31-2.48,0.53c-0.3-0.05-0.47-0.24-0.62-0.44c-1.29,0.23-3.07,1.04-4.43,0.35c-1.35,0.74-3.38,0.46-4.97,0.27
		c-5.12-0.62-11.94,0.78-16.32,0.62c-2.9-0.11-6.35-1.36-4.61-4.61c0.62-1.17,1.95-2.39,3.01-3.46"/>
</g>
</svg>
